<?xml version="1.0" encoding="UTF-8" standalone="no"?>
<svg xmlns="http://www.w3.org/2000/svg" width="100%" height="100%" viewBox="0 0 226 156" version="1.1" style="fill-rule:evenodd;clip-rule:evenodd;stroke-linejoin:round;stroke-miterlimit:2" id="svg54">
    <g transform="matrix(1.4943036,0,0,1.4943036,18.56098,3.777322)" style="clip-rule:evenodd;fill-rule:evenodd;stroke-linejoin:round;stroke-miterlimit:2" id="g30">
        <path d="m 75.117,100.826 c -31.895,0 -57.75,-5.049 -57.75,-11.276 0,-2.18 3.169,-4.216 8.655,-5.941 3.533,3.041 7.475,5.789 11.524,8.126 5.272,4.177 12.153,6.688 19.933,7.757 1.126,0.198 2.215,0.337 3.253,0.411 2.082,0.15 4.128,0.221 6.135,0.221 5.939,0 11.535,-0.621 16.701,-1.663 14.752,-2.753 26.892,-8.268 34.083,-16.539 9.449,2.007 15.216,4.686 15.216,7.628 0,6.227 -25.855,11.276 -57.75,11.276 z" style="fill:#5c6329;fill-rule:nonzero" id="path2-1"/>
        <path d="m 111.272,36.676 c 0,0 9.462,-26.949 -6.168,-33.062 C 96.652,0.308 87.281,1.202 79.379,2.097 72.665,2.856 67.01,3.616 63.88,1.8 57.069,-2.157 48.937,0.784 41.223,6.978 33.508,13.166 6.234,19.367 4.874,33.717 3.515,48.066 -2.335,69.798 15.11,72.855 32.558,75.909 109.979,49.429 111.272,36.676 Z" style="fill:#527435;fill-rule:nonzero" id="path4-0"/>
        <path d="m 124.134,56.347 c 4.305,23.079 -13.847,37.13 -40.573,42.116 -26.728,4.986 -51.91,-0.982 -56.216,-24.06 -4.305,-23.077 13.871,-45.83 40.599,-50.817 26.731,-4.986 51.885,9.683 56.19,32.761 z" style="fill:#67a444;fill-rule:nonzero" id="path6-6"/>
        <path d="m 52.383,26.49 c 0,0 -6.696,7.795 0.53,10.249 7.221,2.455 18.445,1.417 18.762,6.847 0.32,5.432 3.521,9.482 11.199,8.682 7.678,-0.8 9.379,-4.494 14.409,0.692 5.03,5.187 7.715,10.387 13.646,12.026 5.931,1.641 13.153,9.583 6.086,17.24 -7.071,7.653 -28.481,19.673 -56.283,17.677 C 32.931,97.911 -29.459,50.257 52.383,26.49 Z" style="fill:#5c9a43;fill-rule:nonzero" id="path8-9"/>
        <path d="m 102.226,28.228 c 0,0 20.697,10.35 8.481,22.152 -12.213,11.805 -26.65,15.447 -30.54,19.184 -3.89,3.735 -5.05,11.711 -5.05,11.711 0,0 14.606,-10.643 31.975,-8.974 17.372,1.67 31.284,-0.452 30.992,-9.899 -0.298,-9.448 -4.965,-8.894 -2.28,-18.107 2.686,-9.214 -2.94,-27.167 -33.578,-16.067 z" style="fill:#82c341;fill-rule:nonzero" id="path10-5"/>
        <path d="m 58.62,33.536 c -2.437,3.126 13.561,-1.905 16.108,4.755 2.545,6.658 4.47,8.427 10.718,8.514 6.249,0.087 16.939,6.103 21.134,2.941 4.192,-3.16 6.428,-12.328 -6.315,-19.349 C 87.523,23.376 68.445,20.94 58.62,33.536 Z" style="fill:#82c341;fill-rule:nonzero" id="path12-9"/>
        <path d="m 80.289,63.287 c -3.121,0 -6.614,-0.208 -10.141,-0.582 -1.443,-0.153 -3.287,-0.212 -5.409,-0.212 -3.505,0 -7.771,0.16 -12.256,0.321 -4.485,0.16 -9.188,0.32 -13.567,0.32 -8.418,0 -15.636,-0.592 -17.793,-2.916 -5.076,-5.474 -5.472,-16.914 27.919,-31.406 0,0 -2.86,9.55 3.308,11.527 6.167,1.979 16.97,0.838 17.34,5.15 0.371,4.312 5.077,10.121 9.968,10.683 4.886,0.562 12.624,0.928 12.203,4.097 -0.283,2.134 -5.135,3.018 -11.572,3.018 z" style="fill:#73b343;fill-rule:nonzero" id="path14-7"/>
        <path d="m 30.167,84.602 c 0,0 10.981,-8.792 33.48,-6.245 22.495,2.548 33.61,14.055 34.051,14.805 0.44,0.751 -4.998,8.06 -30.599,7.58 -25.603,-0.481 -47.385,-14.69 -36.932,-16.14 z" style="fill:#527435;fill-rule:nonzero" id="path16-5"/>
        <path d="m 4.874,33.717 c 0,0 -2.82,31.095 19.225,31.258 22.043,0.165 39.688,0.359 54.819,10.681 15.135,10.324 19.252,18.429 19.252,18.429 0,0 -11.246,-14.855 -35.084,-15.792 C 39.247,77.355 34.78,88.8 17.504,85.689 0.233,82.575 -4.823,50.572 4.874,33.717 Z" style="fill:#79bb42;fill-rule:nonzero" id="path18-9"/>
        <path d="m 4.007,55.49 c 0,0 2.247,9.716 10.655,11.277 8.412,1.561 35.072,0.72 42.258,3.508 7.186,2.791 -15.297,0.352 -22.558,4.961 C 27.106,79.843 14.972,80.854 9.706,72.827 4.439,64.796 4.007,55.49 4.007,55.49 Z" style="fill:#82c341;fill-rule:nonzero" id="path20-7"/>
        <path d="m 15.99,40.919 c 0,0 31.084,-23.819 56.507,-22.739 25.424,1.077 31.896,0.808 30.78,-5.18 C 102.16,7.014 86.842,6.491 75.78,7.803 64.718,9.115 62.959,5.501 57.12,4.526 51.285,3.55 42.474,8.761 34.368,13.09 26.258,17.419 1.263,33.525 15.99,40.919 Z" style="fill:#5c9a43;fill-rule:nonzero" id="path22-7"/>
        <path d="m 44.677,33.385 c -3.53,4.736 7.594,11.244 15.535,10.617 7.94,-0.624 6.409,2.895 8.934,7.89 C 71.672,56.887 38.895,64.57 35.1,51.978 31.299,39.384 47.922,29.025 44.677,33.385 Z" style="fill:#82c341;fill-rule:nonzero" id="path24-3"/>
        <path d="m 66.174,29.748 c 7.852,-1.931 15.369,-6.988 25.005,-0.403 9.633,6.583 1.899,20.293 -5.123,13.718 -7.027,-6.576 -1.981,-11.388 -9.305,-11.027 -7.326,0.36 -19.032,-0.207 -10.577,-2.288 z" style="fill:#a2cd3d;fill-rule:nonzero" id="path26-5"/>
        <path d="m 56.245,25.769 c -0.142,0.759 -5.762,9.034 1.977,10.593 7.739,1.56 18.997,-0.445 18.384,6.07 -0.615,6.514 -10e-4,10.228 5.698,9.879 5.702,-0.349 9.549,-2.245 8.795,-1.641 -0.759,0.603 -15.274,4.375 -17.163,1.253 -1.887,-3.12 -0.646,-11.479 -9.218,-12.906 -8.574,-1.425 -13.964,0.495 -15.076,-5.431 -1.111,-5.928 7.377,-11.917 6.603,-7.817 z" style="fill:#46612e;fill-rule:nonzero" id="path28-0"/>
    </g>
</svg>
