<?xml version="1.0" encoding="UTF-8" standalone="no"?>
<svg xmlns="http://www.w3.org/2000/svg" width="100%" height="100%" viewBox="0 0 226 156" version="1.1" style="fill-rule:evenodd;clip-rule:evenodd;stroke-linejoin:round;stroke-miterlimit:2" id="svg54">
    <g style="clip-rule:evenodd;fill-rule:evenodd;stroke-linejoin:round;stroke-miterlimit:2" id="g1343" transform="matrix(1.3716104,0,0,1.3716104,-2.2520776,39.503695)">
        <path style="opacity:1;fill:#5e5e22;fill-opacity:1;fill-rule:nonzero;stroke:none;stroke-width:0;stroke-linecap:butt;stroke-linejoin:bevel;stroke-miterlimit:4;stroke-dasharray:none;stroke-dashoffset:0;stroke-opacity:1" d="M 156.69423,66.70253 A 71.562599,15.164456 0 0 1 85.13163,81.866986 71.562599,15.164456 0 0 1 13.569031,66.70253 71.562599,15.164456 0 0 1 85.13163,51.538074 71.562599,15.164456 0 0 1 156.69423,66.70253 Z" id="path4694"/>
        <path id="path9" style="fill:#dc3527;fill-rule:nonzero" d="m 75.623,5.133 c -8.877,-4.519 -15.648,1.67 -21.053,8.183 -6.008,7.236 -8.445,21.699 5.171,29.339 2.268,1.274 4.451,2.396 6.526,3.4 l -0.005,0.004 c 0,0 0.08,0.037 0.244,0.114 1.094,0.528 2.153,1.017 3.176,1.474 4.639,2.158 14.374,6.701 31.481,14.737 25.884,12.158 30.831,8.36 30.398,0.219 C 131.182,55.436 84.723,11.789 84.723,11.789 l -0.075,0.135 C 81.414,8.994 78.215,6.452 75.623,5.133 Z"/>
        <path id="path11" style="fill:#ab6e28;fill-rule:nonzero" d="m 50.008,29.687 c -0.382,-2.282 -0.306,-4.589 0.115,-6.794 -0.421,2.205 -0.497,4.512 -0.115,6.794 z"/>
        <path id="path13" style="fill:#cd2728;fill-rule:nonzero" d="m 70.959,39.228 c -0.023,-0.011 -0.045,-0.022 -0.068,-0.032 0.012,-0.011 0.024,-0.021 0.036,-0.031 0.018,0.008 0.041,0.019 0.068,0.032 -0.012,0.01 -0.024,0.021 -0.036,0.031 z M 53.096,30.93 c -0.997,-0.418 -2.026,-0.833 -3.088,-1.243 -0.382,-2.282 -0.306,-4.589 0.115,-6.794 0.702,-3.673 2.359,-7.061 4.447,-9.577 0.491,-0.59 0.996,-1.175 1.51,-1.753 -2.179,5.153 -4.82,12.96 -2.984,19.367 z"/>
        <path id="path15" style="fill:#ba2628;fill-rule:nonzero" d="m 74.376,5.525 c 0,0 2.363,7.46 -3.913,14.773 -6.275,7.314 -0.587,3.279 2.338,0.005 2.921,-3.274 7.149,-12.287 1.575,-14.778 z"/>
        <path id="path17" style="fill:#f28026;fill-rule:nonzero" d="m 72.856,20.35 c -1.428,1.598 -3.51,3.372 -4.542,3.922 -0.939,1.83 4.087,-2.2 6.285,-4.664 2.752,-3.082 5.394,-10.116 1.187,-13.135 3.404,3.284 -0.294,10.921 -2.93,13.877 z"/>
        <path id="path19" style="fill:#ba2628;fill-rule:nonzero" d="m 91.133,20.15 c 0,0 2.362,7.46 -3.913,14.775 -6.279,7.312 -0.588,3.281 2.336,0.006 2.924,-3.277 7.149,-12.292 1.577,-14.781 z"/>
        <path id="path21" style="fill:#f28026;fill-rule:nonzero" d="m 89.612,34.976 c -1.428,1.597 -3.51,3.371 -4.541,3.923 -0.942,1.828 4.083,-2.202 6.283,-4.664 2.753,-3.084 5.396,-10.118 1.191,-13.138 3.404,3.288 -0.296,10.922 -2.933,13.879 z"/>
        <path id="path23" style="fill:#ba2628;fill-rule:nonzero" d="m 108.294,36.585 c 0,0 1.971,5.253 -2.254,10.726 -4.22,5.471 -0.295,2.37 1.675,-0.084 1.972,-2.455 4.662,-9.069 0.579,-10.642 z"/>
        <path id="path25" style="fill:#f28026;fill-rule:nonzero" d="m 107.757,47.257 c -0.964,1.198 -2.387,2.545 -3.106,2.978 -0.604,1.345 2.845,-1.729 4.327,-3.573 1.858,-2.31 3.483,-7.446 0.362,-9.451 2.559,2.225 0.195,7.831 -1.583,10.046 z"/>
        <path id="path27" style="fill:#ba2628;fill-rule:nonzero" d="m 80.71,48.497 c 0,0 7.804,0.543 13.442,-7.272 5.633,-7.819 3.049,-1.341 0.552,2.269 -2.497,3.61 -10.267,9.837 -13.994,5.003 z"/>
        <path id="path29" style="fill:#f28026;fill-rule:nonzero" d="m 94.761,43.536 c 1.218,-1.761 2.455,-4.201 2.749,-5.334 1.555,-1.342 -1.183,4.487 -3.061,7.204 -2.35,3.4 -8.566,7.619 -12.488,4.239 3.993,2.538 10.544,-2.849 12.8,-6.109 z"/>
        <path id="path31" style="fill:#ba2628;fill-rule:nonzero" d="m 107.667,63.982 c 0,0 5.561,-0.54 8.603,-6.712 3.043,-6.169 1.989,-1.304 0.66,1.534 -1.333,2.836 -6.067,8.139 -9.263,5.178 z"/>
        <path id="path33" style="fill:#f28026;fill-rule:nonzero" d="m 116.972,58.827 c 0.649,-1.385 1.234,-3.248 1.307,-4.08 0.938,-1.13 -0.301,3.3 -1.301,5.436 -1.255,2.671 -5.13,6.377 -8.291,4.46 3.109,1.315 7.083,-3.256 8.285,-5.816 z"/>
        <path id="path35" style="fill:#ba2628;fill-rule:nonzero" d="m 60.022,40.858 c 0,0 7.805,0.545 13.442,-7.271 5.634,-7.82 3.05,-1.342 0.553,2.267 -2.497,3.61 -10.269,9.836 -13.995,5.004 z"/>
        <path id="path37" style="fill:#f28026;fill-rule:nonzero" d="m 74.074,35.897 c 1.219,-1.761 2.453,-4.2 2.749,-5.335 1.556,-1.339 -1.181,4.49 -3.06,7.205 -2.352,3.399 -8.566,7.619 -12.49,4.239 3.993,2.536 10.546,-2.85 12.801,-6.109 z"/>
        <path id="path39" style="fill:#e57a25;fill-rule:nonzero" d="m 89.98,48.145 c -0.024,-0.011 -0.046,-0.021 -0.069,-0.032 0.728,-0.5 1.424,-1.052 2.062,-1.621 0.037,-0.008 0.076,-0.013 0.119,-0.015 -0.652,0.585 -1.365,1.155 -2.112,1.668 z m -2.545,-1.191 c -0.732,-0.343 -1.45,-0.679 -2.152,-1.008 -1.328,-1.407 -2.498,-3.194 -2.549,-4.003 -0.028,-0.419 -0.471,-0.56 -1.166,-0.56 -0.711,0 -1.685,0.147 -2.747,0.295 -0.686,0.095 -1.408,0.19 -2.12,0.245 -1.57,-0.736 -3.034,-1.424 -4.399,-2.064 -0.001,-0.126 0.004,-0.255 0.016,-0.387 0.568,-0.565 1.058,-1.146 1.445,-1.705 0.854,-1.234 1.885,-3.11 2.609,-4.665 1.264,0.537 3.552,0.927 5.042,0.954 2.257,0.042 3.648,2.877 3.097,4.441 -10e-4,0.003 -0.002,0.006 -0.003,0.009 -0.142,0.289 -0.155,0.449 -0.07,0.504 0.027,0.076 0.086,0.109 0.17,0.109 0.107,0 0.255,-0.054 0.425,-0.143 -0.123,0.267 -0.096,0.385 0.046,0.385 0.341,0 1.341,-0.68 2.495,-1.611 1.031,1.033 2.733,4.911 3.438,6.886 -1.202,1.014 -2.42,1.764 -3.577,2.318 z m 18.448,-6.175 c -6.088,-5.214 -11.182,-9.478 -11.773,-9.85 -0.177,-0.112 -0.342,-0.215 -0.495,-0.308 0.735,-1.671 1.206,-3.538 1.116,-5.25 0.458,0.448 0.961,0.953 1.513,1.515 1.484,1.515 6.657,6.23 12.472,11.88 0.017,0.209 0.029,0.43 0.034,0.662 -0.828,0.39 -1.781,0.84 -2.867,1.351 z M 67.446,37.576 C 64.101,36.003 61.614,34.83 59.86,34.002 59.559,33.854 59.254,33.706 58.945,33.557 58.219,33.208 57.47,32.856 56.695,32.503 56.692,32.502 56.688,32.5 56.685,32.498 56.677,32.495 56.669,32.491 56.662,32.488 56.66,32.487 56.658,32.486 56.656,32.485 56.519,32.421 56.452,32.389 56.452,32.389 l -10e-4,0.006 c -0.275,-0.125 -0.553,-0.25 -0.834,-0.375 0.756,-0.45 2.057,-1.007 4.121,-2.211 1.414,-0.68 3.344,-1.905 5.097,-3.35 0.608,-0.459 1.168,-0.968 1.685,-1.516 0.54,3.617 5.337,4.398 7.715,4.888 0.947,0.194 1.413,0.445 1.603,0.734 -0.534,0.571 -1.306,1.54 -2.374,3.022 -0.349,0.484 -0.706,0.936 -1.07,1.358 -0.911,0.419 -2.47,1.326 -4.948,2.631 z m 5.337,-0.092 c 0.018,-0.054 0.035,-0.108 0.053,-0.163 0.465,-0.512 0.865,-1.01 1.181,-1.467 0.639,-0.923 1.284,-2.035 1.795,-3.046 0.019,0.013 0.038,0.026 0.058,0.038 -0.51,1.013 -1.155,2.126 -1.796,3.051 -0.34,0.492 -0.778,1.033 -1.291,1.587 z m 19.855,-7.427 c -0.021,-0.011 -0.041,-0.022 -0.06,-0.032 0.785,-1.805 1.324,-3.759 1.279,-5.488 0.018,0.017 0.036,0.034 0.054,0.05 0.044,1.724 -0.492,3.671 -1.273,5.47 z m -3.264,-1.568 c -1.235,0 -4.311,-1.976 -5.672,-3.63 -1.411,-1.715 -7.559,-6.35 -8.211,-6.35 -0.015,0 -0.027,0.002 -0.036,0.007 h -0.001 c 1.028,-1.48 1.933,-3.428 2.325,-5.38 0.281,-0.35 0.48,-0.674 0.529,-0.908 0.019,-0.093 0.079,-0.137 0.173,-0.137 1.016,0 6.054,5.114 7.627,6.84 1.446,1.587 2.931,4.833 3.721,4.832 0.147,0 0.271,-0.113 0.365,-0.371 0.179,-0.492 0.433,-0.744 0.81,-0.744 0.158,0 0.336,0.044 0.539,0.133 0.082,1.435 -0.009,3.358 -0.646,5.512 -0.075,-0.029 -0.159,-0.042 -0.254,-0.042 -0.261,0 -0.604,0.097 -1.061,0.215 -0.062,0.016 -0.131,0.023 -0.208,0.023 z M 74.133,18.664 c -0.028,-0.001 -0.055,-0.003 -0.082,-0.005 0.749,-1.127 1.485,-2.495 2.046,-3.926 0.033,-0.024 0.066,-0.048 0.099,-0.073 -0.56,1.457 -1.304,2.854 -2.063,4.004 z m -1.137,-2.123 c -0.225,-0.927 -0.697,-2.098 -1.079,-2.971 0.615,-2.782 0.73,-4.822 0.73,-4.822 0.164,-0.038 0.318,-0.056 0.461,-0.056 0.909,0 1.402,0.726 1.648,1.697 -0.148,1.777 -0.621,3.907 -1.76,6.152 z"/>
        <path id="path41" style="fill:#d06429;fill-rule:nonzero" d="m 74.051,18.659 c -0.649,-0.053 -1.219,-0.277 -0.985,-0.851 0.107,-0.265 0.061,-0.724 -0.07,-1.267 1.139,-2.245 1.612,-4.375 1.76,-6.152 0.361,1.419 0.195,3.364 0.03,4.334 -0.063,0.365 0.046,0.515 0.259,0.515 0.246,0 0.631,-0.201 1.052,-0.505 -0.561,1.431 -1.297,2.799 -2.046,3.926 z"/>
        <path id="path43" style="fill:#f4a12c;fill-rule:nonzero" d="m 74.376,18.671 c -0.081,0 -0.162,-0.002 -0.243,-0.007 0.759,-1.15 1.503,-2.547 2.063,-4.004 0.557,-0.418 1.162,-1 1.583,-1.524 -0.392,1.952 -1.297,3.9 -2.325,5.38 -0.158,0.081 -0.607,0.155 -1.078,0.155 z"/>
        <path id="path45" style="fill:#d06429;fill-rule:nonzero" d="m 84.438,39.01 c -0.085,-0.055 -0.072,-0.215 0.07,-0.504 -0.086,0.247 -0.104,0.409 -0.07,0.504 z m 8.14,-8.985 c -1.108,-0.597 -1.063,-0.43 -1.251,-1.104 -0.102,-0.363 -0.235,-0.551 -0.43,-0.628 0.637,-2.154 0.728,-4.077 0.646,-5.512 0.56,0.243 1.308,0.823 2.314,1.756 0.045,1.729 -0.494,3.683 -1.279,5.488 z"/>
        <path id="path47" style="fill:#f4a12c;fill-rule:nonzero" d="m 85.079,39.361 c -0.142,0 -0.169,-0.118 -0.046,-0.385 0.591,-0.308 1.468,-1.039 1.962,-1.433 0.043,-0.034 0.09,-0.05 0.142,-0.05 0.124,0 0.272,0.092 0.437,0.257 -1.154,0.931 -2.154,1.611 -2.495,1.611 z m 8.536,-8.74 c -0.397,-0.241 -0.717,-0.422 -0.977,-0.564 0.781,-1.799 1.317,-3.746 1.273,-5.47 0.256,0.239 0.529,0.5 0.82,0.784 0.09,1.712 -0.381,3.579 -1.116,5.25 z"/>
        <path id="path49" style="fill:#d06429;fill-rule:nonzero" d="m 108.75,39.428 c -0.005,-0.232 -0.017,-0.453 -0.034,-0.662 0.156,0.152 0.311,0.303 0.469,0.457 -0.141,0.066 -0.286,0.135 -0.435,0.205 z"/>
        <path id="path51" style="fill:#d06429;fill-rule:nonzero" d="m 89.911,48.113 c -0.844,-0.395 -1.67,-0.782 -2.476,-1.159 1.157,-0.554 2.375,-1.304 3.577,-2.318 0.119,0.334 0.21,0.613 0.264,0.816 0.114,0.425 0.282,0.824 0.562,1.088 0.038,-0.022 0.083,-0.038 0.135,-0.048 -0.638,0.569 -1.334,1.121 -2.062,1.621 z"/>
        <path id="path53" style="fill:#f4a12c;fill-rule:nonzero" d="m 90.092,48.198 c -0.038,-0.018 -0.074,-0.035 -0.112,-0.053 0.747,-0.513 1.46,-1.083 2.112,-1.668 0.018,-10e-4 0.037,-10e-4 0.056,-10e-4 0.263,0 0.631,0.086 1.092,0.245 -1.006,0.472 -2.053,0.963 -3.148,1.477 z"/>
        <path id="path55" style="fill:#d06429;fill-rule:nonzero" d="m 72.836,37.321 c 0.156,-0.476 0.32,-0.947 0.454,-1.387 0.258,-0.855 0.293,-1.252 -0.077,-1.252 -0.175,0 -0.441,0.09 -0.819,0.263 0.364,-0.422 0.721,-0.874 1.07,-1.358 1.068,-1.482 1.84,-2.451 2.374,-3.022 0.307,0.465 -0.101,1.03 -0.356,1.622 -0.092,0.214 0.042,0.424 0.33,0.621 -0.511,1.011 -1.156,2.123 -1.795,3.046 -0.316,0.457 -0.716,0.955 -1.181,1.467 z"/>
        <path id="path57" style="fill:#f4a12c;fill-rule:nonzero" d="m 72.318,39.472 c 0.055,-0.623 0.247,-1.309 0.465,-1.988 0.513,-0.554 0.951,-1.095 1.291,-1.587 0.641,-0.925 1.286,-2.038 1.796,-3.051 0.139,0.089 0.309,0.174 0.502,0.256 -0.724,1.555 -1.755,3.431 -2.609,4.665 -0.387,0.559 -0.877,1.14 -1.445,1.705 z"/>
        <path id="path59" style="fill:#e57a25;fill-rule:nonzero" d="m 66.52,24.943 v -0.005 c 0.032,-0.032 0.064,-0.065 0.097,-0.099 -0.032,0.035 -0.065,0.069 -0.097,0.104 z m 0.858,-0.991 c 0.041,-0.054 0.083,-0.109 0.124,-0.164 2.436,-3.144 3.73,-7.139 4.413,-10.222 10e-4,10e-4 10e-4,0.003 0.002,0.004 -0.693,3.137 -2.022,7.217 -4.539,10.382 z"/>
        <path id="path61" style="fill:#ea9c22;fill-rule:nonzero" d="m 93.489,46.604 c 0.365,-0.401 0.689,-0.805 0.96,-1.198 1.689,-2.443 4.073,-7.402 3.406,-7.402 -0.075,0 -0.188,0.063 -0.345,0.198 -0.294,1.133 -1.531,3.573 -2.749,5.334 -0.616,0.89 -1.552,1.939 -2.669,2.941 -0.043,0.002 -0.082,0.007 -0.119,0.015 1.145,-1.02 2.104,-2.092 2.731,-2.998 1.636,-2.365 3.31,-5.962 2.685,-5.962 -0.329,0 -1.295,0.997 -3.237,3.693 -0.998,1.382 -2.062,2.503 -3.14,3.411 -0.705,-1.975 -2.407,-5.853 -3.438,-6.886 1.309,-1.056 2.816,-2.436 3.78,-3.515 0.824,-0.922 1.637,-2.198 2.261,-3.614 0.153,0.093 0.318,0.196 0.495,0.308 0.591,0.372 5.685,4.636 11.773,9.85 -3.031,1.428 -7.101,3.342 -12.394,5.825 z m -8.881,-7.485 c -0.084,0 -0.143,-0.033 -0.17,-0.109 0.023,0.015 0.054,0.022 0.091,0.022 0.645,0.001 3.312,-2.18 5.027,-4.101 1.003,-1.125 2.16,-2.926 3.022,-4.906 0.019,0.01 0.039,0.021 0.06,0.032 -0.862,1.986 -2.021,3.792 -3.026,4.919 -1.428,1.597 -3.51,3.371 -4.541,3.923 -0.014,0.027 -0.026,0.053 -0.038,0.077 -0.17,0.089 -0.318,0.143 -0.425,0.143 z m -0.1,-0.613 c 0.001,-0.003 0.002,-0.006 0.003,-0.009 0.551,-1.564 -0.84,-4.399 -3.097,-4.441 -1.49,-0.027 -3.778,-0.417 -5.042,-0.954 0.71,-1.522 1.127,-2.737 0.796,-2.737 -0.075,0 -0.188,0.063 -0.345,0.197 -0.14,0.539 -0.492,1.371 -0.953,2.284 -0.02,-0.012 -0.039,-0.025 -0.058,-0.038 0.797,-1.579 1.27,-2.915 0.89,-2.915 -0.149,0 -0.426,0.203 -0.864,0.672 -0.19,-0.289 -0.656,-0.54 -1.603,-0.734 -2.378,-0.49 -7.175,-1.271 -7.715,-4.888 0.032,-0.035 0.065,-0.069 0.097,-0.104 0.257,-0.265 0.511,-0.562 0.761,-0.887 2.517,-3.165 3.846,-7.245 4.539,-10.382 0.382,0.873 0.854,2.044 1.079,2.971 -0.625,1.23 -1.451,2.496 -2.533,3.757 -2.594,3.023 -3.144,4.107 -2.689,4.108 0.645,0 3.311,-2.183 5.027,-4.103 0.402,-0.45 0.828,-1.009 1.25,-1.644 0.027,0.002 0.054,0.004 0.082,0.005 -0.431,0.653 -0.867,1.226 -1.277,1.686 -1.428,1.598 -3.51,3.372 -4.542,3.922 -0.165,0.322 -0.145,0.462 0.01,0.462 0.729,0 4.463,-3.095 6.275,-5.126 0.289,-0.323 0.577,-0.691 0.855,-1.092 h 0.001 c 0.009,-0.005 0.021,-0.007 0.036,-0.007 0.652,0 6.8,4.635 8.211,6.35 1.361,1.654 4.437,3.63 5.672,3.63 0.077,0 0.146,-0.007 0.208,-0.023 0.457,-0.118 0.8,-0.215 1.061,-0.215 0.095,0 0.179,0.013 0.254,0.042 -0.612,2.073 -1.728,4.36 -3.677,6.632 -1.601,1.864 -2.423,2.991 -2.712,3.581 z"/>
        <path id="path63" style="fill:#d98f28;fill-rule:nonzero" d="m 67.774,24.406 c -0.455,-10e-4 0.095,-1.085 2.689,-4.108 1.082,-1.261 1.908,-2.527 2.533,-3.757 0.131,0.543 0.177,1.002 0.07,1.267 -0.234,0.574 0.336,0.798 0.985,0.851 -0.422,0.635 -0.848,1.194 -1.25,1.644 -1.716,1.92 -4.382,4.103 -5.027,4.103 z"/>
        <path id="path65" style="fill:#f4b72f;fill-rule:nonzero" d="m 68.324,24.734 c -0.155,0 -0.175,-0.14 -0.01,-0.462 1.032,-0.55 3.114,-2.324 4.542,-3.922 0.41,-0.46 0.846,-1.033 1.277,-1.686 0.081,0.005 0.162,0.007 0.243,0.007 0.471,0 0.92,-0.074 1.078,-0.155 -0.278,0.401 -0.566,0.769 -0.855,1.092 -1.812,2.031 -5.546,5.126 -6.275,5.126 z"/>
        <path id="path67" style="fill:#d98f28;fill-rule:nonzero" d="m 84.529,39.032 c -0.037,0 -0.068,-0.007 -0.091,-0.022 -0.034,-0.095 -0.016,-0.257 0.07,-0.504 0.289,-0.59 1.111,-1.717 2.712,-3.581 1.949,-2.272 3.065,-4.559 3.677,-6.632 0.195,0.077 0.328,0.265 0.43,0.628 0.188,0.674 0.143,0.507 1.251,1.104 -0.862,1.98 -2.019,3.781 -3.022,4.906 -1.715,1.921 -4.382,4.102 -5.027,4.101 z"/>
        <path id="path69" style="fill:#f4b72f;fill-rule:nonzero" d="m 85.033,38.976 c 0.012,-0.024 0.024,-0.05 0.038,-0.077 1.031,-0.552 3.113,-2.326 4.541,-3.923 1.005,-1.127 2.164,-2.933 3.026,-4.919 0.26,0.142 0.58,0.323 0.977,0.564 -0.624,1.416 -1.437,2.692 -2.261,3.614 -0.964,1.079 -2.471,2.459 -3.78,3.515 -0.165,-0.165 -0.313,-0.257 -0.437,-0.257 -0.052,0 -0.099,0.016 -0.142,0.05 -0.494,0.394 -1.371,1.125 -1.962,1.433 z"/>
        <path id="path71" style="fill:#d98f28;fill-rule:nonzero" d="m 91.838,46.54 c -0.28,-0.264 -0.448,-0.663 -0.562,-1.088 -0.054,-0.203 -0.145,-0.482 -0.264,-0.816 1.078,-0.908 2.142,-2.029 3.14,-3.411 1.942,-2.696 2.908,-3.693 3.237,-3.693 0.625,0 -1.049,3.597 -2.685,5.962 -0.627,0.906 -1.586,1.978 -2.731,2.998 -0.052,0.01 -0.097,0.026 -0.135,0.048 z"/>
        <path id="path73" style="fill:#f4b72f;fill-rule:nonzero" d="m 93.24,46.721 c -0.461,-0.159 -0.829,-0.245 -1.092,-0.245 -0.019,0 -0.038,0 -0.056,10e-4 1.117,-1.002 2.053,-2.051 2.669,-2.941 1.218,-1.761 2.455,-4.201 2.749,-5.334 0.157,-0.135 0.27,-0.198 0.345,-0.198 0.667,0 -1.717,4.959 -3.406,7.402 -0.271,0.393 -0.595,0.797 -0.96,1.198 -0.082,0.039 -0.166,0.078 -0.249,0.117 z"/>
        <path id="path75" style="fill:#d98f28;fill-rule:nonzero" d="m 75.812,32.808 c -0.288,-0.197 -0.422,-0.407 -0.33,-0.621 0.255,-0.592 0.663,-1.157 0.356,-1.622 0.438,-0.469 0.715,-0.672 0.864,-0.672 0.38,0 -0.093,1.336 -0.89,2.915 z"/>
        <path id="path77" style="fill:#f4b72f;fill-rule:nonzero" d="m 76.372,33.102 c -0.193,-0.082 -0.363,-0.167 -0.502,-0.256 0.461,-0.913 0.813,-1.745 0.953,-2.284 0.157,-0.134 0.27,-0.197 0.345,-0.197 0.331,0 -0.086,1.215 -0.796,2.737 z"/>
        <path id="path79" style="fill:#edc11b;fill-rule:nonzero" d="m 58.013,30.384 c -0.875,0 -0.167,-1.281 3.77,-4.615 9.472,-8.02 6.12,-17.105 6.12,-17.105 1.086,-0.846 1.934,-1.216 2.576,-1.216 3.535,0 0.821,11.24 -2.977,16.34 -0.309,0.398 -0.636,0.783 -0.982,1.15 -0.524,0.524 -1.095,1.035 -1.685,1.521 -0.083,0.063 -0.167,0.125 -0.252,0.186 -1.952,1.398 -3.549,2.409 -4.845,3.164 -0.761,0.367 -1.372,0.575 -1.725,0.575 z"/>
        <path id="path81" style="fill:#eccd23;fill-rule:nonzero" d="m 59.738,29.809 c 1.296,-0.755 2.893,-1.766 4.845,-3.164 0.085,-0.061 0.169,-0.123 0.252,-0.186 -1.753,1.445 -3.683,2.67 -5.097,3.35 z"/>
        <path id="path83" style="fill:#eccd23;fill-rule:nonzero" d="m 66.52,24.938 c 0.346,-0.367 0.673,-0.752 0.982,-1.15 -0.041,0.055 -0.083,0.11 -0.124,0.164 -0.243,0.305 -0.496,0.601 -0.761,0.887 -0.033,0.034 -0.065,0.067 -0.097,0.099 z"/>
        <path id="path85" style="fill:#ecd729;fill-rule:nonzero" d="m 66.617,24.839 c 0.265,-0.286 0.518,-0.582 0.761,-0.887 -0.25,0.325 -0.504,0.622 -0.761,0.887 z"/>
        <path id="path87" style="fill:#bd2a28;fill-rule:nonzero" d="m 62.155,9.989 c 0.952,-1.04 7.106,3.835 0.781,11.136 -6.326,7.302 -15.78,5.236 -0.781,-11.136 z"/>
        <path id="path89" style="fill:#438941;fill-rule:nonzero" d="m 44.337,0.765 c 1.55,-2.385 6.944,1.471 11.092,2.534 4.146,1.057 14.46,9.041 8.102,16.787 C 57.17,27.834 48.962,24.097 46.58,18.481 44.198,12.865 25.84,8.928 27.018,5.565 c 0.694,-1.979 26.002,7.191 26.002,7.191 0,0 -10.701,-8.888 -8.683,-11.991 z"/>
        <path id="path91" style="fill:#91c961;fill-rule:nonzero" d="m 60.21,7.009 c 0,0 5.044,5.504 0.331,10.849 -4.711,5.343 -7.946,4.675 -5.961,2.377 1.983,-2.296 4.335,-6.223 2.852,-9.498 -1.481,-3.273 1.03,-6.65 2.778,-3.728 z"/>
        <path id="path93" style="fill:#dc3527;fill-rule:nonzero" d="M 30.981,65.763 C 21.829,61.831 22.256,52.668 23.804,44.347 25.523,35.101 35.082,23.974 49.663,29.554 c 2.431,0.929 4.69,1.889 6.788,2.841 l 10e-4,-0.006 c 0,0 0.079,0.038 0.243,0.114 1.106,0.504 2.16,1.005 3.165,1.499 4.625,2.187 14.346,6.763 31.465,14.772 25.902,12.119 26.147,18.351 19.612,23.226 -5.751,4.292 -69.019,-3.499 -69.019,-3.499 l 0.056,-0.144 C 37.653,67.746 33.653,66.912 30.981,65.763 Z"/>
        <path id="path95" style="fill:#cd2728;fill-rule:nonzero" d="m 85.283,45.946 c -3.157,-1.478 -6.011,-2.816 -8.584,-4.022 0.001,-10e-4 0.001,-10e-4 0.002,-10e-4 2.572,1.207 5.425,2.545 8.582,4.023 z M 72.302,39.86 c -0.086,-0.041 -0.173,-0.081 -0.258,-0.122 0.086,0.04 0.172,0.08 0.258,0.121 z"/>
        <path id="path97" style="fill:#c42629;fill-rule:nonzero" d="M 70.958,39.229 C 70.936,39.218 70.912,39.207 70.89,39.196 h 0.001 c 0.023,0.01 0.045,0.021 0.068,0.032 z"/>
        <path id="path99" style="fill:#cd2728;fill-rule:nonzero" d="m 68.74,38.186 c -0.445,-0.209 -0.877,-0.412 -1.296,-0.609 10e-4,0 10e-4,-10e-4 0.002,-10e-4 0.418,0.197 0.85,0.4 1.295,0.609 0,10e-4 -0.001,10e-4 -0.001,10e-4 z"/>
        <path id="path101" style="fill:#ba2628;fill-rule:nonzero" d="m 70.89,39.196 c -0.75,-0.352 -1.466,-0.688 -2.15,-1.01 0,0 0.001,0 0.001,-10e-4 0.684,0.322 1.401,0.659 2.15,1.011 z"/>
        <path id="path103" style="fill:#da5228;fill-rule:nonzero" d="m 72.044,39.738 c -0.37,-0.173 -0.731,-0.343 -1.086,-0.509 l 0.001,-10e-4 c 0.354,0.166 0.717,0.336 1.085,0.51 z"/>
        <path id="path105" style="fill:#d44e28;fill-rule:nonzero" d="m 89.98,48.145 c -0.024,-0.011 -0.046,-0.021 -0.069,-0.032 0.023,0.011 0.045,0.021 0.069,0.032 z m -2.546,-1.191 c -0.732,-0.343 -1.449,-0.679 -2.151,-1.008 0.702,0.329 1.42,0.665 2.152,1.008 z M 76.699,41.924 C 75.131,41.188 73.666,40.5 72.302,39.86 v -10e-4 c 1.365,0.64 2.829,1.328 4.399,2.064 -10e-4,0 -10e-4,0 -0.002,10e-4 z m -9.255,-4.347 c -3.344,-1.573 -5.83,-2.746 -7.584,-3.575 1.754,0.828 4.241,2.001 7.586,3.574 -0.001,0 -0.001,10e-4 -0.002,10e-4 z"/>
        <path id="path107" style="fill:#c84128;fill-rule:nonzero" d="m 89.911,48.113 c -0.844,-0.395 -1.67,-0.782 -2.477,-1.159 h 0.001 c 0.806,0.377 1.632,0.764 2.476,1.159 z"/>
        <path id="path109" style="fill:#dc6d27;fill-rule:nonzero" d="m 90.092,48.198 c -0.038,-0.018 -0.074,-0.035 -0.112,-0.053 0.038,0.018 0.074,0.035 0.112,0.053 z"/>
        <path id="path111" style="fill:#d44e28;fill-rule:nonzero" d="m 59.86,34.002 c -0.301,-0.147 -0.606,-0.296 -0.915,-0.445 0.309,0.149 0.614,0.297 0.915,0.445 z"/>
        <path id="path113" style="fill:#ab6e28;fill-rule:nonzero" d="m 29.497,33.49 c 3.115,-3.191 7.366,-5.435 12.558,-5.435 2.349,0 4.891,0.459 7.608,1.499 -2.717,-1.039 -5.258,-1.499 -7.608,-1.499 -5.191,0 -9.443,2.244 -12.558,5.435 z"/>
        <path id="path115" style="fill:#d44e28;fill-rule:nonzero" d="m 56.695,32.503 c -0.003,-10e-4 -0.007,-0.003 -0.01,-0.005 0.003,0.002 0.007,0.004 0.01,0.005 z m -0.033,-0.015 c -0.002,-10e-4 -0.004,-0.002 -0.006,-0.003 0.002,10e-4 0.004,0.002 0.006,0.003 z"/>
        <path id="path117" style="fill:#ab6e28;fill-rule:nonzero" d="m 50.008,29.687 c -0.077,-0.03 -0.154,-0.06 -0.231,-0.089 0.077,0.029 0.154,0.059 0.231,0.089 z"/>
        <path id="path119" style="fill:#cd2728;fill-rule:nonzero" d="m 55.617,32.02 c -0.816,-0.363 -1.656,-0.727 -2.521,-1.09 0.864,0.362 1.705,0.726 2.521,1.09 z"/>
        <path id="path121" style="fill:#c42629;fill-rule:nonzero" d="m 53.096,30.93 c -0.997,-0.418 -2.026,-0.833 -3.088,-1.243 1.062,0.41 2.091,0.825 3.088,1.243 z"/>
        <path id="path123" style="fill:#d44e28;fill-rule:nonzero" d="m 56.451,32.395 c -0.275,-0.125 -0.553,-0.25 -0.834,-0.375 0.281,0.125 0.559,0.25 0.834,0.375 z"/>
        <path id="path125" style="fill:#cd2728;fill-rule:nonzero" d="M 86.284,49.982 C 81.118,47.607 76.16,45.354 71.796,43.377 71.107,42.763 70.265,42.332 69.25,42.163 c 0.423,0.135 0.806,0.333 1.153,0.583 -0.037,-0.017 -0.075,-0.034 -0.112,-0.051 -0.414,-0.29 -0.879,-0.506 -1.4,-0.633 -5.658,-2.56 -9.996,-4.515 -11.974,-5.45 -0.049,-0.024 -0.097,-0.035 -0.144,-0.035 -0.432,0 -0.768,0.983 -1.114,1.967 -0.112,0.317 -0.225,0.634 -0.342,0.918 -0.099,-3.69 -1.512,-7.703 -5.172,-8.314 3.126,1.004 4.107,5.398 4.059,9.269 -0.027,-0.013 -0.05,-0.023 -0.068,-0.032 0.052,-4.399 -1.225,-9.468 -5.47,-9.468 -0.067,0 -0.135,10e-4 -0.203,0.003 0,0 2.457,2.566 3.324,7.096 -1.719,-2.335 -3.637,-5.575 -5.279,-6.204 -1.751,-0.67 -3.414,-0.969 -4.984,-0.969 -8.863,0 -14.866,9.521 -18.101,15.786 0.116,-0.765 0.243,-1.527 0.382,-2.282 0.691,-3.717 2.65,-7.739 5.692,-10.857 3.115,-3.191 7.367,-5.435 12.558,-5.435 2.35,0 4.891,0.46 7.608,1.499 0.038,0.015 0.076,0.029 0.114,0.044 0.077,0.029 0.154,0.059 0.231,0.089 1.062,0.41 2.091,0.825 3.088,1.243 0.865,0.363 1.705,0.727 2.521,1.09 0.281,0.125 0.559,0.25 0.834,0.375 l 0.002,-0.005 c 0,0 0.066,0.031 0.203,0.095 0.002,10e-4 0.004,0.002 0.006,0.003 0.007,0.003 0.015,0.007 0.023,0.01 0.003,0.002 0.007,0.004 0.01,0.005 0.774,0.355 1.524,0.706 2.25,1.054 0.309,0.149 0.614,0.298 0.915,0.445 1.754,0.829 4.24,2.002 7.584,3.575 0.419,0.197 0.851,0.4 1.296,0.609 0.684,0.322 1.4,0.658 2.15,1.01 0.022,0.011 0.046,0.022 0.068,0.033 0.355,0.166 0.716,0.336 1.086,0.509 0.085,0.041 0.172,0.081 0.258,0.122 1.364,0.64 2.829,1.328 4.397,2.064 2.573,1.206 5.427,2.544 8.584,4.022 0.702,0.329 1.419,0.665 2.151,1.008 0.807,0.377 1.633,0.764 2.477,1.159 0.023,0.011 0.045,0.021 0.069,0.032 0.038,0.018 0.074,0.035 0.112,0.053 -1.213,0.568 -2.483,1.164 -3.808,1.784 z"/>
        <path id="path127" style="fill:#ba2628;fill-rule:nonzero" d="m 30.485,64.555 c 0,0 7.246,-2.956 8.852,-12.457 1.608,-9.503 2.145,-2.55 1.5,1.793 -0.649,4.339 -4.872,13.355 -10.352,10.664 z"/>
        <path id="path129" style="fill:#f28026;fill-rule:nonzero" d="m 40.908,53.903 c 0.315,-2.119 0.347,-4.855 0.11,-6 0.805,-1.892 0.922,4.549 0.435,7.814 -0.609,4.088 -4.326,10.618 -9.338,9.315 4.703,0.516 8.206,-7.211 8.793,-11.129 z"/>
        <path id="path131" style="fill:#ba2628;fill-rule:nonzero" d="m 52.446,68.08 c 0,0 7.244,-2.956 8.853,-12.459 1.604,-9.503 2.145,-2.55 1.499,1.792 -0.649,4.343 -4.875,13.357 -10.352,10.667 z"/>
        <path id="path133" style="fill:#f28026;fill-rule:nonzero" d="m 62.869,57.427 c 0.314,-2.12 0.345,-4.854 0.11,-6 0.803,-1.893 0.919,4.547 0.435,7.813 -0.61,4.089 -4.327,10.62 -9.338,9.319 4.705,0.514 8.206,-7.213 8.793,-11.132 z"/>
        <path id="path135" style="fill:#ba2628;fill-rule:nonzero" d="m 76.055,70.758 c 0,0 5.299,-1.845 6.802,-8.593 1.507,-6.744 1.634,-1.743 1.008,1.341 -0.625,3.086 -3.989,9.384 -7.81,7.252 z"/>
        <path id="path137" style="fill:#f28026;fill-rule:nonzero" d="m 83.915,63.518 c 0.304,-1.507 0.429,-3.462 0.302,-4.292 0.648,-1.324 0.491,3.293 0.021,5.611 -0.587,2.907 -3.494,7.442 -7.033,6.324 3.347,0.544 6.144,-4.858 6.71,-7.643 z"/>
        <path id="path139" style="fill:#ba2628;fill-rule:nonzero" d="m 67.567,41.936 c 0,0 5.41,5.651 3.008,14.983 -2.406,9.333 0.92,3.203 2.097,-1.026 1.179,-4.228 0.994,-14.185 -5.105,-13.957 z"/>
        <path id="path141" style="fill:#f28026;fill-rule:nonzero" d="m 72.742,55.91 c -0.576,2.062 -1.66,4.574 -2.342,5.525 -0.036,2.053 2.693,-3.78 3.58,-6.961 1.11,-3.982 0.376,-11.458 -4.73,-12.311 4.505,1.446 4.555,9.926 3.492,13.747 z"/>
        <path id="path143" style="fill:#ba2628;fill-rule:nonzero" d="m 96.713,52.752 c 0,0 3.142,4.619 0.344,10.905 -2.796,6.285 0.27,2.364 1.601,-0.474 1.327,-2.838 2.375,-9.869 -1.945,-10.431 z"/>
        <path id="path145" style="fill:#f28026;fill-rule:nonzero" d="m 98.703,63.202 c -0.65,1.384 -1.707,3.026 -2.3,3.613 -0.269,1.444 2.344,-2.342 3.346,-4.476 1.251,-2.674 1.62,-8.023 -1.875,-9.226 2.999,1.549 2.027,7.527 0.829,10.089 z"/>
        <path id="path147" style="fill:#ba2628;fill-rule:nonzero" d="m 48.463,30.92 c 0,0 5.411,5.651 3.008,14.984 -2.407,9.333 0.92,3.202 2.097,-1.026 1.178,-4.229 0.992,-14.185 -5.105,-13.958 z"/>
        <path id="path149" style="fill:#f28026;fill-rule:nonzero" d="m 53.638,44.894 c -0.574,2.063 -1.66,4.573 -2.343,5.526 -0.034,2.053 2.695,-3.779 3.581,-6.961 1.109,-3.981 0.377,-11.458 -4.731,-12.311 4.503,1.446 4.555,9.929 3.493,13.746 z"/>
        <path id="path151" style="fill:#e57a25;fill-rule:nonzero" d="m 54.73,66.713 c -0.673,-0.339 -0.767,-0.787 -0.393,-1.429 0.321,-0.554 -0.063,-0.725 -0.804,-0.725 -0.597,0 -1.427,0.112 -2.306,0.223 -0.88,0.111 -1.808,0.222 -2.603,0.222 -0.113,0 -0.224,-0.002 -0.331,-0.007 -2.546,-0.115 -10.843,-0.821 -10.141,-1.707 0.148,-0.187 0.27,-0.548 0.36,-0.988 1.249,-1.549 2.168,-3.491 2.648,-5.228 0.096,0.452 7.827,2.281 10.128,2.281 h 0.056 c 2.279,0 6.038,1.235 6.501,2.213 0.276,0.582 0.443,0.976 0.709,1.122 -1.249,1.867 -2.668,3.168 -3.824,4.023 z m 5.627,-2.733 c 0.213,-0.361 0.414,-0.731 0.602,-1.106 0.021,0.008 0.042,0.017 0.064,0.025 -0.165,0.327 -0.339,0.65 -0.522,0.968 -0.048,0.037 -0.097,0.076 -0.144,0.113 z M 33.219,62.07 c -0.554,0 -1.035,-0.257 -1.363,-0.906 0,0 1.495,-1.393 3.24,-3.646 0.915,-0.265 2.118,-0.651 2.974,-1.071 -0.997,2.311 -2.332,4.038 -3.603,5.289 -0.433,0.206 -0.859,0.334 -1.248,0.334 z m 5.452,-1.959 c -0.003,-0.041 -0.005,-0.083 -0.008,-0.123 0.741,-1.347 1.322,-2.788 1.709,-4.084 0.019,0.019 0.038,0.039 0.057,0.059 -0.399,1.32 -0.997,2.786 -1.758,4.148 z m 38.631,-5.92 c -1.251,-0.529 -2.274,-1.011 -2.988,-1.43 0.135,-1.082 0.155,-2.278 0.031,-3.466 1.742,0.724 4.297,1.715 7.261,2.878 -1.051,0.492 -2.133,0.999 -3.246,1.519 -0.358,0.168 -0.71,0.334 -1.058,0.499 z M 63.946,54.096 c -0.089,0 -0.173,-0.003 -0.249,-0.01 -0.025,-1.679 -0.173,-3.001 -0.45,-3.001 -0.07,0 -0.147,0.083 -0.233,0.264 -0.064,-0.296 -0.157,-0.49 -0.295,-0.49 -0.019,0 -0.039,0.003 -0.059,0.011 -0.01,-0.003 -0.021,-0.005 -0.031,-0.005 -0.091,0 -0.196,0.119 -0.314,0.385 -10e-4,10e-4 -0.002,0.003 -0.002,0.004 -0.504,0.842 -1.783,1.447 -3.049,1.447 -0.875,0 -1.744,-0.289 -2.347,-0.987 -0.974,-1.128 -2.737,-2.637 -3.958,-3.265 0.732,-1.552 1.514,-3.544 1.917,-4.99 0.182,-0.654 0.314,-1.403 0.386,-2.201 0.461,-0.458 0.965,-0.759 1.532,-0.759 0.482,0 1.009,0.217 1.594,0.738 2.273,2.022 3.981,6.542 5.156,6.542 0.097,0 0.19,-0.03 0.279,-0.096 0.543,-0.396 2.095,-0.631 3.709,-0.631 1.042,0 2.109,0.097 2.949,0.313 0.426,1.409 0.721,3.072 0.708,4.959 -1.866,0.683 -5.619,1.772 -7.243,1.772 z m 9.35,-2.119 c -0.026,-0.035 -0.048,-0.068 -0.066,-0.101 0.034,-1.015 -0.001,-2.077 -0.126,-3.114 0.023,0.01 0.046,0.02 0.07,0.031 0.127,1.061 0.16,2.149 0.122,3.184 z M 50.583,49.666 c -0.339,0 -0.81,-0.211 -1.506,-0.767 -1.483,-1.185 -4.048,-3.391 -6.59,-3.391 -0.71,0 -1.419,0.173 -2.101,0.587 0.09,-0.749 0.123,-1.509 0.087,-2.27 -0.012,-2.27 -0.304,-4.534 -0.685,-6.054 -0.688,-4.097 -1.401,-5.173 -0.693,-5.919 0.244,-0.255 0.996,-0.424 2.009,-0.424 3.01,0 8.323,1.489 9.438,6.615 0.68,3.131 1.007,5.122 1.289,6.169 -0.092,0.55 -0.211,1.114 -0.36,1.692 -0.456,1.768 -0.706,2.982 -0.804,3.758 -0.027,0.003 -0.055,0.004 -0.084,0.004 z m 1.859,-1.439 c -0.023,-0.008 -0.046,-0.014 -0.068,-0.021 0.451,-1.04 0.893,-2.246 1.194,-3.328 0.149,-0.534 0.276,-1.16 0.372,-1.846 0.03,-0.049 0.061,-0.097 0.091,-0.145 -0.098,0.749 -0.233,1.431 -0.393,2.007 -0.302,1.085 -0.745,2.292 -1.196,3.333 z"/>
        <path id="path153" style="fill:#d06429;fill-rule:nonzero" d="m 34.467,61.736 c 1.271,-1.251 2.606,-2.978 3.603,-5.289 0.501,-0.247 0.883,-0.505 1.017,-0.756 0.113,-0.211 0.261,-0.297 0.426,-0.297 0.267,0 0.579,0.223 0.859,0.51 -0.387,1.296 -0.968,2.737 -1.709,4.084 -0.048,-0.706 -0.2,-1.239 -0.481,-1.239 -0.104,0 -0.225,0.073 -0.365,0.236 -0.64,0.748 -2.028,2.12 -3.35,2.751 z"/>
        <path id="path155" style="fill:#f4a12c;fill-rule:nonzero" d="m 38.512,62.302 c 0.133,-0.659 0.193,-1.495 0.159,-2.191 0.761,-1.362 1.359,-2.828 1.758,-4.148 0.377,0.403 0.687,0.908 0.731,1.111 -0.48,1.737 -1.399,3.679 -2.648,5.228 z"/>
        <path id="path157" style="fill:#d06429;fill-rule:nonzero" d="m 56.936,67.28 c -1.025,-0.156 -1.749,-0.337 -2.206,-0.567 1.156,-0.855 2.575,-2.156 3.824,-4.023 0.075,0.041 0.159,0.063 0.255,0.063 0.137,0 0.3,-0.044 0.503,-0.134 0.249,-0.112 0.377,-0.17 0.51,-0.17 0.207,0 0.427,0.139 1.137,0.425 -0.188,0.375 -0.389,0.745 -0.602,1.106 -0.352,0.28 -0.684,0.556 -0.997,0.827 -0.002,0.002 -0.005,0.005 -0.008,0.007 -0.005,0.005 -0.009,0.008 -0.014,0.013 -0.006,0.005 -0.013,0.011 -0.019,0.016 l -0.001,10e-4 c -0.981,0.854 -1.768,1.664 -2.382,2.436 z m 5.379,-16.03 c 0.118,-0.266 0.223,-0.385 0.314,-0.385 0.01,0 0.021,0.002 0.031,0.005 -0.095,0.035 -0.209,0.154 -0.345,0.38 z"/>
        <path id="path159" style="fill:#f4a12c;fill-rule:nonzero" d="m 60.501,63.867 c 0.183,-0.318 0.357,-0.641 0.522,-0.968 0.146,0.058 0.311,0.122 0.499,0.192 -0.358,0.262 -0.697,0.52 -1.021,0.776 z m 3.196,-9.781 c -0.33,-0.03 -0.525,-0.127 -0.529,-0.313 -0.014,-0.632 -0.013,-1.773 -0.154,-2.424 0.086,-0.181 0.163,-0.264 0.233,-0.264 0.277,0 0.425,1.322 0.45,3.001 z"/>
        <path id="path161" style="fill:#d06429;fill-rule:nonzero" d="m 71.189,52.324 c 0.013,-1.887 -0.282,-3.55 -0.708,-4.959 0.671,0.172 1.197,0.419 1.448,0.751 0.095,0.124 0.506,0.344 1.175,0.646 0.125,1.037 0.16,2.099 0.126,3.114 -0.025,-0.047 -0.041,-0.091 -0.049,-0.134 -0.054,-0.007 -0.109,-0.01 -0.164,-0.01 -0.335,0 -0.688,0.115 -1.032,0.274 -0.19,0.087 -0.463,0.196 -0.796,0.318 z"/>
        <path id="path163" style="fill:#f4a12c;fill-rule:nonzero" d="m 74.314,52.761 c -0.499,-0.293 -0.848,-0.556 -1.018,-0.784 0.038,-1.035 0.005,-2.123 -0.122,-3.184 0.333,0.149 0.725,0.317 1.171,0.502 0.124,1.188 0.104,2.384 -0.031,3.466 z"/>
        <path id="path165" style="fill:#d06429;fill-rule:nonzero" d="m 50.667,49.662 c 0.098,-0.776 0.348,-1.99 0.804,-3.758 0.149,-0.578 0.268,-1.142 0.36,-1.692 0.166,0.618 0.317,0.907 0.516,0.907 0.201,0 0.451,-0.298 0.817,-0.851 0.253,-0.385 0.509,-0.812 0.776,-1.236 -0.096,0.686 -0.223,1.312 -0.372,1.846 -0.301,1.082 -0.743,2.288 -1.194,3.328 -0.118,-0.033 -0.225,-0.051 -0.318,-0.051 -0.173,0 -0.301,0.061 -0.369,0.196 -0.292,0.574 -0.466,1.249 -1.02,1.311 z"/>
        <path id="path167" style="fill:#f4a12c;fill-rule:nonzero" d="m 52.959,48.449 c -0.187,-0.096 -0.361,-0.172 -0.517,-0.222 0.451,-1.041 0.894,-2.248 1.196,-3.333 0.16,-0.576 0.295,-1.258 0.393,-2.007 0.383,-0.602 0.787,-1.188 1.231,-1.629 -0.072,0.798 -0.204,1.547 -0.386,2.201 -0.403,1.446 -1.185,3.438 -1.917,4.99 z"/>
        <path id="path169" style="fill:#e57a25;fill-rule:nonzero" d="m 35.091,57.519 c 1.936,-2.5 4.183,-6.056 5.038,-9.946 0.017,-0.069 0.033,-0.138 0.048,-0.206 -0.819,3.967 -3.11,7.607 -5.081,10.151 -10e-4,10e-4 -0.003,10e-4 -0.005,10e-4 z m 5.275,-11.272 c 0.006,-0.05 0.011,-0.099 0.015,-0.149 0.002,-10e-4 0.003,-0.002 0.005,-0.003 -0.007,0.051 -0.013,0.102 -0.02,0.152 z"/>
        <path id="path171" style="fill:#ea9c22;fill-rule:nonzero" d="m 61.023,62.899 c -0.022,-0.008 -0.043,-0.017 -0.064,-0.025 0.972,-1.929 1.616,-3.971 1.839,-5.461 0.401,-2.694 0.345,-6.392 -0.138,-6.543 0.02,-0.008 0.04,-0.011 0.059,-0.011 0.138,0 0.231,0.194 0.295,0.49 -0.011,0.024 -0.023,0.05 -0.035,0.078 0.235,1.146 0.204,3.88 -0.11,6 -0.224,1.493 -0.871,3.54 -1.846,5.472 z M 58.554,62.69 C 58.288,62.544 58.121,62.15 57.845,61.568 57.382,60.59 53.623,59.355 51.344,59.355 h -0.056 c -2.301,0 -10.032,-1.829 -10.128,-2.281 0.131,-0.471 0.229,-0.928 0.293,-1.357 0.427,-2.86 0.39,-8.155 -0.167,-8.155 -0.079,0 -0.168,0.106 -0.268,0.341 0.237,1.145 0.205,3.881 -0.11,6 -0.091,0.61 -0.253,1.311 -0.479,2.06 -0.019,-0.02 -0.038,-0.04 -0.057,-0.059 0.219,-0.731 0.376,-1.417 0.465,-2.013 0.409,-2.751 0.343,-6.549 -0.169,-6.549 -0.296,0 -0.741,1.272 -1.331,4.756 -0.277,1.638 -0.721,3.081 -1.267,4.349 -0.856,0.42 -2.059,0.806 -2.974,1.071 1.971,-2.544 4.262,-6.184 5.081,-10.151 0.086,-0.388 0.15,-0.762 0.189,-1.12 0.007,-0.05 0.013,-0.101 0.02,-0.152 0.682,-0.414 1.391,-0.587 2.101,-0.587 2.542,0 5.107,2.206 6.59,3.391 0.696,0.556 1.167,0.767 1.506,0.767 0.029,0 0.057,-10e-4 0.084,-0.004 -0.101,0.801 -0.04,1.136 0.124,1.136 0.301,10e-4 0.951,-1.132 1.583,-2.592 0.022,0.007 0.045,0.013 0.068,0.021 -0.408,0.939 -0.823,1.741 -1.147,2.193 -0.005,0.296 0.048,0.428 0.144,0.428 0.267,0 0.874,-1.027 1.52,-2.399 1.221,0.628 2.984,2.137 3.958,3.265 0.603,0.698 1.472,0.987 2.347,0.987 1.266,0 2.545,-0.605 3.049,-1.447 0,-10e-4 10e-4,-0.003 0.002,-0.004 -0.268,0.602 -0.608,1.954 -1.016,4.371 -0.5,2.952 -1.544,5.273 -2.745,7.069 z m 3.936,-0.291 c 0.464,-1.099 0.78,-2.196 0.924,-3.159 0.212,-1.431 0.309,-3.472 0.283,-5.154 0.076,0.007 0.16,0.01 0.249,0.01 1.624,0 5.377,-1.089 7.243,-1.772 -0.009,1.41 -0.189,2.945 -0.614,4.595 -0.067,0.259 -0.129,0.506 -0.187,0.741 -3.192,1.707 -5.801,3.281 -7.898,4.739 z m 9.981,-5.829 c 0.072,-0.23 0.139,-0.456 0.201,-0.677 0.296,-1.062 0.506,-2.485 0.558,-4.017 0.018,0.033 0.04,0.066 0.066,0.101 -0.057,1.5 -0.264,2.89 -0.554,3.933 -0.056,0.201 -0.117,0.406 -0.182,0.614 -0.029,0.015 -0.061,0.031 -0.089,0.046 z m 0.996,-0.506 c 0.202,-0.567 0.379,-1.109 0.513,-1.59 0.145,-0.519 0.258,-1.097 0.334,-1.713 0.714,0.419 1.737,0.901 2.988,1.43 -1.35,0.641 -2.628,1.265 -3.835,1.873 z"/>
        <path id="path173" style="fill:#d98f28;fill-rule:nonzero" d="m 38.07,56.447 c 0.546,-1.268 0.99,-2.711 1.267,-4.349 0.59,-3.484 1.035,-4.756 1.331,-4.756 0.512,0 0.578,3.798 0.169,6.549 -0.089,0.596 -0.246,1.282 -0.465,2.013 -0.28,-0.287 -0.592,-0.51 -0.859,-0.51 -0.165,0 -0.313,0.086 -0.426,0.297 -0.134,0.251 -0.516,0.509 -1.017,0.756 z"/>
        <path id="path175" style="fill:#f4b72f;fill-rule:nonzero" d="m 41.16,57.074 c -0.044,-0.203 -0.354,-0.708 -0.731,-1.111 0.226,-0.749 0.388,-1.45 0.479,-2.06 0.315,-2.119 0.347,-4.855 0.11,-6 0.1,-0.235 0.189,-0.341 0.268,-0.341 0.557,0 0.594,5.295 0.167,8.155 -0.064,0.429 -0.162,0.886 -0.293,1.357 z"/>
        <path id="path177" style="fill:#d98f28;fill-rule:nonzero" d="m 60.959,62.874 c -0.71,-0.286 -0.93,-0.425 -1.137,-0.425 -0.133,0 -0.261,0.058 -0.51,0.17 -0.203,0.09 -0.366,0.134 -0.503,0.134 -0.096,0 -0.18,-0.022 -0.255,-0.063 1.201,-1.796 2.245,-4.117 2.745,-7.069 0.408,-2.417 0.748,-3.769 1.016,-4.371 0.136,-0.226 0.25,-0.345 0.345,-0.38 0.483,0.151 0.539,3.849 0.138,6.543 -0.223,1.49 -0.867,3.532 -1.839,5.461 z"/>
        <path id="path179" style="fill:#f4b72f;fill-rule:nonzero" d="m 61.522,63.091 c -0.188,-0.07 -0.353,-0.134 -0.499,-0.192 0.975,-1.932 1.622,-3.979 1.846,-5.472 0.314,-2.12 0.345,-4.854 0.11,-6 0.012,-0.028 0.024,-0.054 0.035,-0.078 0.141,0.651 0.14,1.792 0.154,2.424 0.004,0.186 0.199,0.283 0.529,0.313 0.026,1.682 -0.071,3.723 -0.283,5.154 -0.144,0.963 -0.46,2.06 -0.924,3.159 -0.335,0.233 -0.658,0.464 -0.968,0.692 z"/>
        <path id="path181" style="fill:#d98f28;fill-rule:nonzero" d="m 70.388,57.66 c 0.058,-0.235 0.12,-0.482 0.187,-0.741 0.425,-1.65 0.605,-3.185 0.614,-4.595 0.333,-0.122 0.606,-0.231 0.796,-0.318 0.344,-0.159 0.697,-0.274 1.032,-0.274 0.055,0 0.11,0.003 0.164,0.01 0.008,0.043 0.024,0.087 0.049,0.134 -0.052,1.532 -0.262,2.955 -0.558,4.017 -0.062,0.221 -0.129,0.447 -0.201,0.677 -0.722,0.369 -1.414,0.732 -2.083,1.09 z"/>
        <path id="path183" style="fill:#f4b72f;fill-rule:nonzero" d="m 72.56,56.524 c 0.065,-0.208 0.126,-0.413 0.182,-0.614 0.29,-1.043 0.497,-2.433 0.554,-3.933 0.17,0.228 0.519,0.491 1.018,0.784 -0.076,0.616 -0.189,1.194 -0.334,1.713 -0.134,0.481 -0.311,1.023 -0.513,1.59 -0.308,0.154 -0.609,0.307 -0.907,0.46 z"/>
        <path id="path185" style="fill:#d98f28;fill-rule:nonzero" d="m 50.791,50.798 c -0.164,0 -0.225,-0.335 -0.124,-1.136 0.554,-0.062 0.728,-0.737 1.02,-1.311 0.068,-0.135 0.196,-0.196 0.369,-0.196 0.093,0 0.2,0.018 0.318,0.051 -0.632,1.46 -1.282,2.593 -1.583,2.592 z"/>
        <path id="path187" style="fill:#f4b72f;fill-rule:nonzero" d="m 51.439,50.848 c -0.096,0 -0.149,-0.132 -0.144,-0.428 0.324,-0.452 0.739,-1.254 1.147,-2.193 0.156,0.05 0.33,0.126 0.517,0.222 -0.646,1.372 -1.253,2.399 -1.52,2.399 z"/>
        <path id="path189" style="fill:#edc11b;fill-rule:nonzero" d="m 30.494,60.816 c -0.989,0 -1.662,-0.94 -1.736,-3.245 0,0 9.126,-3.234 9.231,-15.646 0.038,-4.359 0.424,-6.009 0.88,-6.009 0.302,0 0.635,0.72 0.919,1.855 0.248,1.479 0.493,3.353 0.667,5.747 0.007,0.102 0.013,0.204 0.018,0.307 0.004,0.766 -0.024,1.534 -0.092,2.273 -0.06,0.496 -0.145,0.988 -0.252,1.475 -1.301,5.424 -6.782,13.243 -9.635,13.243 z"/>
        <path id="path191" style="fill:#eccd23;fill-rule:nonzero" d="m 40.473,43.825 c -0.005,-0.103 -0.011,-0.205 -0.018,-0.307 -0.174,-2.394 -0.419,-4.268 -0.667,-5.747 0.381,1.52 0.673,3.784 0.685,6.054 z"/>
        <path id="path193" style="fill:#eccd23;fill-rule:nonzero" d="m 40.129,47.573 c 0.107,-0.487 0.192,-0.979 0.252,-1.475 -0.004,0.05 -0.009,0.099 -0.015,0.149 -0.049,0.376 -0.113,0.749 -0.189,1.12 -0.015,0.068 -0.031,0.137 -0.048,0.206 z"/>
        <path id="path195" style="fill:#ecd729;fill-rule:nonzero" d="m 40.177,47.367 c 0.076,-0.371 0.14,-0.744 0.189,-1.12 -0.039,0.358 -0.103,0.732 -0.189,1.12 z"/>
        <path id="path197" style="fill:#bd2a28;fill-rule:nonzero" d="m 26.099,52.305 c -0.191,1.397 7.493,3.01 9.06,-6.523 1.566,-9.533 -6.07,-15.478 -9.06,6.523 z"/>
        <path id="path199" style="fill:#438941;fill-rule:nonzero" d="m 4.43,48.477 c 0.346,3.124 8.754,0.428 12.224,2.938 3.465,2.51 16.199,5.331 18.086,-4.511 C 36.627,37.06 28.504,33.141 22.664,34.901 16.824,36.663 3.05,30.297 0.223,28.126 c -2.828,-2.171 22.159,15.387 22.159,15.387 0,0 -18.466,0.336 -17.952,4.964 z"/>
        <path id="path201" style="fill:#91c961;fill-rule:nonzero" d="m 22.564,52.716 c 0,0 7.458,0.357 8.551,-6.684 1.094,-7.04 -1.489,-9.099 -1.986,-6.104 -0.497,2.993 -2.011,7.313 -5.477,8.268 -3.463,0.956 -4.452,5.046 -1.088,4.52 z"/>
        <path id="path203" style="fill:#dc3527;fill-rule:nonzero" d="m 138.704,70.681 c 9.152,-3.932 8.726,-13.095 7.177,-21.416 -1.719,-9.246 -11.277,-20.372 -25.859,-14.793 -2.431,0.929 -4.69,1.889 -6.788,2.841 l -10e-4,-0.006 c 0,0 -0.079,0.038 -0.243,0.114 -1.106,0.504 -2.159,1.005 -3.165,1.5 C 105.2,41.106 95.48,45.683 78.36,53.692 52.458,65.811 52.213,72.043 58.749,76.919 c 5.75,4.291 69.018,-3.5 69.018,-3.5 l -0.056,-0.144 c 4.321,-0.611 8.321,-1.445 10.993,-2.594 z"/>
        <path id="path205" style="fill:#c84128;fill-rule:nonzero" d="m 59.318,64.844 0.001,-10e-4 z m 0.02,-0.017 c 0.005,-0.005 0.009,-0.008 0.014,-0.013 -0.004,0.004 -0.009,0.008 -0.014,0.013 z"/>
        <path id="path207" style="fill:#d44e28;fill-rule:nonzero" d="m 60.357,63.98 c 0.047,-0.037 0.096,-0.076 0.144,-0.113 H 60.5 c -0.048,0.038 -0.096,0.076 -0.143,0.113 z"/>
        <path id="path209" style="fill:#c84128;fill-rule:nonzero" d="m 59.36,64.807 c 0.313,-0.271 0.645,-0.547 0.997,-0.827 -0.352,0.281 -0.684,0.556 -0.997,0.827 z"/>
        <path id="path211" style="fill:#dc6d27;fill-rule:nonzero" d="m 60.5,63.867 h 10e-4 c 0.324,-0.256 0.663,-0.514 1.021,-0.776 h 0.001 c -0.358,0.262 -0.698,0.521 -1.023,0.776 z"/>
        <path id="path213" style="fill:#d44e28;fill-rule:nonzero" d="m 77.302,54.191 c 0.348,-0.165 0.7,-0.331 1.058,-0.499 -0.357,0.167 -0.71,0.334 -1.058,0.499 z"/>
        <path id="path215" style="fill:#d86a28;fill-rule:nonzero" d="m 62.49,62.4 v -10e-4 c 2.097,-1.458 4.706,-3.032 7.898,-4.739 -3.193,1.708 -5.8,3.282 -7.898,4.74 z m 9.98,-5.83 h 0.001 c 0.028,-0.015 0.06,-0.031 0.089,-0.046 -0.031,0.016 -0.059,0.03 -0.09,0.046 z m 0.997,-0.506 c 1.207,-0.608 2.485,-1.232 3.835,-1.873 -1.35,0.641 -2.628,1.265 -3.835,1.873 z"/>
        <path id="path217" style="fill:#de7d27;fill-rule:nonzero" d="m 61.523,63.091 h -0.001 c 0.31,-0.228 0.633,-0.459 0.968,-0.692 V 62.4 c -0.335,0.233 -0.658,0.464 -0.967,0.691 z"/>
        <path id="path219" style="fill:#cf6129;fill-rule:nonzero" d="m 70.388,57.66 c 0.669,-0.358 1.361,-0.721 2.083,-1.09 H 72.47 c -0.719,0.369 -1.414,0.733 -2.082,1.09 z"/>
        <path id="path221" style="fill:#de7d27;fill-rule:nonzero" d="m 72.56,56.524 c 0.298,-0.153 0.599,-0.306 0.907,-0.46 -0.307,0.154 -0.61,0.308 -0.907,0.46 z"/>
        <path id="path223" style="fill:#ba2628;fill-rule:nonzero" d="m 109.185,39.223 c 0.223,-0.106 0.437,-0.206 0.64,-0.302 -0.203,0.096 -0.416,0.196 -0.64,0.302 z"/>
        <path id="path225" style="fill:#d44e28;fill-rule:nonzero" d="m 105.884,40.78 -0.001,-10e-4 c 1.086,-0.511 2.039,-0.961 2.867,-1.351 -0.827,0.391 -1.781,0.841 -2.866,1.352 z"/>
        <path id="path227" style="fill:#c84128;fill-rule:nonzero" d="m 108.75,39.428 c 0.149,-0.07 0.294,-0.139 0.435,-0.205 -0.141,0.067 -0.286,0.135 -0.435,0.205 z"/>
        <path id="path229" style="fill:#dc6d27;fill-rule:nonzero" d="m 90.093,48.198 h -0.001 c 1.095,-0.514 2.142,-1.005 3.148,-1.477 0.001,0 0.001,0.001 0.001,0.001 -1.005,0.471 -2.054,0.963 -3.148,1.476 z"/>
        <path id="path231" style="fill:#d86a28;fill-rule:nonzero" d="m 93.487,46.606 c 0.001,0 0.002,-0.001 0.002,-0.002 5.293,-2.483 9.363,-4.397 12.394,-5.825 l 0.001,10e-4 c -3.032,1.428 -7.102,3.343 -12.397,5.826 z"/>
        <path id="path233" style="fill:#de7d27;fill-rule:nonzero" d="m 93.241,46.722 c 0,0 0,-0.001 -0.001,-0.001 0.083,-0.039 0.167,-0.078 0.249,-0.117 0,10e-4 -0.001,0.002 -0.002,0.002 -0.081,0.039 -0.163,0.077 -0.246,0.116 z"/>
        <path id="path235" style="fill:#cd2728;fill-rule:nonzero" d="m 81.606,52.173 c 1.633,-0.764 3.191,-1.494 4.678,-2.191 l 10e-4,10e-4 c -1.488,0.697 -3.046,1.426 -4.679,2.19 z"/>
        <path id="path237" style="fill:#cf4628;fill-rule:nonzero" d="M 90.093,48.198 H 90.092 Z"/>
        <path id="path239" style="fill:#c42629;fill-rule:nonzero" d="m 86.285,49.983 -10e-4,-10e-4 c 1.325,-0.62 2.595,-1.216 3.808,-1.784 h 0.001 c -1.214,0.569 -2.483,1.164 -3.808,1.785 z"/>
        <path id="path241" style="fill:#d44e28;fill-rule:nonzero" d="m 78.36,53.692 c 1.113,-0.52 2.195,-1.027 3.246,-1.519 -1.051,0.492 -2.133,0.999 -3.246,1.519 z"/>
        <path id="path243" style="fill:#ab6e28;fill-rule:nonzero" d="m 141.103,39.41 c -3.175,-3.713 -7.754,-6.437 -13.472,-6.437 -2.351,0 -4.892,0.46 -7.609,1.499 2.717,-1.04 5.259,-1.499 7.609,-1.499 5.719,0 10.297,2.723 13.472,6.437 z"/>
        <path id="path245" style="fill:#cd2728;fill-rule:nonzero" d="m 110.249,38.713 c 0.008,-0.004 0.017,-0.008 0.026,-0.013 v 10e-4 c -0.009,0.004 -0.018,0.008 -0.026,0.012 z m 0.335,-0.162 c 0.064,-0.031 0.129,-0.062 0.194,-0.094 -0.065,0.032 -0.13,0.063 -0.194,0.094 z"/>
        <path id="path247" style="fill:#ba2628;fill-rule:nonzero" d="m 109.825,38.921 c 0.14,-0.07 0.282,-0.139 0.424,-0.208 -0.142,0.07 -0.283,0.139 -0.424,0.208 z"/>
        <path id="path249" style="fill:#da5228;fill-rule:nonzero" d="M 110.275,38.701 V 38.7 c 0.102,-0.049 0.205,-0.099 0.309,-0.149 -0.104,0.05 -0.207,0.1 -0.309,0.15 z"/>
        <path id="path251" style="fill:#ab6e28;fill-rule:nonzero" d="m 112.997,37.418 c 0.007,-0.003 0.013,-0.006 0.018,-0.009 -0.005,0.003 -0.011,0.006 -0.018,0.009 z m 0.237,-0.105 c 2.065,-0.937 4.287,-1.882 6.674,-2.797 -2.387,0.915 -4.609,1.86 -6.674,2.797 z"/>
        <path id="path253" style="fill:#cd2728;fill-rule:nonzero" d="m 58.37,76.623 c -3.845,-3.03 -4.989,-6.606 0.948,-11.779 l 0.001,-10e-4 c 0.006,-0.005 0.013,-0.011 0.019,-0.016 0.005,-0.005 0.01,-0.009 0.014,-0.013 0.003,-0.002 0.006,-0.005 0.008,-0.007 0.313,-0.271 0.645,-0.546 0.997,-0.827 0.047,-0.037 0.095,-0.075 0.143,-0.113 0.325,-0.255 0.665,-0.514 1.023,-0.776 0.309,-0.227 0.632,-0.458 0.967,-0.691 2.098,-1.458 4.705,-3.032 7.898,-4.74 0.668,-0.357 1.363,-0.721 2.082,-1.09 0.031,-0.016 0.059,-0.03 0.09,-0.046 0.297,-0.152 0.6,-0.306 0.907,-0.46 1.207,-0.608 2.485,-1.232 3.835,-1.873 0.348,-0.165 0.701,-0.332 1.058,-0.499 1.113,-0.52 2.195,-1.027 3.246,-1.519 1.633,-0.764 3.191,-1.493 4.679,-2.19 1.325,-0.621 2.594,-1.216 3.808,-1.785 1.094,-0.513 2.143,-1.005 3.148,-1.476 0.083,-0.039 0.165,-0.077 0.246,-0.116 5.295,-2.483 9.365,-4.398 12.397,-5.826 1.085,-0.511 2.039,-0.961 2.866,-1.352 0.149,-0.07 0.294,-0.138 0.435,-0.205 0.224,-0.106 0.437,-0.206 0.64,-0.302 0.141,-0.069 0.282,-0.138 0.424,-0.208 0.008,-0.004 0.017,-0.008 0.026,-0.012 0.102,-0.05 0.205,-0.1 0.309,-0.15 0.064,-0.031 0.129,-0.062 0.194,-0.094 0.714,-0.342 1.451,-0.687 2.212,-1.036 0.002,-10e-4 0.005,-0.002 0.007,-0.003 0.007,-0.003 0.013,-0.006 0.018,-0.009 0.147,-0.068 0.217,-0.101 0.217,-0.101 l 0.002,0.005 c 2.065,-0.937 4.287,-1.882 6.674,-2.797 0.038,-0.015 0.076,-0.029 0.114,-0.044 2.717,-1.039 5.258,-1.499 7.609,-1.499 5.718,0 10.297,2.724 13.472,6.437 2.522,2.95 4.159,6.525 4.777,9.855 0.14,0.755 0.267,1.517 0.382,2.282 -3.235,-6.265 -9.238,-15.787 -18.1,-15.787 -1.571,0 -3.234,0.3 -4.985,0.97 -1.641,0.629 -3.56,3.869 -5.279,6.204 0.867,-4.53 3.325,-7.096 3.325,-7.096 -0.069,-0.002 -0.136,-0.003 -0.204,-0.003 -4.245,0 -5.522,5.069 -5.47,9.468 -0.018,0.009 -0.041,0.019 -0.068,0.032 -0.048,-3.871 0.933,-8.265 4.059,-9.269 -3.66,0.612 -5.073,4.624 -5.172,8.314 -0.117,-0.284 -0.23,-0.601 -0.342,-0.919 -0.346,-0.983 -0.682,-1.966 -1.114,-1.966 -0.047,0 -0.095,0.011 -0.143,0.035 -1.979,0.935 -6.317,2.89 -11.975,5.45 -0.52,0.127 -0.985,0.343 -1.399,0.633 -0.039,0.017 -0.075,0.033 -0.113,0.051 0.347,-0.25 0.73,-0.448 1.153,-0.583 -1.015,0.169 -1.857,0.6 -2.546,1.213 -7.108,3.22 -15.791,7.174 -24.378,11.191 -0.561,0.263 -1.107,0.525 -1.638,0.787 0.446,-1.641 1.1,-2.602 1.1,-2.602 -1.899,0.247 -2.761,1.743 -3.018,3.583 -0.016,0.008 -0.031,0.016 -0.047,0.025 0.199,-1.435 0.766,-2.66 1.903,-3.247 -1.617,0.557 -2.407,2.001 -2.665,3.657 C 58.86,67.318 55.598,72.701 58.37,76.623 Z"/>
        <path id="path255" style="fill:#ba2628;fill-rule:nonzero" d="m 139.2,69.473 c 0,0 -7.245,-2.956 -8.852,-12.457 -1.608,-9.503 -2.145,-2.55 -1.5,1.792 0.649,4.34 4.872,13.356 10.352,10.665 z"/>
        <path id="path257" style="fill:#f28026;fill-rule:nonzero" d="m 128.777,58.821 c -0.314,-2.119 -0.346,-4.855 -0.109,-6 -0.806,-1.892 -0.923,4.549 -0.435,7.814 0.608,4.088 4.325,10.618 9.337,9.315 -4.703,0.516 -8.206,-7.211 -8.793,-11.129 z"/>
        <path id="path259" style="fill:#ba2628;fill-rule:nonzero" d="m 117.239,72.998 c 0,0 -7.244,-2.957 -8.853,-12.459 -1.604,-9.503 -2.145,-2.55 -1.498,1.792 0.648,4.343 4.874,13.357 10.351,10.667 z"/>
        <path id="path261" style="fill:#f28026;fill-rule:nonzero" d="m 106.816,62.345 c -0.314,-2.119 -0.345,-4.854 -0.11,-6 -0.803,-1.893 -0.919,4.547 -0.435,7.813 0.61,4.089 4.327,10.62 9.338,9.319 -4.705,0.514 -8.205,-7.213 -8.793,-11.132 z"/>
        <path id="path263" style="fill:#ba2628;fill-rule:nonzero" d="m 93.63,75.676 c 0,0 -5.298,-1.845 -6.802,-8.594 -1.507,-6.743 -1.634,-1.742 -1.008,1.342 0.625,3.086 3.989,9.384 7.81,7.252 z"/>
        <path id="path265" style="fill:#f28026;fill-rule:nonzero" d="m 85.771,68.436 c -0.305,-1.507 -0.43,-3.462 -0.303,-4.292 -0.648,-1.324 -0.491,3.293 -0.021,5.611 0.587,2.907 3.494,7.442 7.033,6.325 -3.347,0.543 -6.144,-4.859 -6.709,-7.644 z"/>
        <path id="path267" style="fill:#ba2628;fill-rule:nonzero" d="m 102.118,46.854 c 0,0 -5.41,5.65 -3.007,14.983 2.405,9.333 -0.921,3.202 -2.098,-1.027 -1.179,-4.228 -0.994,-14.184 5.105,-13.956 z"/>
        <path id="path269" style="fill:#f28026;fill-rule:nonzero" d="m 96.943,60.828 c 0.576,2.062 1.66,4.574 2.342,5.525 0.036,2.053 -2.693,-3.78 -3.58,-6.961 -1.11,-3.982 -0.376,-11.458 4.73,-12.311 -4.505,1.446 -4.555,9.926 -3.492,13.747 z"/>
        <path id="path271" style="fill:#ba2628;fill-rule:nonzero" d="m 72.973,57.67 c 0,0 -3.143,4.618 -0.345,10.905 2.796,6.285 -0.27,2.363 -1.601,-0.474 C 69.7,65.263 68.652,58.232 72.973,57.67 Z"/>
        <path id="path273" style="fill:#f28026;fill-rule:nonzero" d="m 70.983,68.12 c 0.649,1.384 1.706,3.025 2.299,3.614 0.269,1.443 -2.343,-2.343 -3.346,-4.477 -1.251,-2.673 -1.619,-8.023 1.875,-9.226 -2.999,1.549 -2.027,7.527 -0.828,10.089 z"/>
        <path id="path275" style="fill:#ba2628;fill-rule:nonzero" d="m 121.223,35.838 c 0,0 -5.412,5.651 -3.009,14.984 2.407,9.333 -0.92,3.203 -2.097,-1.026 -1.178,-4.229 -0.992,-14.185 5.106,-13.958 z"/>
        <path id="path277" style="fill:#f28026;fill-rule:nonzero" d="m 116.047,49.812 c 0.574,2.064 1.66,4.573 2.343,5.526 0.034,2.053 -2.695,-3.779 -3.58,-6.961 -1.109,-3.982 -0.378,-11.457 4.73,-12.311 -4.503,1.446 -4.555,9.929 -3.493,13.746 z"/>
        <path id="path279" style="fill:#e57a25;fill-rule:nonzero" d="m 70.552,76.009 c -3.057,0 -5.746,-0.156 -7.791,-0.536 3.006,-0.116 13.494,-1.724 23.517,-3.382 0.522,1.047 1.24,2.077 2.097,2.851 -6.085,0.594 -12.509,1.067 -17.823,1.067 z m 18.711,-1.155 c -0.837,-0.773 -1.57,-1.82 -2.152,-2.902 0.017,-0.002 0.033,-0.005 0.05,-0.008 0.583,1.083 1.318,2.131 2.156,2.905 -0.019,0.002 -0.035,0.003 -0.054,0.005 z m 2.42,-0.249 c -0.892,-0.628 -1.957,-1.572 -2.894,-2.933 9.251,-1.549 17.511,-3.037 18.262,-3.281 0.199,-0.064 0.383,-0.126 0.553,-0.184 0.814,1.635 1.948,3.191 3.322,4.217 -0.638,0.066 -1.348,0.129 -2.133,0.194 -2.114,0.171 -9.045,1.132 -17.11,1.987 z m 20.37,-2.31 c -1.353,-1.069 -2.507,-2.726 -3.391,-4.478 0.022,-0.008 0.043,-0.017 0.064,-0.025 0.885,1.758 2.042,3.422 3.399,4.494 -0.024,0.003 -0.048,0.006 -0.072,0.009 z m 2.902,-0.664 c -1.155,-0.855 -2.575,-2.156 -3.824,-4.023 0.266,-0.146 0.433,-0.54 0.709,-1.122 0.463,-0.978 4.223,-2.213 6.501,-2.213 h 0.056 c 2.301,0 10.033,-1.829 10.128,-2.281 0.481,1.737 1.399,3.679 2.649,5.228 0.089,0.44 0.211,0.8 0.359,0.987 0.702,0.887 -7.595,1.593 -10.141,1.708 -0.107,0.005 -0.218,0.007 -0.331,0.007 -0.795,0 -1.723,-0.111 -2.603,-0.222 -0.879,-0.111 -1.709,-0.223 -2.306,-0.223 -0.741,0 -1.125,0.171 -0.803,0.725 0.374,0.641 0.279,1.09 -0.394,1.429 z m 21.512,-4.643 c -0.39,0 -0.816,-0.128 -1.248,-0.334 -1.272,-1.251 -2.607,-2.978 -3.603,-5.289 0.855,0.42 2.058,0.806 2.973,1.071 1.745,2.253 3.24,3.646 3.24,3.646 -0.327,0.649 -0.809,0.906 -1.362,0.906 z m -5.452,-1.959 c -0.762,-1.362 -1.36,-2.828 -1.759,-4.148 0.019,-0.02 0.038,-0.04 0.057,-0.059 0.387,1.296 0.968,2.737 1.709,4.084 -0.003,0.04 -0.005,0.081 -0.007,0.123 z"/>
        <path id="path281" style="fill:#d06429;fill-rule:nonzero" d="m 135.219,66.654 c -1.322,-0.631 -2.711,-2.003 -3.351,-2.751 -0.14,-0.163 -0.261,-0.236 -0.365,-0.236 -0.281,0 -0.433,0.533 -0.481,1.239 -0.741,-1.347 -1.322,-2.788 -1.709,-4.084 0.28,-0.287 0.592,-0.51 0.859,-0.51 0.166,0 0.314,0.086 0.426,0.296 0.134,0.252 0.516,0.51 1.018,0.757 0.996,2.311 2.331,4.038 3.603,5.289 z"/>
        <path id="path283" style="fill:#f4a12c;fill-rule:nonzero" d="m 131.174,67.22 c -1.25,-1.549 -2.168,-3.491 -2.649,-5.228 0.045,-0.203 0.354,-0.708 0.731,-1.111 0.399,1.32 0.997,2.786 1.759,4.148 -0.035,0.696 0.025,1.532 0.159,2.191 z"/>
        <path id="path285" style="fill:#d06429;fill-rule:nonzero" d="m 112.125,72.286 c -1.357,-1.072 -2.514,-2.736 -3.399,-4.494 0.71,-0.286 0.93,-0.425 1.137,-0.425 0.133,0 0.261,0.057 0.511,0.17 0.202,0.09 0.365,0.134 0.502,0.134 0.096,0 0.18,-0.022 0.255,-0.063 1.249,1.867 2.669,3.168 3.824,4.023 -0.544,0.275 -1.468,0.478 -2.83,0.655 z"/>
        <path id="path287" style="fill:#f4a12c;fill-rule:nonzero" d="m 110.926,72.424 c -1.374,-1.026 -2.508,-2.582 -3.322,-4.217 0.439,-0.15 0.783,-0.28 1.058,-0.39 0.884,1.752 2.038,3.409 3.391,4.478 -0.348,0.044 -0.723,0.087 -1.127,0.129 z"/>
        <path id="path289" style="fill:#d06429;fill-rule:nonzero" d="m 89.317,74.849 c -0.838,-0.774 -1.573,-1.822 -2.156,-2.905 0.546,-0.091 1.088,-0.181 1.628,-0.272 0.937,1.361 2.002,2.305 2.894,2.933 -0.778,0.082 -1.569,0.164 -2.366,0.244 z"/>
        <path id="path291" style="fill:#f4a12c;fill-rule:nonzero" d="m 88.375,74.942 c -0.857,-0.774 -1.575,-1.804 -2.097,-2.851 0.278,-0.046 0.556,-0.093 0.833,-0.139 0.582,1.082 1.315,2.129 2.152,2.902 -0.294,0.03 -0.592,0.059 -0.888,0.088 z"/>
        <path id="path293" style="fill:#e57a25;fill-rule:nonzero" d="M 58.931,73.758 C 58.897,73.71 58.866,73.66 58.838,73.61 c -1.172,-2.123 3.726,-5.307 10.41,-8.546 0.158,0.818 0.4,1.576 0.688,2.193 0.015,0.032 0.031,0.065 0.047,0.098 -6.726,2.553 -11.89,4.901 -11.146,6.247 0.03,0.054 0.061,0.106 0.094,0.156 z m 11.657,-6.632 c -0.242,-0.713 -0.452,-1.548 -0.591,-2.422 0.015,-0.007 0.031,-0.014 0.045,-0.021 0.139,0.875 0.349,1.712 0.592,2.426 -0.016,0.006 -0.03,0.011 -0.046,0.017 z m 1.337,-0.499 c -0.257,-0.926 -0.391,-1.804 -0.438,-2.621 8.594,-3.963 19.166,-7.845 23.853,-9.793 -0.124,1.188 -0.104,2.384 0.031,3.466 -3.505,2.059 -14.434,5.612 -23.446,8.948 z m 33.814,-7.613 c -1.624,0 -5.377,-1.089 -7.243,-1.772 -0.013,-1.888 0.282,-3.55 0.708,-4.959 0.841,-0.216 1.908,-0.313 2.949,-0.313 1.614,0 3.166,0.235 3.709,0.631 0.09,0.065 0.183,0.096 0.28,0.096 1.174,0 2.882,-4.52 5.155,-6.542 0.586,-0.521 1.113,-0.738 1.594,-0.738 0.568,0 1.072,0.301 1.532,0.759 0.072,0.798 0.204,1.547 0.387,2.201 0.402,1.446 1.185,3.438 1.916,4.99 -1.221,0.628 -2.984,2.137 -3.958,3.265 -0.603,0.698 -1.472,0.987 -2.347,0.987 -1.266,0 -2.545,-0.605 -3.048,-1.447 -0.001,-0.002 -0.002,-0.003 -0.003,-0.004 -0.118,-0.266 -0.223,-0.385 -0.313,-0.385 -0.011,0 -0.021,0.002 -0.031,0.005 -0.021,-0.008 -0.041,-0.011 -0.06,-0.011 -0.138,0 -0.231,0.194 -0.295,0.49 -0.086,-0.181 -0.163,-0.264 -0.233,-0.264 -0.277,0 -0.425,1.322 -0.45,3.001 -0.076,0.007 -0.16,0.01 -0.249,0.01 z M 96.39,56.895 c -0.039,-1.035 -0.006,-2.123 0.121,-3.184 0.024,-0.011 0.047,-0.021 0.07,-0.031 -0.125,1.037 -0.16,2.099 -0.126,3.114 -0.017,0.033 -0.039,0.067 -0.065,0.101 z"/>
        <path id="path295" style="fill:#d06429;fill-rule:nonzero" d="m 107.37,56.168 c -0.136,-0.226 -0.249,-0.345 -0.344,-0.38 0.01,-0.003 0.02,-0.005 0.031,-0.005 0.09,0 0.195,0.119 0.313,0.385 z"/>
        <path id="path297" style="fill:#f4a12c;fill-rule:nonzero" d="m 105.988,59.004 c 0.025,-1.679 0.173,-3.001 0.45,-3.001 0.07,0 0.147,0.083 0.233,0.264 -0.141,0.651 -0.14,1.792 -0.153,2.424 -0.005,0.186 -0.2,0.283 -0.53,0.313 z"/>
        <path id="path299" style="fill:#d06429;fill-rule:nonzero" d="M 98.496,57.242 C 98.163,57.12 97.89,57.011 97.7,56.924 97.356,56.765 97.003,56.65 96.668,56.65 c -0.055,0 -0.109,0.003 -0.164,0.01 -0.007,0.043 -0.024,0.087 -0.049,0.134 -0.034,-1.015 0.001,-2.077 0.126,-3.114 0.669,-0.302 1.081,-0.522 1.175,-0.646 0.252,-0.332 0.778,-0.579 1.448,-0.751 -0.426,1.409 -0.721,3.071 -0.708,4.959 z"/>
        <path id="path301" style="fill:#f4a12c;fill-rule:nonzero" d="m 95.371,57.679 c -0.135,-1.082 -0.155,-2.278 -0.031,-3.466 0.446,-0.186 0.838,-0.353 1.171,-0.502 -0.127,1.061 -0.16,2.149 -0.121,3.184 -0.171,0.228 -0.52,0.491 -1.019,0.784 z"/>
        <path id="path303" style="fill:#d06429;fill-rule:nonzero" d="m 70.634,67.109 c -0.243,-0.714 -0.453,-1.551 -0.592,-2.426 0.475,-0.226 0.956,-0.451 1.445,-0.677 0.047,0.817 0.181,1.695 0.438,2.621 -0.434,0.161 -0.867,0.322 -1.291,0.482 z"/>
        <path id="path305" style="fill:#f4a12c;fill-rule:nonzero" d="m 69.983,67.355 c -0.016,-0.033 -0.032,-0.066 -0.047,-0.098 -0.288,-0.617 -0.53,-1.375 -0.688,-2.193 0.248,-0.12 0.497,-0.239 0.749,-0.36 0.139,0.874 0.349,1.709 0.591,2.422 -0.202,0.076 -0.405,0.153 -0.605,0.229 z"/>
        <path id="path307" style="fill:#e57a25;fill-rule:nonzero" d="m 119.103,54.584 c -0.03,0 -0.058,-0.001 -0.085,-0.004 -0.098,-0.777 -0.348,-1.99 -0.804,-3.758 -0.149,-0.578 -0.268,-1.142 -0.36,-1.692 0.282,-1.047 0.61,-3.039 1.29,-6.169 1.115,-5.125 6.427,-6.615 9.437,-6.615 1.013,0 1.766,0.169 2.009,0.425 0.708,0.745 -0.005,1.821 -0.693,5.917 -0.381,1.522 -0.674,3.788 -0.685,6.06 -0.036,0.76 -0.002,1.517 0.088,2.265 -0.683,-0.414 -1.391,-0.587 -2.102,-0.587 -2.542,0 -5.107,2.206 -6.59,3.39 -0.696,0.557 -1.167,0.768 -1.505,0.768 z m -1.859,-1.439 c -0.452,-1.041 -0.895,-2.248 -1.197,-3.333 -0.16,-0.576 -0.295,-1.258 -0.393,-2.007 0.031,0.048 0.061,0.096 0.091,0.144 0.096,0.686 0.223,1.312 0.372,1.847 0.302,1.082 0.743,2.288 1.194,3.328 -0.022,0.007 -0.045,0.013 -0.067,0.021 z"/>
        <path id="path309" style="fill:#d06429;fill-rule:nonzero" d="m 119.018,54.58 c -0.554,-0.062 -0.728,-0.737 -1.019,-1.312 -0.069,-0.134 -0.197,-0.195 -0.369,-0.195 -0.094,0 -0.201,0.018 -0.319,0.051 -0.451,-1.04 -0.892,-2.246 -1.194,-3.328 -0.149,-0.535 -0.276,-1.161 -0.372,-1.847 0.267,0.425 0.523,0.852 0.777,1.237 0.365,0.553 0.615,0.851 0.817,0.851 0.198,0 0.349,-0.289 0.515,-0.907 0.092,0.55 0.211,1.114 0.36,1.692 0.456,1.768 0.706,2.981 0.804,3.758 z"/>
        <path id="path311" style="fill:#f4a12c;fill-rule:nonzero" d="m 116.726,53.367 c -0.731,-1.552 -1.514,-3.544 -1.916,-4.99 -0.183,-0.654 -0.315,-1.403 -0.387,-2.201 0.444,0.441 0.849,1.027 1.231,1.629 0.098,0.749 0.233,1.431 0.393,2.007 0.302,1.085 0.745,2.292 1.197,3.333 -0.157,0.05 -0.331,0.126 -0.518,0.222 z"/>
        <path id="path313" style="fill:#e57a25;fill-rule:nonzero" d="m 62.451,75.479 c -0.179,0 -0.315,-0.008 -0.406,-0.025 -1.627,-0.639 -2.552,-0.831 -3.114,-1.696 0.557,0.805 1.911,1.358 3.83,1.715 -0.114,0.004 -0.218,0.006 -0.31,0.006 z m 72.143,-13.042 c -0.002,0 -0.003,-10e-4 -0.005,-10e-4 -1.969,-2.541 -4.256,-6.174 -5.077,-10.136 0.014,0.065 0.029,0.13 0.045,0.195 0.855,3.888 3.102,7.443 5.037,9.942 z m -5.277,-11.284 c -0.006,-0.047 -0.011,-0.093 -0.017,-0.14 10e-4,0.001 0.002,0.002 0.004,0.003 0.004,0.045 0.008,0.091 0.013,0.137 z"/>
        <path id="path315" style="fill:#ea9c22;fill-rule:nonzero" d="m 62.761,75.473 c -1.919,-0.357 -3.273,-0.91 -3.83,-1.715 -0.033,-0.05 -0.064,-0.102 -0.094,-0.156 -0.744,-1.346 4.42,-3.694 11.146,-6.247 0.873,1.814 2.812,4.698 3.236,4.698 0.078,0 0.105,-0.098 0.063,-0.319 -0.593,-0.589 -1.65,-2.23 -2.299,-3.614 -0.137,-0.291 -0.27,-0.626 -0.395,-0.994 0.016,-0.006 0.03,-0.011 0.046,-0.017 0.124,0.367 0.257,0.702 0.393,0.992 0.807,1.721 2.253,3.84 2.641,3.84 0.253,0 0.06,-0.893 -1.04,-3.366 -0.298,-0.669 -0.528,-1.32 -0.703,-1.948 9.012,-3.336 19.941,-6.889 23.446,-8.948 0.076,0.616 0.189,1.194 0.334,1.713 0.76,2.723 2.868,7.389 3.437,7.389 0.096,0 0.148,-0.132 0.143,-0.428 -0.682,-0.951 -1.766,-3.463 -2.342,-5.525 -0.29,-1.043 -0.497,-2.433 -0.553,-3.933 0.026,-0.034 0.048,-0.068 0.065,-0.101 0.052,1.532 0.262,2.955 0.558,4.016 0.724,2.602 2.261,5.921 2.777,5.921 0.323,0 0.247,-1.301 -0.679,-4.894 -0.425,-1.65 -0.606,-3.186 -0.615,-4.595 1.866,0.683 5.619,1.772 7.243,1.772 0.089,0 0.173,-0.003 0.249,-0.01 -0.026,1.682 0.071,3.723 0.283,5.154 0.183,1.223 0.643,2.664 1.333,4.049 -0.17,0.058 -0.354,0.12 -0.553,0.184 -0.751,0.244 -9.011,1.732 -18.262,3.281 -0.819,-1.188 -1.539,-2.696 -1.961,-4.59 -0.549,-2.456 -0.915,-3.354 -1.128,-3.354 -0.371,0 -0.278,2.735 0.12,4.696 0.198,0.975 0.669,2.271 1.341,3.52 -0.017,0.003 -0.033,0.006 -0.05,0.008 -0.672,-1.248 -1.143,-2.542 -1.34,-3.516 -0.305,-1.507 -0.43,-3.462 -0.303,-4.292 -0.079,-0.161 -0.146,-0.234 -0.202,-0.234 -0.403,0 -0.232,3.809 0.181,5.845 0.144,0.716 0.43,1.531 0.831,2.336 -10.023,1.658 -20.511,3.266 -23.517,3.382 z m 45.901,-7.656 c -0.975,-1.932 -1.622,-3.979 -1.846,-5.472 -0.314,-2.119 -0.345,-4.854 -0.11,-6 -0.012,-0.028 -0.023,-0.054 -0.035,-0.078 0.064,-0.296 0.157,-0.49 0.295,-0.49 0.019,0 0.039,0.003 0.06,0.011 -0.484,0.15 -0.54,3.849 -0.138,6.543 0.222,1.49 0.866,3.532 1.838,5.461 -0.021,0.008 -0.042,0.017 -0.064,0.025 z m 2.469,-0.209 c -1.201,-1.796 -2.245,-4.117 -2.745,-7.069 -0.408,-2.417 -0.748,-3.77 -1.016,-4.371 10e-4,10e-4 0.002,0.002 0.003,0.004 0.503,0.842 1.782,1.447 3.048,1.447 0.875,0 1.744,-0.289 2.347,-0.987 0.974,-1.128 2.737,-2.637 3.958,-3.265 0.647,1.372 1.253,2.399 1.52,2.399 0.096,0 0.149,-0.132 0.144,-0.428 -0.324,-0.452 -0.739,-1.254 -1.146,-2.193 0.022,-0.008 0.045,-0.014 0.067,-0.021 0.633,1.46 1.282,2.592 1.583,2.592 0.164,0 0.225,-0.335 0.124,-1.136 0.027,0.003 0.055,0.004 0.085,0.004 0.338,0 0.809,-0.211 1.505,-0.768 1.483,-1.184 4.048,-3.39 6.59,-3.39 0.711,0 1.419,0.173 2.102,0.587 0.006,0.047 0.011,0.093 0.017,0.14 0.04,0.366 0.105,0.749 0.195,1.147 0.821,3.962 3.108,7.595 5.077,10.136 -0.915,-0.265 -2.118,-0.651 -2.973,-1.071 -0.547,-1.268 -0.991,-2.711 -1.268,-4.349 -0.59,-3.484 -1.035,-4.756 -1.331,-4.756 -0.512,0 -0.577,3.798 -0.169,6.548 0.089,0.597 0.246,1.283 0.465,2.014 -0.019,0.019 -0.038,0.039 -0.057,0.059 -0.226,-0.749 -0.387,-1.45 -0.479,-2.06 -0.314,-2.119 -0.346,-4.855 -0.109,-6 -0.1,-0.235 -0.19,-0.341 -0.269,-0.341 -0.557,0 -0.594,5.295 -0.166,8.155 0.063,0.429 0.162,0.885 0.292,1.357 -0.095,0.452 -7.827,2.281 -10.128,2.281 h -0.056 c -2.278,0 -6.038,1.235 -6.501,2.213 -0.276,0.582 -0.443,0.976 -0.709,1.122 z"/>
        <path id="path317" style="fill:#d98f28;fill-rule:nonzero" d="m 131.616,61.365 c -0.502,-0.247 -0.884,-0.505 -1.018,-0.757 -0.112,-0.21 -0.26,-0.296 -0.426,-0.296 -0.267,0 -0.579,0.223 -0.859,0.51 -0.219,-0.731 -0.376,-1.417 -0.465,-2.014 -0.408,-2.75 -0.343,-6.548 0.169,-6.548 0.296,0 0.741,1.272 1.331,4.756 0.277,1.638 0.721,3.081 1.268,4.349 z"/>
        <path id="path319" style="fill:#f4b72f;fill-rule:nonzero" d="m 128.525,61.992 c -0.13,-0.472 -0.229,-0.928 -0.292,-1.357 -0.428,-2.86 -0.391,-8.155 0.166,-8.155 0.079,0 0.169,0.106 0.269,0.341 -0.237,1.145 -0.205,3.881 0.109,6 0.092,0.61 0.253,1.311 0.479,2.06 -0.377,0.403 -0.686,0.908 -0.731,1.111 z"/>
        <path id="path321" style="fill:#d98f28;fill-rule:nonzero" d="m 108.726,67.792 c -0.972,-1.929 -1.616,-3.971 -1.838,-5.461 -0.402,-2.694 -0.346,-6.393 0.138,-6.543 0.095,0.035 0.208,0.154 0.344,0.38 0.268,0.601 0.608,1.954 1.016,4.371 0.5,2.952 1.544,5.273 2.745,7.069 -0.075,0.041 -0.159,0.063 -0.255,0.063 -0.137,0 -0.3,-0.044 -0.502,-0.134 -0.25,-0.113 -0.378,-0.17 -0.511,-0.17 -0.207,0 -0.427,0.139 -1.137,0.425 z"/>
        <path id="path323" style="fill:#f4b72f;fill-rule:nonzero" d="m 107.604,68.207 c -0.69,-1.385 -1.15,-2.826 -1.333,-4.049 -0.212,-1.431 -0.309,-3.472 -0.283,-5.154 0.33,-0.03 0.525,-0.127 0.53,-0.313 0.013,-0.632 0.012,-1.773 0.153,-2.424 0.012,0.024 0.023,0.05 0.035,0.078 -0.235,1.146 -0.204,3.881 0.11,6 0.224,1.493 0.871,3.54 1.846,5.472 -0.275,0.11 -0.619,0.24 -1.058,0.39 z"/>
        <path id="path325" style="fill:#d98f28;fill-rule:nonzero" d="m 87.161,71.944 c -0.672,-1.249 -1.143,-2.545 -1.341,-3.52 -0.398,-1.961 -0.491,-4.696 -0.12,-4.696 0.213,0 0.579,0.898 1.128,3.354 0.422,1.894 1.142,3.402 1.961,4.59 -0.54,0.091 -1.082,0.181 -1.628,0.272 z"/>
        <path id="path327" style="fill:#f4b72f;fill-rule:nonzero" d="m 86.278,72.091 c -0.401,-0.805 -0.687,-1.62 -0.831,-2.336 -0.413,-2.036 -0.584,-5.845 -0.181,-5.845 0.056,0 0.123,0.073 0.202,0.234 -0.127,0.83 -0.002,2.785 0.303,4.292 0.197,0.974 0.668,2.268 1.34,3.516 -0.277,0.046 -0.555,0.093 -0.833,0.139 z"/>
        <path id="path329" style="fill:#d98f28;fill-rule:nonzero" d="m 99.79,66.731 c -0.516,0 -2.053,-3.319 -2.777,-5.921 -0.296,-1.061 -0.506,-2.484 -0.558,-4.016 0.025,-0.047 0.042,-0.091 0.049,-0.134 0.055,-0.007 0.109,-0.01 0.164,-0.01 0.335,0 0.688,0.115 1.032,0.274 0.19,0.087 0.463,0.196 0.796,0.318 0.009,1.409 0.19,2.945 0.615,4.595 0.926,3.593 1.002,4.894 0.679,4.894 z"/>
        <path id="path331" style="fill:#f4b72f;fill-rule:nonzero" d="m 99.142,66.781 c -0.569,0 -2.677,-4.666 -3.437,-7.389 -0.145,-0.519 -0.258,-1.097 -0.334,-1.713 0.499,-0.293 0.848,-0.556 1.019,-0.784 0.056,1.5 0.263,2.89 0.553,3.933 0.576,2.062 1.66,4.574 2.342,5.525 0.005,0.296 -0.047,0.428 -0.143,0.428 z"/>
        <path id="path333" style="fill:#d98f28;fill-rule:nonzero" d="m 73.668,71.941 c -0.388,0 -1.834,-2.119 -2.641,-3.84 -0.136,-0.29 -0.269,-0.625 -0.393,-0.992 0.424,-0.16 0.857,-0.321 1.291,-0.482 0.175,0.628 0.405,1.279 0.703,1.948 1.1,2.473 1.293,3.366 1.04,3.366 z"/>
        <path id="path335" style="fill:#f4b72f;fill-rule:nonzero" d="m 73.219,72.053 c -0.424,0 -2.363,-2.884 -3.236,-4.698 0.2,-0.076 0.403,-0.153 0.605,-0.229 0.125,0.368 0.258,0.703 0.395,0.994 0.649,1.384 1.706,3.025 2.299,3.614 0.042,0.221 0.015,0.319 -0.063,0.319 z"/>
        <path id="path337" style="fill:#d98f28;fill-rule:nonzero" d="m 118.894,55.716 c -0.301,0 -0.95,-1.132 -1.583,-2.592 0.118,-0.033 0.225,-0.051 0.319,-0.051 0.172,0 0.3,0.061 0.369,0.195 0.291,0.575 0.465,1.25 1.019,1.312 0.101,0.801 0.04,1.136 -0.124,1.136 z"/>
        <path id="path339" style="fill:#f4b72f;fill-rule:nonzero" d="m 118.246,55.766 c -0.267,0 -0.873,-1.027 -1.52,-2.399 0.187,-0.096 0.361,-0.172 0.518,-0.222 0.407,0.939 0.822,1.741 1.146,2.193 0.005,0.296 -0.048,0.428 -0.144,0.428 z"/>
        <path id="path341" style="fill:#edc11b;fill-rule:nonzero" d="m 139.191,65.734 c -2.853,-10e-4 -8.331,-7.815 -9.634,-13.239 -0.108,-0.488 -0.193,-0.982 -0.253,-1.479 -0.068,-0.738 -0.096,-1.503 -0.092,-2.268 0.005,-0.104 0.011,-0.208 0.019,-0.312 0.173,-2.395 0.418,-4.269 0.666,-5.748 0.284,-1.134 0.617,-1.854 0.919,-1.854 0.456,0 0.842,1.65 0.88,6.009 0.105,12.412 9.231,15.646 9.231,15.646 -0.074,2.305 -0.747,3.245 -1.736,3.245 z"/>
        <path id="path343" style="fill:#eccd23;fill-rule:nonzero" d="m 129.212,48.748 c 0.011,-2.272 0.304,-4.538 0.685,-6.06 -0.248,1.479 -0.493,3.353 -0.666,5.748 -0.008,0.104 -0.014,0.208 -0.019,0.312 z"/>
        <path id="path345" style="fill:#eccd23;fill-rule:nonzero" d="m 129.557,52.495 c -0.016,-0.065 -0.031,-0.13 -0.045,-0.195 -0.079,-0.379 -0.144,-0.762 -0.195,-1.147 -0.005,-0.046 -0.009,-0.092 -0.013,-0.137 0.06,0.497 0.145,0.991 0.253,1.479 z"/>
        <path id="path347" style="fill:#ecd729;fill-rule:nonzero" d="m 129.512,52.3 c -0.09,-0.398 -0.155,-0.781 -0.195,-1.147 0.051,0.385 0.116,0.768 0.195,1.147 z"/>
        <path id="path349" style="fill:#bd2a28;fill-rule:nonzero" d="m 143.587,57.223 c 0.19,1.397 -7.494,3.01 -9.061,-6.523 -1.566,-9.533 6.07,-15.478 9.061,6.523 z"/>
        <path id="path351" style="fill:#438941;fill-rule:nonzero" d="m 159.837,50.426 c 0,0 -3.336,3.397 -6.806,5.907 -3.464,2.51 -16.199,5.331 -18.086,-4.511 -1.886,-9.844 6.236,-13.763 12.077,-12.003 5.839,1.762 6.064,-0.023 10.815,3.43 2.883,2.096 -10.534,5.182 -10.534,5.182 z"/>
        <path id="path353" style="fill:#91c961;fill-rule:nonzero" d="m 147.121,57.634 c 0,0 -7.458,0.357 -8.551,-6.684 -1.093,-7.04 1.489,-9.099 1.986,-6.104 0.497,2.993 2.011,7.313 5.477,8.268 3.463,0.956 4.452,5.046 1.088,4.52 z"/>
    </g>
</svg>
