<?xml version="1.0" encoding="UTF-8" standalone="no"?>
<svg xmlns="http://www.w3.org/2000/svg" width="100%" height="100%" viewBox="0 0 226 156" version="1.1" style="fill-rule:evenodd;clip-rule:evenodd;stroke-linejoin:round;stroke-miterlimit:2" id="svg54">
    <g transform="matrix(1.3193906,0,0,1.3193906,3.4341645,44.827751)" style="clip-rule:evenodd;fill-rule:evenodd;stroke-linejoin:round;stroke-miterlimit:2" id="g136">
        <path d="m 134.038,83.24 c -22.246,0 -50.859,-2.855 -72.402,-6.297 -0.855,-0.136 -1.706,-0.197 -2.56,-0.197 -3.379,0 -6.829,0.947 -10.907,1.893 -4.079,0.947 -8.788,1.894 -14.681,1.894 -5.668,0 -12.432,-0.875 -20.79,-3.468 -27.939,-8.667 -6.072,-29.616 29.736,-38.543 5.241,-1.306 10.679,-1.864 16.138,-1.864 31.839,0 64.512,18.964 64.512,18.964 9.97,0.383 56.733,16.892 41.549,23.892 -5.762,2.657 -16.989,3.726 -30.595,3.726 z" style="fill:#5c6329;fill-rule:nonzero" id="path2-8"/>
        <path d="m 88.3,0.93 c -8.293,1.562 -33.691,8.253 -35.045,19.753 -1.353,11.5 2.98,27.059 26.114,28.548 23.138,1.488 24.354,6.359 37.48,2.976 13.124,-3.382 28.817,-9.74 20.969,-26.653 C 129.973,8.641 111.977,-3.536 88.3,0.93 Z" style="fill:#e1a23b;fill-rule:nonzero" id="path4"/>
        <path d="M 119.825,45.037 C 106.699,48.42 105.482,43.549 82.346,42.061 60.145,40.632 55.264,26.249 56.1,14.927 c -1.568,1.762 -2.599,3.679 -2.845,5.756 -1.353,11.5 2.98,27.059 26.114,28.548 23.138,1.488 24.354,6.359 37.48,2.976 10.321,-2.66 22.231,-7.162 23.028,-17.191 -4.331,5.222 -12.603,8.101 -20.052,10.021 z" style="fill:#c8852b;fill-rule:nonzero" id="path6"/>
        <path d="m 65.57,10.264 c -4.217,2.135 -3.925,16.778 4.328,21.919 8.254,5.141 28.954,-1.082 43.974,1.353 15.018,2.436 23.135,-2.633 19.077,-11.262 -4.059,-8.628 -22.731,-34.605 -67.379,-12.01 z" style="fill:#e9ad52;fill-rule:nonzero" id="path8"/>
        <path d="m 70.441,10.264 c -1.995,1.5 -2.165,12.312 10.823,13.259 12.989,0.948 24.083,-3.112 34.368,0 10.282,3.113 17.022,-1.455 10,-11.348 C 118.608,2.281 90.059,-4.484 70.441,10.264 Z" style="fill:#f3ba68;fill-rule:nonzero" id="path10"/>
        <path d="m 110.673,35.194 c -0.407,0.135 -1.693,0.879 -1.456,1.793 0.238,0.913 0.372,1.725 0.238,2.367 -0.136,0.643 -0.436,1.387 0.475,1.894 0.91,0.507 0.099,-0.947 0.166,-1.522 0.069,-0.575 0.814,-1.014 0.88,-2.435 0.068,-1.42 -0.303,-2.097 -0.303,-2.097 z" style="fill:#d08c2b;fill-rule:nonzero" id="path12"/>
        <path d="m 110.087,36.073 c -0.362,0.508 -0.465,1.015 -0.261,1.286 0.203,0.269 0.089,0.981 0.078,1.285 -0.012,0.304 0.667,-0.304 0.667,-1.285 0,-0.981 -0.484,-1.286 -0.484,-1.286 z" style="fill:#a86e28;fill-rule:nonzero" id="path14"/>
        <path d="m 87.558,38.274 c -0.406,0.136 -1.693,0.879 -1.455,1.794 0.238,0.912 0.374,1.724 0.238,2.367 -0.137,0.642 -0.436,1.386 0.475,1.893 0.911,0.508 0.098,-0.947 0.167,-1.522 0.067,-0.574 0.813,-1.014 0.88,-2.434 0.066,-1.422 -0.305,-2.098 -0.305,-2.098 z" style="fill:#d08c2b;fill-rule:nonzero" id="path16"/>
        <path d="m 86.972,39.153 c -0.361,0.508 -0.464,1.016 -0.26,1.286 0.202,0.27 0.09,0.98 0.078,1.285 -0.01,0.305 0.667,-0.305 0.667,-1.285 0,-0.981 -0.485,-1.286 -0.485,-1.286 z" style="fill:#a86e28;fill-rule:nonzero" id="path18"/>
        <path d="m 103.434,16.541 c -0.406,0.134 -1.693,0.878 -1.455,1.792 0.237,0.914 0.373,1.726 0.237,2.368 -0.136,0.641 -0.436,1.386 0.475,1.893 0.91,0.507 0.099,-0.946 0.169,-1.521 0.066,-0.575 0.81,-1.014 0.878,-2.436 0.066,-1.421 -0.304,-2.096 -0.304,-2.096 z" style="fill:#d08c2b;fill-rule:nonzero" id="path20"/>
        <path d="m 102.848,17.419 c -0.361,0.508 -0.464,1.016 -0.262,1.287 0.204,0.269 0.091,0.98 0.08,1.285 -0.01,0.304 0.665,-0.305 0.665,-1.285 0,-0.981 -0.483,-1.287 -0.483,-1.287 z" style="fill:#a86e28;fill-rule:nonzero" id="path22"/>
        <path d="m 79.903,22.7 c -0.407,0.137 -1.691,0.88 -1.453,1.794 0.235,0.913 0.371,1.725 0.235,2.368 -0.134,0.642 -0.434,1.385 0.477,1.893 0.91,0.508 0.099,-0.946 0.166,-1.522 0.067,-0.574 0.812,-1.014 0.881,-2.434 C 80.276,23.378 79.903,22.7 79.903,22.7 Z" style="fill:#d08c2b;fill-rule:nonzero" id="path24"/>
        <path d="m 79.319,23.58 c -0.363,0.508 -0.464,1.015 -0.261,1.285 0.203,0.271 0.087,0.981 0.077,1.286 -0.01,0.305 0.665,-0.305 0.665,-1.286 0,-0.981 -0.481,-1.285 -0.481,-1.285 z" style="fill:#a86e28;fill-rule:nonzero" id="path26"/>
        <path d="m 92.892,3.883 c -0.405,0.136 -1.691,0.879 -1.454,1.793 0.236,0.913 0.37,1.725 0.236,2.368 -0.134,0.642 -0.435,1.386 0.476,1.893 0.911,0.508 0.1,-0.947 0.166,-1.522 0.067,-0.574 0.813,-1.014 0.881,-2.434 0.066,-1.422 -0.305,-2.098 -0.305,-2.098 z" style="fill:#d08c2b;fill-rule:nonzero" id="path28"/>
        <path d="m 92.307,4.762 c -0.362,0.507 -0.464,1.016 -0.26,1.286 0.203,0.27 0.089,0.981 0.079,1.284 -0.013,0.306 0.665,-0.303 0.665,-1.284 0,-0.982 -0.484,-1.286 -0.484,-1.286 z" style="fill:#a86e28;fill-rule:nonzero" id="path30"/>
        <path d="m 73.048,8.766 c -0.406,0.136 -1.692,0.88 -1.455,1.793 0.238,0.913 0.372,1.725 0.238,2.368 -0.136,0.643 -0.437,1.387 0.473,1.894 0.912,0.507 0.1,-0.947 0.167,-1.521 0.07,-0.576 0.815,-1.016 0.881,-2.436 0.066,-1.421 -0.304,-2.098 -0.304,-2.098 z" style="fill:#d08c2b;fill-rule:nonzero" id="path32"/>
        <path d="m 72.462,9.646 c -0.361,0.508 -0.463,1.015 -0.261,1.285 0.203,0.271 0.09,0.981 0.079,1.286 -0.012,0.304 0.667,-0.305 0.667,-1.286 0,-0.98 -0.485,-1.285 -0.485,-1.285 z" style="fill:#a86e28;fill-rule:nonzero" id="path34"/>
        <path d="m 62.584,28.861 c -0.407,0.136 -1.69,0.88 -1.453,1.794 0.235,0.912 0.372,1.724 0.235,2.367 -0.133,0.642 -0.433,1.387 0.477,1.894 0.911,0.508 0.1,-0.946 0.167,-1.523 0.066,-0.574 0.811,-1.014 0.877,-2.434 0.07,-1.421 -0.303,-2.098 -0.303,-2.098 z" style="fill:#d08c2b;fill-rule:nonzero" id="path36"/>
        <path d="m 61.999,29.741 c -0.362,0.508 -0.463,1.015 -0.259,1.285 0.203,0.271 0.087,0.982 0.078,1.286 -0.012,0.304 0.663,-0.304 0.663,-1.286 0,-0.98 -0.482,-1.285 -0.482,-1.285 z" style="fill:#a86e28;fill-rule:nonzero" id="path38"/>
        <path d="m 123.922,13.097 c -0.407,0.137 -1.692,0.88 -1.455,1.793 0.236,0.912 0.371,1.724 0.236,2.368 -0.135,0.643 -0.434,1.388 0.476,1.895 0.91,0.507 0.099,-0.948 0.166,-1.523 0.069,-0.575 0.811,-1.016 0.88,-2.435 0.068,-1.421 -0.303,-2.098 -0.303,-2.098 z" style="fill:#d08c2b;fill-rule:nonzero" id="path40"/>
        <path d="m 123.336,13.977 c -0.362,0.508 -0.465,1.014 -0.261,1.285 0.203,0.271 0.089,0.981 0.079,1.286 -0.013,0.304 0.666,-0.305 0.666,-1.286 0,-0.981 -0.484,-1.285 -0.484,-1.285 z" style="fill:#a86e28;fill-rule:nonzero" id="path42"/>
        <path d="m 131.498,31.206 c -0.406,0.134 -1.69,0.878 -1.456,1.79 0.238,0.915 0.373,1.726 0.238,2.368 -0.136,0.644 -0.436,1.389 0.475,1.895 0.913,0.508 0.099,-0.947 0.168,-1.521 0.066,-0.576 0.811,-1.016 0.878,-2.438 0.069,-1.419 -0.303,-2.094 -0.303,-2.094 z" style="fill:#d08c2b;fill-rule:nonzero" id="path44"/>
        <path d="m 130.912,32.084 c -0.362,0.507 -0.464,1.014 -0.26,1.286 0.202,0.27 0.088,0.98 0.078,1.284 -0.011,0.305 0.665,-0.304 0.665,-1.284 0,-0.982 -0.483,-1.286 -0.483,-1.286 z" style="fill:#a86e28;fill-rule:nonzero" id="path46"/>
        <path d="M 32.325,22.848 C 24.967,26.978 3.035,41.429 5.425,52.76 7.815,64.088 16.888,77.45 39.287,71.473 61.689,65.495 64.398,69.721 75.755,62.325 87.111,54.929 99.951,43.891 87.114,30.37 74.279,16.848 53.337,11.055 32.325,22.848 Z" style="fill:#e1a23b;fill-rule:nonzero" id="path48"/>
        <path d="M 76.285,54.579 C 64.928,61.977 62.219,57.749 39.818,63.727 18.323,69.464 9.104,57.391 6.283,46.396 5.359,48.567 4.994,50.713 5.425,52.76 7.815,64.088 16.888,77.45 39.287,71.473 61.689,65.495 64.398,69.721 75.755,62.325 84.686,56.508 94.533,48.439 92.088,38.68 89.65,45.011 82.73,50.382 76.285,54.579 Z" style="fill:#c8852b;fill-rule:nonzero" id="path50"/>
        <path d="M 13.766,38.954 C 10.451,42.322 15.405,56.105 24.869,58.342 34.331,60.577 51.96,48.071 66.971,45.582 81.981,43.093 88.053,35.698 81.452,28.818 74.85,21.938 48.861,3.283 13.766,38.954 Z" style="fill:#e9ad52;fill-rule:nonzero" id="path52"/>
        <path d="M 18.382,37.399 C 16.971,39.455 20.26,49.757 32.873,46.507 45.485,43.257 54.701,35.866 65.44,35.531 76.179,35.197 81.108,28.716 71.293,21.584 61.478,14.45 32.262,17.157 18.382,37.399 Z" style="fill:#f3ba68;fill-rule:nonzero" id="path54"/>
        <path d="m 64.469,48.175 c -0.341,0.258 -1.324,1.373 -0.806,2.162 0.515,0.791 0.903,1.517 0.978,2.17 0.08,0.651 0.033,1.452 1.056,1.641 1.027,0.19 -0.207,-0.928 -0.328,-1.494 -0.118,-0.567 0.447,-1.222 0.057,-2.589 -0.389,-1.367 -0.957,-1.89 -0.957,-1.89 z" style="fill:#d08c2b;fill-rule:nonzero" id="path56"/>
        <path d="m 64.194,49.195 c -0.182,0.596 -0.114,1.11 0.164,1.301 0.278,0.191 0.398,0.901 0.484,1.193 0.087,0.292 0.536,-0.501 0.223,-1.43 -0.315,-0.931 -0.871,-1.064 -0.871,-1.064 z" style="fill:#a86e28;fill-rule:nonzero" id="path58"/>
        <path d="m 43.549,58.475 c -0.343,0.258 -1.324,1.373 -0.806,2.164 0.516,0.789 0.905,1.515 0.98,2.168 0.075,0.652 0.029,1.452 1.056,1.642 1.024,0.191 -0.208,-0.93 -0.328,-1.496 -0.119,-0.566 0.445,-1.221 0.055,-2.588 -0.391,-1.368 -0.957,-1.89 -0.957,-1.89 z" style="fill:#d08c2b;fill-rule:nonzero" id="path60"/>
        <path d="m 43.275,59.494 c -0.182,0.597 -0.116,1.111 0.161,1.302 0.28,0.192 0.4,0.9 0.486,1.192 0.089,0.293 0.533,-0.5 0.221,-1.431 -0.312,-0.929 -0.868,-1.063 -0.868,-1.063 z" style="fill:#a86e28;fill-rule:nonzero" id="path62"/>
        <path d="m 51.652,32.809 c -0.343,0.258 -1.324,1.374 -0.807,2.164 0.518,0.79 0.905,1.515 0.981,2.168 0.076,0.652 0.031,1.451 1.057,1.643 1.022,0.189 -0.209,-0.928 -0.329,-1.496 -0.119,-0.567 0.446,-1.221 0.056,-2.589 -0.391,-1.368 -0.958,-1.89 -0.958,-1.89 z" style="fill:#d08c2b;fill-rule:nonzero" id="path64"/>
        <path d="m 51.377,33.829 c -0.18,0.597 -0.115,1.11 0.164,1.302 0.278,0.191 0.398,0.9 0.484,1.193 0.088,0.291 0.534,-0.501 0.222,-1.432 -0.313,-0.928 -0.87,-1.063 -0.87,-1.063 z" style="fill:#a86e28;fill-rule:nonzero" id="path66"/>
        <path d="m 31.32,46.161 c -0.342,0.259 -1.322,1.373 -0.805,2.164 0.515,0.79 0.903,1.516 0.98,2.169 0.077,0.652 0.029,1.452 1.055,1.641 1.027,0.192 -0.207,-0.927 -0.327,-1.495 -0.12,-0.566 0.445,-1.221 0.056,-2.589 -0.39,-1.368 -0.959,-1.89 -0.959,-1.89 z" style="fill:#d08c2b;fill-rule:nonzero" id="path68"/>
        <path d="m 31.047,47.182 c -0.181,0.596 -0.115,1.11 0.164,1.301 0.278,0.192 0.397,0.902 0.485,1.192 0.087,0.293 0.532,-0.5 0.219,-1.429 -0.314,-0.93 -0.868,-1.064 -0.868,-1.064 z" style="fill:#a86e28;fill-rule:nonzero" id="path70"/>
        <path d="m 37.62,24.181 c -0.341,0.258 -1.321,1.373 -0.806,2.163 0.516,0.789 0.903,1.517 0.98,2.169 0.077,0.651 0.031,1.454 1.057,1.642 1.025,0.19 -0.207,-0.929 -0.329,-1.496 -0.119,-0.565 0.445,-1.219 0.056,-2.588 -0.39,-1.368 -0.958,-1.89 -0.958,-1.89 z" style="fill:#d08c2b;fill-rule:nonzero" id="path72"/>
        <path d="m 37.346,25.201 c -0.181,0.597 -0.115,1.11 0.166,1.301 0.277,0.192 0.396,0.901 0.484,1.194 0.086,0.292 0.533,-0.502 0.219,-1.431 -0.313,-0.93 -0.869,-1.064 -0.869,-1.064 z" style="fill:#a86e28;fill-rule:nonzero" id="path74"/>
        <path d="m 20.375,35.145 c -0.342,0.259 -1.322,1.374 -0.806,2.164 0.514,0.791 0.902,1.517 0.98,2.168 0.077,0.653 0.031,1.453 1.056,1.643 1.024,0.19 -0.209,-0.929 -0.329,-1.494 -0.119,-0.568 0.445,-1.222 0.057,-2.59 -0.39,-1.368 -0.958,-1.891 -0.958,-1.891 z" style="fill:#d08c2b;fill-rule:nonzero" id="path76"/>
        <path d="m 20.1,36.165 c -0.18,0.598 -0.114,1.111 0.164,1.302 0.279,0.192 0.399,0.901 0.485,1.193 0.085,0.293 0.534,-0.5 0.221,-1.43 -0.313,-0.931 -0.87,-1.065 -0.87,-1.065 z" style="fill:#a86e28;fill-rule:nonzero" id="path78"/>
        <path d="m 16.876,57.53 c -0.342,0.258 -1.32,1.374 -0.805,2.163 0.514,0.79 0.904,1.516 0.979,2.169 0.078,0.652 0.032,1.452 1.058,1.642 1.025,0.19 -0.21,-0.927 -0.329,-1.496 -0.12,-0.565 0.444,-1.221 0.054,-2.588 -0.387,-1.367 -0.957,-1.89 -0.957,-1.89 z" style="fill:#d08c2b;fill-rule:nonzero" id="path80"/>
        <path d="m 16.602,58.551 c -0.181,0.596 -0.114,1.109 0.164,1.3 0.279,0.192 0.399,0.902 0.485,1.195 0.088,0.29 0.533,-0.502 0.219,-1.433 -0.312,-0.928 -0.868,-1.062 -0.868,-1.062 z" style="fill:#a86e28;fill-rule:nonzero" id="path82"/>
        <path d="m 69.966,23.004 c -0.34,0.258 -1.321,1.374 -0.806,2.163 0.516,0.79 0.905,1.516 0.981,2.169 0.078,0.652 0.032,1.453 1.057,1.643 1.024,0.19 -0.209,-0.93 -0.329,-1.496 -0.12,-0.567 0.446,-1.222 0.055,-2.589 -0.389,-1.367 -0.958,-1.89 -0.958,-1.89 z" style="fill:#d08c2b;fill-rule:nonzero" id="path84"/>
        <path d="m 69.694,24.025 c -0.182,0.595 -0.115,1.109 0.163,1.3 0.279,0.191 0.398,0.902 0.484,1.194 0.088,0.291 0.534,-0.502 0.222,-1.431 -0.315,-0.93 -0.869,-1.063 -0.869,-1.063 z" style="fill:#a86e28;fill-rule:nonzero" id="path86"/>
        <path d="m 82.929,37.744 c -0.342,0.258 -1.322,1.372 -0.806,2.163 0.517,0.789 0.904,1.516 0.981,2.167 0.076,0.653 0.03,1.455 1.056,1.644 1.026,0.19 -0.21,-0.929 -0.328,-1.495 -0.119,-0.568 0.445,-1.222 0.054,-2.59 -0.388,-1.367 -0.957,-1.889 -0.957,-1.889 z" style="fill:#d08c2b;fill-rule:nonzero" id="path88"/>
        <path d="m 82.654,38.764 c -0.179,0.597 -0.114,1.109 0.164,1.302 0.279,0.192 0.399,0.9 0.486,1.192 0.086,0.292 0.533,-0.501 0.221,-1.429 -0.315,-0.931 -0.871,-1.065 -0.871,-1.065 z" style="fill:#a86e28;fill-rule:nonzero" id="path90"/>
        <path d="m 106.237,27.065 c -8.293,1.564 -33.691,8.253 -35.045,19.754 -1.353,11.5 2.979,27.059 26.113,28.548 23.137,1.489 24.354,6.358 37.48,2.976 13.125,-3.381 28.817,-9.74 20.97,-26.653 C 147.91,34.778 129.914,22.601 106.237,27.065 Z" style="fill:#e1a23b;fill-rule:nonzero" id="path92"/>
        <path d="m 137.761,71.173 c -13.125,3.382 -14.342,-1.489 -37.48,-2.976 -22.2,-1.43 -27.081,-15.813 -26.244,-27.135 -1.568,1.762 -2.6,3.679 -2.845,5.757 -1.353,11.5 2.979,27.059 26.113,28.548 23.137,1.489 24.354,6.358 37.48,2.976 10.321,-2.66 22.231,-7.163 23.028,-17.191 -4.33,5.221 -12.603,8.101 -20.052,10.021 z" style="fill:#c8852b;fill-rule:nonzero" id="path94"/>
        <path d="m 83.506,36.401 c -4.217,2.133 -3.924,16.776 4.329,21.918 8.253,5.141 28.954,-1.082 43.974,1.353 15.017,2.437 23.135,-2.633 19.077,-11.262 -4.06,-8.627 -22.732,-34.605 -67.38,-12.009 z" style="fill:#e9ad52;fill-rule:nonzero" id="path96"/>
        <path d="M 88.377,36.401 C 86.383,37.9 86.212,48.712 99.2,49.659 c 12.989,0.948 24.082,-3.112 34.368,0 10.282,3.113 17.023,-1.454 10,-11.348 -7.024,-9.894 -35.572,-16.658 -55.191,-1.91 z" style="fill:#f3ba68;fill-rule:nonzero" id="path98"/>
        <path d="m 128.608,61.329 c -0.406,0.136 -1.691,0.881 -1.454,1.794 0.237,0.913 0.371,1.724 0.237,2.368 -0.136,0.642 -0.435,1.385 0.474,1.892 0.912,0.507 0.101,-0.945 0.167,-1.521 0.069,-0.574 0.814,-1.015 0.881,-2.435 0.067,-1.42 -0.305,-2.098 -0.305,-2.098 z" style="fill:#d08c2b;fill-rule:nonzero" id="path100"/>
        <path d="m 128.022,62.21 c -0.361,0.507 -0.463,1.015 -0.26,1.283 0.204,0.27 0.09,0.983 0.079,1.287 -0.013,0.305 0.666,-0.304 0.666,-1.287 0,-0.979 -0.485,-1.283 -0.485,-1.283 z" style="fill:#a86e28;fill-rule:nonzero" id="path102"/>
        <path d="m 105.494,64.409 c -0.405,0.136 -1.692,0.881 -1.455,1.794 0.239,0.913 0.374,1.724 0.239,2.368 -0.137,0.643 -0.437,1.385 0.473,1.892 0.912,0.509 0.1,-0.945 0.169,-1.521 0.067,-0.575 0.813,-1.015 0.878,-2.435 0.067,-1.42 -0.304,-2.098 -0.304,-2.098 z" style="fill:#d08c2b;fill-rule:nonzero" id="path104"/>
        <path d="m 104.908,65.29 c -0.361,0.507 -0.463,1.014 -0.26,1.284 0.203,0.272 0.09,0.982 0.079,1.286 -0.01,0.305 0.666,-0.304 0.666,-1.286 0,-0.98 -0.485,-1.284 -0.485,-1.284 z" style="fill:#a86e28;fill-rule:nonzero" id="path106"/>
        <path d="m 121.369,42.676 c -0.406,0.136 -1.692,0.878 -1.454,1.794 0.237,0.912 0.373,1.724 0.237,2.367 -0.136,0.641 -0.436,1.386 0.475,1.893 0.91,0.507 0.099,-0.945 0.169,-1.521 0.066,-0.575 0.811,-1.015 0.877,-2.435 0.068,-1.422 -0.304,-2.098 -0.304,-2.098 z" style="fill:#d08c2b;fill-rule:nonzero" id="path108"/>
        <path d="m 120.784,43.554 c -0.362,0.51 -0.464,1.017 -0.261,1.287 0.203,0.27 0.09,0.982 0.079,1.286 -0.009,0.304 0.666,-0.304 0.666,-1.286 0,-0.98 -0.484,-1.287 -0.484,-1.287 z" style="fill:#a86e28;fill-rule:nonzero" id="path110"/>
        <path d="m 97.838,48.837 c -0.406,0.135 -1.691,0.88 -1.453,1.793 0.236,0.913 0.372,1.724 0.236,2.367 -0.134,0.644 -0.433,1.386 0.477,1.893 0.91,0.51 0.099,-0.945 0.166,-1.521 0.067,-0.574 0.811,-1.015 0.88,-2.435 0.068,-1.42 -0.306,-2.097 -0.306,-2.097 z" style="fill:#d08c2b;fill-rule:nonzero" id="path112"/>
        <path d="m 97.255,49.717 c -0.362,0.507 -0.464,1.014 -0.261,1.284 0.203,0.272 0.087,0.982 0.078,1.287 -0.011,0.304 0.665,-0.305 0.665,-1.287 0,-0.98 -0.482,-1.284 -0.482,-1.284 z" style="fill:#a86e28;fill-rule:nonzero" id="path114"/>
        <path d="m 110.829,30.019 c -0.406,0.135 -1.692,0.879 -1.455,1.793 0.235,0.913 0.37,1.725 0.235,2.367 -0.132,0.642 -0.434,1.387 0.478,1.894 0.91,0.508 0.098,-0.947 0.166,-1.522 0.066,-0.575 0.811,-1.014 0.88,-2.435 0.067,-1.421 -0.304,-2.097 -0.304,-2.097 z" style="fill:#d08c2b;fill-rule:nonzero" id="path116"/>
        <path d="m 110.243,30.898 c -0.361,0.507 -0.463,1.015 -0.26,1.286 0.202,0.27 0.09,0.98 0.078,1.284 -0.011,0.305 0.667,-0.304 0.667,-1.284 0,-0.982 -0.485,-1.286 -0.485,-1.286 z" style="fill:#a86e28;fill-rule:nonzero" id="path118"/>
        <path d="m 90.984,34.902 c -0.406,0.136 -1.692,0.88 -1.455,1.794 0.237,0.912 0.371,1.724 0.237,2.367 -0.136,0.643 -0.435,1.386 0.475,1.893 0.912,0.508 0.099,-0.947 0.165,-1.521 0.07,-0.575 0.815,-1.015 0.882,-2.435 0.067,-1.421 -0.304,-2.098 -0.304,-2.098 z" style="fill:#d08c2b;fill-rule:nonzero" id="path120"/>
        <path d="m 90.398,35.782 c -0.362,0.508 -0.463,1.015 -0.26,1.285 0.202,0.271 0.09,0.982 0.078,1.286 -0.011,0.305 0.667,-0.304 0.667,-1.286 0,-0.981 -0.485,-1.285 -0.485,-1.285 z" style="fill:#a86e28;fill-rule:nonzero" id="path122"/>
        <path d="m 80.52,54.996 c -0.406,0.136 -1.691,0.881 -1.452,1.794 0.234,0.913 0.37,1.724 0.234,2.367 -0.134,0.643 -0.433,1.389 0.477,1.895 0.912,0.508 0.101,-0.947 0.167,-1.523 0.066,-0.575 0.811,-1.015 0.877,-2.435 0.07,-1.42 -0.303,-2.098 -0.303,-2.098 z" style="fill:#d08c2b;fill-rule:nonzero" id="path124"/>
        <path d="m 79.936,55.877 c -0.362,0.506 -0.463,1.014 -0.261,1.284 0.205,0.272 0.089,0.982 0.079,1.286 -0.011,0.304 0.664,-0.304 0.664,-1.286 0,-0.98 -0.482,-1.284 -0.482,-1.284 z" style="fill:#a86e28;fill-rule:nonzero" id="path126"/>
        <path d="m 141.857,39.234 c -0.405,0.135 -1.691,0.878 -1.453,1.791 0.234,0.913 0.37,1.725 0.234,2.368 -0.133,0.643 -0.433,1.388 0.478,1.895 0.91,0.507 0.098,-0.947 0.165,-1.522 0.07,-0.576 0.811,-1.016 0.881,-2.436 0.067,-1.421 -0.305,-2.096 -0.305,-2.096 z" style="fill:#d08c2b;fill-rule:nonzero" id="path128"/>
        <path d="m 141.271,40.112 c -0.361,0.507 -0.463,1.015 -0.26,1.287 0.203,0.269 0.089,0.979 0.079,1.284 -0.012,0.304 0.666,-0.305 0.666,-1.284 0,-0.982 -0.485,-1.287 -0.485,-1.287 z" style="fill:#a86e28;fill-rule:nonzero" id="path130"/>
        <path d="m 149.433,57.341 c -0.406,0.136 -1.69,0.878 -1.454,1.791 0.237,0.915 0.373,1.727 0.237,2.368 -0.136,0.643 -0.437,1.388 0.475,1.895 0.912,0.507 0.099,-0.948 0.169,-1.522 0.066,-0.576 0.811,-1.014 0.877,-2.436 0.069,-1.421 -0.304,-2.096 -0.304,-2.096 z" style="fill:#d08c2b;fill-rule:nonzero" id="path132"/>
        <path d="m 148.848,58.219 c -0.362,0.507 -0.465,1.015 -0.261,1.287 0.203,0.269 0.089,0.979 0.079,1.284 -0.01,0.304 0.665,-0.305 0.665,-1.284 0,-0.983 -0.483,-1.287 -0.483,-1.287 z" style="fill:#a86e28;fill-rule:nonzero" id="path134"/>
    </g>
</svg>
