<?xml version="1.0" encoding="UTF-8" standalone="no"?>
<svg xmlns="http://www.w3.org/2000/svg" width="100%" height="100%" viewBox="0 0 226 156" version="1.1" style="fill-rule:evenodd;clip-rule:evenodd;stroke-linejoin:round;stroke-miterlimit:2" id="svg54">
    <g transform="matrix(1.6458128,0,0,1.6458128,3.1104527,2.1945533)" style="clip-rule:evenodd;fill-rule:evenodd;stroke-linejoin:round;stroke-miterlimit:2" id="g76">
        <path d="m 32.854,92.119 c -5.221,0 -11.013,-0.811 -17.452,-2.808 C 1.976,85.146 -1.563,77.461 2.357,69.612 c 4.314,10.39 14.165,16.619 26.37,16.619 2.044,0 4.158,-0.175 6.319,-0.535 0.022,-0.003 0.044,-0.007 0.067,-0.011 0.006,-0.001 0.014,-0.002 0.02,-0.003 0.016,-0.003 0.033,-0.006 0.05,-0.009 0.006,-0.001 0.013,-0.002 0.019,-0.003 0.023,-0.004 0.044,-0.008 0.067,-0.011 0.024,-0.005 0.046,-0.009 0.07,-0.013 0.005,0 0.009,-0.001 0.013,-0.002 0.02,-0.003 0.038,-0.007 0.059,-0.01 0.003,-0.001 0.008,-0.002 0.012,-0.003 0.071,-0.012 0.142,-0.025 0.213,-0.038 0.003,-0.001 0.005,-0.001 0.008,-0.001 13.739,-2.529 25.401,-13.052 27.774,-24.674 2.583,-0.627 4.99,-1.534 7.188,-2.691 4.153,9.821 14.699,18.086 26.779,20.15 0.004,0.001 0.006,0.001 0.01,0.002 0.019,0.003 0.04,0.007 0.059,0.01 0.005,0.001 0.01,0.002 0.015,0.002 0.023,0.004 0.046,0.008 0.069,0.012 2.161,0.36 4.274,0.534 6.318,0.535 10.145,0 18.664,-4.305 23.729,-11.725 6.974,3.365 11.267,9.753 0.396,14.764 -2.908,1.34 -6.524,1.859 -10.536,1.859 -6.859,0 -14.877,-1.515 -22.508,-3.03 -7.631,-1.515 -14.873,-3.03 -20.177,-3.03 -2.494,0 -4.558,0.335 -6.035,1.161 -7.383,4.135 -18.437,13.182 -35.871,13.182 z" style="fill:#5c6329;fill-rule:nonzero" id="path2-4"/>
        <path d="m 50.947,12.896 c -7.085,0.53 -23.102,-1.824 -28.777,15.402 -5.674,17.225 12.767,33.64 32.424,33.64 19.658,0 32.83,-13.983 29.993,-33.235 C 81.75,9.451 65.971,11.773 50.947,12.896 Z" style="fill:#db2027;fill-rule:nonzero" id="path4-0"/>
        <path d="m 78.962,16.65 c 0.893,1.937 1.572,4.235 1.977,6.987 2.838,19.252 -10.335,33.235 -29.992,33.235 -10.513,0 -20.677,-4.697 -26.991,-11.7 5.389,9.712 17.754,16.766 30.638,16.766 19.658,0 32.83,-13.983 29.993,-33.235 -0.845,-5.736 -2.846,-9.546 -5.625,-12.053 z" style="fill:#aa222f;fill-rule:nonzero" id="path6-5"/>
        <path d="m 61.659,47.482 c -0.049,-0.097 -0.099,-0.194 -0.149,-0.29 -1.773,-3.38 -3.856,-5.83 -6.105,-7.585 0.203,-0.101 0.406,-0.206 0.608,-0.314 6.836,-3.638 10.613,-7.406 12.012,-10.129 0.545,2.331 1.903,5.261 3.354,7.307 -1.433,2.315 -3.339,4.857 -5.841,7.633 -1.206,1.338 -2.507,2.458 -3.879,3.378 z M 27.388,37.002 c -0.654,-1.423 -1.121,-2.913 -1.367,-4.449 -0.22,-1.374 -0.264,-2.64 -0.158,-3.803 0.421,2.951 2.021,5.736 4.429,7.999 -0.967,0.086 -1.935,0.169 -2.904,0.253 z m 45.64,-3.503 c -0.394,-1.277 -0.684,-2.573 -0.593,-3.634 0.304,-3.546 -3.546,-6.586 -4.357,-7.295 -0.535,-0.469 1.717,-0.893 4.389,-0.893 0.78,0 1.596,0.036 2.388,0.118 0.722,2.607 0.73,6.473 -1.827,11.704 z M 61.969,25.875 c -0.859,0 -1.758,-0.072 -2.681,-0.203 0.126,-1.923 0.567,-3.14 1.284,-3.14 0.215,0 0.454,0.109 0.718,0.342 0.958,0.845 2.667,1.471 4.136,2.504 -0.096,0.025 -0.194,0.052 -0.293,0.082 -0.96,0.288 -2.027,0.415 -3.164,0.415 z M 50.446,23.184 c -0.471,-0.182 -0.937,-0.368 -1.394,-0.555 0.244,-0.034 0.462,-0.052 0.65,-0.052 0.486,0 0.767,0.12 0.746,0.398 -0.005,0.066 -0.006,0.136 -0.002,0.209 z M 31.031,20.205 c 4.201,-2.883 10.098,-3.825 14.436,-3.825 0.914,0 1.76,0.042 2.505,0.116 0.181,0.617 -2.187,1.534 -5.689,3.128 -1.173,-0.348 -2.81,-0.57 -4.602,-0.57 -2.174,0 -4.575,0.326 -6.65,1.151 z m 43.048,-0.391 c -4.367,-1.886 -6.007,-2.942 -8.8,-2.942 -0.239,0 -0.488,0.008 -0.747,0.024 -0.153,0.009 -0.29,0.013 -0.411,0.013 -1.101,0 -0.943,-0.36 -0.104,-0.72 0.038,-0.017 0.078,-0.033 0.119,-0.049 0.285,-0.006 0.566,-0.009 0.846,-0.009 3.741,0 6.969,0.555 8.459,2.642 0.208,0.291 0.427,0.638 0.638,1.041 z" style="fill:#ed1c24;fill-rule:nonzero" id="path8-2"/>
        <path d="m 25.863,28.75 c -0.021,-0.15 -0.039,-0.301 -0.055,-0.452 -0.437,-4.328 1.999,-6.812 5.223,-8.093 -2.776,1.905 -4.812,4.657 -5.168,8.545 z" style="fill:#ed1c24;fill-rule:nonzero" id="path10-3"/>
        <path d="m 55.405,39.607 c -0.085,-0.066 -0.171,-0.132 -0.257,-0.197 2.242,-2.701 4.637,-6.424 4.318,-9.139 -0.206,-1.744 -0.261,-3.327 -0.178,-4.599 0.923,0.131 1.822,0.203 2.681,0.203 1.137,0 2.204,-0.127 3.164,-0.415 0.099,-0.03 0.197,-0.057 0.293,-0.082 1.173,0.825 2.191,1.911 2.551,3.576 0.015,0.069 0.031,0.139 0.048,0.21 -1.399,2.723 -5.176,6.491 -12.012,10.129 -0.202,0.108 -0.405,0.213 -0.608,0.314 z M 52.72,37.865 c -3.413,-1.812 -7.059,-2.36 -10.505,-2.36 -4.559,0 -8.766,0.958 -11.619,1.216 -0.101,0.009 -0.203,0.019 -0.304,0.028 -2.408,-2.263 -4.008,-5.048 -4.429,-7.999 0.356,-3.888 2.392,-6.64 5.168,-8.545 2.075,-0.825 4.476,-1.151 6.65,-1.151 1.792,0 3.429,0.222 4.602,0.57 -1.996,0.908 -4.36,2.035 -6.832,3.453 -7.599,4.356 -8.207,5.471 -8.207,5.471 0,0 10.437,-1.216 13.527,-2.939 2.186,-1.218 6.171,-2.689 8.281,-2.98 0.457,0.187 0.923,0.373 1.394,0.555 0.07,1.396 1.658,4.153 2.332,8.099 0.347,2.036 0.233,4.46 -0.058,6.582 z" style="fill:#ef3a42;fill-rule:nonzero" id="path12-4"/>
        <path d="m 74.36,19.935 c -4.965,-2.127 -6.485,-3.242 -9.828,-3.039 -1.538,0.093 -1.447,-0.307 -0.515,-0.707 1.094,-0.47 3.346,-0.939 5.48,-0.611 2.035,0.313 3.264,-0.288 3.368,-0.889 0.098,-0.566 -0.801,-1.131 -2.963,-0.935 -4.459,0.406 -3.781,-1.704 -8.847,-2.616 -5.066,-0.912 -9.088,-0.015 -14.895,1.032 -4.64,0.837 -4.224,1.99 -8.175,1.382 -3.952,-0.608 7.599,1.722 9.626,2.634 2.025,0.912 -4.56,2.533 -12.16,6.891 -7.599,4.356 -8.207,5.471 -8.207,5.471 0,0 10.437,-1.216 13.527,-2.939 3.091,-1.722 9.778,-3.951 9.677,-2.634 -0.102,1.318 1.62,4.154 2.33,8.308 0.709,4.155 -0.507,9.931 -1.216,11.45 -0.71,1.52 8.511,-7.295 7.904,-12.462 -0.609,-5.168 0.1,-8.917 1.824,-7.397 1.723,1.52 5.877,2.33 6.687,6.08 0.81,3.748 3.85,9.22 5.978,9.929 2.128,0.709 -1.824,-5.472 -1.52,-9.018 0.304,-3.546 -3.546,-6.586 -4.357,-7.295 -0.81,-0.709 4.762,-1.317 8.512,-0.507 3.749,0.811 2.735,0 -2.23,-2.128 z" style="fill:#46562c;fill-rule:nonzero" id="path14-1"/>
        <path d="m 49.944,2.864 c 0,0 5.094,3.152 4.61,9.879 -0.253,3.515 -1.504,5.122 -1.504,5.122 h 5.406 c 0,0 2.735,-3.146 1.217,-8.922 -1.521,-5.775 2.886,-13.071 -9.729,-6.079 z" style="fill:#4f823c;fill-rule:nonzero" id="path16-3"/>
        <path d="m 31.888,25.19 c -1.686,1.704 -3.71,3.241 -3.71,3.241 0,0 9.42,-4.912 15.094,-5.808 5.675,-0.897 10.353,-5.809 10.353,-5.809 0,0 -5.388,1.163 -9.744,3.19 -4.357,2.026 -10.308,3.482 -11.993,5.186 z" style="fill:#4f823c;fill-rule:nonzero" id="path18-5"/>
        <path d="m 44.995,12.171 c -5.168,0.943 -9.118,0.841 -9.118,0.841 0,0 5.876,1.621 10.841,1.621 4.965,0 5.878,-2.462 5.878,-2.462 0,0 -2.433,-0.943 -7.601,0 z" style="fill:#4f823c;fill-rule:nonzero" id="path20-8"/>
        <path d="m 52.795,40.587 c -0.087,0.128 -0.139,0.199 -0.139,0.199 0,0 0.055,-0.04 0.139,-0.199 z" style="fill:#4f823c;fill-rule:nonzero" id="path22-3"/>
        <path d="m 56.445,28.431 c -0.304,-6.806 -5.067,-9.168 -4.762,-5.808 0,0 2.06,5.588 1.942,11.566 -0.089,4.457 -0.583,5.935 -0.83,6.399 0.709,-1.04 3.921,-6.099 3.65,-12.157 z" style="fill:#4f823c;fill-rule:nonzero" id="path24-6"/>
        <path d="M 57.027,1.562 C 54.499,0.648 53.38,1.334 52.012,3.006 c 0,0 3.876,4.574 3.648,9.165 -0.229,4.59 2.811,3.45 2.66,-2.25 -0.153,-5.699 1.236,-7.444 -1.293,-8.359 z" style="fill:#93c14c;fill-rule:nonzero" id="path26-3"/>
        <path d="m 101.987,29.428 c -7.075,-0.64 -22.489,-5.591 -30.913,10.47 -8.425,16.061 7.073,35.279 26.464,38.505 19.39,3.226 34.678,-8.406 35.04,-27.863 0.36,-19.456 -15.585,-19.755 -30.591,-21.112 z" style="fill:#ed1c24;fill-rule:nonzero" id="path28-5"/>
        <path d="m 129.007,37.727 c 0.563,2.057 0.856,4.436 0.803,7.217 -0.359,19.457 -15.648,31.089 -35.039,27.863 -10.37,-1.725 -19.626,-8.026 -24.706,-15.97 3.724,10.464 14.763,19.451 27.473,21.566 19.39,3.226 34.678,-8.406 35.04,-27.863 0.106,-5.796 -1.241,-9.883 -3.571,-12.813 z" style="fill:#cf2229;fill-rule:nonzero" id="path30-7"/>
        <path d="m 98.597,67.073 c -12.423,0 -24.494,-10.943 -24.424,-22.345 0.009,-1.395 0.173,-2.651 0.47,-3.782 -0.195,8.219 8.668,16.669 20.136,16.67 2.522,0 5.169,-0.408 7.874,-1.318 14.503,-4.875 17.31,-12.206 12.111,-12.206 -0.262,0 -0.544,0.019 -0.845,0.057 -0.374,0.048 -0.758,0.07 -1.152,0.07 -6.252,0 -14.912,-5.733 -19.54,-9.059 -1.484,-1.066 -5.102,-2.124 -8.755,-2.124 -1.128,0 -2.259,0.101 -3.332,0.333 2.899,-1.352 6.333,-1.841 9.546,-1.841 3.584,0 6.896,0.608 8.886,1.302 6.214,2.169 20.866,0.424 23.64,6.086 1.534,3.131 3.202,11.626 -11.953,23.691 -3.928,3.127 -8.316,4.466 -12.662,4.466 z" style="fill:#ef454d;fill-rule:nonzero" id="path32-1"/>
        <path d="m 74.643,40.946 c 0.004,-0.151 0.01,-0.301 0.02,-0.451 0.279,-4.341 3.087,-6.391 6.477,-7.126 -3.05,1.423 -5.508,3.803 -6.497,7.577 z" style="fill:#ef454d;fill-rule:nonzero" id="path34-8"/>
        <path d="M 94.779,57.616 C 83.311,57.615 74.448,49.165 74.643,40.946 c 0.989,-3.774 3.447,-6.154 6.497,-7.577 1.073,-0.232 2.204,-0.333 3.332,-0.333 3.653,0 7.271,1.058 8.755,2.124 4.628,3.326 13.288,9.059 19.54,9.059 0.394,0 0.778,-0.022 1.152,-0.07 0.301,-0.038 0.583,-0.057 0.845,-0.057 5.199,0 2.392,7.331 -12.111,12.206 -2.705,0.91 -5.352,1.318 -7.874,1.318 z" style="fill:#f16063;fill-rule:nonzero" id="path36-3"/>
        <path d="m 123.929,40.213 c -4.549,-2.913 -5.866,-4.262 -9.197,-4.611 -3.333,-0.348 1.316,-1.733 5.114,-0.485 3.797,1.249 5.163,-1.401 0.699,-1.732 -4.465,-0.333 -3.45,-2.303 -8.297,-4.033 -4.849,-1.731 -8.964,-1.506 -14.863,-1.426 -4.714,0.064 -4.494,1.269 -8.291,0.021 -3.8,-1.248 7.211,2.947 9.063,4.179 1.849,1.232 -4.914,1.75 -13.127,4.801 -8.21,3.051 -8.994,4.051 -8.994,4.051 0,0 10.496,0.512 13.827,-0.68 3.331,-1.191 10.294,-2.293 9.979,-1.01 -0.317,1.283 0.916,4.363 0.934,8.578 0.018,4.215 -2.129,9.713 -3.078,11.096 -0.949,1.382 9.593,-5.8 9.841,-10.998 0.249,-5.197 1.563,-8.779 3.014,-6.997 1.449,1.782 5.414,3.263 5.598,7.095 0.185,3.831 2.285,9.727 4.268,10.776 1.983,1.049 -0.902,-5.698 -0.018,-9.146 0.881,-3.448 -2.419,-7.078 -3.102,-7.911 -0.683,-0.832 4.914,-0.518 8.479,0.897 3.566,1.415 2.698,0.45 -1.849,-2.465 z" style="fill:#46562c;fill-rule:nonzero" id="path38-1"/>
        <path d="m 102.645,19.367 c 0,0 4.507,3.945 2.925,10.502 -0.826,3.426 -2.324,4.805 -2.324,4.805 l 5.333,0.887 c 0,0 3.215,-2.654 2.664,-8.601 -0.553,-5.947 4.993,-12.42 -8.598,-7.593 z" style="fill:#4f823c;fill-rule:nonzero" id="path40-0"/>
        <path d="m 81.169,38.427 c -1.943,1.404 -4.192,2.588 -4.192,2.588 0,0 10.1,-3.3 15.844,-3.253 5.744,0.047 11.164,-4.03 11.164,-4.03 0,0 -5.506,0.263 -10.135,1.547 -4.63,1.284 -10.739,1.744 -12.681,3.148 z" style="fill:#4f823c;fill-rule:nonzero" id="path42-3"/>
        <path d="m 96.235,27.735 c -5.252,0.082 -9.133,-0.666 -9.133,-0.666 0,0 5.531,2.563 10.428,3.378 4.899,0.814 6.202,-1.465 6.202,-1.465 0,0 -2.245,-1.329 -7.497,-1.247 z" style="fill:#4f823c;fill-rule:nonzero" id="path44-7"/>
        <path d="m 99.266,57.046 c -0.107,0.113 -0.17,0.174 -0.17,0.174 0,0 0.061,-0.031 0.17,-0.174 z" style="fill:#4f823c;fill-rule:nonzero" id="path46-1"/>
        <path d="m 104.861,45.654 c 0.818,-6.764 -3.493,-9.875 -3.743,-6.511 0,0 1.114,5.851 0.017,11.729 -0.819,4.381 -1.549,5.758 -1.869,6.174 0.87,-0.908 4.869,-5.371 5.595,-11.392 z" style="fill:#4f823c;fill-rule:nonzero" id="path48-2"/>
        <path d="m 109.846,19.245 c -2.345,-1.317 -3.561,-0.824 -5.185,0.601 0,0 3.072,5.148 2.094,9.639 -0.978,4.492 2.207,3.866 2.994,-1.782 0.784,-5.647 2.441,-7.141 0.097,-8.458 z" style="fill:#93c14c;fill-rule:nonzero" id="path50-7"/>
        <path d="m 30.596,36.721 c 7.076,-0.64 22.49,-5.59 30.914,10.471 8.424,16.06 -7.073,35.279 -26.464,38.504 C 15.655,88.923 0.367,77.291 0.006,57.834 -0.355,38.377 15.591,38.079 30.596,36.721 Z" style="fill:#ed1c24;fill-rule:nonzero" id="path52-2"/>
        <path d="M 3.578,45.02 C 3.013,47.078 2.721,49.456 2.773,52.238 3.133,71.694 18.422,83.326 37.812,80.101 48.182,78.375 57.438,72.075 62.518,64.13 58.795,74.595 47.756,83.582 35.046,85.696 15.655,88.923 0.367,77.291 0.006,57.834 -0.101,52.038 1.247,47.951 3.578,45.02 Z" style="fill:#cf2229;fill-rule:nonzero" id="path54-5"/>
        <path d="M 33.987,74.366 C 29.64,74.366 25.253,73.028 21.325,69.9 6.17,57.836 7.838,49.34 9.372,46.209 c 2.773,-5.662 17.427,-3.917 23.639,-6.085 1.99,-0.694 5.303,-1.302 8.887,-1.302 3.213,0 6.646,0.488 9.545,1.841 -1.072,-0.233 -2.204,-0.334 -3.331,-0.334 -3.653,0 -7.271,1.059 -8.755,2.125 -4.628,3.326 -13.288,9.059 -19.541,9.059 -0.394,0 -0.778,-0.023 -1.151,-0.07 -0.302,-0.038 -0.584,-0.057 -0.846,-0.057 -5.197,0 -2.39,7.331 12.111,12.206 2.706,0.909 5.352,1.318 7.874,1.318 11.468,0 20.332,-8.451 20.137,-16.67 0.296,1.131 0.46,2.388 0.469,3.781 0.071,11.402 -12.001,22.345 -24.423,22.345 z" style="fill:#ef454d;fill-rule:nonzero" id="path56-0"/>
        <path d="m 57.941,48.24 c -0.989,-3.775 -3.447,-6.154 -6.498,-7.577 3.391,0.734 6.199,2.784 6.478,7.126 0.009,0.15 0.016,0.3 0.02,0.451 z" style="fill:#ef454d;fill-rule:nonzero" id="path58-6"/>
        <path d="m 37.804,64.91 c -2.522,0 -5.168,-0.409 -7.874,-1.318 C 15.429,58.717 12.622,51.386 17.819,51.386 c 0.262,0 0.544,0.019 0.846,0.057 0.373,0.047 0.757,0.07 1.151,0.07 6.253,0 14.913,-5.733 19.541,-9.059 1.484,-1.066 5.102,-2.125 8.755,-2.125 1.127,0 2.259,0.101 3.331,0.334 3.051,1.423 5.509,3.802 6.498,7.577 0.195,8.219 -8.669,16.67 -20.137,16.67 z" style="fill:#f16063;fill-rule:nonzero" id="path60-6"/>
        <path d="m 8.656,47.507 c 4.548,-2.913 5.864,-4.263 9.195,-4.611 3.333,-0.349 -1.315,-1.734 -5.113,-0.485 -3.798,1.248 -5.163,-1.401 -0.699,-1.733 4.465,-0.332 3.45,-2.302 8.297,-4.032 4.848,-1.731 8.964,-1.506 14.863,-1.426 4.714,0.064 4.493,1.269 8.291,0.021 3.8,-1.248 -7.212,2.946 -9.062,4.179 -1.85,1.231 4.913,1.75 13.126,4.801 8.209,3.051 8.994,4.05 8.994,4.05 0,0 -10.496,0.513 -13.827,-0.679 -3.332,-1.192 -10.294,-2.293 -9.979,-1.011 0.317,1.283 -0.916,4.364 -0.935,8.578 -0.017,4.216 2.129,9.713 3.079,11.096 0.949,1.383 -9.593,-5.8 -9.841,-10.997 -0.248,-5.197 -1.564,-8.779 -3.014,-6.997 -1.449,1.782 -5.414,3.263 -5.599,7.095 -0.183,3.83 -2.285,9.727 -4.267,10.775 -1.984,1.049 0.901,-5.697 0.018,-9.145 -0.881,-3.448 2.418,-7.079 3.102,-7.911 0.683,-0.833 -4.914,-0.518 -8.48,0.897 -3.565,1.414 -2.698,0.449 1.851,-2.465 z" style="fill:#46562c;fill-rule:nonzero" id="path62-5"/>
        <path d="m 29.938,26.66 c 0,0 -4.507,3.946 -2.925,10.502 0.827,3.426 2.325,4.806 2.325,4.806 l -5.333,0.887 c 0,0 -3.215,-2.655 -2.664,-8.601 0.552,-5.947 -4.994,-12.421 8.597,-7.594 z" style="fill:#4f823c;fill-rule:nonzero" id="path64-4"/>
        <path d="m 51.415,45.72 c 1.942,1.405 4.192,2.589 4.192,2.589 0,0 -10.099,-3.3 -15.844,-3.253 -5.744,0.047 -11.165,-4.031 -11.165,-4.031 0,0 5.506,0.264 10.135,1.547 4.631,1.285 10.739,1.745 12.682,3.148 z" style="fill:#4f823c;fill-rule:nonzero" id="path66-7"/>
        <path d="m 36.348,35.028 c 5.253,0.083 9.133,-0.666 9.133,-0.666 0,0 -5.53,2.564 -10.427,3.378 -4.899,0.815 -6.203,-1.465 -6.203,-1.465 0,0 2.245,-1.328 7.497,-1.247 z" style="fill:#4f823c;fill-rule:nonzero" id="path68-8"/>
        <path d="m 33.317,64.34 c 0.108,0.112 0.17,0.173 0.17,0.173 0,0 -0.06,-0.03 -0.17,-0.173 z" style="fill:#4f823c;fill-rule:nonzero" id="path70-4"/>
        <path d="m 27.722,52.947 c -0.817,-6.763 3.494,-9.875 3.745,-6.51 0,0 -1.116,5.85 -0.018,11.728 0.818,4.381 1.549,5.758 1.868,6.175 -0.869,-0.909 -4.868,-5.372 -5.595,-11.393 z" style="fill:#4f823c;fill-rule:nonzero" id="path72-1"/>
        <path d="m 22.739,26.539 c 2.344,-1.317 3.56,-0.824 5.184,0.601 0,0 -3.073,5.148 -2.094,9.639 0.977,4.491 -2.207,3.865 -2.994,-1.782 -0.784,-5.647 -2.442,-7.142 -0.096,-8.458 z" style="fill:#93c14c;fill-rule:nonzero" id="path74-6"/>
    </g>
</svg>
