<?xml version="1.0" encoding="UTF-8" standalone="no"?>
<svg xmlns="http://www.w3.org/2000/svg" width="100%" height="100%" viewBox="0 0 356 330" version="1.1" style="clip-rule:evenodd;fill-rule:evenodd;stroke-linejoin:round;stroke-miterlimit:2" id="svg311">
    <g style="clip-rule:evenodd;fill-rule:evenodd;stroke-linejoin:round;stroke-miterlimit:2" id="_1" transform="translate(34.887,149.43842)">
        <path d="m 181.132,38.825 -0.359,-1.078 c 0.244,0.141 0.465,0.275 0.664,0.403 -0.197,0.42 -0.305,0.675 -0.305,0.675 z m -6.439,-1.383 c 0,0 -0.567,-1.283 -1.185,-2.905 0.568,0.203 1.099,0.402 1.602,0.597 z m -7.68,-0.049 c -0.412,1.148 -1.38,-2.197 -2.016,-5.729 1.324,0.479 2.659,0.943 3.984,1.369 -0.89,1.743 -1.694,3.593 -1.968,4.36 z m -6.153,-6.675 c -0.362,1.158 -1.301,0.06 -2.287,-1.565 0.806,0.338 1.632,0.676 2.476,1.012 -0.071,0.195 -0.137,0.382 -0.189,0.553 z m 26.839,-0.504 c -1.631,1.096 -2.985,2.644 -4.034,4.129 0.522,-4.793 1.768,-11.505 4.736,-14.37 4.859,-4.693 -3.78,-3.133 -7.967,-0.324 -4.183,2.807 -6.566,8.61 -6.566,8.61 l -4.339,-13.026 -2.1,11.644 c 0,0 -2.138,-4.837 -2.642,-7.6 -0.505,-2.763 -4.367,5.67 -5.039,7.553 -0.675,1.882 -2.85,-8.307 -2.59,-11.6 0.258,-3.293 -2.773,2.394 -3.565,4.923 -0.787,2.529 -4.325,-5.678 -5.142,-6.715 -0.815,-1.037 -0.142,8.211 -1.633,9.057 -0.835,0.473 2.866,2.679 8.343,5.169 -0.118,2.329 -0.314,4.962 -1.077,5.395 -1.488,0.846 11.411,7.179 23.122,10.846 11.71,3.671 13.353,6.326 13.353,6.326 0,0 0.25,-15.004 5.108,-19.694 4.857,-4.691 -3.783,-3.132 -7.968,-0.323 z" style="fill:#8fa73d;fill-rule:nonzero" id="path2"/>
        <path d="m 279.154,96.986 c -6.858,-4.458 -15.431,-5.485 -19.545,-12 -4.116,-6.516 -10.631,-14.402 -26.403,-20.917 -15.774,-6.515 -20.231,-5.487 -27.089,-8.917 -6.857,-3.427 -28.8,-19.543 -43.204,-23.658 -9.611,-2.746 -13.029,-11.314 -22.63,-4.458 -9.598,6.858 -20.229,12.346 -30.516,10.972 -10.284,-1.37 -17.831,2.058 -21.945,7.202 -4.116,5.143 -6.172,5.829 -12.688,5.143 -6.514,-0.686 -7.885,1.715 -14.398,5.486 -6.515,3.772 -9.945,0.687 -17.146,3.429 -7.202,2.743 -11.999,5.485 -13.373,11.316 -1.372,5.828 -1.028,2.742 -10.287,6.172 -9.257,3.428 -13.715,4.457 -14.743,9.257 -1.029,4.8 -3.824,11.434 -4.854,12.462 -1.029,1.03 0.355,5.333 3.785,7.732 3.428,2.402 20.498,1.751 21.07,4.494 0.571,2.742 10.516,2.968 13.603,5.6 3.084,2.631 3.771,6.059 8.914,7.772 5.143,1.716 12.345,0.687 17.831,7.888 5.485,7.199 29.83,20.915 38.745,29.486 8.915,8.574 28.802,22.118 37.375,18.518 8.571,-3.601 26.589,-12.345 36.953,-12.002 10.366,0.342 16.879,-2.742 21.681,-8.915 4.799,-6.172 17.83,-20.915 27.773,-20.572 9.944,0.343 24.002,-2.744 28.117,-8.917 4.113,-6.17 8.23,-5.141 15.086,-9.257 6.858,-4.115 15.772,-10.973 17.145,-13.373 1.373,-2.399 -2.4,-5.485 -9.257,-9.943 z" style="fill:#758035;fill-rule:nonzero" id="path4"/>
        <path d="m 281.519,96.665 c -6.58,-4.277 -21.553,-4.721 -25.502,-10.975 -3.948,-6.251 -10.201,-13.819 -25.339,-20.072 -15.136,-6.252 -19.415,-5.266 -25.996,-8.556 -6.58,-3.292 -27.64,-18.757 -41.461,-22.706 -9.226,-2.634 -12.504,-10.859 -21.719,-4.278 -9.213,6.582 -19.414,11.848 -29.287,10.531 -9.874,-1.317 -17.11,1.975 -21.059,6.91 -3.951,4.936 -5.924,5.595 -12.176,4.936 -6.253,-0.658 -7.568,1.646 -13.818,5.265 -6.255,3.62 -9.547,0.659 -16.457,3.291 -6.909,2.633 -11.516,5.265 -12.833,10.86 -1.317,5.592 -0.986,2.632 -9.872,5.922 -8.884,3.292 -13.164,4.279 -14.15,8.884 -0.59,2.755 -3.149,1.553 -5.323,0.35 -1.463,-0.809 -2.752,-1.618 -3.15,-1.221 -0.986,0.987 -0.411,14.364 2.878,16.667 3.293,2.305 24.241,5.264 24.789,7.898 0.55,2.631 10.093,2.849 13.057,5.372 2.959,2.526 3.617,5.817 8.552,7.461 4.936,1.645 11.848,0.659 17.113,7.57 5.265,6.91 28.628,20.072 37.184,28.298 8.556,8.227 27.643,21.225 35.869,17.77 8.225,-3.455 25.515,-11.847 35.463,-11.518 9.947,0.331 16.2,-2.631 20.807,-8.556 4.606,-5.922 17.111,-20.072 26.655,-19.743 9.543,0.33 23.034,-2.632 26.982,-8.556 3.948,-5.922 7.898,-4.935 14.48,-8.883 6.581,-3.949 15.136,-10.531 16.453,-12.835 1.316,-2.303 4.444,-5.807 -2.14,-10.086 z" style="fill:#37302b;fill-rule:nonzero" id="path6"/>
        <path d="m 274.775,90.413 c -6.582,-4.277 -14.809,-5.264 -18.758,-11.517 -3.948,-6.253 -10.201,-13.822 -25.339,-20.074 -15.136,-6.251 -19.415,-5.264 -25.996,-8.554 -6.58,-3.292 -27.64,-18.757 -41.461,-22.707 -9.226,-2.635 -12.504,-10.86 -21.719,-4.277 -9.213,6.581 -19.414,11.846 -29.287,10.531 -9.874,-1.318 -17.11,1.974 -21.059,6.909 -3.951,4.937 -5.924,5.595 -12.176,4.937 -6.253,-0.659 -7.568,1.644 -13.818,5.265 -6.255,3.62 -9.547,0.657 -16.457,3.29 -6.909,2.633 -11.516,5.266 -12.833,10.858 -1.317,5.594 -0.986,2.634 -9.872,5.925 -8.884,3.29 -13.164,4.276 -14.15,8.884 -0.987,4.607 -6.909,3.618 -7.897,4.607 -0.987,0.988 -0.987,8.884 2.302,11.188 3.293,2.305 24.241,5.266 24.789,7.897 0.55,2.632 10.093,2.851 13.057,5.375 2.959,2.524 3.617,5.815 8.552,7.458 4.936,1.647 11.848,0.659 17.113,7.57 5.265,6.911 28.628,20.073 37.184,28.3 8.556,8.228 27.643,21.224 35.869,17.769 8.225,-3.455 25.515,-11.846 35.463,-11.517 9.947,0.33 16.2,-2.633 20.807,-8.556 4.606,-5.923 17.111,-20.072 26.655,-19.743 9.543,0.328 23.034,-2.633 26.982,-8.556 3.948,-5.923 7.898,-4.936 14.48,-8.885 6.581,-3.949 15.136,-10.529 16.453,-12.834 1.316,-2.304 -2.304,-5.265 -8.884,-9.543 z" style="fill:#542f29;fill-rule:nonzero" id="path8"/>
        <path d="m 168.154,166.911 c -1.49,-0.846 -0.817,-10.095 -1.634,-9.055 -0.815,1.035 -4.351,9.242 -5.142,6.712 -0.789,-2.527 -3.82,-8.215 -3.562,-4.921 0.259,3.293 -1.916,13.48 -2.591,11.597 -0.671,-1.882 -4.533,-10.314 -5.038,-7.55 -0.506,2.761 -2.643,7.599 -2.643,7.599 l -2.098,-11.644 -4.339,13.027 c 0,0 -2.384,-5.805 -6.569,-8.611 -4.184,-2.809 -12.824,-4.367 -7.965,0.324 4.858,4.69 7.28,10.709 7.28,10.709 0,0 -0.532,6.329 11.18,2.659 11.71,-3.668 24.613,-10.001 23.121,-10.846 z" style="fill:#8fa73d;fill-rule:nonzero" id="path10"/>
        <path d="m 139.867,165.681 c -7.471,0 -11.232,-7.787 -6.921,-16.364 4.799,-9.544 6.253,-7.571 23.364,-9.215 17.112,-1.645 21.391,-6.91 29.617,-17.44 6.708,-8.588 10.571,-10.828 19.976,-10.828 2.129,0 4.543,0.115 7.337,0.297 2.487,0.162 4.583,0.271 6.395,0.296 -0.24,0.919 -0.269,2.104 0.108,3.303 0.002,0.006 0.004,0.013 0.006,0.019 0.001,0.002 0.001,0.004 0.002,0.006 0.804,2.525 3.416,5.108 9.665,5.396 h 0.004 c 0.012,0 0.023,0.001 0.035,0.002 h 0.008 c 0.019,10e-4 0.04,0.002 0.059,0.002 0.004,0.001 0.01,0.001 0.014,0.001 0.01,0 0.019,10e-4 0.029,10e-4 0.008,0 0.016,0.001 0.023,0.001 0.011,0.001 0.022,0.001 0.033,0.001 0.012,10e-4 0.022,10e-4 0.033,0.002 h 0.022 c 0.011,0.001 0.021,0.001 0.032,0.001 0.005,10e-4 0.011,10e-4 0.016,10e-4 0.016,0.001 0.031,0.001 0.047,0.002 h 0.016 c 0.014,0 0.028,10e-4 0.042,10e-4 0.003,0 0.006,0 0.008,0.001 0.018,0 0.034,0.001 0.052,0.001 h 0.01 c 0.017,10e-4 0.033,10e-4 0.05,0.002 h 0.002 c 0.019,0 0.038,0 0.057,0.001 h 10e-4 c 0.018,0 0.037,10e-4 0.055,10e-4 h 0.003 c 0.175,0.004 0.352,0.005 0.531,0.005 0.486,0 0.991,-0.012 1.518,-0.039 0.02,-0.001 0.04,-0.002 0.06,-0.003 0.006,0 0.011,-0.001 0.017,-0.001 0.015,-0.001 0.031,-0.002 0.046,-0.002 0.005,-0.001 0.012,-0.001 0.017,-0.001 0.019,-0.001 0.037,-0.002 0.056,-0.003 0.007,-0.001 0.015,-0.001 0.022,-0.002 0.012,0 0.025,-0.001 0.037,-0.002 0.008,0 0.016,-10e-4 0.024,-10e-4 0.018,-0.001 0.036,-0.002 0.054,-0.003 0.006,0 0.014,-0.001 0.02,-0.001 0.013,-0.001 0.026,-0.002 0.038,-0.003 0.009,0 0.018,-0.001 0.027,-0.001 0.012,-10e-4 0.023,-0.002 0.036,-0.002 0.013,-0.001 0.026,-0.002 0.04,-0.003 0.01,0 0.019,-0.001 0.03,-0.002 0.01,0 0.021,-0.001 0.032,-0.002 0.008,0 0.019,-10e-4 0.027,-0.002 0.013,0 0.025,-0.001 0.038,-0.002 0.013,-0.001 0.027,-0.002 0.04,-0.003 0.011,0 0.02,-0.001 0.031,-0.002 0.009,0 0.017,-10e-4 0.027,-10e-4 0.009,-0.001 0.018,-0.002 0.028,-0.002 0.011,-10e-4 0.023,-0.002 0.034,-0.003 0.016,-10e-4 0.031,-0.002 0.046,-0.003 0.009,-10e-4 0.016,-10e-4 0.025,-0.002 0.011,-0.001 0.022,-0.001 0.033,-0.002 0.007,-0.001 0.013,-0.001 0.02,-0.002 0.021,-10e-4 0.04,-0.003 0.061,-0.004 0.006,-0.001 0.013,-0.001 0.019,-0.001 0.012,-0.001 0.024,-0.002 0.036,-0.003 0.005,-0.001 0.011,-0.001 0.015,-0.001 0.026,-0.002 0.052,-0.004 0.078,-0.006 0.002,0 0.003,-10e-4 0.005,-10e-4 0.013,-0.001 0.024,-0.002 0.037,-0.003 0.004,0 0.01,0 0.014,-0.001 0.04,-0.003 0.08,-0.006 0.12,-0.009 0.004,-10e-4 0.009,-10e-4 0.014,-0.002 0.013,-0.001 0.025,-0.002 0.038,-0.003 0.004,0 0.008,0 0.012,-0.001 0.026,-0.002 0.052,-0.004 0.078,-0.007 h 0.003 c 0.013,-0.001 0.026,-0.002 0.039,-0.003 0.005,-0.001 0.008,-0.001 0.013,-0.001 0.042,-0.004 0.083,-0.008 0.125,-0.012 h 0.002 c 2.565,-0.234 4.675,-0.699 6.384,-1.326 0,-10e-4 0.002,-10e-4 0.003,-10e-4 0.008,-0.004 0.016,-0.007 0.025,-0.01 0.003,-10e-4 0.007,-0.002 0.01,-0.003 0.008,-0.003 0.015,-0.006 0.023,-0.009 10e-4,0 10e-4,0 0.002,-10e-4 0.016,-0.006 0.032,-0.012 0.048,-0.018 0.006,-0.002 0.011,-0.004 0.017,-0.006 0.006,-0.002 0.012,-0.005 0.018,-0.007 0.009,-0.003 0.017,-0.006 0.027,-0.01 0.005,-0.002 0.011,-0.004 0.016,-0.006 0.009,-0.004 0.018,-0.007 0.027,-0.01 0.004,-0.002 0.007,-0.003 0.011,-0.005 0.01,-0.003 0.021,-0.008 0.03,-0.011 0.003,-0.001 0.006,-0.002 0.008,-0.003 0.012,-0.005 0.024,-0.01 0.036,-0.014 0.003,-0.001 0.006,-0.002 0.008,-0.003 0.012,-0.005 0.022,-0.009 0.034,-0.013 0.001,-0.001 0.002,-0.002 0.004,-0.002 0.027,-0.011 0.053,-0.021 0.08,-0.032 7.606,-3.032 6.682,-9.42 2.433,-12.381 -1.718,-1.198 -2.93,-1.686 -4.013,-1.686 -1.857,0 -3.338,1.434 -6.352,3.188 -0.32,0.186 -0.64,0.363 -0.956,0.529 2.079,-1.564 4.352,-3.799 7.582,-6.923 8.237,-7.972 14.972,-11.437 22.631,-11.437 1.299,0 2.626,0.1 3.99,0.294 -1.398,0.445 -2.819,1.623 -5.179,2.997 -3.201,1.865 -6.255,2.7 -8.564,2.7 -1.133,0 -2.086,-0.201 -2.789,-0.58 -0.096,-0.051 -0.194,-0.076 -0.292,-0.076 -1.016,0 -2.079,2.62 -1.153,5.24 0.398,1.126 1.165,2.253 2.461,3.171 l 0.001,0.001 c 0.007,0.005 0.014,0.01 0.021,0.015 0.002,0.001 0.005,0.003 0.008,0.005 0.005,0.004 0.01,0.007 0.015,0.011 0.007,0.005 0.012,0.008 0.019,0.013 0.002,0.001 0.004,0.003 0.007,0.005 0.005,0.003 0.01,0.007 0.016,0.011 1.167,0.804 2.753,1.442 4.869,1.769 0.003,0 0.005,10e-4 0.008,10e-4 0.01,0.001 0.019,0.003 0.029,0.004 0.002,0.001 0.005,0.001 0.007,0.001 0.016,0.003 0.032,0.005 0.048,0.008 0.005,0 0.012,0.001 0.017,0.002 0.007,0.001 0.015,0.002 0.022,0.003 0.008,0.002 0.017,0.003 0.025,0.004 0.009,0.001 0.017,0.003 0.026,0.004 0.009,10e-4 0.019,0.003 0.029,0.004 0.005,0.001 0.01,0.001 0.016,0.002 0.012,0.002 0.024,0.004 0.037,0.005 0.002,10e-4 0.003,10e-4 0.004,10e-4 0.014,0.002 0.029,0.004 0.043,0.006 0.004,0.001 0.008,0.001 0.012,0.002 0.03,0.004 0.06,0.008 0.091,0.012 h 0.004 c 0.892,0.117 1.873,0.18 2.952,0.18 0.486,0 0.991,-0.013 1.517,-0.039 0.02,-10e-4 0.041,-0.002 0.061,-0.003 0.005,-10e-4 0.01,-10e-4 0.015,-10e-4 0.018,-0.001 0.037,-0.002 0.055,-0.003 h 0.007 c 0.021,-0.002 0.043,-0.003 0.065,-0.004 h 0.002 c 0.022,-0.001 0.043,-0.002 0.065,-0.004 h 0.002 c 3.264,-0.186 5.863,-0.72 7.885,-1.485 -7.448,6.79 -16.31,9.683 -26.802,14.93 -11.847,5.923 -18.427,6.91 -30.603,13.491 -11.355,6.137 -22.684,19.302 -28.988,19.301 -0.455,0 -0.885,-0.069 -1.287,-0.214 -1.841,-0.667 -3.711,-0.958 -5.595,-0.958 -10.322,0 -20.991,8.75 -28.828,12.387 l -0.791,-4.388 -1.806,5.422 c -0.381,0.121 -0.753,0.223 -1.115,0.304 -0.929,0.208 -1.817,0.306 -2.658,0.306 z M 274.188,97.244 c -0.335,-1.797 -1.487,-3.475 -3.145,-4.631 -0.243,-0.17 -0.476,-0.325 -0.701,-0.467 3.474,1.249 4.265,3.146 3.846,5.098 z" style="fill:#6f3923;fill-rule:nonzero" id="path12"/>
        <path d="m 143.64,165.071 1.806,-5.422 0.791,4.388 c -0.905,0.42 -1.773,0.772 -2.597,1.034 z" style="fill:#a1a438;fill-rule:nonzero" id="path14"/>
        <path d="m 231.336,98.852 c -8.881,7.45 -16.452,3.737 -28.629,3.737 -12.176,0 -16.452,9.542 -23.034,16.672 -6.582,7.13 -33.564,11.956 -46.069,16.563 -12.503,4.608 -7.567,18.758 -7.238,12.834 0.328,-5.923 19.743,-17.441 36.525,-17.769 16.782,-0.33 24.022,-17.77 31.92,-21.939 7.896,-4.17 21.061,-2.412 28.629,-2.083 7.568,0.329 22.047,-18.429 22.047,-18.429 3.337,-4.046 -5.265,2.963 -14.151,10.414 z" style="fill:#37302b;fill-rule:nonzero" id="path16"/>
        <path d="m 102.026,141.978 c -7.472,0 -11.234,-7.787 -6.921,-16.364 4.797,-9.544 6.251,-7.569 23.363,-9.215 1.906,-0.183 3.652,-0.411 5.263,-0.686 0.302,0.481 0.687,0.947 1.166,1.381 10e-4,0.001 0.003,0.002 0.004,0.003 0.005,0.005 0.01,0.01 0.015,0.014 0.002,0.002 0.004,0.004 0.006,0.006 0.006,0.004 0.011,0.01 0.017,0.014 0.004,0.004 0.007,0.007 0.011,0.011 0.002,0.001 0.004,0.003 0.006,0.005 0.99,0.876 2.377,1.617 4.274,2.076 h 0.001 c 0.028,0.007 0.055,0.013 0.083,0.02 0.003,0.001 0.006,0.001 0.01,0.002 0.016,0.004 0.032,0.008 0.049,0.012 0.001,0 0.002,0 0.004,10e-4 0.007,0.001 0.014,0.003 0.021,0.005 0.006,10e-4 0.011,0.002 0.017,0.003 0.006,0.002 0.013,0.003 0.019,0.005 0.011,0.002 0.022,0.005 0.033,0.007 0.005,10e-4 0.01,0.002 0.016,0.004 0.008,0.001 0.015,0.003 0.023,0.005 0.005,10e-4 0.01,0.002 0.015,0.003 0.012,0.003 0.024,0.005 0.036,0.008 0.003,0.001 0.007,0.002 0.011,0.002 0.009,0.002 0.02,0.005 0.03,0.007 0.003,0.001 0.007,0.001 0.01,0.002 0.014,0.003 0.026,0.006 0.039,0.009 h 0.005 c 0.012,0.003 0.025,0.006 0.038,0.008 0.002,0.001 0.004,0.001 0.006,0.002 0.029,0.006 0.058,0.012 0.087,0.018 1.187,0.24 2.557,0.375 4.137,0.375 0.486,10e-4 0.992,-0.012 1.519,-0.039 0.017,-0.001 0.033,-0.002 0.05,-0.003 6.995,-0.361 10.975,-2.304 12.806,-4.701 0.002,-0.003 0.004,-0.006 0.006,-0.009 0.002,-0.002 0.003,-0.003 0.005,-0.005 2.407,-3.166 1.075,-7.118 -2.008,-9.268 -0.975,-0.68 -1.787,-1.131 -2.506,-1.393 1.366,-1.606 2.76,-3.383 4.292,-5.343 6.707,-8.586 10.569,-10.828 19.971,-10.828 2.13,0 4.545,0.115 7.341,0.297 2.846,0.186 5.181,0.302 7.163,0.302 8.559,0 10.551,-2.158 18.834,-10.175 8.236,-7.97 14.97,-11.436 22.628,-11.436 1.826,0 3.706,0.197 5.67,0.578 10.201,1.974 6.61,7.525 3.621,10.858 -7.999,8.924 -17.77,11.848 -29.617,17.771 -11.845,5.923 -18.427,6.91 -30.604,13.49 -11.353,6.139 -22.684,19.301 -28.986,19.3 -0.455,0 -0.885,-0.069 -1.286,-0.214 -1.84,-0.666 -3.71,-0.957 -5.592,-0.957 -12.066,0 -24.605,11.956 -32.545,13.726 -0.928,0.207 -1.815,0.306 -2.656,0.306 z M 215.505,84.034 c 0.012,0.002 0.024,0.004 0.036,0.006 0.471,0.081 0.977,0.12 1.506,0.12 1.233,0 2.594,-0.209 3.954,-0.571 6.601,-1.752 13.168,-7.092 4.905,-9.519 -0.771,-0.226 -1.582,-0.322 -2.43,-0.322 -3.254,0 -7.049,1.413 -11.226,2.272 -5.159,1.062 -3.685,6.597 2.879,7.942 h 0.001 c 0.009,0.002 0.018,0.004 0.027,0.006 10e-4,0 0.003,10e-4 0.004,10e-4 0.026,0.005 0.053,0.01 0.08,0.016 0.002,0 0.004,0.001 0.007,0.001 0.008,0.002 0.016,0.003 0.024,0.005 0.003,0 0.006,0.001 0.01,0.002 0.024,0.004 0.048,0.009 0.072,0.013 0.005,0.001 0.01,0.002 0.015,0.003 0.006,0.001 0.013,0.002 0.019,0.004 0.006,10e-4 0.012,0.002 0.018,0.003 0.007,10e-4 0.013,0.002 0.02,0.004 0.01,0.001 0.019,0.003 0.029,0.005 0.005,10e-4 0.009,0.002 0.014,0.002 0.008,0.002 0.015,0.003 0.023,0.004 0.004,10e-4 0.009,0.002 0.013,0.003 z" style="fill:#6f3923;fill-rule:nonzero" id="path18"/>
        <path d="m 193.494,75.147 c -8.883,7.451 -16.452,3.739 -28.628,3.739 -12.175,0 -16.452,9.543 -23.035,16.672 -6.583,7.131 -33.565,11.956 -46.069,16.563 -12.504,4.607 -7.568,18.757 -7.239,12.835 0.329,-5.924 19.743,-17.442 36.527,-17.771 16.781,-0.328 24.022,-17.769 31.918,-21.939 7.898,-4.17 21.061,-2.411 28.629,-2.083 7.568,0.329 22.046,-18.426 22.046,-18.426 3.339,-4.047 -5.263,2.961 -14.149,10.41 z" style="fill:#37302b;fill-rule:nonzero" id="path20"/>
        <path d="m 59.942,118.098 c -1.541,0 -2.924,-0.331 -4.112,-0.932 1.509,0.274 3.108,0.509 4.727,0.915 -0.208,0.011 -0.412,0.017 -0.615,0.017 z" style="fill:#5b3f25;fill-rule:nonzero" id="path22"/>
        <path d="m 60.557,118.081 c -1.619,-0.406 -3.218,-0.641 -4.727,-0.915 -4.57,-2.314 -6.237,-8.625 -2.811,-15.433 0.221,-0.44 0.434,-0.854 0.643,-1.246 0.637,2.494 2.658,4.98 5.885,5.938 h 0.001 c 0.009,0.003 0.018,0.005 0.028,0.008 10e-4,0 0.002,10e-4 0.003,10e-4 0.027,0.008 0.053,0.015 0.08,0.023 0.003,0.001 0.006,0.002 0.01,0.003 0.007,0.002 0.014,0.004 0.022,0.006 0.005,0.001 0.009,0.003 0.014,0.004 0.01,0.003 0.019,0.005 0.029,0.008 0.007,0.002 0.014,0.004 0.022,0.006 0.005,0.001 0.011,0.003 0.016,0.004 0.007,0.002 0.014,0.004 0.021,0.006 0.005,0.001 0.01,0.003 0.014,0.004 0.012,0.003 0.024,0.006 0.035,0.009 0.472,0.124 0.977,0.182 1.506,0.182 6.509,0 16.581,-8.838 11.199,-13.836 1.184,-0.093 2.459,-0.202 3.835,-0.335 17.112,-1.645 21.39,-6.911 29.616,-17.441 6.708,-8.584 10.571,-10.827 19.971,-10.827 2.131,0 4.546,0.115 7.343,0.298 2.846,0.186 5.18,0.301 7.162,0.301 8.559,0 10.551,-2.157 18.833,-10.173 8.238,-7.972 14.971,-11.438 22.629,-11.438 1.826,0 3.707,0.198 5.671,0.578 10.201,1.975 6.607,7.526 3.619,10.86 -8,8.921 -17.77,11.846 -29.616,17.769 -11.846,5.923 -18.429,6.91 -30.603,13.491 -11.354,6.139 -22.684,19.302 -28.987,19.3 -0.455,0 -0.885,-0.069 -1.286,-0.214 -1.841,-0.666 -3.711,-0.957 -5.594,-0.957 -12.065,0 -24.604,11.955 -32.543,13.728 -0.704,0.157 -1.385,0.251 -2.04,0.288 z" style="fill:#6f3923;fill-rule:nonzero" id="path24"/>
        <path d="m 151.411,51.266 c -8.886,7.451 -16.455,3.737 -28.631,3.737 -12.174,0 -16.452,9.545 -23.035,16.674 -6.581,7.131 -33.563,11.955 -46.067,16.564 -12.505,4.605 -7.569,18.756 -7.24,12.833 0.329,-5.923 19.744,-17.442 36.525,-17.77 16.782,-0.331 24.023,-17.769 31.92,-21.939 7.899,-4.17 21.061,-2.412 28.629,-2.083 7.569,0.329 22.046,-18.428 22.046,-18.428 3.338,-4.046 -5.264,2.962 -14.147,10.412 z" style="fill:#37302b;fill-rule:nonzero" id="path26"/>
        <path d="m 20.098,95.903 c -1.716,0 -3.267,-0.268 -4.566,-0.795 h 0.144 c 0.487,0 0.991,-0.013 1.518,-0.039 0.02,-0.001 0.04,-0.002 0.059,-0.003 0.007,-0.001 0.012,-0.001 0.019,-0.001 0.016,-0.001 0.032,-0.002 0.049,-0.003 0.003,0 0.008,0 0.012,-10e-4 0.019,-0.001 0.041,-0.002 0.061,-0.003 0.003,0 0.006,0 0.01,-0.001 0.018,0 0.035,-0.001 0.052,-0.002 0.005,-0.001 0.009,-0.001 0.013,-0.001 0.021,-0.001 0.041,-0.003 0.061,-0.004 h 0.007 c 0.018,-10e-4 0.037,-0.002 0.056,-0.003 0.004,-10e-4 0.008,-10e-4 0.012,-10e-4 0.041,-0.003 0.081,-0.005 0.122,-0.008 0.004,0 0.008,0 0.012,-10e-4 0.019,-0.001 0.04,-0.002 0.059,-0.003 h 0.001 c 0.022,-0.002 0.044,-0.003 0.065,-0.005 h 0.004 c 0.021,-10e-4 0.041,-0.003 0.063,-0.004 h 10e-4 c 0.022,-0.002 0.043,-0.003 0.065,-0.005 h 0.001 c 0.02,-10e-4 0.041,-0.003 0.061,-0.004 0.003,0 0.005,-0.001 0.008,-0.001 0.042,-0.003 0.082,-0.006 0.124,-0.009 h 0.007 c 0.02,-0.002 0.041,-0.004 0.061,-0.005 0.043,-0.003 0.086,-0.007 0.128,-0.01 h 0.003 c 0.043,-0.004 0.085,-0.007 0.128,-0.011 14.959,-1.254 14.812,-10.219 9.534,-13.898 -1.717,-1.196 -2.928,-1.684 -4.012,-1.684 -1.857,0 -3.338,1.433 -6.352,3.186 -1.811,1.054 -3.576,1.779 -5.185,2.21 0.156,-0.366 0.33,-0.742 0.523,-1.126 4.799,-9.543 16.042,1.014 25.184,-13.543 3.243,-5.163 5.551,-6.119 7.693,-6.119 0.631,0 1.247,0.083 1.869,0.166 0.622,0.083 1.248,0.166 1.9,0.166 1.962,0 4.15,-0.753 7.097,-4.525 8.225,-10.53 27.841,-8.887 38.371,-17.658 11.654,-9.709 31.719,-0.279 41.921,-10.151 6.462,-6.253 7.707,-8.083 10.345,-8.083 1.526,0 3.519,0.613 7.257,1.336 2.72,0.527 4.714,1.85 5.903,3.639 -0.05,-0.016 -0.101,-0.031 -0.151,-0.046 -0.772,-0.226 -1.583,-0.322 -2.431,-0.322 -3.253,0 -7.049,1.413 -11.226,2.273 -4.035,0.83 -4.01,4.397 -0.667,6.554 1.017,0.658 2.343,1.185 3.959,1.463 0.472,0.081 0.978,0.12 1.507,0.12 1.38,0 2.92,-0.262 4.438,-0.706 2.039,-0.595 4.038,-1.518 5.563,-2.576 -1,4.09 -4.59,8.521 -11.172,11.649 -2.827,1.345 -5.207,1.77 -7.393,1.77 -1.88,0 -3.616,-0.315 -5.368,-0.629 -1.752,-0.315 -3.52,-0.629 -5.464,-0.629 -2.502,0 -5.296,0.521 -8.723,2.235 -11.846,5.923 -17.689,4.987 -26.36,16.009 -7.596,9.66 -24.221,16.924 -32.019,16.924 -0.985,0 -1.83,-0.116 -2.497,-0.357 -1.84,-0.666 -3.71,-0.957 -5.593,-0.957 -12.066,0 -24.604,11.957 -32.546,13.727 -1.515,0.338 -2.971,0.505 -4.325,0.505 z" style="fill:#5b3127;fill-rule:nonzero" id="path28"/>
        <path d="m 70.206,91.37 c -3.73,-1.666 -8.39,1.316 -13.656,2.962 -5.265,1.645 -3.619,10.366 3.292,12.175 6.91,1.81 21.059,-10.367 10.364,-15.137 z" style="fill:#963c22;fill-rule:nonzero" id="path30"/>
        <path d="m 59.842,102.429 c -3.198,-0.838 -5.251,-3.155 -6.033,-5.568 -1.275,3.241 0.944,8.314 6.033,9.646 5.765,1.507 16.554,-6.71 13.772,-12.247 -1.902,4.715 -9.328,9.333 -13.772,8.169 z" style="fill:#37302b;fill-rule:nonzero" id="path32"/>
        <path d="m 59.317,101.092 c -0.154,0 -0.305,-0.005 -0.451,-0.016 -4.394,-0.313 -4.376,-4.967 -1.285,-4.967 0.144,0 0.294,0.01 0.452,0.031 0.141,0.019 0.279,0.029 0.412,0.029 1.314,0 2.236,-0.884 3.129,-1.768 0.893,-0.883 1.757,-1.766 2.954,-1.766 0.508,0 1.076,0.159 1.731,0.545 5.416,3.186 -2.275,7.912 -6.942,7.912 z" style="fill:#b15929;fill-rule:nonzero" id="path34"/>
        <path d="m 225.906,74.07 c -3.733,-1.096 -8.391,0.867 -13.656,1.95 -5.265,1.084 -3.621,6.826 3.291,8.02 6.91,1.191 21.06,-6.828 10.365,-9.97 z" style="fill:#963c22;fill-rule:nonzero" id="path36"/>
        <path d="m 215.541,81.354 c -3.2,-0.552 -5.253,-2.079 -6.033,-3.668 -1.277,2.135 0.946,5.475 6.033,6.354 5.763,0.995 16.553,-4.42 13.77,-8.066 -1.9,3.104 -9.327,6.146 -13.77,5.38 z" style="fill:#37302b;fill-rule:nonzero" id="path38"/>
        <path d="m 215.017,80.472 c -0.154,0 -0.306,-0.003 -0.453,-0.01 -4.393,-0.206 -4.376,-3.271 -1.286,-3.271 0.144,0 0.295,0.007 0.453,0.021 0.141,0.012 0.278,0.018 0.411,0.018 1.315,0 2.237,-0.582 3.13,-1.164 0.893,-0.581 1.756,-1.163 2.953,-1.163 0.507,0 1.075,0.105 1.73,0.359 5.417,2.098 -2.271,5.211 -6.938,5.21 z" style="fill:#b15929;fill-rule:nonzero" id="path40"/>
        <path d="m 160.415,28.85 c -3.732,-1.096 -8.391,0.866 -13.657,1.951 -5.264,1.083 -3.618,6.825 3.292,8.017 6.909,1.191 21.06,-6.826 10.365,-9.968 z" style="fill:#963c22;fill-rule:nonzero" id="path42"/>
        <path d="m 150.05,36.134 c -3.2,-0.552 -5.254,-2.081 -6.033,-3.667 -1.274,2.133 0.943,5.474 6.033,6.351 5.765,0.995 16.552,-4.419 13.771,-8.066 -1.902,3.107 -9.328,6.148 -13.771,5.382 z" style="fill:#37302b;fill-rule:nonzero" id="path44"/>
        <path d="m 149.528,35.251 c -0.155,0 -0.307,-0.003 -0.454,-0.01 -4.394,-0.204 -4.377,-3.27 -1.289,-3.27 0.144,0 0.295,0.007 0.453,0.021 0.142,0.012 0.279,0.018 0.413,0.018 1.314,0 2.237,-0.582 3.13,-1.163 0.892,-0.582 1.755,-1.164 2.952,-1.164 0.508,0 1.076,0.105 1.732,0.36 5.415,2.095 -2.271,5.209 -6.937,5.208 z" style="fill:#b15929;fill-rule:nonzero" id="path46"/>
        <path d="m 242.974,107.153 c -4.663,-3.25 -5.594,-1.275 -10.365,1.502 -4.772,2.775 -9.213,3.27 -11.353,2.117 -1.082,-0.583 -2.46,2.291 -1.444,5.164 0.991,2.804 4.26,5.608 12.304,5.202 16.288,-0.821 16.288,-10.202 10.858,-13.985 z" style="fill:#963c22;fill-rule:nonzero" id="path48"/>
        <path d="m 232.116,118.341 c -8.668,0.438 -11.792,-2.85 -12.495,-5.851 -0.778,3.137 0.884,9.234 12.495,8.648 11.623,-0.586 14.95,-5.53 13.927,-9.689 -0.84,3.321 -4.857,6.436 -13.927,6.892 z" style="fill:#37302b;fill-rule:nonzero" id="path50"/>
        <path d="m 230.435,114.711 c -4.591,0 -3.873,-2.295 0.363,-3.115 3.715,-0.72 4.987,-2.574 6.358,-2.574 0.511,0 1.036,0.258 1.706,0.929 0,0 3.29,3.126 -4.939,4.441 -1.393,0.223 -2.551,0.319 -3.488,0.319 z" style="fill:#b15929;fill-rule:nonzero" id="path52"/>
        <path d="m 146.298,105.696 c -4.662,-3.248 -5.593,-1.273 -10.365,1.503 -4.772,2.776 -9.214,3.27 -11.354,2.117 -1.082,-0.582 -2.459,2.291 -1.444,5.165 0.991,2.804 4.259,5.608 12.304,5.201 16.287,-0.824 16.287,-10.2 10.859,-13.986 z" style="fill:#963c22;fill-rule:nonzero" id="path54"/>
        <path d="m 135.439,116.885 c -8.666,0.438 -11.791,-2.85 -12.492,-5.851 -0.78,3.135 0.881,9.234 12.492,8.648 11.624,-0.586 14.949,-5.529 13.93,-9.691 -0.843,3.323 -4.858,6.437 -13.93,6.894 z" style="fill:#37302b;fill-rule:nonzero" id="path56"/>
        <path d="m 133.758,113.254 c -4.588,0 -3.871,-2.294 0.365,-3.115 3.716,-0.719 4.986,-2.573 6.356,-2.573 0.51,0 1.035,0.258 1.705,0.928 0,0 3.291,3.126 -4.935,4.441 -1.396,0.224 -2.554,0.319 -3.491,0.319 z" style="fill:#b15929;fill-rule:nonzero" id="path58"/>
        <path d="m 271.043,92.613 c -4.663,-3.249 -5.595,-1.275 -10.366,1.502 -4.771,2.779 -9.215,3.271 -11.353,2.12 -1.084,-0.584 -2.461,2.29 -1.445,5.164 0.991,2.803 4.261,5.607 12.304,5.201 16.288,-0.823 16.288,-10.201 10.86,-13.987 z" style="fill:#963c22;fill-rule:nonzero" id="path60"/>
        <path d="m 260.183,103.803 c -8.667,0.437 -11.79,-2.851 -12.494,-5.851 -0.776,3.136 0.884,9.233 12.494,8.648 11.623,-0.588 14.949,-5.531 13.93,-9.691 -0.843,3.321 -4.859,6.436 -13.93,6.894 z" style="fill:#37302b;fill-rule:nonzero" id="path62"/>
        <path d="m 258.505,100.173 c -4.593,0 -3.875,-2.296 0.363,-3.116 3.715,-0.719 4.985,-2.574 6.355,-2.574 0.511,0 1.036,0.258 1.706,0.928 0,0 3.289,3.127 -4.936,4.443 -1.394,0.223 -2.552,0.319 -3.488,0.319 z" style="fill:#b15929;fill-rule:nonzero" id="path64"/>
        <path d="M 28.052,81.082 C 23.391,77.834 22.459,79.808 17.688,82.584 12.917,85.36 8.474,85.855 6.335,84.701 5.252,84.119 3.874,86.992 4.89,89.867 5.881,92.67 9.15,95.474 17.194,95.069 33.482,94.245 33.482,84.867 28.052,81.082 Z" style="fill:#963c22;fill-rule:nonzero" id="path66"/>
        <path d="M 17.194,92.271 C 8.529,92.709 5.404,89.42 4.702,86.421 c -0.78,3.134 0.884,9.234 12.492,8.648 11.623,-0.588 14.95,-5.532 13.929,-9.691 -0.842,3.323 -4.856,6.435 -13.929,6.893 z" style="fill:#37302b;fill-rule:nonzero" id="path68"/>
        <path d="m 15.518,88.641 c -4.592,0 -3.876,-2.295 0.359,-3.117 3.716,-0.719 4.987,-2.572 6.357,-2.572 0.511,0 1.036,0.258 1.707,0.928 0,0 3.29,3.125 -4.937,4.443 -1.393,0.223 -2.549,0.318 -3.486,0.318 z" style="fill:#b15929;fill-rule:nonzero" id="path70"/>
        <path d="m 127.188,163.193 c -1.206,-0.384 2.193,2.302 4.883,4.881 2.688,2.576 3.618,7.129 3.618,7.129 1.536,2.852 2.359,1.536 1.099,-3.126 -1.265,-4.663 -8.392,-8.502 -9.6,-8.884 z" style="fill:#91c961;fill-rule:nonzero" id="path72"/>
        <path d="m 141.777,174.435 c 0,0 4.058,-5.537 3.291,-12.888 z" style="fill:#91c961;fill-rule:nonzero" id="path74"/>
        <path d="m 147.373,172.68 c -1.429,2.357 3.946,1.755 3.344,-8.664 0,0 -1.92,6.305 -3.344,8.664 z" style="fill:#91c961;fill-rule:nonzero" id="path76"/>
        <path d="m 135.43,133.167 c 0,0 14.674,-14.232 17.352,-18.84 2.678,-4.606 -5.386,-0.522 -6.948,0.94 -1.56,1.464 0.437,-4.012 2.422,-7.837 1.988,-3.822 -2.727,1.023 -7.201,7.905 -4.475,6.882 -5.661,2.398 -1.039,-3.923 4.622,-6.32 10.613,-15.403 8.92,-13.306 -1.694,2.098 -6.864,6.914 -5.012,3.727 1.856,-3.192 9.485,-10.608 6.757,-9.586 -2.727,1.019 -11.609,9.37 -13.053,11.85 -1.44,2.481 1.735,-4.206 2.32,-7.66 0.587,-3.452 -2.075,2.351 -3.088,5.318 -1.015,2.967 1.993,-8.325 0.82,-11.611 -1.17,-3.291 -1.64,-1.666 -2.006,-0.221 -0.366,1.446 -1.144,-4.962 -2.02,-7.944 -0.873,-2.983 -2.989,-5.87 -2.777,-3.377 0.212,2.491 3.025,10.291 2.601,12.654 -0.424,2.361 -3.469,-1.781 -4.977,-4.079 -1.508,-2.299 -0.055,3.761 2.207,7.208 2.264,3.45 3.007,6.252 1.29,4.308 -1.712,-1.945 -7.416,-7.632 -6.571,-5.006 0.844,2.624 5.845,11.968 3.812,9.346 -2.031,-2.621 -4.494,-2.869 -3.148,0.522 1.348,3.39 8.77,13.869 6.2,10.953 -2.571,-2.918 -14.608,-18.685 -13.974,-14.998 0.633,3.688 6.547,11.867 9.474,14.989 2.925,3.123 -5.478,-1.997 -7.958,-3.439 -2.48,-1.443 4.229,7.908 7.384,9.98 3.154,2.072 4.123,8.561 6.443,11.096 2.321,2.534 1.77,1.031 1.77,1.031 z" style="fill:#438941;fill-rule:nonzero" id="path78"/>
        <path d="m 122.935,115.288 c 1.465,1.939 10.67,8.998 10.986,16.063 0.101,2.246 1.055,2.777 1.908,0.777 0.849,-1.997 -0.6,1.222 -0.02,-2.698 0.577,-3.922 -0.502,-9.915 0,-13.374 0.5,-3.459 6.035,-15.293 4.611,-13.22 -1.422,2.076 -2.573,3.974 -3.342,2.795 -0.769,-1.181 -2.231,-3.869 -2.46,-3.64 -0.231,0.231 1.457,-4.765 1.191,-7.761 -0.269,-2.998 -1.816,-2.154 -1.888,0 -0.071,2.151 -2.684,-0.615 -2.684,-0.615 0,0 2.537,3.611 2.151,7.148 -0.384,3.533 -3.305,-1.615 -4.073,-2.382 -0.77,-0.77 0.654,4.917 2.48,7.915 1.825,2.997 -5.478,-4.919 -4.786,-3.074 0.693,1.842 9.365,14.372 6.912,13.449 -2.454,-0.923 -13.061,-14.758 -10.986,-11.913 2.074,2.846 8.915,13.834 10.146,15.141 1.229,1.305 -12.989,-8.379 -10.146,-4.611 z" style="fill:#9abc3c;fill-rule:nonzero" id="path80"/>
        <path d="m 140.613,130.717 c -1.81,-0.879 -2.54,-2.086 -3.54,-1.015 -1,1.071 -1.716,2.876 -4.317,1.015 -2.6,-1.861 -2.767,-2.013 -3.517,-1.603 -0.75,0.409 -0.333,4.409 1.667,5.825 2,1.417 6.166,2.868 8.333,0.642 2.167,-2.225 1.374,-4.864 1.374,-4.864 z" style="fill:#963c22;fill-rule:nonzero" id="path82"/>
        <path d="m 214.302,95.299 c 0,0 14.674,-14.232 17.352,-18.84 2.678,-4.606 -5.386,-0.522 -6.948,0.94 -1.56,1.464 0.437,-4.012 2.422,-7.837 1.988,-3.822 -2.727,1.023 -7.201,7.905 -4.475,6.881 -5.661,2.398 -1.039,-3.923 4.622,-6.321 10.613,-15.403 8.92,-13.306 -1.694,2.098 -6.864,6.914 -5.012,3.727 1.856,-3.192 9.485,-10.608 6.757,-9.586 -2.727,1.019 -11.609,9.369 -13.053,11.85 -1.44,2.481 1.735,-4.206 2.32,-7.66 0.587,-3.452 -2.075,2.351 -3.088,5.318 -1.015,2.967 1.993,-8.325 0.82,-11.611 -1.17,-3.291 -1.64,-1.666 -2.006,-0.222 -0.366,1.447 -1.144,-4.961 -2.02,-7.943 -0.873,-2.983 -2.988,-5.87 -2.777,-3.377 0.212,2.491 3.025,10.291 2.601,12.654 -0.424,2.361 -3.469,-1.781 -4.977,-4.08 -1.508,-2.298 -0.055,3.762 2.208,7.209 2.263,3.45 3.006,6.251 1.29,4.308 -1.713,-1.945 -7.416,-7.632 -6.572,-5.006 0.844,2.624 5.845,11.968 3.812,9.346 -2.03,-2.621 -4.494,-2.869 -3.148,0.522 1.348,3.389 8.77,13.868 6.201,10.952 -2.572,-2.918 -14.609,-18.685 -13.975,-14.998 0.633,3.688 6.547,11.868 9.475,14.99 2.924,3.123 -5.479,-1.997 -7.958,-3.439 -2.481,-1.443 4.228,7.908 7.383,9.98 3.154,2.071 4.123,8.561 6.443,11.095 2.321,2.535 1.77,1.032 1.77,1.032 z" style="fill:#438941;fill-rule:nonzero" id="path84"/>
        <path d="m 201.807,77.42 c 1.465,1.939 10.67,8.998 10.986,16.063 0.101,2.246 1.055,2.777 1.908,0.777 0.849,-1.997 -0.6,1.222 -0.02,-2.698 0.577,-3.922 -0.502,-9.915 0,-13.374 0.5,-3.459 6.035,-15.294 4.611,-13.22 -1.421,2.076 -2.573,3.974 -3.342,2.795 -0.769,-1.182 -2.231,-3.87 -2.46,-3.64 -0.231,0.231 1.457,-4.765 1.191,-7.761 -0.268,-2.998 -1.816,-2.154 -1.888,0 -0.071,2.151 -2.684,-0.615 -2.684,-0.615 0,0 2.537,3.611 2.151,7.147 -0.384,3.534 -3.304,-1.614 -4.073,-2.381 -0.77,-0.771 0.654,4.916 2.48,7.915 1.825,2.997 -5.478,-4.919 -4.786,-3.074 0.693,1.842 9.366,14.371 6.912,13.449 -2.454,-0.923 -13.061,-14.758 -10.986,-11.913 2.074,2.846 8.915,13.833 10.146,15.141 1.229,1.305 -12.989,-8.379 -10.146,-4.611 z" style="fill:#9abc3c;fill-rule:nonzero" id="path86"/>
        <path d="m 219.485,92.849 c -1.81,-0.879 -2.54,-2.086 -3.54,-1.015 -1,1.071 -1.716,2.876 -4.317,1.015 -2.6,-1.861 -2.767,-2.013 -3.517,-1.604 -0.75,0.41 -0.333,4.41 1.667,5.826 2,1.417 6.166,2.868 8.333,0.642 2.167,-2.225 1.374,-4.864 1.374,-4.864 z" style="fill:#963c22;fill-rule:nonzero" id="path88"/>
        <path d="m 73.447,93.38 c 0,0 14.674,-14.232 17.351,-18.84 2.679,-4.606 -5.385,-0.522 -6.947,0.94 -1.561,1.464 0.437,-4.012 2.422,-7.837 1.987,-3.822 -2.728,1.023 -7.201,7.905 -4.476,6.881 -5.661,2.398 -1.039,-3.923 4.622,-6.321 10.613,-15.403 8.92,-13.306 -1.695,2.098 -6.865,6.914 -5.012,3.727 1.855,-3.192 9.484,-10.608 6.757,-9.586 -2.728,1.019 -11.61,9.369 -13.053,11.85 -1.44,2.481 1.734,-4.206 2.319,-7.66 0.587,-3.452 -2.075,2.351 -3.088,5.318 -1.014,2.967 1.994,-8.325 0.821,-11.611 -1.17,-3.291 -1.641,-1.666 -2.006,-0.221 -0.366,1.446 -1.145,-4.962 -2.021,-7.944 -0.873,-2.983 -2.988,-5.87 -2.776,-3.377 0.212,2.491 3.024,10.291 2.601,12.654 -0.424,2.361 -3.469,-1.781 -4.977,-4.08 -1.509,-2.298 -0.056,3.762 2.207,7.209 2.264,3.45 3.007,6.251 1.29,4.308 -1.713,-1.945 -7.416,-7.632 -6.571,-5.006 0.844,2.624 5.845,11.968 3.811,9.346 -2.03,-2.621 -4.494,-2.869 -3.147,0.522 1.348,3.39 8.769,13.869 6.2,10.953 C 67.737,71.803 55.7,56.035 56.333,59.722 c 0.633,3.688 6.547,11.868 9.475,14.99 2.925,3.123 -5.478,-1.997 -7.958,-3.439 -2.48,-1.443 4.229,7.908 7.384,9.98 3.153,2.072 4.123,8.561 6.442,11.095 2.322,2.535 1.771,1.032 1.771,1.032 z" style="fill:#438941;fill-rule:nonzero" id="path90"/>
        <path d="m 60.952,75.501 c 1.464,1.939 10.67,8.998 10.986,16.063 0.101,2.246 1.055,2.777 1.907,0.777 0.85,-1.997 -0.599,1.222 -0.019,-2.698 0.577,-3.922 -0.502,-9.915 0,-13.374 0.5,-3.459 6.035,-15.294 4.611,-13.22 -1.422,2.076 -2.573,3.974 -3.343,2.795 -0.768,-1.182 -2.23,-3.87 -2.46,-3.64 -0.23,0.231 1.457,-4.765 1.192,-7.761 -0.269,-2.998 -1.817,-2.154 -1.888,0 -0.071,2.151 -2.685,-0.615 -2.685,-0.615 0,0 2.537,3.611 2.152,7.147 -0.384,3.534 -3.305,-1.614 -4.074,-2.381 -0.769,-0.77 0.655,4.917 2.481,7.915 1.824,2.997 -5.479,-4.919 -4.786,-3.074 0.692,1.842 9.365,14.371 6.912,13.449 -2.454,-0.923 -13.062,-14.758 -10.986,-11.913 2.074,2.846 8.915,13.833 10.145,15.141 1.23,1.305 -12.988,-8.379 -10.145,-4.611 z" style="fill:#9abc3c;fill-rule:nonzero" id="path92"/>
        <path d="m 78.629,90.93 c -1.809,-0.879 -2.54,-2.086 -3.54,-1.015 -1,1.071 -1.716,2.876 -4.316,1.015 -2.601,-1.861 -2.768,-2.013 -3.518,-1.604 -0.75,0.41 -0.333,4.41 1.667,5.826 2,1.417 6.166,2.868 8.333,0.642 2.167,-2.225 1.374,-4.864 1.374,-4.864 z" style="fill:#963c22;fill-rule:nonzero" id="path94"/>
        <path d="m 152.319,55.512 c 0,0 14.674,-14.232 17.351,-18.84 2.679,-4.606 -5.385,-0.522 -6.947,0.94 -1.56,1.464 0.437,-4.012 2.422,-7.837 1.987,-3.822 -2.728,1.023 -7.201,7.904 -4.476,6.882 -5.661,2.399 -1.039,-3.922 4.622,-6.321 10.613,-15.403 8.92,-13.307 -1.695,2.099 -6.865,6.915 -5.012,3.728 1.855,-3.192 9.484,-10.608 6.757,-9.586 -2.728,1.019 -11.61,9.369 -13.053,11.85 -1.44,2.481 1.734,-4.206 2.319,-7.66 0.587,-3.452 -2.075,2.351 -3.088,5.318 -1.014,2.967 1.994,-8.325 0.821,-11.611 -1.17,-3.291 -1.641,-1.666 -2.006,-0.222 -0.366,1.447 -1.145,-4.962 -2.021,-7.943 -0.873,-2.983 -2.988,-5.87 -2.776,-3.377 0.212,2.491 3.024,10.291 2.601,12.654 -0.424,2.361 -3.469,-1.781 -4.977,-4.08 -1.509,-2.299 -0.056,3.762 2.207,7.209 2.264,3.45 3.007,6.251 1.29,4.308 -1.713,-1.945 -7.416,-7.632 -6.571,-5.006 0.844,2.624 5.845,11.968 3.811,9.346 -2.03,-2.621 -4.494,-2.869 -3.147,0.522 1.348,3.389 8.769,13.868 6.2,10.952 -2.571,-2.918 -14.608,-18.685 -13.974,-14.998 0.632,3.688 6.546,11.867 9.474,14.99 2.925,3.123 -5.478,-1.998 -7.958,-3.439 -2.48,-1.443 4.229,7.908 7.384,9.98 3.153,2.071 4.123,8.561 6.442,11.095 2.322,2.535 1.771,1.032 1.771,1.032 z" style="fill:#438941;fill-rule:nonzero" id="path96"/>
        <path d="m 139.824,37.633 c 1.465,1.939 10.67,8.998 10.986,16.063 0.101,2.246 1.055,2.777 1.907,0.777 0.85,-1.998 -0.599,1.222 -0.019,-2.698 0.577,-3.922 -0.502,-9.915 0,-13.374 0.5,-3.459 6.035,-15.294 4.611,-13.221 -1.422,2.077 -2.573,3.975 -3.343,2.796 -0.768,-1.182 -2.23,-3.87 -2.46,-3.64 -0.23,0.231 1.457,-4.765 1.192,-7.761 -0.269,-2.998 -1.817,-2.154 -1.888,0 -0.071,2.15 -2.685,-0.615 -2.685,-0.615 0,0 2.538,3.611 2.152,7.147 -0.384,3.534 -3.305,-1.615 -4.073,-2.382 -0.77,-0.77 0.654,4.917 2.48,7.916 1.824,2.997 -5.478,-4.919 -4.786,-3.074 0.692,1.842 9.365,14.371 6.912,13.449 -2.454,-0.923 -13.062,-14.758 -10.986,-11.913 2.074,2.846 8.915,13.833 10.145,15.14 1.23,1.306 -12.988,-8.378 -10.145,-4.61 z" style="fill:#9abc3c;fill-rule:nonzero" id="path98"/>
        <path d="m 157.501,53.062 c -1.809,-0.88 -2.54,-2.086 -3.54,-1.015 -1,1.07 -1.715,2.876 -4.316,1.015 -2.601,-1.862 -2.768,-2.013 -3.518,-1.604 -0.75,0.409 -0.333,4.409 1.667,5.826 2,1.416 6.166,2.868 8.333,0.642 2.167,-2.226 1.374,-4.864 1.374,-4.864 z" style="fill:#963c22;fill-rule:nonzero" id="path100"/>
    </g>
</svg>
