<?xml version="1.0" encoding="UTF-8" standalone="no"?>
<svg xmlns="http://www.w3.org/2000/svg" width="100%" height="100%" viewBox="0 0 370 340" version="1.1" style="clip-rule:evenodd;fill-rule:evenodd;stroke-linejoin:round;stroke-miterlimit:2" id="svg311">
    <g transform="translate(34.888,162.79642)" style="clip-rule:evenodd;display:inline;fill-rule:evenodd;stroke-linejoin:round;stroke-miterlimit:2" id="stage_0">
        <path d="m 181.132,25.468 -0.36,-1.078 c 0.244,0.141 0.464,0.275 0.665,0.403 -0.197,0.42 -0.305,0.675 -0.305,0.675 z m -6.44,-1.383 c 0,0 -0.567,-1.283 -1.184,-2.905 0.569,0.203 1.099,0.402 1.601,0.597 z m -7.681,-0.049 c -0.41,1.148 -1.379,-2.197 -2.014,-5.729 1.323,0.479 2.659,0.943 3.983,1.369 -0.889,1.743 -1.694,3.593 -1.969,4.36 z m -6.151,-6.675 c -0.362,1.158 -1.302,0.06 -2.288,-1.565 0.806,0.338 1.633,0.676 2.477,1.012 -0.072,0.195 -0.136,0.382 -0.189,0.553 z m 26.839,-0.504 c -1.631,1.096 -2.986,2.644 -4.035,4.129 0.523,-4.793 1.767,-11.505 4.736,-14.37 4.859,-4.693 -3.782,-3.133 -7.967,-0.324 -4.183,2.807 -6.566,8.61 -6.566,8.61 L 169.529,1.876 167.428,13.52 c 0,0 -2.138,-4.837 -2.642,-7.6 -0.505,-2.763 -4.366,5.67 -5.039,7.553 -0.675,1.882 -2.85,-8.307 -2.59,-11.6 0.259,-3.293 -2.773,2.394 -3.565,4.923 -0.786,2.529 -4.324,-5.678 -5.142,-6.715 -0.815,-1.037 -0.142,8.211 -1.633,9.057 -0.835,0.473 2.866,2.679 8.344,5.169 -0.119,2.329 -0.315,4.962 -1.077,5.395 -1.488,0.846 11.413,7.179 23.121,10.846 11.712,3.671 13.353,6.326 13.353,6.326 0,0 0.25,-15.004 5.108,-19.694 4.857,-4.691 -3.784,-3.132 -7.967,-0.323 z" style="fill:#8fa73d;fill-rule:nonzero" id="path2-4"/>
        <path d="m 279.154,83.629 c -6.859,-4.458 -15.432,-5.485 -19.545,-12 -4.116,-6.516 -10.632,-14.402 -26.404,-20.917 -15.774,-6.515 -20.23,-5.487 -27.088,-8.917 -6.857,-3.427 -28.802,-19.543 -43.204,-23.658 -9.611,-2.746 -13.03,-11.314 -22.63,-4.458 -9.6,6.858 -20.229,12.346 -30.516,10.972 -10.285,-1.37 -17.833,2.058 -21.946,7.202 -4.114,5.143 -6.171,5.829 -12.687,5.143 -6.513,-0.686 -7.884,1.715 -14.399,5.486 -6.515,3.772 -9.946,0.687 -17.145,3.429 -7.203,2.743 -12.001,5.485 -13.374,11.316 -1.371,5.828 -1.029,2.742 -10.287,6.172 -9.256,3.428 -13.715,4.457 -14.744,9.257 -1.028,4.8 -3.824,11.434 -4.852,12.462 -1.03,1.03 0.355,5.333 3.782,7.732 3.431,2.402 20.5,1.751 21.072,4.494 0.57,2.742 10.516,2.968 13.601,5.6 3.086,2.631 3.774,6.059 8.916,7.772 5.143,1.716 12.346,0.687 17.831,7.888 5.485,7.199 29.83,20.915 38.745,29.486 8.916,8.574 28.803,22.118 37.376,18.518 8.57,-3.601 26.589,-12.345 36.953,-12.002 10.366,0.342 16.878,-2.742 21.681,-8.915 4.798,-6.172 17.829,-20.915 27.773,-20.572 9.944,0.343 24.002,-2.744 28.115,-8.917 4.114,-6.17 8.231,-5.141 15.087,-9.257 6.859,-4.115 15.773,-10.973 17.144,-13.373 1.374,-2.399 -2.399,-5.485 -9.255,-9.943 z" style="fill:#758035;fill-rule:nonzero" id="path4-1"/>
        <path d="m 281.517,83.308 c -6.58,-4.277 -21.553,-4.721 -25.501,-10.975 -3.947,-6.251 -10.202,-13.819 -25.339,-20.072 -15.136,-6.252 -19.414,-5.266 -25.996,-8.556 -6.58,-3.292 -27.641,-18.757 -41.462,-22.706 -9.225,-2.634 -12.502,-10.859 -21.717,-4.278 -9.214,6.582 -19.414,11.848 -29.288,10.531 -9.874,-1.317 -17.111,1.975 -21.06,6.91 -3.949,4.936 -5.922,5.595 -12.175,4.936 -6.252,-0.658 -7.568,1.646 -13.82,5.265 -6.254,3.62 -9.546,0.659 -16.455,3.291 -6.91,2.633 -11.516,5.265 -12.834,10.86 C 34.554,64.106 34.885,61.146 26,64.436 17.114,67.728 12.836,68.715 11.849,73.32 11.259,76.075 8.7,74.873 6.526,73.67 5.063,72.861 3.774,72.052 3.377,72.449 2.39,73.436 2.966,86.813 6.254,89.116 c 3.294,2.305 24.24,5.264 24.79,7.898 0.549,2.631 10.091,2.849 13.056,5.372 2.959,2.526 3.617,5.817 8.551,7.461 4.938,1.645 11.849,0.659 17.113,7.57 5.266,6.91 28.629,20.072 37.185,28.298 8.557,8.227 27.643,21.225 35.87,17.77 8.225,-3.455 25.514,-11.847 35.462,-11.518 9.948,0.331 16.2,-2.631 20.806,-8.556 4.607,-5.922 17.112,-20.072 26.655,-19.743 9.543,0.33 23.035,-2.632 26.984,-8.556 3.947,-5.922 7.899,-4.935 14.478,-8.883 6.582,-3.949 15.137,-10.531 16.454,-12.835 1.316,-2.303 4.443,-5.807 -2.141,-10.086 z" style="fill:#37302b;fill-rule:nonzero" id="path6-4"/>
        <path d="M 274.775,77.056 C 268.193,72.779 259.964,71.792 256.016,65.539 252.069,59.286 245.814,51.717 230.677,45.465 215.541,39.214 211.263,40.201 204.681,36.911 198.101,33.619 177.04,18.154 163.219,14.204 153.994,11.569 150.717,3.344 141.502,9.927 c -9.214,6.581 -19.414,11.846 -29.288,10.531 -9.874,-1.318 -17.111,1.974 -21.06,6.909 -3.949,4.937 -5.922,5.595 -12.175,4.937 -6.252,-0.659 -7.568,1.644 -13.82,5.265 -6.254,3.62 -9.546,0.657 -16.455,3.29 -6.91,2.633 -11.516,5.266 -12.834,10.858 -1.316,5.594 -0.985,2.634 -9.87,5.925 -8.886,3.29 -13.164,4.276 -14.151,8.884 -0.987,4.607 -6.91,3.618 -7.898,4.607 -0.985,0.988 -0.985,8.884 2.303,11.188 3.294,2.305 24.24,5.266 24.79,7.897 0.549,2.632 10.091,2.851 13.056,5.375 2.959,2.524 3.617,5.815 8.551,7.458 4.938,1.647 11.849,0.659 17.113,7.57 5.266,6.911 28.629,20.073 37.185,28.3 8.557,8.228 27.643,21.224 35.87,17.769 8.225,-3.455 25.514,-11.846 35.462,-11.517 9.948,0.33 16.2,-2.633 20.806,-8.556 4.607,-5.923 17.112,-20.072 26.655,-19.743 9.543,0.328 23.035,-2.633 26.984,-8.556 3.947,-5.923 7.899,-4.936 14.478,-8.885 6.582,-3.949 15.137,-10.529 16.454,-12.834 1.316,-2.304 -2.303,-5.265 -8.883,-9.543 z" style="fill:#542f29;fill-rule:nonzero" id="path8-2"/>
        <path d="m 168.154,153.554 c -1.49,-0.846 -0.817,-10.095 -1.635,-9.055 -0.814,1.035 -4.351,9.242 -5.141,6.712 -0.79,-2.527 -3.822,-8.215 -3.562,-4.921 0.258,3.293 -1.917,13.48 -2.591,11.597 -0.673,-1.882 -4.534,-10.314 -5.038,-7.55 -0.506,2.761 -2.643,7.599 -2.643,7.599 l -2.098,-11.644 -4.339,13.027 c 0,0 -2.385,-5.805 -6.569,-8.611 -4.184,-2.809 -12.825,-4.367 -7.966,0.324 4.857,4.69 7.28,10.709 7.28,10.709 0,0 -0.532,6.329 11.179,2.659 11.711,-3.668 24.613,-10.001 23.123,-10.846 z" style="fill:#8fa73d;fill-rule:nonzero" id="path10-1"/>
        <path d="m 139.865,152.324 c -7.471,0 -11.231,-7.787 -6.92,-16.364 4.8,-9.544 6.252,-7.571 23.365,-9.215 17.113,-1.645 21.39,-6.91 29.615,-17.44 6.709,-8.588 10.572,-10.828 19.977,-10.828 2.129,0 4.542,0.115 7.336,0.297 2.488,0.162 4.584,0.271 6.397,0.296 -0.163,0.621 -0.228,1.364 -0.137,2.151 v 10e-4 c 0.001,0.007 0.001,0.015 0.002,0.023 0.001,0.008 0.002,0.017 0.004,0.026 v 0.002 c 0.353,2.859 2.784,6.273 10.181,6.532 h 0.002 c 0.024,10e-4 0.049,10e-4 0.072,0.002 h 0.005 c 0.01,0.001 0.019,0.001 0.03,0.001 0.007,0 0.014,10e-4 0.021,10e-4 0.008,0 0.018,0 0.026,0.001 0.014,0 0.028,0 0.042,0.001 h 0.022 c 0.011,10e-4 0.022,10e-4 0.033,10e-4 0.005,0 0.011,0.001 0.016,0.001 0.016,0 0.032,0 0.049,10e-4 h 0.012 c 0.014,0 0.028,0.001 0.042,0.001 h 0.013 c 0.017,0.001 0.034,0.001 0.051,0.001 h 0.008 c 0.016,10e-4 0.032,10e-4 0.049,10e-4 h 0.006 c 0.136,0.002 0.274,0.003 0.413,0.003 0.486,0 0.991,-0.012 1.518,-0.039 0.02,-0.001 0.04,-0.002 0.06,-0.003 0.006,0 0.011,-0.001 0.018,-0.001 0.014,-0.001 0.03,-0.002 0.044,-0.002 0.006,-0.001 0.013,-0.001 0.018,-0.001 0.019,-0.001 0.037,-0.002 0.056,-0.003 0.007,-0.001 0.016,-0.001 0.023,-0.002 0.011,0 0.023,-0.001 0.035,-0.002 0.008,0 0.017,-10e-4 0.025,-10e-4 0.018,-0.001 0.036,-0.002 0.053,-0.003 0.008,-0.001 0.015,-0.001 0.022,-0.001 0.012,-0.001 0.025,-0.002 0.037,-0.003 0.009,0 0.018,-0.001 0.027,-0.001 0.011,-10e-4 0.022,-0.002 0.033,-0.002 0.015,-0.001 0.031,-0.002 0.046,-0.003 0.008,-0.001 0.018,-0.001 0.026,-0.002 0.011,0 0.023,-0.001 0.034,-0.002 0.007,0 0.017,-10e-4 0.024,-10e-4 0.018,-0.002 0.035,-0.003 0.052,-0.004 0.01,0 0.018,-0.001 0.027,-0.002 0.011,0 0.022,-0.001 0.033,-0.002 0.008,0 0.016,-10e-4 0.024,-10e-4 0.01,-0.001 0.021,-0.002 0.031,-0.002 0.009,-10e-4 0.017,-0.002 0.026,-0.002 0.018,-0.002 0.038,-0.003 0.057,-0.004 0.006,-10e-4 0.013,-10e-4 0.019,-0.002 0.013,-0.001 0.024,-0.001 0.037,-0.002 0.003,-0.001 0.008,-0.001 0.012,-0.001 0.025,-0.002 0.05,-0.004 0.075,-0.006 h 0.009 c 0.013,-0.001 0.027,-0.002 0.04,-0.003 0.003,-0.001 0.007,-0.001 0.01,-0.001 0.042,-0.003 0.084,-0.007 0.126,-0.01 0.003,0 0.006,0 0.009,-0.001 0.042,-0.003 0.084,-0.006 0.127,-0.01 h 0.007 c 0.014,-0.002 0.028,-0.003 0.042,-0.004 h 0.003 c 0.043,-0.004 0.087,-0.008 0.13,-0.011 0.002,-0.001 0.004,-0.001 0.006,-0.001 2.088,-0.184 3.877,-0.519 5.397,-0.969 h 0.001 c 0.031,-0.01 0.063,-0.019 0.094,-0.028 0.002,-0.001 0.003,-0.001 0.005,-0.002 0.009,-0.003 0.018,-0.005 0.027,-0.008 0.005,-0.002 0.008,-0.003 0.013,-0.004 0.014,-0.005 0.029,-0.009 0.044,-0.014 0.004,-10e-4 0.009,-0.002 0.013,-0.004 0.008,-0.002 0.016,-0.004 0.023,-0.007 0.006,-0.001 0.011,-0.003 0.017,-0.005 0.007,-0.002 0.014,-0.004 0.021,-0.006 0.011,-0.004 0.023,-0.008 0.034,-0.011 0.006,-0.002 0.012,-0.004 0.018,-0.006 0.008,-0.002 0.015,-0.004 0.022,-0.007 0.006,-0.002 0.012,-0.003 0.018,-0.005 0.013,-0.004 0.025,-0.008 0.038,-0.012 10e-4,-10e-4 0.002,-10e-4 0.004,-0.002 0.012,-0.004 0.024,-0.008 0.037,-0.012 0.003,0 0.006,-0.001 0.009,-0.002 0.029,-0.01 0.056,-0.019 0.084,-0.028 h 0.002 c 8.702,-2.849 7.886,-9.664 3.454,-12.751 -1.718,-1.198 -2.929,-1.686 -4.013,-1.686 -1.857,0 -3.338,1.434 -6.351,3.188 -0.321,0.187 -0.641,0.363 -0.958,0.529 2.079,-1.563 4.353,-3.798 7.583,-6.923 8.238,-7.972 14.971,-11.437 22.63,-11.437 1.3,0 2.626,0.1 3.991,0.294 -1.398,0.446 -2.818,1.623 -5.178,2.997 -3.203,1.865 -6.256,2.7 -8.565,2.7 -1.133,0 -2.086,-0.201 -2.79,-0.58 -0.096,-0.051 -0.194,-0.076 -0.292,-0.076 -1.015,0 -2.078,2.62 -1.151,5.24 0.142,0.402 0.331,0.803 0.573,1.195 0.001,0.002 0.002,0.003 0.003,0.004 0.003,0.005 0.006,0.01 0.009,0.015 0.003,0.006 0.007,0.012 0.011,0.018 l 0.001,0.001 c 1.101,1.751 3.289,3.307 7.218,3.825 h 0.005 c 0.009,0.002 0.019,0.003 0.028,0.004 0.005,0.001 0.009,0.001 0.014,0.002 0.013,0.002 0.027,0.003 0.04,0.005 0.007,10e-4 0.014,0.002 0.02,0.003 0.008,0 0.015,10e-4 0.023,0.002 0.008,0.001 0.015,0.002 0.023,0.003 0.006,0.001 0.013,0.002 0.019,0.003 0.013,0.001 0.027,0.003 0.04,0.004 0.004,10e-4 0.009,10e-4 0.013,0.002 0.012,0.001 0.024,0.003 0.036,0.004 0.004,10e-4 0.006,10e-4 0.009,10e-4 0.015,0.002 0.03,0.004 0.046,0.006 h 0.006 c 0.015,0.002 0.03,0.004 0.045,0.006 h 0.002 c 0.798,0.089 1.663,0.137 2.603,0.137 0.486,0 0.991,-0.013 1.517,-0.039 0.021,-10e-4 0.04,-0.002 0.061,-0.003 0.005,-10e-4 0.01,-10e-4 0.014,-10e-4 0.02,-0.001 0.038,-0.002 0.058,-0.003 h 0.004 c 3.327,-0.179 5.968,-0.717 8.017,-1.493 -7.446,6.791 -16.307,9.683 -26.8,14.93 -11.847,5.923 -18.427,6.91 -30.602,13.491 -11.356,6.137 -22.686,19.302 -28.989,19.301 -0.455,0 -0.885,-0.069 -1.286,-0.214 -1.842,-0.667 -3.712,-0.958 -5.596,-0.958 -10.321,0 -20.99,8.749 -28.827,12.386 l -0.791,-4.387 -1.806,5.421 c -0.382,0.122 -0.754,0.224 -1.117,0.305 -0.929,0.208 -1.817,0.306 -2.658,0.306 z M 274.188,83.887 c -0.336,-1.797 -1.487,-3.475 -3.145,-4.631 -0.243,-0.169 -0.475,-0.324 -0.699,-0.466 3.472,1.249 4.262,3.146 3.844,5.097 z" style="fill:#6f3923;fill-rule:nonzero" id="path12-2"/>
        <path d="m 143.64,151.713 1.806,-5.421 0.791,4.387 c -0.905,0.42 -1.773,0.772 -2.597,1.034 z" style="fill:#a1a438;fill-rule:nonzero" id="path14-9"/>
        <path d="m 231.335,85.495 c -8.882,7.45 -16.451,3.737 -28.628,3.737 -12.177,0 -16.452,9.542 -23.034,16.672 -6.582,7.13 -33.564,11.956 -46.069,16.563 -12.505,4.608 -7.568,18.758 -7.239,12.834 0.328,-5.923 19.744,-17.441 36.525,-17.769 16.783,-0.33 24.023,-17.77 31.921,-21.939 7.896,-4.17 21.06,-2.412 28.629,-2.083 7.568,0.329 22.047,-18.429 22.047,-18.429 3.337,-4.046 -5.266,2.963 -14.152,10.414 z" style="fill:#37302b;fill-rule:nonzero" id="path16-2"/>
        <path d="m 102.025,128.621 c -7.472,0 -11.235,-7.787 -6.922,-16.364 4.798,-9.544 6.253,-7.569 23.363,-9.215 1.906,-0.183 3.653,-0.411 5.264,-0.686 0.246,0.392 0.547,0.775 0.91,1.138 0.001,0.001 0.003,0.002 0.004,0.003 l 0.024,0.024 c 0.003,0.004 0.007,0.007 0.01,0.01 0.003,0.004 0.007,0.007 0.01,0.01 10e-4,0.001 0.002,0.002 0.003,0.003 1.03,1.01 2.547,1.867 4.711,2.363 0.002,0 0.004,0.001 0.005,0.001 0.027,0.006 0.053,0.012 0.08,0.018 0.004,0.001 0.008,0.002 0.013,0.003 0.007,0.001 0.015,0.003 0.022,0.005 0.007,0.001 0.014,0.003 0.021,0.004 0.01,0.002 0.019,0.005 0.029,0.007 0.007,0.001 0.013,0.002 0.02,0.004 0.006,0.001 0.012,0.003 0.018,0.004 0.011,0.002 0.022,0.005 0.034,0.007 0.004,0.001 0.008,0.002 0.013,0.003 0.009,0.002 0.018,0.004 0.027,0.006 0.005,0 0.009,0.001 0.013,0.002 0.013,0.003 0.026,0.006 0.038,0.008 0.002,0.001 0.004,0.001 0.006,0.001 0.012,0.003 0.024,0.005 0.036,0.008 0.003,0 0.005,0.001 0.008,0.001 0.028,0.006 0.057,0.012 0.086,0.017 0,0.001 0.001,0.001 0.002,0.001 1.165,0.229 2.506,0.357 4.045,0.357 0.487,10e-4 0.992,-0.012 1.519,-0.039 0.017,-0.001 0.034,-0.002 0.05,-0.003 7.856,-0.405 11.909,-2.805 13.387,-5.605 l 0.008,-0.016 c 1.565,-2.983 0.21,-6.413 -2.584,-8.362 -0.976,-0.68 -1.788,-1.131 -2.507,-1.394 1.366,-1.606 2.76,-3.382 4.291,-5.342 6.708,-8.586 10.57,-10.828 19.972,-10.828 2.13,0 4.545,0.115 7.341,0.297 2.846,0.186 5.181,0.302 7.163,0.302 8.559,0 10.551,-2.158 18.835,-10.175 8.235,-7.97 14.969,-11.436 22.627,-11.436 1.825,0 3.705,0.197 5.67,0.578 10.201,1.974 6.61,7.525 3.622,10.858 -7.999,8.924 -17.771,11.848 -29.618,17.771 -11.846,5.923 -18.427,6.91 -30.603,13.49 -11.354,6.139 -22.684,19.301 -28.986,19.3 -0.455,0 -0.885,-0.069 -1.286,-0.214 -1.84,-0.666 -3.71,-0.957 -5.592,-0.957 -12.066,0 -24.606,11.956 -32.546,13.726 -0.928,0.207 -1.815,0.306 -2.656,0.306 z M 215.504,70.677 c 0.012,0.002 0.023,0.004 0.035,0.006 0.472,0.081 0.978,0.12 1.507,0.12 1.438,0 3.048,-0.284 4.627,-0.762 6.357,-1.922 12.213,-6.983 4.232,-9.328 -0.771,-0.226 -1.582,-0.322 -2.429,-0.322 -3.254,0 -7.048,1.413 -11.227,2.272 -4.644,0.956 -3.913,5.536 1.068,7.423 0,0 0.001,0 0.002,0.001 0.007,0.002 0.014,0.005 0.021,0.008 0.003,0.001 0.005,0.001 0.007,0.002 0.007,0.003 0.013,0.005 0.02,0.008 0.009,0.003 0.017,0.006 0.025,0.009 0.004,0.002 0.008,0.003 0.013,0.005 0.006,0.002 0.012,0.004 0.019,0.007 0.003,10e-4 0.006,0.002 0.01,0.004 0.009,0.003 0.017,0.006 0.026,0.009 0.001,0 0.002,0.001 0.004,0.001 0.01,0.004 0.021,0.008 0.031,0.012 0.001,0 0.003,0.001 0.004,0.001 0.01,0.004 0.02,0.007 0.03,0.011 0.001,0 0.002,0 0.002,0.001 0.406,0.144 0.839,0.27 1.299,0.375 v 10e-4 c 0.026,0.005 0.051,0.011 0.076,0.017 h 0.003 c 0.011,0.003 0.023,0.005 0.035,0.008 0.001,0 0.002,10e-4 0.003,10e-4 0.025,0.005 0.049,0.011 0.074,0.016 0.002,0 0.003,0.001 0.005,0.001 0.012,0.002 0.022,0.005 0.034,0.007 0.001,0 0.002,0.001 0.003,0.001 0.025,0.005 0.05,0.01 0.074,0.015 0.003,0.001 0.005,0.001 0.008,0.002 0.011,0.002 0.021,0.004 0.031,0.006 0.002,0 0.004,0.001 0.005,0.001 0.013,0.003 0.024,0.005 0.037,0.007 0.002,10e-4 0.004,10e-4 0.006,0.002 0.01,0.002 0.02,0.004 0.03,0.005 0.003,0.001 0.007,0.002 0.01,0.002 0.01,0.002 0.02,0.004 0.03,0.006 0.002,10e-4 0.004,10e-4 0.006,10e-4 0.012,0.003 0.024,0.005 0.036,0.007 0.003,0.001 0.006,0.001 0.009,0.002 0.009,0.002 0.018,0.003 0.027,0.005 0.004,10e-4 0.008,10e-4 0.012,0.002 l 0.035,0.007 c 0.012,0.002 0.024,0.004 0.036,0.006 0.004,10e-4 0.007,10e-4 0.011,0.002 0.008,0.002 0.017,0.003 0.026,0.005 0.004,0 0.007,0.001 0.012,0.002 z" style="fill:#6f3923;fill-rule:nonzero" id="path18-4"/>
        <path d="m 193.493,61.79 c -8.884,7.451 -16.453,3.739 -28.627,3.739 -12.175,0 -16.454,9.543 -23.036,16.672 -6.582,7.131 -33.565,11.956 -46.07,16.563 -12.503,4.607 -7.566,18.757 -7.239,12.835 0.33,-5.924 19.744,-17.442 36.527,-17.771 16.782,-0.328 24.023,-17.769 31.919,-21.939 7.899,-4.17 21.061,-2.411 28.629,-2.083 7.569,0.329 22.047,-18.426 22.047,-18.426 3.337,-4.047 -5.264,2.961 -14.15,10.41 z" style="fill:#37302b;fill-rule:nonzero" id="path20-2"/>
        <path d="m 59.942,104.741 c -1.541,0 -2.925,-0.331 -4.112,-0.932 1.508,0.274 3.107,0.509 4.726,0.915 -0.207,0.011 -0.412,0.017 -0.614,0.017 z" style="fill:#5b3f25;fill-rule:nonzero" id="path22-5"/>
        <path d="m 60.556,104.724 c -1.619,-0.406 -3.218,-0.641 -4.726,-0.915 -4.571,-2.314 -6.238,-8.625 -2.811,-15.433 0.22,-0.439 0.433,-0.853 0.642,-1.245 0.631,2.472 2.622,4.935 5.798,5.91 v 0.001 c 0.028,0.008 0.056,0.017 0.084,0.025 10e-4,0 0.003,0.001 0.005,0.001 0.008,0.003 0.017,0.005 0.025,0.008 0.003,0.001 0.005,0.001 0.007,0.002 0.025,0.007 0.05,0.014 0.076,0.022 0.004,0.001 0.008,0.002 0.012,0.003 0.007,0.002 0.014,0.004 0.021,0.006 0.005,0.002 0.011,0.003 0.016,0.005 0.008,0.002 0.016,0.004 0.024,0.006 0.008,0.002 0.017,0.005 0.025,0.007 0.005,0.001 0.011,0.003 0.016,0.004 0.007,0.002 0.015,0.004 0.022,0.006 0.004,0.001 0.009,0.003 0.014,0.004 0.011,0.003 0.023,0.006 0.035,0.009 0.471,0.124 0.977,0.182 1.506,0.182 6.509,0 16.581,-8.838 11.199,-13.836 1.184,-0.093 2.46,-0.202 3.836,-0.335 17.112,-1.645 21.39,-6.911 29.616,-17.441 6.708,-8.584 10.57,-10.827 19.97,-10.827 2.13,0 4.545,0.115 7.342,0.298 2.847,0.186 5.181,0.301 7.163,0.301 8.56,0 10.552,-2.157 18.833,-10.173 8.238,-7.972 14.971,-11.438 22.629,-11.438 1.826,0 3.707,0.198 5.671,0.578 10.201,1.975 6.608,7.526 3.619,10.86 -8,8.921 -17.768,11.846 -29.615,17.769 -11.846,5.923 -18.43,6.91 -30.603,13.491 -11.354,6.139 -22.685,19.302 -28.988,19.3 -0.456,0 -0.886,-0.069 -1.287,-0.214 -1.841,-0.666 -3.71,-0.957 -5.593,-0.957 -12.065,0 -24.604,11.955 -32.542,13.728 -0.705,0.157 -1.386,0.251 -2.041,0.288 z" style="fill:#6f3923;fill-rule:nonzero" id="path24-4"/>
        <path d="m 151.41,37.909 c -8.885,7.451 -16.454,3.737 -28.63,3.737 -12.176,0 -16.452,9.545 -23.034,16.674 -6.583,7.131 -33.565,11.955 -46.068,16.564 -12.507,4.605 -7.571,18.756 -7.241,12.833 0.33,-5.923 19.744,-17.442 36.525,-17.77 16.784,-0.331 24.023,-17.769 31.921,-21.939 7.898,-4.17 21.06,-2.412 28.629,-2.083 7.568,0.329 22.047,-18.428 22.047,-18.428 3.337,-4.046 -5.266,2.962 -14.149,10.412 z" style="fill:#37302b;fill-rule:nonzero" id="path26-7"/>
        <path d="m 20.097,82.546 c -1.716,0 -3.267,-0.268 -4.566,-0.795 h 0.145 c 0.486,0 0.991,-0.013 1.516,-0.039 16.29,-0.824 16.29,-10.202 10.859,-13.987 -1.718,-1.196 -2.929,-1.684 -4.012,-1.684 -1.857,0 -3.339,1.433 -6.352,3.186 -1.812,1.054 -3.576,1.779 -5.184,2.21 0.155,-0.367 0.329,-0.742 0.522,-1.126 4.798,-9.543 16.041,1.014 25.184,-13.543 3.242,-5.163 5.55,-6.119 7.693,-6.119 0.631,0 1.247,0.083 1.869,0.166 0.622,0.083 1.248,0.166 1.9,0.166 1.963,0 4.15,-0.753 7.098,-4.525 8.224,-10.53 27.839,-8.887 38.37,-17.658 11.654,-9.709 31.718,-0.279 41.922,-10.151 6.461,-6.253 7.706,-8.083 10.344,-8.083 1.526,0 3.519,0.613 7.258,1.336 2.719,0.527 4.714,1.85 5.903,3.639 -0.05,-0.016 -0.101,-0.031 -0.152,-0.046 -0.771,-0.226 -1.582,-0.322 -2.43,-0.322 -3.253,0 -7.049,1.413 -11.226,2.273 -3.931,0.808 -4.01,4.214 -0.921,6.384 1.047,0.737 2.46,1.331 4.213,1.633 0.472,0.081 0.978,0.12 1.507,0.12 1.501,0 3.19,-0.309 4.835,-0.826 1.9,-0.596 3.74,-1.467 5.166,-2.457 -1,4.09 -4.59,8.522 -11.173,11.65 -2.827,1.345 -5.207,1.77 -7.393,1.77 -1.88,0 -3.616,-0.315 -5.368,-0.629 -1.752,-0.315 -3.52,-0.629 -5.463,-0.629 -2.503,0 -5.297,0.521 -8.724,2.235 -11.846,5.923 -17.689,4.987 -26.361,16.009 -7.596,9.66 -24.22,16.924 -32.018,16.924 -0.985,0 -1.83,-0.116 -2.498,-0.357 -1.84,-0.666 -3.71,-0.957 -5.592,-0.957 -12.065,0 -24.604,11.957 -32.546,13.727 -1.515,0.338 -2.971,0.505 -4.325,0.505 z" style="fill:#5b3127;fill-rule:nonzero" id="path28-6"/>
        <path d="M 70.206,78.013 C 66.474,76.347 61.814,79.329 56.549,80.975 51.283,82.62 52.93,91.341 59.841,93.15 66.751,94.96 80.9,82.783 70.206,78.013 Z" style="fill:#963c22;fill-rule:nonzero" id="path30-6"/>
        <path d="m 59.841,89.072 c -3.199,-0.838 -5.25,-3.155 -6.032,-5.568 -1.277,3.241 0.943,8.314 6.032,9.646 5.766,1.507 16.555,-6.71 13.772,-12.247 -1.902,4.715 -9.329,9.333 -13.772,8.169 z" style="fill:#37302b;fill-rule:nonzero" id="path32-3"/>
        <path d="m 59.314,87.735 c -0.153,0 -0.304,-0.005 -0.451,-0.016 -4.392,-0.313 -4.374,-4.967 -1.283,-4.967 0.144,0 0.295,0.01 0.452,0.031 0.142,0.019 0.279,0.029 0.412,0.029 1.314,0 2.236,-0.884 3.129,-1.768 0.893,-0.883 1.757,-1.766 2.953,-1.766 0.508,0 1.077,0.159 1.732,0.545 5.416,3.186 -2.277,7.912 -6.944,7.912 z" style="fill:#b15929;fill-rule:nonzero" id="path34-5"/>
        <path d="m 225.905,60.713 c -3.733,-1.096 -8.39,0.867 -13.656,1.95 -5.265,1.084 -3.621,6.826 3.29,8.02 6.909,1.191 21.06,-6.828 10.366,-9.97 z" style="fill:#963c22;fill-rule:nonzero" id="path36-8"/>
        <path d="m 215.539,67.997 c -3.199,-0.552 -5.251,-2.079 -6.032,-3.668 -1.277,2.135 0.945,5.475 6.032,6.354 5.764,0.995 16.554,-4.42 13.77,-8.066 -1.899,3.104 -9.326,6.146 -13.77,5.38 z" style="fill:#37302b;fill-rule:nonzero" id="path38-7"/>
        <path d="m 215.017,67.115 c -0.154,0 -0.306,-0.003 -0.453,-0.01 -4.394,-0.206 -4.377,-3.271 -1.286,-3.271 0.144,0 0.296,0.007 0.453,0.021 0.141,0.012 0.278,0.018 0.411,0.018 1.314,0 2.237,-0.582 3.13,-1.164 0.892,-0.581 1.756,-1.163 2.952,-1.163 0.508,0 1.075,0.105 1.731,0.359 5.416,2.098 -2.273,5.211 -6.938,5.21 z" style="fill:#b15929;fill-rule:nonzero" id="path40-9"/>
        <path d="m 160.414,15.493 c -3.731,-1.096 -8.39,0.866 -13.656,1.951 -5.265,1.083 -3.62,6.825 3.292,8.017 6.907,1.191 21.059,-6.826 10.364,-9.968 z" style="fill:#963c22;fill-rule:nonzero" id="path42-5"/>
        <path d="m 150.05,22.777 c -3.201,-0.552 -5.254,-2.081 -6.035,-3.667 -1.274,2.133 0.943,5.474 6.035,6.351 5.764,0.995 16.551,-4.419 13.77,-8.066 -1.902,3.107 -9.328,6.148 -13.77,5.382 z" style="fill:#37302b;fill-rule:nonzero" id="path44-1"/>
        <path d="m 149.527,21.894 c -0.155,0 -0.307,-0.003 -0.454,-0.01 -4.394,-0.204 -4.378,-3.27 -1.288,-3.27 0.144,0 0.295,0.007 0.453,0.021 0.142,0.012 0.279,0.018 0.412,0.018 1.315,0 2.238,-0.582 3.13,-1.163 0.893,-0.582 1.756,-1.164 2.953,-1.164 0.508,0 1.076,0.105 1.732,0.36 5.414,2.095 -2.273,5.209 -6.938,5.208 z" style="fill:#b15929;fill-rule:nonzero" id="path46-6"/>
        <path d="m 242.973,93.796 c -4.663,-3.25 -5.593,-1.275 -10.364,1.502 -4.774,2.775 -9.215,3.27 -11.354,2.117 -1.082,-0.583 -2.459,2.291 -1.444,5.164 0.991,2.804 4.26,5.608 12.304,5.202 16.289,-0.821 16.289,-10.202 10.858,-13.985 z" style="fill:#963c22;fill-rule:nonzero" id="path48-0"/>
        <path d="m 232.115,104.984 c -8.668,0.438 -11.793,-2.85 -12.496,-5.851 -0.776,3.137 0.884,9.234 12.496,8.648 11.624,-0.586 14.949,-5.53 13.928,-9.689 -0.84,3.321 -4.858,6.436 -13.928,6.892 z" style="fill:#37302b;fill-rule:nonzero" id="path50-4"/>
        <path d="m 230.436,101.354 c -4.592,0 -3.875,-2.295 0.362,-3.115 3.715,-0.72 4.986,-2.574 6.357,-2.574 0.511,0 1.036,0.258 1.706,0.929 0,0 3.29,3.126 -4.938,4.441 -1.393,0.223 -2.551,0.319 -3.487,0.319 z" style="fill:#b15929;fill-rule:nonzero" id="path52-6"/>
        <path d="m 146.298,92.339 c -4.663,-3.248 -5.595,-1.273 -10.366,1.503 -4.772,2.776 -9.213,3.27 -11.353,2.117 -1.083,-0.582 -2.46,2.291 -1.445,5.165 0.99,2.804 4.259,5.608 12.303,5.201 16.287,-0.824 16.287,-10.2 10.861,-13.986 z" style="fill:#963c22;fill-rule:nonzero" id="path54-5"/>
        <path d="m 135.437,103.528 c -8.665,0.438 -11.79,-2.85 -12.491,-5.851 -0.78,3.135 0.881,9.234 12.491,8.648 11.624,-0.586 14.95,-5.529 13.932,-9.691 -0.843,3.323 -4.859,6.437 -13.932,6.894 z" style="fill:#37302b;fill-rule:nonzero" id="path56-7"/>
        <path d="m 133.756,99.897 c -4.588,0 -3.871,-2.294 0.364,-3.115 3.718,-0.719 4.989,-2.573 6.359,-2.573 0.51,0 1.035,0.258 1.705,0.928 0,0 3.29,3.126 -4.936,4.441 -1.396,0.224 -2.554,0.319 -3.492,0.319 z" style="fill:#b15929;fill-rule:nonzero" id="path58-2"/>
        <path d="m 271.043,79.256 c -4.663,-3.249 -5.596,-1.275 -10.366,1.502 -4.773,2.779 -9.215,3.271 -11.355,2.12 -1.082,-0.584 -2.46,2.29 -1.443,5.164 0.991,2.803 4.261,5.607 12.304,5.201 16.287,-0.823 16.287,-10.201 10.86,-13.987 z" style="fill:#963c22;fill-rule:nonzero" id="path60-8"/>
        <path d="m 260.183,90.446 c -8.668,0.437 -11.791,-2.851 -12.496,-5.851 -0.777,3.136 0.885,9.233 12.496,8.648 11.621,-0.588 14.947,-5.531 13.929,-9.691 -0.843,3.321 -4.859,6.436 -13.929,6.894 z" style="fill:#37302b;fill-rule:nonzero" id="path62-3"/>
        <path d="m 258.503,86.816 c -4.593,0 -3.875,-2.296 0.364,-3.116 3.715,-0.719 4.985,-2.574 6.356,-2.574 0.511,0 1.036,0.258 1.706,0.928 0,0 3.288,3.127 -4.937,4.443 -1.395,0.223 -2.552,0.319 -3.489,0.319 z" style="fill:#b15929;fill-rule:nonzero" id="path64-2"/>
        <path d="M 28.051,67.725 C 23.39,64.477 22.458,66.451 17.687,69.227 12.915,72.003 8.474,72.498 6.333,71.344 5.251,70.762 3.874,73.635 4.89,76.51 c 0.99,2.803 4.259,5.607 12.302,5.202 16.29,-0.824 16.29,-10.202 10.859,-13.987 z" style="fill:#963c22;fill-rule:nonzero" id="path66-6"/>
        <path d="M 17.192,78.914 C 8.526,79.352 5.401,76.063 4.701,73.064 c -0.78,3.134 0.884,9.234 12.491,8.648 11.624,-0.588 14.95,-5.532 13.931,-9.691 -0.843,3.323 -4.858,6.435 -13.931,6.893 z" style="fill:#37302b;fill-rule:nonzero" id="path68-3"/>
        <path d="m 15.517,75.284 c -4.593,0 -3.876,-2.295 0.359,-3.117 3.717,-0.719 4.987,-2.572 6.357,-2.572 0.51,0 1.035,0.258 1.705,0.928 0,0 3.291,3.125 -4.935,4.443 -1.393,0.223 -2.55,0.318 -3.486,0.318 z" style="fill:#b15929;fill-rule:nonzero" id="path70-9"/>
        <path d="m 127.187,149.836 c -1.207,-0.384 2.193,2.302 4.883,4.881 2.687,2.576 3.617,7.129 3.617,7.129 1.536,2.852 2.36,1.536 1.099,-3.126 -1.263,-4.663 -8.391,-8.502 -9.599,-8.884 z" style="fill:#91c961;fill-rule:nonzero" id="path72-5"/>
        <path d="m 141.777,161.078 c 0,0 4.056,-5.537 3.29,-12.888 z" style="fill:#91c961;fill-rule:nonzero" id="path74-8"/>
        <path d="m 147.372,159.323 c -1.428,2.357 3.945,1.755 3.345,-8.664 0,0 -1.921,6.305 -3.345,8.664 z" style="fill:#91c961;fill-rule:nonzero" id="path76-5"/>
    </g>
    <g transform="translate(37.826,156.14042)" style="clip-rule:evenodd;display:inline;fill-rule:evenodd;stroke-linejoin:round;stroke-miterlimit:2" id="_1">
        <path d="m 178.191,32.124 -0.359,-1.078 c 0.244,0.141 0.465,0.275 0.664,0.403 -0.197,0.42 -0.305,0.675 -0.305,0.675 z m -6.439,-1.383 c 0,0 -0.567,-1.283 -1.185,-2.905 0.568,0.203 1.099,0.402 1.602,0.597 z m -7.68,-0.049 c -0.412,1.148 -1.38,-2.197 -2.016,-5.729 1.324,0.479 2.659,0.943 3.984,1.369 -0.89,1.743 -1.694,3.593 -1.968,4.36 z m -6.153,-6.675 c -0.362,1.158 -1.301,0.06 -2.287,-1.565 0.806,0.338 1.632,0.676 2.476,1.012 -0.071,0.195 -0.137,0.382 -0.189,0.553 z m 26.839,-0.504 c -1.631,1.096 -2.985,2.644 -4.034,4.129 0.522,-4.793 1.768,-11.505 4.736,-14.37 4.859,-4.693 -3.78,-3.133 -7.967,-0.324 -4.183,2.807 -6.566,8.61 -6.566,8.61 l -4.339,-13.026 -2.1,11.644 c 0,0 -2.138,-4.837 -2.642,-7.6 -0.505,-2.763 -4.367,5.67 -5.039,7.553 -0.675,1.882 -2.85,-8.307 -2.59,-11.6 0.258,-3.293 -2.773,2.394 -3.565,4.923 -0.787,2.529 -4.325,-5.678 -5.142,-6.715 -0.815,-1.037 -0.142,8.211 -1.633,9.057 -0.835,0.473 2.866,2.679 8.343,5.169 -0.118,2.329 -0.314,4.962 -1.077,5.395 -1.488,0.846 11.411,7.179 23.122,10.846 11.71,3.671 13.353,6.326 13.353,6.326 0,0 0.25,-15.004 5.108,-19.694 4.857,-4.691 -3.783,-3.132 -7.968,-0.323 z" style="fill:#8fa73d;fill-rule:nonzero" id="path2"/>
        <path d="m 278.578,89.964 c -6.58,-4.277 -21.553,-4.721 -25.502,-10.975 -3.948,-6.251 -10.201,-13.819 -25.339,-20.072 -15.136,-6.252 -19.415,-5.266 -25.996,-8.556 -6.58,-3.292 -27.64,-18.757 -41.461,-22.706 -9.226,-2.634 -12.504,-10.859 -21.719,-4.278 -9.213,6.582 -19.414,11.848 -29.287,10.531 -9.874,-1.317 -17.11,1.975 -21.059,6.91 -3.951,4.936 -5.924,5.595 -12.176,4.936 -6.253,-0.658 -7.568,1.646 -13.818,5.265 -6.255,3.62 -9.547,0.659 -16.457,3.291 -6.909,2.633 -11.516,5.265 -12.833,10.86 -1.317,5.592 -0.986,2.632 -9.872,5.922 -8.884,3.292 -13.164,4.279 -14.15,8.884 -0.59,2.755 -3.149,1.553 -5.323,0.35 -1.463,-0.809 -2.752,-1.618 -3.15,-1.221 -0.986,0.987 -0.411,14.364 2.878,16.667 3.293,2.305 24.241,5.264 24.789,7.898 0.55,2.631 10.093,2.849 13.057,5.372 2.959,2.526 3.617,5.817 8.552,7.461 4.936,1.645 11.848,0.659 17.113,7.57 5.265,6.91 28.628,20.072 37.184,28.298 8.556,8.227 27.643,21.225 35.869,17.77 8.225,-3.455 25.515,-11.847 35.463,-11.518 9.947,0.331 16.2,-2.631 20.807,-8.556 4.606,-5.922 17.111,-20.072 26.655,-19.743 9.543,0.33 23.034,-2.632 26.982,-8.556 3.948,-5.922 7.898,-4.935 14.48,-8.883 6.581,-3.949 15.136,-10.531 16.453,-12.835 1.316,-2.303 4.444,-5.807 -2.14,-10.086 z" style="fill:#37302b;fill-rule:nonzero" id="path4"/>
        <path d="M 271.834,83.712 C 265.252,79.435 257.025,78.448 253.076,72.195 249.128,65.942 242.875,58.373 227.737,52.121 212.601,45.87 208.322,46.857 201.741,43.567 195.161,40.275 174.101,24.81 160.28,20.86 151.054,18.225 147.776,10 138.561,16.583 c -9.213,6.581 -19.414,11.846 -29.287,10.531 -9.874,-1.318 -17.11,1.974 -21.059,6.909 -3.951,4.937 -5.924,5.595 -12.176,4.937 -6.253,-0.659 -7.568,1.644 -13.818,5.265 -6.255,3.62 -9.547,0.657 -16.457,3.29 -6.909,2.633 -11.516,5.266 -12.833,10.858 -1.317,5.594 -0.986,2.634 -9.872,5.925 -8.884,3.29 -13.164,4.276 -14.15,8.884 C 7.922,77.789 2,76.8 1.012,77.789 c -0.987,0.988 -0.987,8.884 2.302,11.188 3.293,2.305 24.241,5.266 24.789,7.897 0.55,2.632 10.093,2.851 13.057,5.375 2.959,2.524 3.617,5.815 8.552,7.458 4.936,1.647 11.848,0.659 17.113,7.57 5.265,6.911 28.628,20.073 37.184,28.3 8.556,8.228 27.643,21.224 35.869,17.769 8.225,-3.455 25.515,-11.846 35.463,-11.517 9.947,0.33 16.2,-2.633 20.807,-8.556 4.606,-5.923 17.111,-20.072 26.655,-19.743 9.543,0.328 23.034,-2.633 26.982,-8.556 3.948,-5.923 7.898,-4.936 14.48,-8.885 6.581,-3.949 15.136,-10.529 16.453,-12.834 1.316,-2.304 -2.304,-5.265 -8.884,-9.543 z" style="fill:#542f29;fill-rule:nonzero" id="path6"/>
        <path d="m 165.213,160.21 c -1.49,-0.846 -0.817,-10.095 -1.634,-9.055 -0.815,1.035 -4.351,9.242 -5.142,6.712 -0.789,-2.527 -3.82,-8.215 -3.562,-4.921 0.259,3.293 -1.916,13.48 -2.591,11.597 -0.671,-1.882 -4.533,-10.314 -5.038,-7.55 -0.506,2.761 -2.643,7.599 -2.643,7.599 l -2.098,-11.644 -4.339,13.027 c 0,0 -2.384,-5.805 -6.569,-8.611 -4.184,-2.809 -12.824,-4.367 -7.965,0.324 4.858,4.69 7.28,10.709 7.28,10.709 0,0 -0.532,6.329 11.18,2.659 11.71,-3.668 24.613,-10.001 23.121,-10.846 z" style="fill:#8fa73d;fill-rule:nonzero" id="path8"/>
        <path d="m 136.926,158.98 c -7.471,0 -11.232,-7.787 -6.921,-16.364 4.799,-9.544 6.253,-7.571 23.364,-9.215 17.112,-1.645 21.391,-6.91 29.617,-17.44 6.708,-8.588 10.571,-10.828 19.976,-10.828 2.129,0 4.543,0.115 7.337,0.297 2.487,0.162 4.583,0.271 6.395,0.296 -0.24,0.919 -0.269,2.104 0.108,3.303 0.002,0.006 0.004,0.013 0.006,0.019 0.001,0.002 0.001,0.004 0.002,0.006 0.804,2.525 3.416,5.108 9.665,5.396 h 0.004 c 0.012,0 0.023,10e-4 0.035,0.002 h 0.008 c 0.019,0.001 0.04,0.002 0.059,0.002 0.004,0.001 0.01,0.001 0.014,0.001 0.01,0 0.019,0.001 0.029,0.001 0.008,0 0.016,10e-4 0.023,10e-4 0.011,0.001 0.022,0.001 0.033,0.001 0.012,0.001 0.022,0.001 0.033,0.002 h 0.022 c 0.011,0.001 0.021,0.001 0.032,0.001 0.005,0.001 0.011,0.001 0.016,0.001 0.016,10e-4 0.031,10e-4 0.047,0.002 h 0.016 c 0.014,0 0.028,0.001 0.042,0.001 0.003,0 0.006,0 0.008,10e-4 0.018,0 0.034,0.001 0.052,0.001 h 0.01 c 0.017,0.001 0.033,0.001 0.05,0.002 h 0.002 c 0.019,0 0.038,0 0.057,0.001 h 0.001 c 0.018,0 0.037,0.001 0.055,0.001 h 0.003 c 0.175,0.004 0.352,0.005 0.531,0.005 0.486,0 0.991,-0.012 1.518,-0.039 0.02,-10e-4 0.04,-0.002 0.06,-0.003 0.006,0 0.011,-10e-4 0.017,-10e-4 0.015,-0.001 0.031,-0.002 0.046,-0.002 0.005,-10e-4 0.012,-10e-4 0.017,-10e-4 0.019,-0.001 0.037,-0.002 0.056,-0.003 0.007,-0.001 0.015,-0.001 0.022,-0.002 0.012,0 0.025,-10e-4 0.037,-0.002 0.008,0 0.016,-0.001 0.024,-0.001 0.018,-10e-4 0.036,-0.002 0.054,-0.003 0.006,0 0.014,-10e-4 0.02,-10e-4 0.013,-0.001 0.026,-0.002 0.038,-0.003 0.009,0 0.018,-0.001 0.027,-0.001 0.012,-0.001 0.023,-0.002 0.036,-0.002 0.013,-0.001 0.026,-0.002 0.04,-0.003 0.01,0 0.019,-0.001 0.03,-0.002 0.01,0 0.021,-10e-4 0.032,-0.002 0.008,0 0.019,-0.001 0.027,-0.002 0.013,0 0.025,-0.001 0.038,-0.002 0.013,-10e-4 0.027,-0.002 0.04,-0.003 0.011,0 0.02,-10e-4 0.031,-0.002 0.009,0 0.017,-0.001 0.027,-0.001 0.009,-10e-4 0.018,-0.002 0.028,-0.002 0.011,-0.001 0.023,-0.002 0.034,-0.003 0.016,-0.001 0.031,-0.002 0.046,-0.003 0.009,-0.001 0.016,-0.001 0.025,-0.002 0.011,-0.001 0.022,-0.001 0.033,-0.002 0.007,-10e-4 0.013,-10e-4 0.02,-0.002 0.021,-0.001 0.04,-0.003 0.061,-0.004 0.006,-10e-4 0.013,-10e-4 0.019,-10e-4 0.012,-0.001 0.024,-0.002 0.036,-0.003 0.005,-0.001 0.011,-0.001 0.015,-0.001 0.026,-0.002 0.052,-0.004 0.078,-0.006 0.002,0 0.003,-0.001 0.005,-0.001 0.013,-10e-4 0.024,-0.002 0.037,-0.003 0.004,0 0.01,0 0.014,-10e-4 0.04,-0.003 0.08,-0.006 0.12,-0.009 0.004,-0.001 0.009,-0.001 0.014,-0.002 0.013,-10e-4 0.025,-0.002 0.038,-0.003 0.004,0 0.008,0 0.012,-10e-4 0.026,-0.002 0.052,-0.004 0.078,-0.007 h 0.003 c 0.013,-0.001 0.026,-0.002 0.039,-0.003 0.005,-0.001 0.008,-0.001 0.013,-0.001 0.042,-0.004 0.083,-0.008 0.125,-0.012 h 0.002 c 2.565,-0.234 4.675,-0.699 6.384,-1.326 0,-0.001 0.002,-0.001 0.003,-0.001 0.008,-0.004 0.016,-0.007 0.025,-0.01 0.003,-0.001 0.007,-0.002 0.01,-0.003 0.008,-0.003 0.015,-0.006 0.023,-0.009 0.001,0 0.001,0 0.002,-0.001 0.016,-0.006 0.032,-0.012 0.048,-0.018 0.006,-0.002 0.011,-0.004 0.017,-0.006 0.006,-0.002 0.012,-0.005 0.018,-0.007 0.009,-0.003 0.017,-0.006 0.027,-0.01 0.005,-0.002 0.011,-0.004 0.016,-0.006 0.009,-0.004 0.018,-0.007 0.027,-0.01 0.004,-0.002 0.007,-0.003 0.011,-0.005 0.01,-0.003 0.021,-0.008 0.03,-0.011 0.003,-0.001 0.006,-0.002 0.008,-0.003 0.012,-0.005 0.024,-0.01 0.036,-0.014 0.003,-10e-4 0.006,-0.002 0.008,-0.003 0.012,-0.005 0.022,-0.009 0.034,-0.013 0.001,-0.001 0.002,-0.002 0.004,-0.002 0.027,-0.011 0.053,-0.021 0.08,-0.032 7.606,-3.032 6.682,-9.42 2.433,-12.381 -1.718,-1.198 -2.93,-1.686 -4.013,-1.686 -1.857,0 -3.338,1.434 -6.352,3.188 -0.32,0.186 -0.64,0.363 -0.956,0.529 2.079,-1.564 4.352,-3.799 7.582,-6.923 8.237,-7.972 14.972,-11.437 22.631,-11.437 1.299,0 2.626,0.1 3.99,0.294 -1.398,0.445 -2.819,1.623 -5.179,2.997 -3.201,1.865 -6.255,2.7 -8.564,2.7 -1.133,0 -2.086,-0.201 -2.789,-0.58 -0.096,-0.051 -0.194,-0.076 -0.292,-0.076 -1.016,0 -2.079,2.62 -1.153,5.24 0.398,1.126 1.165,2.253 2.461,3.171 l 0.001,0.001 c 0.007,0.005 0.014,0.01 0.021,0.015 0.002,10e-4 0.005,0.003 0.008,0.005 0.005,0.004 0.01,0.007 0.015,0.011 0.007,0.005 0.012,0.008 0.019,0.013 0.002,0.001 0.004,0.003 0.007,0.005 0.005,0.003 0.01,0.007 0.016,0.011 1.167,0.804 2.753,1.442 4.869,1.769 0.003,0 0.005,0.001 0.008,0.001 0.01,10e-4 0.019,0.003 0.029,0.004 0.002,0.001 0.005,0.001 0.007,0.001 0.016,0.003 0.032,0.005 0.048,0.008 0.005,0 0.012,0.001 0.017,0.002 0.007,10e-4 0.015,0.002 0.022,0.003 0.008,0.002 0.017,0.003 0.025,0.004 0.009,0.001 0.017,0.003 0.026,0.004 0.009,0.001 0.019,0.003 0.029,0.004 0.005,10e-4 0.01,10e-4 0.016,0.002 0.012,0.002 0.024,0.004 0.037,0.005 0.002,0.001 0.003,0.001 0.004,0.001 0.014,0.002 0.029,0.004 0.043,0.006 0.004,0.001 0.008,0.001 0.012,0.002 0.03,0.004 0.06,0.008 0.091,0.012 h 0.004 c 0.892,0.117 1.873,0.18 2.952,0.18 0.486,0 0.991,-0.013 1.517,-0.039 0.02,-0.001 0.041,-0.002 0.061,-0.003 0.005,-0.001 0.01,-0.001 0.015,-0.001 0.018,-10e-4 0.037,-0.002 0.055,-0.003 h 0.007 c 0.021,-0.002 0.043,-0.003 0.065,-0.004 h 0.002 c 0.022,-0.001 0.043,-0.002 0.065,-0.004 h 0.002 c 3.264,-0.186 5.863,-0.72 7.885,-1.485 -7.448,6.79 -16.31,9.683 -26.802,14.93 -11.847,5.923 -18.427,6.91 -30.603,13.491 -11.355,6.137 -22.684,19.302 -28.988,19.301 -0.455,0 -0.885,-0.069 -1.287,-0.214 -1.841,-0.667 -3.711,-0.958 -5.595,-0.958 -10.322,0 -20.991,8.75 -28.828,12.387 l -0.791,-4.388 -1.806,5.422 c -0.381,0.121 -0.753,0.223 -1.115,0.304 -0.929,0.208 -1.817,0.306 -2.658,0.306 z M 271.247,90.543 c -0.335,-1.797 -1.487,-3.475 -3.145,-4.631 -0.243,-0.17 -0.476,-0.325 -0.701,-0.467 3.474,1.249 4.265,3.146 3.846,5.098 z" style="fill:#6f3923;fill-rule:nonzero" id="path10"/>
        <path d="m 140.699,158.37 1.806,-5.422 0.791,4.388 c -0.905,0.42 -1.773,0.772 -2.597,1.034 z" style="fill:#a1a438;fill-rule:nonzero" id="path12"/>
        <path d="m 228.395,92.151 c -8.881,7.45 -16.452,3.737 -28.629,3.737 -12.176,0 -16.452,9.542 -23.034,16.672 -6.582,7.13 -33.564,11.956 -46.069,16.563 -12.503,4.608 -7.567,18.758 -7.238,12.834 0.328,-5.923 19.743,-17.441 36.525,-17.769 16.782,-0.33 24.022,-17.77 31.92,-21.939 7.896,-4.17 21.061,-2.412 28.629,-2.083 7.568,0.329 22.047,-18.429 22.047,-18.429 3.337,-4.046 -5.265,2.963 -14.151,10.414 z" style="fill:#37302b;fill-rule:nonzero" id="path14"/>
        <path d="m 99.085,135.277 c -7.472,0 -11.234,-7.787 -6.921,-16.364 4.797,-9.544 6.251,-7.569 23.363,-9.215 1.906,-0.183 3.652,-0.411 5.263,-0.686 0.302,0.481 0.687,0.947 1.166,1.381 10e-4,0.001 0.003,0.002 0.004,0.003 0.005,0.005 0.01,0.01 0.015,0.014 0.002,0.002 0.004,0.004 0.006,0.006 0.006,0.004 0.011,0.01 0.017,0.014 0.004,0.004 0.007,0.007 0.011,0.011 0.002,10e-4 0.004,0.003 0.006,0.005 0.99,0.876 2.377,1.617 4.274,2.076 h 0.001 c 0.028,0.007 0.055,0.013 0.083,0.02 0.003,0.001 0.006,0.001 0.01,0.002 0.016,0.004 0.032,0.008 0.049,0.012 0.001,0 0.002,0 0.004,0.001 0.007,0.001 0.014,0.003 0.021,0.005 0.006,0.001 0.011,0.002 0.017,0.003 0.006,0.002 0.013,0.003 0.019,0.005 0.011,0.002 0.022,0.005 0.033,0.007 0.005,0.001 0.01,0.002 0.016,0.004 0.008,10e-4 0.015,0.003 0.023,0.005 0.005,0.001 0.01,0.002 0.015,0.003 0.012,0.003 0.024,0.005 0.036,0.008 0.003,0.001 0.007,0.002 0.011,0.002 0.009,0.002 0.02,0.005 0.03,0.007 0.003,0.001 0.007,0.001 0.01,0.002 0.014,0.003 0.026,0.006 0.039,0.009 h 0.005 c 0.012,0.003 0.025,0.006 0.038,0.008 0.002,0.001 0.004,0.001 0.006,0.002 0.029,0.006 0.058,0.012 0.087,0.018 1.187,0.24 2.557,0.375 4.137,0.375 0.486,0.001 0.992,-0.012 1.519,-0.039 0.017,-10e-4 0.033,-0.002 0.05,-0.003 6.995,-0.361 10.975,-2.304 12.806,-4.701 0.002,-0.003 0.004,-0.006 0.006,-0.009 0.002,-0.002 0.003,-0.003 0.005,-0.005 2.407,-3.166 1.075,-7.118 -2.008,-9.268 -0.975,-0.68 -1.787,-1.131 -2.506,-1.393 1.366,-1.606 2.76,-3.383 4.292,-5.343 6.707,-8.586 10.569,-10.828 19.971,-10.828 2.13,0 4.545,0.115 7.341,0.297 2.846,0.186 5.181,0.302 7.163,0.302 8.559,0 10.551,-2.158 18.834,-10.175 8.236,-7.97 14.97,-11.436 22.628,-11.436 1.826,0 3.706,0.197 5.67,0.578 10.201,1.974 6.61,7.525 3.621,10.858 -7.999,8.924 -17.77,11.848 -29.617,17.771 -11.845,5.923 -18.427,6.91 -30.604,13.49 -11.353,6.139 -22.684,19.301 -28.986,19.3 -0.455,0 -0.885,-0.069 -1.286,-0.214 -1.84,-0.666 -3.71,-0.957 -5.592,-0.957 -12.066,0 -24.605,11.956 -32.545,13.726 -0.928,0.207 -1.815,0.306 -2.656,0.306 z M 212.564,77.333 c 0.012,0.002 0.024,0.004 0.036,0.006 0.471,0.081 0.977,0.12 1.506,0.12 1.233,0 2.594,-0.209 3.954,-0.571 6.601,-1.752 13.168,-7.092 4.905,-9.519 -0.771,-0.226 -1.582,-0.322 -2.43,-0.322 -3.254,0 -7.049,1.413 -11.226,2.272 -5.159,1.062 -3.685,6.597 2.879,7.942 h 0.001 c 0.009,0.002 0.018,0.004 0.027,0.006 0.001,0 0.003,0.001 0.004,0.001 0.026,0.005 0.053,0.01 0.08,0.016 0.002,0 0.004,10e-4 0.007,10e-4 0.008,0.002 0.016,0.003 0.024,0.005 0.003,0 0.006,10e-4 0.01,0.002 0.024,0.004 0.048,0.009 0.072,0.013 0.005,10e-4 0.01,0.002 0.015,0.003 0.006,10e-4 0.013,0.002 0.019,0.004 0.006,0.001 0.012,0.002 0.018,0.003 0.007,0.001 0.013,0.002 0.02,0.004 0.01,10e-4 0.019,0.003 0.029,0.005 0.005,0.001 0.009,0.002 0.014,0.002 0.008,0.002 0.015,0.003 0.023,0.004 0.004,0.001 0.009,0.002 0.013,0.003 z" style="fill:#6f3923;fill-rule:nonzero" id="path16"/>
        <path d="m 190.553,68.446 c -8.883,7.451 -16.452,3.739 -28.628,3.739 -12.175,0 -16.452,9.543 -23.035,16.672 -6.583,7.131 -33.565,11.956 -46.069,16.563 -12.504,4.607 -7.568,18.757 -7.239,12.835 0.329,-5.924 19.743,-17.442 36.527,-17.771 16.781,-0.328 24.022,-17.769 31.918,-21.939 7.898,-4.17 21.061,-2.411 28.629,-2.083 7.568,0.329 22.046,-18.426 22.046,-18.426 3.339,-4.047 -5.263,2.961 -14.149,10.41 z" style="fill:#37302b;fill-rule:nonzero" id="path18"/>
        <path d="m 57.001,111.397 c -1.541,0 -2.924,-0.331 -4.112,-0.932 1.509,0.274 3.108,0.509 4.727,0.915 -0.208,0.011 -0.412,0.017 -0.615,0.017 z" style="fill:#5b3f25;fill-rule:nonzero" id="path20"/>
        <path d="m 57.616,111.38 c -1.619,-0.406 -3.218,-0.641 -4.727,-0.915 -4.57,-2.314 -6.237,-8.625 -2.811,-15.433 0.221,-0.44 0.434,-0.854 0.643,-1.246 0.637,2.494 2.658,4.98 5.885,5.938 h 10e-4 c 0.009,0.003 0.018,0.005 0.028,0.008 0.001,0 0.002,0.001 0.003,0.001 0.027,0.008 0.053,0.015 0.08,0.023 0.003,0.001 0.006,0.002 0.01,0.003 0.007,0.002 0.014,0.004 0.022,0.006 0.005,0.001 0.009,0.003 0.014,0.004 0.01,0.003 0.019,0.005 0.029,0.008 0.007,0.002 0.014,0.004 0.022,0.006 0.005,0.001 0.011,0.003 0.016,0.004 0.007,0.002 0.014,0.004 0.021,0.006 0.005,10e-4 0.01,0.003 0.014,0.004 0.012,0.003 0.024,0.006 0.035,0.009 0.472,0.124 0.977,0.182 1.506,0.182 6.509,0 16.581,-8.838 11.199,-13.836 1.184,-0.093 2.459,-0.202 3.835,-0.335 17.112,-1.645 21.39,-6.911 29.616,-17.441 6.708,-8.584 10.571,-10.827 19.971,-10.827 2.131,0 4.546,0.115 7.343,0.298 2.846,0.186 5.18,0.301 7.162,0.301 8.559,0 10.551,-2.157 18.833,-10.173 8.238,-7.972 14.971,-11.438 22.629,-11.438 1.826,0 3.707,0.198 5.671,0.578 10.201,1.975 6.607,7.526 3.619,10.86 -8,8.921 -17.77,11.846 -29.616,17.769 -11.846,5.923 -18.429,6.91 -30.603,13.491 -11.354,6.139 -22.684,19.302 -28.987,19.3 -0.455,0 -0.885,-0.069 -1.286,-0.214 -1.841,-0.666 -3.711,-0.957 -5.594,-0.957 -12.065,0 -24.604,11.955 -32.543,13.728 -0.704,0.157 -1.385,0.251 -2.04,0.288 z" style="fill:#6f3923;fill-rule:nonzero" id="path22"/>
        <path d="m 148.47,44.565 c -8.886,7.451 -16.455,3.737 -28.631,3.737 -12.174,0 -16.452,9.545 -23.035,16.674 -6.581,7.131 -33.563,11.955 -46.067,16.564 -12.505,4.605 -7.569,18.756 -7.24,12.833 0.329,-5.923 19.744,-17.442 36.525,-17.77 16.782,-0.331 24.023,-17.769 31.92,-21.939 7.899,-4.17 21.061,-2.412 28.629,-2.083 7.569,0.329 22.046,-18.428 22.046,-18.428 3.338,-4.046 -5.264,2.962 -14.147,10.412 z" style="fill:#37302b;fill-rule:nonzero" id="path24"/>
        <path d="m 17.157,89.202 c -1.716,0 -3.267,-0.268 -4.566,-0.795 h 0.144 c 0.487,0 0.991,-0.013 1.518,-0.039 0.02,-10e-4 0.04,-0.002 0.059,-0.003 0.007,-10e-4 0.012,-10e-4 0.019,-10e-4 0.016,-0.001 0.032,-0.002 0.049,-0.003 0.003,0 0.008,0 0.012,-0.001 0.019,-0.001 0.041,-0.002 0.061,-0.003 0.003,0 0.006,0 0.01,-0.001 0.018,0 0.035,-10e-4 0.052,-0.002 0.005,-0.001 0.009,-0.001 0.013,-0.001 0.021,-10e-4 0.041,-0.003 0.061,-0.004 h 0.007 c 0.018,-0.001 0.037,-0.002 0.056,-0.003 0.004,-0.001 0.008,-0.001 0.012,-0.001 0.041,-0.003 0.081,-0.005 0.122,-0.008 0.004,0 0.008,0 0.012,-0.001 0.019,-0.001 0.04,-0.002 0.059,-0.003 h 0.001 c 0.022,-0.002 0.044,-0.003 0.065,-0.005 h 0.004 c 0.021,-0.001 0.041,-0.003 0.063,-0.004 h 10e-4 c 0.022,-0.002 0.043,-0.003 0.065,-0.005 h 0.001 c 0.02,-0.001 0.041,-0.003 0.061,-0.004 0.003,0 0.005,-0.001 0.008,-0.001 0.042,-0.003 0.082,-0.006 0.124,-0.009 h 0.007 c 0.02,-0.002 0.041,-0.004 0.061,-0.005 0.043,-0.003 0.086,-0.007 0.128,-0.01 h 0.003 c 0.043,-0.004 0.085,-0.007 0.128,-0.011 14.959,-1.254 14.812,-10.219 9.534,-13.898 -1.717,-1.196 -2.928,-1.684 -4.012,-1.684 -1.857,0 -3.338,1.433 -6.352,3.186 -1.811,1.054 -3.576,1.779 -5.185,2.21 0.156,-0.366 0.33,-0.742 0.523,-1.126 4.799,-9.543 16.042,1.014 25.184,-13.543 3.243,-5.163 5.551,-6.119 7.693,-6.119 0.631,0 1.247,0.083 1.869,0.166 0.622,0.083 1.248,0.166 1.9,0.166 1.962,0 4.15,-0.753 7.097,-4.525 8.225,-10.53 27.841,-8.887 38.371,-17.658 11.654,-9.709 31.719,-0.279 41.921,-10.151 6.462,-6.253 7.707,-8.083 10.345,-8.083 1.526,0 3.519,0.613 7.257,1.336 2.72,0.527 4.714,1.85 5.903,3.639 -0.05,-0.016 -0.101,-0.031 -0.151,-0.046 -0.772,-0.226 -1.583,-0.322 -2.431,-0.322 -3.253,0 -7.049,1.413 -11.226,2.273 -4.035,0.83 -4.01,4.397 -0.667,6.554 1.017,0.658 2.343,1.185 3.959,1.463 0.472,0.081 0.978,0.12 1.507,0.12 1.38,0 2.92,-0.262 4.438,-0.706 2.039,-0.595 4.038,-1.518 5.563,-2.576 -1,4.09 -4.59,8.521 -11.172,11.649 -2.827,1.345 -5.207,1.77 -7.393,1.77 -1.88,0 -3.616,-0.315 -5.368,-0.629 -1.752,-0.315 -3.52,-0.629 -5.464,-0.629 -2.502,0 -5.296,0.521 -8.723,2.235 -11.846,5.923 -17.689,4.987 -26.36,16.009 -7.596,9.66 -24.221,16.924 -32.019,16.924 -0.985,0 -1.83,-0.116 -2.497,-0.357 -1.84,-0.666 -3.71,-0.957 -5.593,-0.957 -12.066,0 -24.604,11.957 -32.546,13.727 -1.515,0.338 -2.971,0.505 -4.325,0.505 z" style="fill:#5b3127;fill-rule:nonzero" id="path26"/>
        <path d="m 67.265,84.669 c -3.73,-1.666 -8.39,1.316 -13.656,2.962 -5.265,1.645 -3.619,10.366 3.292,12.175 6.91,1.81 21.059,-10.367 10.364,-15.137 z" style="fill:#963c22;fill-rule:nonzero" id="path28"/>
        <path d="M 56.901,95.728 C 53.703,94.89 51.65,92.573 50.868,90.16 c -1.275,3.241 0.944,8.314 6.033,9.646 5.765,1.507 16.554,-6.71 13.772,-12.247 -1.902,4.715 -9.328,9.333 -13.772,8.169 z" style="fill:#37302b;fill-rule:nonzero" id="path30"/>
        <path d="m 56.376,94.391 c -0.154,0 -0.305,-0.005 -0.451,-0.016 -4.394,-0.313 -4.376,-4.967 -1.285,-4.967 0.144,0 0.294,0.01 0.452,0.031 0.141,0.019 0.279,0.029 0.412,0.029 1.314,0 2.236,-0.884 3.129,-1.768 0.893,-0.883 1.757,-1.766 2.954,-1.766 0.508,0 1.076,0.159 1.731,0.545 5.416,3.186 -2.275,7.912 -6.942,7.912 z" style="fill:#b15929;fill-rule:nonzero" id="path32"/>
        <path d="m 222.965,67.369 c -3.733,-1.096 -8.391,0.867 -13.656,1.95 -5.265,1.084 -3.621,6.826 3.291,8.02 6.91,1.191 21.06,-6.828 10.365,-9.97 z" style="fill:#963c22;fill-rule:nonzero" id="path34"/>
        <path d="m 212.6,74.653 c -3.2,-0.552 -5.253,-2.079 -6.033,-3.668 -1.277,2.135 0.946,5.475 6.033,6.354 5.763,0.995 16.553,-4.42 13.77,-8.066 -1.9,3.104 -9.327,6.146 -13.77,5.38 z" style="fill:#37302b;fill-rule:nonzero" id="path36"/>
        <path d="m 212.076,73.771 c -0.154,0 -0.306,-0.003 -0.453,-0.01 -4.393,-0.206 -4.376,-3.271 -1.286,-3.271 0.144,0 0.295,0.007 0.453,0.021 0.141,0.012 0.278,0.018 0.411,0.018 1.315,0 2.237,-0.582 3.13,-1.164 0.893,-0.581 1.756,-1.163 2.953,-1.163 0.507,0 1.075,0.105 1.73,0.359 5.417,2.098 -2.271,5.211 -6.938,5.21 z" style="fill:#b15929;fill-rule:nonzero" id="path38"/>
        <path d="m 157.474,22.149 c -3.732,-1.096 -8.391,0.866 -13.657,1.951 -5.264,1.083 -3.618,6.825 3.292,8.017 6.909,1.191 21.06,-6.826 10.365,-9.968 z" style="fill:#963c22;fill-rule:nonzero" id="path40"/>
        <path d="m 147.109,29.433 c -3.2,-0.552 -5.254,-2.081 -6.033,-3.667 -1.274,2.133 0.943,5.474 6.033,6.351 5.765,0.995 16.552,-4.419 13.771,-8.066 -1.902,3.107 -9.328,6.148 -13.771,5.382 z" style="fill:#37302b;fill-rule:nonzero" id="path42"/>
        <path d="m 146.587,28.55 c -0.155,0 -0.307,-0.003 -0.454,-0.01 -4.394,-0.204 -4.377,-3.27 -1.289,-3.27 0.144,0 0.295,0.007 0.453,0.021 0.142,0.012 0.279,0.018 0.413,0.018 1.314,0 2.237,-0.582 3.13,-1.163 0.892,-0.582 1.755,-1.164 2.952,-1.164 0.508,0 1.076,0.105 1.732,0.36 5.415,2.095 -2.271,5.209 -6.937,5.208 z" style="fill:#b15929;fill-rule:nonzero" id="path44"/>
        <path d="m 240.033,100.452 c -4.663,-3.25 -5.594,-1.275 -10.365,1.502 -4.772,2.775 -9.213,3.27 -11.353,2.117 -1.082,-0.583 -2.46,2.291 -1.444,5.164 0.991,2.804 4.26,5.608 12.304,5.202 16.288,-0.821 16.288,-10.202 10.858,-13.985 z" style="fill:#963c22;fill-rule:nonzero" id="path46"/>
        <path d="m 229.175,111.64 c -8.668,0.438 -11.792,-2.85 -12.495,-5.851 -0.778,3.137 0.884,9.234 12.495,8.648 11.623,-0.586 14.95,-5.53 13.927,-9.689 -0.84,3.321 -4.857,6.436 -13.927,6.892 z" style="fill:#37302b;fill-rule:nonzero" id="path48"/>
        <path d="m 227.494,108.01 c -4.591,0 -3.873,-2.295 0.363,-3.115 3.715,-0.72 4.987,-2.574 6.358,-2.574 0.511,0 1.036,0.258 1.706,0.929 0,0 3.29,3.126 -4.939,4.441 -1.393,0.223 -2.551,0.319 -3.488,0.319 z" style="fill:#b15929;fill-rule:nonzero" id="path50"/>
        <path d="m 143.357,98.995 c -4.662,-3.248 -5.593,-1.273 -10.365,1.503 -4.772,2.776 -9.214,3.27 -11.354,2.117 -1.082,-0.582 -2.459,2.291 -1.444,5.165 0.991,2.804 4.259,5.608 12.304,5.201 16.287,-0.824 16.287,-10.2 10.859,-13.986 z" style="fill:#963c22;fill-rule:nonzero" id="path52"/>
        <path d="m 132.498,110.184 c -8.666,0.438 -11.791,-2.85 -12.492,-5.851 -0.78,3.135 0.881,9.234 12.492,8.648 11.624,-0.586 14.949,-5.529 13.93,-9.691 -0.843,3.323 -4.858,6.437 -13.93,6.894 z" style="fill:#37302b;fill-rule:nonzero" id="path54"/>
        <path d="m 130.817,106.553 c -4.588,0 -3.871,-2.294 0.365,-3.115 3.716,-0.719 4.986,-2.573 6.356,-2.573 0.51,0 1.035,0.258 1.705,0.928 0,0 3.291,3.126 -4.935,4.441 -1.396,0.224 -2.554,0.319 -3.491,0.319 z" style="fill:#b15929;fill-rule:nonzero" id="path56"/>
        <path d="m 268.102,85.912 c -4.663,-3.249 -5.595,-1.275 -10.366,1.502 -4.771,2.779 -9.215,3.271 -11.353,2.12 -1.084,-0.584 -2.461,2.29 -1.445,5.164 0.991,2.803 4.261,5.607 12.304,5.201 16.288,-0.823 16.288,-10.201 10.86,-13.987 z" style="fill:#963c22;fill-rule:nonzero" id="path58"/>
        <path d="m 257.242,97.102 c -8.667,0.437 -11.79,-2.851 -12.494,-5.851 -0.776,3.136 0.884,9.233 12.494,8.648 11.623,-0.588 14.949,-5.531 13.93,-9.691 -0.843,3.321 -4.859,6.436 -13.93,6.894 z" style="fill:#37302b;fill-rule:nonzero" id="path60"/>
        <path d="m 255.564,93.472 c -4.593,0 -3.875,-2.296 0.363,-3.116 3.715,-0.719 4.985,-2.574 6.355,-2.574 0.511,0 1.036,0.258 1.706,0.928 0,0 3.289,3.127 -4.936,4.443 -1.394,0.223 -2.552,0.319 -3.488,0.319 z" style="fill:#b15929;fill-rule:nonzero" id="path62"/>
        <path d="M 25.111,74.381 C 20.45,71.133 19.518,73.107 14.747,75.883 9.976,78.659 5.533,79.154 3.394,78 2.311,77.418 0.933,80.291 1.949,83.166 2.94,85.969 6.209,88.773 14.253,88.368 30.541,87.544 30.541,78.166 25.111,74.381 Z" style="fill:#963c22;fill-rule:nonzero" id="path64"/>
        <path d="M 14.253,85.57 C 5.588,86.008 2.463,82.719 1.761,79.72 0.981,82.854 2.645,88.954 14.253,88.368 25.876,87.78 29.203,82.836 28.182,78.677 27.34,82 23.326,85.112 14.253,85.57 Z" style="fill:#37302b;fill-rule:nonzero" id="path66"/>
        <path d="m 12.577,81.94 c -4.592,0 -3.876,-2.295 0.359,-3.117 3.716,-0.719 4.987,-2.572 6.357,-2.572 0.511,0 1.036,0.258 1.707,0.928 0,0 3.29,3.125 -4.937,4.443 -1.393,0.223 -2.549,0.318 -3.486,0.318 z" style="fill:#b15929;fill-rule:nonzero" id="path68"/>
        <path d="m 124.247,156.492 c -1.206,-0.384 2.193,2.302 4.883,4.881 2.688,2.576 3.618,7.129 3.618,7.129 1.536,2.852 2.359,1.536 1.099,-3.126 -1.265,-4.663 -8.392,-8.502 -9.6,-8.884 z" style="fill:#91c961;fill-rule:nonzero" id="path70"/>
        <path d="m 138.836,167.734 c 0,0 4.058,-5.537 3.291,-12.888 z" style="fill:#91c961;fill-rule:nonzero" id="path72"/>
        <path d="m 144.432,165.979 c -1.429,2.357 3.946,1.755 3.344,-8.664 0,0 -1.92,6.305 -3.344,8.664 z" style="fill:#91c961;fill-rule:nonzero" id="path74"/>
        <path d="m 144.209,135.832 c 0,0 4.139,4.709 4.424,0 0.287,-4.71 0,-30.399 0,-30.399 0,0 -4.137,-4.281 -4.424,2.996 -0.285,7.277 0,27.403 0,27.403 z" style="fill:#46612e;fill-rule:nonzero" id="path76"/>
        <path d="m 146.924,107.552 c 0,0 0.999,7.171 -14.414,9.076 -15.414,1.905 -26.12,0.399 -27.546,-5.627 -1.427,-6.026 3.46,-13.442 18.268,-14.601 12.131,-0.951 23.049,1.849 23.692,11.152 z" style="fill:#46612e;fill-rule:nonzero" id="path78"/>
        <path d="m 146.025,104.193 c 0,0 0.815,7.496 16.258,5.747 15.439,-1.747 25.459,-5.829 25.347,-12.269 -0.112,-6.437 -6.702,-12.776 -21.372,-10.416 -12.014,1.932 -21.921,7.371 -20.233,16.938 z" style="fill:#557837;fill-rule:nonzero" id="path80"/>
        <path d="m 142.82,101.462 c 0,0 -0.951,-2.831 -7.99,-4.032 -7.041,-1.206 -7.519,-0.746 -7.519,-0.746 0,0 6.091,5.749 6.661,7.469 0.571,1.718 -6.279,-5.454 -10.275,-6.2 -3.996,-0.746 -14.843,1.194 -16.557,5.75 -1.71,4.557 15.51,4.857 15.51,4.857 0,0 -13.845,-1.196 -15.628,0 -1.784,1.195 -0.452,5.679 7.827,5.08 8.276,-0.597 15.308,-4.668 23.692,-5.38 8.383,-0.708 5.322,-4.656 4.279,-6.798 z" style="fill:#557837;fill-rule:nonzero" id="path82"/>
        <path d="m 146.428,103.291 c 0,0 9.231,0.571 13.035,2.759 3.804,2.187 12.657,1.738 13.796,0.44 1.141,-1.297 -5.523,2.056 -9.851,0 -4.326,-2.059 -7.845,-3.391 -8.132,-3.675 -0.284,-0.286 6.946,-2.759 12.942,-0.569 5.99,2.185 13.51,-0.764 14.461,-1.907 0.951,-1.14 -1.62,0.286 -6.851,0.479 -5.233,0.189 -5.615,0.455 -8.563,-0.915 -2.948,-1.369 0.189,-3.94 6.089,-5.651 5.897,-1.713 10.094,-1.143 9.519,-1.713 -0.577,-0.573 -0.29,-3.71 -6.476,-1.713 -6.184,1.998 -12.462,4.757 -13.606,6.564 -1.14,1.809 -3.137,2.855 -4.567,2.57 -1.425,-0.285 0.193,-5.708 3.714,-8.466 3.519,-2.762 -4.377,-2.594 -5.804,1.983 -1.429,4.581 -1.523,7.625 -4.187,8.387 -2.664,0.761 -7.041,-0.19 -5.519,1.427 z" style="fill:#46612e;fill-rule:nonzero" id="path84"/>
        <path d="m 150.726,132.935 c 0,0 -3.25,3.582 -5.742,2.562 -2.491,-1.019 -4.381,-1.443 -4.381,-1.443 0,0 4.282,4.58 7.035,3.727 2.752,-0.858 3.088,-4.846 3.088,-4.846 z" style="fill:#813e20;fill-rule:nonzero" id="path86"/>
        <path d="m 149.801,132.115 c 0,0 2.439,1.316 0.925,2.968 -1.513,1.655 -5.326,2.227 -6.794,1.45 -1.465,-0.778 -3.329,-2.885 -3.329,-2.885 0,0 -2.47,0.316 -3.136,0.848 -0.664,0.528 5.144,0.363 4.045,3.39 -1.099,3.03 1.013,3.127 3.472,2.082 2.462,-1.05 3.506,-0.955 6.737,-1.334 3.232,-0.377 6.047,-5.629 -1.92,-6.519 z" style="fill:#542f29;fill-rule:nonzero" id="path88"/>
        <path d="m 228.543,100.574 c 0,0 4.139,4.709 4.424,0 0.286,-4.71 0,-30.403 0,-30.403 0,0 -4.139,-4.279 -4.424,2.999 -0.286,7.278 0,27.404 0,27.404 z" style="fill:#46612e;fill-rule:nonzero" id="path90"/>
        <path d="m 231.257,72.292 c 0,0 1,7.172 -14.414,9.079 -15.415,1.904 -26.119,0.398 -27.546,-5.63 -1.426,-6.026 3.461,-13.44 18.267,-14.599 12.132,-0.951 23.05,1.85 23.693,11.15 z" style="fill:#46612e;fill-rule:nonzero" id="path92"/>
        <path d="m 230.357,68.933 c 0,0 0.816,7.498 16.257,5.748 15.443,-1.75 25.463,-5.826 25.351,-12.267 -0.115,-6.439 -6.702,-12.778 -21.372,-10.418 -12.017,1.933 -21.922,7.373 -20.236,16.937 z" style="fill:#557837;fill-rule:nonzero" id="path94"/>
        <path d="m 227.152,66.204 c 0,0 -0.949,-2.831 -7.987,-4.032 -7.042,-1.206 -7.521,-0.749 -7.521,-0.749 0,0 6.091,5.752 6.663,7.472 0.57,1.718 -6.281,-5.454 -10.276,-6.2 -3.998,-0.749 -14.843,1.193 -16.557,5.751 -1.71,4.557 15.508,4.856 15.508,4.856 0,0 -13.844,-1.195 -15.626,0 -1.785,1.194 -0.451,5.68 7.825,5.08 8.278,-0.595 15.308,-4.667 23.693,-5.379 8.383,-0.711 5.32,-4.658 4.278,-6.799 z" style="fill:#557837;fill-rule:nonzero" id="path96"/>
        <path d="m 230.761,68.033 c 0,0 9.23,0.57 13.037,2.759 3.804,2.186 12.655,1.738 13.796,0.44 1.14,-1.299 -5.525,2.057 -9.852,0 -4.327,-2.059 -7.847,-3.391 -8.133,-3.674 -0.284,-0.287 6.947,-2.761 12.941,-0.572 5.994,2.187 13.511,-0.762 14.462,-1.904 0.952,-1.141 -1.619,0.287 -6.852,0.474 -5.231,0.193 -5.612,0.458 -8.562,-0.91 -2.949,-1.372 0.191,-3.94 6.091,-5.651 5.896,-1.716 10.094,-1.144 9.518,-1.716 -0.577,-0.571 -0.289,-3.708 -6.477,-1.711 -6.182,2 -12.462,4.756 -13.604,6.564 -1.14,1.809 -3.141,2.855 -4.568,2.571 -1.424,-0.286 0.192,-5.708 3.712,-8.467 3.522,-2.762 -4.376,-2.598 -5.803,1.984 -1.427,4.578 -1.523,7.624 -4.187,8.386 -2.663,0.759 -7.039,-0.192 -5.519,1.427 z" style="fill:#46612e;fill-rule:nonzero" id="path98"/>
        <path d="m 235.061,97.674 c 0,0 -3.251,3.585 -5.744,2.566 -2.489,-1.02 -4.381,-1.444 -4.381,-1.444 0,0 4.283,4.581 7.036,3.725 2.752,-0.855 3.089,-4.847 3.089,-4.847 z" style="fill:#813e20;fill-rule:nonzero" id="path100"/>
        <path d="m 234.135,96.857 c 0,0 2.439,1.316 0.926,2.971 -1.514,1.652 -5.328,2.224 -6.794,1.447 -1.468,-0.777 -3.331,-2.886 -3.331,-2.886 0,0 -2.47,0.318 -3.135,0.847 -0.666,0.531 5.144,0.365 4.045,3.392 -1.1,3.031 1.013,3.127 3.471,2.082 2.461,-1.048 3.506,-0.955 6.738,-1.333 3.231,-0.378 6.044,-5.628 -1.92,-6.52 z" style="fill:#542f29;fill-rule:nonzero" id="path102"/>
        <path d="m 59.875,86.119 c 0,0 4.14,4.711 4.424,0 0.286,-4.709 0,-30.399 0,-30.399 0,0 -4.137,-4.281 -4.424,2.996 -0.285,7.28 0,27.403 0,27.403 z" style="fill:#46612e;fill-rule:nonzero" id="path104"/>
        <path d="m 62.59,57.841 c 0,0 0.999,7.172 -14.415,9.075 -15.413,1.906 -26.117,0.4 -27.546,-5.627 -1.427,-6.026 3.461,-13.44 18.269,-14.6 12.131,-0.953 23.048,1.85 23.692,11.152 z" style="fill:#46612e;fill-rule:nonzero" id="path106"/>
        <path d="m 61.691,54.482 c 0,0 0.815,7.496 16.257,5.748 15.442,-1.75 25.46,-5.829 25.349,-12.27 -0.112,-6.439 -6.703,-12.775 -21.372,-10.418 -12.016,1.932 -21.922,7.372 -20.234,16.94 z" style="fill:#557837;fill-rule:nonzero" id="path108"/>
        <path d="m 58.488,51.751 c 0,0 -0.952,-2.83 -7.992,-4.033 -7.04,-1.203 -7.518,-0.746 -7.518,-0.746 0,0 6.09,5.752 6.661,7.469 0.57,1.719 -6.278,-5.453 -10.276,-6.199 -3.996,-0.747 -14.842,1.193 -16.556,5.752 -1.711,4.554 15.511,4.856 15.511,4.856 0,0 -13.847,-1.195 -15.629,0 -1.785,1.193 -0.453,5.677 7.826,5.077 8.278,-0.595 15.307,-4.667 23.692,-5.379 8.383,-0.707 5.322,-4.657 4.281,-6.797 z" style="fill:#557837;fill-rule:nonzero" id="path110"/>
        <path d="m 62.094,53.578 c 0,0 9.23,0.574 13.035,2.759 3.808,2.19 12.656,1.739 13.797,0.443 1.14,-1.3 -5.524,2.057 -9.851,0 -4.327,-2.061 -7.847,-3.39 -8.134,-3.677 -0.283,-0.287 6.948,-2.76 12.942,-0.57 5.994,2.186 13.509,-0.76 14.463,-1.903 0.95,-1.141 -1.621,0.284 -6.851,0.475 -5.234,0.192 -5.614,0.455 -8.563,-0.914 -2.95,-1.369 0.189,-3.936 6.088,-5.65 5.898,-1.713 10.095,-1.143 9.519,-1.713 -0.575,-0.571 -0.289,-3.711 -6.475,-1.714 -6.183,2.001 -12.463,4.759 -13.605,6.567 -1.141,1.808 -3.139,2.855 -4.567,2.568 -1.426,-0.287 0.19,-5.708 3.712,-8.468 3.519,-2.76 -4.378,-2.594 -5.805,1.985 -1.427,4.579 -1.522,7.626 -4.185,8.386 -2.666,0.762 -7.043,-0.19 -5.52,1.426 z" style="fill:#46612e;fill-rule:nonzero" id="path112"/>
        <path d="m 66.392,83.222 c 0,0 -3.25,3.584 -5.74,2.564 -2.492,-1.021 -4.382,-1.443 -4.382,-1.443 0,0 4.281,4.58 7.034,3.726 2.753,-0.857 3.088,-4.847 3.088,-4.847 z" style="fill:#813e20;fill-rule:nonzero" id="path114"/>
        <path d="m 65.469,82.403 c 0,0 2.438,1.319 0.923,2.97 -1.513,1.652 -5.327,2.226 -6.793,1.449 -1.467,-0.78 -3.329,-2.887 -3.329,-2.887 0,0 -2.471,0.318 -3.135,0.849 -0.666,0.531 5.142,0.362 4.043,3.393 -1.099,3.028 1.013,3.125 3.474,2.078 2.46,-1.046 3.504,-0.954 6.736,-1.332 3.231,-0.379 6.045,-5.63 -1.919,-6.52 z" style="fill:#542f29;fill-rule:nonzero" id="path116"/>
        <path d="m 144.209,50.861 c 0,0 4.139,4.711 4.424,0 0.287,-4.709 0,-30.399 0,-30.399 0,0 -4.137,-4.281 -4.424,2.996 -0.285,7.278 0,27.403 0,27.403 z" style="fill:#46612e;fill-rule:nonzero" id="path118"/>
        <path d="m 146.924,22.583 c 0,0 0.999,7.17 -14.414,9.075 -15.414,1.906 -26.12,0.399 -27.546,-5.627 -1.427,-6.026 3.46,-13.442 18.268,-14.6 12.131,-0.952 23.049,1.85 23.692,11.152 z" style="fill:#46612e;fill-rule:nonzero" id="path120"/>
        <path d="m 146.025,19.225 c 0,0 0.815,7.495 16.258,5.745 15.439,-1.748 25.459,-5.827 25.347,-12.268 -0.112,-6.439 -6.702,-12.777 -21.372,-10.417 -12.014,1.931 -21.921,7.372 -20.233,16.94 z" style="fill:#557837;fill-rule:nonzero" id="path122"/>
        <path d="m 142.82,16.494 c 0,0 -0.951,-2.83 -7.99,-4.034 -7.041,-1.207 -7.519,-0.746 -7.519,-0.746 0,0 6.091,5.75 6.661,7.469 0.571,1.718 -6.279,-5.453 -10.275,-6.201 -3.996,-0.745 -14.843,1.195 -16.557,5.754 -1.71,4.555 15.51,4.854 15.51,4.854 0,0 -13.845,-1.196 -15.628,0 -1.784,1.196 -0.452,5.679 7.827,5.079 8.276,-0.595 15.308,-4.666 23.692,-5.378 8.383,-0.708 5.322,-4.657 4.279,-6.797 z" style="fill:#557837;fill-rule:nonzero" id="path124"/>
        <path d="m 146.428,18.321 c 0,0 9.231,0.571 13.035,2.759 3.804,2.189 12.657,1.738 13.796,0.439 1.141,-1.295 -5.523,2.058 -9.851,0 -4.326,-2.058 -7.845,-3.389 -8.132,-3.674 -0.284,-0.287 6.946,-2.759 12.942,-0.57 5.99,2.186 13.51,-0.762 14.461,-1.902 0.951,-1.141 -1.62,0.283 -6.851,0.474 -5.233,0.19 -5.615,0.455 -8.563,-0.914 -2.948,-1.369 0.189,-3.939 6.089,-5.65 5.897,-1.713 10.094,-1.143 9.519,-1.713 -0.577,-0.573 -0.29,-3.711 -6.476,-1.713 -6.184,1.998 -12.462,4.756 -13.606,6.563 -1.14,1.812 -3.137,2.855 -4.567,2.571 -1.425,-0.286 0.193,-5.708 3.714,-8.467 3.519,-2.761 -4.377,-2.594 -5.804,1.983 -1.429,4.58 -1.523,7.625 -4.187,8.387 -2.664,0.762 -7.041,-0.189 -5.519,1.427 z" style="fill:#46612e;fill-rule:nonzero" id="path126"/>
        <path d="m 150.726,47.965 c 0,0 -3.25,3.581 -5.742,2.562 -2.491,-1.02 -4.381,-1.442 -4.381,-1.442 0,0 4.282,4.581 7.035,3.726 2.752,-0.856 3.088,-4.846 3.088,-4.846 z" style="fill:#813e20;fill-rule:nonzero" id="path128"/>
        <path d="m 149.801,47.145 c 0,0 2.439,1.317 0.925,2.97 -1.513,1.653 -5.326,2.225 -6.794,1.447 -1.465,-0.775 -3.329,-2.885 -3.329,-2.885 0,0 -2.47,0.319 -3.136,0.849 -0.664,0.528 5.144,0.363 4.045,3.39 -1.099,3.031 1.013,3.127 3.472,2.082 2.462,-1.045 3.506,-0.955 6.737,-1.332 3.232,-0.379 6.047,-5.629 -1.92,-6.521 z" style="fill:#542f29;fill-rule:nonzero" id="path130"/>
        <path d="m 145.898,105.464 c 0,0 -3.16,-5.086 -3.349,-9.902 -0.191,-4.818 3.36,-5.522 4.164,-9.501 0.802,-3.979 3.346,2.255 3.113,7.589 -0.234,5.336 -3.928,11.814 -3.928,11.814 z" style="fill:#4aa147;fill-rule:nonzero" id="path132"/>
        <path d="m 230.463,70.457 c 0,0 -3.162,-5.084 -3.353,-9.903 -0.188,-4.818 3.363,-5.521 4.166,-9.501 0.806,-3.979 3.35,2.258 3.114,7.59 -0.236,5.335 -3.927,11.814 -3.927,11.814 z" style="fill:#4aa147;fill-rule:nonzero" id="path134"/>
        <path d="m 60.724,55.673 c 0,0 -3.162,-5.086 -3.35,-9.902 -0.19,-4.817 3.36,-5.522 4.163,-9.5 0.803,-3.98 3.348,2.254 3.113,7.589 -0.233,5.335 -3.926,11.813 -3.926,11.813 z" style="fill:#4aa147;fill-rule:nonzero" id="path136"/>
        <path d="m 145.288,20.666 c 0,0 -3.163,-5.083 -3.353,-9.903 -0.189,-4.818 3.363,-5.522 4.165,-9.502 0.806,-3.978 3.349,2.259 3.115,7.59 -0.237,5.336 -3.927,11.815 -3.927,11.815 z" style="fill:#4aa147;fill-rule:nonzero" id="path138"/>
    </g>
</svg>
