<?xml version="1.0" encoding="UTF-8" standalone="no"?>
<svg xmlns="http://www.w3.org/2000/svg" width="100%" height="100%" viewBox="0 0 370 340" version="1.1" style="clip-rule:evenodd;fill-rule:evenodd;stroke-linejoin:round;stroke-miterlimit:2" id="svg311">
    <g transform="translate(34.888,162.79642)" style="clip-rule:evenodd;display:inline;fill-rule:evenodd;stroke-linejoin:round;stroke-miterlimit:2" id="stage_0">
        <path d="m 181.132,25.468 -0.36,-1.078 c 0.244,0.141 0.464,0.275 0.665,0.403 -0.197,0.42 -0.305,0.675 -0.305,0.675 z m -6.44,-1.383 c 0,0 -0.567,-1.283 -1.184,-2.905 0.569,0.203 1.099,0.402 1.601,0.597 z m -7.681,-0.049 c -0.41,1.148 -1.379,-2.197 -2.014,-5.729 1.323,0.479 2.659,0.943 3.983,1.369 -0.889,1.743 -1.694,3.593 -1.969,4.36 z m -6.151,-6.675 c -0.362,1.158 -1.302,0.06 -2.288,-1.565 0.806,0.338 1.633,0.676 2.477,1.012 -0.072,0.195 -0.136,0.382 -0.189,0.553 z m 26.839,-0.504 c -1.631,1.096 -2.986,2.644 -4.035,4.129 0.523,-4.793 1.767,-11.505 4.736,-14.37 4.859,-4.693 -3.782,-3.133 -7.967,-0.324 -4.183,2.807 -6.566,8.61 -6.566,8.61 L 169.529,1.876 167.428,13.52 c 0,0 -2.138,-4.837 -2.642,-7.6 -0.505,-2.763 -4.366,5.67 -5.039,7.553 -0.675,1.882 -2.85,-8.307 -2.59,-11.6 0.259,-3.293 -2.773,2.394 -3.565,4.923 -0.786,2.529 -4.324,-5.678 -5.142,-6.715 -0.815,-1.037 -0.142,8.211 -1.633,9.057 -0.835,0.473 2.866,2.679 8.344,5.169 -0.119,2.329 -0.315,4.962 -1.077,5.395 -1.488,0.846 11.413,7.179 23.121,10.846 11.712,3.671 13.353,6.326 13.353,6.326 0,0 0.25,-15.004 5.108,-19.694 4.857,-4.691 -3.784,-3.132 -7.967,-0.323 z" style="fill:#8fa73d;fill-rule:nonzero" id="path2-4"/>
        <path d="m 279.154,83.629 c -6.859,-4.458 -15.432,-5.485 -19.545,-12 -4.116,-6.516 -10.632,-14.402 -26.404,-20.917 -15.774,-6.515 -20.23,-5.487 -27.088,-8.917 -6.857,-3.427 -28.802,-19.543 -43.204,-23.658 -9.611,-2.746 -13.03,-11.314 -22.63,-4.458 -9.6,6.858 -20.229,12.346 -30.516,10.972 -10.285,-1.37 -17.833,2.058 -21.946,7.202 -4.114,5.143 -6.171,5.829 -12.687,5.143 -6.513,-0.686 -7.884,1.715 -14.399,5.486 -6.515,3.772 -9.946,0.687 -17.145,3.429 -7.203,2.743 -12.001,5.485 -13.374,11.316 -1.371,5.828 -1.029,2.742 -10.287,6.172 -9.256,3.428 -13.715,4.457 -14.744,9.257 -1.028,4.8 -3.824,11.434 -4.852,12.462 -1.03,1.03 0.355,5.333 3.782,7.732 3.431,2.402 20.5,1.751 21.072,4.494 0.57,2.742 10.516,2.968 13.601,5.6 3.086,2.631 3.774,6.059 8.916,7.772 5.143,1.716 12.346,0.687 17.831,7.888 5.485,7.199 29.83,20.915 38.745,29.486 8.916,8.574 28.803,22.118 37.376,18.518 8.57,-3.601 26.589,-12.345 36.953,-12.002 10.366,0.342 16.878,-2.742 21.681,-8.915 4.798,-6.172 17.829,-20.915 27.773,-20.572 9.944,0.343 24.002,-2.744 28.115,-8.917 4.114,-6.17 8.231,-5.141 15.087,-9.257 6.859,-4.115 15.773,-10.973 17.144,-13.373 1.374,-2.399 -2.399,-5.485 -9.255,-9.943 z" style="fill:#758035;fill-rule:nonzero" id="path4-1"/>
        <path d="m 281.517,83.308 c -6.58,-4.277 -21.553,-4.721 -25.501,-10.975 -3.947,-6.251 -10.202,-13.819 -25.339,-20.072 -15.136,-6.252 -19.414,-5.266 -25.996,-8.556 -6.58,-3.292 -27.641,-18.757 -41.462,-22.706 -9.225,-2.634 -12.502,-10.859 -21.717,-4.278 -9.214,6.582 -19.414,11.848 -29.288,10.531 -9.874,-1.317 -17.111,1.975 -21.06,6.91 -3.949,4.936 -5.922,5.595 -12.175,4.936 -6.252,-0.658 -7.568,1.646 -13.82,5.265 -6.254,3.62 -9.546,0.659 -16.455,3.291 -6.91,2.633 -11.516,5.265 -12.834,10.86 C 34.554,64.106 34.885,61.146 26,64.436 17.114,67.728 12.836,68.715 11.849,73.32 11.259,76.075 8.7,74.873 6.526,73.67 5.063,72.861 3.774,72.052 3.377,72.449 2.39,73.436 2.966,86.813 6.254,89.116 c 3.294,2.305 24.24,5.264 24.79,7.898 0.549,2.631 10.091,2.849 13.056,5.372 2.959,2.526 3.617,5.817 8.551,7.461 4.938,1.645 11.849,0.659 17.113,7.57 5.266,6.91 28.629,20.072 37.185,28.298 8.557,8.227 27.643,21.225 35.87,17.77 8.225,-3.455 25.514,-11.847 35.462,-11.518 9.948,0.331 16.2,-2.631 20.806,-8.556 4.607,-5.922 17.112,-20.072 26.655,-19.743 9.543,0.33 23.035,-2.632 26.984,-8.556 3.947,-5.922 7.899,-4.935 14.478,-8.883 6.582,-3.949 15.137,-10.531 16.454,-12.835 1.316,-2.303 4.443,-5.807 -2.141,-10.086 z" style="fill:#37302b;fill-rule:nonzero" id="path6-4"/>
        <path d="M 274.775,77.056 C 268.193,72.779 259.964,71.792 256.016,65.539 252.069,59.286 245.814,51.717 230.677,45.465 215.541,39.214 211.263,40.201 204.681,36.911 198.101,33.619 177.04,18.154 163.219,14.204 153.994,11.569 150.717,3.344 141.502,9.927 c -9.214,6.581 -19.414,11.846 -29.288,10.531 -9.874,-1.318 -17.111,1.974 -21.06,6.909 -3.949,4.937 -5.922,5.595 -12.175,4.937 -6.252,-0.659 -7.568,1.644 -13.82,5.265 -6.254,3.62 -9.546,0.657 -16.455,3.29 -6.91,2.633 -11.516,5.266 -12.834,10.858 -1.316,5.594 -0.985,2.634 -9.87,5.925 -8.886,3.29 -13.164,4.276 -14.151,8.884 -0.987,4.607 -6.91,3.618 -7.898,4.607 -0.985,0.988 -0.985,8.884 2.303,11.188 3.294,2.305 24.24,5.266 24.79,7.897 0.549,2.632 10.091,2.851 13.056,5.375 2.959,2.524 3.617,5.815 8.551,7.458 4.938,1.647 11.849,0.659 17.113,7.57 5.266,6.911 28.629,20.073 37.185,28.3 8.557,8.228 27.643,21.224 35.87,17.769 8.225,-3.455 25.514,-11.846 35.462,-11.517 9.948,0.33 16.2,-2.633 20.806,-8.556 4.607,-5.923 17.112,-20.072 26.655,-19.743 9.543,0.328 23.035,-2.633 26.984,-8.556 3.947,-5.923 7.899,-4.936 14.478,-8.885 6.582,-3.949 15.137,-10.529 16.454,-12.834 1.316,-2.304 -2.303,-5.265 -8.883,-9.543 z" style="fill:#542f29;fill-rule:nonzero" id="path8-2"/>
        <path d="m 168.154,153.554 c -1.49,-0.846 -0.817,-10.095 -1.635,-9.055 -0.814,1.035 -4.351,9.242 -5.141,6.712 -0.79,-2.527 -3.822,-8.215 -3.562,-4.921 0.258,3.293 -1.917,13.48 -2.591,11.597 -0.673,-1.882 -4.534,-10.314 -5.038,-7.55 -0.506,2.761 -2.643,7.599 -2.643,7.599 l -2.098,-11.644 -4.339,13.027 c 0,0 -2.385,-5.805 -6.569,-8.611 -4.184,-2.809 -12.825,-4.367 -7.966,0.324 4.857,4.69 7.28,10.709 7.28,10.709 0,0 -0.532,6.329 11.179,2.659 11.711,-3.668 24.613,-10.001 23.123,-10.846 z" style="fill:#8fa73d;fill-rule:nonzero" id="path10-1"/>
        <path d="m 139.865,152.324 c -7.471,0 -11.231,-7.787 -6.92,-16.364 4.8,-9.544 6.252,-7.571 23.365,-9.215 17.113,-1.645 21.39,-6.91 29.615,-17.44 6.709,-8.588 10.572,-10.828 19.977,-10.828 2.129,0 4.542,0.115 7.336,0.297 2.488,0.162 4.584,0.271 6.397,0.296 -0.163,0.621 -0.228,1.364 -0.137,2.151 v 10e-4 c 0.001,0.007 0.001,0.015 0.002,0.023 0.001,0.008 0.002,0.017 0.004,0.026 v 0.002 c 0.353,2.859 2.784,6.273 10.181,6.532 h 0.002 c 0.024,10e-4 0.049,10e-4 0.072,0.002 h 0.005 c 0.01,0.001 0.019,0.001 0.03,0.001 0.007,0 0.014,10e-4 0.021,10e-4 0.008,0 0.018,0 0.026,0.001 0.014,0 0.028,0 0.042,0.001 h 0.022 c 0.011,10e-4 0.022,10e-4 0.033,10e-4 0.005,0 0.011,0.001 0.016,0.001 0.016,0 0.032,0 0.049,10e-4 h 0.012 c 0.014,0 0.028,0.001 0.042,0.001 h 0.013 c 0.017,0.001 0.034,0.001 0.051,0.001 h 0.008 c 0.016,10e-4 0.032,10e-4 0.049,10e-4 h 0.006 c 0.136,0.002 0.274,0.003 0.413,0.003 0.486,0 0.991,-0.012 1.518,-0.039 0.02,-0.001 0.04,-0.002 0.06,-0.003 0.006,0 0.011,-0.001 0.018,-0.001 0.014,-0.001 0.03,-0.002 0.044,-0.002 0.006,-0.001 0.013,-0.001 0.018,-0.001 0.019,-0.001 0.037,-0.002 0.056,-0.003 0.007,-0.001 0.016,-0.001 0.023,-0.002 0.011,0 0.023,-0.001 0.035,-0.002 0.008,0 0.017,-10e-4 0.025,-10e-4 0.018,-0.001 0.036,-0.002 0.053,-0.003 0.008,-0.001 0.015,-0.001 0.022,-0.001 0.012,-0.001 0.025,-0.002 0.037,-0.003 0.009,0 0.018,-0.001 0.027,-0.001 0.011,-10e-4 0.022,-0.002 0.033,-0.002 0.015,-0.001 0.031,-0.002 0.046,-0.003 0.008,-0.001 0.018,-0.001 0.026,-0.002 0.011,0 0.023,-0.001 0.034,-0.002 0.007,0 0.017,-10e-4 0.024,-10e-4 0.018,-0.002 0.035,-0.003 0.052,-0.004 0.01,0 0.018,-0.001 0.027,-0.002 0.011,0 0.022,-0.001 0.033,-0.002 0.008,0 0.016,-10e-4 0.024,-10e-4 0.01,-0.001 0.021,-0.002 0.031,-0.002 0.009,-10e-4 0.017,-0.002 0.026,-0.002 0.018,-0.002 0.038,-0.003 0.057,-0.004 0.006,-10e-4 0.013,-10e-4 0.019,-0.002 0.013,-0.001 0.024,-0.001 0.037,-0.002 0.003,-0.001 0.008,-0.001 0.012,-0.001 0.025,-0.002 0.05,-0.004 0.075,-0.006 h 0.009 c 0.013,-0.001 0.027,-0.002 0.04,-0.003 0.003,-0.001 0.007,-0.001 0.01,-0.001 0.042,-0.003 0.084,-0.007 0.126,-0.01 0.003,0 0.006,0 0.009,-0.001 0.042,-0.003 0.084,-0.006 0.127,-0.01 h 0.007 c 0.014,-0.002 0.028,-0.003 0.042,-0.004 h 0.003 c 0.043,-0.004 0.087,-0.008 0.13,-0.011 0.002,-0.001 0.004,-0.001 0.006,-0.001 2.088,-0.184 3.877,-0.519 5.397,-0.969 h 0.001 c 0.031,-0.01 0.063,-0.019 0.094,-0.028 0.002,-0.001 0.003,-0.001 0.005,-0.002 0.009,-0.003 0.018,-0.005 0.027,-0.008 0.005,-0.002 0.008,-0.003 0.013,-0.004 0.014,-0.005 0.029,-0.009 0.044,-0.014 0.004,-10e-4 0.009,-0.002 0.013,-0.004 0.008,-0.002 0.016,-0.004 0.023,-0.007 0.006,-0.001 0.011,-0.003 0.017,-0.005 0.007,-0.002 0.014,-0.004 0.021,-0.006 0.011,-0.004 0.023,-0.008 0.034,-0.011 0.006,-0.002 0.012,-0.004 0.018,-0.006 0.008,-0.002 0.015,-0.004 0.022,-0.007 0.006,-0.002 0.012,-0.003 0.018,-0.005 0.013,-0.004 0.025,-0.008 0.038,-0.012 10e-4,-10e-4 0.002,-10e-4 0.004,-0.002 0.012,-0.004 0.024,-0.008 0.037,-0.012 0.003,0 0.006,-0.001 0.009,-0.002 0.029,-0.01 0.056,-0.019 0.084,-0.028 h 0.002 c 8.702,-2.849 7.886,-9.664 3.454,-12.751 -1.718,-1.198 -2.929,-1.686 -4.013,-1.686 -1.857,0 -3.338,1.434 -6.351,3.188 -0.321,0.187 -0.641,0.363 -0.958,0.529 2.079,-1.563 4.353,-3.798 7.583,-6.923 8.238,-7.972 14.971,-11.437 22.63,-11.437 1.3,0 2.626,0.1 3.991,0.294 -1.398,0.446 -2.818,1.623 -5.178,2.997 -3.203,1.865 -6.256,2.7 -8.565,2.7 -1.133,0 -2.086,-0.201 -2.79,-0.58 -0.096,-0.051 -0.194,-0.076 -0.292,-0.076 -1.015,0 -2.078,2.62 -1.151,5.24 0.142,0.402 0.331,0.803 0.573,1.195 0.001,0.002 0.002,0.003 0.003,0.004 0.003,0.005 0.006,0.01 0.009,0.015 0.003,0.006 0.007,0.012 0.011,0.018 l 0.001,0.001 c 1.101,1.751 3.289,3.307 7.218,3.825 h 0.005 c 0.009,0.002 0.019,0.003 0.028,0.004 0.005,0.001 0.009,0.001 0.014,0.002 0.013,0.002 0.027,0.003 0.04,0.005 0.007,10e-4 0.014,0.002 0.02,0.003 0.008,0 0.015,10e-4 0.023,0.002 0.008,0.001 0.015,0.002 0.023,0.003 0.006,0.001 0.013,0.002 0.019,0.003 0.013,0.001 0.027,0.003 0.04,0.004 0.004,10e-4 0.009,10e-4 0.013,0.002 0.012,0.001 0.024,0.003 0.036,0.004 0.004,10e-4 0.006,10e-4 0.009,10e-4 0.015,0.002 0.03,0.004 0.046,0.006 h 0.006 c 0.015,0.002 0.03,0.004 0.045,0.006 h 0.002 c 0.798,0.089 1.663,0.137 2.603,0.137 0.486,0 0.991,-0.013 1.517,-0.039 0.021,-10e-4 0.04,-0.002 0.061,-0.003 0.005,-10e-4 0.01,-10e-4 0.014,-10e-4 0.02,-0.001 0.038,-0.002 0.058,-0.003 h 0.004 c 3.327,-0.179 5.968,-0.717 8.017,-1.493 -7.446,6.791 -16.307,9.683 -26.8,14.93 -11.847,5.923 -18.427,6.91 -30.602,13.491 -11.356,6.137 -22.686,19.302 -28.989,19.301 -0.455,0 -0.885,-0.069 -1.286,-0.214 -1.842,-0.667 -3.712,-0.958 -5.596,-0.958 -10.321,0 -20.99,8.749 -28.827,12.386 l -0.791,-4.387 -1.806,5.421 c -0.382,0.122 -0.754,0.224 -1.117,0.305 -0.929,0.208 -1.817,0.306 -2.658,0.306 z M 274.188,83.887 c -0.336,-1.797 -1.487,-3.475 -3.145,-4.631 -0.243,-0.169 -0.475,-0.324 -0.699,-0.466 3.472,1.249 4.262,3.146 3.844,5.097 z" style="fill:#6f3923;fill-rule:nonzero" id="path12-2"/>
        <path d="m 143.64,151.713 1.806,-5.421 0.791,4.387 c -0.905,0.42 -1.773,0.772 -2.597,1.034 z" style="fill:#a1a438;fill-rule:nonzero" id="path14-9"/>
        <path d="m 231.335,85.495 c -8.882,7.45 -16.451,3.737 -28.628,3.737 -12.177,0 -16.452,9.542 -23.034,16.672 -6.582,7.13 -33.564,11.956 -46.069,16.563 -12.505,4.608 -7.568,18.758 -7.239,12.834 0.328,-5.923 19.744,-17.441 36.525,-17.769 16.783,-0.33 24.023,-17.77 31.921,-21.939 7.896,-4.17 21.06,-2.412 28.629,-2.083 7.568,0.329 22.047,-18.429 22.047,-18.429 3.337,-4.046 -5.266,2.963 -14.152,10.414 z" style="fill:#37302b;fill-rule:nonzero" id="path16-2"/>
        <path d="m 102.025,128.621 c -7.472,0 -11.235,-7.787 -6.922,-16.364 4.798,-9.544 6.253,-7.569 23.363,-9.215 1.906,-0.183 3.653,-0.411 5.264,-0.686 0.246,0.392 0.547,0.775 0.91,1.138 0.001,0.001 0.003,0.002 0.004,0.003 l 0.024,0.024 c 0.003,0.004 0.007,0.007 0.01,0.01 0.003,0.004 0.007,0.007 0.01,0.01 10e-4,0.001 0.002,0.002 0.003,0.003 1.03,1.01 2.547,1.867 4.711,2.363 0.002,0 0.004,0.001 0.005,0.001 0.027,0.006 0.053,0.012 0.08,0.018 0.004,0.001 0.008,0.002 0.013,0.003 0.007,0.001 0.015,0.003 0.022,0.005 0.007,0.001 0.014,0.003 0.021,0.004 0.01,0.002 0.019,0.005 0.029,0.007 0.007,0.001 0.013,0.002 0.02,0.004 0.006,0.001 0.012,0.003 0.018,0.004 0.011,0.002 0.022,0.005 0.034,0.007 0.004,0.001 0.008,0.002 0.013,0.003 0.009,0.002 0.018,0.004 0.027,0.006 0.005,0 0.009,0.001 0.013,0.002 0.013,0.003 0.026,0.006 0.038,0.008 0.002,0.001 0.004,0.001 0.006,0.001 0.012,0.003 0.024,0.005 0.036,0.008 0.003,0 0.005,0.001 0.008,0.001 0.028,0.006 0.057,0.012 0.086,0.017 0,0.001 0.001,0.001 0.002,0.001 1.165,0.229 2.506,0.357 4.045,0.357 0.487,10e-4 0.992,-0.012 1.519,-0.039 0.017,-0.001 0.034,-0.002 0.05,-0.003 7.856,-0.405 11.909,-2.805 13.387,-5.605 l 0.008,-0.016 c 1.565,-2.983 0.21,-6.413 -2.584,-8.362 -0.976,-0.68 -1.788,-1.131 -2.507,-1.394 1.366,-1.606 2.76,-3.382 4.291,-5.342 6.708,-8.586 10.57,-10.828 19.972,-10.828 2.13,0 4.545,0.115 7.341,0.297 2.846,0.186 5.181,0.302 7.163,0.302 8.559,0 10.551,-2.158 18.835,-10.175 8.235,-7.97 14.969,-11.436 22.627,-11.436 1.825,0 3.705,0.197 5.67,0.578 10.201,1.974 6.61,7.525 3.622,10.858 -7.999,8.924 -17.771,11.848 -29.618,17.771 -11.846,5.923 -18.427,6.91 -30.603,13.49 -11.354,6.139 -22.684,19.301 -28.986,19.3 -0.455,0 -0.885,-0.069 -1.286,-0.214 -1.84,-0.666 -3.71,-0.957 -5.592,-0.957 -12.066,0 -24.606,11.956 -32.546,13.726 -0.928,0.207 -1.815,0.306 -2.656,0.306 z M 215.504,70.677 c 0.012,0.002 0.023,0.004 0.035,0.006 0.472,0.081 0.978,0.12 1.507,0.12 1.438,0 3.048,-0.284 4.627,-0.762 6.357,-1.922 12.213,-6.983 4.232,-9.328 -0.771,-0.226 -1.582,-0.322 -2.429,-0.322 -3.254,0 -7.048,1.413 -11.227,2.272 -4.644,0.956 -3.913,5.536 1.068,7.423 0,0 0.001,0 0.002,0.001 0.007,0.002 0.014,0.005 0.021,0.008 0.003,0.001 0.005,0.001 0.007,0.002 0.007,0.003 0.013,0.005 0.02,0.008 0.009,0.003 0.017,0.006 0.025,0.009 0.004,0.002 0.008,0.003 0.013,0.005 0.006,0.002 0.012,0.004 0.019,0.007 0.003,10e-4 0.006,0.002 0.01,0.004 0.009,0.003 0.017,0.006 0.026,0.009 0.001,0 0.002,0.001 0.004,0.001 0.01,0.004 0.021,0.008 0.031,0.012 0.001,0 0.003,0.001 0.004,0.001 0.01,0.004 0.02,0.007 0.03,0.011 0.001,0 0.002,0 0.002,0.001 0.406,0.144 0.839,0.27 1.299,0.375 v 10e-4 c 0.026,0.005 0.051,0.011 0.076,0.017 h 0.003 c 0.011,0.003 0.023,0.005 0.035,0.008 0.001,0 0.002,10e-4 0.003,10e-4 0.025,0.005 0.049,0.011 0.074,0.016 0.002,0 0.003,0.001 0.005,0.001 0.012,0.002 0.022,0.005 0.034,0.007 0.001,0 0.002,0.001 0.003,0.001 0.025,0.005 0.05,0.01 0.074,0.015 0.003,0.001 0.005,0.001 0.008,0.002 0.011,0.002 0.021,0.004 0.031,0.006 0.002,0 0.004,0.001 0.005,0.001 0.013,0.003 0.024,0.005 0.037,0.007 0.002,10e-4 0.004,10e-4 0.006,0.002 0.01,0.002 0.02,0.004 0.03,0.005 0.003,0.001 0.007,0.002 0.01,0.002 0.01,0.002 0.02,0.004 0.03,0.006 0.002,10e-4 0.004,10e-4 0.006,10e-4 0.012,0.003 0.024,0.005 0.036,0.007 0.003,0.001 0.006,0.001 0.009,0.002 0.009,0.002 0.018,0.003 0.027,0.005 0.004,10e-4 0.008,10e-4 0.012,0.002 l 0.035,0.007 c 0.012,0.002 0.024,0.004 0.036,0.006 0.004,10e-4 0.007,10e-4 0.011,0.002 0.008,0.002 0.017,0.003 0.026,0.005 0.004,0 0.007,0.001 0.012,0.002 z" style="fill:#6f3923;fill-rule:nonzero" id="path18-4"/>
        <path d="m 193.493,61.79 c -8.884,7.451 -16.453,3.739 -28.627,3.739 -12.175,0 -16.454,9.543 -23.036,16.672 -6.582,7.131 -33.565,11.956 -46.07,16.563 -12.503,4.607 -7.566,18.757 -7.239,12.835 0.33,-5.924 19.744,-17.442 36.527,-17.771 16.782,-0.328 24.023,-17.769 31.919,-21.939 7.899,-4.17 21.061,-2.411 28.629,-2.083 7.569,0.329 22.047,-18.426 22.047,-18.426 3.337,-4.047 -5.264,2.961 -14.15,10.41 z" style="fill:#37302b;fill-rule:nonzero" id="path20-2"/>
        <path d="m 59.942,104.741 c -1.541,0 -2.925,-0.331 -4.112,-0.932 1.508,0.274 3.107,0.509 4.726,0.915 -0.207,0.011 -0.412,0.017 -0.614,0.017 z" style="fill:#5b3f25;fill-rule:nonzero" id="path22-5"/>
        <path d="m 60.556,104.724 c -1.619,-0.406 -3.218,-0.641 -4.726,-0.915 -4.571,-2.314 -6.238,-8.625 -2.811,-15.433 0.22,-0.439 0.433,-0.853 0.642,-1.245 0.631,2.472 2.622,4.935 5.798,5.91 v 0.001 c 0.028,0.008 0.056,0.017 0.084,0.025 10e-4,0 0.003,0.001 0.005,0.001 0.008,0.003 0.017,0.005 0.025,0.008 0.003,0.001 0.005,0.001 0.007,0.002 0.025,0.007 0.05,0.014 0.076,0.022 0.004,0.001 0.008,0.002 0.012,0.003 0.007,0.002 0.014,0.004 0.021,0.006 0.005,0.002 0.011,0.003 0.016,0.005 0.008,0.002 0.016,0.004 0.024,0.006 0.008,0.002 0.017,0.005 0.025,0.007 0.005,0.001 0.011,0.003 0.016,0.004 0.007,0.002 0.015,0.004 0.022,0.006 0.004,0.001 0.009,0.003 0.014,0.004 0.011,0.003 0.023,0.006 0.035,0.009 0.471,0.124 0.977,0.182 1.506,0.182 6.509,0 16.581,-8.838 11.199,-13.836 1.184,-0.093 2.46,-0.202 3.836,-0.335 17.112,-1.645 21.39,-6.911 29.616,-17.441 6.708,-8.584 10.57,-10.827 19.97,-10.827 2.13,0 4.545,0.115 7.342,0.298 2.847,0.186 5.181,0.301 7.163,0.301 8.56,0 10.552,-2.157 18.833,-10.173 8.238,-7.972 14.971,-11.438 22.629,-11.438 1.826,0 3.707,0.198 5.671,0.578 10.201,1.975 6.608,7.526 3.619,10.86 -8,8.921 -17.768,11.846 -29.615,17.769 -11.846,5.923 -18.43,6.91 -30.603,13.491 -11.354,6.139 -22.685,19.302 -28.988,19.3 -0.456,0 -0.886,-0.069 -1.287,-0.214 -1.841,-0.666 -3.71,-0.957 -5.593,-0.957 -12.065,0 -24.604,11.955 -32.542,13.728 -0.705,0.157 -1.386,0.251 -2.041,0.288 z" style="fill:#6f3923;fill-rule:nonzero" id="path24-4"/>
        <path d="m 151.41,37.909 c -8.885,7.451 -16.454,3.737 -28.63,3.737 -12.176,0 -16.452,9.545 -23.034,16.674 -6.583,7.131 -33.565,11.955 -46.068,16.564 -12.507,4.605 -7.571,18.756 -7.241,12.833 0.33,-5.923 19.744,-17.442 36.525,-17.77 16.784,-0.331 24.023,-17.769 31.921,-21.939 7.898,-4.17 21.06,-2.412 28.629,-2.083 7.568,0.329 22.047,-18.428 22.047,-18.428 3.337,-4.046 -5.266,2.962 -14.149,10.412 z" style="fill:#37302b;fill-rule:nonzero" id="path26-7"/>
        <path d="m 20.097,82.546 c -1.716,0 -3.267,-0.268 -4.566,-0.795 h 0.145 c 0.486,0 0.991,-0.013 1.516,-0.039 16.29,-0.824 16.29,-10.202 10.859,-13.987 -1.718,-1.196 -2.929,-1.684 -4.012,-1.684 -1.857,0 -3.339,1.433 -6.352,3.186 -1.812,1.054 -3.576,1.779 -5.184,2.21 0.155,-0.367 0.329,-0.742 0.522,-1.126 4.798,-9.543 16.041,1.014 25.184,-13.543 3.242,-5.163 5.55,-6.119 7.693,-6.119 0.631,0 1.247,0.083 1.869,0.166 0.622,0.083 1.248,0.166 1.9,0.166 1.963,0 4.15,-0.753 7.098,-4.525 8.224,-10.53 27.839,-8.887 38.37,-17.658 11.654,-9.709 31.718,-0.279 41.922,-10.151 6.461,-6.253 7.706,-8.083 10.344,-8.083 1.526,0 3.519,0.613 7.258,1.336 2.719,0.527 4.714,1.85 5.903,3.639 -0.05,-0.016 -0.101,-0.031 -0.152,-0.046 -0.771,-0.226 -1.582,-0.322 -2.43,-0.322 -3.253,0 -7.049,1.413 -11.226,2.273 -3.931,0.808 -4.01,4.214 -0.921,6.384 1.047,0.737 2.46,1.331 4.213,1.633 0.472,0.081 0.978,0.12 1.507,0.12 1.501,0 3.19,-0.309 4.835,-0.826 1.9,-0.596 3.74,-1.467 5.166,-2.457 -1,4.09 -4.59,8.522 -11.173,11.65 -2.827,1.345 -5.207,1.77 -7.393,1.77 -1.88,0 -3.616,-0.315 -5.368,-0.629 -1.752,-0.315 -3.52,-0.629 -5.463,-0.629 -2.503,0 -5.297,0.521 -8.724,2.235 -11.846,5.923 -17.689,4.987 -26.361,16.009 -7.596,9.66 -24.22,16.924 -32.018,16.924 -0.985,0 -1.83,-0.116 -2.498,-0.357 -1.84,-0.666 -3.71,-0.957 -5.592,-0.957 -12.065,0 -24.604,11.957 -32.546,13.727 -1.515,0.338 -2.971,0.505 -4.325,0.505 z" style="fill:#5b3127;fill-rule:nonzero" id="path28-6"/>
        <path d="M 70.206,78.013 C 66.474,76.347 61.814,79.329 56.549,80.975 51.283,82.62 52.93,91.341 59.841,93.15 66.751,94.96 80.9,82.783 70.206,78.013 Z" style="fill:#963c22;fill-rule:nonzero" id="path30-6"/>
        <path d="m 59.841,89.072 c -3.199,-0.838 -5.25,-3.155 -6.032,-5.568 -1.277,3.241 0.943,8.314 6.032,9.646 5.766,1.507 16.555,-6.71 13.772,-12.247 -1.902,4.715 -9.329,9.333 -13.772,8.169 z" style="fill:#37302b;fill-rule:nonzero" id="path32-3"/>
        <path d="m 59.314,87.735 c -0.153,0 -0.304,-0.005 -0.451,-0.016 -4.392,-0.313 -4.374,-4.967 -1.283,-4.967 0.144,0 0.295,0.01 0.452,0.031 0.142,0.019 0.279,0.029 0.412,0.029 1.314,0 2.236,-0.884 3.129,-1.768 0.893,-0.883 1.757,-1.766 2.953,-1.766 0.508,0 1.077,0.159 1.732,0.545 5.416,3.186 -2.277,7.912 -6.944,7.912 z" style="fill:#b15929;fill-rule:nonzero" id="path34-5"/>
        <path d="m 225.905,60.713 c -3.733,-1.096 -8.39,0.867 -13.656,1.95 -5.265,1.084 -3.621,6.826 3.29,8.02 6.909,1.191 21.06,-6.828 10.366,-9.97 z" style="fill:#963c22;fill-rule:nonzero" id="path36-8"/>
        <path d="m 215.539,67.997 c -3.199,-0.552 -5.251,-2.079 -6.032,-3.668 -1.277,2.135 0.945,5.475 6.032,6.354 5.764,0.995 16.554,-4.42 13.77,-8.066 -1.899,3.104 -9.326,6.146 -13.77,5.38 z" style="fill:#37302b;fill-rule:nonzero" id="path38-7"/>
        <path d="m 215.017,67.115 c -0.154,0 -0.306,-0.003 -0.453,-0.01 -4.394,-0.206 -4.377,-3.271 -1.286,-3.271 0.144,0 0.296,0.007 0.453,0.021 0.141,0.012 0.278,0.018 0.411,0.018 1.314,0 2.237,-0.582 3.13,-1.164 0.892,-0.581 1.756,-1.163 2.952,-1.163 0.508,0 1.075,0.105 1.731,0.359 5.416,2.098 -2.273,5.211 -6.938,5.21 z" style="fill:#b15929;fill-rule:nonzero" id="path40-9"/>
        <path d="m 160.414,15.493 c -3.731,-1.096 -8.39,0.866 -13.656,1.951 -5.265,1.083 -3.62,6.825 3.292,8.017 6.907,1.191 21.059,-6.826 10.364,-9.968 z" style="fill:#963c22;fill-rule:nonzero" id="path42-5"/>
        <path d="m 150.05,22.777 c -3.201,-0.552 -5.254,-2.081 -6.035,-3.667 -1.274,2.133 0.943,5.474 6.035,6.351 5.764,0.995 16.551,-4.419 13.77,-8.066 -1.902,3.107 -9.328,6.148 -13.77,5.382 z" style="fill:#37302b;fill-rule:nonzero" id="path44-1"/>
        <path d="m 149.527,21.894 c -0.155,0 -0.307,-0.003 -0.454,-0.01 -4.394,-0.204 -4.378,-3.27 -1.288,-3.27 0.144,0 0.295,0.007 0.453,0.021 0.142,0.012 0.279,0.018 0.412,0.018 1.315,0 2.238,-0.582 3.13,-1.163 0.893,-0.582 1.756,-1.164 2.953,-1.164 0.508,0 1.076,0.105 1.732,0.36 5.414,2.095 -2.273,5.209 -6.938,5.208 z" style="fill:#b15929;fill-rule:nonzero" id="path46-6"/>
        <path d="m 242.973,93.796 c -4.663,-3.25 -5.593,-1.275 -10.364,1.502 -4.774,2.775 -9.215,3.27 -11.354,2.117 -1.082,-0.583 -2.459,2.291 -1.444,5.164 0.991,2.804 4.26,5.608 12.304,5.202 16.289,-0.821 16.289,-10.202 10.858,-13.985 z" style="fill:#963c22;fill-rule:nonzero" id="path48-0"/>
        <path d="m 232.115,104.984 c -8.668,0.438 -11.793,-2.85 -12.496,-5.851 -0.776,3.137 0.884,9.234 12.496,8.648 11.624,-0.586 14.949,-5.53 13.928,-9.689 -0.84,3.321 -4.858,6.436 -13.928,6.892 z" style="fill:#37302b;fill-rule:nonzero" id="path50-4"/>
        <path d="m 230.436,101.354 c -4.592,0 -3.875,-2.295 0.362,-3.115 3.715,-0.72 4.986,-2.574 6.357,-2.574 0.511,0 1.036,0.258 1.706,0.929 0,0 3.29,3.126 -4.938,4.441 -1.393,0.223 -2.551,0.319 -3.487,0.319 z" style="fill:#b15929;fill-rule:nonzero" id="path52-6"/>
        <path d="m 146.298,92.339 c -4.663,-3.248 -5.595,-1.273 -10.366,1.503 -4.772,2.776 -9.213,3.27 -11.353,2.117 -1.083,-0.582 -2.46,2.291 -1.445,5.165 0.99,2.804 4.259,5.608 12.303,5.201 16.287,-0.824 16.287,-10.2 10.861,-13.986 z" style="fill:#963c22;fill-rule:nonzero" id="path54-5"/>
        <path d="m 135.437,103.528 c -8.665,0.438 -11.79,-2.85 -12.491,-5.851 -0.78,3.135 0.881,9.234 12.491,8.648 11.624,-0.586 14.95,-5.529 13.932,-9.691 -0.843,3.323 -4.859,6.437 -13.932,6.894 z" style="fill:#37302b;fill-rule:nonzero" id="path56-7"/>
        <path d="m 133.756,99.897 c -4.588,0 -3.871,-2.294 0.364,-3.115 3.718,-0.719 4.989,-2.573 6.359,-2.573 0.51,0 1.035,0.258 1.705,0.928 0,0 3.29,3.126 -4.936,4.441 -1.396,0.224 -2.554,0.319 -3.492,0.319 z" style="fill:#b15929;fill-rule:nonzero" id="path58-2"/>
        <path d="m 271.043,79.256 c -4.663,-3.249 -5.596,-1.275 -10.366,1.502 -4.773,2.779 -9.215,3.271 -11.355,2.12 -1.082,-0.584 -2.46,2.29 -1.443,5.164 0.991,2.803 4.261,5.607 12.304,5.201 16.287,-0.823 16.287,-10.201 10.86,-13.987 z" style="fill:#963c22;fill-rule:nonzero" id="path60-8"/>
        <path d="m 260.183,90.446 c -8.668,0.437 -11.791,-2.851 -12.496,-5.851 -0.777,3.136 0.885,9.233 12.496,8.648 11.621,-0.588 14.947,-5.531 13.929,-9.691 -0.843,3.321 -4.859,6.436 -13.929,6.894 z" style="fill:#37302b;fill-rule:nonzero" id="path62-3"/>
        <path d="m 258.503,86.816 c -4.593,0 -3.875,-2.296 0.364,-3.116 3.715,-0.719 4.985,-2.574 6.356,-2.574 0.511,0 1.036,0.258 1.706,0.928 0,0 3.288,3.127 -4.937,4.443 -1.395,0.223 -2.552,0.319 -3.489,0.319 z" style="fill:#b15929;fill-rule:nonzero" id="path64-2"/>
        <path d="M 28.051,67.725 C 23.39,64.477 22.458,66.451 17.687,69.227 12.915,72.003 8.474,72.498 6.333,71.344 5.251,70.762 3.874,73.635 4.89,76.51 c 0.99,2.803 4.259,5.607 12.302,5.202 16.29,-0.824 16.29,-10.202 10.859,-13.987 z" style="fill:#963c22;fill-rule:nonzero" id="path66-6"/>
        <path d="M 17.192,78.914 C 8.526,79.352 5.401,76.063 4.701,73.064 c -0.78,3.134 0.884,9.234 12.491,8.648 11.624,-0.588 14.95,-5.532 13.931,-9.691 -0.843,3.323 -4.858,6.435 -13.931,6.893 z" style="fill:#37302b;fill-rule:nonzero" id="path68-3"/>
        <path d="m 15.517,75.284 c -4.593,0 -3.876,-2.295 0.359,-3.117 3.717,-0.719 4.987,-2.572 6.357,-2.572 0.51,0 1.035,0.258 1.705,0.928 0,0 3.291,3.125 -4.935,4.443 -1.393,0.223 -2.55,0.318 -3.486,0.318 z" style="fill:#b15929;fill-rule:nonzero" id="path70-9"/>
        <path d="m 127.187,149.836 c -1.207,-0.384 2.193,2.302 4.883,4.881 2.687,2.576 3.617,7.129 3.617,7.129 1.536,2.852 2.36,1.536 1.099,-3.126 -1.263,-4.663 -8.391,-8.502 -9.599,-8.884 z" style="fill:#91c961;fill-rule:nonzero" id="path72-5"/>
        <path d="m 141.777,161.078 c 0,0 4.056,-5.537 3.29,-12.888 z" style="fill:#91c961;fill-rule:nonzero" id="path74-8"/>
        <path d="m 147.372,159.323 c -1.428,2.357 3.945,1.755 3.345,-8.664 0,0 -1.921,6.305 -3.345,8.664 z" style="fill:#91c961;fill-rule:nonzero" id="path76-5"/>
    </g>
</svg>
