<?xml version="1.0" encoding="UTF-8" standalone="no"?>
<svg xmlns="http://www.w3.org/2000/svg" width="100%" height="100%" viewBox="-10 0 380 350" version="1.1" style="clip-rule:evenodd;fill-rule:evenodd;stroke-linejoin:round;stroke-miterlimit:2" id="svg311">
    <g transform="translate(34.867,151.02942)" style="clip-rule:evenodd;display:inline;fill-rule:evenodd;stroke-linejoin:round;stroke-miterlimit:2" id="stage-4">
        <path d="m 181.134,37.299 -0.36,-1.079 c 0.243,0.141 0.462,0.275 0.664,0.404 -0.199,0.417 -0.304,0.675 -0.304,0.675 z m -6.44,-1.384 c 0,0 -0.564,-1.283 -1.185,-2.904 0.567,0.203 1.1,0.401 1.601,0.596 z m -7.681,-0.047 c -0.411,1.146 -1.379,-2.199 -2.014,-5.73 1.324,0.479 2.657,0.941 3.984,1.369 -0.889,1.743 -1.695,3.594 -1.97,4.361 z m -6.152,-6.676 c -0.362,1.156 -1.301,0.059 -2.289,-1.569 0.807,0.342 1.633,0.68 2.479,1.018 -0.073,0.193 -0.139,0.381 -0.19,0.551 z m 26.838,-0.504 c -1.632,1.094 -2.984,2.644 -4.033,4.128 0.523,-4.792 1.767,-11.507 4.738,-14.37 4.857,-4.691 -3.785,-3.132 -7.97,-0.323 -4.183,2.807 -6.567,8.61 -6.567,8.61 l -4.338,-13.026 -2.1,11.644 c 0,0 -2.136,-4.837 -2.642,-7.601 -0.506,-2.763 -4.364,5.671 -5.041,7.552 -0.673,1.882 -2.846,-8.305 -2.589,-11.597 0.26,-3.295 -2.774,2.393 -3.562,4.921 -0.789,2.529 -4.327,-5.678 -5.143,-6.716 -0.816,-1.035 -0.142,8.212 -1.631,9.058 -0.839,0.476 2.862,2.681 8.341,5.17 -0.116,2.329 -0.315,4.961 -1.075,5.396 -1.488,0.845 11.409,7.177 23.122,10.845 11.708,3.671 13.351,6.325 13.351,6.325 0,0 0.248,-15.005 5.106,-19.695 4.861,-4.69 -3.781,-3.13 -7.967,-0.321 z" style="fill:#8fa73d;fill-rule:nonzero" id="path2-7"/>
        <path d="M 279.153,95.459 C 272.298,91.001 263.725,89.973 259.61,83.46 255.496,76.944 248.98,69.057 233.206,62.542 217.436,56.027 212.978,57.058 206.12,53.626 199.26,50.198 177.316,34.08 162.916,29.967 153.302,27.222 149.885,18.654 140.285,25.51 c -9.6,6.858 -20.229,12.346 -30.518,10.974 -10.284,-1.372 -17.83,2.056 -21.943,7.199 -4.117,5.144 -6.173,5.829 -12.687,5.144 -6.514,-0.686 -7.886,1.713 -14.401,5.486 -6.517,3.773 -9.944,0.685 -17.147,3.429 C 36.39,60.484 31.588,63.228 30.222,69.057 28.845,74.886 29.189,71.801 19.93,75.229 10.675,78.658 6.215,79.687 5.185,84.488 4.16,89.287 1.363,95.921 0.332,96.95 c -1.027,1.03 0.357,5.333 3.785,7.732 3.43,2.4 20.497,1.75 21.07,4.493 0.575,2.744 10.518,2.968 13.604,5.6 3.086,2.629 3.771,6.058 8.915,7.771 5.144,1.716 12.341,0.689 17.829,7.889 5.487,7.198 29.831,20.917 38.746,29.487 8.917,8.572 28.804,22.116 37.375,18.515 8.572,-3.599 26.589,-12.343 36.956,-12 10.364,0.343 16.878,-2.741 21.677,-8.915 4.802,-6.17 17.833,-20.915 27.773,-20.573 9.945,0.345 24.004,-2.745 28.119,-8.917 4.115,-6.17 8.229,-5.141 15.086,-9.256 6.859,-4.115 15.774,-10.973 17.147,-13.374 1.367,-2.399 -2.403,-5.486 -9.261,-9.943 z" style="fill:#758035;fill-rule:nonzero" id="path4-9"/>
        <path d="m 281.52,95.14 c -6.581,-4.279 -21.554,-4.723 -25.504,-10.976 -3.948,-6.252 -10.198,-13.82 -25.335,-20.072 -15.139,-6.252 -19.418,-5.266 -25.998,-8.557 -6.579,-3.291 -27.642,-18.756 -41.464,-22.706 -9.221,-2.635 -12.503,-10.858 -21.718,-4.276 -9.213,6.581 -19.413,11.846 -29.286,10.529 -9.87,-1.316 -17.111,1.975 -21.059,6.911 -3.95,4.936 -5.925,5.596 -12.175,4.936 -6.254,-0.658 -7.569,1.646 -13.82,5.264 -6.253,3.621 -9.546,0.66 -16.455,3.292 -6.911,2.632 -11.517,5.264 -12.833,10.859 -1.317,5.594 -0.988,2.633 -9.872,5.924 -8.884,3.291 -13.163,4.276 -14.15,8.883 -0.59,2.754 -3.149,1.552 -5.323,0.35 -1.463,-0.809 -2.752,-1.618 -3.149,-1.221 -0.987,0.987 -0.414,14.363 2.878,16.666 3.29,2.306 24.24,5.266 24.79,7.898 0.548,2.634 10.091,2.848 13.051,5.374 2.962,2.524 3.621,5.813 8.556,7.46 4.937,1.646 11.848,0.657 17.114,7.567 5.263,6.91 28.628,20.076 37.182,28.301 8.557,8.227 27.643,21.225 35.87,17.769 8.225,-3.454 25.517,-11.846 35.463,-11.517 9.947,0.33 16.199,-2.633 20.805,-8.555 4.607,-5.922 17.112,-20.073 26.654,-19.744 9.546,0.328 23.036,-2.633 26.984,-8.556 3.951,-5.922 7.899,-4.937 14.479,-8.885 6.582,-3.948 15.137,-10.529 16.453,-12.833 1.316,-2.303 4.445,-5.808 -2.138,-10.085 z" style="fill:#37302b;fill-rule:nonzero" id="path6-54"/>
        <path d="M 274.774,88.887 C 268.192,84.61 259.966,83.622 256.016,77.369 252.068,71.116 245.818,63.549 230.681,57.297 215.542,51.045 211.263,52.031 204.683,48.74 198.104,45.451 177.041,29.984 163.219,26.034 153.998,23.4 150.716,15.179 141.501,21.758 c -9.213,6.582 -19.413,11.847 -29.286,10.528 -9.87,-1.315 -17.111,1.976 -21.059,6.911 -3.95,4.937 -5.925,5.595 -12.175,4.937 -6.254,-0.657 -7.569,1.646 -13.82,5.265 -6.253,3.62 -9.546,0.66 -16.455,3.292 -6.911,2.632 -11.517,5.264 -12.833,10.858 -1.317,5.594 -0.988,2.634 -9.872,5.922 -8.884,3.292 -13.163,4.279 -14.15,8.886 -0.987,4.606 -6.912,3.619 -7.899,4.606 -0.987,0.988 -0.987,8.885 2.305,11.189 3.29,2.304 24.24,5.265 24.79,7.897 0.548,2.633 10.091,2.848 13.051,5.373 2.962,2.525 3.621,5.817 8.556,7.46 4.937,1.648 11.848,0.658 17.114,7.57 5.263,6.91 28.628,20.073 37.182,28.3 8.557,8.226 27.643,21.224 35.87,17.77 8.225,-3.457 25.517,-11.847 35.463,-11.52 9.947,0.331 16.199,-2.631 20.805,-8.554 4.607,-5.923 17.112,-20.074 26.654,-19.744 9.546,0.328 23.036,-2.633 26.984,-8.556 3.951,-5.922 7.899,-4.935 14.479,-8.884 6.582,-3.949 15.137,-10.53 16.453,-12.834 1.316,-2.303 -2.305,-5.266 -8.884,-9.543 z" style="fill:#542f29;fill-rule:nonzero" id="path8-4"/>
        <path d="m 168.155,165.384 c -1.49,-0.845 -0.813,-10.095 -1.634,-9.058 -0.814,1.038 -4.353,9.247 -5.142,6.717 -0.789,-2.529 -3.821,-8.218 -3.563,-4.925 0.261,3.295 -1.915,13.482 -2.588,11.601 -0.675,-1.883 -4.533,-10.316 -5.044,-7.553 -0.501,2.764 -2.639,7.601 -2.639,7.601 l -2.099,-11.644 -4.339,13.027 c 0,0 -2.383,-5.804 -6.566,-8.611 -4.184,-2.808 -12.826,-4.368 -7.969,0.321 4.858,4.692 7.28,10.711 7.28,10.711 0,0 -0.531,6.329 11.179,2.661 11.713,-3.67 24.614,-10.003 23.124,-10.848 z" style="fill:#8fa73d;fill-rule:nonzero" id="path10-5"/>
        <path d="m 139.87,164.155 c -3.381,0 -6.002,-1.594 -7.46,-4.134 4.692,-1.379 8.668,-3.766 9.979,-5.64 0.832,-1.194 1.148,-2.453 1.277,-3.428 0.343,0.022 0.687,0.041 1.025,0.056 0.021,0.046 0.042,0.094 0.064,0.142 1.569,3.531 2.364,5.249 7.845,7.89 -2.265,1.332 -4.403,2.562 -6.363,3.471 l -0.791,-4.389 -1.806,5.423 c -0.381,0.121 -0.752,0.223 -1.115,0.304 -0.928,0.207 -1.815,0.305 -2.655,0.305 z m 42.079,-12.86 c -0.455,0 -0.885,-0.069 -1.286,-0.214 -0.437,-0.158 -0.876,-0.295 -1.316,-0.412 2.536,-2.264 10.139,-4.431 12.212,-11.393 1.464,-4.902 -0.155,-9.011 -1.484,-11.304 0.092,0.022 0.185,0.044 0.278,0.064 l 0.001,0.001 c 0.007,0.005 0.014,0.01 0.021,0.015 0.002,0.001 0.004,0.003 0.006,0.004 0.007,0.005 0.013,0.01 0.02,0.015 0.004,0.003 0.008,0.006 0.012,0.008 0.003,0.003 0.006,0.005 0.009,0.007 1.669,1.196 4.229,2.045 8.033,2.091 h 0.008 c 0.036,0.001 0.073,0.001 0.11,0.001 h 0.01 c 0.012,0 0.023,0.001 0.034,0.001 h 0.165 c 0.331,0 0.671,-0.006 1.021,-0.018 0.163,-0.006 0.329,-0.013 0.497,-0.021 0.019,-10e-4 0.039,-0.002 0.059,-0.003 0.007,-0.001 0.013,-0.001 0.019,-0.001 0.016,-0.001 0.03,-0.002 0.046,-0.003 0.005,0 0.01,0 0.016,-0.001 0.019,-0.001 0.038,-0.002 0.057,-0.003 0.007,0 0.012,0 0.018,-0.001 0.014,0 0.028,-10e-4 0.041,-0.002 0.008,0 0.015,-0.001 0.022,-0.001 0.019,-0.001 0.036,-0.002 0.055,-0.003 0.006,-0.001 0.013,-0.001 0.018,-0.002 0.014,0 0.028,-0.001 0.042,-0.002 0.008,0 0.015,-0.001 0.023,-0.001 0.014,-10e-4 0.029,-0.002 0.044,-0.003 0.008,-0.001 0.016,-0.001 0.024,-0.002 0.015,0 0.028,-0.001 0.042,-0.002 0.009,-0.001 0.018,-0.001 0.027,-0.002 0.01,-0.001 0.024,-0.001 0.034,-0.002 0.009,-0.001 0.016,-0.001 0.025,-0.002 0.016,-0.001 0.034,-0.002 0.051,-0.003 0.008,-0.001 0.017,-0.001 0.025,-0.002 0.012,-10e-4 0.022,-10e-4 0.033,-0.002 0.008,0 0.017,-0.001 0.025,-0.002 0.013,-0.001 0.025,-0.001 0.038,-0.002 0.015,-10e-4 0.029,-0.002 0.045,-0.003 0.007,-0.001 0.015,-0.001 0.022,-0.002 0.012,-0.001 0.023,-0.002 0.034,-0.002 0.005,-0.001 0.012,-0.001 0.017,-0.002 0.025,-0.002 0.051,-0.003 0.076,-0.005 0.001,0 0.003,-0.001 0.004,-0.001 0.014,-0.001 0.027,-0.002 0.04,-0.003 h 0.012 c 0.042,-0.004 0.083,-0.007 0.125,-0.01 0.003,0 0.006,-0.001 0.008,-0.001 6.068,-0.482 9.677,-2.222 11.484,-4.371 0.001,-0.002 0.003,-0.005 0.005,-0.006 0.003,-0.004 0.006,-0.008 0.009,-0.012 0.005,-0.006 0.011,-0.012 0.016,-0.018 0.001,-10e-4 0.002,-0.003 0.002,-0.004 1.949,-2.349 1.756,-5.179 0.268,-7.389 0.148,0.008 0.295,0.015 0.442,0.022 0.021,0.047 0.042,0.094 0.064,0.143 1.632,3.668 2.428,5.38 8.51,8.203 -3.396,1.397 -7.012,3.027 -11.331,5.362 -11.354,6.137 -22.685,19.302 -28.987,19.301 z m 3.004,-25.463 -2.67,-0.125 c 0.294,-0.355 0.592,-0.719 0.892,-1.091 0.521,0.407 1.107,0.816 1.778,1.216 z m 73.735,-15.569 c 0.796,-1.064 1.451,-2.287 1.875,-3.71 2.264,-7.584 -2.852,-13.27 -2.852,-13.27 l -8.039,-0.374 c -0.008,-0.095 -0.02,-0.189 -0.036,-0.279 4.067,-2.28 8.006,-3.333 12.227,-3.333 1.828,0 3.708,0.198 5.673,0.578 10.198,1.973 6.606,7.526 3.617,10.859 -3.753,4.188 -7.898,7.054 -12.465,9.529 z" style="fill:#6f3923;fill-rule:nonzero" id="path12-5"/>
        <path d="m 143.64,163.546 1.806,-5.423 0.791,4.389 c -0.905,0.42 -1.772,0.772 -2.597,1.034 z" style="fill:#a1a438;fill-rule:nonzero" id="path14-2"/>
        <path d="m 231.338,97.323 c -8.885,7.451 -16.452,3.74 -28.626,3.74 -12.178,0 -16.458,9.542 -23.036,16.674 -6.584,7.128 -33.568,11.955 -46.07,16.56 -12.505,4.608 -7.57,18.76 -7.241,12.835 0.329,-5.924 19.743,-17.44 36.527,-17.77 16.784,-0.33 24.021,-17.77 31.919,-21.94 7.901,-4.168 21.059,-2.41 28.63,-2.08 7.569,0.328 22.044,-18.429 22.044,-18.429 3.341,-4.046 -5.261,2.962 -14.147,10.41 z" style="fill:#37302b;fill-rule:nonzero" id="path16-3"/>
        <path d="m 94.224,135.655 c -1.417,-3.034 -1.316,-7.198 0.88,-11.568 0.497,-0.987 0.958,-1.851 1.404,-2.609 0.461,0.657 0.997,1.285 1.615,1.88 -2.017,3.01 -3.962,7.616 -3.899,12.297 z" style="fill:#6f3923;fill-rule:nonzero" id="path18-1"/>
        <path d="m 193.497,73.621 c -8.886,7.451 -16.456,3.739 -28.631,3.739 -12.175,0 -16.452,9.544 -23.033,16.671 -6.583,7.132 -33.566,11.957 -46.069,16.564 -12.506,4.608 -7.569,18.757 -7.24,12.833 0.327,-5.92 19.743,-17.44 36.528,-17.769 16.781,-0.33 24.018,-17.768 31.917,-21.939 7.897,-4.169 21.06,-2.412 28.628,-2.083 7.57,0.33 22.048,-18.429 22.048,-18.429 3.336,-4.045 -5.264,2.965 -14.148,10.413 z" style="fill:#37302b;fill-rule:nonzero" id="path20-3"/>
        <path d="m 59.941,116.571 c -1.539,0 -2.921,-0.331 -4.107,-0.931 1.506,0.274 3.103,0.509 4.72,0.913 -0.207,0.012 -0.411,0.018 -0.613,0.018 z" style="fill:#5b3f25;fill-rule:nonzero" id="path22-9"/>
        <path d="m 60.554,116.553 c -1.617,-0.404 -3.214,-0.639 -4.72,-0.913 -0.09,-0.045 -0.179,-0.093 -0.267,-0.141 0.182,0.005 0.364,0.007 0.547,0.007 7.373,0 15.317,-3.956 17.279,-6.764 0.833,-1.193 1.149,-2.453 1.279,-3.428 0.343,0.022 0.685,0.041 1.024,0.056 0.021,0.047 0.042,0.094 0.064,0.143 0.556,1.251 1.015,2.274 1.62,3.192 -5.658,3.219 -10.8,6.672 -14.782,7.56 -0.706,0.157 -1.388,0.252 -2.044,0.288 z M 138.272,80.8 c -0.377,-0.355 -0.77,-0.669 -1.174,-0.942 2.519,-1.223 4.457,-2.636 5.298,-3.838 0.832,-1.194 1.149,-2.454 1.278,-3.429 0.343,0.022 0.685,0.041 1.024,0.056 0.021,0.047 0.042,0.095 0.064,0.143 0.792,1.781 1.387,3.101 2.486,4.311 -2.897,1.124 -5.78,2.251 -8.976,3.699 z" style="fill:#6f3923;fill-rule:nonzero" id="path24-1"/>
        <path d="m 151.41,49.74 c -8.885,7.45 -16.452,3.738 -28.629,3.738 -12.174,0 -16.451,9.543 -23.036,16.673 -6.578,7.132 -33.564,11.956 -46.066,16.564 -12.505,4.606 -7.571,18.756 -7.239,12.833 0.327,-5.924 19.741,-17.441 36.525,-17.771 16.78,-0.33 24.024,-17.769 31.921,-21.938 7.895,-4.17 21.059,-2.412 28.628,-2.084 7.566,0.331 22.047,-18.426 22.047,-18.426 3.337,-4.047 -5.266,2.96 -14.151,10.411 z" style="fill:#37302b;fill-rule:nonzero" id="path26-3"/>
        <path d="m 20.099,94.377 c -6.847,0 -11.078,-4.269 -7.074,-12.235 3.103,-6.17 8.9,-3.938 15.082,-5.524 0.312,0.379 0.652,0.746 1.022,1.102 -2.41,3.596 -4.717,9.472 -3.618,15.03 0.053,0.271 0.109,0.528 0.168,0.772 -0.429,0.141 -0.848,0.259 -1.254,0.349 -1.516,0.339 -2.972,0.506 -4.326,0.506 z M 98.693,39.573 c -0.437,-0.183 -0.886,-0.353 -1.343,-0.51 0.273,-0.163 0.549,-0.318 0.829,-0.465 0.167,0.324 0.338,0.649 0.514,0.975 z" style="fill:#5b3127;fill-rule:nonzero" id="path28-2"/>
        <path d="m 70.209,89.844 c -3.733,-1.665 -8.391,1.315 -13.656,2.96 -5.264,1.647 -3.623,10.366 3.29,12.177 6.91,1.81 21.061,-10.367 10.366,-15.137 z" style="fill:#963c22;fill-rule:nonzero" id="path30-7"/>
        <path d="m 59.843,100.903 c -3.196,-0.838 -5.252,-3.158 -6.031,-5.569 -1.279,3.242 0.944,8.314 6.031,9.647 5.765,1.506 16.553,-6.709 13.771,-12.249 -1.901,4.716 -9.329,9.333 -13.771,8.171 z" style="fill:#37302b;fill-rule:nonzero" id="path32-4"/>
        <path d="m 225.908,72.544 c -3.73,-1.095 -8.393,0.866 -13.659,1.95 -5.262,1.084 -3.617,6.828 3.291,8.019 6.913,1.193 21.061,-6.827 10.368,-9.969 z" style="fill:#963c22;fill-rule:nonzero" id="path34-7"/>
        <path d="m 215.54,79.828 c -3.198,-0.552 -5.252,-2.079 -6.03,-3.668 -1.276,2.135 0.945,5.477 6.03,6.353 5.766,0.995 16.555,-4.419 13.771,-8.066 -1.897,3.106 -9.328,6.147 -13.771,5.381 z" style="fill:#37302b;fill-rule:nonzero" id="path36-0"/>
        <path d="m 160.416,27.324 c -3.735,-1.096 -8.392,0.865 -13.655,1.951 -5.266,1.082 -3.62,6.825 3.289,8.017 6.912,1.194 21.062,-6.826 10.366,-9.968 z" style="fill:#963c22;fill-rule:nonzero" id="path38-75"/>
        <path d="m 150.05,34.606 c -3.199,-0.551 -5.249,-2.077 -6.031,-3.665 -1.276,2.133 0.946,5.472 6.031,6.351 5.766,0.994 16.555,-4.419 13.77,-8.066 -1.899,3.105 -9.328,6.146 -13.77,5.38 z" style="fill:#37302b;fill-rule:nonzero" id="path40-4"/>
        <path d="m 211.159,116.156 c -4.661,-3.251 -5.595,-1.277 -10.363,1.5 -4.773,2.776 -9.214,3.269 -11.355,2.119 -1.082,-0.583 -2.461,2.29 -1.445,5.164 0.991,2.803 4.26,5.607 12.304,5.201 16.288,-0.822 16.288,-10.2 10.859,-13.984 z" style="fill:#963c22;fill-rule:nonzero" id="path42-51"/>
        <path d="m 200.3,127.343 c -8.666,0.438 -11.79,-2.851 -12.495,-5.852 -0.776,3.137 0.884,9.235 12.495,8.649 11.626,-0.587 14.949,-5.53 13.932,-9.689 -0.844,3.323 -4.861,6.435 -13.932,6.892 z" style="fill:#37302b;fill-rule:nonzero" id="path44-31"/>
        <path d="m 146.301,104.17 c -4.665,-3.249 -5.594,-1.275 -10.366,1.5 -4.774,2.777 -9.215,3.273 -11.354,2.121 -1.083,-0.583 -2.461,2.291 -1.444,5.165 0.991,2.803 4.261,5.607 12.304,5.201 16.288,-0.825 16.288,-10.202 10.86,-13.987 z" style="fill:#963c22;fill-rule:nonzero" id="path46-8"/>
        <path d="m 135.441,115.358 c -8.668,0.439 -11.791,-2.849 -12.495,-5.85 -0.778,3.137 0.884,9.233 12.495,8.649 11.622,-0.589 14.949,-5.531 13.929,-9.69 -0.845,3.322 -4.857,6.435 -13.929,6.891 z" style="fill:#37302b;fill-rule:nonzero" id="path48-2"/>
        <path d="m 211.159,89.367 c -4.663,-3.251 -5.595,-1.274 -10.363,1.499 -4.773,2.779 -9.214,3.271 -11.355,2.121 -1.082,-0.584 -2.46,2.29 -1.445,5.164 0.99,2.803 4.259,5.607 12.304,5.201 16.288,-0.822 16.288,-10.201 10.859,-13.985 z" style="fill:#963c22;fill-rule:nonzero" id="path50-70"/>
        <path d="m 200.3,100.555 c -8.666,0.438 -11.79,-2.85 -12.495,-5.851 -0.776,3.136 0.882,9.234 12.495,8.648 11.626,-0.588 14.949,-5.53 13.927,-9.69 -0.84,3.324 -4.856,6.434 -13.927,6.893 z" style="fill:#37302b;fill-rule:nonzero" id="path52-00"/>
        <path d="m 127.188,161.667 c -1.206,-0.384 2.197,2.302 4.882,4.88 2.686,2.576 3.619,7.131 3.619,7.131 1.537,2.851 2.36,1.535 1.098,-3.127 -1.262,-4.662 -8.39,-8.502 -9.599,-8.884 z" style="fill:#91c961;fill-rule:nonzero" id="path54-9"/>
        <path d="m 141.777,172.909 c 0,0 4.061,-5.539 3.292,-12.888 z" style="fill:#91c961;fill-rule:nonzero" id="path56-6"/>
        <path d="m 147.372,171.154 c -1.43,2.357 3.947,1.755 3.344,-8.667 0,0 -1.916,6.307 -3.344,8.667 z" style="fill:#91c961;fill-rule:nonzero" id="path58-1"/>
        <path d="m 175.146,47.014 13.571,0.631 c 0,0 5.115,5.685 2.851,13.268 -2.26,7.581 -11.07,9.478 -12.762,12.003 -1.691,2.53 -10.802,14.092 -21.062,9.985 -10.264,-4.11 -11.015,-5.689 -12.982,-10.111 -1.966,-4.424 0.101,-0.309 -2.366,3.23 -2.474,3.538 -14.45,8.902 -22.806,5.868 -8.361,-3.033 -8.164,-7.833 -12.196,-7.833 -4.031,0 -5.537,-1.012 -6.063,-5.561 -0.526,-4.549 -5.148,0 -6.817,-8.467 -1.672,-8.466 4.553,-17.671 7.012,-18.428 2.457,-0.759 60.739,-6.97 73.62,5.415 z" style="fill:#987f2e;fill-rule:nonzero" id="path60-87"/>
        <path d="m 175.333,28.136 c 0,0 3.902,-4.788 13.126,-2.394 9.226,2.394 10.363,3.532 11.753,3.28 1.391,-0.252 -5.308,4.926 -1.39,9.855 3.919,4.928 6.824,11.752 3.159,16.553 -3.664,4.803 -22.746,-1.139 -22.746,-1.139 z" style="fill:#87762c;fill-rule:nonzero" id="path62-0"/>
        <path d="m 172.416,27.049 c 0,0 4.184,1.781 3.644,-10.517 -0.727,-16.534 -33.379,-9.716 -37.564,-13.884 -4.184,-4.169 -10.162,-3.035 -16.271,0.758 -6.11,3.79 -23.484,7.639 -26.264,18.885 -2.781,11.244 2.89,16.552 7.565,26.161 5.543,11.393 66.362,-11.423 68.89,-21.403 z" style="fill:#5f551f;fill-rule:nonzero" id="path64-5"/>
        <path d="m 178.748,44.656 c 0,19.051 -14.309,27.561 -33.36,27.561 -19.052,0 -35.632,-8.51 -35.632,-27.561 0,-19.052 15.443,-34.5 34.496,-34.5 19.054,0 34.496,15.448 34.496,34.5 z" style="fill:#987f2e;fill-rule:nonzero" id="path66-8"/>
        <path d="m 133.16,10.156 c 0,0 -5.614,5.224 -0.954,8.258 4.659,3.033 12.524,3.874 12.046,8.254 -0.478,4.381 1.207,8.088 6.599,8.593 1.6,0.149 2.87,0.018 3.938,-0.114 2.532,-0.313 3.93,-0.625 5.897,2.81 2.798,4.887 15.155,5.403 19.03,7.592 3.875,2.192 -4.607,15.76 -10.46,20.817 -5.854,5.052 -20.886,9.331 -39.779,3.601 -18.895,-5.726 -55.749,-53.028 3.683,-59.811 z" style="fill:#6f6426;fill-rule:nonzero" id="path68-1"/>
        <path d="m 167.271,18.963 c 0,0 12.926,11.338 2.996,18.934 -9.931,7.6 -20.344,8.357 -23.503,10.759 -3.16,2.401 -4.985,8.591 -4.985,8.591 0,0 11.43,-6.317 23.18,-2.399 11.753,3.916 21.608,4.295 22.619,-3.287 1.011,-7.58 -2.275,-7.833 0.757,-14.783 3.034,-6.951 1.467,-22.111 -21.064,-17.815 z" style="fill:#987f2e;fill-rule:nonzero" id="path70-96"/>
        <path d="m 166.088,37.128 c -3.529,-10e-4 -9.021,-4.972 -12.764,-5.843 -4.294,-0.999 -5.391,-2.697 -6.29,-8.386 -0.897,-5.693 -12.563,-4.061 -10.483,-6.192 3.171,-3.246 6.975,-4.581 10.909,-4.581 6.469,0 13.283,3.613 18.181,8.276 7.875,7.497 5.158,14.479 1.863,16.376 -0.422,0.242 -0.898,0.35 -1.416,0.35 z M 150.523,13.859 c -2.785,0 -5.554,0.772 -8.283,0.952 -6.092,0.4 1.9,2.595 6.992,3.398 5.091,0.802 0.998,3.89 4.992,10.182 0.903,1.422 1.964,2.022 2.999,2.022 3.542,0 6.775,-7.03 2.295,-12.204 -2.998,-3.462 -6.006,-4.35 -8.995,-4.35 z" style="fill:#b39431;fill-rule:nonzero" id="path72-7"/>
        <path d="m 152.719,44.321 c -2.946,0 -7.459,-1.067 -11.976,-2.628 -7.289,-2.52 -30.655,-4.158 -33.451,-9.281 -2.793,-5.122 -1.597,-14.308 23.267,-20.898 0,0 -3.197,7.191 0.797,9.687 3.995,2.496 11.582,3.195 11.285,6.689 -0.3,3.497 2.195,8.831 5.493,10.007 3.293,1.175 8.577,2.619 7.879,5.084 -0.265,0.938 -1.484,1.34 -3.294,1.34 z" style="fill:#816f2a;fill-rule:nonzero" id="path74-4"/>
        <path d="m 189.351,52.295 c 1.808,1.846 1.517,8.895 -3.029,11.889 -4.548,2.996 -8.857,6.726 -9.909,9.055 -1.047,2.329 -8.571,9.964 -16.175,7.868 -7.601,-2.095 -14.478,-6.287 -11.333,-5.24 3.149,1.051 17.718,2.098 18.767,-1.646 1.051,-3.744 5.711,-10.993 8.51,-11.488 0.755,-0.134 1.442,-0.013 2.066,0.108 1.686,0.327 2.911,0.654 3.763,-4.048 1.163,-6.441 4.696,-9.199 7.34,-6.498 z" style="fill:#6f6426;fill-rule:nonzero" id="path76-0"/>
        <path d="m 188.704,29.182 c 4.941,0 5.392,-0.043 6.889,6.27 1.497,6.311 7.19,12.731 4.194,15.062 -2.998,2.332 -12.638,0.933 -10.287,-1.287 2.348,-2.222 3.996,-5.967 2.647,-10.609 -1.348,-4.642 -3.443,-9.436 -3.443,-9.436 z" style="fill:#6f6426;fill-rule:nonzero" id="path78-4"/>
        <path d="m 126.964,14.511 c -3.039,3.255 3.787,10.101 9.339,10.784 5.548,0.684 4.043,3.262 5.14,7.622 1.098,4.362 -22.467,5.612 -23.465,-4.998 -0.999,-10.612 11.782,-16.403 8.986,-13.408 z" style="fill:#987f2e;fill-rule:nonzero" id="path80-54"/>
        <path d="m 157.223,30.413 c -1.035,0 -2.096,-0.6 -2.999,-2.022 -3.994,-6.292 0.099,-9.38 -4.992,-10.182 -5.092,-0.803 -13.084,-2.998 -6.992,-3.398 2.729,-0.18 5.498,-0.952 8.283,-0.952 2.989,0 5.997,0.888 8.995,4.35 4.48,5.174 1.247,12.204 -2.295,12.204 z" style="fill:#bb9b30;fill-rule:nonzero" id="path82-2"/>
        <path d="m 135.913,10.156 c -0.195,0.586 -5.131,6.352 0,8.748 5.131,2.396 13.143,2.471 11.883,7.577 -1.259,5.105 -1.315,8.16 2.657,8.73 3.972,0.568 6.866,-0.371 6.269,0 -0.601,0.367 -11.083,1.215 -11.985,-1.555 -0.897,-2.77 1.031,-9.253 -4.69,-11.669 -5.722,-2.413 -9.683,-1.682 -9.687,-6.575 -0.005,-4.895 6.614,-8.41 5.553,-5.256 z" style="fill:#5f551f;fill-rule:nonzero" id="path84-4"/>
        <path d="m 106.144,79.736 13.57,0.631 c 0,0 5.116,5.686 2.852,13.27 -2.259,7.58 -11.071,9.476 -12.762,12.003 -1.691,2.528 -10.802,14.091 -21.063,9.983 -10.263,-4.108 -11.014,-5.687 -12.981,-10.11 -1.966,-4.424 0.101,-0.309 -2.367,3.229 -2.473,3.539 -14.449,8.903 -22.806,5.869 -8.36,-3.033 -8.164,-7.833 -12.195,-7.833 -4.033,0 -5.539,-1.012 -6.064,-5.561 -0.526,-4.549 -5.148,0 -6.817,-8.467 -1.673,-8.466 4.554,-17.671 7.012,-18.428 2.457,-0.759 60.738,-6.969 73.621,5.414 z" style="fill:#987f2e;fill-rule:nonzero" id="path86-2"/>
        <path d="m 106.331,60.86 c 0,0 3.902,-4.789 13.126,-2.395 9.223,2.395 10.361,3.531 11.753,3.279 1.39,-0.252 -5.308,4.926 -1.392,9.856 3.919,4.929 6.824,11.752 3.16,16.553 -3.663,4.802 -22.745,-1.139 -22.745,-1.139 z" style="fill:#87762c;fill-rule:nonzero" id="path88-0"/>
        <path d="m 103.413,59.772 c 0,0 6.094,1.546 3.644,-10.516 C 103.518,31.84 73.68,39.539 69.494,35.37 65.309,31.201 59.332,32.337 53.222,36.13 47.111,39.918 29.738,43.768 26.957,55.014 24.176,66.258 22.9,76.141 34.524,81.175 46.15,86.209 100.885,69.753 103.413,59.772 Z" style="fill:#5f551f;fill-rule:nonzero" id="path90-5"/>
        <path d="m 109.745,77.378 c 0,19.052 -14.309,27.562 -33.36,27.562 -19.052,0 -35.632,-8.51 -35.632,-27.562 0,-19.052 15.444,-34.499 34.496,-34.499 19.054,0 34.496,15.447 34.496,34.499 z" style="fill:#987f2e;fill-rule:nonzero" id="path92-7"/>
        <path d="m 64.156,42.879 c 0,0 -5.614,5.225 -0.952,8.258 4.659,3.033 12.524,3.874 12.045,8.254 -0.478,4.381 1.208,8.088 6.598,8.593 1.6,0.149 2.871,0.017 3.939,-0.114 2.532,-0.313 3.931,-0.626 5.898,2.81 2.797,4.886 15.153,5.402 19.028,7.593 3.875,2.192 -4.607,15.758 -10.458,20.816 -5.855,5.052 -20.886,9.331 -39.782,3.601 C 41.58,96.964 4.725,49.661 64.156,42.879 Z" style="fill:#6f6426;fill-rule:nonzero" id="path94-9"/>
        <path d="m 98.267,51.686 c 0,0 12.927,11.338 2.996,18.933 -9.931,7.601 -20.342,8.358 -23.503,10.76 -3.159,2.4 -4.983,8.591 -4.983,8.591 0,0 11.428,-6.317 23.18,-2.399 11.751,3.916 21.606,4.294 22.619,-3.287 1.009,-7.581 -2.277,-7.834 0.757,-14.784 3.033,-6.95 1.467,-22.11 -21.066,-17.814 z" style="fill:#987f2e;fill-rule:nonzero" id="path96-5"/>
        <path d="m 97.085,69.85 c -3.53,0 -9.02,-4.971 -12.763,-5.842 -4.294,-0.999 -5.392,-2.697 -6.29,-8.387 -0.898,-5.692 -12.565,-4.06 -10.484,-6.191 3.171,-3.247 6.975,-4.581 10.909,-4.581 6.468,0 13.283,3.613 18.18,8.275 7.877,7.497 5.159,14.48 1.864,16.376 -0.422,0.243 -0.898,0.35 -1.416,0.35 z M 81.52,46.582 c -2.785,0 -5.554,0.772 -8.282,0.951 -6.093,0.402 1.899,2.596 6.992,3.399 5.09,0.802 0.996,3.889 4.991,10.181 0.903,1.423 1.965,2.023 2.999,2.023 3.542,0 6.773,-7.03 2.294,-12.204 -2.998,-3.462 -6.005,-4.35 -8.994,-4.35 z" style="fill:#b39431;fill-rule:nonzero" id="path98-2"/>
        <path d="m 83.716,77.044 c -2.947,0 -7.46,-1.067 -11.977,-2.628 C 64.451,71.897 41.085,70.258 38.29,65.135 35.496,60.013 36.693,50.826 61.557,44.236 c 0,0 -3.198,7.192 0.797,9.688 3.994,2.496 11.582,3.195 11.283,6.688 -0.298,3.497 2.197,8.831 5.493,10.007 3.295,1.176 8.578,2.62 7.88,5.084 -0.265,0.939 -1.484,1.341 -3.294,1.341 z" style="fill:#816f2a;fill-rule:nonzero" id="path100-4"/>
        <path d="m 120.349,85.019 c 1.807,1.845 1.517,8.893 -3.03,11.889 -4.547,2.994 -8.858,6.725 -9.909,9.053 -1.048,2.331 -8.572,9.965 -16.174,7.869 -7.602,-2.094 -14.478,-6.287 -11.334,-5.24 3.149,1.051 17.718,2.098 18.768,-1.646 1.049,-3.745 5.711,-10.994 8.511,-11.489 0.754,-0.133 1.441,-0.012 2.064,0.109 1.687,0.327 2.912,0.654 3.763,-4.048 1.163,-6.442 4.697,-9.199 7.341,-6.497 z" style="fill:#6f6426;fill-rule:nonzero" id="path102-8"/>
        <path d="m 119.701,61.904 c 4.941,0 5.392,-0.042 6.89,6.272 1.497,6.311 7.189,12.729 4.194,15.061 -2.998,2.333 -12.639,0.933 -10.289,-1.288 2.35,-2.22 3.996,-5.965 2.648,-10.608 -1.348,-4.643 -3.443,-9.437 -3.443,-9.437 z" style="fill:#6f6426;fill-rule:nonzero" id="path104-0"/>
        <path d="m 57.962,47.235 c -3.039,3.253 3.787,10.101 9.338,10.783 5.549,0.683 4.043,3.261 5.14,7.622 1.099,4.361 -22.467,5.612 -23.464,-4.997 -1,-10.614 11.782,-16.405 8.986,-13.408 z" style="fill:#987f2e;fill-rule:nonzero" id="path106-8"/>
        <path d="m 88.22,63.136 c -1.034,0 -2.096,-0.6 -2.999,-2.023 -3.995,-6.292 0.099,-9.379 -4.991,-10.181 -5.093,-0.803 -13.085,-2.997 -6.992,-3.399 2.728,-0.179 5.497,-0.951 8.282,-0.951 2.989,0 5.996,0.888 8.994,4.35 4.479,5.174 1.248,12.204 -2.294,12.204 z" style="fill:#bb9b30;fill-rule:nonzero" id="path108-1"/>
        <path d="m 66.91,42.879 c -0.196,0.586 -5.13,6.352 0,8.748 5.13,2.396 13.144,2.471 11.883,7.576 -1.26,5.106 -1.315,8.16 2.656,8.731 3.973,0.569 6.867,-0.371 6.269,0 -0.599,0.367 -11.083,1.215 -11.984,-1.555 -0.898,-2.77 1.031,-9.254 -4.69,-11.669 -5.722,-2.413 -9.683,-1.682 -9.688,-6.575 -0.004,-4.896 6.614,-8.41 5.554,-5.256 z" style="fill:#5f551f;fill-rule:nonzero" id="path110-8"/>
        <path d="m 244.142,92.652 13.569,0.631 c 0,0 5.116,5.686 2.852,13.27 -2.259,7.58 -11.071,9.476 -12.762,12.002 -1.691,2.529 -10.802,14.092 -21.063,9.983 -10.262,-4.108 -11.013,-5.687 -12.981,-10.109 -1.966,-4.423 0.101,-0.31 -2.367,3.228 -2.473,3.539 -14.449,8.903 -22.806,5.869 -8.359,-3.032 -8.164,-7.832 -12.195,-7.832 -4.033,0 -5.538,-1.012 -6.064,-5.561 -0.526,-4.549 -5.148,0 -6.817,-8.467 -1.673,-8.467 4.554,-17.672 7.012,-18.428 2.458,-0.76 60.74,-6.97 73.622,5.414 z" style="fill:#987f2e;fill-rule:nonzero" id="path112-3"/>
        <path d="m 244.328,73.775 c 0,0 3.902,-4.788 13.126,-2.394 9.224,2.394 10.361,3.531 11.753,3.279 1.391,-0.252 -5.308,4.927 -1.392,9.856 3.921,4.929 6.826,11.752 3.161,16.553 -3.664,4.802 -22.746,-1.139 -22.746,-1.139 z" style="fill:#87762c;fill-rule:nonzero" id="path114-4"/>
        <path d="m 241.41,72.688 c 0,0 8.364,0.851 3.644,-10.516 -6.803,-16.387 -33.377,-9.717 -37.563,-13.887 -4.185,-4.169 -10.163,-3.033 -16.27,0.76 -6.113,3.789 -23.485,7.639 -26.266,18.884 -2.78,11.246 -4.058,21.128 7.566,26.161 11.626,5.035 66.361,-11.422 68.889,-21.402 z" style="fill:#5f551f;fill-rule:nonzero" id="path116-32"/>
        <path d="m 247.742,90.294 c 0,19.052 -14.308,27.561 -33.359,27.561 -19.053,0 -35.633,-8.509 -35.633,-27.561 0,-19.052 15.444,-34.498 34.496,-34.498 19.054,0 34.496,15.446 34.496,34.498 z" style="fill:#987f2e;fill-rule:nonzero" id="path118-1"/>
        <path d="m 202.154,55.796 c 0,0 -5.614,5.223 -0.953,8.256 4.659,3.034 12.525,3.875 12.045,8.255 -0.477,4.381 1.208,8.088 6.599,8.592 1.6,0.15 2.87,0.018 3.939,-0.114 2.531,-0.313 3.929,-0.625 5.896,2.811 2.798,4.886 15.156,5.402 19.029,7.592 3.875,2.192 -4.606,15.76 -10.458,20.816 -5.854,5.054 -20.886,9.332 -39.78,3.602 -18.895,-5.726 -55.75,-53.028 3.683,-59.81 z" style="fill:#6f6426;fill-rule:nonzero" id="path120-5"/>
        <path d="m 236.265,64.602 c 0,0 12.926,11.338 2.995,18.933 -9.931,7.6 -20.342,8.358 -23.503,10.76 -3.159,2.4 -4.983,8.591 -4.983,8.591 0,0 11.429,-6.317 23.18,-2.4 11.753,3.917 21.607,4.295 22.619,-3.287 1.009,-7.581 -2.277,-7.834 0.757,-14.783 3.034,-6.95 1.467,-22.11 -21.065,-17.814 z" style="fill:#987f2e;fill-rule:nonzero" id="path122-34"/>
        <path d="m 235.083,82.766 c -3.53,0 -9.02,-4.971 -12.764,-5.842 -4.294,-1 -5.391,-2.697 -6.29,-8.387 -0.898,-5.692 -12.565,-4.06 -10.484,-6.191 3.171,-3.247 6.976,-4.581 10.909,-4.581 6.469,0 13.283,3.613 18.182,8.274 7.875,7.498 5.157,14.48 1.863,16.377 -0.422,0.243 -0.898,0.35 -1.416,0.35 z M 219.517,59.498 c -2.785,0 -5.554,0.771 -8.282,0.95 -6.092,0.403 1.899,2.597 6.992,3.4 5.09,0.801 0.998,3.889 4.992,10.181 0.903,1.423 1.964,2.023 2.999,2.023 3.541,0 6.773,-7.03 2.293,-12.204 -2.998,-3.462 -6.005,-4.35 -8.994,-4.35 z" style="fill:#b39431;fill-rule:nonzero" id="path124-8"/>
        <path d="m 221.713,89.96 c -2.947,0 -7.46,-1.067 -11.977,-2.628 -7.288,-2.519 -30.653,-4.159 -33.449,-9.281 -2.794,-5.121 -1.597,-14.309 23.268,-20.899 0,0 -3.198,7.193 0.796,9.688 3.995,2.496 11.582,3.194 11.283,6.688 -0.298,3.497 2.197,8.831 5.493,10.007 3.295,1.176 8.578,2.62 7.88,5.084 -0.265,0.938 -1.484,1.341 -3.294,1.341 z" style="fill:#816f2a;fill-rule:nonzero" id="path126-0"/>
        <path d="m 258.347,97.934 c 1.806,1.845 1.516,8.894 -3.03,11.889 -4.548,2.996 -8.858,6.725 -9.91,9.054 -1.048,2.33 -8.572,9.965 -16.175,7.869 -7.601,-2.095 -14.477,-6.287 -11.334,-5.24 3.15,1.051 17.72,2.098 18.769,-1.646 1.049,-3.745 5.711,-10.995 8.511,-11.489 2.793,-0.494 4.662,2.502 5.827,-3.939 1.163,-6.442 4.697,-9.199 7.342,-6.498 z" style="fill:#6f6426;fill-rule:nonzero" id="path128-8"/>
        <path d="m 257.698,74.821 c 4.942,0 5.392,-0.042 6.89,6.27 1.497,6.311 7.189,12.731 4.194,15.062 -2.998,2.332 -12.639,0.933 -10.289,-1.288 2.35,-2.221 3.996,-5.966 2.648,-10.609 -1.348,-4.643 -3.443,-9.435 -3.443,-9.435 z" style="fill:#6f6426;fill-rule:nonzero" id="path130-8"/>
        <path d="m 195.959,60.151 c -3.039,3.253 3.787,10.1 9.338,10.782 5.549,0.683 4.043,3.263 5.141,7.624 1.098,4.359 -22.468,5.611 -23.465,-4.999 -1,-10.612 11.782,-16.404 8.986,-13.407 z" style="fill:#987f2e;fill-rule:nonzero" id="path132-16"/>
        <path d="m 226.218,76.052 c -1.035,0 -2.096,-0.6 -2.999,-2.023 -3.994,-6.292 0.098,-9.38 -4.992,-10.181 -5.093,-0.803 -13.084,-2.997 -6.992,-3.4 2.728,-0.179 5.497,-0.95 8.282,-0.95 2.989,0 5.996,0.888 8.994,4.35 4.48,5.174 1.248,12.204 -2.293,12.204 z" style="fill:#bb9b30;fill-rule:nonzero" id="path134-3"/>
        <path d="m 204.908,55.796 c -0.197,0.585 -5.131,6.351 0,8.746 5.129,2.396 13.143,2.472 11.883,7.577 -1.261,5.106 -1.315,8.16 2.655,8.73 3.973,0.57 6.866,-0.37 6.269,0 -0.599,0.368 -11.083,1.216 -11.984,-1.554 -0.898,-2.771 1.031,-9.254 -4.69,-11.669 -5.721,-2.413 -9.683,-1.682 -9.686,-6.576 -0.005,-4.895 6.613,-8.409 5.553,-5.254 z" style="fill:#5f551f;fill-rule:nonzero" id="path136-7"/>
        <path d="m 175.137,125.375 13.571,0.631 c 0,0 5.116,5.686 2.851,13.27 -2.257,7.58 -11.07,9.476 -12.76,12.001 -1.693,2.53 -10.802,14.093 -21.064,9.985 -10.263,-4.109 -11.014,-5.689 -12.98,-10.111 -1.968,-4.422 0.1,-0.309 -2.366,3.23 -2.474,3.538 -14.45,8.902 -22.808,5.869 -8.361,-3.033 -8.163,-7.834 -12.193,-7.834 -4.034,0 -5.539,-1.011 -6.066,-5.56 -0.525,-4.549 -5.147,0 -6.818,-8.467 -1.672,-8.467 4.555,-17.671 7.014,-18.429 2.456,-0.759 60.738,-6.97 73.619,5.415 z" style="fill:#987f2e;fill-rule:nonzero" id="path138-9"/>
        <path d="m 175.326,106.497 c 0,0 3.9,-4.787 13.126,-2.393 9.224,2.393 10.361,3.531 11.753,3.279 1.39,-0.252 -5.308,4.927 -1.392,9.855 3.919,4.929 6.825,11.752 3.16,16.553 -3.664,4.803 -22.747,-1.137 -22.747,-1.137 z" style="fill:#87762c;fill-rule:nonzero" id="path140-7"/>
        <path d="m 172.408,105.41 c 0,0 12.145,0.385 6.342,-10.469 -7.498,-14.024 -21.372,-13.537 -30.855,-13.05 -4.528,0.233 -8.054,0.465 -9.407,-0.882 -4.184,-4.169 -10.163,-3.034 -16.271,0.759 -6.111,3.789 -23.485,7.638 -26.265,18.884 -2.781,11.246 -4.058,21.127 7.566,26.161 11.626,5.035 66.361,-11.421 68.89,-21.403 z" style="fill:#5f551f;fill-rule:nonzero" id="path142-17"/>
        <path d="m 178.739,123.017 c 0,19.051 -14.308,27.56 -33.36,27.56 -19.052,0 -35.632,-8.509 -35.632,-27.56 0,-19.052 15.444,-34.498 34.496,-34.498 19.054,0 34.496,15.446 34.496,34.498 z" style="fill:#987f2e;fill-rule:nonzero" id="path144-1"/>
        <path d="m 133.151,88.519 c 0,0 -5.614,5.222 -0.952,8.256 4.659,3.034 12.524,3.875 12.044,8.254 -0.478,4.382 1.207,8.088 6.599,8.593 1.6,0.15 2.87,0.018 3.939,-0.114 2.532,-0.312 3.93,-0.625 5.897,2.81 2.798,4.887 15.154,5.403 19.029,7.592 3.875,2.193 -4.608,15.76 -10.459,20.818 -5.854,5.052 -20.887,9.331 -39.78,3.6 -18.894,-5.725 -55.748,-53.027 3.683,-59.809 z" style="fill:#6f6426;fill-rule:nonzero" id="path146-3"/>
        <path d="m 167.263,97.324 c 0,0 12.925,11.338 2.995,18.934 -9.931,7.6 -20.344,8.357 -23.503,10.76 -3.159,2.4 -4.984,8.591 -4.984,8.591 0,0 11.429,-6.318 23.179,-2.4 11.753,3.916 21.609,4.295 22.619,-3.287 1.011,-7.58 -2.275,-7.832 0.759,-14.783 3.032,-6.95 1.465,-22.11 -21.065,-17.815 z" style="fill:#987f2e;fill-rule:nonzero" id="path148-9"/>
        <path d="m 166.08,115.489 c -3.53,0 -9.02,-4.971 -12.765,-5.842 -4.292,-1 -5.391,-2.698 -6.289,-8.387 -0.898,-5.692 -12.564,-4.061 -10.484,-6.192 3.171,-3.246 6.976,-4.581 10.909,-4.581 6.469,0 13.283,3.613 18.181,8.275 7.877,7.498 5.158,14.479 1.864,16.377 -0.422,0.243 -0.898,0.35 -1.416,0.35 z M 150.515,92.22 c -2.785,0 -5.554,0.772 -8.283,0.952 -6.092,0.401 1.9,2.596 6.993,3.398 5.09,0.802 0.996,3.891 4.992,10.182 0.902,1.422 1.963,2.022 2.998,2.022 3.541,0 6.774,-7.03 2.294,-12.204 -2.998,-3.461 -6.005,-4.35 -8.994,-4.35 z" style="fill:#b39431;fill-rule:nonzero" id="path150-4"/>
        <path d="m 152.711,122.683 c -2.946,0 -7.46,-1.067 -11.977,-2.628 -7.289,-2.52 -30.655,-4.158 -33.451,-9.281 -2.793,-5.121 -1.597,-14.309 23.268,-20.899 0,0 -3.198,7.193 0.798,9.688 3.994,2.496 11.581,3.194 11.283,6.688 -0.298,3.497 2.195,8.831 5.493,10.007 3.293,1.176 8.578,2.619 7.879,5.084 -0.265,0.938 -1.483,1.341 -3.293,1.341 z" style="fill:#816f2a;fill-rule:nonzero" id="path152-1"/>
        <path d="m 189.343,130.656 c 1.807,1.846 1.517,8.895 -3.029,11.89 -4.548,2.995 -8.858,6.726 -9.91,9.054 -1.047,2.33 -8.571,9.965 -16.174,7.869 -7.603,-2.095 -14.479,-6.287 -11.334,-5.239 3.15,1.049 17.718,2.096 18.768,-1.648 1.05,-3.744 5.712,-10.993 8.512,-11.488 2.793,-0.494 4.66,2.502 5.826,-3.94 1.164,-6.441 4.697,-9.199 7.341,-6.498 z" style="fill:#6f6426;fill-rule:nonzero" id="path154-88"/>
        <path d="m 188.695,107.543 c 4.942,0 5.391,-0.042 6.89,6.271 1.497,6.31 7.19,12.731 4.193,15.061 -2.997,2.332 -12.637,0.934 -10.287,-1.287 2.35,-2.222 3.996,-5.967 2.648,-10.609 -1.349,-4.643 -3.444,-9.436 -3.444,-9.436 z" style="fill:#6f6426;fill-rule:nonzero" id="path156-1"/>
        <path d="m 126.956,92.873 c -3.04,3.254 3.786,10.101 9.338,10.783 5.55,0.684 4.043,3.262 5.14,7.623 1.099,4.361 -22.467,5.612 -23.464,-4.999 -0.999,-10.612 11.782,-16.403 8.986,-13.407 z" style="fill:#987f2e;fill-rule:nonzero" id="path158-8"/>
        <path d="m 157.215,108.774 c -1.035,0 -2.096,-0.6 -2.998,-2.022 -3.996,-6.291 0.098,-9.38 -4.992,-10.182 -5.093,-0.802 -13.085,-2.997 -6.993,-3.398 2.729,-0.18 5.498,-0.952 8.283,-0.952 2.989,0 5.996,0.889 8.994,4.35 4.48,5.174 1.247,12.204 -2.294,12.204 z" style="fill:#bb9b30;fill-rule:nonzero" id="path160-15"/>
        <path d="m 135.904,88.519 c -0.195,0.585 -5.131,6.35 0,8.746 5.131,2.396 13.144,2.472 11.883,7.577 -1.259,5.105 -1.314,8.16 2.657,8.73 3.972,0.571 6.866,-0.371 6.269,0 -0.599,0.368 -11.084,1.215 -11.984,-1.554 -0.898,-2.771 1.031,-9.254 -4.692,-11.668 -5.721,-2.414 -9.682,-1.684 -9.686,-6.576 -0.003,-4.895 6.614,-8.411 5.553,-5.255 z" style="fill:#5f551f;fill-rule:nonzero" id="path162-4"/>
    </g>
</svg>
