<?xml version="1.0" encoding="UTF-8" standalone="no"?>
<svg xmlns="http://www.w3.org/2000/svg" width="100%" height="100%" viewBox="0 0 356 330" version="1.1" style="clip-rule:evenodd;fill-rule:evenodd;stroke-linejoin:round;stroke-miterlimit:2" id="svg311">
    <g transform="translate(34.87,157.47042)" style="clip-rule:evenodd;display:inline;fill-rule:evenodd;stroke-linejoin:round;stroke-miterlimit:2" id="stage-2">
        <path d="m 181.133,30.858 -0.359,-1.079 c 0.245,0.141 0.464,0.275 0.664,0.403 -0.197,0.42 -0.305,0.676 -0.305,0.676 z m -6.439,-1.384 c 0,0 -0.564,-1.283 -1.182,-2.904 0.564,0.203 1.096,0.401 1.601,0.596 z m -7.68,-0.048 c -0.412,1.148 -1.38,-2.197 -2.016,-5.729 1.324,0.479 2.658,0.942 3.983,1.369 -0.889,1.743 -1.694,3.592 -1.967,4.36 z m -6.153,-6.676 c -0.363,1.159 -1.3,0.061 -2.289,-1.564 0.808,0.338 1.634,0.676 2.479,1.011 -0.071,0.195 -0.138,0.383 -0.19,0.553 z m 26.84,-0.504 c -1.631,1.096 -2.984,2.644 -4.034,4.129 0.521,-4.793 1.767,-11.505 4.735,-14.37 4.86,-4.693 -3.781,-3.133 -7.966,-0.324 -4.184,2.807 -6.568,8.611 -6.568,8.611 L 169.53,7.265 167.43,18.91 c 0,0 -2.138,-4.837 -2.642,-7.601 -0.506,-2.762 -4.368,5.67 -5.04,7.553 -0.676,1.883 -2.849,-8.307 -2.59,-11.599 0.259,-3.294 -2.773,2.393 -3.564,4.922 -0.787,2.53 -4.324,-5.678 -5.141,-6.715 -0.816,-1.037 -0.143,8.212 -1.632,9.058 -0.836,0.473 2.863,2.678 8.341,5.169 -0.118,2.329 -0.314,4.962 -1.076,5.394 -1.49,0.846 11.412,7.18 23.121,10.847 11.71,3.671 13.353,6.325 13.353,6.325 0,0 0.25,-15.003 5.108,-19.694 4.857,-4.69 -3.781,-3.132 -7.967,-0.323 z" style="fill:#8fa73d;fill-rule:nonzero" id="path2-1"/>
        <path d="m 279.154,89.018 c -6.857,-4.457 -15.427,-5.485 -19.545,-12 -4.115,-6.515 -10.629,-14.401 -26.4,-20.917 -15.775,-6.515 -20.232,-5.486 -27.09,-8.917 -6.858,-3.426 -28.802,-19.543 -43.203,-23.658 -9.612,-2.746 -13.03,-11.314 -22.631,-4.458 -9.601,6.859 -20.23,12.346 -30.518,10.972 -10.286,-1.369 -17.83,2.058 -21.943,7.202 -4.114,5.144 -6.174,5.829 -12.687,5.144 -6.516,-0.687 -7.887,1.714 -14.402,5.485 -6.515,3.773 -9.944,0.687 -17.145,3.43 -7.201,2.742 -11.999,5.484 -13.371,11.316 -1.373,5.828 -1.028,2.742 -10.287,6.171 -9.257,3.428 -13.715,4.457 -14.743,9.258 -1.03,4.799 -3.828,11.433 -4.857,12.462 -1.027,1.03 0.357,5.333 3.786,7.732 3.429,2.401 20.497,1.75 21.07,4.494 0.573,2.741 10.517,2.967 13.602,5.599 3.087,2.632 3.774,6.059 8.914,7.772 5.145,1.717 12.344,0.687 17.831,7.889 5.486,7.199 29.832,20.914 38.745,29.487 8.917,8.572 28.804,22.116 37.378,18.516 8.571,-3.601 26.588,-12.344 36.952,-12.002 10.366,0.343 16.88,-2.742 21.681,-8.915 4.801,-6.172 17.829,-20.915 27.774,-20.571 9.943,0.342 24.001,-2.745 28.116,-8.917 4.114,-6.171 8.229,-5.142 15.089,-9.258 6.855,-4.115 15.769,-10.972 17.142,-13.373 1.371,-2.399 -2.402,-5.485 -9.258,-9.943 z" style="fill:#758035;fill-rule:nonzero" id="path4-18"/>
        <path d="m 281.522,88.698 c -6.583,-4.277 -21.556,-4.722 -25.502,-10.975 -3.951,-6.251 -10.205,-13.819 -25.34,-20.072 -15.137,-6.253 -19.414,-5.266 -25.997,-8.557 -6.58,-3.291 -27.64,-18.757 -41.462,-22.706 -9.223,-2.633 -12.503,-10.858 -21.717,-4.277 -9.214,6.582 -19.416,11.847 -29.289,10.53 -9.871,-1.316 -17.109,1.975 -21.06,6.911 -3.946,4.936 -5.92,5.595 -12.174,4.936 -6.254,-0.658 -7.569,1.646 -13.822,5.265 -6.251,3.619 -9.542,0.658 -16.453,3.29 -6.91,2.633 -11.518,5.265 -12.834,10.861 -1.314,5.592 -0.987,2.631 -9.872,5.922 -8.884,3.291 -13.16,4.278 -14.149,8.883 -0.589,2.755 -3.148,1.553 -5.323,0.35 -1.463,-0.809 -2.752,-1.618 -3.149,-1.221 -0.987,0.987 -0.413,14.364 2.88,16.668 3.288,2.304 24.238,5.263 24.786,7.897 0.552,2.632 10.094,2.849 13.053,5.373 2.964,2.525 3.623,5.817 8.558,7.461 4.936,1.644 11.847,0.658 17.112,7.569 5.263,6.911 28.627,20.072 37.184,28.299 8.554,8.226 27.64,21.224 35.868,17.769 8.226,-3.455 25.517,-11.846 35.463,-11.517 9.948,0.33 16.201,-2.632 20.807,-8.557 4.607,-5.922 17.111,-20.072 26.655,-19.743 9.542,0.331 23.033,-2.632 26.983,-8.555 3.948,-5.923 7.897,-4.936 14.476,-8.884 6.582,-3.949 15.141,-10.53 16.455,-12.835 1.317,-2.302 4.444,-5.807 -2.137,-10.085 z" style="fill:#37302b;fill-rule:nonzero" id="path6-6"/>
        <path d="M 274.774,82.446 C 268.194,78.168 259.966,77.181 256.02,70.928 252.069,64.676 245.815,57.107 230.68,50.854 215.543,44.603 211.266,45.591 204.683,42.3 c -6.58,-3.291 -27.64,-18.757 -41.462,-22.707 -9.223,-2.634 -12.503,-10.859 -21.717,-4.277 -9.214,6.582 -19.416,11.846 -29.289,10.531 -9.871,-1.317 -17.109,1.974 -21.06,6.91 -3.946,4.937 -5.92,5.594 -12.174,4.937 -6.254,-0.659 -7.569,1.644 -13.822,5.264 -6.251,3.621 -9.542,0.658 -16.453,3.291 -6.91,2.632 -11.518,5.265 -12.834,10.858 -1.314,5.594 -0.987,2.634 -9.872,5.925 -8.884,3.289 -13.16,4.275 -14.149,8.883 -0.986,4.607 -6.911,3.619 -7.897,4.607 -0.988,0.988 -0.988,8.885 2.305,11.189 3.288,2.304 24.238,5.265 24.786,7.896 0.552,2.633 10.094,2.851 13.053,5.376 2.964,2.524 3.623,5.815 8.558,7.458 4.936,1.647 11.847,0.659 17.112,7.569 5.263,6.912 28.627,20.073 37.184,28.3 8.554,8.228 27.64,21.224 35.868,17.769 8.226,-3.455 25.517,-11.846 35.463,-11.516 9.948,0.329 16.201,-2.634 20.807,-8.557 4.607,-5.923 17.111,-20.072 26.655,-19.743 9.542,0.328 23.033,-2.633 26.983,-8.555 3.948,-5.923 7.897,-4.937 14.476,-8.886 6.582,-3.949 15.141,-10.529 16.455,-12.833 1.317,-2.305 -2.304,-5.266 -8.885,-9.543 z" style="fill:#542f29;fill-rule:nonzero" id="path8-8"/>
        <path d="m 168.154,158.945 c -1.49,-0.848 -0.816,-10.096 -1.631,-9.057 -0.817,1.035 -4.353,9.242 -5.143,6.713 -0.79,-2.527 -3.821,-8.216 -3.562,-4.922 0.258,3.293 -1.917,13.481 -2.59,11.598 -0.673,-1.883 -4.537,-10.315 -5.04,-7.551 -0.506,2.762 -2.643,7.599 -2.643,7.599 l -2.1,-11.643 -4.338,13.027 c 0,0 -2.384,-5.805 -6.567,-8.612 -4.186,-2.809 -12.826,-4.367 -7.966,0.324 4.857,4.69 7.279,10.709 7.279,10.709 0,0 -0.531,6.329 11.18,2.659 11.71,-3.667 24.612,-10.001 23.121,-10.844 z" style="fill:#8fa73d;fill-rule:nonzero" id="path10-3"/>
        <path d="m 139.869,157.714 c -7.472,0 -11.233,-7.787 -6.922,-16.365 4.799,-9.543 6.252,-7.569 23.364,-9.214 17.112,-1.646 21.39,-6.911 29.616,-17.441 6.707,-8.587 10.571,-10.828 19.976,-10.828 2.129,0 4.542,0.115 7.336,0.297 2.85,0.186 5.185,0.302 7.169,0.302 8.554,0 10.547,-2.16 18.828,-10.172 8.238,-7.972 14.972,-11.437 22.63,-11.437 1.826,0 3.705,0.197 5.669,0.577 10.202,1.974 6.608,7.525 3.619,10.86 -7.997,8.922 -17.768,11.845 -29.617,17.769 -11.844,5.924 -18.426,6.91 -30.601,13.491 -11.355,6.139 -22.685,19.302 -28.988,19.301 -0.456,0 -0.886,-0.069 -1.287,-0.214 -1.841,-0.667 -3.711,-0.958 -5.595,-0.958 -10.322,0 -20.991,8.752 -28.829,12.389 l -0.792,-4.389 -1.805,5.423 c -0.381,0.121 -0.753,0.223 -1.114,0.303 -0.929,0.208 -1.816,0.306 -2.657,0.306 z m 50.399,-36.182 c 1.71,1.29 4.408,2.206 8.515,2.206 0.466,0 0.947,-0.011 1.45,-0.036 0.022,-0.001 0.045,-0.002 0.067,-0.003 0.021,-0.001 0.04,-0.002 0.061,-0.003 0.005,0 0.01,-0.001 0.015,-0.001 0.018,-10e-4 0.034,-0.002 0.052,-0.003 h 0.011 c 0.02,-10e-4 0.041,-0.002 0.062,-0.003 0.002,-10e-4 0.005,-10e-4 0.007,-10e-4 0.02,-0.001 0.039,-0.002 0.058,-0.003 0.002,0 0.005,0 0.007,-0.001 0.044,-0.002 0.088,-0.005 0.132,-0.007 h 10e-4 c 15.884,-0.958 15.838,-10.211 10.454,-13.963 -1.718,-1.197 -2.93,-1.686 -4.014,-1.686 -1.857,0 -3.338,1.433 -6.351,3.186 -3.202,1.864 -6.256,2.699 -8.565,2.699 -1.131,0 -2.084,-0.201 -2.788,-0.579 -0.095,-0.052 -0.193,-0.076 -0.292,-0.076 -1.016,0 -2.08,2.62 -1.154,5.24 0.374,1.058 1.073,2.116 2.23,3.002 0.001,0 0.002,0.001 0.002,0.002 0.007,0.005 0.014,0.01 0.021,0.015 0.003,0.003 0.007,0.006 0.01,0.008 0.003,0.002 0.006,0.005 0.009,0.007 z" style="fill:#6f3923;fill-rule:nonzero" id="path12-23"/>
        <path d="m 143.64,157.105 1.805,-5.423 0.792,4.389 c -0.905,0.42 -1.773,0.771 -2.597,1.034 z" style="fill:#a1a438;fill-rule:nonzero" id="path14-4"/>
        <path d="m 231.338,90.884 c -8.884,7.45 -16.453,3.737 -28.629,3.737 -12.178,0 -16.453,9.542 -23.034,16.673 -6.582,7.13 -33.566,11.955 -46.067,16.562 -12.505,4.608 -7.573,18.759 -7.242,12.835 0.33,-5.924 19.743,-17.442 36.527,-17.769 16.782,-0.331 24.021,-17.77 31.92,-21.939 7.896,-4.171 21.059,-2.413 28.629,-2.084 7.568,0.329 22.046,-18.428 22.046,-18.428 3.336,-4.046 -5.263,2.962 -14.15,10.413 z" style="fill:#37302b;fill-rule:nonzero" id="path16-5"/>
        <path d="m 102.027,134.01 c -7.471,0 -11.234,-7.787 -6.921,-16.364 4.421,-8.792 6.003,-7.809 19.603,-8.886 0.379,2.124 1.476,3.861 3.771,4.855 0.169,0.073 0.353,0.141 0.552,0.204 1.215,3.347 3.398,6.641 5.926,9.434 -7.789,3.676 -15.034,9.283 -20.274,10.451 -0.929,0.208 -1.816,0.306 -2.657,0.306 z m 61.522,-25.701 c -0.555,-1.509 -1.281,-2.937 -2.154,-4.258 1.22,-2.803 4.656,-11.908 -0.381,-15.542 -2.551,-1.841 -5.538,-2.485 -8.321,-2.812 4.364,-4.267 8.302,-5.533 15.363,-5.533 2.13,0 4.545,0.115 7.341,0.298 2.846,0.185 5.18,0.301 7.163,0.301 6.354,0 9.088,-1.189 13.465,-5.083 0.095,0.035 0.194,0.069 0.296,0.101 1.06,2.921 2.858,5.803 4.979,8.345 -0.164,0.099 -0.333,0.199 -0.507,0.3 -3.2,1.864 -6.254,2.698 -8.563,2.698 -1.133,0 -2.087,-0.201 -2.791,-0.579 -0.095,-0.052 -0.193,-0.076 -0.291,-0.076 -1.016,0 -2.079,2.62 -1.153,5.24 0.238,0.674 0.608,1.348 1.144,1.977 l 10e-4,10e-4 c 0.005,0.006 0.011,0.012 0.016,0.018 0.003,0.005 0.007,0.009 0.01,0.013 0.001,0 0.002,10e-4 0.002,0.002 0.19,0.22 0.4,0.434 0.632,0.64 -5.08,1.972 -10.06,3.897 -16.707,7.49 -3.221,1.741 -6.441,4.048 -9.544,6.459 z" style="fill:#6f3923;fill-rule:nonzero" id="path18-6"/>
        <path d="m 193.494,67.18 c -8.884,7.451 -16.451,3.738 -28.627,3.738 -12.176,0 -16.453,9.544 -23.035,16.672 -6.582,7.132 -33.562,11.957 -46.069,16.564 -12.504,4.607 -7.568,18.756 -7.239,12.834 0.33,-5.924 19.746,-17.441 36.525,-17.77 16.783,-0.329 24.023,-17.77 31.92,-21.939 7.898,-4.171 21.061,-2.411 28.629,-2.083 7.569,0.329 22.048,-18.427 22.048,-18.427 3.335,-4.046 -5.265,2.961 -14.152,10.411 z" style="fill:#37302b;fill-rule:nonzero" id="path20-1"/>
        <path d="m 59.943,110.13 c -1.541,0 -2.924,-0.331 -4.112,-0.932 1.509,0.274 3.108,0.51 4.728,0.915 -0.208,0.012 -0.413,0.017 -0.616,0.017 z" style="fill:#5b3f25;fill-rule:nonzero" id="path22-7"/>
        <path d="m 60.559,110.113 c -1.62,-0.405 -3.219,-0.641 -4.728,-0.915 -4.569,-2.314 -6.234,-8.624 -2.811,-15.433 0.221,-0.44 0.435,-0.856 0.644,-1.248 0.649,2.547 2.742,5.086 6.088,5.998 10e-4,0 0.002,0 0.003,0.001 0.007,0.002 0.014,0.003 0.022,0.005 0.005,0.002 0.01,0.003 0.016,0.005 0.005,0.001 0.011,0.003 0.017,0.004 0.011,0.003 0.022,0.006 0.034,0.009 0.471,0.124 0.977,0.182 1.506,0.182 5.429,10e-4 13.336,-6.148 12.689,-11.088 6.316,-0.199 11.67,-2.026 15.04,-5.698 2.452,-0.92 4.51,-2.055 6.369,-3.422 1.087,-0.356 1.902,-0.988 2.362,-1.948 2.744,-2.513 5.207,-5.638 8.189,-9.456 6.708,-8.584 10.57,-10.826 19.971,-10.826 2.13,0 4.546,0.115 7.342,0.297 2.846,0.186 5.181,0.302 7.163,0.302 7.718,-10e-4 10.097,-1.756 16.562,-7.977 5.235,-1.175 9.344,-3.835 11.492,-8.157 0.556,0.058 1.088,0.088 1.593,0.088 2.977,0 5.011,-1.045 5.354,-3.614 0.052,-0.394 0.085,-0.755 0.103,-1.088 2.082,-0.584 4.183,-0.863 6.359,-0.863 1.827,0 3.707,0.197 5.671,0.577 10.2,1.975 6.606,7.527 3.619,10.86 -8,8.922 -17.77,11.846 -29.617,17.769 -11.845,5.924 -18.427,6.91 -30.603,13.492 -11.354,6.138 -22.685,19.301 -28.988,19.3 -0.455,0 -0.885,-0.069 -1.286,-0.214 -1.841,-0.666 -3.711,-0.957 -5.594,-0.957 -12.066,0 -24.602,11.954 -32.541,13.727 -0.705,0.157 -1.385,0.252 -2.04,0.288 z" style="fill:#6f3923;fill-rule:nonzero" id="path24-2"/>
        <path d="m 151.41,43.299 c -8.884,7.45 -16.453,3.736 -28.629,3.736 -12.174,0 -16.453,9.545 -23.034,16.674 -6.582,7.132 -33.564,11.956 -46.067,16.564 -12.505,4.606 -7.57,18.757 -7.241,12.833 0.329,-5.923 19.744,-17.441 36.526,-17.769 16.782,-0.331 24.023,-17.77 31.92,-21.939 7.898,-4.171 21.059,-2.412 28.628,-2.084 7.569,0.33 22.048,-18.428 22.048,-18.428 3.336,-4.045 -5.264,2.962 -14.151,10.413 z" style="fill:#37302b;fill-rule:nonzero" id="path26-72"/>
        <path d="m 20.099,87.935 c -1.715,0 -3.267,-0.268 -4.565,-0.795 0.048,0 0.096,0.001 0.145,0.001 0.486,0 0.991,-0.013 1.516,-0.04 0.02,-0.001 0.041,-0.002 0.061,-0.003 0.005,0 0.011,0 0.016,-0.001 0.018,-10e-4 0.037,-0.002 0.055,-0.003 h 0.006 c 0.021,-10e-4 0.043,-0.002 0.064,-0.003 0.002,-10e-4 0.003,-10e-4 0.005,-10e-4 0.02,-0.001 0.04,-0.002 0.061,-0.003 h 0.005 c 0.044,-0.003 0.088,-0.006 0.132,-0.008 h 10e-4 C 33.484,86.121 33.439,76.867 28.055,73.115 26.337,71.918 25.125,71.43 24.042,71.43 c -1.858,0 -3.34,1.433 -6.353,3.187 -1.811,1.053 -3.575,1.778 -5.184,2.209 0.156,-0.366 0.329,-0.741 0.522,-1.125 4.797,-9.543 16.042,1.013 25.186,-13.544 2.069,-3.296 3.758,-4.877 5.267,-5.59 -1.283,5.315 -1.721,10.636 3.076,12.714 0.168,0.072 0.351,0.14 0.55,0.203 0.67,1.847 1.636,3.679 2.791,5.418 -9.706,3.076 -19.079,11.103 -25.473,12.528 -1.515,0.338 -2.971,0.505 -4.325,0.505 z M 97.402,57.688 c -1.295,-1.349 -3.331,-2.308 -6.372,-2.429 1.007,-3.799 1.418,-8.66 -1.941,-11.084 -3.016,-2.177 -6.642,-2.681 -9.82,-2.964 5.873,-1.634 11.615,-3.478 15.873,-7.024 6.96,-5.798 16.919,-4.77 25.986,-5.104 0.615,0.895 1.497,1.633 2.717,2.161 0.168,0.073 0.353,0.141 0.552,0.204 1.095,3.018 2.976,5.991 5.189,8.594 -1.833,0.279 -3.847,0.892 -6.147,2.042 -11.698,5.849 -17.543,5.01 -26.037,15.604 z" style="fill:#5b3127;fill-rule:nonzero" id="path28-7"/>
        <path d="m 70.208,83.403 c -3.731,-1.667 -8.392,1.316 -13.655,2.962 -5.265,1.644 -3.619,10.366 3.291,12.174 6.909,1.81 21.059,-10.366 10.364,-15.136 z" style="fill:#963c22;fill-rule:nonzero" id="path30-9"/>
        <path d="m 59.844,94.462 c -3.199,-0.838 -5.252,-3.156 -6.032,-5.569 -1.278,3.242 0.943,8.314 6.032,9.646 5.764,1.508 16.552,-6.709 13.769,-12.247 -1.897,4.715 -9.327,9.333 -13.769,8.17 z" style="fill:#37302b;fill-rule:nonzero" id="path32-2"/>
        <path d="m 59.319,93.124 c -0.154,0 -0.305,-0.005 -0.452,-0.015 -4.391,-0.313 -4.376,-4.967 -1.285,-4.967 0.143,0 0.294,0.01 0.451,0.031 0.142,0.019 0.279,0.028 0.413,0.028 1.314,0 2.237,-0.884 3.13,-1.767 0.191,-0.19 0.382,-0.38 0.575,-0.561 0.401,0.169 0.794,0.313 1.174,0.428 1.623,0.492 3.215,0.835 4.76,1.053 0.507,2.813 -5.076,5.77 -8.766,5.77 z" style="fill:#b15929;fill-rule:nonzero" id="path34-0"/>
        <path d="m 225.906,66.102 c -3.731,-1.095 -8.39,0.867 -13.655,1.95 -5.265,1.085 -3.621,6.826 3.29,8.021 6.91,1.191 21.061,-6.828 10.365,-9.971 z" style="fill:#963c22;fill-rule:nonzero" id="path36-3"/>
        <path d="m 215.541,73.386 c -3.198,-0.552 -5.253,-2.079 -6.031,-3.668 -1.279,2.136 0.944,5.476 6.031,6.355 5.764,0.994 16.554,-4.421 13.772,-8.066 -1.901,3.104 -9.328,6.146 -13.772,5.379 z" style="fill:#37302b;fill-rule:nonzero" id="path38-76"/>
        <path d="m 160.416,20.883 c -3.731,-1.097 -8.393,0.866 -13.656,1.95 -5.266,1.083 -3.62,6.826 3.291,8.017 6.909,1.192 21.059,-6.826 10.365,-9.967 z" style="fill:#963c22;fill-rule:nonzero" id="path40-5"/>
        <path d="m 150.051,28.167 c -3.2,-0.552 -5.255,-2.081 -6.033,-3.668 -1.277,2.134 0.945,5.475 6.033,6.351 5.765,0.995 16.552,-4.418 13.77,-8.065 -1.901,3.106 -9.328,6.147 -13.77,5.382 z" style="fill:#37302b;fill-rule:nonzero" id="path42-2"/>
        <path d="m 211.16,109.714 c -4.663,-3.249 -5.593,-1.276 -10.365,1.5 -4.772,2.777 -9.213,3.27 -11.353,2.12 -1.083,-0.583 -2.462,2.29 -1.446,5.164 0.991,2.803 4.26,5.607 12.304,5.201 16.29,-0.824 16.29,-10.201 10.86,-13.985 z" style="fill:#963c22;fill-rule:nonzero" id="path44-0"/>
        <path d="m 200.3,120.901 c -8.665,0.439 -11.79,-2.852 -12.493,-5.85 -0.778,3.135 0.881,9.234 12.493,8.648 11.624,-0.588 14.949,-5.532 13.929,-9.689 -0.842,3.322 -4.856,6.433 -13.929,6.891 z" style="fill:#37302b;fill-rule:nonzero" id="path46-4"/>
        <path d="m 198.621,117.271 c -4.59,0 -3.872,-2.295 0.363,-3.115 3.716,-0.719 4.987,-2.573 6.358,-2.573 0.511,0 1.036,0.258 1.706,0.927 0,0 3.289,3.126 -4.937,4.442 -1.395,0.223 -2.553,0.319 -3.49,0.319 z" style="fill:#b15929;fill-rule:nonzero" id="path48-6"/>
        <path d="m 146.299,97.729 c -4.662,-3.249 -5.594,-1.274 -10.365,1.503 -4.772,2.776 -9.213,3.269 -11.354,2.117 -1.082,-0.583 -2.459,2.291 -1.444,5.164 0.991,2.804 4.259,5.608 12.303,5.202 16.292,-0.824 16.292,-10.201 10.86,-13.986 z" style="fill:#963c22;fill-rule:nonzero" id="path50-9"/>
        <path d="m 135.439,108.917 c -8.665,0.438 -11.789,-2.85 -12.494,-5.851 -0.777,3.136 0.886,9.235 12.494,8.649 11.625,-0.587 14.951,-5.53 13.93,-9.691 -0.842,3.322 -4.857,6.436 -13.93,6.893 z" style="fill:#37302b;fill-rule:nonzero" id="path52-0"/>
        <path d="m 211.158,82.926 c -4.661,-3.249 -5.594,-1.275 -10.365,1.5 -4.77,2.778 -9.215,3.27 -11.354,2.119 -1.082,-0.583 -2.46,2.29 -1.444,5.164 0.991,2.804 4.261,5.608 12.305,5.201 16.287,-0.823 16.287,-10.201 10.858,-13.984 z" style="fill:#963c22;fill-rule:nonzero" id="path54-1"/>
        <path d="m 200.3,94.114 c -8.667,0.438 -11.79,-2.852 -12.494,-5.852 -0.778,3.137 0.882,9.235 12.494,8.648 11.623,-0.587 14.949,-5.529 13.929,-9.689 -0.842,3.322 -4.86,6.434 -13.929,6.893 z" style="fill:#37302b;fill-rule:nonzero" id="path56-3"/>
        <path d="m 198.624,90.483 c -4.596,0 -3.879,-2.296 0.359,-3.116 1.758,-0.34 2.969,-0.934 3.901,-1.465 0.231,0.242 0.465,0.48 0.701,0.713 0.692,0.922 1.494,1.752 2.391,2.495 -0.852,0.403 -2.091,0.771 -3.867,1.055 -1.392,0.223 -2.549,0.318 -3.485,0.318 z" style="fill:#b15929;fill-rule:nonzero" id="path58-8"/>
        <path d="m 28.055,73.115 c -4.662,-3.249 -5.595,-1.274 -10.366,1.502 -4.773,2.775 -9.213,3.271 -11.353,2.116 -1.083,-0.582 -2.46,2.292 -1.445,5.166 0.991,2.804 4.26,5.608 12.304,5.202 16.289,-0.824 16.289,-10.202 10.86,-13.986 z" style="fill:#963c22;fill-rule:nonzero" id="path60-1"/>
        <path d="M 17.195,84.303 C 8.528,84.742 5.406,81.452 4.702,78.454 c -0.779,3.134 0.885,9.233 12.493,8.647 11.624,-0.588 14.95,-5.531 13.929,-9.691 -0.841,3.323 -4.856,6.436 -13.929,6.893 z" style="fill:#37302b;fill-rule:nonzero" id="path62-6"/>
        <path d="m 15.52,80.673 c -4.593,0 -3.877,-2.295 0.359,-3.116 3.716,-0.72 4.987,-2.572 6.358,-2.572 0.51,0 1.035,0.257 1.705,0.927 0,0 3.289,3.125 -4.936,4.443 -1.393,0.223 -2.55,0.318 -3.486,0.318 z" style="fill:#b15929;fill-rule:nonzero" id="path64-4"/>
        <path d="m 127.19,155.225 c -1.206,-0.384 2.193,2.303 4.882,4.882 2.686,2.575 3.618,7.129 3.618,7.129 1.537,2.851 2.359,1.535 1.097,-3.126 -1.263,-4.662 -8.393,-8.502 -9.597,-8.885 z" style="fill:#91c961;fill-rule:nonzero" id="path66-61"/>
        <path d="m 141.778,166.467 c 0,0 4.057,-5.537 3.291,-12.888 z" style="fill:#91c961;fill-rule:nonzero" id="path68-6"/>
        <path d="m 147.373,164.712 c -1.427,2.358 3.947,1.755 3.345,-8.663 0,0 -1.919,6.304 -3.345,8.663 z" style="fill:#91c961;fill-rule:nonzero" id="path70-8"/>
        <path d="m 151.729,126.851 c -0.248,4.327 -0.382,5.183 -0.404,8.144 -0.021,2.962 -6.193,-0.142 -9.623,0.935 -3.429,1.076 -7.267,0.794 -7.113,-1.74 0.152,-2.535 -0.164,-11.319 -1.236,-14.088 -1.078,-2.768 19.259,-8.778 18.376,6.749 z" style="fill:#46612e;fill-rule:nonzero" id="path72-0"/>
        <path d="m 161.014,104.885 c 0,0 5.989,-12.055 0,-16.376 -5.99,-4.323 -14.386,-2.049 -16.898,-4.55 -2.509,-2.501 -6.097,-1.819 -9.762,0.455 -3.667,2.274 -15.417,2.805 -17.085,9.554 -1.67,6.746 -5.764,16.626 1.211,19.647 6.976,3.021 41.017,-2.741 42.534,-8.73 z" style="fill:#527435;fill-rule:nonzero" id="path74-2"/>
        <path d="m 164.814,115.449 c 0,11.431 -8.585,16.536 -20.016,16.536 -11.433,0 -21.379,-5.105 -21.379,-16.536 0,-11.431 9.265,-20.699 20.697,-20.699 11.432,0 20.698,9.268 20.698,20.699 z" style="fill:#67a444;fill-rule:nonzero" id="path76-9"/>
        <path d="m 137.46,94.75 c 0,0 -3.367,3.135 -0.572,4.954 2.797,1.82 7.516,2.325 7.228,4.952 -0.288,2.629 0.724,4.853 3.959,5.156 0.96,0.09 1.722,0.011 2.363,-0.068 1.519,-0.188 2.358,-0.376 3.538,1.686 1.677,2.932 2.389,5.66 4.713,6.974 2.325,1.315 4.699,5.762 1.187,8.796 -3.513,3.031 -13.288,6.874 -24.626,3.435 -11.334,-3.435 -33.447,-31.816 2.21,-35.885 z" style="fill:#5c9a43;fill-rule:nonzero" id="path78-3"/>
        <path d="m 157.926,100.033 c 0,0 7.759,6.802 1.798,11.361 -5.959,4.56 -12.206,5.015 -14.101,6.455 -1.896,1.441 -2.99,5.155 -2.99,5.155 0,0 6.857,-3.789 13.907,-1.44 1.239,0.412 2.444,0.76 3.59,1.027 5.378,1.256 9.48,0.751 9.982,-2.997 0.606,-4.55 -1.365,-4.702 0.455,-8.872 1.819,-4.171 0.878,-13.267 -12.641,-10.689 z" style="fill:#82c341;fill-rule:nonzero" id="path80-5"/>
        <path d="m 139.495,98.68 c -1.248,1.279 5.751,0.299 6.289,3.715 0.54,3.414 1.2,4.432 3.774,5.032 2.577,0.599 6.532,4.434 8.509,3.295 1.978,-1.137 3.607,-5.328 -1.118,-9.825 -4.725,-4.499 -12.423,-7.368 -17.454,-2.217 z" style="fill:#82c341;fill-rule:nonzero" id="path82-8"/>
        <path d="m 149.197,115.248 c -1.768,0 -4.476,-0.639 -7.186,-1.576 -4.373,-1.513 -18.393,-2.495 -20.071,-5.568 -1.675,-3.073 -0.957,-8.585 13.961,-12.54 0,0 -1.917,4.315 0.478,5.813 2.396,1.497 6.948,1.916 6.77,4.013 -0.179,2.098 1.319,5.299 3.296,6.004 1.978,0.704 5.146,1.571 4.729,3.05 -0.16,0.563 -0.891,0.804 -1.977,0.804 z" style="fill:#73b343;fill-rule:nonzero" id="path84-9"/>
        <path d="m 123.798,120.584 c 0,0 5.217,-3.229 14.319,0 9.103,3.227 12.808,9.727 12.93,10.127 0.127,0.397 -2.686,3.412 -13.23,0.896 -10.543,-2.516 -18.452,-11.263 -14.019,-11.023 z" style="fill:#527435;fill-rule:nonzero" id="path86-7"/>
        <path d="m 117.269,93.968 c 0,0 -3.565,14.632 5.537,16.679 9.095,2.047 16.373,3.715 21.83,10.007 5.461,6.294 6.538,10.541 6.538,10.541 0,0 -3.505,-8.116 -13.284,-10.693 -9.78,-2.576 -12.51,2.502 -19.409,-0.53 -6.9,-3.034 -6.522,-18.803 -1.212,-26.004 z" style="fill:#79bb42;fill-rule:nonzero" id="path88-2"/>
        <path d="m 115.233,104.311 c 0,0 0.176,4.853 3.534,6.351 3.353,1.497 14.437,3.475 17.193,5.452 2.756,1.978 -6.35,-1.197 -9.704,0.359 -3.356,1.558 -8.449,0.958 -10.006,-3.354 -1.558,-4.314 -1.017,-8.808 -1.017,-8.808 z" style="fill:#82c341;fill-rule:nonzero" id="path90-3"/>
        <path d="m 121.308,98.409 c 0,0 14.683,-8.627 25.107,-5.84 10.426,2.785 13.12,3.236 13.12,0.27 0,-2.967 -6.291,-4.584 -10.964,-4.944 -4.671,-0.36 -5.121,-2.247 -7.459,-3.236 -2.337,-0.986 -6.379,0.72 -10.065,2.068 -3.687,1.349 -15.257,6.827 -9.739,11.682 z" style="fill:#5c9a43;fill-rule:nonzero" id="path92-4"/>
        <path d="m 133.743,97.363 c -1.823,1.952 2.273,6.06 5.604,6.469 3.328,0.41 2.424,1.958 3.084,4.575 0.66,2.616 -13.48,3.368 -14.078,-3 -0.6,-6.368 7.069,-9.843 5.39,-8.044 z" style="fill:#82c341;fill-rule:nonzero" id="path94-3"/>
        <path d="m 142.908,97.542 c 3.394,-0.223 6.892,-1.973 10.367,2.04 3.473,4.01 -0.781,9.883 -3.174,6.109 -2.398,-3.776 0.058,-5.629 -2.995,-6.109 -3.057,-0.484 -7.851,-1.798 -4.198,-2.04 z" style="fill:#a2cd3d;fill-rule:nonzero" id="path96-3"/>
        <path d="m 139.111,94.75 c -0.116,0.352 -3.077,3.81 0,5.249 3.081,1.436 7.887,1.483 7.132,4.546 -0.758,3.062 -0.789,4.894 1.594,5.238 2.382,0.34 4.12,-0.224 3.762,0 -0.362,0.22 -6.652,0.729 -7.191,-0.935 -0.54,-1.661 0.618,-5.551 -2.814,-7 -3.433,-1.448 -5.81,-1.009 -5.814,-3.945 -0.003,-2.938 3.969,-5.046 3.331,-3.153 z" style="fill:#527435;fill-rule:nonzero" id="path98-7"/>
        <path d="m 153.992,131.701 c -0.199,-0.576 -4.322,3.32 -6.386,3.231 -2.066,-0.088 -5.523,-0.849 -6.397,0.114 -0.872,0.964 -3.267,1.1 -5.345,0 -2.083,-1.1 -3.125,-3.115 -4.237,-2.486 -1.112,0.628 3.273,5.782 7.517,6.142 4.242,0.36 17.106,-0.45 14.848,-7.001 z" style="fill:#963c22;fill-rule:nonzero" id="path100-2"/>
        <path d="m 134.617,131.642 c 0,0 0.398,2.008 3.494,2.705 3.098,0.699 2.978,-0.938 4.421,-0.345 1.443,0.594 4.161,0.097 6.101,-0.084 1.939,-0.18 3.123,-2.276 3.123,-2.276 0,0 0.781,3.825 -3.057,4.027 -3.836,0.202 -5.602,-0.909 -6.706,0.185 -1.101,1.094 -9.65,0.372 -7.376,-4.212 z" style="fill:#813e20;fill-rule:nonzero" id="path102-7"/>
        <path d="m 229.017,88.814 c -0.245,4.327 -0.379,5.183 -0.404,8.145 -0.021,2.962 -6.192,-0.143 -9.621,0.934 -3.428,1.077 -7.268,0.795 -7.114,-1.74 0.153,-2.535 -0.161,-11.319 -1.236,-14.087 -1.076,-2.768 19.258,-8.778 18.375,6.748 z" style="fill:#46612e;fill-rule:nonzero" id="path104-8"/>
        <path d="m 238.302,66.849 c 0,0 5.992,-12.056 0,-16.376 -5.987,-4.323 -14.383,-2.049 -16.895,-4.55 -2.512,-2.501 -6.1,-1.82 -9.764,0.454 -3.665,2.274 -15.415,2.806 -17.085,9.554 -1.668,6.747 -5.762,16.627 1.214,19.647 6.974,3.021 41.016,-2.74 42.53,-8.729 z" style="fill:#527435;fill-rule:nonzero" id="path106-2"/>
        <path d="m 242.102,77.413 c 0,11.431 -8.583,16.536 -20.014,16.536 -11.432,0 -21.38,-5.105 -21.38,-16.536 0,-11.431 9.267,-20.699 20.699,-20.699 11.431,0 20.695,9.268 20.695,20.699 z" style="fill:#67a444;fill-rule:nonzero" id="path108-7"/>
        <path d="m 214.752,56.714 c 0,0 -3.37,3.134 -0.573,4.954 2.794,1.819 7.514,2.324 7.228,4.952 -0.288,2.629 0.724,4.853 3.958,5.156 0.96,0.089 1.722,0.01 2.363,-0.069 1.519,-0.187 2.357,-0.375 3.539,1.686 1.677,2.932 2.387,5.661 4.713,6.975 2.322,1.315 4.696,5.762 1.187,8.795 -3.513,3.031 -13.291,6.875 -24.626,3.435 -11.337,-3.435 -33.449,-31.815 2.211,-35.884 z" style="fill:#5c9a43;fill-rule:nonzero" id="path110-4"/>
        <path d="m 235.217,61.996 c 0,0 7.756,6.803 1.798,11.361 -5.959,4.561 -12.206,5.015 -14.102,6.456 -1.897,1.441 -2.992,5.154 -2.992,5.154 0,0 6.858,-3.788 13.91,-1.439 1.239,0.412 2.444,0.759 3.588,1.027 5.377,1.255 9.482,0.75 9.984,-2.998 0.606,-4.55 -1.367,-4.701 0.454,-8.871 1.818,-4.171 0.879,-13.267 -12.64,-10.69 z" style="fill:#82c341;fill-rule:nonzero" id="path112-0"/>
        <path d="m 216.783,60.643 c -1.246,1.279 5.754,0.299 6.292,3.716 0.541,3.413 1.198,4.431 3.774,5.031 2.577,0.6 6.532,4.434 8.51,3.296 1.976,-1.138 3.604,-5.328 -1.121,-9.825 -4.723,-4.5 -12.421,-7.369 -17.455,-2.218 z" style="fill:#82c341;fill-rule:nonzero" id="path114-6"/>
        <path d="m 226.486,77.212 c -1.768,0 -4.476,-0.64 -7.186,-1.577 -4.371,-1.512 -18.393,-2.495 -20.069,-5.567 -1.678,-3.074 -0.96,-8.585 13.959,-12.54 0,0 -1.918,4.314 0.48,5.812 2.394,1.498 6.948,1.917 6.769,4.014 -0.18,2.097 1.317,5.299 3.295,6.003 1.977,0.705 5.147,1.571 4.728,3.051 -0.158,0.562 -0.89,0.804 -1.976,0.804 z" style="fill:#73b343;fill-rule:nonzero" id="path116-5"/>
        <path d="m 201.087,82.548 c 0,0 5.217,-3.229 14.32,0 9.101,3.227 12.807,9.727 12.931,10.126 0.124,0.398 -2.686,3.412 -13.229,0.897 -10.547,-2.516 -18.453,-11.263 -14.022,-11.023 z" style="fill:#527435;fill-rule:nonzero" id="path118-8"/>
        <path d="m 194.558,55.931 c 0,0 -3.564,14.633 5.536,16.679 9.097,2.048 16.374,3.716 21.833,10.007 5.459,6.294 6.535,10.541 6.535,10.541 0,0 -3.502,-8.115 -13.281,-10.692 -9.781,-2.577 -12.51,2.501 -19.409,-0.531 -6.901,-3.033 -6.522,-18.803 -1.214,-26.004 z" style="fill:#79bb42;fill-rule:nonzero" id="path120-4"/>
        <path d="m 192.521,66.275 c 0,0 0.179,4.853 3.534,6.35 3.355,1.498 14.438,3.475 17.194,5.452 2.756,1.978 -6.349,-1.196 -9.705,0.36 -3.353,1.557 -8.447,0.957 -10.006,-3.355 -1.556,-4.314 -1.017,-8.807 -1.017,-8.807 z" style="fill:#82c341;fill-rule:nonzero" id="path122-3"/>
        <path d="m 198.597,60.372 c 0,0 14.682,-8.627 25.106,-5.839 10.426,2.785 13.123,3.235 13.123,0.269 0,-2.966 -6.291,-4.583 -10.964,-4.943 -4.673,-0.36 -5.124,-2.247 -7.459,-3.236 -2.339,-0.986 -6.382,0.72 -10.065,2.068 -3.686,1.348 -15.257,6.826 -9.741,11.681 z" style="fill:#5c9a43;fill-rule:nonzero" id="path124-7"/>
        <path d="m 211.032,59.327 c -1.821,1.952 2.273,6.06 5.605,6.468 3.327,0.41 2.425,1.958 3.083,4.575 0.66,2.617 -13.479,3.368 -14.076,-3 -0.602,-6.367 7.066,-9.842 5.388,-8.043 z" style="fill:#82c341;fill-rule:nonzero" id="path126"/>
        <path d="m 220.199,59.505 c 3.394,-0.222 6.892,-1.973 10.368,2.041 3.469,4.009 -0.784,9.883 -3.177,6.109 -2.398,-3.776 0.058,-5.629 -2.996,-6.109 -3.054,-0.484 -7.85,-1.799 -4.195,-2.041 z" style="fill:#a2cd3d;fill-rule:nonzero" id="path128"/>
        <path d="m 216.402,56.714 c -0.118,0.351 -3.077,3.81 0,5.248 3.079,1.437 7.887,1.484 7.13,4.547 -0.756,3.062 -0.787,4.894 1.594,5.237 2.384,0.341 4.119,-0.223 3.761,0 -0.36,0.221 -6.651,0.73 -7.19,-0.934 -0.538,-1.662 0.62,-5.551 -2.815,-7.001 -3.432,-1.447 -5.81,-1.009 -5.811,-3.944 -0.003,-2.938 3.969,-5.046 3.331,-3.153 z" style="fill:#527435;fill-rule:nonzero" id="path130"/>
        <path d="m 231.28,93.665 c -0.196,-0.576 -4.319,3.319 -6.386,3.231 -2.065,-0.089 -5.522,-0.85 -6.394,0.114 -0.875,0.963 -3.266,1.1 -5.348,0 -2.08,-1.101 -3.121,-3.116 -4.237,-2.487 -1.11,0.629 3.274,5.783 7.52,6.142 4.24,0.36 17.105,-0.449 14.845,-7 z" style="fill:#963c22;fill-rule:nonzero" id="path132"/>
        <path d="m 211.907,93.606 c 0,0 0.396,2.007 3.494,2.705 3.099,0.699 2.979,-0.938 4.422,-0.344 1.443,0.592 4.159,0.096 6.099,-0.085 1.938,-0.181 3.125,-2.276 3.125,-2.276 0,0 0.778,3.824 -3.059,4.026 -3.836,0.202 -5.603,-0.909 -6.706,0.186 -1.101,1.093 -9.651,0.372 -7.375,-4.212 z" style="fill:#813e20;fill-rule:nonzero" id="path134"/>
        <path d="m 79.803,82.516 c -0.247,4.327 -0.382,5.183 -0.403,8.145 -0.022,2.962 -6.192,-0.143 -9.624,0.935 -3.43,1.077 -7.267,0.794 -7.114,-1.741 0.155,-2.534 -0.161,-11.319 -1.237,-14.087 -1.073,-2.769 19.262,-8.778 18.378,6.748 z" style="fill:#46612e;fill-rule:nonzero" id="path136"/>
        <path d="m 89.089,60.551 c 0,0 5.986,-12.056 0,-16.376 -5.99,-4.323 -14.389,-2.049 -16.9,-4.55 -2.508,-2.502 -6.095,-1.82 -9.76,0.454 -3.669,2.274 -15.419,2.806 -17.088,9.554 -1.668,6.747 -5.76,16.626 1.215,19.648 6.975,3.021 41.015,-2.741 42.533,-8.73 z" style="fill:#527435;fill-rule:nonzero" id="path138"/>
        <path d="m 92.889,71.115 c 0,11.431 -8.587,16.536 -20.018,16.536 -11.43,0 -21.379,-5.105 -21.379,-16.536 0,-11.431 9.267,-20.699 20.697,-20.699 11.433,0 20.7,9.268 20.7,20.699 z" style="fill:#67a444;fill-rule:nonzero" id="path140"/>
        <path d="m 65.533,50.416 c 0,0 -3.367,3.134 -0.571,4.954 2.797,1.819 7.516,2.325 7.227,4.952 -0.286,2.629 0.724,4.852 3.959,5.155 0.96,0.09 1.722,0.011 2.363,-0.068 1.52,-0.187 2.359,-0.375 3.54,1.686 1.679,2.932 2.39,5.661 4.712,6.975 2.326,1.315 4.699,5.762 1.187,8.796 -3.514,3.03 -13.289,6.874 -24.625,3.435 C 51.989,82.866 29.877,54.484 65.533,50.416 Z" style="fill:#5c9a43;fill-rule:nonzero" id="path142"/>
        <path d="m 86.001,55.698 c 0,0 7.756,6.803 1.797,11.361 -5.957,4.561 -12.205,5.015 -14.102,6.456 -1.894,1.441 -2.988,5.154 -2.988,5.154 0,0 6.856,-3.788 13.906,-1.439 1.24,0.412 2.444,0.759 3.592,1.027 5.375,1.255 9.479,0.75 9.979,-2.998 0.607,-4.55 -1.366,-4.702 0.455,-8.871 1.822,-4.172 0.88,-13.267 -12.639,-10.69 z" style="fill:#82c341;fill-rule:nonzero" id="path144"/>
        <path d="m 67.569,54.345 c -1.249,1.279 5.752,0.299 6.291,3.715 0.539,3.414 1.2,4.432 3.774,5.032 2.574,0.6 6.529,4.434 8.506,3.296 1.978,-1.138 3.609,-5.328 -1.116,-9.825 -4.728,-4.5 -12.422,-7.369 -17.455,-2.218 z" style="fill:#82c341;fill-rule:nonzero" id="path146"/>
        <path d="m 77.27,70.914 c -1.768,0 -4.475,-0.639 -7.183,-1.576 C 65.71,67.825 51.692,66.843 50.014,63.769 48.339,60.696 49.058,55.185 63.976,51.23 c 0,0 -1.918,4.315 0.477,5.812 2.398,1.498 6.949,1.916 6.769,4.013 -0.177,2.098 1.318,5.3 3.299,6.004 1.974,0.705 5.145,1.572 4.726,3.051 -0.159,0.563 -0.891,0.804 -1.977,0.804 z" style="fill:#73b343;fill-rule:nonzero" id="path148"/>
        <path d="m 51.873,76.25 c 0,0 5.218,-3.229 14.318,0 9.101,3.227 12.81,9.726 12.932,10.126 0.124,0.398 -2.688,3.412 -13.231,0.896 C 55.349,84.757 47.44,76.01 51.873,76.25 Z" style="fill:#527435;fill-rule:nonzero" id="path150"/>
        <path d="m 45.341,49.633 c 0,0 -3.56,14.633 5.537,16.679 9.099,2.047 16.375,3.715 21.832,10.007 5.459,6.294 6.537,10.541 6.537,10.541 0,0 -3.502,-8.116 -13.283,-10.692 -9.781,-2.577 -12.509,2.501 -19.408,-0.53 -6.901,-3.034 -6.522,-18.804 -1.215,-26.005 z" style="fill:#79bb42;fill-rule:nonzero" id="path152"/>
        <path d="m 43.306,59.976 c 0,0 0.178,4.854 3.533,6.351 3.356,1.498 14.441,3.476 17.195,5.453 2.755,1.977 -6.351,-1.197 -9.706,0.359 -3.354,1.557 -8.445,0.957 -10.005,-3.355 -1.558,-4.314 -1.017,-8.808 -1.017,-8.808 z" style="fill:#82c341;fill-rule:nonzero" id="path154"/>
        <path d="m 49.381,54.074 c 0,0 14.685,-8.626 25.108,-5.839 10.426,2.785 13.12,3.235 13.12,0.269 0,-2.967 -6.29,-4.584 -10.964,-4.943 -4.672,-0.36 -5.12,-2.247 -7.46,-3.235 -2.334,-0.987 -6.377,0.719 -10.063,2.067 -3.685,1.348 -15.26,6.826 -9.741,11.681 z" style="fill:#5c9a43;fill-rule:nonzero" id="path156"/>
        <path d="m 61.819,53.029 c -1.826,1.952 2.272,6.06 5.602,6.468 3.33,0.41 2.425,1.958 3.086,4.575 0.656,2.617 -13.482,3.368 -14.082,-2.999 -0.596,-6.368 7.07,-9.843 5.394,-8.044 z" style="fill:#82c341;fill-rule:nonzero" id="path158"/>
        <path d="m 70.983,53.207 c 3.395,-0.223 6.891,-1.973 10.365,2.04 3.475,4.01 -0.779,9.884 -3.173,6.109 -2.397,-3.776 0.059,-5.629 -2.996,-6.109 -3.057,-0.483 -7.851,-1.798 -4.196,-2.04 z" style="fill:#a2cd3d;fill-rule:nonzero" id="path160"/>
        <path d="m 67.188,50.416 c -0.119,0.351 -3.08,3.809 0,5.248 3.079,1.437 7.883,1.483 7.13,4.546 -0.756,3.063 -0.79,4.895 1.593,5.238 2.383,0.341 4.121,-0.223 3.762,0 -0.36,0.221 -6.65,0.73 -7.19,-0.934 -0.542,-1.662 0.618,-5.551 -2.815,-7.001 -3.434,-1.447 -5.809,-1.009 -5.812,-3.943 -0.005,-2.939 3.967,-5.047 3.332,-3.154 z" style="fill:#527435;fill-rule:nonzero" id="path162"/>
        <path d="m 82.066,87.367 c -0.201,-0.577 -4.323,3.319 -6.386,3.231 -2.065,-0.088 -5.523,-0.85 -6.398,0.114 -0.873,0.963 -3.265,1.099 -5.345,0 -2.08,-1.1 -3.123,-3.116 -4.235,-2.487 -1.114,0.629 3.274,5.783 7.514,6.142 4.245,0.36 17.107,-0.449 14.85,-7 z" style="fill:#963c22;fill-rule:nonzero" id="path164"/>
        <path d="m 62.691,87.308 c 0,0 0.399,2.007 3.496,2.705 3.095,0.699 2.977,-0.938 4.421,-0.345 1.442,0.593 4.158,0.097 6.098,-0.084 1.94,-0.18 3.123,-2.276 3.123,-2.276 0,0 0.78,3.824 -3.055,4.026 -3.837,0.202 -5.605,-0.908 -6.707,0.185 -1.102,1.095 -9.649,0.373 -7.376,-4.211 z" style="fill:#813e20;fill-rule:nonzero" id="path166"/>
        <path d="m 157.093,44.48 c -0.249,4.326 -0.383,5.183 -0.404,8.145 -0.02,2.962 -6.192,-0.143 -9.622,0.934 -3.43,1.077 -7.269,0.795 -7.114,-1.74 0.152,-2.535 -0.164,-11.319 -1.237,-14.088 -1.076,-2.767 19.262,-8.778 18.377,6.749 z" style="fill:#46612e;fill-rule:nonzero" id="path168"/>
        <path d="m 166.379,22.515 c 0,0 5.987,-12.056 0,-16.377 -5.992,-4.323 -14.387,-2.049 -16.898,-4.549 -2.509,-2.502 -6.099,-1.82 -9.763,0.454 -3.667,2.274 -15.417,2.806 -17.085,9.554 -1.671,6.747 -5.764,16.627 1.212,19.647 6.974,3.021 41.016,-2.741 42.534,-8.729 z" style="fill:#527435;fill-rule:nonzero" id="path170"/>
        <path d="m 170.177,33.079 c 0,11.43 -8.584,16.536 -20.015,16.536 -11.432,0 -21.379,-5.106 -21.379,-16.536 0,-11.432 9.265,-20.7 20.698,-20.7 11.432,0 20.696,9.268 20.696,20.7 z" style="fill:#67a444;fill-rule:nonzero" id="path172"/>
        <path d="m 142.824,12.379 c 0,0 -3.367,3.134 -0.571,4.954 2.795,1.82 7.516,2.325 7.228,4.952 -0.289,2.63 0.722,4.853 3.959,5.156 0.959,0.09 1.721,0.011 2.362,-0.068 1.518,-0.188 2.357,-0.375 3.537,1.685 1.68,2.933 2.391,5.661 4.715,6.976 2.325,1.315 4.697,5.762 1.185,8.795 -3.512,3.032 -13.288,6.874 -24.625,3.435 -11.334,-3.435 -33.446,-31.816 2.21,-35.885 z" style="fill:#5c9a43;fill-rule:nonzero" id="path174"/>
        <path d="m 163.291,17.661 c 0,0 7.757,6.804 1.798,11.362 -5.96,4.56 -12.207,5.014 -14.103,6.456 -1.894,1.441 -2.988,5.154 -2.988,5.154 0,0 6.858,-3.789 13.905,-1.439 1.24,0.412 2.446,0.759 3.591,1.026 5.377,1.256 9.482,0.751 9.982,-2.998 0.605,-4.549 -1.365,-4.701 0.455,-8.871 1.819,-4.171 0.879,-13.266 -12.64,-10.69 z" style="fill:#82c341;fill-rule:nonzero" id="path176"/>
        <path d="m 144.859,16.309 c -1.248,1.279 5.75,0.299 6.29,3.715 0.54,3.414 1.199,4.432 3.773,5.031 2.576,0.6 6.531,4.435 8.509,3.296 1.978,-1.137 3.608,-5.327 -1.116,-9.825 -4.728,-4.499 -12.425,-7.368 -17.456,-2.217 z" style="fill:#82c341;fill-rule:nonzero" id="path178"/>
        <path d="m 154.559,32.878 c -1.767,0 -4.474,-0.64 -7.184,-1.577 -4.374,-1.513 -18.394,-2.495 -20.07,-5.568 -1.677,-3.074 -0.958,-8.585 13.961,-12.539 0,0 -1.919,4.314 0.477,5.812 2.396,1.497 6.947,1.916 6.77,4.013 -0.179,2.097 1.318,5.299 3.296,6.004 1.977,0.705 5.145,1.571 4.728,3.05 -0.159,0.563 -0.891,0.805 -1.978,0.805 z" style="fill:#73b343;fill-rule:nonzero" id="path180"/>
        <path d="m 129.161,38.213 c 0,0 5.218,-3.229 14.321,0 9.101,3.227 12.807,9.727 12.93,10.127 0.125,0.397 -2.687,3.412 -13.23,0.896 C 132.638,46.72 124.73,37.973 129.161,38.213 Z" style="fill:#527435;fill-rule:nonzero" id="path182"/>
        <path d="m 122.633,11.597 c 0,0 -3.564,14.632 5.536,16.679 9.096,2.047 16.374,3.715 21.831,10.007 5.461,6.293 6.537,10.541 6.537,10.541 0,0 -3.504,-8.116 -13.282,-10.693 -9.781,-2.576 -12.512,2.502 -19.41,-0.53 -6.901,-3.033 -6.522,-18.803 -1.212,-26.004 z" style="fill:#79bb42;fill-rule:nonzero" id="path184"/>
        <path d="m 120.597,21.94 c 0,0 0.176,4.853 3.533,6.351 3.354,1.497 14.439,3.475 17.194,5.452 2.756,1.978 -6.35,-1.197 -9.704,0.36 -3.357,1.557 -8.449,0.957 -10.006,-3.355 -1.558,-4.315 -1.017,-8.808 -1.017,-8.808 z" style="fill:#82c341;fill-rule:nonzero" id="path186"/>
        <path d="m 126.672,16.037 c 0,0 14.683,-8.626 25.108,-5.839 10.424,2.785 13.12,3.235 13.12,0.27 0,-2.967 -6.292,-4.584 -10.964,-4.944 -4.672,-0.36 -5.122,-2.246 -7.459,-3.235 -2.338,-0.987 -6.38,0.72 -10.066,2.068 -3.685,1.348 -15.258,6.825 -9.739,11.68 z" style="fill:#5c9a43;fill-rule:nonzero" id="path188"/>
        <path d="m 139.108,14.992 c -1.824,1.952 2.272,6.06 5.604,6.469 3.327,0.409 2.422,1.958 3.084,4.574 0.658,2.617 -13.479,3.369 -14.08,-2.999 -0.599,-6.368 7.07,-9.842 5.392,-8.044 z" style="fill:#82c341;fill-rule:nonzero" id="path190"/>
        <path d="m 148.273,15.171 c 3.393,-0.223 6.891,-1.973 10.366,2.04 3.473,4.01 -0.78,9.883 -3.174,6.109 -2.398,-3.776 0.059,-5.629 -2.996,-6.109 -3.056,-0.484 -7.85,-1.798 -4.196,-2.04 z" style="fill:#a2cd3d;fill-rule:nonzero" id="path192"/>
        <path d="m 144.477,12.379 c -0.118,0.352 -3.078,3.81 0,5.249 3.079,1.437 7.885,1.483 7.131,4.546 -0.758,3.063 -0.79,4.895 1.593,5.238 2.381,0.341 4.119,-0.223 3.761,0 -0.361,0.22 -6.65,0.73 -7.189,-0.935 -0.54,-1.661 0.619,-5.551 -2.815,-7 -3.433,-1.447 -5.81,-1.009 -5.814,-3.944 -0.002,-2.939 3.969,-5.047 3.333,-3.154 z" style="fill:#527435;fill-rule:nonzero" id="path194"/>
        <path d="m 159.357,49.33 c -0.201,-0.576 -4.324,3.32 -6.386,3.232 -2.067,-0.089 -5.525,-0.85 -6.398,0.114 -0.873,0.962 -3.265,1.099 -5.345,0 -2.082,-1.101 -3.124,-3.116 -4.236,-2.487 -1.113,0.628 3.273,5.782 7.516,6.142 4.243,0.36 17.106,-0.45 14.849,-7.001 z" style="fill:#963c22;fill-rule:nonzero" id="path196"/>
        <path d="m 139.982,49.272 c 0,0 0.396,2.007 3.493,2.705 3.098,0.699 2.979,-0.938 4.422,-0.345 1.443,0.593 4.16,0.096 6.1,-0.084 1.939,-0.181 3.123,-2.276 3.123,-2.276 0,0 0.78,3.824 -3.055,4.026 -3.837,0.202 -5.605,-0.909 -6.707,0.185 -1.102,1.094 -9.652,0.372 -7.376,-4.211 z" style="fill:#813e20;fill-rule:nonzero" id="path198"/>
    </g>
</svg>
