<?xml version="1.0" encoding="UTF-8" standalone="no"?>
<svg xmlns="http://www.w3.org/2000/svg" width="100%" height="100%" viewBox="0 0 356 330" version="1.1" style="clip-rule:evenodd;fill-rule:evenodd;stroke-linejoin:round;stroke-miterlimit:2" id="svg311">
    <g transform="translate(34.868,141.21542)" style="clip-rule:evenodd;display:inline;fill-rule:evenodd;stroke-linejoin:round;stroke-miterlimit:2" id="stage-3">
        <path d="m 181.135,47.113 -0.362,-1.079 c 0.242,0.141 0.465,0.275 0.664,0.404 -0.195,0.417 -0.302,0.675 -0.302,0.675 z m -6.441,-1.384 c 0,0 -0.568,-1.283 -1.183,-2.904 0.564,0.203 1.096,0.401 1.6,0.596 z m -7.682,-0.047 c -0.409,1.146 -1.379,-2.199 -2.015,-5.73 1.323,0.479 2.657,0.941 3.985,1.369 -0.89,1.743 -1.695,3.594 -1.97,4.361 z m -6.152,-6.676 c -0.362,1.156 -1.299,0.059 -2.286,-1.569 0.805,0.342 1.629,0.68 2.476,1.018 -0.069,0.193 -0.139,0.381 -0.19,0.551 z m 26.839,-0.504 c -1.629,1.094 -2.983,2.644 -4.032,4.128 0.522,-4.792 1.767,-11.507 4.734,-14.37 4.859,-4.691 -3.78,-3.132 -7.965,-0.323 -4.185,2.807 -6.571,8.61 -6.571,8.61 l -4.334,-13.026 -2.102,11.644 c 0,0 -2.137,-4.837 -2.641,-7.601 -0.504,-2.763 -4.367,5.671 -5.04,7.552 -0.674,1.882 -2.851,-8.305 -2.591,-11.597 0.262,-3.295 -2.772,2.393 -3.562,4.921 -0.79,2.529 -4.326,-5.678 -5.143,-6.716 -0.816,-1.035 -0.141,8.212 -1.631,9.058 -0.837,0.476 2.861,2.681 8.34,5.17 -0.118,2.329 -0.312,4.961 -1.074,5.396 -1.49,0.845 11.41,7.177 23.121,10.845 11.711,3.671 13.351,6.325 13.351,6.325 0,0 0.25,-15.005 5.108,-19.695 4.858,-4.69 -3.78,-3.13 -7.968,-0.321 z" style="fill:#8fa73d;fill-rule:nonzero" id="path2-8"/>
        <path d="m 279.154,105.273 c -6.858,-4.458 -15.431,-5.486 -19.545,-11.999 -4.114,-6.516 -10.629,-14.403 -26.405,-20.918 -15.77,-6.515 -20.229,-5.484 -27.087,-8.916 -6.856,-3.428 -28.8,-19.546 -43.202,-23.659 -9.614,-2.745 -13.031,-11.313 -22.632,-4.457 -9.599,6.858 -20.228,12.346 -30.517,10.974 -10.283,-1.372 -17.831,2.056 -21.941,7.199 -4.118,5.144 -6.173,5.829 -12.69,5.144 -6.512,-0.686 -7.887,1.713 -14.399,5.486 C 54.221,67.9 50.79,64.812 43.591,67.556 36.39,70.298 31.588,73.042 30.217,78.871 28.848,84.7 29.188,81.615 19.932,85.043 10.674,88.472 6.213,89.501 5.188,94.302 4.16,99.101 1.36,105.735 0.332,106.764 c -1.028,1.03 0.357,5.333 3.786,7.732 3.429,2.4 20.498,1.75 21.069,4.493 0.573,2.744 10.517,2.968 13.602,5.6 3.09,2.629 3.772,6.058 8.916,7.771 5.144,1.716 12.346,0.689 17.83,7.889 5.485,7.198 29.83,20.917 38.747,29.487 8.914,8.572 28.802,22.116 37.376,18.515 8.571,-3.599 26.585,-12.343 36.953,-12 10.365,0.343 16.878,-2.741 21.678,-8.915 4.8,-6.17 17.83,-20.915 27.774,-20.573 9.945,0.345 24.002,-2.745 28.118,-8.917 4.114,-6.17 8.226,-5.141 15.089,-9.256 6.856,-4.115 15.769,-10.973 17.142,-13.374 1.371,-2.399 -2.403,-5.486 -9.258,-9.943 z" style="fill:#758035;fill-rule:nonzero" id="path4-2"/>
        <path d="m 281.521,104.954 c -6.583,-4.279 -21.558,-4.723 -25.501,-10.976 -3.951,-6.252 -10.205,-13.82 -25.34,-20.072 -15.136,-6.252 -19.415,-5.266 -25.997,-8.557 -6.579,-3.291 -27.64,-18.756 -41.461,-22.706 -9.224,-2.635 -12.504,-10.858 -21.717,-4.276 -9.215,6.581 -19.418,11.846 -29.29,10.529 -9.872,-1.316 -17.111,1.975 -21.061,6.911 -3.949,4.936 -5.922,5.596 -12.175,4.936 -6.252,-0.658 -7.568,1.646 -13.823,5.264 -6.25,3.621 -9.54,0.66 -16.451,3.292 -6.91,2.632 -11.516,5.264 -12.834,10.859 -1.316,5.594 -0.987,2.633 -9.87,5.924 -8.886,3.291 -13.164,4.276 -14.149,8.883 -0.592,2.754 -3.151,1.552 -5.324,0.35 -1.463,-0.809 -2.752,-1.618 -3.148,-1.221 -0.989,0.987 -0.415,14.363 2.875,16.666 3.292,2.306 24.24,5.266 24.79,7.898 0.549,2.634 10.091,2.848 13.054,5.374 2.963,2.524 3.619,5.813 8.555,7.46 4.936,1.646 11.849,0.657 17.111,7.567 5.265,6.91 28.631,20.076 37.184,28.301 8.556,8.227 27.643,21.225 35.87,17.769 8.224,-3.454 25.517,-11.846 35.462,-11.517 9.948,0.33 16.2,-2.633 20.807,-8.555 4.606,-5.922 17.111,-20.073 26.655,-19.744 9.542,0.328 23.036,-2.633 26.985,-8.556 3.948,-5.922 7.897,-4.937 14.478,-8.885 6.578,-3.948 15.136,-10.529 16.452,-12.833 1.319,-2.303 4.444,-5.808 -2.137,-10.085 z" style="fill:#37302b;fill-rule:nonzero" id="path6-5"/>
        <path d="m 274.774,98.701 c -6.581,-4.277 -14.811,-5.265 -18.754,-11.518 -3.951,-6.253 -10.205,-13.82 -25.34,-20.072 -15.136,-6.252 -19.415,-5.266 -25.997,-8.557 -6.579,-3.289 -27.64,-18.756 -41.461,-22.706 -9.224,-2.634 -12.504,-10.855 -21.717,-4.276 -9.215,6.582 -19.418,11.847 -29.29,10.528 -9.872,-1.315 -17.111,1.976 -21.061,6.911 -3.949,4.937 -5.922,5.595 -12.175,4.937 -6.252,-0.657 -7.568,1.646 -13.823,5.265 -6.25,3.62 -9.54,0.66 -16.451,3.292 -6.91,2.632 -11.516,5.264 -12.834,10.858 -1.316,5.594 -0.987,2.634 -9.87,5.922 -8.886,3.292 -13.164,4.279 -14.149,8.886 -0.991,4.606 -6.912,3.619 -7.9,4.606 -0.987,0.988 -0.987,8.885 2.303,11.189 3.292,2.304 24.24,5.265 24.79,7.897 0.549,2.633 10.091,2.848 13.054,5.373 2.963,2.525 3.619,5.817 8.555,7.46 4.936,1.648 11.849,0.658 17.111,7.57 5.265,6.91 28.631,20.073 37.184,28.3 8.556,8.226 27.643,21.224 35.87,17.77 8.224,-3.457 25.517,-11.847 35.462,-11.52 9.948,0.331 16.2,-2.631 20.807,-8.554 4.606,-5.923 17.111,-20.074 26.655,-19.744 9.542,0.328 23.036,-2.633 26.985,-8.556 3.948,-5.922 7.897,-4.935 14.478,-8.884 6.578,-3.949 15.136,-10.53 16.452,-12.834 1.319,-2.303 -2.303,-5.266 -8.884,-9.543 z" style="fill:#542f29;fill-rule:nonzero" id="path8-9"/>
        <path d="m 139.869,173.969 c -6.084,0 -9.709,-5.163 -8.517,-11.712 1.781,-1.225 3.178,-2.513 4.11,-3.55 1.01,-1.127 2.118,-2.201 3.24,-3.001 1.842,0.195 3.641,0.286 5.388,0.286 0.283,0 0.566,-0.003 0.847,-0.008 0.125,0.176 0.247,0.367 0.366,0.574 2.273,3.979 3.282,5.657 13.07,8.946 -3.846,2.138 -7.476,4.46 -10.695,6.116 l -0.401,-2.222 -0.963,2.893 c -1.351,0.631 -2.62,1.112 -3.789,1.373 -0.928,0.207 -1.815,0.305 -2.656,0.305 z m 45.646,-13.874 c 1.738,-1.461 2.965,-2.746 3.536,-3.41 0.839,-0.975 3.041,-1.856 5.596,-3.007 -3.39,2.732 -6.497,5.126 -9.132,6.417 z m 19.577,-14.591 c 0.13,-0.266 0.249,-0.54 0.357,-0.822 0.762,-1.987 0.873,-3.844 0.622,-5.503 0.002,-0.001 0.005,-0.001 0.007,-0.002 0.006,-0.001 0.011,-0.003 0.016,-0.004 0.015,-0.003 0.028,-0.006 0.042,-0.01 0.004,-0.001 0.009,-0.002 0.013,-0.003 0.011,-0.003 0.022,-0.005 0.032,-0.008 0.005,-10e-4 0.011,-0.002 0.015,-0.004 0.014,-0.003 0.029,-0.007 0.043,-0.01 l 0.044,-0.011 c 0.005,-0.001 0.009,-0.002 0.013,-0.003 0.015,-0.004 0.029,-0.008 0.044,-0.011 0.015,-0.004 0.03,-0.008 0.044,-0.012 0.004,0 0.009,-0.002 0.012,-0.003 0.013,-0.003 0.027,-0.006 0.039,-0.01 0.002,0 0.003,0 0.005,-0.001 0.015,-0.004 0.03,-0.008 0.045,-0.012 0.003,0 0.005,-10e-4 0.007,-10e-4 0.013,-0.004 0.028,-0.008 0.041,-0.011 0.002,-10e-4 0.003,-10e-4 0.006,-0.002 0.016,-0.004 0.03,-0.007 0.046,-0.012 h 0.003 c 0.014,-0.004 0.028,-0.008 0.042,-0.012 0.002,0 0.005,-0.001 0.007,-0.001 0.031,-0.009 0.061,-0.017 0.092,-0.025 10e-4,-0.001 0.003,-0.001 0.004,-0.001 0.03,-0.009 0.062,-0.017 0.093,-0.026 h 0.001 c 0.015,-0.005 0.031,-0.009 0.047,-0.013 0.032,-0.009 0.063,-0.018 0.094,-0.027 h 0.002 c 9.476,-2.699 8.74,-9.802 4.187,-12.974 -1.717,-1.198 -2.929,-1.687 -4.012,-1.687 -1.858,0 -3.34,1.433 -6.352,3.187 -2.208,1.284 -4.347,2.08 -6.218,2.451 4.174,-1.668 7.331,-4.324 8.997,-6.18 1.01,-1.126 2.117,-2.201 3.239,-3 1.842,0.195 3.64,0.285 5.387,0.285 0.284,0 0.567,-0.002 0.848,-0.007 0.125,0.176 0.247,0.367 0.366,0.575 2.526,4.421 3.491,6.001 16.68,10.109 0.874,0.272 1.741,0.476 2.599,0.618 -7.065,2.893 -12.946,4.725 -21.756,9.487 -1.957,1.058 -3.913,2.324 -5.843,3.696 z m 69.178,-40.503 c -0.049,-0.648 -0.157,-1.27 -0.307,-1.86 0.284,0.594 0.369,1.22 0.307,1.86 z" style="fill:#6f3923;fill-rule:nonzero" id="path12-6"/>
        <path d="m 231.336,107.137 c -8.885,7.451 -16.451,3.74 -28.626,3.74 -12.18,0 -16.454,9.542 -23.036,16.673 -6.58,7.129 -33.563,11.956 -46.068,16.561 -12.504,4.608 -7.57,18.76 -7.241,12.835 0.328,-5.924 19.746,-17.44 36.528,-17.77 16.781,-0.33 24.022,-17.77 31.917,-21.94 7.9,-4.168 21.061,-2.41 28.63,-2.08 7.567,0.328 22.047,-18.429 22.047,-18.429 3.337,-4.046 -5.265,2.962 -14.151,10.41 z" style="fill:#37302b;fill-rule:nonzero" id="path16-9"/>
        <path d="m 97.252,130.109 c 0.269,-0.396 0.536,-0.755 0.807,-1.082 1.664,-0.226 3.267,-0.643 4.787,-1.188 0.208,0.477 0.428,0.954 0.657,1.428 -2.227,0.288 -4.322,0.571 -6.251,0.842 z" style="fill:#6f3923;fill-rule:nonzero" id="path18-0"/>
        <path d="m 193.495,83.435 c -8.886,7.451 -16.452,3.739 -28.629,3.739 -12.177,0 -16.454,9.544 -23.034,16.671 -6.582,7.132 -33.566,11.957 -46.071,16.564 -12.503,4.608 -7.569,18.757 -7.24,12.833 0.333,-5.92 19.745,-17.44 36.526,-17.769 16.785,-0.33 24.024,-17.768 31.921,-21.939 7.898,-4.169 21.06,-2.412 28.627,-2.083 7.57,0.33 22.048,-18.429 22.048,-18.429 3.337,-4.045 -5.263,2.965 -14.148,10.413 z" style="fill:#37302b;fill-rule:nonzero" id="path20-5"/>
        <path d="m 59.939,126.385 c -1.407,0 -2.684,-0.277 -3.799,-0.783 0.045,-0.023 0.089,-0.046 0.133,-0.069 1.376,0.242 2.82,0.469 4.281,0.834 -0.208,0.012 -0.413,0.018 -0.615,0.018 z" style="fill:#5b3f25;fill-rule:nonzero" id="path22-71"/>
        <path d="m 60.554,126.367 c -1.461,-0.365 -2.905,-0.592 -4.281,-0.834 3.072,-1.606 5.412,-3.644 6.767,-5.152 1.01,-1.127 2.118,-2.202 3.24,-3.002 1.842,0.196 3.641,0.286 5.388,0.286 0.276,0 0.55,-0.003 0.824,-0.007 h 0.022 c 0.125,0.175 0.247,0.366 0.366,0.574 0.456,0.799 0.862,1.505 1.297,2.15 -4.39,2.589 -8.363,4.979 -11.581,5.697 -0.706,0.157 -1.387,0.252 -2.042,0.288 z" style="fill:#6f3923;fill-rule:nonzero" id="path24-49"/>
        <path d="m 151.41,59.554 c -8.885,7.45 -16.453,3.738 -28.629,3.738 -12.178,0 -16.453,9.543 -23.035,16.673 -6.58,7.132 -33.562,11.956 -46.067,16.564 -12.505,4.606 -7.57,18.756 -7.24,12.833 0.331,-5.924 19.745,-17.441 36.526,-17.771 16.781,-0.33 24.018,-17.769 31.921,-21.938 7.895,-4.17 21.057,-2.412 28.627,-2.084 7.57,0.331 22.047,-18.426 22.047,-18.426 3.336,-4.047 -5.266,2.96 -14.15,10.411 z" style="fill:#37302b;fill-rule:nonzero" id="path26-4"/>
        <path d="m 12.242,93.739 c 0.214,-0.572 0.474,-1.166 0.784,-1.783 3.023,-6.012 8.606,-4.047 14.609,-5.41 0.322,0.176 0.661,0.341 1.017,0.495 0.28,0.121 0.587,0.234 0.917,0.338 0.433,1.193 0.941,2.384 1.511,3.561 -9.622,1.243 -16.766,2.406 -18.838,2.799 z" style="fill:#5b3127;fill-rule:nonzero" id="path28-5"/>
        <path d="m 70.208,99.658 c -3.731,-1.665 -8.391,1.315 -13.656,2.96 -5.266,1.647 -3.617,10.366 3.29,12.177 6.913,1.81 21.06,-10.367 10.366,-15.137 z" style="fill:#963c22;fill-rule:nonzero" id="path30-1"/>
        <path d="m 59.842,110.717 c -3.199,-0.838 -5.252,-3.158 -6.028,-5.569 -1.281,3.242 0.94,8.314 6.028,9.647 5.765,1.506 16.554,-6.709 13.771,-12.249 -1.901,4.716 -9.328,9.333 -13.771,8.171 z" style="fill:#37302b;fill-rule:nonzero" id="path32-25"/>
        <g id="g40">
            <g id="g38">
                <g id="g36">
                    <path d="m 225.906,82.358 c -3.735,-1.095 -8.392,0.866 -13.658,1.95 -5.266,1.084 -3.617,6.828 3.296,8.019 6.907,1.193 21.055,-6.827 10.362,-9.969 z" style="fill:#963c22;fill-rule:nonzero" id="path34-1"/>
                </g>
            </g>
        </g>
        <path d="m 215.544,89.642 c -3.203,-0.552 -5.255,-2.079 -6.036,-3.668 -1.276,2.135 0.944,5.477 6.036,6.353 5.762,0.995 16.55,-4.419 13.768,-8.066 -1.9,3.106 -9.327,6.147 -13.768,5.381 z" style="fill:#37302b;fill-rule:nonzero" id="path42-1"/>
        <path d="m 160.415,37.138 c -3.733,-1.096 -8.391,0.865 -13.656,1.951 -5.266,1.082 -3.62,6.825 3.292,8.017 6.911,1.194 21.06,-6.826 10.364,-9.968 z" style="fill:#963c22;fill-rule:nonzero" id="path44-3"/>
        <path d="m 150.051,44.42 c -3.201,-0.551 -5.252,-2.077 -6.033,-3.665 -1.277,2.133 0.945,5.472 6.033,6.351 5.763,0.994 16.552,-4.419 13.767,-8.066 -1.899,3.105 -9.326,6.146 -13.767,5.38 z" style="fill:#37302b;fill-rule:nonzero" id="path46-43"/>
        <path d="m 211.157,125.97 c -4.659,-3.251 -5.595,-1.277 -10.364,1.5 -4.772,2.776 -9.213,3.269 -11.353,2.119 -1.083,-0.583 -2.461,2.29 -1.444,5.164 0.991,2.803 4.261,5.607 12.305,5.201 16.287,-0.822 16.287,-10.2 10.856,-13.984 z" style="fill:#963c22;fill-rule:nonzero" id="path48-00"/>
        <path d="m 200.301,137.157 c -8.668,0.438 -11.791,-2.851 -12.494,-5.852 -0.779,3.137 0.884,9.235 12.494,8.649 11.623,-0.587 14.947,-5.53 13.93,-9.689 -0.844,3.323 -4.862,6.435 -13.93,6.892 z" style="fill:#37302b;fill-rule:nonzero" id="path50-7"/>
        <path d="m 203.25,133 c -0.807,-1.018 -1.465,-1.587 -1.465,-1.587 l -5.256,-0.19 c 0.59,-0.323 1.417,-0.612 2.455,-0.813 3.715,-0.718 4.985,-2.572 6.355,-2.572 0.51,0 1.034,0.257 1.704,0.927 0,0 2.976,2.825 -3.793,4.235 z" style="fill:#b15929;fill-rule:nonzero" id="path52-4"/>
        <path d="m 146.301,113.984 c -4.665,-3.249 -5.596,-1.275 -10.368,1.5 -4.772,2.777 -9.213,3.273 -11.352,2.121 -1.084,-0.583 -2.461,2.291 -1.445,5.165 0.991,2.803 4.261,5.607 12.304,5.201 16.288,-0.825 16.288,-10.202 10.861,-13.987 z" style="fill:#963c22;fill-rule:nonzero" id="path54-58"/>
        <path d="m 135.44,125.172 c -8.667,0.439 -11.792,-2.849 -12.494,-5.85 -0.78,3.137 0.885,9.233 12.494,8.649 11.624,-0.589 14.95,-5.531 13.929,-9.69 -0.843,3.322 -4.858,6.435 -13.929,6.891 z" style="fill:#37302b;fill-rule:nonzero" id="path56-5"/>
        <path d="m 211.157,99.181 c -4.661,-3.251 -5.595,-1.274 -10.364,1.499 -4.772,2.779 -9.213,3.271 -11.353,2.121 -1.083,-0.584 -2.461,2.29 -1.444,5.164 0.991,2.803 4.261,5.607 12.305,5.201 16.287,-0.822 16.287,-10.201 10.856,-13.985 z" style="fill:#963c22;fill-rule:nonzero" id="path58-0"/>
        <path d="m 200.301,110.369 c -8.668,0.438 -11.791,-2.85 -12.496,-5.851 -0.779,3.136 0.883,9.234 12.496,8.648 11.623,-0.588 14.947,-5.53 13.926,-9.69 -0.842,3.324 -4.858,6.434 -13.926,6.893 z" style="fill:#37302b;fill-rule:nonzero" id="path60-80"/>
        <path d="m 180.033,57.49 17.439,0.631 c 0,0 6.571,5.686 3.664,13.269 -2.906,7.581 -14.227,9.477 -16.4,12.003 -2.176,2.529 -13.881,14.092 -27.068,9.984 -13.187,-4.109 -14.152,-5.688 -16.68,-10.11 -2.528,-4.424 -6.665,-1.39 -9.84,2.148 -3.176,3.538 -11.767,9.983 -22.507,6.95 -10.742,-3.033 -10.489,-7.834 -15.67,-7.834 -5.182,0 -7.114,-1.012 -7.792,-5.56 -0.675,-4.549 -6.614,0 -8.761,-8.466 -2.148,-8.467 0.253,-10.867 3.411,-11.624 3.158,-0.76 83.651,-13.774 100.204,-1.391 z" style="fill:#5d873c;fill-rule:nonzero" id="path68-4"/>
        <path d="m 173.983,31.08 c 0,0 3.902,-4.787 13.125,-2.394 9.225,2.394 10.364,3.532 11.753,3.279 1.391,-0.252 -5.307,4.927 -1.389,9.855 3.919,4.93 6.823,11.754 3.159,16.553 -3.664,4.803 -22.746,-1.138 -22.746,-1.138 z" style="fill:#527435;fill-rule:nonzero" id="path70-3"/>
        <path d="m 92.719,24.635 c 0,0 -0.252,-3.663 -6.446,0 -6.191,3.666 3.287,11.626 -3.918,17.945 -7.202,6.317 -12.255,10.614 -8.718,15.541 3.538,4.929 15.361,5.941 22.338,3.033 6.977,-2.906 -7.804,-21.986 -3.256,-36.519 z" style="fill:#527435;fill-rule:nonzero" id="path72-08"/>
        <path d="m 167.651,37.525 c 0,0 9.982,-20.091 0,-27.293 -9.983,-7.205 -23.978,-3.414 -28.164,-7.584 -4.184,-4.17 -10.163,-3.033 -16.271,0.76 -6.112,3.788 -25.695,4.676 -28.476,15.922 -2.781,11.245 -9.602,27.712 2.022,32.746 11.626,5.033 68.361,-4.569 70.889,-14.551 z" style="fill:#527435;fill-rule:nonzero" id="path74-1"/>
        <path d="m 173.983,55.131 c 0,19.052 -14.309,27.562 -33.36,27.562 -19.052,0 -35.633,-8.51 -35.633,-27.562 0,-19.051 15.444,-34.497 34.497,-34.497 19.054,0 34.496,15.446 34.496,34.497 z" style="fill:#67a444;fill-rule:nonzero" id="path76-98"/>
        <path d="m 128.396,20.634 c 0,0 -5.616,5.223 -0.955,8.256 4.66,3.033 12.525,3.875 12.046,8.254 -0.478,4.382 1.207,8.088 6.599,8.594 1.599,0.149 2.869,0.017 3.938,-0.115 2.532,-0.313 3.93,-0.626 5.898,2.81 2.798,4.888 3.98,9.436 7.854,11.625 3.875,2.192 7.83,9.603 1.978,14.66 -5.855,5.053 -22.149,11.456 -41.042,5.725 -18.895,-5.725 -55.748,-53.027 3.684,-59.809 z" style="fill:#5c9a43;fill-rule:nonzero" id="path78-8"/>
        <path d="m 162.507,29.439 c 0,0 12.926,11.338 2.995,18.934 -9.932,7.6 -20.344,8.357 -23.503,10.76 -3.161,2.4 -4.984,8.59 -4.984,8.59 0,0 11.429,-6.317 23.179,-2.399 11.753,3.916 21.607,4.295 22.62,-3.286 1.01,-7.581 -2.276,-7.833 0.756,-14.784 3.034,-6.95 1.467,-22.111 -21.063,-17.815 z" style="fill:#82c341;fill-rule:nonzero" id="path80-8"/>
        <path d="m 131.785,27.184 c -2.08,2.13 9.586,0.498 10.485,6.191 0.898,5.69 1.996,7.387 6.29,8.386 4.293,0.999 10.883,7.391 14.179,5.493 3.294,-1.897 6.012,-8.879 -1.863,-16.375 C 153,23.381 140.173,18.597 131.785,27.184 Z" style="fill:#82c341;fill-rule:nonzero" id="path82-7"/>
        <path d="m 147.954,54.798 c -2.946,0 -7.459,-1.067 -11.975,-2.628 -7.29,-2.52 -30.656,-4.158 -33.452,-9.282 -2.793,-5.121 -1.596,-14.306 23.268,-20.898 0,0 -3.197,7.193 0.797,9.687 3.995,2.497 11.582,3.196 11.284,6.69 -0.3,3.496 2.195,8.83 5.491,10.006 3.295,1.177 8.578,2.619 7.881,5.085 -0.265,0.937 -1.484,1.34 -3.294,1.34 z" style="fill:#73b343;fill-rule:nonzero" id="path84-8"/>
        <path d="m 105.624,63.689 c 0,0 8.693,-5.381 23.865,0 15.168,5.381 21.346,16.215 21.553,16.879 0.206,0.664 -4.479,5.686 -22.052,1.494 C 111.415,77.867 98.236,63.29 105.624,63.689 Z" style="fill:#527435;fill-rule:nonzero" id="path86-6"/>
        <path d="m 94.74,19.33 c 0,0 -5.938,24.387 9.226,27.799 15.163,3.411 27.292,6.192 36.389,16.678 9.098,10.489 10.893,17.567 10.893,17.567 0,0 -5.838,-13.524 -22.139,-17.82 -16.3,-4.294 -20.847,4.169 -32.347,-0.882 C 85.263,57.617 85.895,31.333 94.74,19.33 Z" style="fill:#79bb42;fill-rule:nonzero" id="path88-5"/>
        <path d="m 91.345,36.57 c 0,0 0.299,8.086 5.89,10.583 5.593,2.497 24.067,5.793 28.659,9.087 4.591,3.297 -10.583,-1.996 -16.177,0.6 -5.59,2.595 -14.078,1.597 -16.674,-5.591 C 90.446,44.058 91.345,36.57 91.345,36.57 Z" style="fill:#82c341;fill-rule:nonzero" id="path90-6"/>
        <path d="m 198.285,62.772 c 2.321,1.845 1.948,8.894 -3.894,11.89 -5.841,2.994 -11.382,6.725 -12.73,9.052 -1.349,2.332 -11.016,9.965 -20.785,7.87 -9.769,-2.094 -18.606,-6.287 -14.563,-5.239 4.044,1.049 22.767,2.096 24.115,-1.648 1.348,-3.744 7.339,-10.993 10.934,-11.486 0.97,-0.134 1.853,-0.013 2.655,0.107 2.167,0.327 3.74,0.653 4.833,-4.048 1.498,-6.441 6.039,-9.2 9.435,-6.498 z" style="fill:#5c9a43;fill-rule:nonzero" id="path92-5"/>
        <path d="m 101.471,26.729 c 0,0 24.472,-14.375 41.846,-9.73 17.376,4.642 21.869,5.391 21.869,0.448 0,-4.941 -10.485,-7.639 -18.273,-8.237 -7.788,-0.601 -8.537,-3.745 -12.433,-5.392 -3.893,-1.647 -10.632,1.199 -16.774,3.445 -6.142,2.247 -25.43,11.376 -16.235,19.466 z" style="fill:#5c9a43;fill-rule:nonzero" id="path94-0"/>
        <path d="m 187.353,32.125 c 4.941,0 5.391,-0.041 6.889,6.271 1.497,6.311 7.19,12.731 4.195,15.062 -2.999,2.333 -12.638,0.933 -10.289,-1.288 2.35,-2.221 3.998,-5.965 2.649,-10.608 -1.349,-4.642 -3.444,-9.437 -3.444,-9.437 z" style="fill:#5c9a43;fill-rule:nonzero" id="path96-6"/>
        <path d="m 86.029,33.924 c 0,0 -0.749,12.127 -3.594,14.449 -2.847,2.325 -8.165,4.346 -5.769,7.642 2.398,3.294 14.529,3.669 14.529,3.669 0,0 -8.163,-3.461 -6.514,-8.021 1.647,-4.561 3.317,-12.659 1.348,-17.739 z" style="fill:#5d873c;fill-rule:nonzero" id="path98-3"/>
        <path d="m 122.199,24.988 c -3.039,3.254 3.787,10.102 9.338,10.783 5.549,0.684 4.043,3.262 5.142,7.623 1.097,4.361 -22.469,5.612 -23.465,-4.998 -0.999,-10.613 11.781,-16.404 8.985,-13.408 z" style="fill:#82c341;fill-rule:nonzero" id="path100-7"/>
        <path d="m 137.476,25.287 c 5.656,-0.373 11.486,-3.287 17.276,3.399 5.789,6.685 -1.3,16.471 -5.293,10.181 -3.994,-6.291 0.1,-9.379 -4.991,-10.181 -5.093,-0.803 -13.084,-2.997 -6.992,-3.399 z" style="fill:#a2cd3d;fill-rule:nonzero" id="path102-1"/>
        <path d="m 131.148,20.635 c -0.195,0.583 -5.13,6.349 0,8.746 5.131,2.395 13.143,2.47 11.883,7.576 -1.26,5.105 -1.314,8.16 2.657,8.73 3.972,0.571 6.866,-0.371 6.269,0 -0.601,0.368 -11.084,1.215 -11.984,-1.554 -0.899,-2.771 1.031,-9.254 -4.692,-11.668 -5.721,-2.414 -9.681,-1.684 -9.687,-6.577 -0.003,-4.894 6.615,-8.41 5.554,-5.253 z" style="fill:#46612e;fill-rule:nonzero" id="path104-5"/>
        <path d="m 111.924,92.455 17.438,0.631 c 0,0 6.571,5.686 3.665,13.269 -2.905,7.582 -14.226,9.477 -16.4,12.004 -2.175,2.527 -13.882,14.091 -27.067,9.982 -13.189,-4.107 -14.154,-5.687 -16.68,-10.109 -2.529,-4.424 -6.666,-1.391 -9.84,2.149 -3.177,3.537 -11.768,9.982 -22.508,6.949 -10.741,-3.034 -10.488,-7.834 -15.671,-7.834 -5.18,0 -7.113,-1.012 -7.791,-5.559 -0.675,-4.55 -6.613,0 -8.76,-8.467 -2.149,-8.466 0.25,-10.867 3.412,-11.625 3.157,-0.759 83.649,-13.773 100.202,-1.39 z" style="fill:#5d873c;fill-rule:nonzero" id="path106-9"/>
        <path d="m 105.873,66.045 c 0,0 3.903,-4.788 13.127,-2.394 9.225,2.394 10.362,3.532 11.752,3.28 1.392,-0.253 -5.307,4.926 -1.39,9.856 3.919,4.928 6.825,11.752 3.16,16.551 -3.665,4.802 -22.746,-1.137 -22.746,-1.137 z" style="fill:#527435;fill-rule:nonzero" id="path108-3"/>
        <path d="m 24.609,59.6 c 0,0 -0.253,-3.663 -6.445,0 -6.19,3.666 3.286,11.626 -3.916,17.945 C 7.045,83.863 1.99,88.16 5.528,93.086 9.066,98.015 20.889,99.027 27.865,96.119 34.844,93.213 20.062,74.133 24.609,59.6 Z" style="fill:#527435;fill-rule:nonzero" id="path110-3"/>
        <path d="m 99.542,72.49 c 0,0 9.982,-20.091 0,-27.293 -9.982,-7.205 -23.978,-3.414 -28.165,-7.584 -4.183,-4.169 -10.16,-3.033 -16.271,0.76 -6.11,3.789 -25.694,4.676 -28.475,15.922 -2.78,11.246 -9.604,27.713 2.021,32.746 11.627,5.033 68.362,-4.569 70.89,-14.551 z" style="fill:#527435;fill-rule:nonzero" id="path112-8"/>
        <path d="m 105.873,90.097 c 0,19.052 -14.307,27.561 -33.359,27.561 -19.053,0 -35.633,-8.509 -35.633,-27.561 0,-19.052 15.445,-34.498 34.496,-34.498 19.054,0 34.496,15.446 34.496,34.498 z" style="fill:#67a444;fill-rule:nonzero" id="path114-3"/>
        <path d="m 60.286,55.599 c 0,0 -5.614,5.223 -0.953,8.256 4.659,3.033 12.524,3.875 12.044,8.254 -0.477,4.383 1.209,8.089 6.599,8.594 1.601,0.15 2.87,0.018 3.939,-0.114 2.532,-0.313 3.93,-0.625 5.898,2.811 2.797,4.886 3.979,9.434 7.854,11.623 3.875,2.192 7.83,9.604 1.978,14.66 -5.854,5.053 -22.148,11.456 -41.043,5.726 -18.894,-5.726 -55.748,-53.028 3.684,-59.81 z" style="fill:#5c9a43;fill-rule:nonzero" id="path116-3"/>
        <path d="m 94.396,64.404 c 0,0 12.927,11.338 2.996,18.935 -9.931,7.6 -20.342,8.356 -23.503,10.759 -3.159,2.4 -4.983,8.591 -4.983,8.591 0,0 11.43,-6.316 23.18,-2.4 11.752,3.916 21.607,4.296 22.619,-3.285 1.009,-7.582 -2.276,-7.834 0.757,-14.785 3.034,-6.95 1.466,-22.11 -21.066,-17.815 z" style="fill:#82c341;fill-rule:nonzero" id="path118-6"/>
        <path d="m 63.677,62.149 c -2.081,2.132 9.586,0.499 10.484,6.191 0.899,5.691 1.996,7.388 6.289,8.387 4.294,0.999 10.884,7.39 14.181,5.492 3.294,-1.897 6.012,-8.878 -1.863,-16.376 C 84.891,58.346 72.064,53.562 63.677,62.149 Z" style="fill:#82c341;fill-rule:nonzero" id="path120-2"/>
        <path d="m 79.846,89.764 c -2.947,0 -7.46,-1.067 -11.976,-2.629 -7.29,-2.52 -30.655,-4.159 -33.451,-9.28 -2.794,-5.123 -1.597,-14.308 23.267,-20.899 0,0 -3.197,7.192 0.797,9.686 3.996,2.498 11.582,3.196 11.283,6.69 -0.298,3.496 2.197,8.83 5.493,10.007 3.294,1.175 8.578,2.618 7.88,5.085 -0.265,0.937 -1.484,1.34 -3.293,1.34 z" style="fill:#73b343;fill-rule:nonzero" id="path122-1"/>
        <path d="m 37.516,98.654 c 0,0 8.693,-5.381 23.863,0 15.169,5.381 21.347,16.215 21.553,16.879 0.207,0.665 -4.478,5.685 -22.05,1.494 C 43.306,112.833 30.128,98.255 37.516,98.654 Z" style="fill:#527435;fill-rule:nonzero" id="path124-2"/>
        <path d="m 26.631,54.295 c 0,0 -5.939,24.386 9.226,27.798 15.164,3.412 27.291,6.193 36.39,16.679 9.098,10.488 10.892,17.568 10.892,17.568 0,0 -5.837,-13.524 -22.138,-17.821 C 44.7,94.224 40.152,102.689 28.652,97.636 17.154,92.582 17.786,66.298 26.631,54.295 Z" style="fill:#79bb42;fill-rule:nonzero" id="path126-4"/>
        <path d="m 23.236,71.535 c 0,0 0.298,8.087 5.89,10.584 5.594,2.496 24.067,5.793 28.659,9.087 4.592,3.296 -10.584,-1.997 -16.177,0.599 -5.591,2.595 -14.079,1.597 -16.674,-5.59 -2.596,-7.192 -1.698,-14.68 -1.698,-14.68 z" style="fill:#82c341;fill-rule:nonzero" id="path128-2"/>
        <path d="m 46.451,126.55 c -5.654,0 -11.632,-2.492 -13.854,-4.939 -2.919,-3.221 -6.889,-3.297 -9.06,-3.297 -2.173,0 -3.521,-2.995 -3.531,-5.616 -0.013,-2.621 -4.858,-2.397 -8.004,-3.745 -2.996,-1.285 -1.744,-9.798 -1.197,-9.798 0.027,0 0.052,0.02 0.075,0.063 1.792,3.372 9.96,5.092 15.503,7.264 5.541,2.173 1.423,0.6 3.069,4.194 1.647,3.595 8.762,6.74 16.627,8.003 7.863,1.268 12.558,3.754 12.558,3.754 0,0 -0.427,0.899 -7.066,3.296 -1.59,0.574 -3.338,0.821 -5.12,0.821 z" style="fill:#71ab43;fill-rule:nonzero" id="path130-5"/>
        <path d="m 130.176,97.738 c 2.322,1.844 1.949,8.893 -3.894,11.889 -5.841,2.995 -11.382,6.724 -12.73,9.052 -1.349,2.333 -11.016,9.966 -20.784,7.871 -9.771,-2.095 -18.607,-6.287 -14.564,-5.24 4.045,1.049 22.767,2.097 24.115,-1.647 1.349,-3.745 7.339,-10.993 10.935,-11.488 0.97,-0.133 1.853,-0.012 2.655,0.109 2.167,0.326 3.74,0.653 4.833,-4.048 1.497,-6.442 6.037,-9.199 9.434,-6.498 z" style="fill:#5c9a43;fill-rule:nonzero" id="path132-1"/>
        <path d="m 33.362,61.695 c 0,0 24.473,-14.376 41.847,-9.731 17.375,4.642 21.868,5.391 21.868,0.448 0,-4.942 -10.484,-7.638 -18.274,-8.237 C 71.017,43.576 70.268,40.43 66.372,38.783 62.479,37.136 55.738,39.982 49.598,42.228 43.456,44.474 24.167,53.605 33.362,61.695 Z" style="fill:#5c9a43;fill-rule:nonzero" id="path134-8"/>
        <path d="m 119.244,67.091 c 4.942,0 5.392,-0.042 6.889,6.27 1.498,6.311 7.19,12.731 4.194,15.063 -2.997,2.332 -12.637,0.933 -10.287,-1.289 2.349,-2.221 3.996,-5.965 2.648,-10.608 -1.348,-4.642 -3.444,-9.436 -3.444,-9.436 z" style="fill:#5c9a43;fill-rule:nonzero" id="path136-0"/>
        <path d="m 17.92,68.888 c 0,0 -0.748,12.127 -3.594,14.451 -2.847,2.324 -8.165,4.345 -5.768,7.641 2.398,3.295 14.529,3.67 14.529,3.67 0,0 -8.162,-3.461 -6.516,-8.021 1.648,-4.561 3.318,-12.661 1.349,-17.741 z" style="fill:#5d873c;fill-rule:nonzero" id="path138-3"/>
        <path d="m 54.091,59.953 c -3.039,3.255 3.787,10.101 9.337,10.783 5.55,0.684 4.043,3.262 5.142,7.623 1.098,4.361 -22.468,5.612 -23.466,-4.998 -1,-10.612 11.783,-16.403 8.987,-13.408 z" style="fill:#82c341;fill-rule:nonzero" id="path140-1"/>
        <path d="m 69.367,60.252 c 5.656,-0.372 11.484,-3.287 17.276,3.399 5.79,6.686 -1.299,16.472 -5.292,10.181 -3.995,-6.291 0.098,-9.379 -4.992,-10.181 -5.093,-0.804 -13.084,-2.997 -6.992,-3.399 z" style="fill:#a2cd3d;fill-rule:nonzero" id="path142-1"/>
        <path d="m 63.04,55.599 c -0.196,0.584 -5.131,6.35 0,8.746 5.13,2.397 13.143,2.473 11.883,7.578 -1.261,5.105 -1.315,8.159 2.657,8.729 3.971,0.57 6.864,-0.37 6.269,0 -0.602,0.368 -11.085,1.216 -11.986,-1.555 -0.898,-2.769 1.033,-9.254 -4.69,-11.668 -5.721,-2.413 -9.683,-1.682 -9.687,-6.576 -0.005,-4.894 6.614,-8.41 5.554,-5.254 z" style="fill:#46612e;fill-rule:nonzero" id="path144-0"/>
        <path d="m 252.456,95.817 17.438,0.631 c 0,0 6.572,5.686 3.666,13.268 -2.906,7.583 -14.227,9.477 -16.4,12.004 -2.176,2.528 -13.883,14.092 -27.068,9.983 -13.189,-4.108 -14.154,-5.688 -16.68,-10.109 -2.529,-4.424 -6.667,-1.391 -9.84,2.147 -3.177,3.538 -11.767,9.983 -22.51,6.95 -10.739,-3.033 -10.488,-7.834 -15.669,-7.834 -5.18,0 -7.114,-1.011 -7.79,-5.558 -0.676,-4.551 -6.614,0 -8.761,-8.467 -2.149,-8.467 0.252,-10.867 3.411,-11.625 3.158,-0.759 83.649,-13.774 100.203,-1.39 z" style="fill:#5d873c;fill-rule:nonzero" id="path146-0"/>
        <path d="m 246.406,69.406 c 0,0 3.903,-4.787 13.126,-2.393 9.224,2.393 10.363,3.532 11.753,3.28 1.39,-0.252 -5.307,4.925 -1.39,9.854 3.918,4.929 6.824,11.753 3.16,16.554 -3.665,4.802 -22.746,-1.139 -22.746,-1.139 z" style="fill:#527435;fill-rule:nonzero" id="path148-4"/>
        <path d="m 165.142,62.961 c 0,0 -0.253,-3.662 -6.446,0 -6.19,3.667 3.286,11.627 -3.917,17.946 -7.202,6.316 -12.257,10.614 -8.718,15.541 3.538,4.929 15.359,5.94 22.336,3.033 6.979,-2.907 -7.803,-21.986 -3.255,-36.52 z" style="fill:#527435;fill-rule:nonzero" id="path150-1"/>
        <path d="m 240.074,75.851 c 0,0 9.981,-20.089 0,-27.293 -9.982,-7.205 -23.978,-3.414 -28.164,-7.584 -4.183,-4.168 -10.163,-3.033 -16.271,0.76 -6.111,3.789 -25.695,4.677 -28.476,15.922 -2.78,11.246 -9.602,27.713 2.022,32.746 11.626,5.033 68.361,-4.568 70.889,-14.551 z" style="fill:#527435;fill-rule:nonzero" id="path152-6"/>
        <path d="m 246.406,93.459 c 0,19.052 -14.308,27.56 -33.36,27.56 -19.052,0 -35.632,-8.508 -35.632,-27.56 0,-19.052 15.444,-34.498 34.496,-34.498 19.054,0 34.496,15.446 34.496,34.498 z" style="fill:#67a444;fill-rule:nonzero" id="path154-8"/>
        <path d="m 200.817,58.961 c 0,0 -5.614,5.222 -0.952,8.256 4.66,3.033 12.525,3.875 12.045,8.253 -0.477,4.383 1.208,8.089 6.599,8.594 1.6,0.15 2.87,0.018 3.938,-0.114 2.532,-0.313 3.93,-0.625 5.898,2.811 2.798,4.887 3.979,9.434 7.854,11.624 3.875,2.193 7.829,9.603 1.978,14.66 -5.854,5.052 -22.148,11.456 -41.043,5.726 -18.894,-5.726 -55.748,-53.029 3.683,-59.81 z" style="fill:#5c9a43;fill-rule:nonzero" id="path156-8"/>
        <path d="m 234.929,67.766 c 0,0 12.926,11.338 2.995,18.934 -9.931,7.601 -20.344,8.357 -23.503,10.759 -3.159,2.4 -4.983,8.592 -4.983,8.592 0,0 11.428,-6.318 23.178,-2.401 11.753,3.917 21.609,4.295 22.621,-3.285 1.009,-7.582 -2.276,-7.834 0.757,-14.784 3.033,-6.95 1.467,-22.111 -21.065,-17.815 z" style="fill:#82c341;fill-rule:nonzero" id="path158-9"/>
        <path d="m 204.209,65.511 c -2.081,2.13 9.586,0.499 10.484,6.191 0.899,5.689 1.996,7.388 6.29,8.387 4.292,0.999 10.883,7.389 14.18,5.492 3.294,-1.898 6.012,-8.88 -1.864,-16.376 -7.876,-7.498 -20.704,-12.281 -29.09,-3.694 z" style="fill:#82c341;fill-rule:nonzero" id="path160-1"/>
        <path d="m 220.377,93.125 c -2.947,0 -7.46,-1.067 -11.977,-2.628 -7.288,-2.521 -30.654,-4.159 -33.449,-9.281 -2.795,-5.123 -1.597,-14.308 23.268,-20.899 0,0 -3.199,7.193 0.797,9.687 3.994,2.497 11.582,3.195 11.282,6.689 -0.298,3.496 2.197,8.831 5.493,10.007 3.295,1.176 8.578,2.619 7.88,5.084 -0.265,0.938 -1.484,1.341 -3.294,1.341 z" style="fill:#73b343;fill-rule:nonzero" id="path162-8"/>
        <path d="m 178.047,102.015 c 0,0 8.694,-5.38 23.864,0 15.169,5.381 21.348,16.215 21.554,16.879 0.206,0.666 -4.479,5.687 -22.052,1.494 -17.575,-4.195 -30.755,-18.771 -23.366,-18.373 z" style="fill:#527435;fill-rule:nonzero" id="path164-8"/>
        <path d="m 167.163,57.656 c 0,0 -5.938,24.387 9.227,27.799 15.161,3.412 27.291,6.193 36.388,16.68 9.099,10.487 10.893,17.565 10.893,17.565 0,0 -5.837,-13.524 -22.138,-17.819 -16.301,-4.295 -20.848,4.17 -32.348,-0.883 -11.498,-5.055 -10.867,-31.339 -2.022,-43.342 z" style="fill:#79bb42;fill-rule:nonzero" id="path166-6"/>
        <path d="m 163.769,74.897 c 0,0 0.297,8.085 5.888,10.583 5.595,2.496 24.068,5.793 28.66,9.088 4.592,3.295 -10.584,-1.997 -16.176,0.599 -5.592,2.595 -14.08,1.596 -16.676,-5.591 -2.595,-7.191 -1.696,-14.679 -1.696,-14.679 z" style="fill:#82c341;fill-rule:nonzero" id="path168-4"/>
        <path d="m 186.983,129.912 c -1.752,-0.001 -3.535,-0.24 -5.228,-0.643 -1.032,-0.478 -2.189,-0.903 -3.461,-1.281 -0.036,-2.961 -0.446,-5.831 -1.184,-8.567 2.76,1.153 6.059,2.067 9.501,2.621 7.863,1.266 12.557,3.753 12.557,3.753 0,0 -0.426,0.898 -7.066,3.295 -1.589,0.574 -3.338,0.822 -5.119,0.822 z" style="fill:#71ab43;fill-rule:nonzero" id="path170-1"/>
        <path d="m 270.708,101.099 c 2.322,1.844 1.947,8.894 -3.894,11.889 -5.84,2.996 -11.381,6.725 -12.73,9.054 -1.349,2.331 -11.017,9.964 -20.785,7.87 -9.77,-2.096 -18.606,-6.289 -14.563,-5.24 4.045,1.048 22.766,2.096 24.115,-1.648 1.348,-3.745 7.339,-10.993 10.934,-11.487 3.593,-0.494 5.991,2.5 7.489,-3.941 1.497,-6.44 6.037,-9.198 9.434,-6.497 z" style="fill:#5c9a43;fill-rule:nonzero" id="path172-4"/>
        <path d="m 173.895,65.056 c 0,0 24.472,-14.375 41.846,-9.73 17.374,4.642 21.868,5.391 21.868,0.447 0,-4.941 -10.484,-7.638 -18.274,-8.237 -7.787,-0.6 -8.536,-3.745 -12.432,-5.392 -3.893,-1.646 -10.633,1.199 -16.773,3.447 -6.144,2.246 -25.431,11.376 -16.235,19.465 z" style="fill:#5c9a43;fill-rule:nonzero" id="path174-4"/>
        <path d="m 259.776,70.452 c 4.942,0 5.392,-0.042 6.889,6.27 1.498,6.311 7.19,12.732 4.194,15.062 -2.997,2.333 -12.638,0.934 -10.288,-1.287 2.35,-2.222 3.997,-5.966 2.65,-10.609 -1.349,-4.642 -3.445,-9.436 -3.445,-9.436 z" style="fill:#5c9a43;fill-rule:nonzero" id="path176-7"/>
        <path d="m 158.452,72.251 c 0,0 -0.749,12.127 -3.596,14.449 -2.845,2.325 -8.163,4.347 -5.766,7.642 2.397,3.294 14.528,3.668 14.528,3.668 0,0 -8.161,-3.459 -6.514,-8.02 1.647,-4.561 3.317,-12.659 1.348,-17.739 z" style="fill:#5d873c;fill-rule:nonzero" id="path178-9"/>
        <path d="m 194.623,63.314 c -3.039,3.254 3.786,10.102 9.338,10.783 5.549,0.684 4.042,3.263 5.141,7.623 1.097,4.362 -22.468,5.614 -23.466,-4.998 -0.999,-10.611 11.783,-16.402 8.987,-13.408 z" style="fill:#82c341;fill-rule:nonzero" id="path180-9"/>
        <path d="m 209.898,63.613 c 5.658,-0.371 11.486,-3.287 17.277,3.4 5.79,6.684 -1.299,16.47 -5.292,10.181 -3.994,-6.292 0.098,-9.38 -4.991,-10.181 -5.094,-0.804 -13.084,-2.998 -6.994,-3.4 z" style="fill:#a2cd3d;fill-rule:nonzero" id="path182-6"/>
        <path d="m 203.572,58.961 c -0.197,0.584 -5.131,6.35 0,8.746 5.129,2.396 13.143,2.471 11.883,7.578 -1.261,5.104 -1.316,8.159 2.655,8.728 3.972,0.571 6.867,-0.37 6.269,0 -0.599,0.37 -11.083,1.217 -11.983,-1.554 -0.899,-2.77 1.03,-9.253 -4.691,-11.668 -5.723,-2.413 -9.683,-1.684 -9.687,-6.576 -0.004,-4.895 6.614,-8.411 5.554,-5.254 z" style="fill:#46612e;fill-rule:nonzero" id="path184-2"/>
        <path d="m 184.348,130.782 17.437,0.631 c 0,0 6.571,5.685 3.664,13.269 -2.905,7.581 -14.225,9.477 -16.398,12.003 -2.176,2.529 -13.882,14.092 -27.069,9.983 -13.187,-4.108 -14.153,-5.688 -16.679,-10.11 -2.528,-4.423 -6.666,-1.39 -9.841,2.149 -3.176,3.537 -11.767,9.982 -22.508,6.95 -10.74,-3.033 -10.488,-7.834 -15.669,-7.834 -5.18,0 -7.114,-1.012 -7.791,-5.56 -0.676,-4.55 -6.614,0 -8.762,-8.466 -2.148,-8.467 0.252,-10.868 3.411,-11.625 3.159,-0.759 83.651,-13.774 100.205,-1.39 z" style="fill:#5d873c;fill-rule:nonzero" id="path186-3"/>
        <path d="m 178.297,104.372 c 0,0 3.902,-4.788 13.126,-2.394 9.223,2.394 10.362,3.532 11.753,3.28 1.391,-0.252 -5.308,4.925 -1.391,9.855 3.92,4.928 6.825,11.752 3.16,16.553 -3.664,4.802 -22.746,-1.139 -22.746,-1.139 z" style="fill:#527435;fill-rule:nonzero" id="path188-3"/>
        <path d="m 97.033,97.926 c 0,0 -0.253,-3.662 -6.445,0 -6.191,3.667 3.285,11.626 -3.917,17.947 -7.204,6.316 -12.258,10.613 -8.719,15.54 3.537,4.929 15.36,5.94 22.337,3.033 6.979,-2.907 -7.804,-21.985 -3.256,-36.52 z" style="fill:#527435;fill-rule:nonzero" id="path190-1"/>
        <path d="m 171.966,110.817 c 0,0 9.98,-20.091 0,-27.294 -9.984,-7.205 -23.98,-3.414 -28.165,-7.583 -4.183,-4.169 -10.162,-3.033 -16.271,0.76 -6.11,3.788 -25.694,4.677 -28.475,15.921 -2.782,11.246 -9.604,27.713 2.021,32.746 11.626,5.035 68.36,-4.568 70.89,-14.55 z" style="fill:#527435;fill-rule:nonzero" id="path192-2"/>
        <path d="m 178.297,128.424 c 0,19.052 -14.308,27.56 -33.361,27.56 -19.051,0 -35.631,-8.508 -35.631,-27.56 0,-19.052 15.445,-34.498 34.496,-34.498 19.053,0 34.496,15.446 34.496,34.498 z" style="fill:#67a444;fill-rule:nonzero" id="path194-5"/>
        <path d="m 132.709,93.926 c 0,0 -5.614,5.222 -0.953,8.255 4.66,3.035 12.525,3.875 12.045,8.255 -0.478,4.382 1.208,8.089 6.599,8.593 1.6,0.15 2.87,0.018 3.939,-0.114 2.531,-0.313 3.929,-0.625 5.896,2.811 2.799,4.887 3.981,9.435 7.856,11.624 3.875,2.193 7.829,9.603 1.977,14.659 -5.855,5.053 -22.148,11.457 -41.043,5.727 -18.893,-5.727 -55.748,-53.028 3.684,-59.81 z" style="fill:#5c9a43;fill-rule:nonzero" id="path196-1"/>
        <path d="m 166.82,102.731 c 0,0 12.927,11.339 2.995,18.935 -9.93,7.599 -20.343,8.356 -23.502,10.759 -3.16,2.401 -4.983,8.59 -4.983,8.59 0,0 11.428,-6.316 23.178,-2.4 11.753,3.918 21.608,4.296 22.619,-3.285 1.011,-7.582 -2.275,-7.834 0.759,-14.783 3.032,-6.952 1.466,-22.112 -21.066,-17.816 z" style="fill:#82c341;fill-rule:nonzero" id="path198-3"/>
        <path d="m 136.1,100.476 c -2.08,2.131 9.586,0.498 10.484,6.191 0.898,5.69 1.997,7.387 6.29,8.387 4.293,0.998 10.883,7.389 14.179,5.493 3.295,-1.899 6.013,-8.879 -1.864,-16.377 -7.875,-7.496 -20.703,-12.281 -29.089,-3.694 z" style="fill:#82c341;fill-rule:nonzero" id="path200"/>
        <path d="m 152.269,128.09 c -2.947,0 -7.46,-1.067 -11.977,-2.628 -7.289,-2.52 -30.655,-4.16 -33.451,-9.281 -2.792,-5.122 -1.597,-14.308 23.268,-20.898 0,0 -3.198,7.191 0.797,9.686 3.994,2.497 11.583,3.195 11.283,6.689 -0.298,3.496 2.198,8.831 5.494,10.008 3.294,1.174 8.578,2.618 7.88,5.084 -0.266,0.938 -1.485,1.34 -3.294,1.34 z" style="fill:#73b343;fill-rule:nonzero" id="path202"/>
        <path d="m 109.938,136.98 c 0,0 8.695,-5.38 23.865,0 15.169,5.382 21.347,16.215 21.552,16.879 0.208,0.666 -4.477,5.687 -22.051,1.494 -17.575,-4.194 -30.754,-18.771 -23.366,-18.373 z" style="fill:#527435;fill-rule:nonzero" id="path204"/>
        <path d="m 99.055,92.621 c 0,0 -5.939,24.387 9.226,27.799 15.161,3.412 27.291,6.193 36.389,16.678 9.098,10.49 10.893,17.568 10.893,17.568 0,0 -5.838,-13.524 -22.139,-17.819 -16.3,-4.296 -20.848,4.168 -32.348,-0.884 -11.498,-5.055 -10.868,-31.338 -2.021,-43.342 z" style="fill:#79bb42;fill-rule:nonzero" id="path206"/>
        <path d="m 95.66,109.863 c 0,0 0.298,8.085 5.889,10.582 5.593,2.497 24.066,5.793 28.66,9.088 4.592,3.296 -10.584,-1.997 -16.177,0.6 -5.592,2.595 -14.08,1.595 -16.676,-5.592 -2.594,-7.19 -1.696,-14.678 -1.696,-14.678 z" style="fill:#82c341;fill-rule:nonzero" id="path208"/>
        <path d="m 118.875,164.877 c -5.655,0 -11.633,-2.492 -13.854,-4.94 -2.921,-3.221 -6.89,-3.297 -9.06,-3.297 -2.174,0 -3.522,-2.995 -3.533,-5.616 -0.013,-2.621 -4.857,-2.395 -8.002,-3.744 -2.998,-1.285 -1.745,-9.799 -1.198,-9.799 0.027,0 0.052,0.021 0.075,0.064 1.792,3.373 9.961,5.093 15.504,7.263 5.54,2.174 1.421,0.6 3.069,4.196 1.647,3.593 8.761,6.739 16.625,8.003 7.864,1.266 12.559,3.752 12.559,3.752 0,0 -0.426,0.899 -7.066,3.297 -1.59,0.574 -3.338,0.822 -5.119,0.821 z" style="fill:#71ab43;fill-rule:nonzero" id="path210"/>
        <path d="m 202.6,136.064 c 2.322,1.845 1.947,8.894 -3.894,11.889 -5.842,2.996 -11.382,6.724 -12.73,9.054 -1.349,2.331 -11.017,9.964 -20.787,7.87 -9.768,-2.096 -18.605,-6.288 -14.562,-5.241 4.046,1.05 22.768,2.098 24.115,-1.647 1.348,-3.743 7.34,-10.993 10.934,-11.487 3.593,-0.494 5.992,2.502 7.489,-3.94 1.498,-6.441 6.037,-9.199 9.435,-6.498 z" style="fill:#5c9a43;fill-rule:nonzero" id="path212"/>
        <path d="m 105.786,100.021 c 0,0 24.473,-14.375 41.846,-9.73 17.375,4.642 21.867,5.391 21.867,0.448 0,-4.941 -10.482,-7.639 -18.272,-8.237 -7.789,-0.6 -8.537,-3.744 -12.433,-5.393 -3.894,-1.646 -10.633,1.199 -16.773,3.446 -6.142,2.247 -25.43,11.376 -16.235,19.466 z" style="fill:#5c9a43;fill-rule:nonzero" id="path214"/>
        <path d="m 191.668,105.418 c 4.941,0 5.391,-0.043 6.889,6.269 1.498,6.312 7.189,12.732 4.194,15.063 -2.997,2.332 -12.639,0.933 -10.289,-1.288 2.351,-2.222 3.997,-5.966 2.648,-10.609 -1.347,-4.641 -3.442,-9.435 -3.442,-9.435 z" style="fill:#5c9a43;fill-rule:nonzero" id="path216"/>
        <path d="m 90.344,107.216 c 0,0 -0.75,12.127 -3.596,14.45 -2.846,2.324 -8.164,4.345 -5.768,7.641 2.397,3.294 14.53,3.669 14.53,3.669 0,0 -8.161,-3.461 -6.515,-8.021 1.647,-4.561 3.318,-12.658 1.349,-17.739 z" style="fill:#5d873c;fill-rule:nonzero" id="path218"/>
        <path d="m 126.514,98.28 c -3.039,3.254 3.786,10.101 9.338,10.782 5.549,0.684 4.043,3.264 5.14,7.624 1.1,4.361 -22.468,5.613 -23.465,-4.999 -0.999,-10.611 11.783,-16.402 8.987,-13.407 z" style="fill:#82c341;fill-rule:nonzero" id="path220"/>
        <path d="m 141.789,98.578 c 5.657,-0.371 11.486,-3.287 17.277,3.4 5.789,6.685 -1.299,16.471 -5.292,10.181 -3.995,-6.291 0.099,-9.38 -4.992,-10.181 -5.093,-0.803 -13.085,-2.998 -6.993,-3.4 z" style="fill:#a2cd3d;fill-rule:nonzero" id="path222"/>
        <path d="m 135.462,93.926 c -0.195,0.584 -5.131,6.351 0,8.746 5.131,2.396 13.143,2.472 11.883,7.577 -1.259,5.106 -1.315,8.16 2.657,8.729 3.972,0.571 6.866,-0.369 6.269,0 -0.599,0.369 -11.083,1.217 -11.984,-1.553 -0.898,-2.771 1.03,-9.254 -4.69,-11.669 -5.723,-2.413 -9.684,-1.683 -9.688,-6.577 -0.004,-4.894 6.613,-8.409 5.553,-5.253 z" style="fill:#46612e;fill-rule:nonzero" id="path224"/>
    </g>
</svg>
