<?xml version="1.0" encoding="UTF-8" standalone="no"?>
<svg xmlns="http://www.w3.org/2000/svg" width="100%" height="100%" viewBox="-10 0 380 350" version="1.1" style="clip-rule:evenodd;fill-rule:evenodd;stroke-linejoin:round;stroke-miterlimit:2" id="svg311">
    <g style="clip-rule:evenodd;fill-rule:evenodd;stroke-linejoin:round;stroke-miterlimit:2" id="_2" transform="translate(34.96,111.71342)">
        <path d="m 181.133,76.661 -0.359,-1.079 c 0.245,0.141 0.464,0.275 0.664,0.403 -0.197,0.42 -0.305,0.676 -0.305,0.676 z m -6.439,-1.384 c 0,0 -0.564,-1.283 -1.182,-2.904 0.564,0.203 1.096,0.401 1.601,0.596 z m -7.68,-0.048 c -0.412,1.148 -1.38,-2.197 -2.016,-5.729 1.324,0.479 2.658,0.942 3.983,1.369 -0.889,1.743 -1.694,3.592 -1.967,4.36 z m -6.153,-6.676 c -0.363,1.159 -1.3,0.061 -2.289,-1.564 0.808,0.338 1.634,0.676 2.479,1.011 -0.071,0.195 -0.138,0.383 -0.19,0.553 z m 26.84,-0.504 c -1.631,1.096 -2.984,2.644 -4.034,4.129 0.521,-4.793 1.767,-11.505 4.735,-14.37 4.86,-4.693 -3.781,-3.133 -7.966,-0.324 -4.184,2.807 -6.568,8.611 -6.568,8.611 l -4.338,-13.027 -2.1,11.645 c 0,0 -2.138,-4.837 -2.642,-7.601 -0.506,-2.762 -4.368,5.67 -5.04,7.553 -0.676,1.883 -2.849,-8.307 -2.59,-11.599 0.259,-3.294 -2.773,2.393 -3.564,4.922 -0.787,2.53 -4.324,-5.678 -5.141,-6.715 -0.816,-1.037 -0.143,8.212 -1.632,9.058 -0.836,0.473 2.863,2.678 8.341,5.169 -0.118,2.329 -0.314,4.962 -1.076,5.394 -1.49,0.846 11.412,7.18 23.121,10.847 11.71,3.671 13.353,6.325 13.353,6.325 0,0 0.25,-15.003 5.108,-19.694 4.857,-4.69 -3.781,-3.132 -7.967,-0.323 z" style="fill:#8fa73d;fill-rule:nonzero" id="path2-0"/>
        <path d="m 279.154,134.821 c -6.857,-4.457 -15.427,-5.485 -19.545,-12 -4.115,-6.515 -10.629,-14.401 -26.4,-20.917 -15.775,-6.515 -20.232,-5.486 -27.09,-8.917 -6.858,-3.426 -28.802,-19.543 -43.203,-23.658 -9.612,-2.746 -13.03,-11.314 -22.631,-4.458 -9.601,6.859 -20.23,12.346 -30.518,10.972 -10.286,-1.369 -17.83,2.058 -21.943,7.202 -4.114,5.144 -6.174,5.829 -12.687,5.144 -6.516,-0.687 -7.887,1.714 -14.402,5.485 -6.515,3.773 -9.944,0.687 -17.145,3.43 -7.201,2.742 -11.999,5.484 -13.371,11.316 -1.373,5.828 -1.028,2.742 -10.287,6.171 -9.257,3.428 -13.715,4.457 -14.743,9.258 -1.03,4.799 -3.828,11.433 -4.857,12.462 -1.027,1.03 0.357,5.333 3.786,7.732 3.429,2.401 20.497,1.75 21.07,4.494 0.573,2.741 10.517,2.967 13.602,5.599 3.087,2.632 3.774,6.059 8.914,7.772 5.145,1.717 12.344,0.687 17.831,7.889 5.486,7.199 29.832,20.914 38.745,29.487 8.917,8.572 28.804,22.116 37.378,18.516 8.571,-3.601 26.588,-12.344 36.952,-12.002 10.366,0.343 16.88,-2.742 21.681,-8.915 4.801,-6.172 17.829,-20.915 27.774,-20.571 9.943,0.342 24.001,-2.745 28.116,-8.917 4.114,-6.171 8.229,-5.142 15.089,-9.258 6.855,-4.115 15.769,-10.972 17.142,-13.373 1.371,-2.399 -2.402,-5.485 -9.258,-9.943 z" style="fill:#758035;fill-rule:nonzero" id="path4-4"/>
        <path d="m 281.522,134.501 c -6.583,-4.277 -21.556,-4.722 -25.502,-10.975 -3.951,-6.251 -10.205,-13.819 -25.34,-20.072 -15.137,-6.253 -19.414,-5.266 -25.997,-8.557 -6.58,-3.291 -27.64,-18.757 -41.462,-22.706 -9.223,-2.633 -12.503,-10.858 -21.717,-4.277 -9.214,6.582 -19.416,11.847 -29.289,10.53 -9.871,-1.316 -17.109,1.975 -21.06,6.911 -3.946,4.936 -5.92,5.595 -12.174,4.936 -6.254,-0.658 -7.569,1.646 -13.822,5.265 -6.251,3.619 -9.542,0.658 -16.453,3.29 -6.91,2.633 -11.518,5.265 -12.834,10.861 -1.314,5.592 -0.987,2.631 -9.872,5.922 -8.884,3.291 -13.16,4.278 -14.149,8.883 -0.589,2.755 -3.148,1.553 -5.323,0.35 -1.463,-0.809 -2.752,-1.618 -3.149,-1.221 -0.987,0.987 -0.413,14.364 2.88,16.668 3.288,2.304 24.238,5.263 24.786,7.897 0.552,2.632 10.094,2.849 13.053,5.373 2.964,2.525 3.623,5.817 8.558,7.461 4.936,1.644 11.847,0.658 17.112,7.569 5.263,6.911 28.627,20.072 37.184,28.299 8.554,8.226 27.64,21.224 35.868,17.769 8.226,-3.455 25.517,-11.846 35.463,-11.517 9.948,0.33 16.201,-2.632 20.807,-8.557 4.607,-5.922 17.111,-20.072 26.655,-19.743 9.542,0.331 23.033,-2.632 26.983,-8.555 3.948,-5.923 7.897,-4.936 14.476,-8.884 6.582,-3.949 15.141,-10.53 16.455,-12.835 1.317,-2.302 4.444,-5.807 -2.137,-10.085 z" style="fill:#37302b;fill-rule:nonzero" id="path6-6"/>
        <path d="m 274.774,128.249 c -6.58,-4.278 -14.808,-5.265 -18.754,-11.518 -3.951,-6.252 -10.205,-13.821 -25.34,-20.074 -15.137,-6.251 -19.414,-5.263 -25.997,-8.554 -6.58,-3.291 -27.64,-18.757 -41.462,-22.707 -9.223,-2.634 -12.503,-10.859 -21.717,-4.277 -9.214,6.582 -19.416,11.846 -29.289,10.531 -9.871,-1.317 -17.109,1.974 -21.06,6.91 -3.946,4.937 -5.92,5.594 -12.174,4.937 -6.254,-0.659 -7.569,1.644 -13.822,5.264 -6.251,3.621 -9.542,0.658 -16.453,3.291 -6.91,2.632 -11.518,5.265 -12.834,10.858 -1.314,5.594 -0.987,2.634 -9.872,5.925 -8.884,3.289 -13.16,4.275 -14.149,8.883 -0.986,4.607 -6.911,3.619 -7.897,4.607 -0.988,0.988 -0.988,8.885 2.305,11.189 3.288,2.304 24.238,5.265 24.786,7.896 0.552,2.633 10.094,2.851 13.053,5.376 2.964,2.524 3.623,5.815 8.558,7.458 4.936,1.647 11.847,0.659 17.112,7.569 5.263,6.912 28.627,20.073 37.184,28.3 8.554,8.228 27.64,21.224 35.868,17.769 8.226,-3.455 25.517,-11.846 35.463,-11.516 9.948,0.329 16.201,-2.634 20.807,-8.557 4.607,-5.923 17.111,-20.072 26.655,-19.743 9.542,0.328 23.033,-2.633 26.983,-8.555 3.948,-5.923 7.897,-4.937 14.476,-8.886 6.582,-3.949 15.141,-10.529 16.455,-12.833 1.317,-2.305 -2.304,-5.266 -8.885,-9.543 z" style="fill:#542f29;fill-rule:nonzero" id="path8-7"/>
        <path d="m 168.154,204.748 c -1.49,-0.848 -0.816,-10.096 -1.631,-9.057 -0.817,1.035 -4.353,9.242 -5.143,6.713 -0.79,-2.527 -3.821,-8.216 -3.562,-4.922 0.258,3.293 -1.917,13.481 -2.59,11.598 -0.673,-1.883 -4.537,-10.315 -5.04,-7.551 -0.506,2.762 -2.643,7.599 -2.643,7.599 l -2.1,-11.643 -4.338,13.027 c 0,0 -2.384,-5.805 -6.567,-8.612 -4.186,-2.809 -12.826,-4.367 -7.966,0.324 4.857,4.69 7.279,10.709 7.279,10.709 0,0 -0.531,6.329 11.18,2.659 11.71,-3.667 24.612,-10.001 23.121,-10.844 z" style="fill:#8fa73d;fill-rule:nonzero" id="path10-2"/>
        <path d="m 139.869,203.517 c -7.472,0 -11.233,-7.787 -6.922,-16.365 1.274,-2.533 2.312,-4.254 3.469,-5.448 0.876,0.28 1.801,0.452 2.682,0.452 0.561,0 1.103,-0.07 1.604,-0.225 1.315,-0.407 2.203,-1.657 3.107,-3.004 2.919,-0.298 6.859,-0.447 12.502,-0.989 17.112,-1.646 21.39,-6.911 29.616,-17.441 6.707,-8.587 10.571,-10.828 19.976,-10.828 2.129,0 4.542,0.115 7.336,0.297 2.85,0.186 5.185,0.302 7.169,0.302 8.554,0 10.547,-2.16 18.828,-10.172 8.238,-7.972 14.972,-11.437 22.63,-11.437 1.826,0 3.705,0.197 5.669,0.577 10.202,1.974 6.608,7.525 3.619,10.86 -7.997,8.922 -17.768,11.845 -29.617,17.769 -11.844,5.924 -18.426,6.91 -30.601,13.491 -11.355,6.139 -22.685,19.302 -28.988,19.301 -0.456,0 -0.886,-0.069 -1.287,-0.214 -1.841,-0.667 -3.711,-0.958 -5.595,-0.958 -10.322,0 -20.991,8.752 -28.829,12.389 l -0.792,-4.389 -1.805,5.423 c -0.381,0.121 -0.753,0.223 -1.114,0.303 -0.929,0.208 -1.816,0.306 -2.657,0.306 z m 50.399,-36.182 c 1.71,1.29 4.408,2.206 8.515,2.206 0.466,0 0.947,-0.011 1.45,-0.036 0.022,-0.001 0.045,-0.002 0.067,-0.003 0.021,-0.001 0.04,-0.002 0.061,-0.003 0.005,0 0.01,-0.001 0.015,-0.001 0.018,-10e-4 0.034,-0.002 0.052,-0.003 h 0.011 c 0.02,-0.001 0.041,-0.002 0.062,-0.003 0.002,-10e-4 0.005,-10e-4 0.007,-10e-4 0.02,-0.001 0.039,-0.002 0.058,-0.003 0.002,0 0.005,0 0.007,-0.001 0.044,-0.002 0.088,-0.005 0.132,-0.007 h 10e-4 c 15.884,-0.958 15.838,-10.211 10.454,-13.963 -1.718,-1.197 -2.93,-1.686 -4.014,-1.686 -1.857,0 -3.338,1.433 -6.351,3.186 -3.202,1.864 -6.256,2.699 -8.565,2.699 -1.131,0 -2.084,-0.201 -2.788,-0.579 -0.095,-0.052 -0.193,-0.076 -0.292,-0.076 -1.016,0 -2.08,2.62 -1.154,5.24 0.374,1.058 1.073,2.116 2.23,3.002 0.001,0 0.002,0.001 0.002,0.002 0.007,0.005 0.014,0.01 0.021,0.015 0.003,0.003 0.007,0.006 0.01,0.008 0.003,0.002 0.006,0.005 0.009,0.007 z" style="fill:#6f3923;fill-rule:nonzero" id="path12-5"/>
        <path d="m 143.64,202.908 1.805,-5.423 0.792,4.389 c -0.905,0.42 -1.773,0.771 -2.597,1.034 z" style="fill:#a1a438;fill-rule:nonzero" id="path14-6"/>
        <path d="m 231.338,136.687 c -8.884,7.45 -16.453,3.737 -28.629,3.737 -12.178,0 -16.453,9.542 -23.034,16.673 -6.582,7.13 -33.566,11.955 -46.068,16.562 -12.504,4.608 -7.572,18.758 -7.241,12.835 0.33,-5.924 19.743,-17.442 36.527,-17.769 16.782,-0.331 24.021,-17.77 31.919,-21.939 7.897,-4.171 21.06,-2.413 28.63,-2.084 7.568,0.329 22.046,-18.428 22.046,-18.428 3.336,-4.046 -5.263,2.962 -14.15,10.413 z" style="fill:#37302b;fill-rule:nonzero" id="path16-8"/>
        <path d="m 102.027,179.813 c -7.471,0 -11.234,-7.787 -6.921,-16.364 4.799,-9.544 6.252,-7.569 23.362,-9.215 1.906,-0.183 3.653,-0.411 5.264,-0.686 1.343,2.138 4.304,3.985 10.077,4.009 0.421,3.112 0.527,6.555 -0.307,8.578 -10.866,1.994 -21.694,11.783 -28.818,13.372 -0.929,0.208 -1.816,0.306 -2.657,0.306 z m 43.121,-12.969 c -0.088,-0.592 -0.22,-1.103 -0.377,-1.486 -1.077,-2.612 0,-8.3 0,-8.3 l -4.938,8.919 c -0.604,-0.093 -1.21,-0.151 -1.817,-0.178 -0.807,-2.044 -2.096,-5.313 -3.248,-8.254 0.22,-0.007 0.444,-0.016 0.671,-0.027 0.017,-0.001 0.034,-0.002 0.051,-0.003 5.063,-0.261 8.546,-1.351 10.778,-2.842 4.932,-3.292 3.766,-8.538 0.031,-11.141 -0.975,-0.68 -1.788,-1.131 -2.506,-1.394 1.366,-1.606 2.76,-3.383 4.291,-5.343 6.707,-8.585 10.571,-10.828 19.972,-10.828 2.13,0 4.545,0.115 7.341,0.298 2.846,0.185 5.18,0.301 7.163,0.301 8.559,0 10.55,-2.158 18.833,-10.174 8.236,-7.971 14.971,-11.436 22.63,-11.436 1.827,0 3.706,0.197 5.67,0.577 10.202,1.974 6.606,7.526 3.619,10.859 -3.546,3.955 -7.441,6.732 -11.709,9.114 -0.003,-1.705 0.226,-3.448 0.369,-4.364 6.24,-1.987 11.792,-6.928 3.934,-9.237 -0.77,-0.226 -1.581,-0.322 -2.428,-0.322 -3.254,0 -7.05,1.413 -11.227,2.272 -1.105,0.228 -1.906,0.661 -2.418,1.214 -0.058,-0.164 -0.114,-0.306 -0.167,-0.425 -0.052,-0.117 -0.079,-0.172 -0.084,-0.172 -0.011,0 0.07,0.228 0.221,0.631 -1.197,1.334 -0.738,3.347 1.168,4.87 0.471,2.95 0.708,6.399 0.126,8.713 -1.685,-1.166 -2.881,-1.642 -3.952,-1.642 -1.857,0 -3.339,1.432 -6.352,3.185 -3.2,1.864 -6.254,2.698 -8.563,2.698 -1.133,0 -2.087,-0.201 -2.791,-0.579 -0.095,-0.052 -0.193,-0.076 -0.291,-0.076 -1.016,0 -2.079,2.62 -1.153,5.24 0.238,0.674 0.608,1.348 1.144,1.977 l 10e-4,0.001 c 0.005,0.006 0.011,0.012 0.016,0.018 0.003,0.005 0.007,0.009 0.01,0.013 0.001,0 0.002,0.001 0.002,0.002 0.19,0.22 0.4,0.434 0.632,0.64 -5.08,1.972 -10.06,3.897 -16.707,7.49 -10.754,5.813 -21.486,17.928 -27.945,19.191 z m 69.999,-38.072 c -0.844,-2.138 -2.097,-5.319 -3.201,-8.138 0.44,0.253 0.931,0.482 1.47,0.681 0.001,0 0.002,0.001 0.003,0.001 0.007,0.003 0.015,0.005 0.022,0.008 0.002,0.001 0.005,0.002 0.008,0.003 0.008,0.003 0.016,0.006 0.024,0.009 0.007,0.002 0.014,0.005 0.021,0.007 0.004,0.002 0.008,0.003 0.012,0.004 0.007,0.003 0.014,0.005 0.021,0.008 0.003,10e-4 0.006,0.002 0.009,0.003 0.021,0.007 0.042,0.015 0.064,0.022 l 0.001,0.001 c 0.544,0.189 1.137,0.347 1.777,0.465 0.001,10e-4 0.003,10e-4 0.004,10e-4 0.026,0.005 0.051,0.009 0.076,0.014 0.002,0 0.005,10e-4 0.007,10e-4 0.01,0.002 0.02,0.004 0.03,0.006 0.003,0 0.007,0.001 0.009,0.001 0.013,0.002 0.025,0.004 0.037,0.007 0.471,0.081 0.977,0.119 1.506,0.119 0.691,0 1.421,-0.065 2.17,-0.186 0,-10e-4 10e-4,-10e-4 10e-4,-10e-4 0.007,-0.001 0.014,-0.002 0.02,-0.003 0.002,0 0.004,-0.001 0.005,-0.001 0.005,-0.001 0.008,-0.001 0.012,-0.002 0.794,-0.13 1.606,-0.323 2.411,-0.566 l -3.312,5.983 c -1.048,0.525 -2.117,1.039 -3.207,1.553 z" style="fill:#6f3923;fill-rule:nonzero" id="path18-2"/>
        <path d="m 193.494,112.983 c -8.884,7.451 -16.451,3.738 -28.627,3.738 -12.176,0 -16.453,9.544 -23.035,16.672 -6.582,7.131 -33.562,11.957 -46.069,16.564 -12.504,4.607 -7.568,18.756 -7.239,12.834 0.33,-5.924 19.746,-17.441 36.525,-17.77 16.783,-0.329 24.023,-17.77 31.92,-21.939 7.898,-4.171 21.06,-2.411 28.629,-2.083 7.569,0.329 22.048,-18.427 22.048,-18.427 3.336,-4.046 -5.265,2.961 -14.152,10.411 z" style="fill:#37302b;fill-rule:nonzero" id="path20-29"/>
        <path d="m 59.943,155.933 c -1.541,0 -2.924,-0.331 -4.112,-0.932 1.509,0.274 3.108,0.51 4.728,0.915 -0.208,0.012 -0.413,0.017 -0.616,0.017 z" style="fill:#5b3f25;fill-rule:nonzero" id="path22-3"/>
        <path d="m 60.559,155.916 c -1.62,-0.405 -3.219,-0.641 -4.728,-0.915 -4.569,-2.314 -6.234,-8.624 -2.811,-15.433 0.221,-0.44 0.435,-0.856 0.644,-1.248 0.649,2.547 2.742,5.086 6.088,5.998 10e-4,0 0.002,0 0.003,10e-4 0.007,0.002 0.014,0.003 0.022,0.005 0.005,0.002 0.01,0.003 0.016,0.005 0.005,0.001 0.011,0.003 0.017,0.004 0.011,0.003 0.022,0.006 0.034,0.009 0.471,0.124 0.977,0.182 1.506,0.182 3.201,0.001 7.263,-2.137 9.925,-4.903 1.185,1.255 3.87,2.492 6.237,2.492 0.561,0 1.104,-0.069 1.605,-0.225 3.178,-0.984 3.868,-6.89 8.297,-7.187 4.431,-0.296 11.776,-1.696 11.745,-4.489 -0.017,-1.632 -3.445,-2.512 -7.118,-2.512 -1.255,0 -2.539,0.102 -3.726,0.313 7.952,-2.75 11.813,-7.584 17.684,-15.101 6.708,-8.584 10.57,-10.826 19.971,-10.826 2.13,0 4.546,0.115 7.342,0.297 2.846,0.186 5.181,0.302 7.163,0.302 3.094,0 5.33,-0.282 7.315,-1.021 0.103,0.12 0.173,0.253 0.206,0.404 0.327,1.492 3.83,3.472 6.826,3.472 0.562,0 1.106,-0.069 1.608,-0.225 3.176,-0.984 3.866,-6.89 8.295,-7.185 4.431,-0.296 11.775,-1.696 11.745,-4.491 -0.017,-1.632 -3.446,-2.512 -7.12,-2.512 -2.62,0 -5.365,0.447 -7.086,1.389 0,0 -0.459,1.902 -1.985,3.518 0.65,-1.632 0.803,-3.533 0.678,-5.076 7.502,-6.871 13.84,-9.884 20.981,-9.884 1.827,0 3.707,0.197 5.671,0.577 10.2,1.975 6.606,7.527 3.619,10.86 -8,8.922 -17.77,11.846 -29.617,17.769 -11.845,5.924 -18.427,6.91 -30.603,13.492 -11.354,6.138 -22.685,19.301 -28.988,19.3 -0.455,0 -0.885,-0.069 -1.286,-0.214 -1.841,-0.666 -3.711,-0.957 -5.594,-0.957 -12.066,0 -24.602,11.954 -32.541,13.727 -0.705,0.157 -1.385,0.252 -2.04,0.288 z m 22.408,-23.309 c 0.42,-1.052 0.632,-2.216 0.697,-3.324 0.574,-0.122 1.13,-0.25 1.669,-0.386 -0.132,0.062 -0.259,0.126 -0.381,0.192 0,0 -0.459,1.903 -1.985,3.518 z" style="fill:#6f3923;fill-rule:nonzero" id="path24-6"/>
        <path d="m 151.41,89.102 c -8.884,7.45 -16.453,3.736 -28.629,3.736 -12.174,0 -16.453,9.545 -23.034,16.674 -6.582,7.132 -33.564,11.956 -46.067,16.564 -12.505,4.606 -7.57,18.757 -7.241,12.833 0.329,-5.923 19.744,-17.441 36.526,-17.769 16.782,-0.331 24.023,-17.77 31.92,-21.939 7.898,-4.171 21.059,-2.412 28.628,-2.084 7.569,0.33 22.048,-18.428 22.048,-18.428 3.336,-4.045 -5.264,2.962 -14.151,10.413 z" style="fill:#37302b;fill-rule:nonzero" id="path26-1"/>
        <path d="m 20.099,133.738 c -1.715,0 -3.267,-0.268 -4.565,-0.795 0.048,0 0.096,10e-4 0.145,10e-4 0.486,0 0.991,-0.013 1.516,-0.04 0.02,-0.001 0.041,-0.002 0.061,-0.003 0.005,0 0.011,0 0.016,-0.001 0.018,-0.001 0.037,-0.002 0.055,-0.003 h 0.006 c 0.021,-0.001 0.043,-0.002 0.064,-0.003 0.002,-0.001 0.003,-0.001 0.005,-0.001 0.02,-0.001 0.04,-0.002 0.061,-0.003 h 0.005 c 0.044,-0.003 0.088,-0.006 0.132,-0.008 h 10e-4 c 15.883,-0.958 15.838,-10.212 10.454,-13.964 -1.718,-1.197 -2.93,-1.685 -4.013,-1.685 -1.858,0 -3.34,1.433 -6.353,3.187 -1.811,1.053 -3.575,1.778 -5.184,2.209 0.156,-0.366 0.329,-0.741 0.522,-1.125 4.797,-9.543 16.042,1.013 25.186,-13.544 3.241,-5.162 5.549,-6.119 7.691,-6.119 0.631,0 1.248,0.083 1.869,0.166 0.622,0.083 1.249,0.166 1.9,0.166 1.963,0 4.15,-0.753 7.097,-4.525 8.226,-10.53 27.84,-8.887 38.372,-17.658 11.654,-9.708 31.718,-0.279 41.92,-10.15 6.461,-6.254 7.706,-8.084 10.344,-8.084 1.527,0 3.52,0.613 7.258,1.336 2.72,0.527 4.714,1.85 5.903,3.639 -0.05,-0.015 -0.1,-0.03 -0.151,-0.045 -0.771,-0.227 -1.582,-0.323 -2.43,-0.323 -3.254,0 -7.05,1.413 -11.226,2.273 -4.436,0.912 -3.967,5.131 0.421,7.151 0.007,0.003 0.013,0.005 0.019,0.008 0.003,0.001 0.005,0.002 0.007,0.003 0.439,0.201 0.917,0.379 1.433,0.531 0.596,2.262 1.231,5.923 1.215,9.056 -2.596,1.152 -4.814,1.525 -6.861,1.525 -1.88,0 -3.616,-0.315 -5.368,-0.629 -1.751,-0.315 -3.519,-0.629 -5.463,-0.629 -2.502,0 -5.296,0.521 -8.724,2.235 -11.845,5.923 -17.69,4.987 -26.36,16.01 -5.359,6.814 -15.21,12.436 -23.287,15.157 -1.034,-2.632 -2.045,-5.221 -2.621,-6.726 -0.143,-0.488 -0.28,-0.883 -0.401,-1.154 -0.052,-0.117 -0.08,-0.173 -0.085,-0.173 -0.015,0 0.169,0.5 0.486,1.327 0.487,1.665 1.043,4.425 1.269,7.16 -2.836,0.862 -5.394,1.333 -7.38,1.333 -0.985,0 -1.83,-0.116 -2.497,-0.358 -1.84,-0.666 -3.71,-0.957 -5.593,-0.957 -12.066,0 -24.603,11.957 -32.546,13.727 -1.515,0.338 -2.971,0.505 -4.325,0.505 z M 151.854,84.396 c -1.144,-2.91 -2.388,-6.081 -3.145,-8.047 0.409,0.117 0.842,0.217 1.299,0.297 0.002,0 0.003,0 0.004,0.001 0.013,0.002 0.026,0.004 0.039,0.006 0.472,0.082 0.978,0.12 1.507,0.12 1.791,0 3.85,-0.44 5.783,-1.147 1.556,-0.569 3.032,-1.311 4.218,-2.135 -0.922,3.775 -4.051,7.841 -9.705,10.905 z" style="fill:#5b3127;fill-rule:nonzero" id="path28-5"/>
        <path d="m 70.208,129.206 c -3.731,-1.667 -8.392,1.316 -13.655,2.962 -5.265,1.644 -3.619,10.366 3.291,12.174 6.909,1.81 21.059,-10.366 10.364,-15.136 z" style="fill:#963c22;fill-rule:nonzero" id="path30-3"/>
        <path d="m 59.844,140.265 c -3.199,-0.838 -5.252,-3.156 -6.032,-5.569 -1.278,3.242 0.943,8.314 6.032,9.646 5.764,1.508 16.552,-6.709 13.769,-12.247 -1.897,4.715 -9.327,9.333 -13.769,8.17 z" style="fill:#37302b;fill-rule:nonzero" id="path32-4"/>
        <path d="m 59.319,138.927 c -0.154,0 -0.305,-0.005 -0.452,-0.015 -4.391,-0.313 -4.376,-4.967 -1.285,-4.967 0.143,0 0.294,0.01 0.451,0.031 0.142,0.019 0.279,0.028 0.413,0.028 1.314,0 2.237,-0.884 3.13,-1.767 0.892,-0.884 1.756,-1.767 2.953,-1.767 0.48,0 1.015,0.143 1.627,0.485 -2.168,1.287 -3.97,3.352 -2.959,4.633 0.493,0.624 1.448,0.974 2.516,1.229 -1.841,1.243 -4.395,2.11 -6.394,2.11 z" style="fill:#b15929;fill-rule:nonzero" id="path34-7"/>
        <path d="m 225.906,111.905 c -3.731,-1.095 -8.39,0.867 -13.655,1.95 -5.265,1.085 -3.621,6.826 3.29,8.021 6.91,1.191 21.061,-6.828 10.365,-9.971 z" style="fill:#963c22;fill-rule:nonzero" id="path36-1"/>
        <path d="m 215.541,119.189 c -3.198,-0.552 -5.253,-2.079 -6.031,-3.668 -1.279,2.136 0.944,5.476 6.031,6.355 5.764,0.994 16.554,-4.421 13.772,-8.066 -1.901,3.104 -9.328,6.146 -13.772,5.379 z" style="fill:#37302b;fill-rule:nonzero" id="path38-0"/>
        <path d="m 215.019,118.308 c -0.155,0 -0.306,-0.004 -0.453,-0.011 -4.394,-0.205 -4.377,-3.27 -1.287,-3.27 0.144,0 0.295,0.007 0.452,0.021 0.142,0.012 0.279,0.018 0.412,0.018 1.315,0 2.238,-0.582 3.131,-1.164 0.893,-0.582 1.756,-1.164 2.953,-1.164 0.508,0 1.076,0.105 1.731,0.359 5.415,2.099 -2.273,5.211 -6.939,5.211 z" style="fill:#b15929;fill-rule:nonzero" id="path40-2"/>
        <path d="m 160.416,66.686 c -3.731,-1.097 -8.393,0.866 -13.656,1.95 -5.266,1.083 -3.62,6.826 3.291,8.017 6.909,1.192 21.059,-6.826 10.365,-9.967 z" style="fill:#963c22;fill-rule:nonzero" id="path42-0"/>
        <path d="m 150.051,73.97 c -3.2,-0.552 -5.255,-2.081 -6.033,-3.668 -1.277,2.134 0.945,5.475 6.033,6.351 5.765,0.995 16.552,-4.418 13.77,-8.065 -1.901,3.106 -9.328,6.147 -13.77,5.382 z" style="fill:#37302b;fill-rule:nonzero" id="path44-6"/>
        <path d="m 149.526,73.087 c -0.154,0 -0.306,-0.004 -0.454,-0.011 -4.391,-0.204 -4.375,-3.27 -1.283,-3.27 0.144,0 0.295,0.007 0.452,0.021 0.142,0.012 0.28,0.018 0.413,0.018 1.314,0 2.236,-0.582 3.129,-1.163 0.892,-0.582 1.755,-1.164 2.951,-1.164 0.508,0 1.077,0.105 1.733,0.36 5.415,2.096 -2.273,5.209 -6.941,5.209 z" style="fill:#b15929;fill-rule:nonzero" id="path46-62"/>
        <path d="m 211.16,155.517 c -4.663,-3.249 -5.593,-1.276 -10.365,1.5 -4.772,2.777 -9.213,3.27 -11.353,2.12 -1.083,-0.583 -2.462,2.29 -1.446,5.164 0.991,2.803 4.26,5.607 12.304,5.201 16.29,-0.824 16.29,-10.201 10.86,-13.985 z" style="fill:#963c22;fill-rule:nonzero" id="path48-1"/>
        <path d="m 200.3,166.704 c -8.665,0.439 -11.79,-2.852 -12.493,-5.85 -0.778,3.135 0.881,9.234 12.493,8.648 11.624,-0.588 14.949,-5.532 13.929,-9.689 -0.842,3.322 -4.856,6.433 -13.929,6.891 z" style="fill:#37302b;fill-rule:nonzero" id="path50-9"/>
        <path d="m 198.621,163.074 c -4.59,0 -3.872,-2.295 0.363,-3.115 3.716,-0.719 4.987,-2.573 6.358,-2.573 0.511,0 1.036,0.258 1.706,0.927 0,0 3.289,3.126 -4.937,4.442 -1.395,0.223 -2.553,0.319 -3.49,0.319 z" style="fill:#b15929;fill-rule:nonzero" id="path52-1"/>
        <path d="m 146.299,143.532 c -4.662,-3.249 -5.594,-1.274 -10.365,1.503 -4.772,2.776 -9.213,3.269 -11.354,2.117 -1.082,-0.583 -2.459,2.291 -1.444,5.164 0.991,2.804 4.259,5.608 12.303,5.202 16.292,-0.824 16.292,-10.201 10.86,-13.986 z" style="fill:#963c22;fill-rule:nonzero" id="path54-6"/>
        <path d="m 135.439,154.72 c -8.665,0.438 -11.789,-2.85 -12.494,-5.851 -0.777,3.136 0.886,9.235 12.494,8.649 11.625,-0.587 14.951,-5.53 13.93,-9.691 -0.842,3.322 -4.857,6.436 -13.93,6.893 z" style="fill:#37302b;fill-rule:nonzero" id="path56-0"/>
        <path d="m 133.759,151.09 c -4.588,0 -3.87,-2.295 0.364,-3.115 3.717,-0.72 4.988,-2.574 6.358,-2.574 0.51,0 1.035,0.258 1.705,0.928 0,0 3.291,3.127 -4.937,4.441 -1.395,0.224 -2.553,0.32 -3.49,0.32 z" style="fill:#b15929;fill-rule:nonzero" id="path58-5"/>
        <path d="m 211.158,128.729 c -4.661,-3.249 -5.594,-1.275 -10.365,1.5 -4.77,2.778 -9.215,3.27 -11.354,2.119 -1.082,-0.583 -2.46,2.29 -1.444,5.164 0.991,2.804 4.261,5.608 12.305,5.201 16.287,-0.823 16.287,-10.201 10.858,-13.984 z" style="fill:#963c22;fill-rule:nonzero" id="path60-87"/>
        <path d="m 200.3,139.917 c -8.667,0.438 -11.79,-2.852 -12.494,-5.852 -0.778,3.137 0.882,9.235 12.494,8.648 11.623,-0.587 14.949,-5.529 13.929,-9.689 -0.842,3.322 -4.86,6.434 -13.929,6.893 z" style="fill:#37302b;fill-rule:nonzero" id="path62-2"/>
        <path d="m 198.624,136.286 c -4.596,0 -3.879,-2.296 0.359,-3.116 3.716,-0.718 4.987,-2.573 6.357,-2.573 0.51,0 1.035,0.258 1.705,0.928 0,0 0.89,0.845 0.588,1.842 -1.442,0.299 -3.173,1.271 -4.372,2.391 -0.356,0.074 -0.739,0.144 -1.152,0.21 -1.392,0.223 -2.549,0.318 -3.485,0.318 z" style="fill:#b15929;fill-rule:nonzero" id="path64-8"/>
        <path d="m 28.055,118.918 c -4.662,-3.249 -5.595,-1.274 -10.366,1.502 -4.773,2.775 -9.213,3.271 -11.353,2.116 -1.083,-0.582 -2.46,2.292 -1.445,5.166 0.991,2.804 4.26,5.608 12.304,5.202 16.289,-0.824 16.289,-10.202 10.86,-13.986 z" style="fill:#963c22;fill-rule:nonzero" id="path66-8"/>
        <path d="m 17.195,130.106 c -8.667,0.439 -11.789,-2.851 -12.493,-5.849 -0.779,3.134 0.885,9.233 12.493,8.647 11.624,-0.588 14.95,-5.531 13.929,-9.691 -0.841,3.323 -4.856,6.436 -13.929,6.893 z" style="fill:#37302b;fill-rule:nonzero" id="path68-9"/>
        <path d="m 15.52,126.476 c -4.593,0 -3.877,-2.295 0.359,-3.116 3.716,-0.72 4.987,-2.572 6.358,-2.572 0.51,0 1.035,0.257 1.705,0.927 0,0 3.289,3.125 -4.936,4.443 -1.393,0.223 -2.55,0.318 -3.486,0.318 z" style="fill:#b15929;fill-rule:nonzero" id="path70-0"/>
        <path d="m 127.19,201.028 c -1.206,-0.384 2.193,2.303 4.882,4.882 2.686,2.575 3.618,7.129 3.618,7.129 1.537,2.851 2.359,1.535 1.097,-3.126 -1.263,-4.662 -8.393,-8.502 -9.597,-8.885 z" style="fill:#91c961;fill-rule:nonzero" id="path72-0"/>
        <path d="m 141.778,212.27 c 0,0 4.057,-5.537 3.291,-12.888 z" style="fill:#91c961;fill-rule:nonzero" id="path74-7"/>
        <path d="m 147.373,210.515 c -1.427,2.358 3.947,1.755 3.345,-8.663 0,0 -1.919,6.304 -3.345,8.663 z" style="fill:#91c961;fill-rule:nonzero" id="path76-6"/>
        <path d="m 78.695,92.084 c 0,0 14.675,-14.232 17.351,-18.838 2.679,-4.608 -5.386,-0.525 -6.946,0.94 -1.562,1.463 0.436,-4.015 2.42,-7.838 1.987,-3.823 -2.726,1.022 -7.2,7.905 -4.476,6.882 -5.662,2.398 -1.04,-3.923 4.622,-6.322 10.614,-15.404 8.921,-13.306 -1.696,2.099 -6.864,6.915 -5.011,3.725 1.854,-3.19 9.484,-10.606 6.755,-9.584 -2.726,1.021 -11.608,9.37 -13.052,11.85 -1.441,2.482 1.736,-4.206 2.321,-7.659 0.586,-3.454 -2.077,2.349 -3.089,5.316 -1.016,2.967 1.991,-8.326 0.82,-11.612 -1.17,-3.288 -1.64,-1.665 -2.006,-0.219 -0.367,1.447 -1.144,-4.963 -2.021,-7.944 -0.874,-2.982 -2.989,-5.871 -2.777,-3.378 0.213,2.492 3.027,10.293 2.601,12.654 -0.424,2.361 -3.468,-1.78 -4.976,-4.078 -1.509,-2.3 -0.055,3.761 2.208,7.209 2.262,3.45 3.006,6.251 1.29,4.305 -1.714,-1.943 -7.417,-7.63 -6.572,-5.003 0.844,2.623 5.843,11.967 3.811,9.345 -2.031,-2.621 -4.495,-2.868 -3.146,0.523 1.346,3.389 8.769,13.867 6.199,10.951 -2.572,-2.917 -14.609,-18.684 -13.974,-14.997 0.634,3.687 6.546,11.865 9.473,14.991 2.927,3.121 -5.478,-1.999 -7.957,-3.441 -2.481,-1.442 4.229,7.91 7.384,9.981 3.153,2.069 4.122,8.56 6.442,11.095 2.321,2.533 1.771,1.03 1.771,1.03 z" style="fill:#438941;fill-rule:nonzero" id="path78-2"/>
        <path d="m 83.801,119.476 c 0,0 5.841,-20.599 16.449,-25.21 10.604,-4.612 17.829,-16.141 14.602,-12.913 -3.228,3.229 -7.841,6.918 -10.762,7.38 -2.919,0.459 6.611,-4.151 8.147,-6.764 1.537,-2.613 -2.765,0 -7.223,1.691 -4.458,1.69 9.684,-14.297 11.681,-18.448 1.998,-4.148 -3.535,-1.536 -7.223,5.382 -3.691,6.916 -5.073,4.303 -3.997,1.076 1.075,-3.229 -1.538,-3.229 -3.689,3.843 -2.152,7.07 -3.69,5.994 -3.227,3.996 0.459,-1.999 -3.999,-0.616 -4.614,4.919 -0.615,5.534 -2.46,5.534 -2.46,3.228 0,-2.306 -2.919,3.075 -3.381,9.223 -0.46,6.147 -6.455,18.598 -6.764,25.363 -0.307,6.763 -0.344,4.944 2.461,-2.766 z" style="fill:#438941;fill-rule:nonzero" id="path80-8"/>
        <path d="m 72.4,119.476 c 0,0 -5.84,-20.599 -16.447,-25.21 -10.605,-4.612 -17.83,-16.141 -14.601,-12.913 3.228,3.229 7.839,6.918 10.76,7.38 2.921,0.459 -6.611,-4.151 -8.148,-6.764 -1.537,-2.613 2.767,0 7.225,1.691 4.459,1.69 -9.683,-14.297 -11.682,-18.448 -1.999,-4.148 3.535,-1.536 7.224,5.382 3.689,6.916 5.074,4.303 3.996,1.076 -1.075,-3.229 1.538,-3.229 3.69,3.843 2.152,7.07 3.691,5.994 3.229,3.996 -0.462,-1.999 3.997,-0.616 4.61,4.919 0.616,5.534 2.461,5.534 2.461,3.228 0,-2.306 2.92,3.075 3.382,9.223 0.461,6.147 6.455,18.598 6.762,25.363 0.308,6.763 0.347,4.944 -2.461,-2.766 z" style="fill:#438941;fill-rule:nonzero" id="path82-1"/>
        <path d="m 82.878,83.66 1.448,0.768 c 0,0 -5.37,8.608 -5.255,14.602 0.118,5.994 -1.42,30.13 -1.42,31.052 0,0.92 -1.844,-3.231 -1.844,-7.225 0,-3.998 0.769,-26.593 0,-36.739 -0.769,-10.144 7.071,-2.458 7.071,-2.458 z" style="fill:#438941;fill-rule:nonzero" id="path84-2"/>
        <path d="m 83.187,117.015 c 0,0 -1.079,5.689 0,8.301 1.074,2.613 0.921,11.221 -5.69,10.915 -6.608,-0.311 -7.871,-6.13 -5.841,-9.606 2.031,-3.474 0.073,-13.3 -0.886,-15.451 -0.958,-2.153 6.458,16.6 6.458,16.6 z" style="fill:#438941;fill-rule:nonzero" id="path86-7"/>
        <path d="m 83.111,129.313 c 0,0 -0.925,4.84 -5.614,4.458 -4.687,-0.385 -5.61,-2.361 -3.612,-2.22 1.999,0.145 5.006,-0.164 6.156,-2.238 1.146,-2.077 3.924,-2.081 3.07,0 z" style="fill:#91c961;fill-rule:nonzero" id="path88-4"/>
        <path d="m 105.091,76.741 c 0,0 -4.074,6.61 -4.612,8.763 -0.537,2.152 0.154,-4.074 0,-4.38 -0.154,-0.309 -2.691,4.534 -2.691,6.608 0,2.075 -1.92,-0.538 -2.151,-2.074 -0.231,-1.538 -1.999,4.438 -2.152,6.869 -0.155,2.43 4.995,-1.413 7.609,-3.18 2.613,-1.768 7.069,-5.227 4.611,-3.843 -2.459,1.384 -5.763,2.305 -4.611,1.153 1.152,-1.153 5.224,-5.304 3.997,-9.916 z" style="fill:#9abc3c;fill-rule:nonzero" id="path90-9"/>
        <path d="m 66.2,74.205 c 1.466,1.941 10.825,8.994 10.985,16.064 0.16,7.072 -0.851,24.055 0,22.057 0.85,-1.997 1.309,-20.059 1.886,-23.979 0.579,-3.919 -0.499,-9.914 0,-13.372 0.503,-3.46 6.038,-15.295 4.613,-13.221 -1.42,2.076 -2.574,3.975 -3.343,2.795 -0.767,-1.181 -2.229,-3.869 -2.459,-3.638 -0.231,0.228 1.458,-4.767 1.189,-7.765 -0.267,-2.997 -1.815,-2.151 -1.886,0 -0.072,2.152 -2.684,-0.614 -2.684,-0.614 0,0 2.537,3.612 2.153,7.148 -0.385,3.534 -3.305,-1.614 -4.076,-2.383 -0.767,-0.768 0.656,4.919 2.481,7.915 1.826,2.998 -5.477,-4.917 -4.784,-3.073 0.692,1.844 9.364,14.372 6.91,13.45 C 74.731,74.666 64.124,60.833 66.2,63.676 68.275,66.52 75.114,77.51 76.346,78.817 77.575,80.123 63.356,70.44 66.2,74.205 Z" style="fill:#9abc3c;fill-rule:nonzero" id="path92-6"/>
        <path d="m 45.525,71.977 c 0,0 7.917,11.143 8.838,14.141 0.921,2.999 7.073,10.454 9.917,13.143 2.843,2.69 6.433,9.914 6.404,10.3 -0.028,0.382 -3.549,-16.776 -4.861,-18.793 -1.311,-2.016 -1.85,1.096 -1.699,1.759 0.156,0.663 -2.841,-4.444 -3.841,-7.503 -1.001,-3.055 -2.509,0.095 -2.177,1.864 0.331,1.766 -1.436,-0.54 -3.127,-4.151 -1.691,-3.613 -2.922,-7.762 -2.922,-5.996 0,1.769 -7.75,-8.06 -6.532,-4.764 z" style="fill:#9abc3c;fill-rule:nonzero" id="path94-4"/>
        <path d="m 85.333,128.897 c 0.838,-0.393 1.867,-0.686 2.982,-0.884 -0.934,0.323 -1.925,0.617 -2.982,0.884 z" style="fill:#6f3923;fill-rule:nonzero" id="path96-8"/>
        <path d="m 77.512,142.113 c -2.367,0 -5.052,-1.237 -6.237,-2.492 1.293,-1.344 2.256,-2.836 2.63,-4.303 0.956,0.513 2.146,0.845 3.592,0.913 0.116,0.005 0.229,0.008 0.34,0.008 2.754,-0.001 4.324,-1.609 5.13,-3.632 1.526,-1.615 1.985,-3.518 1.985,-3.518 0.122,-0.066 0.249,-0.13 0.381,-0.192 1.057,-0.267 2.048,-0.561 2.982,-0.884 1.187,-0.211 2.471,-0.313 3.726,-0.313 3.673,0 7.101,0.88 7.118,2.512 0.031,2.793 -7.314,4.193 -11.745,4.489 -4.429,0.297 -5.119,6.203 -8.297,7.187 -0.501,0.156 -1.044,0.225 -1.605,0.225 z" style="fill:#84441d;fill-rule:nonzero" id="path98-0"/>
        <path d="m 71.275,139.621 c -0.001,-0.002 -0.002,-0.003 -0.003,-0.004 1.291,-1.344 2.252,-2.837 2.623,-4.305 0.004,0.002 0.007,0.004 0.01,0.006 -0.374,1.467 -1.337,2.959 -2.63,4.303 z m -2.267,-2.117 c -0.961,-0.26 -2.188,-0.423 -3.295,-0.687 2.456,-1.657 3.641,-3.981 0.547,-5.802 -0.035,-0.021 -0.07,-0.041 -0.104,-0.06 0.999,-0.593 2.077,-1.021 2.992,-1.129 0.182,-0.022 0.344,-0.032 0.485,-0.032 1.023,0 1.039,0.527 0.911,1.054 -0.127,0.528 -0.399,1.055 0.05,1.055 0.027,0 0.057,-0.002 0.09,-0.006 0.022,-0.003 0.046,-0.004 0.07,-0.004 0.1,0 0.209,0.025 0.328,0.07 0.265,0.813 0.703,1.578 1.331,2.231 -0.89,1.205 -2.078,2.344 -3.405,3.31 z" style="fill:#a34a24;fill-rule:nonzero" id="path100-8"/>
        <path d="m 71.272,139.617 c -0.313,-0.332 -0.52,-0.665 -0.588,-0.977 -0.124,-0.568 -0.786,-0.894 -1.676,-1.136 1.327,-0.966 2.515,-2.105 3.405,-3.31 0.411,0.427 0.903,0.806 1.482,1.118 -0.371,1.468 -1.332,2.961 -2.623,4.305 z" style="fill:#5b3f25;fill-rule:nonzero" id="path102"/>
        <path d="m 65.713,136.817 c -1.068,-0.255 -2.023,-0.605 -2.516,-1.229 -1.011,-1.281 0.791,-3.346 2.959,-4.633 0.034,0.019 0.069,0.039 0.104,0.06 3.094,1.821 1.909,4.145 -0.547,5.802 z" style="fill:#b8612a;fill-rule:nonzero" id="path104"/>
        <path d="m 77.837,136.239 c -0.111,0 -0.224,-0.003 -0.34,-0.008 -1.446,-0.068 -2.636,-0.4 -3.592,-0.913 -0.003,-0.002 -0.006,-0.004 -0.01,-0.006 -0.579,-0.312 -1.071,-0.691 -1.482,-1.118 -0.628,-0.653 -1.066,-1.418 -1.331,-2.231 0.527,0.2 1.239,0.799 2.173,1.398 1.144,0.734 2.619,1.468 4.492,1.468 0.435,0 0.892,-0.04 1.37,-0.128 1.722,-0.317 2.965,-1.157 3.85,-2.094 -0.806,2.023 -2.376,3.631 -5.13,3.632 z" style="fill:#678c3c;fill-rule:nonzero" id="path106"/>
        <path d="m 84.326,127.513 c 0,0 1.19,2.353 0,3.86 -1.194,1.506 -2.621,4.23 -7.988,3.532 -5.364,-0.696 -5.654,-3.356 -5.654,-3.356 0,0 3.016,3.054 6.501,2.608 3.486,-0.442 7.693,-3.837 7.141,-6.644 z" style="fill:#813e20;fill-rule:nonzero" id="path108"/>
        <path d="m 156.008,55.511 c 0,0 14.672,-14.231 17.348,-18.839 2.679,-4.606 -5.385,-0.522 -6.946,0.941 -1.562,1.464 0.437,-4.014 2.423,-7.836 1.984,-3.824 -2.728,1.021 -7.202,7.903 -4.477,6.883 -5.663,2.399 -1.04,-3.922 4.623,-6.321 10.614,-15.403 8.921,-13.307 -1.695,2.098 -6.863,6.917 -5.01,3.726 1.854,-3.19 9.482,-10.607 6.755,-9.585 -2.728,1.022 -11.608,9.37 -13.051,11.85 -1.443,2.483 1.732,-4.205 2.319,-7.658 0.584,-3.453 -2.078,2.349 -3.09,5.316 -1.015,2.967 1.991,-8.325 0.822,-11.611 -1.171,-3.288 -1.641,-1.666 -2.008,-0.22 -0.365,1.446 -1.143,-4.963 -2.018,-7.944 -0.875,-2.983 -2.991,-5.871 -2.778,-3.378 0.21,2.492 3.025,10.292 2.6,12.654 -0.423,2.361 -3.469,-1.78 -4.977,-4.077 -1.509,-2.3 -0.053,3.761 2.21,7.209 2.261,3.448 3.004,6.249 1.289,4.306 -1.714,-1.944 -7.417,-7.631 -6.573,-5.005 0.846,2.623 5.846,11.968 3.813,9.345 -2.032,-2.622 -4.497,-2.87 -3.149,0.523 1.349,3.39 8.772,13.868 6.2,10.951 -2.572,-2.917 -14.608,-18.685 -13.973,-14.997 0.632,3.687 6.547,11.866 9.472,14.99 2.926,3.121 -5.476,-1.999 -7.956,-3.441 -2.48,-1.442 4.228,7.911 7.383,9.981 3.152,2.071 4.122,8.562 6.443,11.095 2.32,2.535 1.773,1.03 1.773,1.03 z" style="fill:#438941;fill-rule:nonzero" id="path110"/>
        <path d="m 161.112,82.901 c 0,0 5.841,-20.597 16.448,-25.208 10.605,-4.61 17.83,-16.14 14.601,-12.912 -3.227,3.228 -7.838,6.917 -10.76,7.379 -2.919,0.46 6.611,-4.151 8.147,-6.764 1.537,-2.614 -2.767,0 -7.224,1.691 -4.457,1.69 9.684,-14.294 11.682,-18.445 1.997,-4.151 -3.534,-1.538 -7.225,5.38 -3.688,6.916 -5.072,4.303 -3.997,1.075 1.078,-3.228 -1.537,-3.228 -3.688,3.843 -2.152,7.071 -3.689,5.995 -3.227,3.997 0.459,-1.999 -3.998,-0.615 -4.612,4.919 -0.615,5.532 -2.46,5.532 -2.46,3.228 0,-2.307 -2.92,3.073 -3.381,9.222 -0.462,6.149 -6.458,18.601 -6.764,25.364 -0.306,6.762 -0.345,4.945 2.46,-2.769 z" style="fill:#438941;fill-rule:nonzero" id="path112"/>
        <path d="m 149.712,82.901 c 0,0 -5.843,-20.597 -16.447,-25.208 -10.605,-4.61 -17.831,-16.14 -14.603,-12.912 3.228,3.228 7.84,6.917 10.76,7.379 2.922,0.46 -6.608,-4.151 -8.147,-6.764 -1.537,-2.614 2.768,0 7.224,1.691 4.459,1.69 -9.683,-14.294 -11.682,-18.445 -1.998,-4.151 3.537,-1.538 7.226,5.38 3.69,6.916 5.073,4.303 3.994,1.075 -1.074,-3.228 1.539,-3.228 3.691,3.843 2.151,7.071 3.689,5.995 3.228,3.997 -0.463,-1.999 3.997,-0.615 4.611,4.919 0.616,5.532 2.459,5.532 2.459,3.228 0,-2.307 2.921,3.073 3.383,9.222 0.46,6.149 6.456,18.601 6.764,25.364 0.307,6.762 0.345,4.945 -2.461,-2.769 z" style="fill:#438941;fill-rule:nonzero" id="path114"/>
        <path d="m 160.189,47.087 1.447,0.769 c 0,0 -5.369,8.606 -5.253,14.603 0.117,5.995 -1.419,30.128 -1.419,31.05 0,0.922 -1.846,-3.228 -1.846,-7.225 0,-3.997 0.769,-26.593 0,-36.739 -0.768,-10.145 7.071,-2.458 7.071,-2.458 z" style="fill:#438941;fill-rule:nonzero" id="path116"/>
        <path d="m 160.497,80.443 c 0,0 -1.076,5.688 0,8.3 1.075,2.613 0.923,11.221 -5.688,10.916 -6.608,-0.309 -7.873,-6.129 -5.84,-9.606 2.03,-3.478 0.069,-13.299 -0.889,-15.452 -0.957,-2.15 6.459,16.603 6.459,16.603 z" style="fill:#438941;fill-rule:nonzero" id="path118"/>
        <path d="m 160.421,92.741 c 0,0 -0.924,4.841 -5.612,4.457 -4.688,-0.383 -5.61,-2.361 -3.613,-2.219 1.999,0.144 5.005,-0.165 6.155,-2.238 1.147,-2.078 3.924,-2.081 3.07,0 z" style="fill:#91c961;fill-rule:nonzero" id="path120"/>
        <path d="m 182.4,40.17 c 0,0 -4.073,6.609 -4.611,8.762 -0.538,2.152 0.154,-4.074 0,-4.382 -0.153,-0.307 -2.689,4.536 -2.689,6.61 0,2.075 -1.922,-0.537 -2.153,-2.074 -0.23,-1.539 -1.997,4.438 -2.151,6.868 -0.154,2.431 4.995,-1.411 7.608,-3.18 2.613,-1.768 7.071,-5.227 4.612,-3.842 -2.46,1.383 -5.765,2.305 -4.612,1.152 1.153,-1.152 5.226,-5.303 3.996,-9.914 z" style="fill:#9abc3c;fill-rule:nonzero" id="path122"/>
        <path d="m 143.51,37.634 c 1.466,1.939 10.827,8.992 10.986,16.063 0.16,7.071 -0.849,24.057 0,22.057 0.851,-1.999 1.309,-20.058 1.887,-23.98 0.577,-3.918 -0.501,-9.914 0,-13.372 0.501,-3.459 6.037,-15.294 4.614,-13.221 -1.423,2.076 -2.575,3.977 -3.345,2.796 -0.768,-1.181 -2.228,-3.87 -2.458,-3.64 -0.23,0.23 1.457,-4.765 1.189,-7.763 -0.268,-2.998 -1.815,-2.151 -1.887,0 -0.071,2.152 -2.685,-0.615 -2.685,-0.615 0,0 2.538,3.613 2.154,7.149 -0.386,3.536 -3.306,-1.614 -4.074,-2.382 -0.769,-0.77 0.656,4.917 2.479,7.916 1.824,2.996 -5.477,-4.919 -4.785,-3.075 0.692,1.845 9.364,14.372 6.911,13.451 -2.454,-0.924 -13.059,-14.758 -10.986,-11.914 2.075,2.845 8.918,13.834 10.146,15.142 1.231,1.305 -12.989,-8.379 -10.146,-4.612 z" style="fill:#9abc3c;fill-rule:nonzero" id="path124"/>
        <path d="m 122.836,35.405 c 0,0 7.916,11.143 8.839,14.14 0.923,2.999 7.072,10.455 9.916,13.144 2.843,2.69 6.432,9.915 6.405,10.298 -0.027,0.385 -3.551,-16.773 -4.863,-18.791 -1.31,-2.018 -1.851,1.095 -1.696,1.758 0.154,0.663 -2.844,-4.443 -3.843,-7.5 -1,-3.058 -2.51,0.092 -2.177,1.861 0.33,1.767 -1.436,-0.539 -3.128,-4.151 -1.69,-3.611 -2.92,-7.762 -2.92,-5.994 0,1.767 -7.752,-8.06 -6.533,-4.765 z" style="fill:#9abc3c;fill-rule:nonzero" id="path126"/>
        <path d="m 147.79,101.664 c -1.106,-1.287 -5.931,-0.938 -7.283,-2.648 -0.455,-0.576 -0.34,-1.311 0.121,-2.062 1.027,0.066 1.995,0.125 2.885,0.163 0.065,0.003 0.132,0.004 0.199,0.005 1.394,0 3.009,-0.617 4.717,-1.625 0.539,1.559 1.724,2.931 3.677,3.647 -1.469,1.149 -2.821,1.964 -4.316,2.52 z" style="fill:#6f3923;fill-rule:nonzero" id="path128"/>
        <path d="m 154.822,105.54 c -2.996,0 -6.499,-1.98 -6.826,-3.472 -0.033,-0.151 -0.103,-0.284 -0.206,-0.404 1.495,-0.556 2.847,-1.371 4.316,-2.52 0.777,0.285 1.675,0.467 2.703,0.515 0.115,0.005 0.227,0.008 0.338,0.008 2.755,-0.001 4.326,-1.61 5.132,-3.633 1.526,-1.616 1.985,-3.518 1.985,-3.518 1.721,-0.942 4.466,-1.389 7.086,-1.389 3.674,0 7.103,0.88 7.12,2.512 0.03,2.795 -7.314,4.195 -11.745,4.491 -4.429,0.295 -5.119,6.201 -8.295,7.185 -0.502,0.156 -1.046,0.225 -1.608,0.225 z" style="fill:#84441d;fill-rule:nonzero" id="path130"/>
        <path d="m 143.712,97.122 c -0.067,-0.001 -0.134,-0.002 -0.199,-0.005 -0.89,-0.038 -1.858,-0.097 -2.885,-0.163 1.036,-1.689 3.824,-3.461 5.832,-3.7 0.183,-0.022 0.345,-0.032 0.487,-0.032 1.021,0 1.037,0.527 0.909,1.054 -0.128,0.527 -0.399,1.054 0.049,1.054 0.028,0 0.058,-0.002 0.091,-0.006 0.023,-0.003 0.046,-0.004 0.07,-0.004 0.1,0 0.208,0.025 0.327,0.07 0.011,0.036 0.023,0.072 0.036,0.107 -1.708,1.008 -3.323,1.625 -4.717,1.625 z" style="fill:#5b3f25;fill-rule:nonzero" id="path132"/>
        <path d="m 155.147,99.667 c -0.111,0 -0.223,-0.003 -0.338,-0.008 -1.028,-0.048 -1.926,-0.23 -2.703,-0.515 -1.953,-0.716 -3.138,-2.088 -3.677,-3.647 -0.013,-0.035 -0.025,-0.071 -0.036,-0.107 0.526,0.199 1.239,0.799 2.173,1.399 1.144,0.734 2.621,1.468 4.495,1.468 0.435,0 0.891,-0.039 1.369,-0.127 1.72,-0.318 2.964,-1.159 3.849,-2.096 -0.806,2.023 -2.377,3.632 -5.132,3.633 z" style="fill:#678c3c;fill-rule:nonzero" id="path134"/>
        <path d="m 161.636,90.941 c 0,0 1.192,2.352 0,3.858 -1.194,1.507 -2.621,4.231 -7.987,3.535 -5.364,-0.697 -5.653,-3.358 -5.653,-3.358 0,0 3.015,3.055 6.5,2.611 3.486,-0.443 7.692,-3.839 7.14,-6.646 z" style="fill:#813e20;fill-rule:nonzero" id="path136"/>
        <path d="m 140.279,132.127 c 0,0 14.674,-14.232 17.352,-18.839 2.679,-4.607 -5.386,-0.523 -6.947,0.94 -1.561,1.463 0.436,-4.013 2.422,-7.837 1.987,-3.823 -2.728,1.023 -7.202,7.904 -4.475,6.882 -5.661,2.398 -1.039,-3.922 4.622,-6.321 10.614,-15.404 8.92,-13.307 -1.694,2.099 -6.864,6.915 -5.011,3.727 1.855,-3.192 9.484,-10.608 6.756,-9.586 -2.727,1.02 -11.609,9.37 -13.052,11.85 -1.441,2.482 1.734,-4.205 2.319,-7.659 0.587,-3.453 -2.075,2.35 -3.088,5.317 -1.015,2.968 1.993,-8.325 0.82,-11.611 -1.17,-3.29 -1.64,-1.666 -2.005,-0.221 -0.367,1.447 -1.145,-4.962 -2.021,-7.944 -0.873,-2.982 -2.988,-5.87 -2.776,-3.377 0.212,2.491 3.024,10.292 2.6,12.654 -0.424,2.361 -3.468,-1.78 -4.976,-4.079 -1.509,-2.299 -0.056,3.762 2.207,7.208 2.263,3.45 3.007,6.252 1.29,4.308 -1.713,-1.945 -7.416,-7.632 -6.572,-5.005 0.844,2.624 5.845,11.967 3.812,9.345 -2.03,-2.621 -4.494,-2.868 -3.147,0.523 1.347,3.389 8.769,13.868 6.2,10.952 -2.572,-2.918 -14.609,-18.685 -13.975,-14.998 0.633,3.688 6.547,11.867 9.475,14.99 2.925,3.122 -5.479,-1.998 -7.958,-3.44 -2.481,-1.443 4.228,7.908 7.384,9.981 3.153,2.071 4.123,8.561 6.442,11.095 2.321,2.534 1.77,1.031 1.77,1.031 z" style="fill:#438941;fill-rule:nonzero" id="path138"/>
        <path d="m 145.385,159.517 c 0,0 5.842,-20.598 16.449,-25.211 10.604,-4.61 17.829,-16.138 14.602,-12.91 -3.228,3.228 -7.839,6.917 -10.762,7.378 -2.919,0.46 6.612,-4.15 8.149,-6.764 1.536,-2.611 -2.767,0 -7.225,1.69 -4.456,1.693 9.684,-14.293 11.682,-18.444 1.999,-4.15 -3.535,-1.538 -7.224,5.379 -3.689,6.917 -5.072,4.305 -3.996,1.077 1.075,-3.228 -1.537,-3.228 -3.69,3.842 -2.152,7.073 -3.69,5.995 -3.228,3.996 0.463,-1.998 -3.998,-0.614 -4.612,4.918 -0.615,5.535 -2.461,5.535 -2.461,3.229 0,-2.304 -2.919,3.075 -3.381,9.223 -0.458,6.148 -6.456,18.6 -6.762,25.364 -0.307,6.764 -0.346,4.944 2.459,-2.767 z" style="fill:#438941;fill-rule:nonzero" id="path140"/>
        <path d="m 133.985,159.517 c 0,0 -5.84,-20.598 -16.448,-25.211 -10.603,-4.61 -17.829,-16.138 -14.601,-12.91 3.227,3.228 7.839,6.917 10.761,7.378 2.921,0.46 -6.611,-4.15 -8.148,-6.764 -1.536,-2.611 2.767,0 7.225,1.69 4.46,1.693 -9.685,-14.293 -11.683,-18.444 -1.998,-4.15 3.536,-1.538 7.225,5.379 3.688,6.917 5.074,4.305 3.997,1.077 -1.078,-3.228 1.538,-3.228 3.688,3.842 2.152,7.073 3.691,5.995 3.228,3.996 -0.459,-1.998 3.999,-0.614 4.613,4.918 0.613,5.535 2.46,5.535 2.46,3.229 0,-2.304 2.92,3.075 3.382,9.223 0.462,6.148 6.456,18.6 6.762,25.364 0.306,6.764 0.345,4.944 -2.461,-2.767 z" style="fill:#438941;fill-rule:nonzero" id="path142"/>
        <path d="m 144.464,123.7 1.445,0.768 c 0,0 -5.368,8.61 -5.251,14.604 0.116,5.998 -1.422,30.129 -1.422,31.051 0,0.922 -1.844,-3.229 -1.844,-7.224 0,-3.996 0.768,-26.593 0,-36.739 -0.77,-10.142 7.072,-2.46 7.072,-2.46 z" style="fill:#438941;fill-rule:nonzero" id="path144"/>
        <path d="m 144.771,157.058 c 0,0 -1.077,5.688 0,8.3 1.077,2.614 0.921,11.221 -5.688,10.914 -6.61,-0.308 -7.873,-6.127 -5.843,-9.602 2.033,-3.478 0.073,-13.302 -0.884,-15.454 -0.958,-2.151 6.458,16.603 6.458,16.603 z" style="fill:#438941;fill-rule:nonzero" id="path146"/>
        <path d="m 144.694,169.355 c 0,0 -0.922,4.842 -5.611,4.458 -4.689,-0.386 -5.611,-2.361 -3.612,-2.218 1.997,0.142 5.006,-0.165 6.154,-2.24 1.148,-2.075 3.926,-2.08 3.069,0 z" style="fill:#91c961;fill-rule:nonzero" id="path148"/>
        <path d="m 166.674,116.784 c 0,0 -4.074,6.609 -4.61,8.763 -0.538,2.15 0.154,-4.074 0,-4.383 -0.155,-0.307 -2.692,4.537 -2.692,6.61 0,2.075 -1.92,-0.538 -2.15,-2.073 -0.233,-1.539 -1.998,4.439 -2.152,6.868 -0.155,2.431 4.994,-1.413 7.607,-3.182 2.614,-1.766 7.073,-5.225 4.613,-3.84 -2.458,1.382 -5.764,2.304 -4.613,1.152 1.155,-1.152 5.228,-5.303 3.997,-9.915 z" style="fill:#9abc3c;fill-rule:nonzero" id="path150"/>
        <path d="m 127.784,114.249 c 1.465,1.939 10.825,8.992 10.987,16.063 0.158,7.068 -0.853,24.056 0,22.056 0.849,-1.997 1.307,-20.057 1.887,-23.977 0.577,-3.923 -0.502,-9.916 0,-13.374 0.5,-3.46 6.035,-15.294 4.612,-13.221 -1.422,2.077 -2.574,3.975 -3.343,2.795 -0.769,-1.181 -2.231,-3.869 -2.46,-3.64 -0.231,0.231 1.457,-4.764 1.191,-7.761 -0.268,-2.998 -1.816,-2.153 -1.887,0 -0.072,2.151 -2.685,-0.615 -2.685,-0.615 0,0 2.537,3.612 2.151,7.148 -0.383,3.533 -3.304,-1.615 -4.073,-2.382 -0.769,-0.77 0.654,4.917 2.481,7.915 1.824,2.997 -5.479,-4.919 -4.786,-3.074 0.692,1.842 9.365,14.372 6.912,13.449 -2.454,-0.923 -13.062,-14.757 -10.987,-11.913 2.075,2.846 8.915,13.834 10.146,15.141 1.229,1.306 -12.988,-8.378 -10.146,-4.61 z" style="fill:#9abc3c;fill-rule:nonzero" id="path152"/>
        <path d="m 107.109,112.019 c 0,0 7.918,11.144 8.84,14.141 0.921,3 7.072,10.455 9.915,13.143 2.843,2.692 6.433,9.915 6.406,10.297 -0.027,0.386 -3.55,-16.771 -4.862,-18.789 -1.31,-2.017 -1.852,1.095 -1.699,1.758 0.155,0.661 -2.844,-4.444 -3.843,-7.503 -0.999,-3.056 -2.508,0.095 -2.175,1.863 0.331,1.768 -1.436,-0.538 -3.127,-4.15 -1.692,-3.611 -2.921,-7.762 -2.921,-5.995 0,1.768 -7.751,-8.06 -6.534,-4.765 z" style="fill:#9abc3c;fill-rule:nonzero" id="path154"/>
        <path d="m 136.416,181.704 c -1.787,-0.571 -3.368,-1.596 -3.942,-2.538 1.458,-1.051 3.128,-2.099 4.958,-3.104 0.508,0.11 1.058,0.182 1.651,0.21 0.116,0.005 0.23,0.008 0.341,0.008 2.711,0 4.275,-1.56 5.091,-3.539 4.797,-1.899 10.082,-3.333 15.247,-3.832 0.614,0.366 0.978,0.816 0.983,1.344 0.03,2.795 -7.315,4.196 -11.747,4.49 -2.596,0.173 -3.908,2.276 -5.189,4.184 -3.583,0.366 -5.627,0.957 -7.393,2.777 z m -8.152,-4.639 c -1.43,-0.278 -2.844,-0.627 -3.483,-1.437 -1.477,-1.87 3.052,-5.414 5.952,-5.758 0.183,-0.022 0.345,-0.032 0.487,-0.032 1.021,0 1.037,0.527 0.909,1.053 -0.127,0.527 -0.398,1.053 0.049,1.053 0.028,0 0.058,-0.002 0.092,-0.006 0.022,-0.003 0.045,-0.004 0.069,-0.004 0.1,0 0.208,0.024 0.326,0.069 0.194,0.595 0.48,1.165 0.866,1.684 -2.308,0.863 -4.016,2.052 -5.267,3.378 z m 18.051,-7.254 c 0.159,-0.415 0.223,-0.68 0.223,-0.68 1.722,-0.942 4.466,-1.39 7.086,-1.39 0.082,0 0.163,10e-4 0.245,0.002 -2.552,0.708 -5.101,1.395 -7.554,2.068 z" style="fill:#6f3923;fill-rule:nonzero" id="path156"/>
        <path d="m 139.098,182.156 c -0.881,0 -1.806,-0.172 -2.682,-0.452 1.766,-1.82 3.81,-2.411 7.393,-2.777 -0.904,1.347 -1.792,2.597 -3.107,3.004 -0.501,0.155 -1.043,0.225 -1.604,0.225 z" style="fill:#84441d;fill-rule:nonzero" id="path158"/>
        <path d="m 132.474,179.166 c -0.1,-0.165 -0.17,-0.328 -0.204,-0.485 -0.22,-1.006 -2.127,-1.25 -4.006,-1.616 1.251,-1.326 2.959,-2.515 5.267,-3.378 0.825,1.108 2.103,1.983 3.901,2.375 -1.83,1.005 -3.5,2.053 -4.958,3.104 z m 12.041,-6.425 c 0.013,-0.031 0.026,-0.062 0.038,-0.093 0.957,-1.013 1.495,-2.139 1.762,-2.837 2.453,-0.673 5.002,-1.36 7.554,-2.068 2.394,0.025 4.654,0.426 5.893,1.166 -5.165,0.499 -10.45,1.933 -15.247,3.832 z" style="fill:#5b3f25;fill-rule:nonzero" id="path160"/>
        <path d="m 139.424,176.28 c -0.111,0 -0.225,-0.003 -0.341,-0.008 -0.593,-0.028 -1.143,-0.1 -1.651,-0.21 -1.798,-0.392 -3.076,-1.267 -3.901,-2.375 -0.386,-0.519 -0.672,-1.089 -0.866,-1.684 0.527,0.199 1.24,0.799 2.174,1.399 1.144,0.735 2.62,1.469 4.493,1.469 0.435,0 0.891,-0.04 1.37,-0.128 1.722,-0.318 2.966,-1.158 3.851,-2.095 -0.012,0.031 -0.025,0.062 -0.038,0.093 -0.816,1.979 -2.38,3.539 -5.091,3.539 z" style="fill:#678c3c;fill-rule:nonzero" id="path162"/>
        <path d="m 145.909,167.558 c 0,0 1.193,2.349 0,3.855 -1.192,1.507 -2.62,4.233 -7.985,3.535 -5.365,-0.698 -5.654,-3.356 -5.654,-3.356 0,0 3.015,3.052 6.501,2.61 3.484,-0.444 7.691,-3.84 7.138,-6.644 z" style="fill:#813e20;fill-rule:nonzero" id="path164"/>
        <path d="m 217.592,95.554 c 0,0 14.672,-14.233 17.35,-18.838 2.677,-4.608 -5.385,-0.524 -6.948,0.941 -1.561,1.464 0.437,-4.015 2.423,-7.838 1.986,-3.824 -2.727,1.022 -7.202,7.903 -4.476,6.884 -5.662,2.398 -1.039,-3.921 4.622,-6.322 10.614,-15.404 8.92,-13.308 -1.695,2.098 -6.863,6.917 -5.009,3.727 1.853,-3.19 9.483,-10.607 6.755,-9.586 -2.729,1.022 -11.608,9.372 -13.052,11.852 -1.442,2.481 1.734,-4.207 2.319,-7.659 0.585,-3.454 -2.078,2.348 -3.089,5.315 -1.015,2.967 1.992,-8.325 0.821,-11.611 -1.171,-3.288 -1.64,-1.666 -2.008,-0.22 -0.364,1.448 -1.143,-4.963 -2.017,-7.944 -0.875,-2.983 -2.99,-5.87 -2.778,-3.378 0.211,2.493 3.024,10.293 2.6,12.654 -0.424,2.361 -3.468,-1.779 -4.977,-4.077 -1.51,-2.3 -0.053,3.76 2.209,7.208 2.261,3.449 3.004,6.25 1.288,4.307 -1.712,-1.945 -7.416,-7.631 -6.571,-5.006 0.846,2.624 5.846,11.969 3.813,9.347 -2.033,-2.623 -4.496,-2.871 -3.149,0.523 1.348,3.389 8.772,13.868 6.2,10.95 -2.571,-2.915 -14.607,-18.683 -13.972,-14.996 0.632,3.687 6.546,11.865 9.472,14.99 2.925,3.122 -5.477,-1.999 -7.957,-3.44 -2.481,-1.444 4.228,7.909 7.382,9.98 3.154,2.07 4.123,8.559 6.444,11.095 2.321,2.534 1.772,1.03 1.772,1.03 z" style="fill:#438941;fill-rule:nonzero" id="path166"/>
        <path d="m 222.696,122.945 c 0,0 5.842,-20.597 16.448,-25.21 10.606,-4.611 17.83,-16.139 14.602,-12.912 -3.228,3.228 -7.839,6.918 -10.76,7.38 -2.919,0.459 6.612,-4.152 8.148,-6.765 1.537,-2.613 -2.768,0 -7.225,1.691 -4.457,1.692 9.684,-14.294 11.683,-18.446 1.997,-4.149 -3.536,-1.537 -7.226,5.381 -3.688,6.917 -5.073,4.304 -3.995,1.076 1.075,-3.229 -1.538,-3.229 -3.691,3.841 -2.15,7.072 -3.689,5.995 -3.228,3.998 0.462,-1.998 -3.997,-0.615 -4.61,4.919 -0.615,5.533 -2.461,5.533 -2.461,3.227 0,-2.304 -2.919,3.076 -3.38,9.223 -0.461,6.149 -6.458,18.601 -6.764,25.364 -0.307,6.765 -0.347,4.944 2.459,-2.767 z" style="fill:#438941;fill-rule:nonzero" id="path168"/>
        <path d="m 211.297,122.945 c 0,0 -5.843,-20.597 -16.448,-25.21 -10.605,-4.611 -17.83,-16.139 -14.604,-12.912 3.229,3.228 7.843,6.918 10.763,7.38 2.92,0.459 -6.61,-4.152 -8.148,-6.765 -1.536,-2.613 2.766,0 7.224,1.691 4.46,1.692 -9.684,-14.294 -11.68,-18.446 -2.001,-4.149 3.535,-1.537 7.222,5.381 3.691,6.917 5.074,4.304 3.997,1.076 -1.076,-3.229 1.539,-3.229 3.69,3.841 2.15,7.072 3.689,5.995 3.227,3.998 -0.461,-1.998 3.997,-0.615 4.613,4.919 0.615,5.533 2.458,5.533 2.458,3.227 0,-2.304 2.921,3.076 3.382,9.223 0.462,6.149 6.456,18.601 6.765,25.364 0.308,6.765 0.344,4.944 -2.461,-2.767 z" style="fill:#438941;fill-rule:nonzero" id="path170"/>
        <path d="m 221.775,87.129 1.446,0.769 c 0,0 -5.37,8.607 -5.253,14.603 0.116,5.996 -1.42,30.128 -1.42,31.05 0,0.923 -1.846,-3.228 -1.846,-7.225 0,-3.995 0.77,-26.592 0,-36.737 -0.766,-10.147 7.073,-2.46 7.073,-2.46 z" style="fill:#438941;fill-rule:nonzero" id="path172"/>
        <path d="m 222.082,120.485 c 0,0 -1.078,5.688 0,8.302 1.076,2.613 0.922,11.221 -5.688,10.913 -6.609,-0.309 -7.873,-6.126 -5.843,-9.603 2.034,-3.477 0.072,-13.302 -0.885,-15.453 -0.958,-2.15 6.458,16.603 6.458,16.603 z" style="fill:#438941;fill-rule:nonzero" id="path174"/>
        <path d="m 222.005,132.783 c 0,0 -0.925,4.842 -5.611,4.457 -4.689,-0.384 -5.612,-2.36 -3.612,-2.218 1.996,0.143 5.005,-0.164 6.153,-2.239 1.149,-2.075 3.926,-2.08 3.07,0 z" style="fill:#91c961;fill-rule:nonzero" id="path176"/>
        <path d="m 243.985,80.212 c 0,0 -4.073,6.61 -4.611,8.762 -0.538,2.151 0.154,-4.072 0,-4.382 -0.153,-0.306 -2.689,4.537 -2.689,6.611 0,2.075 -1.922,-0.54 -2.153,-2.074 -0.231,-1.539 -1.998,4.437 -2.151,6.869 -0.154,2.43 4.995,-1.414 7.608,-3.182 2.613,-1.768 7.071,-5.226 4.612,-3.842 -2.459,1.383 -5.765,2.305 -4.612,1.152 1.154,-1.152 5.227,-5.303 3.996,-9.914 z" style="fill:#9abc3c;fill-rule:nonzero" id="path178"/>
        <path d="m 205.095,77.675 c 1.466,1.942 10.828,8.993 10.987,16.065 0.159,7.07 -0.851,24.055 0,22.056 0.85,-1.998 1.308,-20.059 1.886,-23.979 0.579,-3.919 -0.502,-9.913 0,-13.371 0.501,-3.459 6.036,-15.297 4.613,-13.221 -1.423,2.075 -2.574,3.975 -3.343,2.794 -0.769,-1.18 -2.228,-3.87 -2.459,-3.64 -0.231,0.23 1.457,-4.765 1.189,-7.762 -0.267,-2.998 -1.815,-2.151 -1.886,0 -0.071,2.151 -2.685,-0.615 -2.685,-0.615 0,0 2.537,3.612 2.152,7.147 -0.385,3.537 -3.305,-1.613 -4.075,-2.381 -0.767,-0.77 0.657,4.919 2.48,7.915 1.825,2.997 -5.477,-4.919 -4.785,-3.074 0.693,1.845 9.366,14.373 6.913,13.45 -2.454,-0.922 -13.06,-14.756 -10.987,-11.913 2.077,2.845 8.917,13.835 10.145,15.141 1.231,1.306 -12.988,-8.377 -10.145,-4.612 z" style="fill:#9abc3c;fill-rule:nonzero" id="path180"/>
        <path d="m 184.422,75.448 c 0,0 7.915,11.143 8.839,14.141 0.921,2.998 7.07,10.454 9.914,13.142 2.844,2.691 6.433,9.915 6.405,10.299 -0.025,0.384 -3.549,-16.774 -4.861,-18.791 -1.31,-2.019 -1.851,1.094 -1.697,1.759 0.153,0.661 -2.844,-4.446 -3.844,-7.502 -0.998,-3.058 -2.51,0.094 -2.176,1.861 0.331,1.768 -1.436,-0.537 -3.128,-4.151 -1.69,-3.612 -2.92,-7.76 -2.92,-5.994 0,1.768 -7.752,-8.06 -6.532,-4.764 z" style="fill:#9abc3c;fill-rule:nonzero" id="path182"/>
        <path d="m 216.411,145.583 c -1.736,0 -3.643,-0.664 -5.003,-1.514 2.827,0.053 5.585,0.235 8.057,0.398 -0.431,0.407 -0.904,0.723 -1.45,0.892 -0.501,0.155 -1.044,0.224 -1.604,0.224 z m 1.825,-4.234 c -2.698,0 -5.542,-0.329 -8.69,-0.595 1.286,-0.604 2.289,-1.314 3.04,-2.087 0.991,0.582 2.251,0.96 3.808,1.033 0.116,0.005 0.229,0.008 0.341,0.008 2.753,-0.001 4.323,-1.609 5.129,-3.631 1.526,-1.616 1.985,-3.517 1.985,-3.517 1.721,-0.943 4.467,-1.391 7.088,-1.391 2.297,0 4.498,0.345 5.829,1.001 -1.726,1.422 -3.571,2.96 -5.428,4.517 -0.453,0.38 -0.904,0.732 -1.351,1.056 -1.301,0.213 -2.579,0.354 -3.678,0.428 -2.023,0.134 -3.266,1.441 -4.323,2.915 -1.228,0.189 -2.472,0.263 -3.75,0.263 z" style="fill:#6f3923;fill-rule:nonzero" id="path184"/>
        <path d="m 219.465,144.467 c -2.472,-0.163 -5.23,-0.345 -8.057,-0.398 -0.989,-0.617 -1.69,-1.332 -1.828,-1.961 -0.092,-0.421 -0.48,-0.708 -1.039,-0.927 0.353,-0.136 0.688,-0.278 1.005,-0.427 3.148,0.266 5.992,0.595 8.69,0.595 1.278,0 2.522,-0.074 3.75,-0.263 -0.857,1.196 -1.592,2.503 -2.521,3.381 z m 10.522,-6.724 c 0.447,-0.324 0.898,-0.676 1.351,-1.056 1.857,-1.557 3.702,-3.095 5.428,-4.517 0.798,0.394 1.283,0.9 1.29,1.511 0.021,2.102 -4.126,3.414 -8.069,4.062 z" style="fill:#5b3f25;fill-rule:nonzero" id="path186"/>
        <path d="m 202.904,139.698 c -0.332,-0.176 -0.611,-0.386 -0.812,-0.641 -0.707,-0.894 -0.038,-2.172 1.169,-3.299 3.058,-0.639 4.123,-1.567 4.372,-2.391 0.14,-0.03 0.278,-0.052 0.412,-0.068 0.184,-0.022 0.346,-0.032 0.488,-0.032 1.02,0 1.035,0.526 0.908,1.052 -0.128,0.527 -0.399,1.053 0.048,1.053 0.028,0 0.058,-0.002 0.091,-0.006 0.023,-0.003 0.046,-0.004 0.07,-0.004 0.1,0 0.208,0.025 0.327,0.069 0.205,0.631 0.515,1.234 0.937,1.777 -1.827,1.16 -4.443,2.06 -8.01,2.49 z" style="fill:#a34a24;fill-rule:nonzero" id="path188"/>
        <path d="m 208.541,141.181 c -1.468,-0.576 -4.114,-0.677 -5.637,-1.483 3.567,-0.43 6.183,-1.33 8.01,-2.49 0.435,0.561 0.989,1.058 1.672,1.459 -0.751,0.773 -1.754,1.483 -3.04,2.087 -0.317,0.149 -0.652,0.291 -1.005,0.427 z" style="fill:#5b3f25;fill-rule:nonzero" id="path190"/>
        <path d="m 203.261,135.758 c 1.199,-1.12 2.93,-2.092 4.372,-2.391 -0.249,0.824 -1.314,1.752 -4.372,2.391 z" style="fill:#b8612a;fill-rule:nonzero" id="path192"/>
        <path d="m 216.735,139.708 c -0.112,0 -0.225,-0.003 -0.341,-0.008 -1.557,-0.073 -2.817,-0.451 -3.808,-1.033 -0.683,-0.401 -1.237,-0.898 -1.672,-1.459 -0.422,-0.543 -0.732,-1.146 -0.937,-1.777 0.526,0.2 1.239,0.8 2.174,1.399 1.144,0.735 2.621,1.469 4.495,1.469 0.434,0 0.89,-0.04 1.369,-0.128 1.721,-0.317 2.964,-1.158 3.849,-2.094 -0.806,2.022 -2.376,3.63 -5.129,3.631 z" style="fill:#678c3c;fill-rule:nonzero" id="path194"/>
        <path d="m 223.221,130.984 c 0,0 1.191,2.351 0,3.857 -1.194,1.509 -2.621,4.233 -7.987,3.535 -5.365,-0.7 -5.654,-3.356 -5.654,-3.356 0,0 3.017,3.051 6.502,2.61 3.484,-0.444 7.69,-3.842 7.139,-6.646 z" style="fill:#813e20;fill-rule:nonzero" id="path196"/>
    </g>
</svg>
