<?xml version="1.0" encoding="UTF-8" standalone="no"?>
<svg xmlns="http://www.w3.org/2000/svg" width="100%" height="100%" viewBox="-10 0 380 350" version="1.1" style="clip-rule:evenodd;fill-rule:evenodd;stroke-linejoin:round;stroke-miterlimit:2" id="svg311">
    <g transform="translate(34.853,136.54412)" style="clip-rule:evenodd;display:inline;fill-rule:evenodd;stroke-linejoin:round;stroke-miterlimit:2" id="stage_4">
        <path d="m 181.134,51.722 -0.36,-1.079 c 0.243,0.141 0.462,0.275 0.664,0.404 -0.199,0.417 -0.304,0.675 -0.304,0.675 z m -6.44,-1.384 c 0,0 -0.564,-1.283 -1.185,-2.904 0.567,0.203 1.1,0.401 1.601,0.596 z m -7.681,-0.047 c -0.411,1.146 -1.379,-2.199 -2.014,-5.73 1.324,0.479 2.657,0.941 3.984,1.369 -0.889,1.743 -1.695,3.594 -1.97,4.361 z m -6.152,-6.676 c -0.362,1.156 -1.301,0.059 -2.289,-1.569 0.807,0.342 1.633,0.68 2.479,1.018 -0.073,0.193 -0.139,0.381 -0.19,0.551 z m 26.838,-0.504 c -1.632,1.094 -2.984,2.644 -4.033,4.128 0.523,-4.792 1.767,-11.507 4.738,-14.37 4.857,-4.691 -3.785,-3.132 -7.97,-0.323 -4.183,2.807 -6.567,8.61 -6.567,8.61 l -4.338,-13.026 -2.1,11.644 c 0,0 -2.136,-4.837 -2.642,-7.601 -0.506,-2.763 -4.364,5.671 -5.041,7.552 -0.673,1.882 -2.846,-8.305 -2.589,-11.597 0.26,-3.295 -2.774,2.393 -3.562,4.921 -0.789,2.529 -4.327,-5.678 -5.143,-6.716 -0.816,-1.035 -0.142,8.212 -1.631,9.058 -0.839,0.476 2.862,2.681 8.341,5.17 -0.116,2.329 -0.315,4.961 -1.075,5.396 -1.488,0.845 11.409,7.177 23.122,10.845 11.708,3.671 13.351,6.325 13.351,6.325 0,0 0.248,-15.005 5.106,-19.695 4.861,-4.69 -3.781,-3.13 -7.967,-0.321 z" style="fill:#8fa73d;fill-rule:nonzero" id="path2-8"/>
        <path d="M 279.153,109.882 C 272.298,105.424 263.725,104.396 259.61,97.883 255.496,91.367 248.98,83.48 233.206,76.965 217.436,70.45 212.978,71.481 206.12,68.049 199.26,64.621 177.316,48.503 162.916,44.39 c -9.614,-2.745 -13.031,-11.313 -22.631,-4.457 -9.6,6.858 -20.229,12.346 -30.518,10.974 -10.284,-1.372 -17.83,2.056 -21.943,7.199 -4.117,5.144 -6.173,5.829 -12.687,5.144 -6.514,-0.686 -7.886,1.713 -14.401,5.486 -6.517,3.773 -9.944,0.685 -17.147,3.429 -7.199,2.742 -12.001,5.486 -13.367,11.315 -1.377,5.829 -1.033,2.744 -10.292,6.172 -9.255,3.429 -13.715,4.458 -14.745,9.259 -1.025,4.799 -3.822,11.433 -4.853,12.462 -1.027,1.03 0.357,5.333 3.785,7.732 3.43,2.4 20.497,1.75 21.07,4.493 0.575,2.744 10.518,2.968 13.604,5.6 3.086,2.629 3.771,6.058 8.915,7.771 5.144,1.716 12.341,0.689 17.829,7.889 5.487,7.198 29.831,20.917 38.746,29.487 8.917,8.572 28.804,22.116 37.375,18.515 8.572,-3.599 26.589,-12.343 36.956,-12 10.364,0.343 16.878,-2.741 21.677,-8.915 4.802,-6.17 17.833,-20.915 27.773,-20.573 9.945,0.345 24.004,-2.745 28.119,-8.917 4.115,-6.17 8.229,-5.141 15.086,-9.256 6.859,-4.115 15.774,-10.973 17.147,-13.374 1.367,-2.399 -2.403,-5.486 -9.261,-9.943 z" style="fill:#758035;fill-rule:nonzero" id="path4-6"/>
        <path d="m 281.52,109.563 c -6.581,-4.279 -21.554,-4.723 -25.504,-10.976 -3.948,-6.252 -10.198,-13.82 -25.335,-20.072 -15.139,-6.252 -19.418,-5.266 -25.998,-8.557 -6.579,-3.291 -27.642,-18.756 -41.464,-22.706 -9.221,-2.635 -12.503,-10.858 -21.718,-4.276 -9.213,6.581 -19.413,11.846 -29.286,10.529 -9.87,-1.316 -17.111,1.975 -21.059,6.911 -3.95,4.936 -5.925,5.596 -12.175,4.936 -6.254,-0.658 -7.569,1.646 -13.82,5.264 -6.253,3.621 -9.546,0.66 -16.455,3.292 -6.911,2.632 -11.517,5.264 -12.833,10.859 -1.317,5.594 -0.988,2.633 -9.872,5.924 -8.884,3.291 -13.163,4.276 -14.15,8.883 -0.59,2.754 -3.149,1.552 -5.323,0.35 -1.463,-0.809 -2.752,-1.618 -3.149,-1.221 -0.987,0.987 -0.414,14.363 2.878,16.666 3.29,2.306 24.24,5.266 24.79,7.898 0.548,2.634 10.091,2.848 13.051,5.374 2.962,2.524 3.621,5.813 8.556,7.46 4.937,1.646 11.848,0.657 17.114,7.567 5.263,6.91 28.628,20.076 37.182,28.301 8.557,8.227 27.643,21.225 35.87,17.769 8.225,-3.454 25.517,-11.846 35.463,-11.517 9.947,0.33 16.199,-2.633 20.805,-8.555 4.607,-5.922 17.112,-20.073 26.654,-19.744 9.546,0.328 23.036,-2.633 26.984,-8.556 3.951,-5.922 7.899,-4.937 14.479,-8.885 6.582,-3.948 15.137,-10.529 16.453,-12.833 1.316,-2.303 4.445,-5.808 -2.138,-10.085 z" style="fill:#37302b;fill-rule:nonzero" id="path6-5"/>
        <path d="m 274.774,103.31 c -6.582,-4.277 -14.808,-5.265 -18.758,-11.518 -3.948,-6.253 -10.198,-13.82 -25.335,-20.072 -15.139,-6.252 -19.418,-5.266 -25.998,-8.557 -6.579,-3.289 -27.642,-18.756 -41.464,-22.706 -9.221,-2.634 -12.503,-10.855 -21.718,-4.276 -9.213,6.582 -19.413,11.847 -29.286,10.528 -9.87,-1.315 -17.111,1.976 -21.059,6.911 -3.95,4.937 -5.925,5.595 -12.175,4.937 -6.254,-0.657 -7.569,1.646 -13.82,5.265 -6.253,3.62 -9.546,0.66 -16.455,3.292 -6.911,2.632 -11.517,5.264 -12.833,10.858 -1.317,5.594 -0.988,2.634 -9.872,5.922 -8.884,3.292 -13.163,4.279 -14.15,8.886 -0.987,4.606 -6.912,3.619 -7.899,4.606 -0.987,0.988 -0.987,8.885 2.305,11.189 3.29,2.304 24.24,5.265 24.79,7.897 0.548,2.633 10.091,2.848 13.051,5.373 2.962,2.525 3.621,5.817 8.556,7.46 4.937,1.648 11.848,0.658 17.114,7.57 5.263,6.91 28.628,20.073 37.182,28.3 8.557,8.226 27.643,21.224 35.87,17.77 8.225,-3.457 25.517,-11.847 35.463,-11.52 9.947,0.331 16.199,-2.631 20.805,-8.554 4.607,-5.923 17.112,-20.074 26.654,-19.744 9.546,0.328 23.036,-2.633 26.984,-8.556 3.951,-5.922 7.899,-4.935 14.479,-8.884 6.582,-3.949 15.137,-10.53 16.453,-12.834 1.316,-2.303 -2.305,-5.266 -8.884,-9.543 z" style="fill:#542f29;fill-rule:nonzero" id="path8-9"/>
        <path d="m 168.155,179.807 c -1.49,-0.845 -0.813,-10.095 -1.634,-9.058 -0.814,1.038 -4.353,9.247 -5.142,6.717 -0.789,-2.529 -3.821,-8.218 -3.563,-4.925 0.261,3.295 -1.915,13.482 -2.588,11.601 -0.675,-1.883 -4.533,-10.316 -5.044,-7.553 -0.501,2.764 -2.639,7.601 -2.639,7.601 l -2.099,-11.644 -4.339,13.027 c 0,0 -2.383,-5.804 -6.566,-8.611 -4.184,-2.808 -12.826,-4.368 -7.969,0.321 4.858,4.692 7.28,10.711 7.28,10.711 0,0 -0.531,6.329 11.179,2.661 11.713,-3.67 24.614,-10.003 23.124,-10.848 z" style="fill:#8fa73d;fill-rule:nonzero" id="path10-2"/>
        <path d="m 139.87,178.578 c -7.472,0 -11.237,-7.787 -6.924,-16.366 4.8,-9.543 6.254,-7.567 23.364,-9.215 17.113,-1.644 21.389,-6.908 29.617,-17.439 6.709,-8.586 10.572,-10.828 19.975,-10.828 2.129,0 4.543,0.115 7.337,0.298 2.847,0.185 5.182,0.301 7.164,0.301 8.557,0 10.549,-2.158 18.833,-10.172 8.237,-7.971 14.969,-11.437 22.627,-11.437 1.828,0 3.708,0.198 5.673,0.578 10.198,1.973 6.606,7.526 3.617,10.859 -7.996,8.921 -17.768,11.845 -29.616,17.77 -11.846,5.923 -18.426,6.909 -30.601,13.49 -11.354,6.137 -22.685,19.302 -28.987,19.301 -0.455,0 -0.885,-0.069 -1.286,-0.214 -1.841,-0.666 -3.712,-0.957 -5.595,-0.957 -10.324,0 -20.993,8.752 -28.831,12.388 l -0.791,-4.389 -1.806,5.423 c -0.381,0.121 -0.752,0.223 -1.115,0.304 -0.928,0.207 -1.815,0.305 -2.655,0.305 z m 58.747,-33.976 h 0.165 c 0.331,0 0.671,-0.006 1.021,-0.018 0.163,-0.006 0.329,-0.013 0.497,-0.021 0.019,-10e-4 0.039,-0.002 0.059,-0.003 0.007,-0.001 0.013,-0.001 0.019,-0.001 0.016,-0.001 0.03,-0.002 0.046,-0.003 0.005,0 0.01,0 0.016,-0.001 0.019,-0.001 0.038,-0.002 0.057,-0.003 0.007,0 0.012,0 0.018,-0.001 0.014,0 0.028,-10e-4 0.041,-0.002 0.008,0 0.015,-0.001 0.022,-0.001 0.019,-0.001 0.036,-0.002 0.055,-0.003 0.006,-10e-4 0.013,-10e-4 0.018,-0.002 0.014,0 0.028,-0.001 0.042,-0.002 0.008,0 0.015,-0.001 0.023,-0.001 0.014,-0.001 0.029,-0.002 0.044,-0.003 0.008,-0.001 0.016,-0.001 0.024,-0.002 0.015,0 0.028,-0.001 0.042,-0.002 0.009,-10e-4 0.018,-10e-4 0.027,-0.002 0.01,-0.001 0.024,-0.001 0.034,-0.002 0.009,-0.001 0.016,-0.001 0.025,-0.002 0.016,-10e-4 0.034,-0.002 0.051,-0.003 0.008,-0.001 0.017,-0.001 0.025,-0.002 0.012,-0.001 0.022,-0.001 0.033,-0.002 0.008,0 0.017,-0.001 0.025,-0.002 0.013,-0.001 0.025,-0.001 0.038,-0.002 0.015,-0.001 0.029,-0.002 0.045,-0.003 0.007,-0.001 0.015,-0.001 0.022,-0.002 0.012,-0.001 0.023,-0.002 0.034,-0.002 0.005,-10e-4 0.012,-10e-4 0.017,-0.002 0.025,-0.002 0.051,-0.003 0.076,-0.005 0.001,0 0.003,-0.001 0.004,-0.001 0.014,-0.001 0.027,-0.002 0.04,-0.003 h 0.012 c 0.042,-0.004 0.083,-0.007 0.125,-0.01 0.003,0 0.006,-0.001 0.008,-0.001 6.068,-0.482 9.677,-2.222 11.484,-4.371 0.001,-0.002 0.003,-0.005 0.005,-0.006 0.003,-0.004 0.006,-0.008 0.009,-0.012 0.005,-0.006 0.011,-0.012 0.016,-0.018 0.001,-0.001 0.002,-0.003 0.002,-0.004 2.656,-3.201 1.334,-7.296 -1.824,-9.497 -1.718,-1.198 -2.93,-1.687 -4.013,-1.687 -1.857,0 -3.339,1.433 -6.35,3.187 -3.203,1.863 -6.257,2.698 -8.567,2.698 -1.131,0 -2.084,-0.201 -2.788,-0.579 -0.095,-0.051 -0.193,-0.076 -0.292,-0.076 -1.015,0 -2.079,2.62 -1.153,5.24 0.387,1.096 1.123,2.192 2.356,3.096 0.001,0.001 0.001,0.001 0.002,0.002 0.007,0.005 0.014,0.01 0.021,0.015 0.002,0.001 0.004,0.003 0.006,0.004 0.007,0.005 0.013,0.01 0.02,0.015 0.004,0.003 0.008,0.006 0.012,0.008 0.003,0.003 0.006,0.005 0.009,0.007 1.669,1.196 4.229,2.045 8.033,2.091 h 0.008 c 0.036,0.001 0.073,0.001 0.11,0.001 h 0.01 c 0.012,0 0.023,0.001 0.034,0.001 z" style="fill:#6f3923;fill-rule:nonzero" id="path12-1"/>
        <path d="m 143.64,177.969 1.806,-5.423 0.791,4.389 c -0.905,0.42 -1.772,0.772 -2.597,1.034 z" style="fill:#a1a438;fill-rule:nonzero" id="path14-1"/>
        <path d="m 231.338,111.746 c -8.885,7.451 -16.452,3.74 -28.626,3.74 -12.178,0 -16.458,9.542 -23.036,16.674 -6.584,7.128 -33.568,11.955 -46.07,16.56 -12.505,4.608 -7.57,18.76 -7.241,12.835 0.329,-5.924 19.743,-17.44 36.527,-17.77 16.784,-0.33 24.021,-17.77 31.919,-21.94 7.901,-4.168 21.059,-2.41 28.63,-2.08 7.569,0.328 22.044,-18.429 22.044,-18.429 3.341,-4.046 -5.261,2.962 -14.147,10.41 z" style="fill:#37302b;fill-rule:nonzero" id="path16-4"/>
        <path d="m 102.029,154.876 c -7.473,0 -11.236,-7.788 -6.925,-16.366 4.8,-9.544 6.254,-7.57 23.364,-9.214 1.906,-0.183 3.653,-0.411 5.264,-0.687 0.187,0.298 0.406,0.59 0.659,0.872 10e-4,0.001 10e-4,0.002 0.002,0.003 0.006,0.006 0.012,0.013 0.018,0.019 v 0.001 c 0.005,0.006 0.01,0.011 0.016,0.017 0.002,0.002 0.004,0.005 0.006,0.007 0.004,0.004 0.007,0.007 0.01,0.011 0.005,0.005 0.01,0.01 0.014,0.015 0.002,0.002 0.004,0.004 0.006,0.007 0.004,0.004 0.007,0.007 0.011,0.012 10e-4,0.001 0.003,0.002 0.004,0.003 0.554,0.595 1.266,1.144 2.167,1.607 0.002,0.001 0.003,0.001 0.004,0.002 0.019,0.01 0.038,0.019 0.056,0.029 0.004,0.002 0.008,0.003 0.011,0.005 0.005,0.003 0.01,0.005 0.015,0.008 0.006,0.003 0.012,0.006 0.019,0.009 0.004,0.002 0.01,0.005 0.015,0.008 0.006,0.003 0.012,0.006 0.018,0.009 0.004,0.001 0.007,0.003 0.01,0.005 0.01,0.004 0.018,0.008 0.027,0.013 0.002,0.001 0.003,0.001 0.004,0.002 0.009,0.004 0.017,0.008 0.026,0.012 0.002,0.001 0.004,0.002 0.006,0.003 0.021,0.01 0.042,0.02 0.062,0.03 h 10e-4 c 1.67,0.793 3.948,1.302 7.007,1.302 0.486,0 0.99,-0.013 1.515,-0.04 0.021,-0.001 0.041,-0.002 0.062,-0.003 h 0.014 c 0.018,-0.001 0.035,-0.002 0.052,-0.003 0.004,0 0.007,-0.001 0.011,-0.001 0.02,-0.001 0.042,-0.002 0.062,-0.003 0.003,0 0.006,-0.001 0.009,-0.001 0.018,-10e-4 0.036,-0.002 0.054,-0.003 h 0.011 c 0.021,-0.002 0.043,-0.003 0.063,-0.004 h 0.001 c 0.021,-0.001 0.042,-0.003 0.063,-0.004 h 0.007 c 0.043,-0.003 0.085,-0.005 0.127,-0.008 0.002,0 0.004,0 0.006,-0.001 15.745,-1.004 15.685,-10.213 10.318,-13.956 -0.977,-0.68 -1.79,-1.131 -2.509,-1.394 1.366,-1.606 2.761,-3.384 4.292,-5.343 6.707,-8.585 10.57,-10.827 19.972,-10.827 2.13,0 4.545,0.115 7.341,0.298 2.848,0.185 5.182,0.301 7.164,0.301 8.558,0 10.55,-2.158 18.832,-10.174 8.235,-7.97 14.97,-11.436 22.626,-11.436 1.827,0 3.707,0.197 5.672,0.578 10.203,1.973 6.61,7.523 3.62,10.858 -5.905,6.588 -12.778,9.906 -20.74,13.577 -0.414,-0.458 -0.887,-0.875 -1.412,-1.241 -1.718,-1.198 -2.93,-1.686 -4.014,-1.686 -1.857,0 -3.338,1.434 -6.349,3.185 -3.203,1.865 -6.256,2.7 -8.565,2.7 -1.132,0 -2.085,-0.201 -2.79,-0.579 -0.095,-0.052 -0.193,-0.076 -0.291,-0.076 -1.016,0 -2.08,2.62 -1.154,5.24 0.152,0.431 0.359,0.863 0.629,1.283 l 0.012,0.02 c 0.004,0.005 0.007,0.011 0.011,0.016 0.001,0.002 0.002,0.003 0.002,0.004 0.302,0.463 0.682,0.911 1.15,1.328 -5.08,1.972 -10.06,3.898 -16.708,7.491 -11.355,6.137 -22.685,19.3 -28.986,19.298 -0.455,0 -0.885,-0.069 -1.286,-0.214 -1.841,-0.666 -3.71,-0.957 -5.593,-0.957 -12.066,0 -24.606,11.955 -32.544,13.728 -0.927,0.206 -1.814,0.305 -2.654,0.305 z M 215.54,96.936 c 0.472,0.081 0.979,0.12 1.508,0.12 7.222,0 18.822,-7.162 8.86,-10.089 -0.77,-0.226 -1.581,-0.322 -2.429,-0.322 -3.254,0 -7.051,1.412 -11.23,2.272 -4.412,0.909 -3.968,5.095 0.364,7.125 0.005,0.002 0.01,0.005 0.015,0.007 0.003,10e-4 0.005,0.002 0.007,0.003 0.829,0.386 1.799,0.693 2.905,0.884 z" style="fill:#6f3923;fill-rule:nonzero" id="path18-2"/>
        <path d="m 193.497,88.044 c -8.886,7.451 -16.456,3.739 -28.631,3.739 -12.175,0 -16.452,9.544 -23.033,16.671 -6.583,7.132 -33.566,11.957 -46.069,16.564 -12.506,4.608 -7.569,18.757 -7.24,12.833 0.327,-5.92 19.743,-17.44 36.528,-17.769 16.781,-0.33 24.018,-17.768 31.917,-21.939 7.897,-4.169 21.06,-2.412 28.628,-2.083 7.57,0.33 22.048,-18.429 22.048,-18.429 3.336,-4.045 -5.264,2.965 -14.148,10.413 z" style="fill:#37302b;fill-rule:nonzero" id="path20-4"/>
        <path d="m 59.941,130.994 c -1.539,0 -2.921,-0.331 -4.107,-0.931 1.506,0.274 3.103,0.509 4.72,0.913 -0.207,0.012 -0.411,0.018 -0.613,0.018 z" style="fill:#5b3f25;fill-rule:nonzero" id="path22-7"/>
        <path d="m 60.554,130.976 c -1.617,-0.404 -3.214,-0.639 -4.72,-0.913 -4.572,-2.312 -6.238,-8.624 -2.815,-15.434 0.221,-0.44 0.435,-0.855 0.644,-1.247 0.646,2.532 2.718,5.056 6.031,5.981 l 10e-4,0.001 c 0.018,0.005 0.035,0.009 0.053,0.014 0.002,0.001 0.004,0.001 0.006,0.002 0.007,0.002 0.014,0.004 0.021,0.006 0.005,0.001 0.011,0.003 0.017,0.004 0.005,0.002 0.011,0.003 0.016,0.005 0.012,0.003 0.023,0.006 0.035,0.009 0.471,0.123 0.977,0.182 1.506,0.182 6.509,0.001 16.582,-8.839 11.201,-13.836 1.182,-0.094 2.457,-0.202 3.833,-0.335 17.112,-1.644 21.391,-6.911 29.617,-17.441 6.707,-8.586 10.569,-10.828 19.974,-10.828 2.13,0 4.545,0.115 7.34,0.298 2.847,0.185 5.182,0.301 7.164,0.301 8.556,0 10.547,-2.158 18.831,-10.173 8.235,-7.971 14.969,-11.437 22.629,-11.437 1.826,0 3.706,0.197 5.67,0.577 10.202,1.976 6.608,7.528 3.619,10.86 -7.999,8.921 -17.77,11.846 -29.614,17.77 -11.85,5.923 -18.428,6.909 -30.605,13.49 -11.353,6.139 -22.683,19.301 -28.985,19.3 -0.456,0 -0.886,-0.069 -1.288,-0.215 -1.84,-0.665 -3.709,-0.956 -5.591,-0.956 -12.066,0 -24.607,11.956 -32.546,13.727 -0.706,0.157 -1.388,0.252 -2.044,0.288 z" style="fill:#6f3923;fill-rule:nonzero" id="path24-0"/>
        <path d="m 151.41,64.163 c -8.885,7.45 -16.452,3.738 -28.629,3.738 -12.174,0 -16.451,9.543 -23.036,16.673 -6.578,7.132 -33.564,11.956 -46.066,16.564 -12.505,4.606 -7.571,18.756 -7.239,12.833 0.327,-5.924 19.741,-17.441 36.525,-17.771 16.78,-0.33 24.024,-17.769 31.921,-21.938 7.895,-4.17 21.059,-2.412 28.628,-2.084 7.566,0.331 22.047,-18.426 22.047,-18.426 3.337,-4.047 -5.266,2.96 -14.151,10.411 z" style="fill:#37302b;fill-rule:nonzero" id="path26-43"/>
        <path d="m 20.099,108.8 c -6.847,0 -11.078,-4.269 -7.074,-12.235 4.799,-9.543 16.044,1.014 25.187,-13.544 3.241,-5.163 5.549,-6.119 7.691,-6.119 0.631,0 1.247,0.083 1.869,0.166 0.621,0.083 1.248,0.166 1.9,0.166 1.962,-10e-4 4.149,-0.753 7.096,-4.525 8.227,-10.529 27.841,-8.887 38.37,-17.658 11.659,-9.709 31.722,-0.278 41.922,-10.15 6.462,-6.253 7.708,-8.083 10.346,-8.083 1.527,0 3.519,0.613 7.258,1.336 2.719,0.526 4.713,1.85 5.902,3.637 -0.049,-0.015 -0.1,-0.03 -0.15,-0.044 -0.772,-0.227 -1.584,-0.323 -2.432,-0.323 -3.254,0 -7.047,1.412 -11.223,2.274 -5.25,1.078 -3.63,6.79 3.227,8.006 0.002,10e-4 0.003,10e-4 0.005,10e-4 0.008,0.002 0.016,0.003 0.024,0.004 0.011,0.002 0.022,0.004 0.033,0.006 0.472,0.082 0.979,0.12 1.509,0.12 3.231,0 7.338,-1.433 9.999,-3.279 -1.001,4.089 -4.591,8.519 -11.171,11.647 -2.827,1.343 -5.207,1.768 -7.393,1.768 -1.879,0 -3.616,-0.314 -5.367,-0.629 -1.752,-0.314 -3.52,-0.629 -5.463,-0.629 -2.503,0 -5.298,0.522 -8.726,2.236 -11.843,5.921 -17.688,4.987 -26.358,16.009 -7.597,9.66 -24.223,16.925 -32.021,16.925 -0.984,0 -1.829,-0.116 -2.496,-0.357 -1.841,-0.667 -3.711,-0.957 -5.594,-0.957 -12.067,0 -24.604,11.955 -32.544,13.725 -1.516,0.339 -2.972,0.506 -4.326,0.506 z" style="fill:#5b3127;fill-rule:nonzero" id="path28-31"/>
        <path d="m 70.209,104.267 c -3.733,-1.665 -8.391,1.315 -13.656,2.96 -5.264,1.647 -3.623,10.366 3.29,12.177 6.91,1.81 21.061,-10.367 10.366,-15.137 z" style="fill:#963c22;fill-rule:nonzero" id="path30-69"/>
        <path d="m 59.843,115.326 c -3.196,-0.838 -5.252,-3.158 -6.031,-5.569 -1.279,3.242 0.944,8.314 6.031,9.647 5.765,1.506 16.553,-6.709 13.771,-12.249 -1.901,4.716 -9.329,9.333 -13.771,8.171 z" style="fill:#37302b;fill-rule:nonzero" id="path32-25"/>
        <path d="m 59.317,113.989 c -0.154,0 -0.304,-0.006 -0.451,-0.016 -4.392,-0.314 -4.375,-4.968 -1.286,-4.968 0.144,0 0.294,0.01 0.451,0.032 0.142,0.019 0.28,0.028 0.414,0.028 1.315,0 2.238,-0.884 3.13,-1.767 0.893,-0.883 1.756,-1.767 2.953,-1.767 0.507,0 1.075,0.16 1.731,0.546 5.415,3.184 -2.275,7.912 -6.942,7.912 z" style="fill:#b15929;fill-rule:nonzero" id="path34-1"/>
        <path d="m 225.908,86.967 c -3.73,-1.095 -8.393,0.866 -13.659,1.95 -5.262,1.084 -3.617,6.828 3.291,8.019 6.913,1.193 21.061,-6.827 10.368,-9.969 z" style="fill:#963c22;fill-rule:nonzero" id="path36-0"/>
        <path d="m 215.54,94.251 c -3.198,-0.552 -5.252,-2.079 -6.03,-3.668 -1.276,2.135 0.945,5.477 6.03,6.353 5.766,0.995 16.555,-4.419 13.771,-8.066 -1.897,3.106 -9.328,6.147 -13.771,5.381 z" style="fill:#37302b;fill-rule:nonzero" id="path38-31"/>
        <path d="m 215.019,93.369 c -0.155,0 -0.307,-0.003 -0.454,-0.01 -4.394,-0.206 -4.377,-3.271 -1.285,-3.271 0.144,0 0.295,0.007 0.452,0.021 0.143,0.012 0.281,0.018 0.415,0.018 1.313,0 2.235,-0.582 3.128,-1.164 0.893,-0.582 1.756,-1.163 2.953,-1.163 0.508,0 1.076,0.104 1.732,0.358 5.414,2.099 -2.274,5.211 -6.941,5.211 z" style="fill:#b15929;fill-rule:nonzero" id="path40-1"/>
        <path d="m 160.416,41.747 c -3.735,-1.096 -8.392,0.865 -13.655,1.951 -5.266,1.082 -3.62,6.825 3.289,8.017 6.912,1.194 21.062,-6.826 10.366,-9.968 z" style="fill:#963c22;fill-rule:nonzero" id="path42-1"/>
        <path d="m 150.05,49.029 c -3.199,-0.551 -5.249,-2.077 -6.031,-3.665 -1.276,2.133 0.946,5.472 6.031,6.351 5.766,0.994 16.555,-4.419 13.77,-8.066 -1.899,3.105 -9.328,6.146 -13.77,5.38 z" style="fill:#37302b;fill-rule:nonzero" id="path44-0"/>
        <path d="m 149.528,48.149 c -0.155,0 -0.307,-0.003 -0.455,-0.01 -4.393,-0.205 -4.374,-3.27 -1.284,-3.27 0.144,0 0.295,0.006 0.451,0.02 0.142,0.013 0.279,0.019 0.413,0.019 1.315,0 2.237,-0.583 3.13,-1.165 0.894,-0.582 1.757,-1.164 2.954,-1.164 0.508,0 1.075,0.105 1.731,0.359 5.412,2.098 -2.272,5.212 -6.94,5.211 z" style="fill:#b15929;fill-rule:nonzero" id="path46-2"/>
        <path d="m 211.159,130.579 c -4.661,-3.251 -5.595,-1.277 -10.363,1.5 -4.773,2.776 -9.214,3.269 -11.355,2.119 -1.082,-0.583 -2.461,2.29 -1.445,5.164 0.991,2.803 4.26,5.607 12.304,5.201 16.288,-0.822 16.288,-10.2 10.859,-13.984 z" style="fill:#963c22;fill-rule:nonzero" id="path48-84"/>
        <path d="m 200.3,141.766 c -8.666,0.438 -11.79,-2.851 -12.495,-5.852 -0.776,3.137 0.884,9.235 12.495,8.649 11.626,-0.587 14.949,-5.53 13.932,-9.689 -0.844,3.323 -4.861,6.435 -13.932,6.892 z" style="fill:#37302b;fill-rule:nonzero" id="path50-7"/>
        <path d="m 198.624,138.136 c -4.594,0 -3.877,-2.297 0.36,-3.117 3.716,-0.718 4.986,-2.572 6.356,-2.572 0.511,0 1.035,0.257 1.705,0.927 0,0 3.291,3.127 -4.936,4.444 -1.392,0.222 -2.549,0.318 -3.485,0.318 z" style="fill:#b15929;fill-rule:nonzero" id="path52-8"/>
        <path d="m 146.301,118.593 c -4.665,-3.249 -5.594,-1.275 -10.366,1.5 -4.774,2.777 -9.215,3.273 -11.354,2.121 -1.083,-0.583 -2.461,2.291 -1.444,5.165 0.991,2.803 4.261,5.607 12.304,5.201 16.288,-0.825 16.288,-10.202 10.86,-13.987 z" style="fill:#963c22;fill-rule:nonzero" id="path54-8"/>
        <path d="m 135.441,129.781 c -8.668,0.439 -11.791,-2.849 -12.495,-5.85 -0.778,3.137 0.884,9.233 12.495,8.649 11.622,-0.589 14.949,-5.531 13.929,-9.69 -0.845,3.322 -4.857,6.435 -13.929,6.891 z" style="fill:#37302b;fill-rule:nonzero" id="path56-02"/>
        <path d="m 133.761,126.151 c -4.589,-10e-4 -3.871,-2.295 0.361,-3.114 3.716,-0.72 4.988,-2.575 6.359,-2.575 0.51,0 1.035,0.258 1.705,0.928 0,0 3.29,3.128 -4.934,4.441 -1.396,0.224 -2.554,0.32 -3.491,0.32 z" style="fill:#b15929;fill-rule:nonzero" id="path58-7"/>
        <path d="m 211.159,103.79 c -4.663,-3.251 -5.595,-1.274 -10.363,1.499 -4.773,2.779 -9.214,3.271 -11.355,2.121 -1.082,-0.584 -2.46,2.29 -1.445,5.164 0.99,2.803 4.259,5.607 12.304,5.201 16.288,-0.822 16.288,-10.201 10.859,-13.985 z" style="fill:#963c22;fill-rule:nonzero" id="path60-2"/>
        <path d="m 200.3,114.978 c -8.666,0.438 -11.79,-2.85 -12.495,-5.851 -0.776,3.136 0.882,9.234 12.495,8.648 11.626,-0.588 14.949,-5.53 13.927,-9.69 -0.84,3.324 -4.856,6.434 -13.927,6.893 z" style="fill:#37302b;fill-rule:nonzero" id="path62-6"/>
        <path d="m 198.621,111.348 c -4.591,0 -3.873,-2.296 0.363,-3.116 3.716,-0.719 4.986,-2.573 6.356,-2.573 0.511,0 1.035,0.257 1.705,0.927 0,0 3.291,3.128 -4.936,4.443 -1.394,0.223 -2.551,0.319 -3.488,0.319 z" style="fill:#b15929;fill-rule:nonzero" id="path64-1"/>
        <path d="m 127.188,176.09 c -1.206,-0.384 2.197,2.302 4.882,4.88 2.686,2.576 3.619,7.131 3.619,7.131 1.537,2.851 2.36,1.535 1.098,-3.127 -1.262,-4.662 -8.39,-8.502 -9.599,-8.884 z" style="fill:#91c961;fill-rule:nonzero" id="path66-4"/>
        <path d="m 141.777,187.332 c 0,0 4.061,-5.539 3.292,-12.888 z" style="fill:#91c961;fill-rule:nonzero" id="path68-6"/>
        <path d="m 147.372,185.577 c -1.43,2.357 3.947,1.755 3.344,-8.667 0,0 -1.916,6.307 -3.344,8.667 z" style="fill:#91c961;fill-rule:nonzero" id="path70-4"/>
        <path d="m 151.997,56.658 c -0.939,3.405 -3.301,4.697 -11.946,4.363 -8.644,-0.336 -14.28,-0.374 -16.965,-1.72 -2.686,-1.346 -6.513,-2.979 -3.761,-0.44 2.75,2.541 5.446,3.948 13.044,5.2 7.598,1.253 16.298,-1.406 19.806,-3.7 3.508,-2.295 3.768,-0.925 5.951,0.66 2.183,1.583 6.016,2.926 5.41,-1.544 -0.607,-4.468 -9.897,-8.764 -11.539,-2.819 z" style="fill:#813e20;fill-rule:nonzero" id="path72-0"/>
        <path d="m 157.52,75.145 c -11.084,-8.146 -15.936,-6.112 -18.918,-4.367 -2.982,1.749 -7.172,0 -11.888,3.667 -4.715,3.668 -7.641,15.724 7.706,18.079 15.346,2.353 35.395,-8.342 23.1,-17.379 z" style="fill:#e1a23b;fill-rule:nonzero" id="path74-3"/>
        <path d="m 173.865,56.693 c -9.788,0.06 -7.6,1.863 -12.531,3.96 -4.933,2.094 -6.014,3.716 -3.814,8.93 2.2,5.214 15.822,8.921 22.632,7.242 6.812,-1.68 12.226,-20.25 -6.287,-20.132 z" style="fill:#e1a23b;fill-rule:nonzero" id="path76-51"/>
        <path d="m 120.439,63.271 c -9.287,-3.111 -2.027,-2.89 -13.809,0 -11.781,2.889 -22.213,4.981 -8.66,11.659 13.55,6.679 25.199,2.659 24.963,-0.833 -0.236,-3.491 7.105,-7.615 -2.494,-10.826 z" style="fill:#e1a23b;fill-rule:nonzero" id="path78-60"/>
        <path d="m 130.3,44.652 c -9.111,2.246 -16.25,10.527 -10.372,13.553 5.878,3.019 6.606,3.115 16.824,3.74 10.219,0.627 17.401,-3.249 14.933,-8.383 -2.467,-5.132 -8.194,-12.158 -21.385,-8.91 z" style="fill:#e1a23b;fill-rule:nonzero" id="path80-6"/>
        <path d="m 134.979,74.448 c -3.026,0.349 -4.249,3.837 -3.114,5.933 1.136,2.099 2.796,6.814 13.186,4.632 10.39,-2.184 15.716,-6.376 10.39,-8.559 -5.325,-2.18 -1.048,-0.609 -6.549,1.399 -5.501,2.008 -8.59,4.691 -11.28,1.386 -2.688,-3.307 -2.253,-4.791 -2.253,-4.791 z" style="fill:#f3ba68;fill-rule:nonzero" id="path82-9"/>
        <path d="m 178.493,59.69 c -0.118,0.005 -0.235,-10e-4 -0.351,0 -5.013,0.069 -5.859,3.459 -6.198,7.274 -0.348,3.905 2.622,8.181 8.034,3.38 5.414,-4.803 6.286,-10.916 -1.485,-10.654 z" style="fill:#f3ba68;fill-rule:nonzero" id="path84-6"/>
        <path d="m 103.837,65.106 c -5.57,0.585 -13.798,4.452 -7.598,6.983 6.201,2.532 12.173,3.392 12.245,-0.398 0.073,-3.791 2.269,-7.315 -4.647,-6.585 z" style="fill:#f3ba68;fill-rule:nonzero" id="path86-4"/>
        <path d="m 134.049,85.576 c -2.532,0.572 -2.871,2.643 -1.217,3.355 1.653,0.709 1.217,-3.355 1.217,-3.355 z" style="fill:#a86e28;fill-rule:nonzero" id="path88-3"/>
        <path d="m 156.383,80.18 c -2.532,0.57 -2.871,2.642 -1.218,3.352 1.653,0.712 1.218,-3.352 1.218,-3.352 z" style="fill:#a86e28;fill-rule:nonzero" id="path90-8"/>
        <path d="m 130.222,75.108 c -2.533,0.569 -2.873,2.64 -1.22,3.352 1.653,0.713 1.22,-3.352 1.22,-3.352 z" style="fill:#a86e28;fill-rule:nonzero" id="path92-7"/>
        <path d="m 118.878,72.051 c -2.531,0.57 -2.87,2.642 -1.218,3.353 1.654,0.712 1.218,-3.353 1.218,-3.353 z" style="fill:#a86e28;fill-rule:nonzero" id="path94-2"/>
        <path d="m 108.433,73.769 c -2.532,0.569 -2.872,2.641 -1.217,3.354 1.652,0.711 1.217,-3.354 1.217,-3.354 z" style="fill:#a86e28;fill-rule:nonzero" id="path96-4"/>
        <path d="m 120.02,65.244 c -2.531,0.572 -2.871,2.643 -1.217,3.353 1.654,0.711 1.217,-3.353 1.217,-3.353 z" style="fill:#a86e28;fill-rule:nonzero" id="path98-3"/>
        <path d="m 127.63,56.244 c -2.532,0.574 -2.871,2.644 -1.219,3.353 1.654,0.711 1.219,-3.353 1.219,-3.353 z" style="fill:#a86e28;fill-rule:nonzero" id="path100-6"/>
        <path d="m 131.766,47.292 c -2.533,0.575 -2.873,2.645 -1.219,3.354 1.654,0.711 1.219,-3.354 1.219,-3.354 z" style="fill:#a86e28;fill-rule:nonzero" id="path102-0"/>
        <path d="m 145.998,54.976 c -2.53,0.568 -2.87,2.639 -1.217,3.351 1.653,0.711 1.217,-3.351 1.217,-3.351 z" style="fill:#a86e28;fill-rule:nonzero" id="path104-3"/>
        <path d="m 161.616,67.864 c -2.532,0.571 -2.872,2.641 -1.218,3.352 1.653,0.712 1.218,-3.352 1.218,-3.352 z" style="fill:#a86e28;fill-rule:nonzero" id="path106-41"/>
        <path d="m 174.15,72.051 c -2.531,0.57 -2.871,2.642 -1.216,3.353 1.652,0.712 1.216,-3.353 1.216,-3.353 z" style="fill:#a86e28;fill-rule:nonzero" id="path108-8"/>
        <path d="m 172.562,59.301 c -2.532,0.573 -2.871,2.644 -1.217,3.354 1.654,0.711 1.217,-3.354 1.217,-3.354 z" style="fill:#a86e28;fill-rule:nonzero" id="path110-5"/>
        <path d="m 186.107,66.636 c -2.53,0.573 -2.871,2.644 -1.216,3.354 1.653,0.711 1.216,-3.354 1.216,-3.354 z" style="fill:#a86e28;fill-rule:nonzero" id="path112-5"/>
        <path d="m 96.174,19.894 c -2.682,0.441 -2.896,3.792 -4.447,2.531 -1.547,-1.267 -1.875,-1.082 -2.736,0.603 -0.862,1.686 -2.08,0.136 -2.488,1.344 -0.409,1.206 -1.894,0.364 -5.958,-0.488 -4.06,-0.852 -5.991,-0.016 -4.637,-2.678 1.355,-2.659 0.749,-1.57 1.655,-3.772 0.903,-2.198 2.954,-4.513 6.434,-5.362 3.482,-0.856 7.784,-2.877 8.834,0.724 1.049,3.6 2.483,3.721 3.63,3.606 1.143,-0.11 2.649,3.01 -0.287,3.492 z" style="fill:#6f6426;fill-rule:nonzero" id="path114-6"/>
        <path d="m 79.508,42.821 c -2.8,-1.057 -2.857,2.039 -3.404,3.648 -0.542,1.608 -3.575,-1.744 -2.785,-5.09 0.792,-3.344 1.488,-4.324 0.493,-6.676 -0.991,-2.358 -0.472,-8.105 3.863,-8.266 4.331,-0.16 5.459,1.174 5.756,0.058 0.298,-1.113 1.221,-1.036 1.852,0.152 0.622,1.191 0.583,1.708 2.042,0.275 1.463,-1.431 6.008,-1.422 7.886,-0.311 1.87,1.113 -2.807,1.41 -3.805,3.517 -1.001,2.111 -0.151,5.593 -1.547,4.963 -1.393,-0.635 -1.787,-0.866 -1.991,1.597 -0.201,2.46 -2.038,4.79 -2.908,4.616 -0.868,-0.176 -3.349,2.309 -5.452,1.517 z" style="fill:#6f6426;fill-rule:nonzero" id="path116-3"/>
        <path d="m 122.933,1.451 c 0,0 -14.279,1.492 -21.171,10.232 -6.897,8.743 -9.554,14.346 -10.037,20.199 -0.483,5.853 -2.002,11.157 -2.002,11.157 0,0 3.688,0.423 4.308,-4.317 0.625,-4.736 -0.355,-7.92 4.296,-15.448 4.65,-7.524 5.953,-12.07 16.02,-17.599 10.071,-5.53 13.018,3.552 12.191,0.38 -0.82,-3.17 -3.605,-4.604 -3.605,-4.604 z" style="fill:#5f551f;fill-rule:nonzero" id="path118-66"/>
        <path d="m 91.841,38.688 c -0.278,1.468 -1.513,0.783 -2.41,1.639 -0.895,0.856 -0.494,-1.588 -2.028,0.762 -1.539,2.357 -5.029,10.857 -2.619,14.259 2.406,3.402 5.399,6.025 7.132,3.789 1.735,-2.235 2.248,-1.985 4.099,-0.073 1.849,1.906 2.781,1.882 3.331,3.993 0.549,2.11 2.488,4.96 2.477,2.583 -0.013,-2.381 0.544,-4.092 1.15,-3.94 0.608,0.155 1.744,-1.098 1.228,-2.379 -0.517,-1.285 1.77,1.283 0.849,-2.722 -0.915,-4.002 -3.901,-4.16 -5.671,-7.761 -1.773,-3.601 -6.805,-14.091 -7.538,-10.15 z" style="fill:#6f6426;fill-rule:nonzero" id="path120-7"/>
        <path d="m 99.885,17.512 c 0,0 1.584,-6.693 7.873,-5.244 6.292,1.444 10.75,8.842 11.335,13.026 0.587,4.182 2.405,7.227 2.405,7.227 0,0 -4.672,0.237 -6.547,-2.088 -1.879,-2.327 -3.212,0.046 -8.655,-1.643 -5.441,-1.689 -8.326,-9.367 -6.411,-11.278 z" style="fill:#987f2e;fill-rule:nonzero" id="path122-1"/>
        <path d="m 93.356,31.551 c -1.399,4.412 0.565,8.212 5.022,13.13 4.451,4.911 4.251,7.381 9.323,7.28 5.072,-0.101 7.678,-0.3 9.301,1.281 1.627,1.58 3.867,-1.752 1.221,-3.518 -2.646,-1.768 -3.486,-2.871 -3.409,-3.797 0.076,-0.923 -3.012,-9.862 -7.078,-11.953 -4.071,-2.092 -4.74,1.018 -5.858,-2.984 -1.117,-3.999 -1.7,-5.121 -4.199,-4.251 -2.499,0.867 -3.205,1.284 -4.323,4.812 z" style="fill:#987f2e;fill-rule:nonzero" id="path124-4"/>
        <path d="m 136.535,54.658 c -9.079,0.874 -19.907,2.269 -19.907,8.209 0,5.936 -0.177,13.097 -3.145,11.526 -2.967,-1.573 -6.286,-3.8 -4.365,-9.759 1.923,-5.959 2.794,-10.326 19.908,-13.294 17.116,-2.97 4.54,-3.318 2.794,-4.017 -1.745,-0.698 2.62,-5.066 10.478,-0.873 7.859,4.189 25.498,0.699 27.594,11.701 2.096,11.002 -3.146,13.622 -5.065,8.555 -1.92,-5.064 -3.84,-11.001 -10.826,-11.001 -6.987,0 -10.479,0.174 -9.955,4.715 0.524,4.541 4.888,17.115 1.221,18.337 -3.666,1.221 -7.16,0.524 -7.16,-6.984 0,-7.511 -1.572,-17.115 -1.572,-17.115 z" style="fill:#5f551f;fill-rule:nonzero" id="path126-7"/>
        <path d="m 123.618,67.949 c -0.243,2.677 -1.322,3.505 -1.118,5.309 0.206,1.803 -1.919,3.675 -5.324,3.977 -3.406,0.3 -8.644,1.086 -13.621,-1.271 -4.979,-2.357 -8.733,-2.435 -10.042,-4.273 -1.311,-1.837 -1.431,-3.376 -1.938,-2.431 -0.509,0.942 1.85,5.221 4.294,7.054 2.446,1.833 4.801,2.581 10.915,3.866 6.112,1.285 9,1.683 10.697,0.689 1.697,-0.993 5.093,1.467 3.288,2.749 -1.804,1.281 2.167,11.292 5.137,11.644 2.97,0.348 18.928,0.176 27.626,-1.223 8.697,-1.397 5.288,-3.242 6.992,-5.026 1.705,-1.785 1.617,-3.155 1.705,-5.395 0.088,-2.24 -0.874,-5.076 -0.895,-3.605 -0.023,1.468 -3.061,6.855 -9.159,9 -6.098,2.145 -9.764,2.844 -15.965,1.356 -6.2,-1.481 -10.625,-1.657 -10.813,-5.672 -0.189,-4.018 -0.698,-5.308 -1.142,-6.669 -0.445,-1.365 2.632,-4.512 6.419,-5.122 3.789,-0.61 7.286,-1.747 6.709,-1.603 -0.577,0.143 -5.447,-0.133 -7.85,0.388 -2.405,0.519 -4.057,0.413 -2.662,-2.108 1.393,-2.525 5.203,-2.66 0.81,-4.339 -4.394,-1.677 -10.943,-3.373 -10.943,-3.373 0,0 7.386,0.512 6.88,6.078 z" style="fill:#813e20;fill-rule:nonzero" id="path128-76"/>
        <path d="m 186.509,66.185 c -0.957,-2.287 -4.11,9.432 -6.903,9.869 -2.794,0.434 -13.296,-1.018 -16.415,-2.285 -3.12,-1.267 -5.082,-4.633 -5.863,-5.905 -0.781,-1.274 -1.298,0.75 -1.472,1.719 -0.173,0.97 7.772,6.471 9.605,8.042 1.834,1.573 -1.132,3.785 -2.181,4.887 -1.051,1.106 0.522,4.893 -0.178,6.987 -0.697,2.095 6.554,-4.541 9.958,-6.2 3.403,-1.659 3.942,-0.804 9.866,-6.064 5.923,-5.262 5.595,-6.249 3.583,-11.05 z" style="fill:#813e20;fill-rule:nonzero" id="path130-3"/>
        <path d="m 109.684,6.055 c 0,0 5.834,-1.13 8.104,-2.141 2.27,-1.01 7.089,6.337 12.483,25.516 5.394,19.18 4.813,24.214 5.473,22.748 0.658,-1.465 7.803,2.261 -2.609,-31.608 C 128.141,4.327 126.798,-7.345 109.684,6.055 Z" style="fill:#5f551f;fill-rule:nonzero" id="path132-6"/>
        <path d="m 92.912,16.555 c 1.208,5.367 -5.993,3.861 -8.953,4.015 -2.961,0.15 -7.808,1.614 -7.808,1.614 0,0 4.584,-0.945 5.502,-2.908 0.916,-1.96 -0.102,-4.061 2.764,-5.368 2.867,-1.308 7.705,-0.862 8.495,2.647 z" style="fill:#987f2e;fill-rule:nonzero" id="path134-1"/>
        <path d="m 87.284,30.229 c -4.191,-1.65 -4.322,-0.864 -7.858,-1.126 -3.536,-0.261 -4.846,-0.621 -4.584,2.702 0.262,3.323 0.588,6.891 -0.033,8.643 -0.623,1.754 0.426,-0.56 3.962,-3.006 3.536,-2.446 8.513,-7.213 8.513,-7.213 z" style="fill:#987f2e;fill-rule:nonzero" id="path136-4"/>
        <path d="m 91.575,42.753 c 1.05,5.698 2.651,11.688 5.271,13.491 2.62,1.806 -1.694,-3.053 -3.663,-2.589 -1.969,0.464 -3.541,5.632 -5.899,2.589 -2.357,-3.042 3.549,-17.5 4.291,-13.491 z" style="fill:#987f2e;fill-rule:nonzero" id="path138-3"/>
        <path d="m 129.687,22.448 c -1.17,13.462 7.122,27.125 7.422,33.259 0.298,6.14 6.634,4.788 6.438,-1.268 -0.2,-6.054 -6.738,-30.604 -6.438,-39.71 0,0 4.507,-12.82 14.485,-8.674 9.976,4.147 2.09,-2.379 -3.275,-4.604 -6.584,-2.735 -16.437,-4.255 -18.632,20.997 z" style="fill:#5f551f;fill-rule:nonzero" id="path140-1"/>
        <path d="m 179.978,21.351 c 3.646,0.024 4.623,4.417 6.413,2.421 1.788,-1.995 2.257,-1.825 3.749,0.227 1.494,2.054 2.781,-0.25 3.575,1.262 0.794,1.513 2.578,0.088 7.781,-1.888 5.203,-1.973 7.932,-1.269 5.586,-4.507 -2.349,-3.242 -1.323,-1.927 -2.979,-4.652 -1.659,-2.722 -4.852,-5.355 -9.637,-5.758 -4.785,-0.4 -10.904,-2.184 -11.538,2.801 -0.637,4.986 -2.516,5.441 -4.055,5.529 -1.542,0.093 -2.876,4.538 1.105,4.565 z" style="fill:#6f6426;fill-rule:nonzero" id="path142-7"/>
        <path d="m 206.816,48.222 c 3.484,-1.98 4.208,2.106 5.264,4.122 1.058,2.017 4.374,-3.051 2.631,-7.315 -1.749,-4.267 -2.873,-5.415 -2.047,-8.744 0.822,-3.318 -1.064,-10.819 -6.829,-10.128 -5.768,0.686 -6.987,2.693 -7.615,1.277 -0.627,-1.408 -1.833,-1.118 -2.416,0.589 -0.579,1.704 -0.415,2.374 -2.648,0.784 -2.235,-1.59 -8.254,-0.627 -10.499,1.232 -2.248,1.865 4.006,1.282 5.77,3.865 1.764,2.582 1.361,7.37 3.078,6.244 1.715,-1.128 2.188,-1.517 2.967,1.701 0.78,3.212 3.699,5.914 4.814,5.502 1.111,-0.412 4.909,2.356 7.53,0.871 z" style="fill:#6f6426;fill-rule:nonzero" id="path144-4"/>
        <path d="m 141.735,0.002 c 0,0 18.195,1.512 29.141,11.645 10.944,10.134 15.633,16.998 17.491,24.646 1.855,7.643 4.974,14.346 4.974,14.346 0,0 -4.79,1.328 -6.6,-4.812 -1.816,-6.144 -1.183,-10.56 -8.905,-19.552 -7.725,-8.995 -10.398,-14.739 -24.877,-19.96 -14.48,-5.225 -16.614,4.107 -16.183,-0.26 0.434,-4.367 4.959,-6.053 4.959,-6.053 z" style="fill:#5f551f;fill-rule:nonzero" id="path146-6"/>
        <path d="m 189.636,45.326 c 0.668,1.884 2.161,0.714 3.531,1.664 1.364,0.95 0.315,-2.208 2.84,0.589 2.527,2.794 8.915,13.318 6.437,18.327 -2.479,5.004 -5.888,9.1 -8.651,6.504 -2.759,-2.597 -3.392,-2.16 -5.442,0.754 -2.048,2.911 -3.289,3.068 -3.577,5.98 -0.287,2.91 -2.26,7.086 -2.74,3.933 -0.479,-3.151 -1.571,-5.3 -2.343,-4.973 -0.772,0.332 -2.537,-1.089 -2.121,-2.894 0.414,-1.804 -2.077,2.068 -1.695,-3.425 0.385,-5.488 4.3,-6.316 5.896,-11.455 1.593,-5.134 6.065,-20.075 7.865,-15.004 z" style="fill:#6f6426;fill-rule:nonzero" id="path148-0"/>
        <path d="m 174.569,18.971 c 0,0 -3.486,-8.528 -11.515,-5.308 -8.026,3.231 -12.383,13.951 -12.289,19.609 0.098,5.659 -1.676,10.065 -1.676,10.065 0,0 6.234,-0.656 8.235,-4.124 1.997,-3.471 4.253,-0.607 11.11,-3.978 6.853,-3.369 9.071,-14.133 6.135,-16.264 z" style="fill:#6f6426;fill-rule:nonzero" id="path150-8"/>
        <path d="m 186.14,36.193 c 2.771,5.547 0.961,10.989 -3.911,18.426 -4.873,7.432 -4.087,10.654 -10.827,11.577 -6.737,0.923 -10.22,1.206 -12.046,3.633 -1.823,2.432 -5.482,-1.511 -2.35,-4.404 3.136,-2.89 4.02,-4.525 3.725,-5.73 -0.292,-1.208 1.934,-13.685 6.886,-17.297 4.943,-3.619 6.476,0.355 7.125,-5.171 0.645,-5.53 1.183,-7.134 4.67,-6.507 3.489,0.629 4.515,1.039 6.728,5.473 z" style="fill:#6f6426;fill-rule:nonzero" id="path152-5"/>
        <path d="m 142.833,4.222 c -2.547,1.758 -4.987,13.647 -2.688,17.536 2.3,3.889 5.365,9.543 5.365,9.543 0,0 3.624,-1.02 2.623,-10.934 -1,-9.915 -5.3,-16.145 -5.3,-16.145 z" style="fill:#6f6426;fill-rule:nonzero" id="path154-3"/>
        <path d="m 129.258,16.656 c 0,0 -7.198,1.727 -7.235,10.819 -0.036,9.09 -4.968,15.754 -7.568,19.408 -2.599,3.652 -2.801,4.388 1.143,8.472 3.944,4.085 1.076,-3.581 5.311,-7.399 4.233,-3.824 5.382,-7.448 4.889,-10.818 -0.494,-3.369 -1.118,-7.21 -1.118,-7.21 l 3.43,7.21 c 0,0 3.784,14.685 4.68,14.999 0.897,0.317 5.219,-11.586 1.748,-16.898 -3.471,-5.314 -8.563,-5.178 -7.152,-9.175 1.412,-3.997 3.992,-6.183 4.983,-5.442 0.99,0.741 2.318,-4.871 -3.111,-3.966 z" style="fill:#b8a132;fill-rule:nonzero" id="path156-8"/>
        <path d="m 170.379,20.57 c -0.448,1.154 -5.974,6.823 -8.712,7.567 -2.738,0.749 -7.399,7.212 -7.775,9.305 -0.376,2.094 -0.321,-5.011 0,-9.055 0.322,-4.044 7.642,-12.324 11.142,-12.724 3.498,-0.398 5.345,4.907 5.345,4.907 z" style="fill:#987f2e;fill-rule:nonzero" id="path158-44"/>
        <path d="m 181.181,35.657 c 0.271,3.182 -0.596,10.403 -3.828,11.944 -3.231,1.541 -6.797,5.993 -7.023,6.823 -0.226,0.829 -8.448,-4.12 -5.296,-6.533 3.15,-2.416 11.006,-4.281 11.793,-8.502 0.788,-4.216 3.904,-9.014 4.354,-3.732 z" style="fill:#987f2e;fill-rule:nonzero" id="path160-6"/>
        <path d="m 191.585,49.628 c 0,4.053 2.886,7.959 -0.916,9.673 -3.8,1.715 -7.815,5.382 -8.164,8.002 -0.352,2.62 3.992,-9.45 4.004,-14.504 0.012,-5.053 5.076,-3.171 5.076,-3.171 z" style="fill:#987f2e;fill-rule:nonzero" id="path162-5"/>
        <path d="m 88.266,86.606 c -0.941,3.404 -3.302,4.698 -11.947,4.363 -8.643,-0.336 -14.28,-0.372 -16.966,-1.72 -2.685,-1.345 -6.511,-2.978 -3.76,-0.441 2.75,2.539 5.447,3.948 13.044,5.199 7.596,1.253 16.299,-1.405 19.806,-3.699 3.508,-2.294 3.767,-0.925 5.95,0.661 2.185,1.583 6.016,2.924 5.41,-1.543 -0.607,-4.47 -9.897,-8.766 -11.537,-2.82 z" style="fill:#813e20;fill-rule:nonzero" id="path164-04"/>
        <path d="M 93.788,105.093 C 82.704,96.947 77.851,98.98 74.87,100.727 c -2.98,1.747 -7.173,0 -11.888,3.667 -4.715,3.668 -7.641,15.725 7.705,18.08 15.346,2.352 35.397,-8.345 23.101,-17.381 z" style="fill:#e1a23b;fill-rule:nonzero" id="path166-0"/>
        <path d="m 110.133,86.638 c -9.788,0.062 -7.6,1.865 -12.532,3.96 -4.932,2.096 -6.013,3.716 -3.813,8.932 2.201,5.214 15.822,8.924 22.633,7.242 6.81,-1.679 12.224,-20.248 -6.288,-20.134 z" style="fill:#e1a23b;fill-rule:nonzero" id="path168-7"/>
        <path d="m 56.707,93.219 c -9.286,-3.109 -2.027,-2.89 -13.809,0 -11.782,2.888 -22.214,4.983 -8.661,11.657 13.553,6.678 25.199,2.66 24.963,-0.83 -0.234,-3.493 7.106,-7.617 -2.493,-10.827 z" style="fill:#e1a23b;fill-rule:nonzero" id="path170-1"/>
        <path d="m 66.567,74.601 c -9.111,2.243 -16.249,10.527 -10.371,13.55 5.878,3.022 6.607,3.116 16.823,3.744 10.22,0.625 17.402,-3.253 14.934,-8.386 -2.468,-5.133 -8.192,-12.157 -21.386,-8.908 z" style="fill:#e1a23b;fill-rule:nonzero" id="path172-1"/>
        <path d="m 71.248,104.394 c -3.026,0.35 -4.25,3.839 -3.115,5.934 1.135,2.1 2.796,6.816 13.185,4.632 10.391,-2.183 15.716,-6.375 10.391,-8.555 -5.325,-2.185 -1.048,-0.612 -6.548,1.394 -5.502,2.01 -8.592,4.695 -11.281,1.387 -2.69,-3.307 -2.253,-4.792 -2.253,-4.792 z" style="fill:#f3ba68;fill-rule:nonzero" id="path174-4"/>
        <path d="m 114.761,89.638 c -0.119,0.004 -0.235,-0.004 -0.351,0 -5.014,0.067 -5.858,3.457 -6.198,7.273 -0.349,3.903 2.622,8.182 8.035,3.379 5.412,-4.802 6.285,-10.914 -1.486,-10.652 z" style="fill:#f3ba68;fill-rule:nonzero" id="path176-7"/>
        <path d="m 40.103,95.052 c -5.567,0.585 -13.796,4.454 -7.595,6.983 6.201,2.536 12.173,3.394 12.244,-0.395 0.072,-3.791 2.269,-7.315 -4.649,-6.588 z" style="fill:#f3ba68;fill-rule:nonzero" id="path178-9"/>
        <path d="m 70.316,115.523 c -2.53,0.572 -2.871,2.643 -1.216,3.353 1.652,0.71 1.216,-3.353 1.216,-3.353 z" style="fill:#a86e28;fill-rule:nonzero" id="path180-2"/>
        <path d="m 92.649,110.128 c -2.53,0.569 -2.87,2.64 -1.215,3.353 1.652,0.712 1.215,-3.353 1.215,-3.353 z" style="fill:#a86e28;fill-rule:nonzero" id="path182-3"/>
        <path d="m 66.487,105.056 c -2.53,0.569 -2.871,2.64 -1.217,3.354 1.654,0.71 1.217,-3.354 1.217,-3.354 z" style="fill:#a86e28;fill-rule:nonzero" id="path184-1"/>
        <path d="m 55.145,102 c -2.53,0.569 -2.87,2.641 -1.217,3.351 1.654,0.712 1.217,-3.351 1.217,-3.351 z" style="fill:#a86e28;fill-rule:nonzero" id="path186-6"/>
        <path d="m 44.701,103.717 c -2.531,0.571 -2.872,2.642 -1.218,3.354 1.653,0.709 1.218,-3.354 1.218,-3.354 z" style="fill:#a86e28;fill-rule:nonzero" id="path188-2"/>
        <path d="m 56.287,95.193 c -2.53,0.569 -2.871,2.639 -1.217,3.351 1.654,0.713 1.217,-3.351 1.217,-3.351 z" style="fill:#a86e28;fill-rule:nonzero" id="path190-0"/>
        <path d="m 63.896,86.192 c -2.531,0.571 -2.87,2.642 -1.217,3.352 1.654,0.712 1.217,-3.352 1.217,-3.352 z" style="fill:#a86e28;fill-rule:nonzero" id="path192-6"/>
        <path d="m 68.033,77.242 c -2.532,0.57 -2.871,2.641 -1.218,3.351 1.655,0.711 1.218,-3.351 1.218,-3.351 z" style="fill:#a86e28;fill-rule:nonzero" id="path194-2"/>
        <path d="m 82.266,84.921 c -2.532,0.571 -2.872,2.643 -1.217,3.354 1.653,0.712 1.217,-3.354 1.217,-3.354 z" style="fill:#a86e28;fill-rule:nonzero" id="path196-5"/>
        <path d="m 97.884,97.813 c -2.532,0.568 -2.871,2.64 -1.218,3.351 1.653,0.711 1.218,-3.351 1.218,-3.351 z" style="fill:#a86e28;fill-rule:nonzero" id="path198-7"/>
        <path d="m 110.418,102 c -2.532,0.569 -2.871,2.641 -1.217,3.351 1.652,0.712 1.217,-3.351 1.217,-3.351 z" style="fill:#a86e28;fill-rule:nonzero" id="path200-8"/>
        <path d="m 108.83,89.249 c -2.532,0.571 -2.871,2.643 -1.218,3.353 1.655,0.712 1.218,-3.353 1.218,-3.353 z" style="fill:#a86e28;fill-rule:nonzero" id="path202-7"/>
        <path d="m 122.376,96.584 c -2.532,0.571 -2.872,2.643 -1.217,3.352 1.652,0.713 1.217,-3.352 1.217,-3.352 z" style="fill:#a86e28;fill-rule:nonzero" id="path204-8"/>
        <path d="m 32.442,49.842 c -2.682,0.443 -2.896,3.79 -4.447,2.529 -1.547,-1.265 -1.875,-1.082 -2.736,0.602 -0.862,1.687 -2.08,0.14 -2.489,1.347 -0.41,1.206 -1.893,0.363 -5.957,-0.49 -4.059,-0.853 -5.993,-0.012 -4.638,-2.675 1.356,-2.66 0.75,-1.572 1.656,-3.773 0.902,-2.199 2.953,-4.514 6.434,-5.361 3.482,-0.856 7.783,-2.878 8.834,0.723 1.048,3.597 2.484,3.722 3.63,3.606 1.143,-0.108 2.651,3.009 -0.287,3.492 z" style="fill:#6f6426;fill-rule:nonzero" id="path206-13"/>
        <path d="m 15.776,72.768 c -2.8,-1.057 -2.857,2.038 -3.404,3.648 -0.542,1.609 -3.575,-1.743 -2.785,-5.089 0.792,-3.347 1.487,-4.322 0.493,-6.678 -0.991,-2.355 -0.473,-8.103 3.862,-8.267 4.329,-0.158 5.46,1.175 5.757,0.063 0.298,-1.114 1.221,-1.035 1.853,0.151 0.622,1.191 0.582,1.704 2.041,0.272 1.464,-1.431 6.009,-1.417 7.884,-0.31 1.873,1.112 -2.804,1.408 -3.803,3.517 -1.001,2.111 -0.152,5.594 -1.548,4.963 -1.393,-0.634 -1.786,-0.867 -1.99,1.598 -0.202,2.457 -2.039,4.788 -2.908,4.614 -0.868,-0.175 -3.349,2.309 -5.452,1.518 z" style="fill:#6f6426;fill-rule:nonzero" id="path208-0"/>
        <path d="m 59.2,31.399 c 0,0 -14.278,1.489 -21.171,10.232 -6.896,8.74 -9.553,14.347 -10.035,20.199 -0.484,5.853 -2.004,11.157 -2.004,11.157 0,0 3.689,0.421 4.309,-4.317 0.626,-4.737 -0.356,-7.92 4.296,-15.447 4.65,-7.527 5.953,-12.07 16.02,-17.6 10.07,-5.533 13.017,3.551 12.192,0.381 C 61.985,32.831 59.2,31.399 59.2,31.399 Z" style="fill:#5f551f;fill-rule:nonzero" id="path210-9"/>
        <path d="m 28.107,68.638 c -0.276,1.465 -1.512,0.779 -2.407,1.635 -0.897,0.856 -0.495,-1.586 -2.028,0.762 -1.539,2.356 -5.03,10.86 -2.62,14.258 2.406,3.404 5.398,6.028 7.132,3.793 1.735,-2.235 2.248,-1.985 4.098,-0.073 1.85,1.904 2.781,1.878 3.331,3.989 0.549,2.114 2.488,4.962 2.478,2.583 -0.013,-2.377 0.545,-4.09 1.149,-3.937 0.61,0.154 1.744,-1.096 1.23,-2.379 -0.518,-1.284 1.768,1.283 0.847,-2.721 -0.913,-4.004 -3.9,-4.163 -5.67,-7.764 -1.772,-3.6 -6.805,-14.088 -7.54,-10.146 z" style="fill:#6f6426;fill-rule:nonzero" id="path212-7"/>
        <path d="m 36.152,47.459 c 0,0 1.585,-6.691 7.873,-5.245 6.293,1.448 10.751,8.843 11.335,13.028 0.588,4.181 2.406,7.226 2.406,7.226 0,0 -4.673,0.238 -6.547,-2.089 -1.879,-2.326 -3.211,0.048 -8.654,-1.642 -5.443,-1.687 -8.328,-9.365 -6.413,-11.278 z" style="fill:#987f2e;fill-rule:nonzero" id="path214-8"/>
        <path d="m 29.625,61.499 c -1.401,4.411 0.563,8.21 5.021,13.131 4.453,4.91 4.25,7.379 9.324,7.28 5.072,-0.101 7.677,-0.301 9.299,1.278 1.627,1.58 3.869,-1.753 1.222,-3.519 -2.645,-1.765 -3.485,-2.871 -3.41,-3.795 0.076,-0.923 -3.012,-9.86 -7.078,-11.952 -4.07,-2.092 -4.739,1.015 -5.858,-2.985 -1.117,-3.997 -1.7,-5.119 -4.198,-4.251 -2.499,0.868 -3.206,1.285 -4.322,4.813 z" style="fill:#987f2e;fill-rule:nonzero" id="path216-2"/>
        <path d="m 72.803,84.604 c -9.079,0.875 -19.909,2.271 -19.909,8.208 0,5.938 -0.175,13.098 -3.142,11.526 -2.968,-1.571 -6.288,-3.795 -4.365,-9.757 1.922,-5.961 2.793,-10.325 19.908,-13.296 17.114,-2.967 4.54,-3.316 2.793,-4.016 -1.745,-0.697 2.619,-5.063 10.478,-0.871 7.86,4.191 25.497,0.697 27.593,11.699 2.096,11.002 -3.146,13.623 -5.065,8.557 -1.919,-5.063 -3.839,-11.003 -10.826,-11.003 -6.986,0 -10.478,0.176 -9.955,4.717 0.526,4.541 4.891,17.117 1.222,18.335 -3.667,1.224 -7.161,0.526 -7.161,-6.985 0,-7.508 -1.571,-17.114 -1.571,-17.114 z" style="fill:#5f551f;fill-rule:nonzero" id="path218-7"/>
        <path d="m 59.886,97.899 c -0.244,2.677 -1.323,3.503 -1.118,5.306 0.206,1.803 -1.918,3.675 -5.325,3.976 -3.405,0.304 -8.643,1.089 -13.622,-1.269 -4.976,-2.358 -8.731,-2.435 -10.042,-4.272 -1.309,-1.841 -1.429,-3.378 -1.937,-2.435 -0.508,0.945 1.85,5.221 4.296,7.055 2.446,1.834 4.8,2.581 10.913,3.868 6.113,1.285 9.001,1.682 10.698,0.688 1.696,-0.99 5.094,1.468 3.288,2.75 -1.805,1.28 2.166,11.293 5.137,11.643 2.969,0.349 18.927,0.176 27.625,-1.222 8.699,-1.397 5.289,-3.243 6.993,-5.027 1.706,-1.784 1.617,-3.157 1.706,-5.394 0.087,-2.24 -0.875,-5.075 -0.897,-3.606 -0.022,1.47 -3.06,6.856 -9.158,9 -6.098,2.145 -9.763,2.846 -15.966,1.36 -6.2,-1.487 -10.625,-1.66 -10.813,-5.678 -0.188,-4.016 -0.697,-5.305 -1.142,-6.669 -0.444,-1.363 2.633,-4.508 6.419,-5.118 3.789,-0.61 7.286,-1.75 6.709,-1.607 -0.577,0.143 -5.445,-0.129 -7.849,0.392 -2.405,0.518 -4.057,0.411 -2.663,-2.11 1.393,-2.525 5.204,-2.66 0.811,-4.337 -4.395,-1.681 -10.944,-3.374 -10.944,-3.374 0,0 7.386,0.51 6.881,6.08 z" style="fill:#813e20;fill-rule:nonzero" id="path220-4"/>
        <path d="m 122.776,96.133 c -0.957,-2.287 -4.109,9.432 -6.901,9.866 -2.795,0.437 -13.297,-1.017 -16.416,-2.282 -3.118,-1.267 -5.081,-4.631 -5.863,-5.904 -0.783,-1.276 -1.298,0.747 -1.471,1.717 -0.174,0.969 7.77,6.469 9.603,8.042 1.834,1.573 -1.131,3.786 -2.181,4.888 -1.049,1.106 0.521,4.892 -0.176,6.988 -0.697,2.095 6.554,-4.543 9.956,-6.201 3.403,-1.657 3.944,-0.802 9.866,-6.066 5.923,-5.263 5.595,-6.247 3.583,-11.048 z" style="fill:#813e20;fill-rule:nonzero" id="path222-79"/>
        <path d="m 45.951,36.004 c 0,0 5.834,-1.13 8.105,-2.141 2.269,-1.011 7.088,6.336 12.482,25.517 5.396,19.179 4.814,24.209 5.473,22.746 0.659,-1.464 7.803,2.261 -2.61,-31.611 C 64.409,34.272 63.066,22.603 45.951,36.004 Z" style="fill:#5f551f;fill-rule:nonzero" id="path224-2"/>
        <path d="m 29.181,46.502 c 1.207,5.367 -5.994,3.86 -8.954,4.013 -2.961,0.154 -7.809,1.614 -7.809,1.614 0,0 4.585,-0.944 5.502,-2.906 0.917,-1.96 -0.102,-4.06 2.764,-5.368 2.868,-1.307 7.706,-0.861 8.497,2.647 z" style="fill:#987f2e;fill-rule:nonzero" id="path226-4"/>
        <path d="m 23.552,60.177 c -4.192,-1.649 -4.323,-0.864 -7.859,-1.125 -3.535,-0.263 -4.845,-0.622 -4.584,2.7 0.263,3.324 0.59,6.889 -0.032,8.643 -0.623,1.755 0.426,-0.558 3.962,-3.006 3.536,-2.444 8.513,-7.212 8.513,-7.212 z" style="fill:#987f2e;fill-rule:nonzero" id="path228-3"/>
        <path d="m 27.842,72.702 c 1.051,5.694 2.652,11.685 5.271,13.49 2.619,1.805 -1.695,-3.054 -3.662,-2.591 -1.969,0.467 -3.542,5.633 -5.899,2.591 -2.356,-3.04 3.549,-17.501 4.29,-13.49 z" style="fill:#987f2e;fill-rule:nonzero" id="path230-3"/>
        <path d="m 65.956,52.396 c -1.17,13.463 7.122,27.124 7.42,33.262 0.299,6.136 6.636,4.788 6.438,-1.271 -0.2,-6.057 -6.736,-30.605 -6.438,-39.712 0,0 4.509,-12.819 14.485,-8.671 9.977,4.146 2.089,-2.378 -3.273,-4.605 -6.585,-2.733 -16.439,-4.257 -18.632,20.997 z" style="fill:#5f551f;fill-rule:nonzero" id="path232-3"/>
        <path d="m 116.247,51.299 c 3.645,0.023 4.622,4.417 6.41,2.42 1.79,-1.997 2.259,-1.826 3.751,0.228 1.492,2.053 2.781,-0.249 3.575,1.262 0.794,1.514 2.578,0.087 7.782,-1.89 5.203,-1.972 7.93,-1.265 5.584,-4.506 -2.348,-3.239 -1.322,-1.926 -2.978,-4.652 -1.658,-2.722 -4.852,-5.354 -9.638,-5.759 -4.783,-0.4 -10.903,-2.185 -11.538,2.801 -0.636,4.99 -2.515,5.442 -4.053,5.532 -1.543,0.091 -2.877,4.536 1.105,4.564 z" style="fill:#6f6426;fill-rule:nonzero" id="path234-4"/>
        <path d="m 143.084,78.168 c 3.483,-1.979 4.209,2.111 5.265,4.121 1.057,2.019 4.372,-3.046 2.628,-7.312 -1.747,-4.268 -2.871,-5.415 -2.045,-8.742 0.823,-3.32 -1.065,-10.823 -6.831,-10.133 -5.766,0.69 -6.985,2.693 -7.614,1.279 -0.626,-1.408 -1.834,-1.116 -2.416,0.59 -0.578,1.702 -0.414,2.374 -2.648,0.781 -2.235,-1.588 -8.253,-0.626 -10.498,1.235 -2.248,1.862 4.006,1.282 5.769,3.865 1.765,2.583 1.362,7.369 3.078,6.243 1.715,-1.126 2.19,-1.515 2.967,1.7 0.779,3.215 3.699,5.916 4.814,5.504 1.112,-0.414 4.91,2.356 7.531,0.869 z" style="fill:#6f6426;fill-rule:nonzero" id="path236-7"/>
        <path d="m 78.003,29.948 c 0,0 18.193,1.512 29.14,11.645 10.945,10.134 15.633,17 17.492,24.646 1.854,7.645 4.972,14.35 4.972,14.35 0,0 -4.788,1.326 -6.599,-4.815 -1.815,-6.145 -1.183,-10.557 -8.904,-19.55 -7.725,-8.997 -10.398,-14.739 -24.878,-19.963 -14.479,-5.223 -16.613,4.111 -16.182,-0.257 0.432,-4.366 4.959,-6.056 4.959,-6.056 z" style="fill:#5f551f;fill-rule:nonzero" id="path238-0"/>
        <path d="m 125.904,75.273 c 0.667,1.886 2.161,0.716 3.53,1.665 1.365,0.947 0.316,-2.21 2.841,0.59 2.527,2.795 8.915,13.318 6.438,18.324 -2.481,5.006 -5.889,9.103 -8.654,6.504 -2.757,-2.596 -3.388,-2.157 -5.441,0.757 -2.047,2.909 -3.288,3.066 -3.576,5.98 -0.287,2.909 -2.26,7.085 -2.74,3.933 -0.48,-3.152 -1.571,-5.3 -2.342,-4.972 -0.773,0.327 -2.536,-1.092 -2.122,-2.896 0.413,-1.804 -2.077,2.068 -1.695,-3.424 0.382,-5.49 4.3,-6.319 5.896,-11.456 1.593,-5.136 6.064,-20.073 7.865,-15.005 z" style="fill:#6f6426;fill-rule:nonzero" id="path240-7"/>
        <path d="m 110.837,48.916 c 0,0 -3.486,-8.528 -11.516,-5.303 -8.025,3.227 -12.384,13.949 -12.288,19.605 0.098,5.661 -1.677,10.069 -1.677,10.069 0,0 6.235,-0.66 8.236,-4.128 1.997,-3.468 4.253,-0.608 11.11,-3.975 6.853,-3.37 9.07,-14.136 6.135,-16.268 z" style="fill:#6f6426;fill-rule:nonzero" id="path242-8"/>
        <path d="m 122.407,66.14 c 2.772,5.547 0.964,10.988 -3.909,18.426 -4.873,7.432 -4.089,10.653 -10.828,11.576 -6.737,0.925 -10.221,1.205 -12.046,3.635 -1.823,2.431 -5.482,-1.51 -2.349,-4.405 3.135,-2.891 4.02,-4.526 3.725,-5.732 -0.294,-1.204 1.933,-13.681 6.884,-17.297 4.943,-3.618 6.477,0.359 7.126,-5.169 0.644,-5.527 1.182,-7.132 4.67,-6.506 3.489,0.63 4.514,1.039 6.727,5.472 z" style="fill:#6f6426;fill-rule:nonzero" id="path244-9"/>
        <path d="m 79.101,34.169 c -2.547,1.756 -4.988,13.646 -2.688,17.535 2.3,3.889 5.364,9.544 5.364,9.544 0,0 3.625,-1.018 2.623,-10.935 -1,-9.913 -5.299,-16.144 -5.299,-16.144 z" style="fill:#6f6426;fill-rule:nonzero" id="path246-2"/>
        <path d="m 65.525,46.602 c 0,0 -7.196,1.73 -7.234,10.82 -0.036,9.089 -4.968,15.755 -7.567,19.407 -2.599,3.654 -2.801,4.389 1.142,8.476 3.943,4.084 1.075,-3.583 5.31,-7.403 4.235,-3.821 5.383,-7.448 4.889,-10.817 -0.492,-3.368 -1.117,-7.211 -1.117,-7.211 l 3.429,7.211 c 0,0 3.784,14.686 4.682,15.002 0.895,0.315 5.217,-11.59 1.748,-16.9 -3.472,-5.313 -8.565,-5.18 -7.154,-9.177 1.411,-3.994 3.992,-6.18 4.984,-5.44 0.991,0.742 2.318,-4.87 -3.112,-3.968 z" style="fill:#b8a132;fill-rule:nonzero" id="path248-7"/>
        <path d="m 106.646,50.515 c -0.448,1.156 -5.973,6.823 -8.712,7.57 -2.738,0.747 -7.398,7.21 -7.773,9.304 -0.379,2.096 -0.322,-5.011 0,-9.055 0.32,-4.043 7.641,-12.324 11.14,-12.724 3.499,-0.399 5.345,4.905 5.345,4.905 z" style="fill:#987f2e;fill-rule:nonzero" id="path250-5"/>
        <path d="m 117.448,65.602 c 0.272,3.184 -0.596,10.407 -3.826,11.946 -3.232,1.543 -6.8,5.994 -7.025,6.822 -0.225,0.832 -8.448,-4.116 -5.296,-6.532 3.152,-2.413 11.007,-4.283 11.795,-8.502 0.786,-4.217 3.901,-9.013 4.352,-3.734 z" style="fill:#987f2e;fill-rule:nonzero" id="path252-9"/>
        <path d="m 127.851,79.574 c 0,4.056 2.887,7.961 -0.913,9.675 -3.801,1.715 -7.816,5.384 -8.166,8.003 -0.351,2.618 3.993,-9.452 4.004,-14.507 0.013,-5.052 5.075,-3.171 5.075,-3.171 z" style="fill:#987f2e;fill-rule:nonzero" id="path254-0"/>
        <path d="m 217.666,94.392 c -0.94,3.399 -3.302,4.694 -11.946,4.358 -8.644,-0.337 -14.281,-0.373 -16.966,-1.717 -2.685,-1.345 -6.512,-2.981 -3.762,-0.441 2.752,2.537 5.448,3.946 13.045,5.198 7.597,1.252 16.299,-1.404 19.806,-3.699 3.508,-2.297 3.767,-0.926 5.952,0.659 2.183,1.587 6.014,2.925 5.409,-1.544 -0.606,-4.466 -9.897,-8.762 -11.538,-2.814 z" style="fill:#813e20;fill-rule:nonzero" id="path256-4"/>
        <path d="m 223.188,112.874 c -11.084,-8.144 -15.936,-6.11 -18.918,-4.365 -2.981,1.745 -7.171,0 -11.887,3.666 -4.716,3.669 -7.643,15.728 7.706,18.081 15.345,2.352 35.395,-8.345 23.099,-17.382 z" style="fill:#e1a23b;fill-rule:nonzero" id="path258-5"/>
        <path d="m 239.534,94.424 c -9.788,0.06 -7.6,1.861 -12.532,3.957 -4.933,2.097 -6.014,3.716 -3.814,8.931 2.201,5.215 15.823,8.924 22.633,7.244 6.812,-1.682 12.225,-20.251 -6.287,-20.132 z" style="fill:#e1a23b;fill-rule:nonzero" id="path260-8"/>
        <path d="m 186.107,101.001 c -9.287,-3.109 -2.028,-2.889 -13.809,0 -11.781,2.89 -22.213,4.983 -8.66,11.661 13.551,6.674 25.199,2.659 24.963,-0.835 -0.235,-3.492 7.106,-7.614 -2.494,-10.826 z" style="fill:#e1a23b;fill-rule:nonzero" id="path262-6"/>
        <path d="m 195.969,82.383 c -9.112,2.245 -16.25,10.527 -10.373,13.55 5.878,3.022 6.606,3.115 16.824,3.742 10.22,0.626 17.401,-3.25 14.934,-8.383 -2.468,-5.133 -8.194,-12.156 -21.385,-8.909 z" style="fill:#e1a23b;fill-rule:nonzero" id="path264-74"/>
        <path d="m 200.648,112.179 c -3.026,0.348 -4.251,3.835 -3.114,5.934 1.135,2.096 2.795,6.811 13.186,4.631 10.389,-2.183 15.714,-6.375 10.389,-8.559 -5.325,-2.183 -1.049,-0.611 -6.549,1.398 -5.501,2.006 -8.591,4.692 -11.281,1.385 -2.687,-3.308 -2.252,-4.789 -2.252,-4.789 z" style="fill:#f3ba68;fill-rule:nonzero" id="path266-72"/>
        <path d="m 244.16,97.419 c -0.117,0.003 -0.234,0 -0.349,0 -5.014,0.069 -5.859,3.459 -6.2,7.273 -0.346,3.905 2.622,8.182 8.036,3.381 5.412,-4.8 6.285,-10.916 -1.487,-10.654 z" style="fill:#f3ba68;fill-rule:nonzero" id="path268-0"/>
        <path d="m 169.505,102.834 c -5.569,0.585 -13.797,4.453 -7.597,6.988 6.201,2.529 12.173,3.387 12.244,-0.401 0.072,-3.791 2.27,-7.312 -4.647,-6.587 z" style="fill:#f3ba68;fill-rule:nonzero" id="path270-9"/>
        <path d="m 199.718,123.307 c -2.533,0.569 -2.872,2.641 -1.219,3.353 1.654,0.712 1.219,-3.353 1.219,-3.353 z" style="fill:#a86e28;fill-rule:nonzero" id="path272-73"/>
        <path d="m 222.052,117.91 c -2.533,0.572 -2.872,2.642 -1.219,3.353 1.653,0.711 1.219,-3.353 1.219,-3.353 z" style="fill:#a86e28;fill-rule:nonzero" id="path274-5"/>
        <path d="m 195.889,112.837 c -2.532,0.571 -2.872,2.643 -1.218,3.353 1.653,0.713 1.218,-3.353 1.218,-3.353 z" style="fill:#a86e28;fill-rule:nonzero" id="path276-8"/>
        <path d="m 184.548,109.781 c -2.532,0.572 -2.872,2.644 -1.22,3.353 1.654,0.71 1.22,-3.353 1.22,-3.353 z" style="fill:#a86e28;fill-rule:nonzero" id="path278-4"/>
        <path d="m 174.101,111.499 c -2.532,0.572 -2.871,2.643 -1.217,3.352 1.653,0.713 1.217,-3.352 1.217,-3.352 z" style="fill:#a86e28;fill-rule:nonzero" id="path280-27"/>
        <path d="m 185.687,102.973 c -2.529,0.573 -2.87,2.645 -1.216,3.354 1.653,0.71 1.216,-3.354 1.216,-3.354 z" style="fill:#a86e28;fill-rule:nonzero" id="path282-2"/>
        <path d="m 193.298,93.975 c -2.531,0.571 -2.871,2.643 -1.219,3.353 1.654,0.711 1.219,-3.353 1.219,-3.353 z" style="fill:#a86e28;fill-rule:nonzero" id="path284-0"/>
        <path d="m 197.434,85.024 c -2.533,0.571 -2.872,2.642 -1.218,3.354 1.654,0.71 1.218,-3.354 1.218,-3.354 z" style="fill:#a86e28;fill-rule:nonzero" id="path286-5"/>
        <path d="m 211.667,92.703 c -2.531,0.573 -2.871,2.643 -1.219,3.354 1.654,0.712 1.219,-3.354 1.219,-3.354 z" style="fill:#a86e28;fill-rule:nonzero" id="path288-48"/>
        <path d="m 227.284,105.593 c -2.532,0.572 -2.871,2.645 -1.218,3.354 1.654,0.711 1.218,-3.354 1.218,-3.354 z" style="fill:#a86e28;fill-rule:nonzero" id="path290-4"/>
        <path d="m 239.819,109.781 c -2.532,0.572 -2.872,2.644 -1.218,3.353 1.653,0.71 1.218,-3.353 1.218,-3.353 z" style="fill:#a86e28;fill-rule:nonzero" id="path292-5"/>
        <path d="m 238.231,97.033 c -2.532,0.572 -2.872,2.642 -1.218,3.353 1.654,0.711 1.218,-3.353 1.218,-3.353 z" style="fill:#a86e28;fill-rule:nonzero" id="path294-8"/>
        <path d="m 251.776,104.367 c -2.532,0.572 -2.871,2.642 -1.217,3.355 1.654,0.71 1.217,-3.355 1.217,-3.355 z" style="fill:#a86e28;fill-rule:nonzero" id="path296-1"/>
        <path d="m 161.843,57.624 c -2.683,0.443 -2.897,3.793 -4.448,2.533 -1.546,-1.269 -1.874,-1.085 -2.735,0.601 -0.862,1.686 -2.08,0.136 -2.489,1.343 -0.408,1.207 -1.894,0.364 -5.957,-0.487 -4.061,-0.853 -5.992,-0.017 -4.639,-2.677 1.357,-2.661 0.751,-1.569 1.657,-3.771 0.903,-2.201 2.953,-4.513 6.433,-5.365 3.482,-0.853 7.785,-2.875 8.833,0.727 1.051,3.6 2.485,3.72 3.632,3.606 1.143,-0.11 2.649,3.01 -0.287,3.49 z" style="fill:#6f6426;fill-rule:nonzero" id="path298-2"/>
        <path d="m 145.176,80.552 c -2.799,-1.057 -2.857,2.039 -3.404,3.649 -0.541,1.605 -3.575,-1.747 -2.786,-5.089 0.793,-3.348 1.49,-4.325 0.495,-6.68 -0.991,-2.358 -0.473,-8.105 3.862,-8.264 4.33,-0.159 5.459,1.173 5.757,0.058 0.297,-1.112 1.221,-1.036 1.852,0.153 0.621,1.189 0.582,1.704 2.041,0.272 1.464,-1.429 6.009,-1.418 7.886,-0.309 1.871,1.11 -2.806,1.41 -3.806,3.517 -1,2.108 -0.149,5.593 -1.547,4.961 -1.392,-0.634 -1.786,-0.864 -1.99,1.599 -0.2,2.457 -2.039,4.79 -2.908,4.614 -0.867,-0.176 -3.349,2.309 -5.452,1.519 z" style="fill:#6f6426;fill-rule:nonzero" id="path300-5"/>
        <path d="m 188.601,39.181 c 0,0 -14.278,1.492 -21.171,10.232 -6.897,8.743 -9.553,14.346 -10.037,20.2 -0.483,5.852 -2.002,11.156 -2.002,11.156 0,0 3.69,0.422 4.309,-4.318 0.624,-4.736 -0.356,-7.918 4.295,-15.446 4.65,-7.524 5.953,-12.072 16.021,-17.602 10.071,-5.529 13.018,3.553 12.191,0.382 -0.82,-3.168 -3.606,-4.604 -3.606,-4.604 z" style="fill:#5f551f;fill-rule:nonzero" id="path302-3"/>
        <path d="m 157.509,76.418 c -0.277,1.469 -1.513,0.782 -2.409,1.637 -0.898,0.86 -0.494,-1.588 -2.029,0.767 -1.539,2.352 -5.028,10.854 -2.62,14.254 2.407,3.407 5.4,6.03 7.134,3.793 1.733,-2.236 2.248,-1.987 4.099,-0.076 1.848,1.908 2.781,1.883 3.331,3.995 0.549,2.112 2.486,4.96 2.475,2.582 -0.012,-2.381 0.546,-4.089 1.151,-3.939 0.608,0.153 1.744,-1.099 1.228,-2.381 -0.517,-1.283 1.77,1.286 0.849,-2.721 -0.914,-4 -3.901,-4.16 -5.671,-7.76 -1.772,-3.601 -6.804,-14.091 -7.538,-10.151 z" style="fill:#6f6426;fill-rule:nonzero" id="path304-5"/>
        <path d="m 165.553,55.242 c 0,0 1.585,-6.693 7.873,-5.245 6.293,1.448 10.751,8.843 11.335,13.029 0.589,4.179 2.405,7.224 2.405,7.224 0,0 -4.671,0.238 -6.547,-2.088 -1.879,-2.324 -3.211,0.047 -8.654,-1.64 -5.442,-1.69 -8.327,-9.367 -6.412,-11.28 z" style="fill:#987f2e;fill-rule:nonzero" id="path306-62"/>
        <path d="m 159.025,69.282 c -1.399,4.41 0.565,8.213 5.022,13.128 4.451,4.913 4.251,7.379 9.323,7.283 5.072,-0.104 7.678,-0.3 9.3,1.28 1.627,1.579 3.868,-1.752 1.222,-3.52 -2.646,-1.769 -3.486,-2.869 -3.41,-3.794 0.077,-0.924 -3.011,-9.865 -7.08,-11.956 -4.069,-2.09 -4.739,1.019 -5.856,-2.981 -1.117,-4.002 -1.7,-5.123 -4.199,-4.251 -2.498,0.862 -3.205,1.282 -4.322,4.811 z" style="fill:#987f2e;fill-rule:nonzero" id="path308-63"/>
        <path d="m 202.203,92.389 c -9.079,0.872 -19.909,2.269 -19.909,8.205 0,5.941 -0.174,13.099 -3.142,11.527 -2.968,-1.571 -6.286,-3.795 -4.365,-9.756 1.922,-5.96 2.794,-10.329 19.908,-13.295 17.115,-2.968 4.54,-3.318 2.794,-4.016 -1.746,-0.699 2.618,-5.065 10.478,-0.875 7.858,4.19 25.497,0.698 27.592,11.702 2.095,11.001 -3.145,13.621 -5.065,8.559 -1.918,-5.068 -3.839,-11.003 -10.825,-11.003 -6.986,0 -10.479,0.174 -9.955,4.715 0.525,4.539 4.889,17.114 1.222,18.336 -3.668,1.22 -7.161,0.525 -7.161,-6.986 0,-7.509 -1.572,-17.113 -1.572,-17.113 z" style="fill:#5f551f;fill-rule:nonzero" id="path310-4"/>
        <path d="m 189.287,105.681 c -0.243,2.677 -1.322,3.502 -1.118,5.307 0.205,1.804 -1.92,3.674 -5.325,3.977 -3.405,0.302 -8.645,1.087 -13.62,-1.27 -4.979,-2.358 -8.734,-2.435 -10.043,-4.274 -1.311,-1.84 -1.431,-3.376 -1.94,-2.432 -0.507,0.943 1.852,5.222 4.297,7.056 2.445,1.833 4.801,2.578 10.914,3.865 6.112,1.286 9,1.681 10.697,0.691 1.697,-0.995 5.093,1.465 3.288,2.746 -1.805,1.281 2.168,11.294 5.136,11.646 2.971,0.348 18.93,0.175 27.626,-1.223 8.699,-1.398 5.289,-3.241 6.993,-5.026 1.706,-1.786 1.617,-3.158 1.706,-5.397 0.088,-2.238 -0.875,-5.076 -0.896,-3.605 -0.024,1.468 -3.061,6.857 -9.159,9.002 -6.098,2.145 -9.764,2.841 -15.964,1.36 -6.202,-1.485 -10.625,-1.66 -10.815,-5.677 -0.187,-4.017 -0.696,-5.308 -1.141,-6.671 -0.445,-1.363 2.632,-4.509 6.42,-5.119 3.788,-0.609 7.285,-1.75 6.709,-1.606 -0.577,0.143 -5.447,-0.129 -7.852,0.39 -2.404,0.519 -4.055,0.414 -2.662,-2.109 1.394,-2.522 5.204,-2.658 0.811,-4.339 -4.395,-1.678 -10.944,-3.37 -10.944,-3.37 0,0 7.386,0.509 6.882,6.078 z" style="fill:#813e20;fill-rule:nonzero" id="path312-2"/>
        <path d="m 252.177,103.915 c -0.956,-2.289 -4.109,9.433 -6.902,9.869 -2.795,0.435 -13.297,-1.016 -16.416,-2.285 -3.119,-1.269 -5.081,-4.63 -5.862,-5.906 -0.783,-1.273 -1.298,0.749 -1.472,1.719 -0.174,0.97 7.771,6.472 9.604,8.044 1.835,1.571 -1.132,3.785 -2.182,4.888 -1.049,1.103 0.523,4.888 -0.177,6.985 -0.696,2.096 6.555,-4.539 9.957,-6.199 3.404,-1.661 3.944,-0.802 9.868,-6.065 5.922,-5.263 5.594,-6.249 3.582,-11.05 z" style="fill:#813e20;fill-rule:nonzero" id="path314-5"/>
        <path d="m 175.352,43.785 c 0,0 5.834,-1.13 8.104,-2.141 2.27,-1.012 7.089,6.339 12.483,25.518 5.395,19.18 4.814,24.212 5.474,22.748 0.657,-1.466 7.802,2.26 -2.61,-31.611 -4.994,-16.242 -6.336,-27.913 -23.451,-14.514 z" style="fill:#5f551f;fill-rule:nonzero" id="path316-6"/>
        <path d="m 158.581,54.287 c 1.207,5.367 -5.993,3.861 -8.953,4.012 -2.962,0.152 -7.808,1.616 -7.808,1.616 0,0 4.583,-0.945 5.5,-2.908 0.918,-1.964 -0.1,-4.062 2.765,-5.368 2.868,-1.311 7.706,-0.863 8.496,2.648 z" style="fill:#987f2e;fill-rule:nonzero" id="path318-9"/>
        <path d="m 152.953,67.96 c -4.192,-1.652 -4.323,-0.866 -7.859,-1.129 -3.535,-0.26 -4.846,-0.617 -4.584,2.705 0.261,3.322 0.589,6.89 -0.034,8.643 -0.622,1.75 0.427,-0.561 3.962,-3.006 3.538,-2.446 8.515,-7.213 8.515,-7.213 z" style="fill:#987f2e;fill-rule:nonzero" id="path320-8"/>
        <path d="m 157.241,80.483 c 1.053,5.697 2.653,11.688 5.273,13.492 2.62,1.804 -1.695,-3.056 -3.663,-2.589 -1.968,0.463 -3.542,5.632 -5.898,2.589 -2.357,-3.043 3.548,-17.5 4.288,-13.492 z" style="fill:#987f2e;fill-rule:nonzero" id="path322-8"/>
        <path d="m 195.356,60.179 c -1.17,13.464 7.121,27.124 7.421,33.261 0.299,6.137 6.634,4.788 6.438,-1.27 -0.2,-6.055 -6.738,-30.605 -6.438,-39.713 0,0 4.508,-12.819 14.485,-8.672 9.976,4.149 2.089,-2.376 -3.274,-4.604 -6.584,-2.735 -16.438,-4.253 -18.632,20.998 z" style="fill:#5f551f;fill-rule:nonzero" id="path324-6"/>
        <path d="m 245.647,59.079 c 3.645,0.025 4.623,4.421 6.412,2.424 1.789,-1.998 2.257,-1.825 3.75,0.225 1.493,2.056 2.78,-0.249 3.575,1.266 0.794,1.509 2.578,0.085 7.78,-1.891 5.204,-1.975 7.933,-1.268 5.584,-4.507 -2.346,-3.239 -1.321,-1.927 -2.977,-4.65 -1.658,-2.723 -4.851,-5.355 -9.636,-5.759 -4.785,-0.402 -10.905,-2.186 -11.538,2.8 -0.637,4.985 -2.516,5.439 -4.055,5.531 -1.543,0.093 -2.877,4.537 1.105,4.561 z" style="fill:#6f6426;fill-rule:nonzero" id="path326-2"/>
        <path d="m 272.484,85.951 c 3.484,-1.978 4.209,2.108 5.264,4.121 1.059,2.019 4.374,-3.049 2.63,-7.314 -1.747,-4.264 -2.871,-5.415 -2.046,-8.742 0.823,-3.32 -1.065,-10.818 -6.829,-10.132 -5.768,0.692 -6.986,2.694 -7.615,1.28 -0.626,-1.41 -1.833,-1.12 -2.415,0.588 -0.581,1.706 -0.415,2.376 -2.649,0.786 -2.235,-1.589 -8.254,-0.628 -10.499,1.232 -2.248,1.861 4.006,1.28 5.77,3.864 1.764,2.583 1.362,7.371 3.078,6.245 1.715,-1.13 2.189,-1.516 2.967,1.698 0.781,3.215 3.698,5.917 4.814,5.506 1.111,-0.414 4.909,2.356 7.53,0.868 z" style="fill:#6f6426;fill-rule:nonzero" id="path328-5"/>
        <path d="m 207.404,37.732 c 0,0 18.193,1.514 29.14,11.643 10.944,10.135 15.633,17 17.491,24.649 1.855,7.644 4.974,14.347 4.974,14.347 0,0 -4.789,1.327 -6.599,-4.815 -1.817,-6.143 -1.184,-10.561 -8.905,-19.55 -7.726,-8.995 -10.399,-14.742 -24.878,-19.96 -14.479,-5.226 -16.613,4.109 -16.183,-0.261 0.434,-4.366 4.96,-6.053 4.96,-6.053 z" style="fill:#5f551f;fill-rule:nonzero" id="path330-2"/>
        <path d="m 255.305,83.058 c 0.667,1.882 2.161,0.713 3.53,1.662 1.365,0.947 0.314,-2.208 2.841,0.588 2.526,2.796 8.914,13.32 6.437,18.328 -2.48,5.004 -5.889,9.102 -8.653,6.504 -2.758,-2.596 -3.39,-2.16 -5.441,0.754 -2.047,2.912 -3.289,3.07 -3.578,5.981 -0.286,2.911 -2.258,7.082 -2.739,3.932 -0.479,-3.152 -1.57,-5.298 -2.342,-4.972 -0.772,0.329 -2.537,-1.09 -2.121,-2.895 0.412,-1.805 -2.078,2.068 -1.695,-3.424 0.382,-5.49 4.301,-6.317 5.895,-11.454 1.593,-5.138 6.065,-20.075 7.866,-15.004 z" style="fill:#6f6426;fill-rule:nonzero" id="path332-7"/>
        <path d="m 240.238,56.702 c 0,0 -3.488,-8.529 -11.516,-5.306 -8.026,3.227 -12.382,13.948 -12.288,19.606 0.097,5.661 -1.676,10.066 -1.676,10.066 0,0 6.234,-0.655 8.233,-4.127 1.999,-3.468 4.254,-0.605 11.111,-3.975 6.852,-3.37 9.071,-14.136 6.136,-16.264 z" style="fill:#6f6426;fill-rule:nonzero" id="path334-8"/>
        <path d="m 251.807,73.923 c 2.771,5.548 0.963,10.988 -3.909,18.425 -4.873,7.433 -4.089,10.653 -10.828,11.579 -6.737,0.922 -10.22,1.204 -12.046,3.63 -1.822,2.437 -5.482,-1.511 -2.349,-4.4 3.135,-2.894 4.019,-4.527 3.725,-5.735 -0.294,-1.205 1.935,-13.679 6.883,-17.295 4.945,-3.619 6.479,0.358 7.126,-5.171 0.646,-5.527 1.184,-7.131 4.671,-6.505 3.489,0.628 4.516,1.037 6.727,5.472 z" style="fill:#6f6426;fill-rule:nonzero" id="path336-2"/>
        <path d="m 208.501,41.951 c -2.546,1.76 -4.986,13.65 -2.688,17.538 2.301,3.888 5.364,9.542 5.364,9.542 0,0 3.625,-1.02 2.624,-10.932 -1,-9.918 -5.3,-16.148 -5.3,-16.148 z" style="fill:#6f6426;fill-rule:nonzero" id="path338-6"/>
        <path d="m 194.926,54.385 c 0,0 -7.197,1.73 -7.235,10.818 -0.036,9.09 -4.967,15.758 -7.567,19.409 -2.6,3.651 -2.802,4.387 1.143,8.472 3.942,4.086 1.076,-3.579 5.31,-7.4 4.234,-3.82 5.382,-7.445 4.888,-10.815 -0.492,-3.372 -1.116,-7.21 -1.116,-7.21 l 3.429,7.21 c 0,0 3.784,14.685 4.681,15 0.895,0.317 5.218,-11.589 1.748,-16.901 -3.472,-5.311 -8.565,-5.179 -7.153,-9.174 1.412,-3.996 3.992,-6.18 4.983,-5.44 0.99,0.741 2.319,-4.873 -3.111,-3.969 z" style="fill:#b8a132;fill-rule:nonzero" id="path340-3"/>
        <path d="m 236.047,58.299 c -0.448,1.156 -5.974,6.822 -8.712,7.57 -2.738,0.746 -7.399,7.209 -7.775,9.304 -0.376,2.094 -0.321,-5.011 0,-9.055 0.322,-4.043 7.642,-12.324 11.142,-12.724 3.499,-0.4 5.345,4.905 5.345,4.905 z" style="fill:#987f2e;fill-rule:nonzero" id="path342-0"/>
        <path d="m 246.849,73.385 c 0.272,3.186 -0.596,10.404 -3.828,11.947 -3.232,1.539 -6.799,5.994 -7.024,6.824 -0.225,0.828 -8.447,-4.121 -5.295,-6.537 3.151,-2.416 11.006,-4.282 11.793,-8.499 0.788,-4.217 3.902,-9.015 4.354,-3.735 z" style="fill:#987f2e;fill-rule:nonzero" id="path344-4"/>
        <path d="m 257.253,87.359 c 0,4.053 2.885,7.959 -0.915,9.674 -3.801,1.713 -7.816,5.382 -8.166,8.002 -0.351,2.62 3.994,-9.452 4.005,-14.504 0.013,-5.056 5.076,-3.172 5.076,-3.172 z" style="fill:#987f2e;fill-rule:nonzero" id="path346-6"/>
        <path d="m 153.934,124.337 c -0.941,3.403 -3.302,4.697 -11.947,4.361 -8.644,-0.336 -14.279,-0.372 -16.965,-1.718 -2.685,-1.346 -6.512,-2.98 -3.762,-0.442 2.752,2.54 5.448,3.949 13.046,5.202 7.594,1.253 16.297,-1.407 19.804,-3.702 3.509,-2.295 3.768,-0.923 5.952,0.66 2.184,1.585 6.014,2.927 5.409,-1.542 -0.606,-4.471 -9.896,-8.764 -11.537,-2.819 z" style="fill:#813e20;fill-rule:nonzero" id="path348-6"/>
        <path d="m 159.457,142.825 c -11.084,-8.147 -15.937,-6.115 -18.919,-4.369 -2.981,1.747 -7.173,0 -11.888,3.667 -4.716,3.667 -7.64,15.725 7.706,18.079 15.346,2.354 35.396,-8.342 23.101,-17.377 z" style="fill:#e1a23b;fill-rule:nonzero" id="path350-2"/>
        <path d="m 175.802,124.37 c -9.788,0.061 -7.601,1.864 -12.532,3.958 -4.932,2.097 -6.013,3.718 -3.813,8.933 2.199,5.214 15.821,8.922 22.632,7.243 6.81,-1.679 12.225,-20.251 -6.287,-20.134 z" style="fill:#e1a23b;fill-rule:nonzero" id="path352-4"/>
        <path d="m 122.376,130.95 c -9.288,-3.112 -2.028,-2.89 -13.811,0 -11.781,2.888 -22.212,4.981 -8.66,11.658 13.552,6.678 25.197,2.658 24.963,-0.832 -0.234,-3.491 7.106,-7.616 -2.492,-10.826 z" style="fill:#e1a23b;fill-rule:nonzero" id="path354-2"/>
        <path d="m 132.236,112.329 c -9.111,2.246 -16.25,10.529 -10.373,13.553 5.878,3.021 6.607,3.114 16.825,3.741 10.219,0.626 17.402,-3.251 14.934,-8.381 -2.468,-5.134 -8.195,-12.16 -21.386,-8.913 z" style="fill:#e1a23b;fill-rule:nonzero" id="path356-1"/>
        <path d="m 136.916,142.125 c -3.026,0.35 -4.251,3.838 -3.114,5.935 1.134,2.099 2.796,6.813 13.185,4.631 10.39,-2.183 15.715,-6.376 10.39,-8.559 -5.324,-2.18 -1.047,-0.609 -6.549,1.398 -5.501,2.007 -8.591,4.693 -11.279,1.386 -2.689,-3.307 -2.254,-4.791 -2.254,-4.791 z" style="fill:#f3ba68;fill-rule:nonzero" id="path358-6"/>
    </g>
</svg>
