<?xml version="1.0" encoding="UTF-8" standalone="no"?>
<svg xmlns="http://www.w3.org/2000/svg" width="100%" height="100%" viewBox="0 0 356 330" version="1.1" style="clip-rule:evenodd;fill-rule:evenodd;stroke-linejoin:round;stroke-miterlimit:2" id="svg311">
    <g id="stage_2" style="display:inline" transform="translate(0,56.150421)">
        <path d="m 215.984,132.115 -0.359,-1.079 c 0.245,0.141 0.464,0.275 0.664,0.403 -0.197,0.42 -0.305,0.676 -0.305,0.676 z m -6.439,-1.384 c 0,0 -0.564,-1.283 -1.182,-2.904 0.564,0.203 1.096,0.401 1.601,0.596 z m -7.68,-0.048 c -0.412,1.148 -1.38,-2.197 -2.016,-5.729 1.324,0.479 2.658,0.942 3.983,1.369 -0.889,1.743 -1.694,3.592 -1.967,4.36 z m -6.153,-6.676 c -0.363,1.159 -1.3,0.061 -2.289,-1.564 0.808,0.338 1.634,0.676 2.479,1.011 -0.071,0.195 -0.138,0.383 -0.19,0.553 z m 26.84,-0.504 c -1.631,1.096 -2.984,2.644 -4.034,4.129 0.521,-4.793 1.767,-11.505 4.735,-14.37 4.86,-4.693 -3.781,-3.133 -7.966,-0.324 -4.184,2.807 -6.568,8.611 -6.568,8.611 l -4.338,-13.027 -2.1,11.645 c 0,0 -2.138,-4.837 -2.642,-7.601 -0.506,-2.762 -4.368,5.67 -5.04,7.553 -0.676,1.883 -2.849,-8.307 -2.59,-11.599 0.259,-3.294 -2.773,2.393 -3.564,4.922 -0.787,2.53 -4.324,-5.678 -5.141,-6.715 -0.816,-1.037 -0.143,8.212 -1.632,9.058 -0.836,0.473 2.863,2.678 8.341,5.169 -0.118,2.329 -0.314,4.962 -1.076,5.394 -1.49,0.846 11.412,7.18 23.121,10.847 11.71,3.671 13.353,6.325 13.353,6.325 0,0 0.25,-15.003 5.108,-19.694 4.857,-4.69 -3.781,-3.132 -7.967,-0.323 z" style="fill:#8fa73d;fill-rule:nonzero" id="path2"/>
        <path d="m 314.005,190.275 c -6.857,-4.457 -15.427,-5.485 -19.545,-12 -4.115,-6.515 -10.629,-14.401 -26.4,-20.917 -15.775,-6.515 -20.232,-5.486 -27.09,-8.917 -6.858,-3.426 -28.802,-19.543 -43.203,-23.658 -9.612,-2.746 -13.03,-11.314 -22.631,-4.458 -9.601,6.859 -20.23,12.346 -30.518,10.972 -10.286,-1.369 -17.83,2.058 -21.943,7.202 -4.114,5.144 -6.174,5.829 -12.687,5.144 -6.516,-0.687 -7.887,1.714 -14.402,5.485 -6.515,3.773 -9.944,0.687 -17.145,3.43 -7.201,2.742 -11.999,5.484 -13.371,11.316 -1.373,5.828 -1.028,2.742 -10.287,6.171 -9.257,3.428 -13.715,4.457 -14.743,9.258 -1.03,4.799 -3.828,11.433 -4.857,12.462 -1.027,1.03 0.357,5.333 3.786,7.732 3.429,2.401 20.497,1.75 21.07,4.494 0.573,2.741 10.517,2.967 13.602,5.599 3.087,2.632 3.774,6.059 8.914,7.772 5.145,1.717 12.344,0.687 17.831,7.889 5.486,7.199 29.832,20.914 38.745,29.487 8.917,8.572 28.804,22.116 37.378,18.516 8.571,-3.601 26.588,-12.344 36.952,-12.002 10.366,0.343 16.88,-2.742 21.681,-8.915 4.801,-6.172 17.829,-20.915 27.774,-20.571 9.943,0.342 24.001,-2.745 28.116,-8.917 4.114,-6.171 8.229,-5.142 15.089,-9.258 6.855,-4.115 15.769,-10.972 17.142,-13.373 1.371,-2.399 -2.402,-5.485 -9.258,-9.943 z" style="fill:#758035;fill-rule:nonzero" id="path4"/>
        <path d="m 316.373,189.955 c -6.583,-4.277 -21.556,-4.722 -25.502,-10.975 -3.951,-6.251 -10.205,-13.819 -25.34,-20.072 -15.137,-6.253 -19.414,-5.266 -25.997,-8.557 -6.58,-3.291 -27.64,-18.757 -41.462,-22.706 -9.223,-2.633 -12.503,-10.858 -21.717,-4.277 -9.214,6.582 -19.416,11.847 -29.289,10.53 -9.871,-1.316 -17.109,1.975 -21.06,6.911 -3.946,4.936 -5.92,5.595 -12.174,4.936 -6.254,-0.658 -7.569,1.646 -13.822,5.265 -6.251,3.619 -9.542,0.658 -16.453,3.29 -6.91,2.633 -11.518,5.265 -12.834,10.861 -1.314,5.592 -0.987,2.631 -9.872,5.922 -8.884,3.291 -13.16,4.278 -14.149,8.883 -0.589,2.755 -3.148,1.553 -5.323,0.35 -1.463,-0.809 -2.752,-1.618 -3.149,-1.221 -0.987,0.987 -0.413,14.364 2.88,16.668 3.288,2.304 24.238,5.263 24.786,7.897 0.552,2.632 10.094,2.849 13.053,5.373 2.964,2.525 3.623,5.817 8.558,7.461 4.936,1.644 11.847,0.658 17.112,7.569 5.263,6.911 28.627,20.072 37.184,28.299 8.554,8.226 27.64,21.224 35.868,17.769 8.226,-3.455 25.517,-11.846 35.463,-11.517 9.948,0.33 16.201,-2.632 20.807,-8.557 4.607,-5.922 17.111,-20.072 26.655,-19.743 9.542,0.331 23.033,-2.632 26.983,-8.555 3.948,-5.923 7.897,-4.936 14.476,-8.884 6.582,-3.949 15.141,-10.53 16.455,-12.835 1.317,-2.302 4.444,-5.807 -2.137,-10.085 z" style="fill:#37302b;fill-rule:nonzero" id="path6"/>
        <path d="m 309.625,183.703 c -6.58,-4.278 -14.808,-5.265 -18.754,-11.518 -3.951,-6.252 -10.205,-13.821 -25.34,-20.074 -15.137,-6.251 -19.414,-5.263 -25.997,-8.554 -6.58,-3.291 -27.64,-18.757 -41.462,-22.707 -9.223,-2.634 -12.503,-10.859 -21.717,-4.277 -9.214,6.582 -19.416,11.846 -29.289,10.531 -9.871,-1.317 -17.109,1.974 -21.06,6.91 -3.946,4.937 -5.92,5.594 -12.174,4.937 -6.254,-0.659 -7.569,1.644 -13.822,5.264 -6.251,3.621 -9.542,0.658 -16.453,3.291 -6.91,2.632 -11.518,5.265 -12.834,10.858 -1.314,5.594 -0.987,2.634 -9.872,5.925 -8.884,3.289 -13.16,4.275 -14.149,8.883 -0.986,4.607 -6.911,3.619 -7.897,4.607 -0.988,0.988 -0.988,8.885 2.305,11.189 3.288,2.304 24.238,5.265 24.786,7.896 0.552,2.633 10.094,2.851 13.053,5.376 2.964,2.524 3.623,5.815 8.558,7.458 4.936,1.647 11.847,0.659 17.112,7.569 5.263,6.912 28.627,20.073 37.184,28.3 8.554,8.228 27.64,21.224 35.868,17.769 8.226,-3.455 25.517,-11.846 35.463,-11.516 9.948,0.329 16.201,-2.634 20.807,-8.557 4.607,-5.923 17.111,-20.072 26.655,-19.743 9.542,0.328 23.033,-2.633 26.983,-8.555 3.948,-5.923 7.897,-4.937 14.476,-8.886 6.582,-3.949 15.141,-10.529 16.455,-12.833 1.317,-2.305 -2.304,-5.266 -8.885,-9.543 z" style="fill:#542f29;fill-rule:nonzero" id="path8"/>
        <path d="m 203.005,260.202 c -1.49,-0.848 -0.816,-10.096 -1.631,-9.057 -0.817,1.035 -4.353,9.242 -5.143,6.713 -0.79,-2.527 -3.821,-8.216 -3.562,-4.922 0.258,3.293 -1.917,13.481 -2.59,11.598 -0.673,-1.883 -4.537,-10.315 -5.04,-7.551 -0.506,2.762 -2.643,7.599 -2.643,7.599 l -2.1,-11.643 -4.338,13.027 c 0,0 -2.384,-5.805 -6.567,-8.612 -4.186,-2.809 -12.826,-4.367 -7.966,0.324 4.857,4.69 7.279,10.709 7.279,10.709 0,0 -0.531,6.329 11.18,2.659 11.71,-3.667 24.612,-10.001 23.121,-10.844 z" style="fill:#8fa73d;fill-rule:nonzero" id="path10"/>
        <path d="m 174.72,258.971 c -7.472,0 -11.233,-7.787 -6.922,-16.365 4.799,-9.543 6.252,-7.569 23.364,-9.214 17.112,-1.646 21.39,-6.911 29.616,-17.441 6.707,-8.587 10.571,-10.828 19.976,-10.828 2.129,0 4.542,0.115 7.336,0.297 2.85,0.186 5.185,0.302 7.169,0.302 8.554,0 10.547,-2.16 18.828,-10.172 8.238,-7.972 14.972,-11.437 22.63,-11.437 1.826,0 3.705,0.197 5.669,0.577 10.202,1.974 6.608,7.525 3.619,10.86 -7.997,8.922 -17.768,11.845 -29.617,17.769 -11.844,5.924 -18.426,6.91 -30.601,13.491 -11.355,6.139 -22.685,19.302 -28.988,19.301 -0.456,0 -0.886,-0.069 -1.287,-0.214 -1.841,-0.667 -3.711,-0.958 -5.595,-0.958 -10.322,0 -20.991,8.752 -28.829,12.389 l -0.792,-4.389 -1.805,5.423 c -0.381,0.121 -0.753,0.223 -1.114,0.303 -0.929,0.208 -1.816,0.306 -2.657,0.306 z m 50.399,-36.182 c 1.71,1.29 4.408,2.206 8.515,2.206 0.466,0 0.947,-0.011 1.45,-0.036 0.022,-0.001 0.045,-0.002 0.067,-0.003 0.021,-10e-4 0.04,-0.002 0.061,-0.003 0.005,0 0.01,-0.001 0.015,-0.001 0.018,-0.001 0.034,-0.002 0.052,-0.003 h 0.011 c 0.02,-0.001 0.041,-0.002 0.062,-0.003 0.002,-0.001 0.005,-0.001 0.007,-0.001 0.02,-0.001 0.039,-0.002 0.058,-0.003 0.002,0 0.005,0 0.007,-0.001 0.044,-0.002 0.088,-0.005 0.132,-0.007 h 10e-4 c 15.884,-0.958 15.838,-10.211 10.454,-13.963 -1.718,-1.197 -2.93,-1.686 -4.014,-1.686 -1.857,0 -3.338,1.433 -6.351,3.186 -3.202,1.864 -6.256,2.699 -8.565,2.699 -1.131,0 -2.084,-0.201 -2.788,-0.579 -0.095,-0.052 -0.193,-0.076 -0.292,-0.076 -1.016,0 -2.08,2.62 -1.154,5.24 0.374,1.058 1.073,2.116 2.23,3.002 0.001,0 0.002,0.001 0.002,0.002 0.007,0.005 0.014,0.01 0.021,0.015 0.003,0.003 0.007,0.006 0.01,0.008 0.003,0.002 0.006,0.005 0.009,0.007 z" style="fill:#6f3923;fill-rule:nonzero" id="path12"/>
        <path d="m 178.491,258.362 1.805,-5.423 0.792,4.389 c -0.905,0.42 -1.773,0.771 -2.597,1.034 z" style="fill:#a1a438;fill-rule:nonzero" id="path14"/>
        <path d="m 266.189,192.141 c -8.884,7.45 -16.453,3.737 -28.629,3.737 -12.178,0 -16.453,9.542 -23.034,16.673 -6.582,7.13 -33.566,11.955 -46.067,16.562 -12.505,4.608 -7.573,18.759 -7.242,12.835 0.33,-5.924 19.743,-17.442 36.527,-17.769 16.782,-0.331 24.021,-17.77 31.92,-21.939 7.896,-4.171 21.059,-2.413 28.629,-2.084 7.568,0.329 22.046,-18.428 22.046,-18.428 3.336,-4.046 -5.263,2.962 -14.15,10.413 z" style="fill:#37302b;fill-rule:nonzero" id="path16"/>
        <path d="m 136.878,235.267 c -7.471,0 -11.234,-7.787 -6.921,-16.364 4.799,-9.544 6.252,-7.569 23.362,-9.215 1.906,-0.183 3.653,-0.411 5.264,-0.686 1.351,2.151 4.343,4.009 10.188,4.009 0.487,0 0.993,-0.013 1.519,-0.039 0.017,-0.001 0.034,-0.002 0.051,-0.003 5.063,-0.261 8.546,-1.351 10.778,-2.842 4.932,-3.292 3.766,-8.538 0.031,-11.141 -0.975,-0.68 -1.788,-1.131 -2.506,-1.394 1.366,-1.606 2.76,-3.383 4.291,-5.343 6.707,-8.585 10.571,-10.828 19.972,-10.828 2.13,0 4.545,0.115 7.341,0.298 2.846,0.185 5.18,0.301 7.163,0.301 8.559,0 10.55,-2.158 18.833,-10.174 8.236,-7.971 14.971,-11.436 22.63,-11.436 1.827,0 3.706,0.197 5.67,0.577 10.202,1.974 6.606,7.526 3.619,10.859 -5.907,6.589 -12.781,9.908 -20.742,13.578 -0.413,-0.458 -0.887,-0.875 -1.412,-1.241 -1.717,-1.197 -2.929,-1.685 -4.013,-1.685 -1.857,0 -3.339,1.432 -6.352,3.185 -3.2,1.864 -6.254,2.698 -8.563,2.698 -1.133,0 -2.087,-0.201 -2.791,-0.579 -0.095,-0.052 -0.193,-0.076 -0.291,-0.076 -1.016,0 -2.079,2.62 -1.153,5.24 0.238,0.674 0.608,1.348 1.144,1.977 l 0.001,10e-4 c 0.005,0.006 0.011,0.012 0.016,0.018 0.003,0.005 0.007,0.009 0.01,0.013 0.001,0 0.002,0.001 0.002,0.002 0.19,0.22 0.4,0.434 0.632,0.64 -5.08,1.972 -10.06,3.897 -16.707,7.49 -11.355,6.138 -22.685,19.3 -28.986,19.299 -0.456,0 -0.886,-0.069 -1.287,-0.214 -1.84,-0.666 -3.71,-0.956 -5.592,-0.956 -12.067,0 -24.605,11.955 -32.544,13.725 -0.929,0.208 -1.816,0.306 -2.657,0.306 z m 113.477,-57.944 c 0.013,0.002 0.025,0.004 0.037,0.007 0.471,0.081 0.977,0.119 1.506,0.119 0.691,0 1.421,-0.065 2.17,-0.186 0,-0.001 10e-4,-0.001 10e-4,-0.001 0.007,-0.001 0.014,-0.002 0.02,-0.003 0.002,0 0.004,-10e-4 0.005,-10e-4 0.005,-0.001 0.008,-0.001 0.012,-0.002 7.066,-1.16 15.648,-7.254 6.651,-9.897 -0.77,-0.226 -1.581,-0.322 -2.428,-0.322 -3.254,0 -7.05,1.413 -11.227,2.272 -4.674,0.963 -3.903,5.596 1.165,7.46 0.001,0 0.002,0.001 0.003,0.001 0.007,0.003 0.015,0.005 0.022,0.008 l 0.032,0.012 c 0.007,0.002 0.014,0.005 0.021,0.007 0.004,0.002 0.008,0.003 0.012,0.004 0.007,0.003 0.014,0.005 0.021,0.008 0.003,0.001 0.006,0.002 0.009,0.003 0.021,0.007 0.042,0.015 0.064,0.022 l 0.001,0.001 c 0.544,0.189 1.137,0.347 1.777,0.465 10e-4,10e-4 0.003,10e-4 0.004,10e-4 0.026,0.005 0.051,0.009 0.076,0.014 0.002,0 0.005,0.001 0.007,0.001 0.01,0.002 0.02,0.004 0.03,0.006 0.003,0 0.007,0.001 0.009,0.001 z" style="fill:#6f3923;fill-rule:nonzero" id="path18"/>
        <path d="m 228.345,168.437 c -8.884,7.451 -16.451,3.738 -28.627,3.738 -12.176,0 -16.453,9.544 -23.035,16.672 -6.582,7.131 -33.562,11.957 -46.069,16.564 -12.504,4.607 -7.568,18.756 -7.239,12.834 0.33,-5.924 19.746,-17.441 36.525,-17.77 16.783,-0.329 24.023,-17.77 31.92,-21.939 7.898,-4.171 21.06,-2.411 28.629,-2.083 7.569,0.329 22.048,-18.427 22.048,-18.427 3.336,-4.046 -5.265,2.961 -14.152,10.411 z" style="fill:#37302b;fill-rule:nonzero" id="path20"/>
        <path d="m 94.794,211.387 c -1.541,0 -2.924,-0.331 -4.112,-0.932 1.509,0.274 3.108,0.51 4.728,0.915 -0.208,0.012 -0.413,0.017 -0.616,0.017 z" style="fill:#5b3f25;fill-rule:nonzero" id="path22"/>
        <path d="m 95.41,211.37 c -1.62,-0.405 -3.219,-0.641 -4.728,-0.915 -4.569,-2.314 -6.234,-8.624 -2.811,-15.433 0.221,-0.44 0.435,-0.856 0.644,-1.248 0.649,2.547 2.742,5.086 6.088,5.998 0.001,0 0.002,0 0.003,0.001 0.007,0.002 0.014,0.003 0.022,0.005 0.005,0.002 0.01,0.003 0.016,0.005 0.005,0.001 0.011,0.003 0.017,0.004 0.011,0.003 0.022,0.006 0.034,0.009 0.471,0.124 0.977,0.182 1.506,0.182 6.509,0.001 16.583,-8.839 11.198,-13.836 1.184,-0.093 2.459,-0.202 3.836,-0.334 17.111,-1.645 21.39,-6.912 29.615,-17.442 6.708,-8.584 10.57,-10.826 19.971,-10.826 2.13,0 4.546,0.115 7.342,0.297 2.846,0.186 5.181,0.302 7.163,0.302 8.56,-0.001 10.552,-2.158 18.834,-10.174 8.236,-7.971 14.971,-11.437 22.629,-11.437 1.827,0 3.707,0.197 5.671,0.577 10.2,1.975 6.606,7.527 3.619,10.86 -8,8.922 -17.77,11.846 -29.617,17.769 -11.845,5.924 -18.427,6.91 -30.603,13.492 -11.354,6.138 -22.685,19.301 -28.988,19.3 -0.455,0 -0.885,-0.069 -1.286,-0.214 -1.841,-0.666 -3.711,-0.957 -5.594,-0.957 -12.066,0 -24.602,11.954 -32.541,13.727 -0.705,0.157 -1.385,0.252 -2.04,0.288 z" style="fill:#6f3923;fill-rule:nonzero" id="path24"/>
        <path d="m 186.261,144.556 c -8.884,7.45 -16.453,3.736 -28.629,3.736 -12.174,0 -16.453,9.545 -23.034,16.674 -6.582,7.132 -33.564,11.956 -46.067,16.564 -12.505,4.606 -7.57,18.757 -7.241,12.833 0.329,-5.923 19.744,-17.441 36.526,-17.769 16.782,-0.331 24.023,-17.77 31.92,-21.939 7.898,-4.171 21.059,-2.412 28.628,-2.084 7.569,0.33 22.048,-18.428 22.048,-18.428 3.336,-4.045 -5.264,2.962 -14.151,10.413 z" style="fill:#37302b;fill-rule:nonzero" id="path26"/>
        <path d="m 54.95,189.192 c -1.715,0 -3.267,-0.268 -4.565,-0.795 0.048,0 0.096,0.001 0.145,0.001 0.486,0 0.991,-0.013 1.516,-0.04 0.02,-0.001 0.041,-0.002 0.061,-0.003 0.005,0 0.011,0 0.016,-10e-4 0.018,-0.001 0.037,-0.002 0.055,-0.003 h 0.006 c 0.021,-0.001 0.043,-0.002 0.064,-0.003 0.002,-0.001 0.003,-0.001 0.005,-0.001 0.02,-0.001 0.04,-0.002 0.061,-0.003 h 0.005 c 0.044,-0.003 0.088,-0.006 0.132,-0.008 h 10e-4 c 15.883,-0.958 15.838,-10.212 10.454,-13.964 -1.718,-1.197 -2.93,-1.685 -4.013,-1.685 -1.858,0 -3.34,1.433 -6.353,3.187 -1.811,1.053 -3.575,1.778 -5.184,2.209 0.156,-0.366 0.329,-0.741 0.522,-1.125 4.797,-9.543 16.042,1.013 25.186,-13.544 3.241,-5.162 5.549,-6.119 7.691,-6.119 0.631,0 1.248,0.083 1.869,0.166 0.622,0.083 1.249,0.166 1.9,0.166 1.963,0 4.15,-0.753 7.097,-4.525 8.226,-10.53 27.84,-8.887 38.372,-17.658 11.654,-9.708 31.718,-0.279 41.92,-10.15 6.461,-6.254 7.706,-8.084 10.344,-8.084 1.527,0 3.52,0.613 7.258,1.336 2.72,0.527 4.714,1.85 5.903,3.639 -0.05,-0.015 -0.1,-0.03 -0.151,-0.045 -0.771,-0.227 -1.582,-0.323 -2.43,-0.323 -3.254,0 -7.05,1.413 -11.226,2.273 -4.436,0.912 -3.967,5.131 0.421,7.151 0.007,0.003 0.013,0.005 0.019,0.008 0.003,0.001 0.005,0.002 0.007,0.003 0.805,0.368 1.74,0.662 2.801,0.848 0.002,0 0.003,0 0.004,0.001 0.013,0.002 0.026,0.004 0.039,0.006 0.472,0.082 0.978,0.12 1.507,0.12 1.791,0 3.85,-0.44 5.783,-1.147 1.556,-0.569 3.032,-1.311 4.218,-2.135 -0.999,4.089 -4.59,8.522 -11.172,11.65 -2.827,1.344 -5.207,1.769 -7.393,1.769 -1.88,0 -3.616,-0.315 -5.368,-0.629 -1.751,-0.315 -3.519,-0.629 -5.463,-0.629 -2.502,0 -5.296,0.521 -8.724,2.235 -11.845,5.923 -17.69,4.987 -26.36,16.01 -7.596,9.659 -24.221,16.924 -32.019,16.924 -0.985,0 -1.83,-0.116 -2.497,-0.358 -1.84,-0.666 -3.71,-0.957 -5.593,-0.957 -12.066,0 -24.603,11.957 -32.546,13.727 -1.515,0.338 -2.971,0.505 -4.325,0.505 z" style="fill:#5b3127;fill-rule:nonzero" id="path28"/>
        <path d="m 105.059,184.66 c -3.731,-1.667 -8.392,1.316 -13.655,2.962 -5.265,1.644 -3.619,10.366 3.291,12.174 6.909,1.81 21.059,-10.366 10.364,-15.136 z" style="fill:#963c22;fill-rule:nonzero" id="path30"/>
        <path d="m 94.695,195.719 c -3.199,-0.838 -5.252,-3.156 -6.032,-5.569 -1.278,3.242 0.943,8.314 6.032,9.646 5.764,1.508 16.552,-6.709 13.769,-12.247 -1.897,4.715 -9.327,9.333 -13.769,8.17 z" style="fill:#37302b;fill-rule:nonzero" id="path32"/>
        <path d="m 94.17,194.381 c -0.154,0 -0.305,-0.005 -0.452,-0.015 -4.391,-0.313 -4.376,-4.967 -1.285,-4.967 0.143,0 0.294,0.01 0.451,0.031 0.142,0.019 0.279,0.028 0.413,0.028 1.314,0 2.237,-0.884 3.13,-1.767 0.892,-0.884 1.756,-1.767 2.953,-1.767 0.507,0 1.075,0.159 1.731,0.545 5.415,3.186 -2.276,7.912 -6.941,7.912 z" style="fill:#b15929;fill-rule:nonzero" id="path34"/>
        <path d="m 260.757,167.359 c -3.731,-1.095 -8.39,0.867 -13.655,1.95 -5.265,1.085 -3.621,6.826 3.29,8.021 6.91,1.191 21.061,-6.828 10.365,-9.971 z" style="fill:#963c22;fill-rule:nonzero" id="path36"/>
        <path d="m 250.392,174.643 c -3.198,-0.552 -5.253,-2.079 -6.031,-3.668 -1.279,2.136 0.944,5.476 6.031,6.355 5.764,0.994 16.554,-4.421 13.772,-8.066 -1.901,3.104 -9.328,6.146 -13.772,5.379 z" style="fill:#37302b;fill-rule:nonzero" id="path38"/>
        <path d="m 249.87,173.762 c -0.155,0 -0.306,-0.004 -0.453,-0.011 -4.394,-0.205 -4.377,-3.27 -1.287,-3.27 0.144,0 0.295,0.007 0.452,0.021 0.142,0.012 0.279,0.018 0.412,0.018 1.315,0 2.238,-0.582 3.131,-1.164 0.893,-0.582 1.756,-1.164 2.953,-1.164 0.508,0 1.076,0.105 1.731,0.359 5.415,2.099 -2.273,5.211 -6.939,5.211 z" style="fill:#b15929;fill-rule:nonzero" id="path40"/>
        <path d="m 195.267,122.14 c -3.731,-1.097 -8.393,0.866 -13.656,1.95 -5.266,1.083 -3.62,6.826 3.291,8.017 6.909,1.192 21.059,-6.826 10.365,-9.967 z" style="fill:#963c22;fill-rule:nonzero" id="path42"/>
        <path d="m 184.902,129.424 c -3.2,-0.552 -5.255,-2.081 -6.033,-3.668 -1.277,2.134 0.945,5.475 6.033,6.351 5.765,0.995 16.552,-4.418 13.77,-8.065 -1.901,3.106 -9.328,6.147 -13.77,5.382 z" style="fill:#37302b;fill-rule:nonzero" id="path44"/>
        <path d="m 184.377,128.541 c -0.154,0 -0.306,-0.004 -0.454,-0.011 -4.391,-0.204 -4.375,-3.27 -1.283,-3.27 0.144,0 0.295,0.007 0.452,0.021 0.142,0.012 0.28,0.018 0.413,0.018 1.314,0 2.236,-0.582 3.129,-1.163 0.892,-0.582 1.755,-1.164 2.951,-1.164 0.508,0 1.077,0.105 1.733,0.36 5.415,2.096 -2.273,5.209 -6.941,5.209 z" style="fill:#b15929;fill-rule:nonzero" id="path46"/>
        <path d="m 246.011,210.971 c -4.663,-3.249 -5.593,-1.276 -10.365,1.5 -4.772,2.777 -9.213,3.27 -11.353,2.12 -1.083,-0.583 -2.462,2.29 -1.446,5.164 0.991,2.803 4.26,5.607 12.304,5.201 16.29,-0.824 16.29,-10.201 10.86,-13.985 z" style="fill:#963c22;fill-rule:nonzero" id="path48"/>
        <path d="m 235.151,222.158 c -8.665,0.439 -11.79,-2.852 -12.493,-5.85 -0.778,3.135 0.881,9.234 12.493,8.648 11.624,-0.588 14.949,-5.532 13.929,-9.689 -0.842,3.322 -4.856,6.433 -13.929,6.891 z" style="fill:#37302b;fill-rule:nonzero" id="path50"/>
        <path d="m 233.472,218.528 c -4.59,0 -3.872,-2.295 0.363,-3.115 3.716,-0.719 4.987,-2.573 6.358,-2.573 0.511,0 1.036,0.258 1.706,0.927 0,0 3.289,3.126 -4.937,4.442 -1.395,0.223 -2.553,0.319 -3.49,0.319 z" style="fill:#b15929;fill-rule:nonzero" id="path52"/>
        <path d="m 181.15,198.986 c -4.662,-3.249 -5.594,-1.274 -10.365,1.503 -4.772,2.776 -9.213,3.269 -11.354,2.117 -1.082,-0.583 -2.459,2.291 -1.444,5.164 0.991,2.804 4.259,5.608 12.303,5.202 16.292,-0.824 16.292,-10.201 10.86,-13.986 z" style="fill:#963c22;fill-rule:nonzero" id="path54"/>
        <path d="m 170.29,210.174 c -8.665,0.438 -11.789,-2.85 -12.494,-5.851 -0.777,3.136 0.886,9.235 12.494,8.649 11.625,-0.587 14.951,-5.53 13.93,-9.691 -0.842,3.322 -4.857,6.436 -13.93,6.893 z" style="fill:#37302b;fill-rule:nonzero" id="path56"/>
        <path d="m 168.61,206.544 c -4.588,0 -3.87,-2.295 0.364,-3.115 3.717,-0.72 4.988,-2.574 6.358,-2.574 0.51,0 1.035,0.258 1.705,0.928 0,0 3.291,3.127 -4.937,4.441 -1.395,0.224 -2.553,0.32 -3.49,0.32 z" style="fill:#b15929;fill-rule:nonzero" id="path58"/>
        <path d="m 246.009,184.183 c -4.661,-3.249 -5.594,-1.275 -10.365,1.5 -4.77,2.778 -9.215,3.27 -11.354,2.119 -1.082,-0.583 -2.46,2.29 -1.444,5.164 0.991,2.804 4.261,5.608 12.305,5.201 16.287,-0.823 16.287,-10.201 10.858,-13.984 z" style="fill:#963c22;fill-rule:nonzero" id="path60"/>
        <path d="m 235.151,195.371 c -8.667,0.438 -11.79,-2.852 -12.494,-5.852 -0.778,3.137 0.882,9.235 12.494,8.648 11.623,-0.587 14.949,-5.529 13.929,-9.689 -0.842,3.322 -4.86,6.434 -13.929,6.893 z" style="fill:#37302b;fill-rule:nonzero" id="path62"/>
        <path d="m 233.475,191.74 c -4.596,0 -3.879,-2.296 0.359,-3.116 3.716,-0.718 4.987,-2.573 6.357,-2.573 0.51,0 1.035,0.258 1.705,0.928 0,0 3.292,3.127 -4.936,4.443 -1.392,0.223 -2.549,0.318 -3.485,0.318 z" style="fill:#b15929;fill-rule:nonzero" id="path64"/>
        <path d="m 62.906,174.372 c -4.662,-3.249 -5.595,-1.274 -10.366,1.502 -4.773,2.775 -9.213,3.271 -11.353,2.116 -1.083,-0.582 -2.46,2.292 -1.445,5.166 0.991,2.804 4.26,5.608 12.304,5.202 16.289,-0.824 16.289,-10.202 10.86,-13.986 z" style="fill:#963c22;fill-rule:nonzero" id="path66"/>
        <path d="m 52.046,185.56 c -8.667,0.439 -11.789,-2.851 -12.493,-5.849 -0.779,3.134 0.885,9.233 12.493,8.647 11.624,-0.588 14.95,-5.531 13.929,-9.691 -0.841,3.323 -4.856,6.436 -13.929,6.893 z" style="fill:#37302b;fill-rule:nonzero" id="path68"/>
        <path d="m 50.371,181.93 c -4.593,0 -3.877,-2.295 0.359,-3.116 3.716,-0.72 4.987,-2.572 6.358,-2.572 0.51,0 1.035,0.257 1.705,0.927 0,0 3.289,3.125 -4.936,4.443 -1.393,0.223 -2.55,0.318 -3.486,0.318 z" style="fill:#b15929;fill-rule:nonzero" id="path70"/>
        <path d="m 162.041,256.482 c -1.206,-0.384 2.193,2.303 4.882,4.882 2.686,2.575 3.618,7.129 3.618,7.129 1.537,2.851 2.359,1.535 1.097,-3.126 -1.263,-4.662 -8.393,-8.502 -9.597,-8.885 z" style="fill:#91c961;fill-rule:nonzero" id="path72"/>
        <path d="m 176.629,267.724 c 0,0 4.057,-5.537 3.291,-12.888 z" style="fill:#91c961;fill-rule:nonzero" id="path74"/>
        <path d="m 182.224,265.969 c -1.427,2.358 3.947,1.755 3.345,-8.663 0,0 -1.919,6.304 -3.345,8.663 z" style="fill:#91c961;fill-rule:nonzero" id="path76"/>
        <path d="m 193.408,106.818 c 3.292,-3.72 6.432,-10.597 17.785,-14.383 11.353,-3.783 24.047,4.162 31.228,12.297 7.18,8.137 -1.144,5.489 -6.252,9.275 -5.109,3.784 -15.327,8.704 -21.95,3.784 -6.621,-4.922 -8.894,-6.881 -11.92,-7.034 -3.026,-0.156 -2.779,-0.724 -7.728,0.977 -4.947,1.706 -5.515,0 -1.163,-4.916 z" style="fill:#46612e;fill-rule:nonzero" id="path78"/>
        <path d="m 126.618,8.238 c 8.205,9.025 12.486,19.11 21.948,19.297 9.458,0.192 27.055,4.354 32.164,13.437 5.108,9.083 11.912,26.298 10.876,36.516 -1.037,10.217 -9.362,32.925 -8.226,45.79 1.134,12.866 6.806,25.924 7.092,31.787 0.285,5.863 6.34,4.577 6.154,-1.213 -0.192,-5.789 -6.44,-29.251 -6.154,-37.956 0.285,-8.702 1.432,-32.732 6.156,-38.029 4.726,-5.296 6.808,-6.434 8.701,-8.703 1.891,-2.269 0,-6.056 0,-6.056 0,0 -5.869,2.84 -7.002,4.354 -1.135,1.51 -3.724,1.702 -3.756,-2.652 -0.019,-2.868 -1.832,-12.224 -5.774,-20.494 -2.042,-4.279 -4.65,-8.269 -7.878,-10.913 -9.46,-7.758 -8.516,-1.326 -9.46,-7.758 -0.944,-6.434 1.156,-5.108 -2.732,-8.895 -3.891,-3.783 3.3,-5.297 -3.701,-6.621 -7.002,-1.324 -2.081,2.271 -13.624,-0.567 -11.539,-2.838 -17.787,-6.056 -21.38,-8.706 -3.594,-2.648 -9.081,1.136 -3.404,7.382 z" style="fill:#46612e;fill-rule:nonzero" id="path80"/>
        <path d="m 197.948,34.728 c 4.843,-3.841 6.054,-2.651 6.054,-7.001 0,-4.354 5.254,-0.947 3.951,3.501 -1.302,4.444 -3.763,1.987 -5.654,7.663 -1.891,5.676 2.056,8.512 -1.62,15.514 -3.677,7.002 -4.812,10.03 -7.461,7.381 -2.649,-2.652 -0.383,-2.652 -2.746,-8.707 -2.363,-6.052 2.466,-14.38 7.476,-18.351 z" style="fill:#557837;fill-rule:nonzero" id="path82"/>
        <path d="m 193.168,106.571 c 4.837,-3.837 6.054,-2.648 6.054,-6.998 0,-4.353 5.252,-0.947 3.951,3.497 -1.302,4.448 -3.767,1.988 -5.657,7.663 -1.89,5.676 2.058,8.516 -1.618,15.518 -3.678,6.998 -4.812,10.026 -7.46,7.378 -2.65,-2.649 -0.388,-2.649 -2.748,-8.704 -2.361,-6.055 2.466,-14.379 7.478,-18.354 z" style="fill:#557837;fill-rule:nonzero" id="path84"/>
        <path d="m 190.569,87.705 c -4.161,-4.729 -12.298,-11.731 -17.597,-11.539 -5.298,0.187 -1.136,-3.787 -10.027,-0.947 -8.893,2.836 -4.354,8.516 -12.298,9.271 -7.949,0.755 -5.488,5.109 3.405,7.569 8.893,2.457 16.838,-0.759 21.379,3.782 4.542,4.542 11.732,7.003 12.867,7.003 1.137,0 6.046,-10.848 2.271,-15.139 z" style="fill:#557837;fill-rule:nonzero" id="path86"/>
        <path d="m 202.299,65.189 c 5.701,-5.065 -2.839,-9.462 1.703,-17.594 4.541,-8.137 9.839,-6.435 12.299,-10.03 2.461,-3.595 4.92,-5.297 7.949,-4.35 3.028,0.943 1.133,-3.219 5.485,-3.407 4.353,-0.188 24.031,10.972 30.652,11.539 6.624,0.571 16.623,7.002 2.542,5.109 -14.083,-1.889 -20.213,-3.407 -19.135,1.041 1.078,4.447 -1.38,19.398 -11.975,18.451 -10.598,-0.946 -13.813,-5.679 -15.326,-0.759 -1.515,4.921 -5.109,10.598 -10.218,8.704 -5.108,-1.893 -7.385,-5.676 -3.976,-8.704 z" style="fill:#557837;fill-rule:nonzero" id="path88"/>
        <path d="m 196.852,140.236 c 5.725,-1.201 1.713,-7.378 7.835,-11.063 6.118,-3.684 8.994,-0.536 12.001,-1.991 3.004,-1.455 5.289,-1.651 6.943,0.133 1.655,1.78 1.982,-1.709 4.949,-0.18 2.969,1.53 11.813,16.449 16.003,19.347 4.189,2.904 8.398,10.988 -0.254,4.37 -8.649,-6.623 -12.153,-9.963 -13.128,-6.596 -0.974,3.373 -8.303,12.386 -14.993,7.719 -6.692,-4.663 -7.031,-9.037 -9.91,-6.337 -2.88,2.695 -7.433,5.105 -10.113,1.901 -2.679,-3.204 -2.752,-6.588 0.667,-7.303 z" style="fill:#557837;fill-rule:nonzero" id="path90"/>
        <path d="m 230.927,76.709 c 2.147,-2.742 6.043,-0.915 5.578,-3.434 -0.465,-2.519 -0.063,-2.774 2.363,-2.703 2.424,0.07 1.435,-2.249 3.043,-1.968 1.607,0.286 1.571,-1.896 3.118,-6.986 1.549,-5.089 3.677,-6.74 -0.145,-6.857 -3.824,-0.118 -2.23,-0.126 -5.257,-0.466 -3.028,-0.34 -6.887,0.54 -9.988,3.924 -3.098,3.383 -8.022,6.967 -4.623,10.362 3.4,3.396 2.645,5.081 1.814,6.297 -0.831,1.221 1.748,4.828 4.097,1.831 z" style="fill:#557837;fill-rule:nonzero" id="path92"/>
        <path d="m 266.93,72.113 c 0.54,-3.79 4.049,-1.952 6.193,-1.572 2.143,0.379 0.246,-5.09 -3.997,-6.263 -4.246,-1.174 -5.77,-0.994 -7.805,-3.56 -2.031,-2.562 -8.805,-5.519 -11.653,-0.755 -2.847,4.765 -2.047,6.857 -3.481,6.505 -1.432,-0.352 -1.918,0.732 -0.966,2.172 0.947,1.431 1.553,1.701 -0.955,2.46 -2.508,0.763 -5.296,5.875 -5.203,8.66 0.094,2.789 3.308,-2.28 6.293,-2.104 2.986,0.176 6.37,3.274 6.52,1.319 0.151,-1.956 0.135,-2.539 3.022,-1.252 2.888,1.29 6.634,0.66 6.973,-0.423 0.339,-1.084 4.653,-2.335 5.059,-5.187 z" style="fill:#557837;fill-rule:nonzero" id="path94"/>
        <path d="m 191.141,91.394 c 0,0 13.069,-11.113 27.127,-13.472 14.06,-2.355 21.99,-1.889 28.859,1.174 6.867,3.062 13.757,4.623 13.757,4.623 0,0 -1.795,4.397 -7.498,2.179 -5.706,-2.218 -8.675,-5.277 -19.987,-4.69 -11.316,0.586 -17.223,-0.751 -29.632,7.151 -12.411,7.897 -12.315,12.059 -15.366,9.18 -3.049,-2.879 2.74,-6.145 2.74,-6.145 z" style="fill:#46612e;fill-rule:nonzero" id="path96"/>
        <path d="m 254.701,83.414 c 1.816,0.595 1.804,-1.217 3.32,-1.698 1.515,-0.477 -1.483,-1.529 2.107,-1.803 3.591,-0.277 15.283,1.041 17.618,5.84 2.341,4.8 3.445,9.772 -0.132,10.343 -3.58,0.571 -3.614,1.302 -2.61,4.557 1.005,3.251 0.399,4.28 2.433,6.2 2.032,1.917 4.039,5.848 1.375,4.37 -2.666,-1.479 -4.931,-1.91 -5.13,-1.135 -0.204,0.779 -2.307,1.283 -3.431,-0.086 -1.123,-1.369 0.348,2.778 -3.579,-0.72 -3.929,-3.497 -2.267,-6.943 -5.218,-11.152 -2.953,-4.205 -11.638,-16.316 -6.753,-14.716 z" style="fill:#557837;fill-rule:nonzero" id="path98"/>
        <path d="m 225.966,79.408 c 0,0 -8.49,-2.346 -10.74,5.61 -2.25,7.956 3.311,17.517 7.647,20.748 4.336,3.234 6.634,7.15 6.634,7.15 0,0 3.143,-5.097 1.688,-8.637 -1.455,-3.54 2.028,-3.571 3.485,-10.726 1.458,-7.151 -5.39,-15.118 -8.714,-14.145 z" style="fill:#5f8c3e;fill-rule:nonzero" id="path100"/>
        <path d="m 245.752,80.723 c 5.813,1.146 8.872,5.691 11.649,13.722 2.774,8.027 5.666,9.318 2.43,14.954 -3.239,5.633 -5.064,8.434 -4.291,11.231 0.772,2.801 -4.347,3.267 -4.702,-0.794 -0.357,-4.061 -1.076,-5.684 -2.162,-6.169 -1.084,-0.481 -9.216,-9.455 -9.059,-15.31 0.154,-5.856 4.058,-4.691 0.254,-8.41 -3.8,-3.72 -4.702,-5.062 -2.189,-7.335 2.516,-2.272 3.423,-2.808 8.07,-1.889 z" style="fill:#5f8c3e;fill-rule:nonzero" id="path102"/>
        <path d="m 150.813,52.351 c -2.149,-2.738 -6.042,-0.915 -5.578,-3.434 0.468,-2.52 0.063,-2.77 -2.362,-2.7 -2.424,0.071 -1.436,-2.253 -3.041,-1.967 -1.608,0.285 -1.574,-1.901 -3.122,-6.99 -1.545,-5.085 -3.673,-6.737 0.148,-6.853 3.822,-0.118 2.226,-0.126 5.254,-0.466 3.027,-0.34 6.889,0.536 9.986,3.923 3.102,3.384 8.023,6.967 4.623,10.363 -3.395,3.395 -2.644,5.081 -1.81,6.297 0.831,1.217 -1.748,4.828 -4.098,1.827 z" style="fill:#557837;fill-rule:nonzero" id="path104"/>
        <path d="m 114.807,47.759 c -0.537,-3.795 -4.049,-1.952 -6.189,-1.572 -2.144,0.378 -0.249,-5.094 3.996,-6.264 4.245,-1.173 5.769,-0.993 7.803,-3.559 2.034,-2.566 8.807,-5.519 11.657,-0.755 2.845,4.765 2.046,6.853 3.477,6.501 1.436,-0.348 1.917,0.736 0.97,2.171 -0.95,1.436 -1.553,1.706 0.955,2.465 2.506,0.758 5.293,5.871 5.198,8.66 -0.091,2.785 -3.305,-2.28 -6.29,-2.104 -2.984,0.176 -6.371,3.274 -6.52,1.318 -0.149,-1.956 -0.133,-2.538 -3.022,-1.252 -2.885,1.287 -6.633,0.661 -6.972,-0.422 -0.339,-1.084 -4.655,-2.336 -5.063,-5.187 z" style="fill:#557837;fill-rule:nonzero" id="path106"/>
        <path d="m 190.597,67.04 c 0,0 -13.064,-11.117 -27.124,-13.473 -14.06,-2.358 -21.992,-1.893 -28.86,1.174 -6.869,3.063 -13.758,4.62 -13.758,4.62 0,0 1.795,4.401 7.499,2.179 5.703,-2.214 8.672,-5.273 19.986,-4.69 11.315,0.586 17.222,-0.747 29.633,7.15 12.411,7.902 12.316,12.064 15.365,9.181 3.052,-2.875 -2.741,-6.141 -2.741,-6.141 z" style="fill:#46612e;fill-rule:nonzero" id="path108"/>
        <path d="m 127.04,59.06 c -1.818,0.594 -1.807,-1.217 -3.322,-1.698 -1.513,-0.477 1.484,-1.529 -2.104,-1.803 -3.59,-0.278 -15.287,1.041 -17.622,5.836 -2.34,4.8 -3.443,9.775 0.134,10.342 3.578,0.572 3.617,1.307 2.612,4.557 -1.006,3.251 -0.403,4.284 -2.433,6.201 -2.034,1.921 -4.039,5.848 -1.375,4.373 2.664,-1.478 4.927,-1.909 5.13,-1.134 0.201,0.778 2.306,1.283 3.429,-0.087 1.125,-1.369 -0.351,2.778 3.579,-0.719 3.93,-3.497 2.267,-6.948 5.221,-11.153 2.953,-4.209 11.632,-16.315 6.751,-14.715 z" style="fill:#557837;fill-rule:nonzero" id="path110"/>
        <path d="m 155.775,55.05 c 0,0 8.489,-2.343 10.738,5.614 2.249,7.952 -3.309,17.512 -7.645,20.747 -4.336,3.235 -6.635,7.151 -6.635,7.151 0,0 -3.143,-5.101 -1.688,-8.637 1.456,-3.54 -2.029,-3.575 -3.486,-10.726 -1.457,-7.151 5.392,-15.119 8.716,-14.149 z" style="fill:#5f8c3e;fill-rule:nonzero" id="path112"/>
        <path d="m 135.99,56.368 c -5.816,1.147 -8.874,5.692 -11.65,13.723 -2.775,8.027 -5.669,9.317 -2.43,14.954 3.237,5.633 5.063,8.434 4.289,11.231 -0.772,2.801 4.347,3.262 4.703,-0.795 0.354,-4.06 1.076,-5.683 2.161,-6.168 1.084,-0.481 9.217,-9.459 9.06,-15.311 -0.156,-5.855 -4.056,-4.694 -0.254,-8.41 3.8,-3.719 4.701,-5.066 2.187,-7.334 -2.512,-2.273 -3.419,-2.809 -8.066,-1.89 z" style="fill:#5f8c3e;fill-rule:nonzero" id="path114"/>
        <path d="m 136.635,112.032 c -2.734,-3.489 -7.69,-1.165 -7.1,-4.373 0.592,-3.204 0.078,-3.529 -3.008,-3.439 -3.085,0.091 -1.827,-2.863 -3.872,-2.503 -2.046,0.364 -2.003,-2.418 -3.971,-8.895 -1.972,-6.478 -4.678,-8.579 0.186,-8.727 4.867,-0.149 2.836,-0.161 6.691,-0.595 3.853,-0.43 8.766,0.689 12.711,4.995 3.949,4.311 10.211,8.872 5.888,13.191 -4.325,4.322 -3.367,6.47 -2.307,8.019 1.057,1.549 -2.226,6.145 -5.218,2.327 z" style="fill:#557837;fill-rule:nonzero" id="path116"/>
        <path d="m 90.803,106.184 c -0.685,-4.827 -5.155,-2.484 -7.882,-2.003 -2.728,0.482 -0.317,-6.481 5.087,-7.972 5.407,-1.49 7.346,-1.263 9.937,-4.529 2.587,-3.263 11.208,-7.026 14.837,-0.963 3.622,6.063 2.604,8.727 4.428,8.277 1.824,-0.442 2.44,0.935 1.231,2.766 -1.208,1.827 -1.978,2.167 1.216,3.133 3.191,0.97 6.739,7.48 6.62,11.027 -0.117,3.548 -4.209,-2.906 -8.007,-2.683 -3.803,0.227 -8.112,4.174 -8.301,1.681 -0.192,-2.487 -0.172,-3.234 -3.849,-1.591 -3.673,1.639 -8.446,0.84 -8.873,-0.539 -0.433,-1.378 -5.925,-2.974 -6.444,-6.604 z" style="fill:#557837;fill-rule:nonzero" id="path118"/>
        <path d="m 187.281,130.726 c 0,0 -16.634,-14.148 -34.53,-17.149 -17.9,-3 -27.995,-2.406 -36.739,1.494 -8.743,3.901 -17.512,5.884 -17.512,5.884 0,0 2.285,5.598 9.544,2.773 7.264,-2.82 11.043,-6.716 25.446,-5.969 14.403,0.747 21.922,-0.951 37.721,9.102 15.797,10.057 15.674,15.354 19.559,11.689 3.883,-3.665 -3.489,-7.824 -3.489,-7.824 z" style="fill:#46612e;fill-rule:nonzero" id="path120"/>
        <path d="m 106.374,120.571 c -2.314,0.756 -2.299,-1.552 -4.228,-2.163 -1.929,-0.606 1.89,-1.944 -2.682,-2.296 -4.571,-0.352 -19.457,1.326 -22.431,7.433 -2.977,6.109 -4.382,12.438 0.171,13.166 4.555,0.727 4.604,1.659 3.324,5.801 -1.279,4.138 -0.511,5.45 -3.097,7.894 -2.59,2.441 -5.139,7.444 -1.75,5.563 3.392,-1.882 6.273,-2.429 6.53,-1.444 0.258,0.99 2.936,1.631 4.366,-0.109 1.431,-1.741 -0.446,3.536 4.555,-0.916 5.003,-4.451 2.887,-8.84 6.645,-14.196 3.759,-5.358 14.813,-20.77 8.597,-18.733 z" style="fill:#557837;fill-rule:nonzero" id="path122"/>
        <path d="m 142.953,115.467 c 0,0 10.804,-2.981 13.669,7.142 2.864,10.128 -4.215,22.297 -9.734,26.417 -5.519,4.114 -8.446,9.101 -8.446,9.101 0,0 -4.002,-6.492 -2.148,-10.999 1.851,-4.503 -2.582,-4.545 -4.435,-13.651 -1.856,-9.103 6.86,-19.247 11.094,-18.01 z" style="fill:#5f8c3e;fill-rule:nonzero" id="path124"/>
        <path d="m 117.765,117.145 c -7.401,1.459 -11.296,7.244 -14.829,17.466 -3.533,10.222 -7.214,11.864 -3.094,19.038 4.122,7.17 6.446,10.734 5.46,14.297 -0.981,3.564 5.535,4.154 5.99,-1.013 0.449,-5.167 1.369,-7.232 2.749,-7.85 1.381,-0.614 11.731,-12.042 11.534,-19.492 -0.199,-7.452 -5.165,-5.97 -0.324,-10.708 4.835,-4.732 5.984,-6.442 2.785,-9.332 -3.201,-2.896 -4.357,-3.576 -10.271,-2.406 z" style="fill:#5f8c3e;fill-rule:nonzero" id="path126"/>
        <path d="m 197.623,155.133 c 0,0 -2.856,3.147 -5.042,2.252 -2.191,-0.896 -3.85,-1.268 -3.85,-1.268 0,0 3.759,4.024 6.177,3.272 2.417,-0.751 2.715,-4.256 2.715,-4.256 z" style="fill:#813e20;fill-rule:nonzero" id="path128"/>
        <path d="m 196.809,154.413 c 0,0 2.142,1.159 0.814,2.609 -1.33,1.452 -4.679,1.955 -5.967,1.271 -1.289,-0.681 -2.925,-2.534 -2.925,-2.534 0,0 -2.169,0.28 -2.754,0.745 -0.585,0.466 4.519,0.319 3.552,2.979 -0.966,2.66 0.889,2.746 3.052,1.827 2.158,-0.92 3.079,-0.837 5.914,-1.169 2.836,-0.333 5.308,-4.946 -1.686,-5.728 z" style="fill:#963c22;fill-rule:nonzero" id="path130"/>
        <path d="m 169.601,26.407 c -2.588,-4.328 -8.679,-10.579 -15.938,-11.585 -7.261,-1.005 -9.85,0.665 -13.519,2.668 -3.674,2.003 -10.183,1.919 -13.268,3.587 -3.089,1.671 -2.171,7.679 2.084,7.761 4.256,0.084 11.434,-5.807 14.855,-3.947 3.42,1.862 4.841,2.278 10.515,5.533 5.673,3.255 10.39,6.401 13.352,4.34 2.957,-2.061 1.919,-8.357 1.919,-8.357 z" style="fill:#557837;fill-rule:nonzero" id="path132"/>
        <path d="m 179.115,36.016 c -2.436,-4.837 -5.592,-8.344 -2.004,-10.306 3.59,-1.961 2.757,0.206 6.425,-2.462 3.674,-2.672 2.8,-1.557 5.324,-5.328 2.521,-3.769 3.725,-10.11 7.84,-6.523 4.111,3.589 6.614,6.009 5.447,8.512 -1.168,2.504 -1.919,1.293 -3.505,6.194 -1.587,4.906 -2.503,10.246 -6.093,12.667 -3.588,2.419 -7.51,9.012 -13.434,-2.754 z" style="fill:#78a341;fill-rule:nonzero" id="path134"/>
        <path d="m 119.357,136.234 c 3.29,-3.72 6.433,-10.597 17.786,-14.381 11.353,-3.785 24.046,4.162 31.228,12.298 7.181,8.137 -1.145,5.488 -6.253,9.273 -5.109,3.783 -15.324,8.703 -21.947,3.783 -6.622,-4.919 -8.897,-6.88 -11.922,-7.034 -3.029,-0.157 -2.778,-0.724 -7.727,0.978 -4.949,1.705 -5.519,0 -1.165,-4.917 z" style="fill:#46612e;fill-rule:nonzero" id="path136"/>
        <path d="m 52.564,37.655 c 8.208,9.026 12.49,19.109 21.948,19.298 9.463,0.19 27.059,4.352 32.167,13.435 5.109,9.083 11.911,26.299 10.876,36.516 -1.036,10.217 -9.362,32.925 -8.228,45.79 1.136,12.866 6.807,25.924 7.094,31.787 0.288,5.865 6.343,4.577 6.151,-1.212 -0.187,-5.788 -6.438,-29.25 -6.151,-37.954 0.288,-8.703 1.43,-32.735 6.157,-38.032 4.725,-5.296 6.809,-6.432 8.698,-8.703 1.893,-2.269 0,-6.056 0,-6.056 0,0 -5.864,2.84 -6.998,4.354 -1.137,1.512 -3.728,1.702 -3.756,-2.65 -0.019,-2.868 -1.833,-12.226 -5.777,-20.495 -2.037,-4.28 -4.649,-8.268 -7.876,-10.914 -9.46,-7.757 -8.514,-1.324 -9.46,-7.757 -0.948,-6.435 1.153,-5.108 -2.736,-8.894 -3.887,-3.784 3.303,-5.298 -3.698,-6.622 -7,-1.324 -2.082,2.271 -13.622,-0.567 -11.544,-2.838 -17.787,-6.056 -21.382,-8.706 -3.594,-2.648 -9.083,1.137 -3.407,7.382 z" style="fill:#46612e;fill-rule:nonzero" id="path138"/>
        <path d="m 123.899,64.145 c 4.839,-3.84 6.055,-2.65 6.055,-7.002 0,-4.352 5.252,-0.947 3.951,3.501 -1.303,4.446 -3.767,1.987 -5.656,7.663 -1.892,5.676 2.057,8.514 -1.621,15.514 -3.676,7.002 -4.81,10.03 -7.46,7.381 -2.649,-2.65 -0.386,-2.652 -2.747,-8.705 -2.36,-6.054 2.467,-14.381 7.478,-18.352 z" style="fill:#557837;fill-rule:nonzero" id="path140"/>
        <path d="m 119.114,135.989 c 4.843,-3.839 6.056,-2.649 6.056,-7 0,-4.354 5.253,-0.946 3.951,3.499 -1.303,4.446 -3.764,1.988 -5.654,7.663 -1.892,5.676 2.055,8.515 -1.62,15.517 -3.678,6.999 -4.814,10.027 -7.462,7.379 -2.648,-2.65 -0.384,-2.65 -2.746,-8.706 -2.362,-6.053 2.466,-14.379 7.475,-18.352 z" style="fill:#557837;fill-rule:nonzero" id="path142"/>
        <path d="m 116.519,117.121 c -4.164,-4.729 -12.3,-11.729 -17.598,-11.539 -5.295,0.188 -1.133,-3.787 -10.028,-0.947 -8.892,2.836 -4.35,8.516 -12.3,9.271 -7.944,0.756 -5.483,5.109 3.408,7.569 8.892,2.459 16.839,-0.759 21.381,3.783 4.542,4.541 11.732,7.002 12.866,7.002 1.135,0 6.044,-10.847 2.271,-15.139 z" style="fill:#557837;fill-rule:nonzero" id="path144"/>
        <path d="m 128.249,94.605 c 5.703,-5.065 -2.837,-9.46 1.705,-17.594 4.54,-8.137 9.839,-6.435 12.298,-10.03 2.458,-3.595 4.917,-5.296 7.945,-4.35 3.028,0.945 1.136,-3.219 5.489,-3.407 4.352,-0.187 24.029,10.974 30.65,11.542 6.624,0.568 16.626,7 2.544,5.108 -14.084,-1.891 -20.215,-3.409 -19.136,1.039 1.08,4.448 -1.381,19.398 -11.978,18.451 -10.597,-0.947 -13.812,-5.677 -15.326,-0.759 -1.514,4.922 -5.108,10.597 -10.218,8.704 -5.108,-1.891 -7.381,-5.676 -3.973,-8.704 z" style="fill:#557837;fill-rule:nonzero" id="path146"/>
        <path d="m 122.803,169.651 c 5.723,-1.2 1.713,-7.377 7.831,-11.062 6.12,-3.684 8.997,-0.534 12.001,-1.989 3.008,-1.457 5.293,-1.652 6.948,0.131 1.654,1.78 1.979,-1.71 4.946,-0.18 2.967,1.532 11.811,16.451 16.005,19.349 4.19,2.901 8.396,10.987 -0.254,4.369 -8.654,-6.622 -12.154,-9.963 -13.131,-6.595 -0.976,3.37 -8.302,12.383 -14.992,7.717 -6.692,-4.663 -7.031,-9.035 -9.911,-6.337 -2.879,2.697 -7.432,5.104 -10.112,1.901 -2.679,-3.204 -2.752,-6.587 0.669,-7.304 z" style="fill:#557837;fill-rule:nonzero" id="path148"/>
        <path d="m 156.876,106.125 c 2.15,-2.741 6.042,-0.915 5.579,-3.434 -0.468,-2.519 -0.063,-2.774 2.362,-2.703 2.424,0.071 1.435,-2.249 3.041,-1.966 1.608,0.284 1.573,-1.899 3.12,-6.988 1.547,-5.089 3.675,-6.74 -0.146,-6.857 -3.823,-0.117 -2.227,-0.125 -5.254,-0.466 -3.028,-0.338 -6.889,0.54 -9.987,3.924 -3.101,3.384 -8.022,6.968 -4.624,10.362 3.396,3.395 2.645,5.081 1.812,6.298 -0.831,1.22 1.748,4.827 4.097,1.83 z" style="fill:#557837;fill-rule:nonzero" id="path150"/>
        <path d="m 192.882,101.529 c 0.536,-3.79 4.048,-1.95 6.19,-1.572 2.143,0.379 0.248,-5.089 -3.996,-6.263 -4.246,-1.172 -5.77,-0.991 -7.803,-3.559 -2.034,-2.563 -8.808,-5.518 -11.658,-0.756 -2.845,4.765 -2.045,6.858 -3.477,6.506 -1.436,-0.351 -1.917,0.733 -0.97,2.171 0.95,1.433 1.553,1.701 -0.955,2.46 -2.505,0.763 -5.292,5.876 -5.198,8.661 0.091,2.789 3.305,-2.281 6.29,-2.105 2.985,0.176 6.372,3.276 6.521,1.321 0.147,-1.956 0.132,-2.541 3.021,-1.252 2.885,1.289 6.634,0.661 6.973,-0.425 0.339,-1.081 4.654,-2.335 5.062,-5.187 z" style="fill:#557837;fill-rule:nonzero" id="path152"/>
        <path d="m 117.092,120.81 c 0,0 13.065,-11.113 27.124,-13.472 14.061,-2.355 21.992,-1.889 28.86,1.174 6.87,3.064 13.758,4.624 13.758,4.624 0,0 -1.795,4.396 -7.499,2.178 -5.703,-2.218 -8.672,-5.277 -19.987,-4.69 -11.314,0.587 -17.221,-0.75 -29.633,7.151 -12.41,7.898 -12.314,12.06 -15.365,9.18 -3.051,-2.879 2.742,-6.145 2.742,-6.145 z" style="fill:#46612e;fill-rule:nonzero" id="path154"/>
        <path d="m 180.65,112.83 c 1.816,0.597 1.807,-1.216 3.32,-1.695 1.515,-0.48 -1.482,-1.53 2.105,-1.806 3.591,-0.278 15.287,1.041 17.623,5.84 2.339,4.8 3.442,9.772 -0.135,10.343 -3.578,0.571 -3.617,1.302 -2.611,4.557 1.006,3.251 0.402,4.28 2.432,6.201 2.034,1.916 4.038,5.847 1.375,4.369 -2.664,-1.479 -4.926,-1.91 -5.131,-1.135 -0.2,0.779 -2.304,1.283 -3.427,-0.086 -1.125,-1.367 0.349,2.78 -3.579,-0.72 -3.93,-3.497 -2.268,-6.943 -5.221,-11.152 -2.953,-4.205 -11.633,-16.316 -6.751,-14.716 z" style="fill:#557837;fill-rule:nonzero" id="path156"/>
        <path d="m 151.915,108.825 c 0,0 -8.49,-2.346 -10.739,5.609 -2.248,7.957 3.31,17.516 7.646,20.75 4.336,3.234 6.634,7.15 6.634,7.15 0,0 3.143,-5.099 1.688,-8.639 -1.455,-3.538 2.028,-3.571 3.485,-10.726 1.458,-7.15 -5.39,-15.118 -8.714,-14.144 z" style="fill:#5f8c3e;fill-rule:nonzero" id="path158"/>
        <path d="m 171.699,110.139 c 5.815,1.146 8.875,5.692 11.65,13.722 2.776,8.029 5.668,9.318 2.431,14.954 -3.237,5.635 -5.064,8.435 -4.289,11.233 0.77,2.801 -4.349,3.264 -4.704,-0.796 -0.354,-4.06 -1.077,-5.684 -2.161,-6.167 -1.084,-0.483 -9.217,-9.456 -9.06,-15.313 0.156,-5.853 4.057,-4.689 0.254,-8.409 -3.8,-3.718 -4.701,-5.062 -2.187,-7.335 2.511,-2.27 3.419,-2.806 8.066,-1.889 z" style="fill:#5f8c3e;fill-rule:nonzero" id="path160"/>
        <path d="m 76.762,81.769 c -2.147,-2.74 -6.043,-0.915 -5.578,-3.434 0.465,-2.52 0.064,-2.772 -2.362,-2.701 -2.424,0.07 -1.436,-2.252 -3.044,-1.968 -1.608,0.286 -1.57,-1.899 -3.117,-6.988 -1.549,-5.088 -3.677,-6.738 0.145,-6.856 3.823,-0.117 2.23,-0.125 5.257,-0.465 3.027,-0.34 6.887,0.538 9.986,3.923 3.1,3.384 8.023,6.967 4.624,10.363 -3.399,3.395 -2.645,5.081 -1.814,6.297 0.833,1.219 -1.747,4.828 -4.097,1.829 z" style="fill:#557837;fill-rule:nonzero" id="path162"/>
        <path d="m 40.758,77.175 c -0.539,-3.793 -4.05,-1.952 -6.191,-1.573 -2.144,0.38 -0.249,-5.091 3.996,-6.262 4.245,-1.174 5.772,-0.994 7.805,-3.56 2.032,-2.564 8.805,-5.519 11.653,-0.755 2.848,4.765 2.048,6.855 3.481,6.503 1.432,-0.35 1.917,0.734 0.967,2.171 -0.949,1.434 -1.552,1.704 0.954,2.463 2.508,0.761 5.296,5.873 5.203,8.66 -0.094,2.787 -3.308,-2.281 -6.292,-2.104 -2.986,0.176 -6.371,3.274 -6.521,1.318 -0.15,-1.955 -0.135,-2.539 -3.021,-1.251 -2.887,1.288 -6.634,0.66 -6.973,-0.423 -0.339,-1.084 -4.652,-2.336 -5.061,-5.187 z" style="fill:#557837;fill-rule:nonzero" id="path164"/>
        <path d="m 116.548,96.456 c 0,0 -13.069,-11.115 -27.128,-13.472 -14.058,-2.357 -21.989,-1.892 -28.858,1.173 -6.867,3.063 -13.758,4.622 -13.758,4.622 0,0 1.796,4.399 7.499,2.179 5.705,-2.216 8.674,-5.275 19.987,-4.69 11.316,0.586 17.223,-0.749 29.631,7.15 12.413,7.9 12.317,12.062 15.368,9.181 3.048,-2.877 -2.741,-6.143 -2.741,-6.143 z" style="fill:#46612e;fill-rule:nonzero" id="path166"/>
        <path d="m 52.989,88.476 c -1.818,0.595 -1.805,-1.217 -3.321,-1.698 -1.514,-0.477 1.485,-1.529 -2.107,-1.803 -3.591,-0.278 -15.283,1.04 -17.62,5.838 -2.337,4.8 -3.442,9.774 0.135,10.342 3.577,0.572 3.615,1.305 2.609,4.558 -1.005,3.25 -0.399,4.282 -2.434,6.2 -2.034,1.918 -4.036,5.848 -1.372,4.371 2.664,-1.478 4.926,-1.909 5.128,-1.134 0.204,0.778 2.309,1.283 3.431,-0.087 1.122,-1.369 -0.351,2.778 3.579,-0.719 3.929,-3.497 2.267,-6.946 5.218,-11.152 2.954,-4.207 11.638,-16.316 6.754,-14.716 z" style="fill:#557837;fill-rule:nonzero" id="path168"/>
        <path d="m 81.723,84.468 c 0,0 8.49,-2.345 10.74,5.612 2.249,7.954 -3.31,17.514 -7.646,20.747 -4.336,3.235 -6.635,7.151 -6.635,7.151 0,0 -3.142,-5.099 -1.687,-8.637 1.455,-3.54 -2.03,-3.573 -3.487,-10.726 -1.456,-7.151 5.392,-15.118 8.715,-14.147 z" style="fill:#5f8c3e;fill-rule:nonzero" id="path170"/>
        <path d="m 61.937,85.785 c -5.813,1.146 -8.871,5.691 -11.648,13.722 -2.775,8.026 -5.666,9.318 -2.43,14.955 3.238,5.633 5.063,8.433 4.291,11.229 -0.773,2.801 4.346,3.265 4.701,-0.794 0.357,-4.06 1.076,-5.683 2.161,-6.169 1.084,-0.48 9.217,-9.456 9.06,-15.31 -0.154,-5.856 -4.059,-4.691 -0.254,-8.409 3.8,-3.721 4.703,-5.065 2.189,-7.335 -2.515,-2.273 -3.423,-2.808 -8.07,-1.889 z" style="fill:#5f8c3e;fill-rule:nonzero" id="path172"/>
        <path d="m 62.585,141.45 c -2.735,-3.492 -7.694,-1.167 -7.103,-4.373 0.595,-3.206 0.083,-3.53 -3.006,-3.441 -3.084,0.09 -1.828,-2.863 -3.872,-2.501 -2.048,0.362 -2.001,-2.42 -3.971,-8.897 -1.969,-6.478 -4.677,-8.578 0.186,-8.728 4.867,-0.148 2.837,-0.16 6.689,-0.592 3.855,-0.43 8.769,0.687 12.714,4.993 3.946,4.311 10.212,8.872 5.887,13.192 -4.326,4.321 -3.368,6.469 -2.309,8.018 1.059,1.55 -2.225,6.145 -5.215,2.329 z" style="fill:#557837;fill-rule:nonzero" id="path174"/>
        <path d="m 16.752,135.6 c -0.683,-4.827 -5.155,-2.483 -7.881,-2.003 -2.731,0.484 -0.317,-6.479 5.087,-7.97 5.404,-1.492 7.344,-1.263 9.936,-4.531 2.587,-3.263 11.208,-7.026 14.835,-0.96 3.624,6.06 2.605,8.724 4.43,8.276 1.824,-0.443 2.439,0.935 1.234,2.764 -1.21,1.827 -1.979,2.169 1.213,3.135 3.191,0.968 6.739,7.478 6.622,11.025 -0.119,3.548 -4.211,-2.904 -8.012,-2.681 -3.798,0.225 -8.108,4.172 -8.3,1.68 -0.19,-2.488 -0.168,-3.232 -3.845,-1.591 -3.673,1.638 -8.445,0.84 -8.876,-0.541 -0.43,-1.377 -5.924,-2.972 -6.443,-6.603 z" style="fill:#557837;fill-rule:nonzero" id="path176"/>
        <path d="m 113.231,160.142 c 0,0 -16.635,-14.146 -34.532,-17.147 -17.896,-3 -27.993,-2.407 -36.735,1.493 -8.743,3.899 -17.515,5.885 -17.515,5.885 0,0 2.287,5.598 9.546,2.773 7.26,-2.822 11.04,-6.716 25.442,-5.971 14.405,0.747 21.924,-0.95 37.721,9.102 15.8,10.058 15.678,15.354 19.561,11.689 3.883,-3.663 -3.488,-7.824 -3.488,-7.824 z" style="fill:#46612e;fill-rule:nonzero" id="path178"/>
        <path d="m 32.322,149.987 c -2.312,0.758 -2.299,-1.55 -4.227,-2.161 -1.927,-0.608 1.887,-1.945 -2.681,-2.297 -4.572,-0.352 -19.457,1.325 -22.43,7.434 -2.977,6.107 -4.384,12.438 0.172,13.165 4.553,0.727 4.599,1.658 3.32,5.801 -1.278,4.138 -0.51,5.448 -3.098,7.893 -2.586,2.441 -5.139,7.444 -1.748,5.562 3.392,-1.881 6.273,-2.428 6.529,-1.443 0.259,0.99 2.937,1.632 4.367,-0.109 1.431,-1.741 -0.445,3.535 4.556,-0.916 5.003,-4.451 2.886,-8.84 6.643,-14.196 3.762,-5.356 14.813,-20.77 8.597,-18.733 z" style="fill:#557837;fill-rule:nonzero" id="path180"/>
        <path d="m 68.9,144.885 c 0,0 10.808,-2.983 13.672,7.141 2.863,10.127 -4.214,22.297 -9.736,26.415 -5.518,4.117 -8.445,9.102 -8.445,9.102 0,0 -3.999,-6.492 -2.146,-10.997 1.851,-4.504 -2.585,-4.547 -4.439,-13.653 -1.854,-9.103 6.863,-19.246 11.094,-18.008 z" style="fill:#5f8c3e;fill-rule:nonzero" id="path182"/>
        <path d="m 43.711,146.562 c -7.398,1.458 -11.293,7.243 -14.826,17.464 -3.533,10.222 -7.215,11.866 -3.092,19.039 4.122,7.172 6.446,10.734 5.46,14.298 -0.983,3.565 5.532,4.153 5.985,-1.014 0.455,-5.167 1.369,-7.232 2.752,-7.851 1.379,-0.614 11.733,-12.039 11.534,-19.492 -0.199,-7.451 -5.167,-5.969 -0.324,-10.705 4.838,-4.732 5.984,-6.444 2.785,-9.334 -3.2,-2.894 -4.357,-3.575 -10.274,-2.405 z" style="fill:#5f8c3e;fill-rule:nonzero" id="path184"/>
        <path d="m 123.571,184.551 c 0,0 -2.853,3.145 -5.043,2.249 -2.187,-0.895 -3.848,-1.266 -3.848,-1.266 0,0 3.761,4.025 6.179,3.274 2.417,-0.752 2.712,-4.257 2.712,-4.257 z" style="fill:#813e20;fill-rule:nonzero" id="path186"/>
        <path d="m 122.76,183.832 c 0,0 2.14,1.158 0.811,2.608 -1.329,1.452 -4.678,1.953 -5.966,1.271 -1.289,-0.684 -2.925,-2.534 -2.925,-2.534 0,0 -2.169,0.278 -2.754,0.743 -0.585,0.466 4.517,0.321 3.553,2.981 -0.965,2.66 0.889,2.746 3.049,1.827 2.161,-0.92 3.078,-0.837 5.916,-1.169 2.839,-0.333 5.31,-4.944 -1.684,-5.727 z" style="fill:#963c22;fill-rule:nonzero" id="path188"/>
        <path d="M 95.55,55.825 C 92.964,51.497 86.87,45.246 79.611,44.24 c -7.261,-1.005 -9.847,0.663 -13.52,2.666 -3.67,2.003 -10.18,1.921 -13.268,3.589 -3.086,1.668 -2.167,7.677 2.089,7.761 4.256,0.084 11.43,-5.807 14.852,-3.947 3.423,1.86 4.839,2.279 10.515,5.533 5.677,3.255 10.393,6.4 13.35,4.338 2.962,-2.061 1.921,-8.355 1.921,-8.355 z" style="fill:#557837;fill-rule:nonzero" id="path190"/>
        <path d="m 105.064,65.432 c -2.436,-4.835 -5.59,-8.342 -2.004,-10.304 3.588,-1.963 2.754,0.206 6.428,-2.464 3.669,-2.67 2.798,-1.557 5.319,-5.326 2.524,-3.769 3.729,-10.111 7.84,-6.523 4.115,3.588 6.618,6.009 5.449,8.512 -1.17,2.504 -1.921,1.291 -3.505,6.194 -1.585,4.904 -2.504,10.243 -6.09,12.665 -3.591,2.421 -7.512,9.013 -13.437,-2.754 z" style="fill:#78a341;fill-rule:nonzero" id="path192"/>
        <path d="m 268.878,150.898 c 3.29,-3.719 6.431,-10.595 17.785,-14.382 11.353,-3.784 24.047,4.162 31.229,12.298 7.181,8.136 -1.146,5.488 -6.255,9.275 -5.108,3.782 -15.324,8.704 -21.946,3.782 -6.623,-4.921 -8.898,-6.881 -11.922,-7.033 -3.026,-0.156 -2.778,-0.723 -7.726,0.978 -4.952,1.705 -5.519,0 -1.165,-4.918 z" style="fill:#46612e;fill-rule:nonzero" id="path194"/>
        <path d="m 202.086,52.32 c 8.207,9.024 12.488,19.109 21.949,19.297 9.461,0.191 27.057,4.353 32.166,13.436 5.108,9.083 11.911,26.299 10.875,36.515 -1.037,10.219 -9.362,32.926 -8.227,45.792 1.134,12.865 6.806,25.922 7.091,31.786 0.288,5.864 6.344,4.577 6.154,-1.213 -0.19,-5.788 -6.439,-29.252 -6.154,-37.955 0.288,-8.703 1.433,-32.733 6.157,-38.03 4.727,-5.296 6.809,-6.434 8.7,-8.703 1.893,-2.269 0,-6.056 0,-6.056 0,0 -5.865,2.84 -7,4.354 -1.135,1.51 -3.726,1.702 -3.754,-2.652 -0.021,-2.867 -1.833,-12.224 -5.776,-20.494 -2.041,-4.279 -4.651,-8.269 -7.879,-10.913 -9.458,-7.757 -8.513,-1.326 -9.458,-7.757 -0.947,-6.435 1.154,-5.108 -2.734,-8.895 -3.888,-3.783 3.301,-5.296 -3.701,-6.623 -6.999,-1.322 -2.081,2.273 -13.622,-0.567 -11.542,-2.836 -17.787,-6.055 -21.379,-8.704 -3.596,-2.647 -9.083,1.135 -3.408,7.382 z" style="fill:#46612e;fill-rule:nonzero" id="path196"/>
        <path d="m 273.418,78.81 c 4.84,-3.841 6.055,-2.652 6.055,-7.002 0,-4.353 5.251,-0.947 3.951,3.501 -1.303,4.443 -3.765,1.987 -5.655,7.663 -1.893,5.676 2.056,8.512 -1.618,15.514 -3.678,7.002 -4.815,10.03 -7.462,7.381 -2.65,-2.652 -0.386,-2.652 -2.749,-8.707 -2.36,-6.052 2.469,-14.379 7.478,-18.35 z" style="fill:#557837;fill-rule:nonzero" id="path198"/>
        <path d="m 268.636,150.652 c 4.841,-3.837 6.055,-2.648 6.055,-6.997 0,-4.354 5.254,-0.947 3.951,3.497 -1.303,4.447 -3.765,1.986 -5.656,7.662 -1.89,5.677 2.057,8.516 -1.62,15.518 -3.677,6.999 -4.811,10.026 -7.459,7.377 -2.648,-2.647 -0.385,-2.647 -2.746,-8.703 -2.363,-6.054 2.465,-14.379 7.475,-18.354 z" style="fill:#557837;fill-rule:nonzero" id="path200"/>
        <path d="m 266.039,131.787 c -4.163,-4.729 -12.299,-11.731 -17.595,-11.54 -5.299,0.188 -1.137,-3.787 -10.03,-0.947 -8.892,2.837 -4.352,8.516 -12.298,9.271 -7.947,0.755 -5.487,5.109 3.406,7.57 8.892,2.456 16.839,-0.76 21.381,3.782 4.541,4.542 11.73,7.002 12.867,7.002 1.134,0 6.043,-10.847 2.269,-15.138 z" style="fill:#557837;fill-rule:nonzero" id="path202"/>
        <path d="m 277.769,109.27 c 5.702,-5.065 -2.837,-9.462 1.704,-17.594 4.539,-8.137 9.838,-6.435 12.299,-10.03 2.458,-3.595 4.919,-5.296 7.946,-4.35 3.028,0.943 1.135,-3.219 5.489,-3.407 4.349,-0.187 24.029,10.973 30.652,11.54 6.622,0.57 16.623,7.002 2.54,5.108 -14.084,-1.889 -20.214,-3.407 -19.134,1.041 1.077,4.447 -1.381,19.398 -11.977,18.451 -10.597,-0.946 -13.813,-5.679 -15.327,-0.759 -1.513,4.921 -5.109,10.597 -10.216,8.705 -5.11,-1.894 -7.385,-5.677 -3.976,-8.705 z" style="fill:#557837;fill-rule:nonzero" id="path204"/>
        <path d="m 272.323,184.317 c 5.724,-1.201 1.713,-7.377 7.833,-11.063 6.118,-3.685 8.997,-0.535 12.001,-1.99 3.007,-1.455 5.29,-1.652 6.946,0.132 1.654,1.78 1.981,-1.709 4.946,-0.179 2.969,1.53 11.813,16.448 16.004,19.346 4.19,2.903 8.398,10.989 -0.255,4.37 -8.65,-6.622 -12.151,-9.963 -13.129,-6.595 -0.973,3.372 -8.3,12.385 -14.993,7.718 -6.69,-4.663 -7.029,-9.036 -9.908,-6.337 -2.88,2.695 -7.433,5.105 -10.112,1.901 -2.68,-3.204 -2.755,-6.588 0.667,-7.303 z" style="fill:#557837;fill-rule:nonzero" id="path206"/>
        <path d="m 306.395,120.791 c 2.15,-2.743 6.044,-0.916 5.578,-3.435 -0.466,-2.519 -0.062,-2.774 2.363,-2.703 2.425,0.071 1.436,-2.25 3.044,-1.967 1.608,0.285 1.572,-1.898 3.117,-6.987 1.549,-5.089 3.677,-6.74 -0.145,-6.857 -3.821,-0.117 -2.226,-0.125 -5.255,-0.466 -3.028,-0.34 -6.887,0.54 -9.986,3.924 -3.101,3.384 -8.024,6.967 -4.623,10.362 3.396,3.395 2.643,5.081 1.812,6.297 -0.834,1.221 1.749,4.828 4.095,1.832 z" style="fill:#557837;fill-rule:nonzero" id="path208"/>
        <path d="m 342.401,116.194 c 0.538,-3.791 4.049,-1.952 6.191,-1.572 2.145,0.379 0.248,-5.089 -3.994,-6.263 -4.248,-1.173 -5.772,-0.994 -7.806,-3.56 -2.033,-2.562 -8.807,-5.519 -11.655,-0.755 -2.848,4.765 -2.047,6.858 -3.48,6.506 -1.434,-0.352 -1.916,0.731 -0.968,2.171 0.95,1.431 1.553,1.701 -0.955,2.461 -2.507,0.761 -5.294,5.874 -5.2,8.659 0.092,2.79 3.307,-2.28 6.292,-2.104 2.984,0.176 6.37,3.274 6.52,1.319 0.15,-1.956 0.134,-2.539 3.021,-1.252 2.886,1.291 6.634,0.66 6.973,-0.423 0.337,-1.084 4.654,-2.335 5.061,-5.187 z" style="fill:#557837;fill-rule:nonzero" id="path210"/>
        <path d="m 266.612,135.475 c 0,0 13.067,-11.114 27.125,-13.472 14.058,-2.355 21.992,-1.89 28.861,1.174 6.867,3.063 13.758,4.623 13.758,4.623 0,0 -1.796,4.397 -7.499,2.179 -5.705,-2.217 -8.674,-5.277 -19.989,-4.689 -11.315,0.585 -17.222,-0.752 -29.631,7.149 -12.412,7.898 -12.315,12.06 -15.365,9.182 -3.052,-2.879 2.74,-6.146 2.74,-6.146 z" style="fill:#46612e;fill-rule:nonzero" id="path212"/>
        <path d="m 330.17,127.495 c 1.817,0.595 1.806,-1.216 3.322,-1.698 1.513,-0.476 -1.485,-1.529 2.104,-1.803 3.592,-0.278 15.285,1.04 17.621,5.841 2.338,4.799 3.443,9.771 -0.133,10.342 -3.579,0.571 -3.617,1.302 -2.611,4.557 1.005,3.251 0.402,4.28 2.434,6.2 2.031,1.918 4.038,5.848 1.374,4.37 -2.663,-1.479 -4.929,-1.909 -5.13,-1.135 -0.201,0.779 -2.307,1.283 -3.432,-0.086 -1.121,-1.369 0.352,2.778 -3.578,-0.719 -3.928,-3.498 -2.265,-6.944 -5.218,-11.153 -2.954,-4.206 -11.635,-16.316 -6.753,-14.716 z" style="fill:#557837;fill-rule:nonzero" id="path214"/>
        <path d="m 301.435,123.489 c 0,0 -8.487,-2.346 -10.739,5.611 -2.249,7.955 3.31,17.516 7.645,20.747 4.339,3.235 6.635,7.15 6.635,7.15 0,0 3.145,-5.097 1.69,-8.637 -1.456,-3.54 2.025,-3.571 3.485,-10.726 1.455,-7.151 -5.39,-15.118 -8.716,-14.145 z" style="fill:#5f8c3e;fill-rule:nonzero" id="path216"/>
        <path d="m 321.221,124.804 c 5.813,1.146 8.871,5.692 11.649,13.723 2.774,8.026 5.669,9.317 2.429,14.954 -3.237,5.633 -5.061,8.434 -4.289,11.231 0.773,2.801 -4.347,3.265 -4.704,-0.795 -0.353,-4.061 -1.075,-5.684 -2.159,-6.168 -1.083,-0.481 -9.216,-9.455 -9.06,-15.311 0.155,-5.856 4.056,-4.69 0.254,-8.41 -3.801,-3.721 -4.701,-5.062 -2.188,-7.335 2.514,-2.273 3.421,-2.808 8.068,-1.889 z" style="fill:#5f8c3e;fill-rule:nonzero" id="path218"/>
        <path d="m 226.284,96.432 c -2.151,-2.738 -6.044,-0.915 -5.578,-3.434 0.465,-2.52 0.062,-2.77 -2.363,-2.699 -2.425,0.07 -1.436,-2.253 -3.044,-1.968 -1.607,0.286 -1.572,-1.901 -3.117,-6.99 -1.549,-5.086 -3.678,-6.736 0.145,-6.854 3.821,-0.117 2.227,-0.125 5.255,-0.465 3.028,-0.34 6.887,0.536 9.987,3.923 3.099,3.384 8.023,6.967 4.624,10.363 -3.398,3.395 -2.645,5.081 -1.814,6.297 0.833,1.217 -1.749,4.828 -4.095,1.827 z" style="fill:#557837;fill-rule:nonzero" id="path220"/>
        <path d="m 190.279,91.84 c -0.538,-3.794 -4.051,-1.952 -6.192,-1.572 -2.143,0.379 -0.249,-5.094 3.995,-6.263 4.249,-1.174 5.771,-0.994 7.806,-3.56 2.031,-2.566 8.807,-5.519 11.655,-0.755 2.848,4.765 2.045,6.853 3.479,6.501 1.435,-0.348 1.916,0.736 0.969,2.172 -0.95,1.435 -1.554,1.705 0.954,2.464 2.507,0.758 5.294,5.871 5.201,8.66 -0.093,2.785 -3.308,-2.28 -6.293,-2.104 -2.984,0.176 -6.37,3.274 -6.52,1.318 -0.15,-1.955 -0.134,-2.539 -3.02,-1.252 -2.887,1.287 -6.635,0.661 -6.975,-0.422 -0.336,-1.084 -4.653,-2.336 -5.059,-5.187 z" style="fill:#557837;fill-rule:nonzero" id="path222"/>
        <path d="m 266.067,111.121 c 0,0 -13.066,-11.118 -27.125,-13.472 -14.059,-2.359 -21.991,-1.894 -28.861,1.174 -6.868,3.062 -13.756,4.619 -13.756,4.619 0,0 1.795,4.401 7.497,2.179 5.706,-2.214 8.676,-5.273 19.99,-4.69 11.314,0.587 17.221,-0.747 29.631,7.151 12.411,7.9 12.313,12.063 15.365,9.181 3.051,-2.876 -2.741,-6.142 -2.741,-6.142 z" style="fill:#46612e;fill-rule:nonzero" id="path224"/>
        <path d="m 202.508,103.141 c -1.814,0.594 -1.805,-1.217 -3.32,-1.698 -1.515,-0.477 1.483,-1.529 -2.104,-1.803 -3.592,-0.278 -15.286,1.04 -17.624,5.837 -2.336,4.799 -3.442,9.774 0.138,10.342 3.575,0.571 3.613,1.306 2.609,4.557 -1.006,3.25 -0.401,4.283 -2.433,6.2 -2.034,1.921 -4.037,5.848 -1.374,4.373 2.664,-1.478 4.926,-1.908 5.128,-1.134 0.204,0.778 2.308,1.283 3.432,-0.086 1.122,-1.369 -0.352,2.777 3.578,-0.72 3.928,-3.497 2.265,-6.947 5.218,-11.153 2.954,-4.209 11.635,-16.315 6.752,-14.715 z" style="fill:#557837;fill-rule:nonzero" id="path226"/>
        <path d="m 231.244,99.131 c 0,0 8.488,-2.343 10.739,5.614 2.25,7.952 -3.311,17.512 -7.646,20.747 -4.337,3.236 -6.633,7.152 -6.633,7.152 0,0 -3.146,-5.102 -1.69,-8.638 1.455,-3.541 -2.026,-3.575 -3.485,-10.726 -1.455,-7.151 5.39,-15.119 8.715,-14.149 z" style="fill:#5f8c3e;fill-rule:nonzero" id="path228"/>
        <path d="m 211.458,100.45 c -5.812,1.146 -8.872,5.691 -11.649,13.722 -2.773,8.027 -5.668,9.317 -2.429,14.954 3.237,5.633 5.062,8.434 4.289,11.231 -0.772,2.801 4.348,3.262 4.705,-0.794 0.354,-4.061 1.075,-5.684 2.159,-6.169 1.084,-0.481 9.215,-9.458 9.059,-15.311 -0.155,-5.855 -4.056,-4.694 -0.254,-8.41 3.802,-3.72 4.702,-5.065 2.188,-7.334 -2.514,-2.273 -3.42,-2.808 -8.068,-1.889 z" style="fill:#5f8c3e;fill-rule:nonzero" id="path230"/>
        <path d="m 212.104,156.113 c -2.735,-3.489 -7.69,-1.165 -7.1,-4.373 0.595,-3.203 0.081,-3.529 -3.007,-3.438 -3.083,0.09 -1.828,-2.864 -3.873,-2.504 -2.047,0.364 -2.001,-2.417 -3.971,-8.896 -1.97,-6.477 -4.679,-8.578 0.187,-8.726 4.867,-0.149 2.836,-0.16 6.689,-0.595 3.853,-0.43 8.766,0.689 12.714,4.996 3.947,4.31 10.212,8.871 5.886,13.19 -4.326,4.323 -3.367,6.469 -2.306,8.019 1.055,1.548 -2.227,6.145 -5.219,2.327 z" style="fill:#557837;fill-rule:nonzero" id="path232"/>
        <path d="m 166.274,150.266 c -0.687,-4.828 -5.155,-2.485 -7.883,-2.003 -2.73,0.481 -0.316,-6.482 5.086,-7.972 5.405,-1.491 7.347,-1.264 9.936,-4.53 2.589,-3.262 11.211,-7.026 14.837,-0.963 3.623,6.064 2.606,8.727 4.428,8.278 1.827,-0.443 2.441,0.934 1.235,2.765 -1.211,1.826 -1.978,2.168 1.213,3.134 3.193,0.97 6.741,7.478 6.622,11.026 -0.12,3.549 -4.211,-2.906 -8.009,-2.683 -3.801,0.227 -8.11,4.174 -8.301,1.682 -0.191,-2.488 -0.171,-3.235 -3.849,-1.592 -3.671,1.639 -8.444,0.841 -8.873,-0.539 -0.432,-1.377 -5.925,-2.974 -6.442,-6.603 z" style="fill:#557837;fill-rule:nonzero" id="path234"/>
        <path d="m 262.751,174.808 c 0,0 -16.634,-14.149 -34.531,-17.149 -17.898,-3.001 -27.992,-2.407 -36.737,1.493 -8.742,3.901 -17.515,5.884 -17.515,5.884 0,0 2.286,5.598 9.547,2.773 7.263,-2.82 11.04,-6.716 25.445,-5.969 14.402,0.747 21.92,-0.951 37.719,9.103 15.8,10.056 15.676,15.353 19.559,11.687 3.885,-3.665 -3.487,-7.822 -3.487,-7.822 z" style="fill:#46612e;fill-rule:nonzero" id="path236"/>
        <path d="m 181.842,164.653 c -2.311,0.754 -2.299,-1.553 -4.228,-2.164 -1.926,-0.606 1.889,-1.944 -2.68,-2.296 -4.572,-0.352 -19.457,1.326 -22.432,7.432 -2.976,6.111 -4.382,12.439 0.173,13.167 4.555,0.728 4.603,1.659 3.323,5.801 -1.28,4.139 -0.513,5.449 -3.097,7.894 -2.591,2.441 -5.141,7.445 -1.75,5.563 3.392,-1.882 6.271,-2.43 6.529,-1.444 0.258,0.989 2.938,1.631 4.365,-0.109 1.432,-1.741 -0.446,3.536 4.557,-0.916 5.004,-4.452 2.888,-8.84 6.643,-14.195 3.76,-5.359 14.813,-20.771 8.597,-18.733 z" style="fill:#557837;fill-rule:nonzero" id="path238"/>
        <path d="m 218.42,159.548 c 0,0 10.807,-2.981 13.672,7.142 2.864,10.128 -4.214,22.297 -9.735,26.416 -5.521,4.115 -8.446,9.103 -8.446,9.103 0,0 -3.999,-6.494 -2.148,-11.001 1.853,-4.501 -2.581,-4.545 -4.436,-13.651 -1.854,-9.102 6.861,-19.245 11.093,-18.009 z" style="fill:#5f8c3e;fill-rule:nonzero" id="path240"/>
        <path d="m 193.234,161.226 c -7.401,1.459 -11.293,7.245 -14.829,17.466 -3.533,10.221 -7.214,11.864 -3.093,19.038 4.121,7.17 6.447,10.733 5.461,14.297 -0.983,3.564 5.532,4.155 5.987,-1.012 0.451,-5.169 1.369,-7.234 2.749,-7.851 1.381,-0.615 11.734,-12.041 11.536,-19.493 -0.2,-7.451 -5.168,-5.969 -0.325,-10.706 4.838,-4.733 5.986,-6.443 2.785,-9.334 -3.199,-2.894 -4.356,-3.575 -10.271,-2.405 z" style="fill:#5f8c3e;fill-rule:nonzero" id="path242"/>
        <path d="m 273.091,199.214 c 0,0 -2.853,3.148 -5.042,2.252 -2.189,-0.896 -3.849,-1.268 -3.849,-1.268 0,0 3.761,4.023 6.178,3.272 2.418,-0.751 2.713,-4.256 2.713,-4.256 z" style="fill:#813e20;fill-rule:nonzero" id="path244"/>
        <path d="m 272.279,198.495 c 0,0 2.142,1.157 0.812,2.609 -1.33,1.452 -4.677,1.954 -5.965,1.271 -1.291,-0.683 -2.926,-2.535 -2.926,-2.535 0,0 -2.167,0.28 -2.754,0.746 -0.582,0.465 4.518,0.318 3.552,2.979 -0.964,2.659 0.892,2.745 3.051,1.826 2.16,-0.919 3.078,-0.837 5.914,-1.17 2.838,-0.332 5.31,-4.944 -1.684,-5.726 z" style="fill:#963c22;fill-rule:nonzero" id="path246"/>
        <path d="m 245.072,70.488 c -2.588,-4.329 -8.68,-10.579 -15.941,-11.585 -7.259,-1.005 -9.848,0.665 -13.519,2.668 -3.67,2.003 -10.181,1.919 -13.268,3.587 -3.087,1.67 -2.17,7.679 2.086,7.761 4.257,0.084 11.433,-5.807 14.856,-3.947 3.421,1.862 4.839,2.278 10.514,5.533 5.674,3.254 10.392,6.402 13.351,4.34 2.959,-2.061 1.921,-8.357 1.921,-8.357 z" style="fill:#557837;fill-rule:nonzero" id="path248"/>
        <path d="m 254.585,80.097 c -2.437,-4.837 -5.592,-8.344 -2.002,-10.306 3.585,-1.961 2.753,0.206 6.424,-2.462 3.671,-2.671 2.799,-1.557 5.323,-5.328 2.521,-3.768 3.725,-10.111 7.838,-6.523 4.113,3.59 6.617,6.009 5.449,8.512 -1.169,2.504 -1.921,1.293 -3.505,6.195 -1.585,4.905 -2.503,10.244 -6.092,12.666 -3.59,2.419 -7.511,9.013 -13.435,-2.754 z" style="fill:#78a341;fill-rule:nonzero" id="path250"/>
        <path d="m 194.826,180.315 c 3.291,-3.719 6.435,-10.597 17.786,-14.381 11.352,-3.785 24.046,4.162 31.227,12.298 7.183,8.136 -1.141,5.488 -6.251,9.272 -5.108,3.784 -15.326,8.704 -21.948,3.784 -6.623,-4.92 -8.895,-6.88 -11.923,-7.033 -3.025,-0.157 -2.777,-0.724 -7.725,0.977 -4.949,1.705 -5.519,0 -1.166,-4.917 z" style="fill:#46612e;fill-rule:nonzero" id="path252"/>
        <path d="m 128.036,81.736 c 8.204,9.026 12.487,19.109 21.948,19.299 9.461,0.189 27.055,4.351 32.164,13.435 5.108,9.083 11.913,26.297 10.879,36.515 -1.037,10.218 -9.365,32.924 -8.229,45.791 1.137,12.865 6.806,25.923 7.093,31.786 0.287,5.866 6.342,4.577 6.152,-1.213 -0.19,-5.787 -6.439,-29.25 -6.152,-37.953 0.287,-8.703 1.431,-32.736 6.158,-38.032 4.725,-5.296 6.806,-6.432 8.698,-8.703 1.891,-2.269 0,-6.055 0,-6.055 0,0 -5.866,2.84 -7,4.354 -1.134,1.512 -3.727,1.701 -3.755,-2.65 -0.02,-2.868 -1.835,-12.227 -5.776,-20.496 -2.04,-4.28 -4.649,-8.268 -7.877,-10.914 -9.463,-7.757 -8.515,-1.324 -9.463,-7.757 -0.944,-6.435 1.157,-5.109 -2.731,-8.893 -3.891,-3.785 3.299,-5.299 -3.699,-6.623 -7.001,-1.324 -2.083,2.271 -13.625,-0.567 -11.54,-2.838 -17.785,-6.055 -21.381,-8.706 -3.595,-2.648 -9.08,1.137 -3.404,7.382 z" style="fill:#46612e;fill-rule:nonzero" id="path254"/>
        <path d="m 199.367,108.226 c 4.841,-3.839 6.056,-2.65 6.056,-7.002 0,-4.351 5.253,-0.947 3.951,3.501 -1.303,4.445 -3.766,1.987 -5.657,7.663 -1.889,5.675 2.058,8.514 -1.62,15.514 -3.676,7.002 -4.811,10.03 -7.459,7.382 -2.648,-2.651 -0.386,-2.653 -2.747,-8.705 -2.362,-6.055 2.465,-14.383 7.476,-18.353 z" style="fill:#557837;fill-rule:nonzero" id="path256"/>
        <path d="m 194.585,180.07 c 4.841,-3.839 6.055,-2.65 6.055,-6.999 0,-4.354 5.252,-0.947 3.95,3.499 -1.301,4.445 -3.763,1.986 -5.653,7.662 -1.893,5.677 2.056,8.514 -1.62,15.516 -3.676,7.001 -4.813,10.028 -7.461,7.379 -2.65,-2.65 -0.385,-2.65 -2.748,-8.705 -2.361,-6.052 2.469,-14.379 7.477,-18.352 z" style="fill:#557837;fill-rule:nonzero" id="path258"/>
        <path d="m 191.99,161.203 c -4.164,-4.73 -12.301,-11.729 -17.599,-11.54 -5.297,0.187 -1.135,-3.787 -10.028,-0.947 -8.894,2.836 -4.352,8.516 -12.298,9.271 -7.946,0.757 -5.485,5.108 3.404,7.569 8.894,2.459 16.841,-0.759 21.383,3.782 4.541,4.542 11.731,7.002 12.865,7.002 1.136,0 6.046,-10.846 2.273,-15.137 z" style="fill:#557837;fill-rule:nonzero" id="path260"/>
        <path d="m 203.717,138.687 c 5.703,-5.066 -2.836,-9.46 1.706,-17.595 4.541,-8.136 9.837,-6.435 12.298,-10.03 2.46,-3.595 4.919,-5.296 7.947,-4.35 3.027,0.945 1.136,-3.219 5.486,-3.407 4.353,-0.188 24.03,10.974 30.652,11.541 6.623,0.57 16.625,7.001 2.542,5.109 -14.082,-1.892 -20.214,-3.409 -19.135,1.039 1.08,4.448 -1.381,19.398 -11.976,18.452 -10.597,-0.947 -13.813,-5.678 -15.326,-0.759 -1.514,4.921 -5.11,10.596 -10.217,8.703 -5.109,-1.891 -7.385,-5.676 -3.977,-8.703 z" style="fill:#557837;fill-rule:nonzero" id="path262"/>
        <path d="m 198.272,213.733 c 5.723,-1.201 1.713,-7.378 7.833,-11.063 6.12,-3.684 8.995,-0.533 12.002,-1.988 3.006,-1.457 5.29,-1.654 6.944,0.13 1.656,1.78 1.98,-1.709 4.949,-0.179 2.967,1.532 11.812,16.45 16.002,19.348 4.19,2.902 8.399,10.986 -0.253,4.368 -8.651,-6.62 -12.155,-9.963 -13.128,-6.593 -0.976,3.37 -8.304,12.383 -14.994,7.716 -6.693,-4.662 -7.032,-9.034 -9.91,-6.337 -2.882,2.697 -7.434,5.105 -10.114,1.901 -2.68,-3.203 -2.75,-6.588 0.669,-7.303 z" style="fill:#557837;fill-rule:nonzero" id="path264"/>
        <path d="m 232.346,150.207 c 2.149,-2.742 6.042,-0.916 5.578,-3.435 -0.466,-2.519 -0.061,-2.773 2.364,-2.703 2.421,0.071 1.436,-2.249 3.041,-1.966 1.608,0.284 1.571,-1.898 3.12,-6.988 1.547,-5.089 3.675,-6.74 -0.148,-6.857 -3.823,-0.118 -2.226,-0.126 -5.255,-0.465 -3.028,-0.339 -6.888,0.539 -9.986,3.922 -3.101,3.385 -8.022,6.97 -4.624,10.364 3.398,3.394 2.645,5.081 1.811,6.297 -0.829,1.22 1.749,4.828 4.099,1.831 z" style="fill:#557837;fill-rule:nonzero" id="path266"/>
        <path d="m 268.35,145.61 c 0.54,-3.79 4.049,-1.95 6.193,-1.572 2.143,0.379 0.247,-5.089 -3.999,-6.263 -4.244,-1.171 -5.769,-0.992 -7.803,-3.56 -2.034,-2.562 -8.806,-5.517 -11.655,-0.755 -2.846,4.765 -2.048,6.858 -3.48,6.506 -1.433,-0.351 -1.916,0.733 -0.968,2.17 0.949,1.434 1.553,1.703 -0.954,2.461 -2.506,0.763 -5.295,5.876 -5.2,8.661 0.094,2.788 3.304,-2.28 6.29,-2.105 2.985,0.177 6.371,3.276 6.52,1.321 0.151,-1.956 0.135,-2.541 3.024,-1.252 2.885,1.289 6.635,0.66 6.971,-0.425 0.339,-1.082 4.654,-2.335 5.061,-5.187 z" style="fill:#557837;fill-rule:nonzero" id="path268"/>
        <path d="m 192.561,164.891 c 0,0 13.067,-11.113 27.125,-13.472 14.061,-2.355 21.99,-1.889 28.859,1.174 6.87,3.065 13.758,4.623 13.758,4.623 0,0 -1.796,4.397 -7.499,2.179 -5.703,-2.218 -8.672,-5.277 -19.985,-4.69 -11.317,0.587 -17.224,-0.749 -29.633,7.15 -12.41,7.899 -12.316,12.06 -15.368,9.181 -3.049,-2.878 2.743,-6.145 2.743,-6.145 z" style="fill:#46612e;fill-rule:nonzero" id="path270"/>
        <path d="m 256.119,156.911 c 1.818,0.597 1.806,-1.217 3.321,-1.696 1.514,-0.479 -1.483,-1.529 2.106,-1.804 3.591,-0.279 15.286,1.04 17.621,5.839 2.339,4.8 3.442,9.772 -0.134,10.344 -3.578,0.57 -3.616,1.302 -2.611,4.556 1.005,3.251 0.402,4.279 2.434,6.2 2.033,1.917 4.038,5.849 1.374,4.369 -2.663,-1.478 -4.929,-1.908 -5.13,-1.134 -0.202,0.779 -2.307,1.284 -3.429,-0.086 -1.124,-1.367 0.349,2.78 -3.579,-0.719 -3.931,-3.497 -2.269,-6.944 -5.22,-11.153 -2.954,-4.205 -11.635,-16.316 -6.753,-14.716 z" style="fill:#557837;fill-rule:nonzero" id="path272"/>
        <path d="m 227.384,152.906 c 0,0 -8.49,-2.345 -10.739,5.609 -2.249,7.957 3.31,17.517 7.648,20.75 4.333,3.235 6.634,7.15 6.634,7.15 0,0 3.141,-5.098 1.686,-8.639 -1.455,-3.538 2.03,-3.571 3.485,-10.726 1.459,-7.15 -5.39,-15.119 -8.714,-14.144 z" style="fill:#5f8c3e;fill-rule:nonzero" id="path274"/>
        <path d="m 247.17,154.22 c 5.815,1.146 8.873,5.691 11.649,13.722 2.775,8.03 5.666,9.319 2.431,14.954 -3.239,5.636 -5.066,8.434 -4.29,11.234 0.769,2.801 -4.346,3.264 -4.703,-0.797 -0.355,-4.061 -1.075,-5.684 -2.164,-6.166 -1.082,-0.483 -9.215,-9.458 -9.057,-15.313 0.155,-5.855 4.056,-4.69 0.254,-8.41 -3.799,-3.719 -4.704,-5.062 -2.188,-7.335 2.514,-2.271 3.422,-2.806 8.068,-1.889 z" style="fill:#5f8c3e;fill-rule:nonzero" id="path276"/>
        <path d="m 152.231,125.85 c -2.146,-2.74 -6.042,-0.915 -5.578,-3.434 0.468,-2.52 0.062,-2.771 -2.363,-2.701 -2.421,0.07 -1.435,-2.252 -3.041,-1.968 -1.608,0.285 -1.571,-1.899 -3.12,-6.988 -1.546,-5.087 -3.675,-6.738 0.147,-6.855 3.823,-0.118 2.228,-0.126 5.255,-0.466 3.028,-0.34 6.889,0.538 9.987,3.923 3.103,3.384 8.024,6.967 4.624,10.363 -3.397,3.396 -2.644,5.081 -1.811,6.297 0.829,1.219 -1.749,4.828 -4.1,1.829 z" style="fill:#557837;fill-rule:nonzero" id="path278"/>
        <path d="m 116.228,121.256 c -0.54,-3.793 -4.049,-1.952 -6.192,-1.572 -2.144,0.379 -0.246,-5.092 3.997,-6.263 4.245,-1.174 5.769,-0.993 7.803,-3.56 2.036,-2.564 8.806,-5.519 11.657,-0.755 2.844,4.764 2.047,6.855 3.478,6.503 1.434,-0.35 1.916,0.733 0.969,2.172 -0.948,1.433 -1.554,1.703 0.954,2.462 2.506,0.76 5.294,5.873 5.201,8.66 -0.094,2.788 -3.305,-2.28 -6.29,-2.104 -2.987,0.176 -6.373,3.274 -6.521,1.318 -0.151,-1.955 -0.135,-2.539 -3.025,-1.251 -2.883,1.289 -6.633,0.66 -6.969,-0.424 -0.341,-1.083 -4.656,-2.335 -5.062,-5.186 z" style="fill:#557837;fill-rule:nonzero" id="path280"/>
        <path d="m 192.017,140.537 c 0,0 -13.067,-11.116 -27.126,-13.472 -14.06,-2.357 -21.989,-1.892 -28.858,1.173 -6.868,3.063 -13.758,4.622 -13.758,4.622 0,0 1.796,4.399 7.499,2.179 5.703,-2.216 8.673,-5.275 19.984,-4.69 11.318,0.587 17.224,-0.749 29.634,7.15 12.409,7.9 12.316,12.063 15.367,9.182 3.049,-2.878 -2.742,-6.144 -2.742,-6.144 z" style="fill:#46612e;fill-rule:nonzero" id="path282"/>
        <path d="m 128.46,132.557 c -1.819,0.594 -1.808,-1.217 -3.321,-1.697 -1.514,-0.478 1.482,-1.53 -2.106,-1.804 -3.592,-0.277 -15.285,1.041 -17.62,5.838 -2.34,4.8 -3.444,9.773 0.131,10.343 3.581,0.571 3.617,1.304 2.612,4.557 -1.006,3.25 -0.401,4.282 -2.433,6.2 -2.034,1.919 -4.04,5.848 -1.376,4.372 2.665,-1.48 4.93,-1.91 5.13,-1.136 0.202,0.779 2.307,1.284 3.43,-0.085 1.124,-1.37 -0.349,2.777 3.579,-0.72 3.931,-3.497 2.268,-6.945 5.22,-11.152 2.953,-4.208 11.636,-16.316 6.754,-14.716 z" style="fill:#557837;fill-rule:nonzero" id="path284"/>
        <path d="m 157.193,128.549 c 0,0 8.49,-2.345 10.739,5.612 2.25,7.954 -3.308,17.514 -7.646,20.747 -4.335,3.235 -6.635,7.151 -6.635,7.151 0,0 -3.142,-5.099 -1.687,-8.637 1.456,-3.54 -2.029,-3.573 -3.484,-10.726 -1.46,-7.151 5.39,-15.118 8.713,-14.147 z" style="fill:#5f8c3e;fill-rule:nonzero" id="path286"/>
        <path d="m 137.407,129.866 c -5.815,1.145 -8.873,5.691 -11.649,13.722 -2.775,8.027 -5.666,9.318 -2.43,14.954 3.238,5.633 5.065,8.434 4.291,11.231 -0.771,2.801 4.346,3.264 4.701,-0.795 0.356,-4.059 1.076,-5.684 2.164,-6.168 1.083,-0.481 9.216,-9.456 9.059,-15.311 -0.157,-5.855 -4.058,-4.692 -0.253,-8.41 3.797,-3.719 4.701,-5.063 2.185,-7.334 -2.514,-2.272 -3.42,-2.808 -8.068,-1.889 z" style="fill:#5f8c3e;fill-rule:nonzero" id="path288"/>
        <path d="m 138.055,185.531 c -2.734,-3.491 -7.692,-1.167 -7.101,-4.373 0.592,-3.205 0.08,-3.53 -3.006,-3.441 -3.087,0.091 -1.829,-2.863 -3.873,-2.501 -2.049,0.362 -2.003,-2.42 -3.971,-8.897 -1.972,-6.478 -4.679,-8.578 0.185,-8.727 4.866,-0.149 2.835,-0.161 6.69,-0.593 3.856,-0.43 8.769,0.687 12.711,4.993 3.949,4.312 10.214,8.873 5.888,13.193 -4.326,4.32 -3.367,6.468 -2.306,8.017 1.057,1.551 -2.227,6.145 -5.217,2.329 z" style="fill:#557837;fill-rule:nonzero" id="path290"/>
        <path d="m 92.221,179.682 c -0.684,-4.828 -5.155,-2.485 -7.882,-2.004 -2.727,0.484 -0.317,-6.479 5.089,-7.97 5.406,-1.491 7.345,-1.263 9.936,-4.532 2.586,-3.261 11.208,-7.025 14.835,-0.96 3.625,6.062 2.605,8.725 4.43,8.278 1.823,-0.444 2.439,0.934 1.233,2.763 -1.209,1.827 -1.98,2.17 1.212,3.136 3.193,0.967 6.74,7.477 6.623,11.024 -0.117,3.549 -4.209,-2.904 -8.009,-2.681 -3.8,0.225 -8.111,4.172 -8.301,1.68 -0.189,-2.488 -0.171,-3.233 -3.846,-1.592 -3.674,1.64 -8.447,0.841 -8.876,-0.539 -0.432,-1.377 -5.923,-2.974 -6.444,-6.603 z" style="fill:#557837;fill-rule:nonzero" id="path292"/>
        <path d="m 188.7,204.223 c 0,0 -16.633,-14.146 -34.531,-17.146 -17.898,-3 -27.994,-2.408 -36.736,1.491 -8.743,3.901 -17.514,5.886 -17.514,5.886 0,0 2.285,5.598 9.545,2.773 7.263,-2.822 11.041,-6.716 25.445,-5.97 14.404,0.746 21.922,-0.952 37.719,9.101 15.797,10.057 15.677,15.354 19.561,11.689 3.885,-3.664 -3.489,-7.824 -3.489,-7.824 z" style="fill:#46612e;fill-rule:nonzero" id="path294"/>
        <path d="m 107.792,194.068 c -2.314,0.758 -2.298,-1.55 -4.227,-2.161 -1.929,-0.608 1.888,-1.946 -2.683,-2.298 -4.569,-0.352 -19.457,1.327 -22.43,7.434 -2.977,6.108 -4.38,12.44 0.173,13.165 4.552,0.728 4.602,1.659 3.321,5.802 -1.279,4.137 -0.51,5.449 -3.097,7.893 -2.588,2.441 -5.139,7.444 -1.751,5.563 3.393,-1.882 6.275,-2.429 6.531,-1.444 0.258,0.99 2.937,1.632 4.369,-0.109 1.428,-1.741 -0.448,3.536 4.552,-0.916 5.003,-4.451 2.887,-8.84 6.646,-14.195 3.759,-5.357 14.811,-20.771 8.596,-18.734 z" style="fill:#557837;fill-rule:nonzero" id="path296"/>
        <path d="m 144.37,188.966 c 0,0 10.806,-2.984 13.67,7.14 2.864,10.128 -4.212,22.297 -9.733,26.417 -5.519,4.116 -8.444,9.102 -8.444,9.102 0,0 -4.002,-6.493 -2.149,-10.998 1.851,-4.504 -2.583,-4.547 -4.437,-13.653 -1.856,-9.103 6.863,-19.247 11.093,-18.008 z" style="fill:#5f8c3e;fill-rule:nonzero" id="path298"/>
        <path d="m 119.183,190.642 c -7.399,1.459 -11.296,7.244 -14.827,17.466 -3.532,10.222 -7.216,11.864 -3.095,19.038 4.123,7.172 6.448,10.734 5.461,14.297 -0.982,3.566 5.532,4.154 5.988,-1.013 0.451,-5.167 1.369,-7.232 2.751,-7.85 1.379,-0.614 11.731,-12.039 11.532,-19.492 -0.2,-7.452 -5.166,-5.97 -0.325,-10.705 4.839,-4.733 5.986,-6.444 2.785,-9.335 -3.2,-2.893 -4.354,-3.576 -10.27,-2.406 z" style="fill:#5f8c3e;fill-rule:nonzero" id="path300"/>
        <path d="m 199.041,228.632 c 0,0 -2.854,3.145 -5.042,2.25 -2.189,-0.896 -3.847,-1.268 -3.847,-1.268 0,0 3.759,4.025 6.176,3.274 2.418,-0.751 2.713,-4.256 2.713,-4.256 z" style="fill:#813e20;fill-rule:nonzero" id="path302"/>
        <path d="m 198.228,227.913 c 0,0 2.141,1.157 0.813,2.609 -1.329,1.452 -4.677,1.952 -5.967,1.271 -1.288,-0.684 -2.922,-2.535 -2.922,-2.535 0,0 -2.172,0.278 -2.755,0.743 -0.587,0.466 4.517,0.321 3.552,2.982 -0.966,2.659 0.888,2.746 3.05,1.826 2.161,-0.919 3.078,-0.837 5.917,-1.17 2.835,-0.332 5.307,-4.944 -1.688,-5.726 z" style="fill:#963c22;fill-rule:nonzero" id="path304"/>
        <path d="m 171.02,99.906 c -2.586,-4.329 -8.679,-10.579 -15.939,-11.585 -7.261,-1.005 -9.848,0.663 -13.52,2.666 -3.671,2.003 -10.18,1.921 -13.268,3.589 -3.088,1.669 -2.169,7.677 2.087,7.761 4.256,0.084 11.432,-5.807 14.853,-3.947 3.423,1.86 4.841,2.278 10.515,5.533 5.675,3.255 10.393,6.399 13.352,4.339 2.959,-2.062 1.92,-8.356 1.92,-8.356 z" style="fill:#557837;fill-rule:nonzero" id="path306"/>
        <path d="m 180.533,109.513 c -2.434,-4.835 -5.591,-8.342 -2.003,-10.304 3.589,-1.963 2.756,0.206 6.427,-2.463 3.67,-2.67 2.8,-1.558 5.322,-5.327 2.52,-3.768 3.724,-10.111 7.838,-6.523 4.113,3.587 6.618,6.009 5.448,8.512 -1.168,2.504 -1.92,1.291 -3.505,6.195 -1.584,4.903 -2.502,10.243 -6.091,12.664 -3.59,2.421 -7.51,9.013 -13.436,-2.754 z" style="fill:#78a341;fill-rule:nonzero" id="path308"/>
    </g>
</svg>
