<?xml version="1.0" encoding="UTF-8" standalone="no"?>
<svg xmlns="http://www.w3.org/2000/svg" width="100%" height="100%" viewBox="-10 0 380 350" version="1.1" style="clip-rule:evenodd;fill-rule:evenodd;stroke-linejoin:round;stroke-miterlimit:2" id="svg311">
    <g transform="translate(34.84146,124.41742)" style="clip-rule:evenodd;display:inline;fill-rule:evenodd;stroke-linejoin:round;stroke-miterlimit:2" id="stage_1">
        <path d="m 181.132,63.847 -0.359,-1.078 c 0.244,0.141 0.465,0.276 0.664,0.403 -0.197,0.42 -0.305,0.675 -0.305,0.675 z m -6.439,-1.383 c 0,0 -0.567,-1.283 -1.185,-2.905 0.568,0.203 1.099,0.402 1.602,0.598 z m -7.68,-0.049 c -0.412,1.148 -1.38,-2.197 -2.016,-5.729 1.324,0.479 2.659,0.943 3.984,1.369 -0.89,1.743 -1.694,3.594 -1.968,4.36 z M 160.86,55.74 c -0.362,1.159 -1.301,0.06 -2.287,-1.565 0.806,0.339 1.632,0.676 2.476,1.012 -0.071,0.195 -0.137,0.382 -0.189,0.553 z m 26.839,-0.504 c -1.631,1.096 -2.985,2.645 -4.034,4.129 0.522,-4.793 1.768,-11.505 4.736,-14.37 4.859,-4.692 -3.78,-3.132 -7.967,-0.324 -4.183,2.807 -6.566,8.611 -6.566,8.611 l -4.339,-13.026 -2.1,11.643 c 0,0 -2.138,-4.837 -2.642,-7.599 -0.505,-2.763 -4.367,5.669 -5.039,7.552 -0.675,1.883 -2.85,-8.307 -2.59,-11.6 0.258,-3.293 -2.773,2.394 -3.565,4.923 -0.787,2.529 -4.325,-5.677 -5.142,-6.715 -0.815,-1.037 -0.142,8.211 -1.633,9.057 -0.835,0.473 2.866,2.679 8.343,5.169 -0.118,2.329 -0.314,4.963 -1.077,5.395 -1.488,0.847 11.411,7.18 23.122,10.847 11.71,3.67 13.353,6.325 13.353,6.325 0,0 0.25,-15.004 5.108,-19.694 4.857,-4.691 -3.783,-3.131 -7.968,-0.323 z" style="fill:#8fa73d;fill-rule:nonzero" id="path2-48"/>
        <path d="m 279.154,122.008 c -6.858,-4.458 -15.431,-5.484 -19.545,-12 -4.116,-6.515 -10.631,-14.402 -26.403,-20.916 -15.774,-6.516 -20.231,-5.487 -27.089,-8.917 -6.857,-3.427 -28.8,-19.544 -43.204,-23.659 -9.611,-2.746 -13.029,-11.314 -22.63,-4.458 -9.598,6.858 -20.229,12.346 -30.516,10.972 -10.284,-1.37 -17.831,2.058 -21.945,7.202 -4.116,5.144 -6.172,5.829 -12.688,5.144 -6.514,-0.687 -7.885,1.714 -14.398,5.485 -6.515,3.772 -9.945,0.687 -17.146,3.429 -7.202,2.743 -11.999,5.485 -13.373,11.316 -1.372,5.828 -1.028,2.742 -10.287,6.172 -9.257,3.428 -13.715,4.457 -14.743,9.257 -1.029,4.8 -3.824,11.434 -4.854,12.463 -1.029,1.029 0.355,5.332 3.785,7.732 3.428,2.401 20.498,1.75 21.07,4.493 0.571,2.742 10.516,2.968 13.603,5.6 3.084,2.631 3.771,6.059 8.914,7.772 5.143,1.716 12.345,0.687 17.831,7.888 5.485,7.2 29.83,20.916 38.745,29.486 8.915,8.574 28.802,22.118 37.375,18.518 8.571,-3.601 26.589,-12.345 36.953,-12.002 10.366,0.342 16.879,-2.742 21.681,-8.914 4.799,-6.172 17.83,-20.916 27.773,-20.573 9.944,0.344 24.002,-2.744 28.117,-8.917 4.113,-6.169 8.23,-5.14 15.086,-9.257 6.858,-4.115 15.772,-10.973 17.145,-13.373 1.373,-2.398 -2.4,-5.484 -9.257,-9.943 z" style="fill:#758035;fill-rule:nonzero" id="path4-0"/>
        <path d="m 281.519,121.687 c -6.58,-4.277 -21.553,-4.72 -25.502,-10.975 -3.948,-6.251 -10.201,-13.818 -25.339,-20.072 -15.136,-6.251 -19.415,-5.266 -25.996,-8.556 -6.58,-3.292 -27.64,-18.757 -41.461,-22.706 -9.226,-2.634 -12.504,-10.859 -21.719,-4.278 -9.213,6.583 -19.414,11.848 -29.287,10.531 -9.874,-1.317 -17.11,1.975 -21.059,6.91 -3.951,4.936 -5.924,5.595 -12.176,4.936 -6.253,-0.658 -7.568,1.646 -13.818,5.266 -6.255,3.62 -9.547,0.659 -16.457,3.29 -6.909,2.633 -11.516,5.265 -12.833,10.861 -1.317,5.591 -0.986,2.631 -9.872,5.922 -8.884,3.291 -13.164,4.278 -14.15,8.883 -0.59,2.755 -3.149,1.553 -5.323,0.351 -1.463,-0.81 -2.752,-1.619 -3.15,-1.221 -0.986,0.987 -0.411,14.363 2.878,16.666 3.293,2.305 24.241,5.264 24.789,7.899 0.55,2.63 10.093,2.849 13.057,5.371 2.959,2.526 3.617,5.817 8.552,7.461 4.936,1.645 11.848,0.66 17.113,7.57 5.265,6.91 28.628,20.072 37.184,28.298 8.556,8.227 27.643,21.225 35.869,17.77 8.225,-3.455 25.515,-11.847 35.463,-11.517 9.947,0.331 16.2,-2.632 20.807,-8.557 4.606,-5.922 17.111,-20.072 26.655,-19.743 9.543,0.33 23.034,-2.632 26.982,-8.556 3.948,-5.922 7.898,-4.935 14.48,-8.883 6.581,-3.949 15.136,-10.531 16.453,-12.834 1.316,-2.304 4.444,-5.807 -2.14,-10.087 z" style="fill:#37302b;fill-rule:nonzero" id="path6-44"/>
        <path d="m 274.775,115.435 c -6.582,-4.277 -14.809,-5.264 -18.758,-11.517 -3.948,-6.253 -10.201,-13.821 -25.339,-20.074 -15.136,-6.251 -19.415,-5.264 -25.996,-8.554 -6.58,-3.292 -27.64,-18.757 -41.461,-22.706 -9.226,-2.636 -12.504,-10.861 -21.719,-4.278 -9.213,6.581 -19.414,11.846 -29.287,10.531 -9.874,-1.318 -17.11,1.974 -21.059,6.909 -3.951,4.937 -5.924,5.596 -12.176,4.937 -6.253,-0.659 -7.568,1.644 -13.818,5.265 -6.255,3.62 -9.547,0.657 -16.457,3.29 -6.909,2.633 -11.516,5.266 -12.833,10.859 -1.317,5.594 -0.986,2.633 -9.872,5.924 -8.884,3.29 -13.164,4.276 -14.15,8.884 -0.987,4.607 -6.909,3.619 -7.897,4.607 -0.987,0.989 -0.987,8.884 2.302,11.188 3.293,2.306 24.241,5.267 24.789,7.897 0.55,2.633 10.093,2.851 13.057,5.375 2.959,2.524 3.617,5.815 8.552,7.458 4.936,1.647 11.848,0.659 17.113,7.571 5.265,6.911 28.628,20.072 37.184,28.299 8.556,8.228 27.643,21.224 35.869,17.769 8.225,-3.455 25.515,-11.846 35.463,-11.516 9.947,0.329 16.2,-2.633 20.807,-8.557 4.606,-5.923 17.111,-20.071 26.655,-19.743 9.543,0.328 23.034,-2.633 26.982,-8.556 3.948,-5.923 7.898,-4.936 14.48,-8.885 6.581,-3.949 15.136,-10.529 16.453,-12.834 1.316,-2.303 -2.304,-5.265 -8.884,-9.543 z" style="fill:#542f29;fill-rule:nonzero" id="path8-4"/>
        <path d="m 168.154,191.933 c -1.49,-0.846 -0.817,-10.095 -1.634,-9.055 -0.815,1.035 -4.351,9.242 -5.142,6.712 -0.789,-2.527 -3.82,-8.214 -3.562,-4.92 0.259,3.292 -1.916,13.479 -2.591,11.596 -0.671,-1.882 -4.533,-10.314 -5.038,-7.549 -0.506,2.76 -2.643,7.598 -2.643,7.598 l -2.098,-11.644 -4.339,13.027 c 0,0 -2.384,-5.805 -6.569,-8.611 -4.184,-2.809 -12.824,-4.367 -7.965,0.325 4.858,4.689 7.28,10.708 7.28,10.708 0,0 -0.532,6.329 11.18,2.659 11.71,-3.668 24.613,-10.001 23.121,-10.846 z" style="fill:#8fa73d;fill-rule:nonzero" id="path10-3"/>
        <path d="m 139.867,190.704 c -7.471,0 -11.232,-7.788 -6.921,-16.365 3.368,-6.698 5.088,-7.723 11.728,-8.307 0.545,0.222 1.035,0.328 1.473,0.328 0.598,0 1.099,-0.195 1.515,-0.555 2.343,-0.161 5.172,-0.346 8.648,-0.681 17.112,-1.644 21.391,-6.91 29.617,-17.44 6.708,-8.587 10.571,-10.828 19.976,-10.828 2.129,0 4.543,0.116 7.337,0.297 2.487,0.163 4.583,0.272 6.395,0.296 -0.24,0.919 -0.269,2.104 0.108,3.303 0.002,0.006 0.004,0.013 0.006,0.019 0.001,0.003 0.001,0.004 0.002,0.006 0.804,2.526 3.416,5.109 9.665,5.396 h 0.004 c 0.012,0 0.023,0.002 0.035,0.002 h 0.008 c 0.019,10e-4 0.04,0.003 0.059,0.003 0.004,0 0.01,0 0.014,0 0.01,0 0.019,0.001 0.029,0.001 0.008,0 0.016,0.001 0.023,0.001 0.011,0.001 0.022,0.001 0.033,0.001 0.012,0.002 0.022,0.002 0.033,0.002 h 0.022 c 0.011,0.001 0.021,0.001 0.032,0.001 0.005,0.001 0.011,0.001 0.016,0.001 0.016,0.001 0.031,0.001 0.047,0.002 h 0.016 c 0.014,0 0.028,10e-4 0.042,10e-4 0.003,0 0.006,0 0.008,0.001 0.018,0 0.034,0.002 0.052,0.002 h 0.01 c 0.017,0 0.033,0 0.05,0.001 h 0.002 c 0.019,0 0.038,0 0.057,0.001 h 10e-4 c 0.018,0 0.037,10e-4 0.055,10e-4 h 0.003 c 0.175,0.004 0.352,0.005 0.531,0.005 0.486,0 0.991,-0.012 1.518,-0.039 0.02,-0.001 0.04,-0.002 0.06,-0.003 0.006,0 0.011,0 0.017,0 0.015,-0.002 0.031,-0.003 0.046,-0.003 0.005,-0.001 0.012,-0.001 0.017,-0.001 0.019,-0.001 0.037,-0.001 0.056,-0.003 0.007,-0.001 0.015,-0.001 0.022,-0.001 0.012,0 0.025,-0.002 0.037,-0.003 0.008,0 0.016,-10e-4 0.024,-10e-4 0.018,-0.001 0.036,-0.001 0.054,-0.003 0.006,0 0.014,-0.001 0.02,-0.001 0.013,-0.001 0.026,-0.002 0.038,-0.002 0.009,0 0.018,-0.002 0.027,-0.002 0.012,-0.001 0.023,-0.001 0.036,-0.001 0.013,-0.002 0.026,-0.003 0.04,-0.004 0.01,0 0.019,-0.001 0.03,-0.001 0.01,0 0.021,-0.002 0.032,-0.003 0.008,0 0.019,-10e-4 0.027,-0.002 0.013,0 0.025,0 0.038,-0.002 0.013,-0.001 0.027,-0.001 0.04,-0.003 0.011,0 0.02,-0.001 0.031,-0.002 0.009,0 0.017,-0.001 0.027,-0.001 0.009,0 0.018,-0.002 0.028,-0.002 0.011,-0.001 0.023,-0.002 0.034,-0.003 0.016,0 0.031,-0.002 0.046,-0.003 0.009,0 0.016,0 0.025,-0.002 0.011,-0.001 0.022,-0.001 0.033,-0.002 0.007,-0.001 0.013,-0.001 0.02,-0.001 0.021,-0.002 0.04,-0.004 0.061,-0.005 0.006,-0.001 0.013,-0.001 0.019,-0.001 0.012,-10e-4 0.024,-0.002 0.036,-0.002 0.005,-0.002 0.011,-0.002 0.015,-0.002 0.026,-0.002 0.052,-0.003 0.078,-0.006 0.002,0 0.003,-0.001 0.005,-0.001 0.013,-0.001 0.024,-0.002 0.037,-0.003 0.004,0 0.01,0 0.014,-0.001 0.04,-0.003 0.08,-0.005 0.12,-0.009 0.004,-10e-4 0.009,-10e-4 0.014,-0.002 0.013,-0.001 0.025,-0.002 0.038,-0.002 0.004,0 0.008,0 0.012,-0.002 0.026,-0.002 0.052,-0.003 0.078,-0.007 h 0.003 c 0.013,-0.001 0.026,-0.002 0.039,-0.003 0.005,-0.001 0.008,-0.001 0.013,-0.001 0.042,-0.004 0.083,-0.008 0.125,-0.012 h 0.002 c 2.565,-0.234 4.675,-0.699 6.384,-1.326 0,-0.001 0.002,-0.001 0.003,-0.001 0.008,-0.004 0.016,-0.007 0.025,-0.01 0.003,0 0.007,-0.002 0.01,-0.003 0.008,-0.002 0.015,-0.006 0.023,-0.009 10e-4,0 10e-4,0 0.002,-0.001 0.016,-0.005 0.032,-0.012 0.048,-0.018 0.006,-0.002 0.011,-0.003 0.017,-0.006 0.006,-0.002 0.012,-0.005 0.018,-0.007 0.009,-0.003 0.017,-0.006 0.027,-0.01 0.005,-0.002 0.011,-0.003 0.016,-0.006 0.009,-0.004 0.018,-0.007 0.027,-0.01 0.004,-0.002 0.007,-0.003 0.011,-0.005 0.01,-0.003 0.021,-0.008 0.03,-0.011 0.003,0 0.006,-0.002 0.008,-0.003 0.012,-0.005 0.024,-0.01 0.036,-0.014 0.003,-0.001 0.006,-0.001 0.008,-0.003 0.012,-0.005 0.022,-0.009 0.034,-0.013 0.001,-0.001 0.002,-0.002 0.004,-0.002 0.027,-0.011 0.053,-0.021 0.08,-0.032 7.606,-3.032 6.682,-9.42 2.433,-12.381 -1.718,-1.198 -2.93,-1.686 -4.013,-1.686 -1.857,0 -3.338,1.434 -6.352,3.189 -0.32,0.185 -0.64,0.362 -0.956,0.528 2.079,-1.564 4.352,-3.799 7.582,-6.923 8.237,-7.972 14.972,-11.436 22.631,-11.436 1.299,0 2.626,0.099 3.99,0.293 -1.398,0.445 -2.819,1.624 -5.179,2.997 -3.201,1.865 -6.255,2.7 -8.564,2.7 -1.133,0 -2.086,-0.201 -2.789,-0.58 -0.096,-0.051 -0.194,-0.076 -0.292,-0.076 -1.016,0 -2.079,2.62 -1.153,5.24 0.398,1.126 1.165,2.254 2.461,3.171 l 0.001,10e-4 c 0.007,0.005 0.014,0.01 0.021,0.015 0.002,0.002 0.005,0.003 0.008,0.005 0.005,0.005 0.01,0.007 0.015,0.011 0.007,0.005 0.012,0.008 0.019,0.013 0.002,0.002 0.004,0.003 0.007,0.005 0.005,0.003 0.01,0.007 0.016,0.011 1.167,0.804 2.753,1.442 4.869,1.769 0.003,0 0.005,0.001 0.008,0.001 0.01,0.002 0.019,0.003 0.029,0.005 0.002,0 0.005,0 0.007,0 0.016,0.003 0.032,0.005 0.048,0.008 0.005,0 0.012,0.001 0.017,0.002 0.007,0.001 0.015,0.003 0.022,0.003 0.008,0.002 0.017,0.003 0.025,0.005 0.009,0 0.017,0.002 0.026,0.003 0.009,10e-4 0.019,0.003 0.029,0.005 0.005,0 0.01,0 0.016,0.001 0.012,0.002 0.024,0.004 0.037,0.005 0.002,0.001 0.003,0.001 0.004,0.001 0.014,0.002 0.029,0.004 0.043,0.006 0.004,10e-4 0.008,10e-4 0.012,0.002 0.03,0.004 0.06,0.008 0.091,0.012 h 0.004 c 0.892,0.117 1.873,0.181 2.952,0.181 0.486,0 0.991,-0.013 1.517,-0.039 0.02,-0.002 0.041,-0.003 0.061,-0.004 0.005,-0.001 0.01,-0.001 0.015,-0.001 0.018,0 0.037,-0.002 0.055,-0.003 h 0.007 c 0.021,-0.002 0.043,-0.002 0.065,-0.004 h 0.002 c 0.022,-10e-4 0.043,-10e-4 0.065,-0.004 h 0.002 c 3.264,-0.186 5.863,-0.72 7.885,-1.484 -7.448,6.789 -16.31,9.682 -26.802,14.93 -11.847,5.922 -18.427,6.909 -30.603,13.49 -11.355,6.137 -22.684,19.302 -28.988,19.301 -0.455,0 -0.885,-0.069 -1.287,-0.213 -1.841,-0.668 -3.711,-0.959 -5.595,-0.959 -10.322,0 -20.991,8.75 -28.828,12.387 l -0.791,-4.388 -1.806,5.422 c -0.381,0.121 -0.753,0.223 -1.115,0.304 -0.929,0.208 -1.817,0.307 -2.658,0.307 z m 134.321,-68.438 c -0.335,-1.797 -1.487,-3.475 -3.145,-4.63 -0.243,-0.171 -0.476,-0.326 -0.701,-0.468 3.474,1.249 4.265,3.146 3.846,5.098 z" style="fill:#6f3923;fill-rule:nonzero" id="path12-3"/>
        <path d="m 143.64,190.093 1.806,-5.422 0.791,4.388 c -0.905,0.421 -1.773,0.772 -2.597,1.034 z" style="fill:#a1a438;fill-rule:nonzero" id="path14-3"/>
        <path d="m 231.336,123.874 c -8.881,7.45 -16.452,3.737 -28.629,3.737 -12.176,0 -16.452,9.542 -23.034,16.672 -6.582,7.13 -33.564,11.956 -46.069,16.564 -12.503,4.607 -7.567,18.758 -7.238,12.833 0.328,-5.923 19.743,-17.441 36.525,-17.768 16.782,-0.331 24.022,-17.771 31.92,-21.94 7.896,-4.169 21.061,-2.412 28.629,-2.083 7.568,0.329 22.047,-18.429 22.047,-18.429 3.337,-4.045 -5.265,2.963 -14.151,10.414 z" style="fill:#37302b;fill-rule:nonzero" id="path16-7"/>
        <path d="m 102.026,167.001 c -7.472,0 -11.234,-7.788 -6.921,-16.365 2.355,-4.686 3.904,-6.595 6.897,-7.518 1.463,0.441 3.11,1.057 4.791,1.909 2.347,1.193 6.048,2.013 10.018,2.013 4.014,0 8.304,-0.839 11.747,-2.974 0.217,0.063 0.441,0.123 0.672,0.179 h 0.001 c 0.028,0.007 0.055,0.013 0.083,0.02 0.003,0.001 0.006,0.001 0.01,0.002 0.016,0.004 0.032,0.008 0.049,0.012 0.001,0 0.002,0 0.004,0.001 0.007,0.002 0.014,0.003 0.021,0.005 0.006,0.002 0.011,0.002 0.017,0.003 0.006,0.002 0.013,0.003 0.019,0.005 0.011,0.002 0.022,0.005 0.033,0.007 0.005,10e-4 0.01,0.003 0.016,0.004 0.008,0.001 0.015,0.004 0.023,0.005 0.005,0.001 0.01,0.002 0.015,0.003 0.012,0.004 0.024,0.005 0.036,0.009 0.003,0 0.007,0.001 0.011,0.001 0.009,0.002 0.02,0.005 0.03,0.007 0.003,0.001 0.007,0.001 0.01,0.002 0.014,0.003 0.026,0.006 0.039,0.009 h 0.005 c 0.012,0.003 0.025,0.007 0.038,0.008 0.002,10e-4 0.004,10e-4 0.006,0.002 0.029,0.006 0.058,0.013 0.087,0.018 1.185,0.24 2.553,0.375 4.13,0.375 2.374,1.123 4.706,2.175 6.187,3.828 1.074,1.198 1.753,3.089 2.176,5.168 -1.664,-0.534 -3.351,-0.771 -5.049,-0.771 -12.066,0 -24.605,11.957 -32.545,13.726 -0.928,0.208 -1.815,0.307 -2.656,0.307 z m 46.748,-14.461 c -0.548,-3.567 -1.425,-7.227 -2.378,-10.176 0.52,-0.384 1.231,-0.647 2.268,-0.647 0.923,0 2.104,0.208 3.636,0.724 0.541,0.183 1.037,0.268 1.492,0.268 3.708,0.001 4.767,-5.625 6.37,-9.772 1.802,-4.652 0.794,-8.838 -0.999,-11.621 -1.792,-2.786 -1.029,-1.228 -2.989,-4.895 -0.077,-0.144 -0.152,-0.28 -0.226,-0.404 3.278,-2.153 6.815,-2.863 12.107,-2.863 2.13,0 4.545,0.115 7.341,0.297 2.846,0.186 5.181,0.302 7.163,0.302 2.783,0 4.871,-0.229 6.708,-0.812 2.22,0.738 5.057,1.203 8.046,1.203 4.714,0 9.806,-1.154 13.463,-4.21 2.594,1.632 5.723,2.673 8.048,4.234 -4.619,2.346 -9.653,4.443 -15.129,7.181 -11.845,5.923 -18.427,6.91 -30.604,13.49 -8.932,4.831 -17.851,14.008 -24.317,17.701 z m -7.453,-8.133 c 0,0 -0.104,-0.158 -0.29,-0.435 0.231,-0.054 0.458,-0.109 0.679,-0.168 -0.137,0.595 -0.376,0.603 -0.389,0.603 z m 80.504,-32.896 c 0,0 -0.744,-1.115 -1.793,-2.668 0.322,-0.068 0.645,-0.146 0.969,-0.232 0.256,-0.068 0.513,-0.141 0.768,-0.22 -0.313,1.058 -0.044,1.826 0.479,2.332 -0.125,0.779 -0.41,0.788 -0.423,0.788 z m -7.541,-10.93 c -0.019,-0.025 -0.038,-0.049 -0.056,-0.074 -0.202,-0.269 -0.448,-0.517 -0.725,-0.74 -0.816,-2.022 -2.022,-3.372 -2.022,-3.372 -0.038,-0.21 -0.109,-0.417 -0.21,-0.621 3.011,-1.76 5.944,-2.849 8.963,-3.333 -0.163,2.154 -0.149,4.247 0.188,6.654 -1.912,0.359 -3.966,0.956 -6.138,1.486 z m 10.663,-1.702 c -0.399,-0.063 -0.808,-0.097 -1.226,-0.105 -0.203,-2.214 -0.116,-4.419 0.108,-6.63 0.064,-0.002 0.128,-0.002 0.192,-0.002 0.124,0 0.247,0.002 0.372,0.003 -0.081,0.324 -0.008,0.63 0.233,0.957 1.053,1.428 -1.686,1.587 -0.449,3.914 0.433,0.813 0.709,1.404 0.77,1.863 z" style="fill:#6f3923;fill-rule:nonzero" id="path18-0"/>
        <path d="m 193.494,100.17 c -8.883,7.45 -16.452,3.737 -28.628,3.737 -12.175,0 -16.453,9.544 -23.035,16.673 -6.583,7.131 -33.565,11.957 -46.069,16.564 -12.504,4.607 -7.568,18.756 -7.239,12.834 0.329,-5.924 19.743,-17.441 36.527,-17.771 16.781,-0.328 24.022,-17.769 31.918,-21.938 7.898,-4.171 21.061,-2.412 28.629,-2.084 7.568,0.329 22.046,-18.426 22.046,-18.426 3.339,-4.047 -5.263,2.961 -14.149,10.411 z" style="fill:#37302b;fill-rule:nonzero" id="path20-1"/>
        <path d="m 59.942,143.12 c -1.541,0 -2.924,-0.33 -4.112,-0.932 1.509,0.274 3.108,0.509 4.727,0.915 -0.208,0.011 -0.412,0.017 -0.615,0.017 z" style="fill:#5b3f25;fill-rule:nonzero" id="path22-3"/>
        <path d="m 60.557,143.103 c -1.619,-0.406 -3.218,-0.641 -4.727,-0.915 -4.57,-2.314 -6.237,-8.625 -2.811,-15.432 0.221,-0.44 0.434,-0.854 0.643,-1.247 0.637,2.494 2.658,4.98 5.885,5.938 h 0.001 c 0.009,0.003 0.018,0.005 0.028,0.008 10e-4,0 0.002,10e-4 0.003,10e-4 0.027,0.008 0.053,0.016 0.08,0.024 0.003,0 0.006,0.001 0.01,0.002 0.007,0.003 0.014,0.004 0.022,0.006 0.005,0.001 0.009,0.003 0.014,0.005 0.01,0.002 0.019,0.005 0.029,0.008 0.007,0.001 0.014,0.003 0.022,0.005 0.005,0.001 0.011,0.003 0.016,0.005 0.007,0.001 0.014,0.003 0.021,0.005 0.005,0.001 0.01,0.003 0.014,0.004 0.012,0.004 0.024,0.007 0.035,0.009 0.472,0.124 0.977,0.182 1.506,0.182 6.509,0 16.581,-8.838 11.199,-13.835 1.184,-0.094 2.459,-0.203 3.835,-0.336 17.112,-1.645 21.39,-6.911 29.616,-17.441 6.708,-8.584 10.571,-10.827 19.971,-10.827 2.131,0 4.546,0.115 7.343,0.299 0.163,0.01 0.322,0.021 0.482,0.03 -1.202,2.165 -0.765,5.475 -1.49,6.169 -0.895,0.853 0.305,4.806 2.953,6.996 2.647,2.193 2.071,2.457 0.237,3.547 -0.849,0.506 -0.303,1.165 0.687,2.008 -1.622,0.776 -3.334,1.643 -5.174,2.638 -11.354,6.138 -22.684,19.302 -28.987,19.299 -0.455,0 -0.885,-0.069 -1.286,-0.213 -1.841,-0.667 -3.711,-0.958 -5.594,-0.958 -12.065,0 -24.604,11.955 -32.543,13.729 -0.704,0.156 -1.385,0.25 -2.04,0.287 z m 93.317,-42.092 c 0.385,-0.503 0.789,-1.073 1.208,-1.721 2.85,-4.43 -1.471,-8.932 -4.929,-10.5 0.465,-0.047 0.983,-0.101 1.579,-0.171 2.048,-0.238 3.921,-2.531 2.722,-4.293 1.39,-1.265 2.957,-2.794 4.853,-4.628 8.238,-7.972 14.971,-11.437 22.629,-11.437 1.826,0 3.707,0.198 5.671,0.577 10.201,1.975 6.607,7.526 3.619,10.86 -8,8.921 -17.77,11.847 -29.616,17.769 -2.83,1.415 -5.359,2.548 -7.736,3.544 z" style="fill:#6f3923;fill-rule:nonzero" id="path24-8"/>
        <path d="m 151.411,76.288 c -8.886,7.451 -16.455,3.737 -28.631,3.737 -12.174,0 -16.452,9.546 -23.035,16.674 -6.581,7.131 -33.563,11.955 -46.067,16.565 -12.505,4.604 -7.569,18.755 -7.24,12.833 0.329,-5.924 19.744,-17.443 36.525,-17.771 16.782,-0.331 24.023,-17.768 31.92,-21.939 7.899,-4.17 21.061,-2.412 28.629,-2.083 7.569,0.329 22.046,-18.428 22.046,-18.428 3.338,-4.046 -5.264,2.962 -14.147,10.412 z" style="fill:#37302b;fill-rule:nonzero" id="path26-5"/>
        <path d="m 20.098,120.925 c -1.716,0 -3.267,-0.268 -4.566,-0.794 h 0.144 c 0.487,0 0.991,-0.013 1.518,-0.039 0.02,-0.002 0.04,-0.003 0.059,-0.004 0.007,-10e-4 0.012,-10e-4 0.019,-10e-4 0.016,-0.001 0.032,-0.002 0.049,-0.003 0.003,0 0.008,0 0.012,0 0.019,-0.002 0.041,-0.003 0.061,-0.004 0.003,0 0.006,0 0.01,-0.001 0.018,0 0.035,0 0.052,-0.002 0.005,-0.001 0.009,-0.001 0.013,-0.001 0.021,-10e-4 0.041,-0.003 0.061,-0.004 h 0.007 c 0.018,-0.001 0.037,-0.001 0.056,-0.003 0.004,-0.001 0.008,-0.001 0.012,-0.001 0.041,-0.002 0.081,-0.005 0.122,-0.008 0.004,0 0.008,0 0.012,-0.001 0.019,-10e-4 0.04,-10e-4 0.059,-0.003 h 0.001 c 0.022,-0.002 0.044,-0.003 0.065,-0.005 h 0.004 c 0.021,-0.001 0.041,-0.003 0.063,-0.004 h 10e-4 c 0.022,-0.002 0.043,-0.002 0.065,-0.005 h 0.001 c 0.02,-0.001 0.041,-0.002 0.061,-0.004 0.003,0 0.005,-10e-4 0.008,-10e-4 0.042,-0.003 0.082,-0.005 0.124,-0.009 h 0.007 c 0.02,-0.001 0.041,-0.004 0.061,-0.004 0.043,-0.004 0.086,-0.008 0.128,-0.01 h 0.003 c 0.043,-0.005 0.085,-0.008 0.128,-0.012 14.959,-1.254 14.812,-10.219 9.534,-13.897 -1.717,-1.197 -2.928,-1.685 -4.012,-1.685 -1.857,0 -3.338,1.433 -6.352,3.186 -1.811,1.054 -3.576,1.78 -5.185,2.21 0.156,-0.366 0.33,-0.742 0.523,-1.125 4.124,-8.203 13.009,-1.557 21.23,-8.77 0.725,0.056 1.467,0.085 2.219,0.085 4.713,0.001 9.803,-1.153 13.46,-4.209 3.343,2.1 7.572,3.224 9.827,5.74 1.207,1.346 1.915,3.568 2.322,5.948 -1.686,-0.549 -3.395,-0.792 -5.115,-0.792 -12.066,0 -24.604,11.957 -32.546,13.727 -1.515,0.338 -2.971,0.505 -4.325,0.505 z M 68.721,107.61 c -0.446,-3.83 -1.347,-7.964 -2.371,-11.345 0.93,-0.295 1.945,-0.797 2.978,-1.509 0.739,0.099 1.608,0.306 2.634,0.653 0.541,0.183 1.037,0.269 1.492,0.269 3.709,0 4.767,-5.63 6.37,-9.775 1.795,-4.633 0.802,-8.802 -0.976,-11.586 6.019,-1.664 11.934,-3.509 16.292,-7.139 2.28,-1.9 4.882,-3.067 7.669,-3.789 1.295,0.422 2.71,0.979 4.15,1.71 2.346,1.192 6.047,2.012 10.017,2.012 4.713,0 9.805,-1.155 13.461,-4.209 3.343,2.099 7.573,3.222 9.828,5.738 1.122,1.252 1.813,3.262 2.232,5.45 -1.692,-0.049 -3.275,-0.336 -4.872,-0.622 -1.752,-0.315 -3.52,-0.629 -5.464,-0.629 -2.502,0 -5.296,0.521 -8.723,2.235 -11.846,5.924 -17.689,4.987 -26.36,16.01 -6.554,8.333 -19.828,14.885 -28.357,16.526 z M 60.983,97.373 c 0,0 -4.225,-6.336 -6.743,-9.84 0.781,-0.656 1.619,-1.532 2.529,-2.698 0.76,-0.972 1.617,-1.842 2.556,-2.625 0.09,1.942 0.384,4.01 0.979,6.458 0.489,2.01 0.789,3.555 0.962,4.744 -0.023,0.055 -0.048,0.108 -0.074,0.162 -0.676,1.415 -0.414,2.404 0.215,3.012 -0.125,0.778 -0.41,0.787 -0.424,0.787 z m 2.073,-11.292 c -0.316,-2.087 -0.347,-4.165 -0.218,-6.246 0.365,-0.202 0.739,-0.397 1.117,-0.584 0.515,1.175 -1.767,1.464 -0.617,3.627 1.012,1.905 1.163,2.598 -0.282,3.203 z m 85.932,-13.148 c -0.527,-3.557 -1.391,-7.234 -2.339,-10.224 0.929,0.501 2.066,0.901 3.401,1.131 0.472,0.081 0.978,0.12 1.507,0.12 1.38,0 2.92,-0.262 4.438,-0.706 2.039,-0.595 4.038,-1.518 5.563,-2.576 -1,4.091 -4.59,8.521 -11.172,11.649 -0.478,0.228 -0.944,0.429 -1.398,0.606 z m -7.503,-8.455 c 0,0 -2.508,-3.761 -4.81,-7.092 0.13,-0.117 0.259,-0.237 0.386,-0.359 1.295,-1.253 2.38,-2.329 3.309,-3.248 0.122,0.638 0.267,1.3 0.435,1.992 0.49,2.012 0.79,3.56 0.963,4.749 -0.023,0.053 -0.048,0.107 -0.073,0.16 -0.676,1.413 -0.415,2.402 0.214,3.011 -0.125,0.778 -0.411,0.787 -0.424,0.787 z m 19.081,-10.56 c -0.05,-0.016 -0.101,-0.031 -0.151,-0.045 -0.124,-0.037 -0.248,-0.07 -0.373,-0.099 0.046,-0.129 0.092,-0.257 0.139,-0.383 0.137,0.17 0.265,0.347 0.385,0.527 z m -17.007,-0.734 c -0.114,-0.749 -0.191,-1.496 -0.236,-2.243 0.247,-0.221 0.481,-0.421 0.703,-0.601 0.84,1.637 0.884,2.278 -0.467,2.844 z" style="fill:#5b3127;fill-rule:nonzero" id="path28-8"/>
        <path d="m 70.206,116.392 c -3.73,-1.666 -8.39,1.317 -13.656,2.963 -5.265,1.644 -3.619,10.365 3.292,12.174 6.91,1.81 21.059,-10.367 10.364,-15.137 z" style="fill:#963c22;fill-rule:nonzero" id="path30-0"/>
        <path d="m 59.842,127.451 c -3.198,-0.838 -5.251,-3.155 -6.033,-5.568 -1.275,3.241 0.944,8.314 6.033,9.646 5.765,1.508 16.554,-6.71 13.772,-12.247 -1.902,4.716 -9.328,9.333 -13.772,8.169 z" style="fill:#37302b;fill-rule:nonzero" id="path32-2"/>
        <path d="m 59.317,126.114 c -0.154,0 -0.305,-0.004 -0.451,-0.016 -4.394,-0.313 -4.376,-4.967 -1.285,-4.967 0.144,0 0.294,0.01 0.452,0.031 0.141,0.019 0.279,0.029 0.412,0.029 1.314,0 2.236,-0.883 3.129,-1.768 0.439,-0.433 0.87,-0.867 1.338,-1.197 1.148,0.759 2.107,1.1 2.897,1.101 0.537,0 0.996,-0.157 1.385,-0.45 3.44,3.137 -3.531,7.237 -7.877,7.237 z" style="fill:#b15929;fill-rule:nonzero" id="path34-9"/>
        <path d="m 225.906,99.092 c -3.733,-1.096 -8.391,0.867 -13.656,1.95 -5.265,1.084 -3.621,6.826 3.291,8.02 6.91,1.191 21.06,-6.827 10.365,-9.97 z" style="fill:#963c22;fill-rule:nonzero" id="path36-80"/>
        <path d="m 215.541,106.376 c -3.2,-0.552 -5.253,-2.079 -6.033,-3.667 -1.277,2.134 0.946,5.474 6.033,6.353 5.763,0.996 16.553,-4.42 13.77,-8.066 -1.9,3.104 -9.327,6.146 -13.77,5.38 z" style="fill:#37302b;fill-rule:nonzero" id="path38-3"/>
        <path d="m 217.582,105.244 c -0.769,-1.118 -1.54,-2.227 -2.214,-3.173 0.716,-0.216 1.317,-0.599 1.904,-0.983 0.893,-0.581 1.756,-1.163 2.953,-1.163 0.106,0 0.214,0.004 0.326,0.014 0.15,0.903 0.345,1.852 0.592,2.867 0.11,0.451 0.21,0.879 0.301,1.284 -1.115,0.5 -2.498,0.909 -3.862,1.154 z" style="fill:#b15929;fill-rule:nonzero" id="path40-3"/>
        <path d="m 160.415,53.873 c -3.732,-1.096 -8.391,0.865 -13.657,1.95 -5.264,1.084 -3.618,6.826 3.292,8.017 6.909,1.192 21.06,-6.826 10.365,-9.967 z" style="fill:#963c22;fill-rule:nonzero" id="path42-4"/>
        <path d="m 150.05,61.157 c -3.2,-0.552 -5.254,-2.082 -6.033,-3.668 -1.274,2.134 0.943,5.474 6.033,6.351 5.765,0.995 16.552,-4.419 13.771,-8.066 -1.902,3.107 -9.328,6.148 -13.771,5.383 z" style="fill:#37302b;fill-rule:nonzero" id="path44-3"/>
        <path d="m 242.974,132.175 c -4.663,-3.25 -5.594,-1.275 -10.365,1.503 -4.772,2.774 -9.213,3.269 -11.353,2.117 -1.082,-0.584 -2.46,2.29 -1.444,5.164 0.991,2.803 4.26,5.607 12.304,5.201 16.288,-0.821 16.288,-10.201 10.858,-13.985 z" style="fill:#963c22;fill-rule:nonzero" id="path46-1"/>
        <path d="m 232.116,143.363 c -8.668,0.438 -11.792,-2.849 -12.495,-5.851 -0.778,3.137 0.884,9.234 12.495,8.648 11.623,-0.586 14.95,-5.529 13.927,-9.688 -0.84,3.32 -4.857,6.435 -13.927,6.891 z" style="fill:#37302b;fill-rule:nonzero" id="path48-8"/>
        <path d="m 230.435,139.733 c -4.591,0 -3.873,-2.295 0.363,-3.115 3.715,-0.719 4.987,-2.573 6.358,-2.573 0.511,0 1.036,0.258 1.706,0.928 0,0 3.29,3.126 -4.939,4.442 -1.393,0.222 -2.551,0.318 -3.488,0.318 z" style="fill:#b15929;fill-rule:nonzero" id="path50-9"/>
        <path d="m 146.298,130.718 c -4.662,-3.248 -5.593,-1.272 -10.365,1.504 -4.772,2.776 -9.214,3.269 -11.354,2.116 -1.082,-0.582 -2.459,2.291 -1.444,5.165 0.991,2.805 4.259,5.608 12.304,5.201 16.287,-0.823 16.287,-10.2 10.859,-13.986 z" style="fill:#963c22;fill-rule:nonzero" id="path52-64"/>
        <path d="m 135.439,141.907 c -8.666,0.438 -11.791,-2.849 -12.492,-5.851 -0.78,3.135 0.881,9.234 12.492,8.648 11.624,-0.586 14.949,-5.529 13.93,-9.69 -0.843,3.322 -4.858,6.436 -13.93,6.893 z" style="fill:#37302b;fill-rule:nonzero" id="path54-7"/>
        <path d="m 136.982,137.999 c -0.729,-1.061 -1.458,-2.108 -2.099,-3.008 2.761,-0.708 4.011,-2.03 5.137,-2.338 0.154,0.957 0.359,1.965 0.622,3.046 0.109,0.45 0.21,0.877 0.301,1.282 -0.844,0.372 -2.034,0.711 -3.694,0.976 -0.09,0.015 -0.179,0.028 -0.267,0.042 z" style="fill:#b15929;fill-rule:nonzero" id="path56-0"/>
        <path d="m 271.043,117.636 c -4.663,-3.25 -5.595,-1.276 -10.366,1.501 -4.771,2.779 -9.215,3.271 -11.353,2.12 -1.084,-0.584 -2.461,2.29 -1.445,5.164 0.991,2.803 4.261,5.607 12.304,5.202 16.288,-0.823 16.288,-10.202 10.86,-13.987 z" style="fill:#963c22;fill-rule:nonzero" id="path58-9"/>
        <path d="m 260.183,128.825 c -8.667,0.437 -11.79,-2.851 -12.494,-5.851 -0.776,3.136 0.884,9.233 12.494,8.649 11.623,-0.589 14.949,-5.531 13.93,-9.692 -0.843,3.321 -4.859,6.437 -13.93,6.894 z" style="fill:#37302b;fill-rule:nonzero" id="path60-3"/>
        <path d="m 258.505,125.196 c -4.593,0 -3.875,-2.297 0.363,-3.117 3.715,-0.719 4.985,-2.573 6.355,-2.573 0.511,0 1.036,0.258 1.706,0.927 0,0 3.289,3.127 -4.936,4.443 -1.394,0.223 -2.552,0.32 -3.488,0.32 z" style="fill:#b15929;fill-rule:nonzero" id="path62-9"/>
        <path d="m 28.052,106.105 c -4.661,-3.249 -5.593,-1.275 -10.364,1.501 -4.771,2.776 -9.214,3.271 -11.353,2.117 -1.083,-0.582 -2.461,2.291 -1.445,5.166 0.991,2.803 4.26,5.607 12.304,5.203 16.288,-0.825 16.288,-10.203 10.858,-13.987 z" style="fill:#963c22;fill-rule:nonzero" id="path64-8"/>
        <path d="m 17.194,117.293 c -8.665,0.438 -11.79,-2.851 -12.492,-5.85 -0.78,3.134 0.884,9.235 12.492,8.649 11.623,-0.589 14.95,-5.533 13.929,-9.692 -0.842,3.323 -4.856,6.435 -13.929,6.893 z" style="fill:#37302b;fill-rule:nonzero" id="path66-5"/>
        <path d="m 15.518,113.663 c -4.592,0 -3.876,-2.295 0.359,-3.117 3.716,-0.719 4.987,-2.572 6.357,-2.572 0.511,0 1.036,0.258 1.707,0.928 0,0 3.29,3.125 -4.937,4.443 -1.393,0.223 -2.549,0.318 -3.486,0.318 z" style="fill:#b15929;fill-rule:nonzero" id="path68-2"/>
        <path d="m 127.188,188.215 c -1.206,-0.384 2.193,2.302 4.883,4.881 2.688,2.576 3.618,7.129 3.618,7.129 1.536,2.852 2.359,1.536 1.099,-3.126 -1.265,-4.663 -8.392,-8.502 -9.6,-8.884 z" style="fill:#91c961;fill-rule:nonzero" id="path70-93"/>
        <path d="m 141.777,199.457 c 0,0 4.058,-5.537 3.291,-12.888 z" style="fill:#91c961;fill-rule:nonzero" id="path72-3"/>
        <path d="m 147.373,197.702 c -1.429,2.357 3.946,1.755 3.344,-8.664 0,0 -1.92,6.305 -3.344,8.664 z" style="fill:#91c961;fill-rule:nonzero" id="path74-9"/>
        <path d="m 64.799,118.52 c -2.38,-0.975 -4.184,-1.379 -4.184,-1.379 0,0 4.087,4.374 6.716,3.558 2.627,-0.816 2.949,-4.626 2.949,-4.626 0,0 -3.103,3.42 -5.481,2.447 z" style="fill:#37302b;fill-rule:nonzero" id="path76-0"/>
        <path d="m 69.397,115.29 c 0,0 2.327,1.26 0.883,2.837 -1.446,1.577 -5.085,2.125 -6.486,1.382 -1.402,-0.742 -3.179,-2.755 -3.179,-2.755 0,0 -2.358,0.304 -2.993,0.81 -0.636,0.505 4.91,0.346 3.861,3.237 -1.048,2.892 0.967,2.986 3.316,1.986 2.348,-0.999 3.346,-0.91 6.431,-1.272 3.082,-0.361 5.771,-5.375 -1.833,-6.225 z" style="fill:#963c22;fill-rule:nonzero" id="path78-6"/>
        <path d="m 68.382,41.267 c -3.481,-0.743 -4.042,-2.313 -7.235,-5.884 -3.189,-3.569 -9.432,-2.776 -8.03,-0.868 1.404,1.9 4.892,4.433 1.459,6.788 -2.583,1.772 -1.718,6.583 -2.61,7.435 -0.894,0.852 0.305,4.805 2.953,6.994 2.647,2.193 2.073,2.459 0.238,3.548 -1.833,1.091 2.821,2.893 4.432,5.716 1.612,2.822 -1.771,8.399 0.987,7.143 2.76,-1.253 6.394,-6.437 5.927,-9.245 -0.471,-2.809 0.082,-2.349 1.936,-2.117 1.86,0.229 2.682,-0.765 1.647,-1.993 -1.032,-1.226 1.39,-1.454 4.658,-6.528 3.264,-5.073 -2.883,-10.245 -6.362,-10.989 z" style="fill:#557837;fill-rule:nonzero" id="path80-0"/>
        <path d="m 64.594,66.601 c 0.975,-8.595 -2.534,-11.853 -3.611,-1.222 -1.077,10.633 -2.809,14.536 -0.679,23.289 2.13,8.753 0.679,8.705 0.679,8.705 0,0 -5.349,-8.023 -7.597,-11.005 -2.245,-2.979 -9.756,-3.387 -8.016,3.639 1.742,7.026 10.706,7.416 14.392,11.53 3.685,4.113 2.724,16.396 2.724,16.396 10.481,7.539 6.104,-17.552 2.275,-26.046 -3.827,-8.493 -1.143,-16.69 -0.167,-25.286 z" style="fill:#46612e;fill-rule:nonzero" id="path82-0"/>
        <path d="m 75.835,69.389 c -1.958,-3.667 -2.54,-0.797 -6.747,3.165 -4.212,3.963 -6.357,4.983 -5.302,6.411 1.051,1.429 -1.686,1.585 -0.448,3.913 1.238,2.329 1.188,2.846 -1.491,3.607 -2.678,0.763 0.979,3.675 -0.655,7.089 -1.785,3.737 2.973,4.508 3.761,3.109 0.784,-1.398 2.063,-2.944 7.009,-1.274 4.95,1.672 6.063,-4.851 7.862,-9.506 1.802,-4.652 0.794,-8.837 -0.998,-11.621 -1.793,-2.787 -1.031,-1.228 -2.991,-4.893 z" style="fill:#557837;fill-rule:nonzero" id="path84-4"/>
        <path d="m 32.652,80.599 c -6.264,4.871 -4.615,8.279 -8.765,8.572 -4.149,0.289 -7.599,5.812 -7.599,5.812 0,0 4.923,0.349 10.169,3.012 5.241,2.663 17.238,3.465 23.9,-2.566 C 57.021,89.396 50.64,82.258 50.64,82.258 49.982,78.553 38.915,75.727 32.652,80.599 Z" style="fill:#46612e;fill-rule:nonzero" id="path86-6"/>
        <path d="m 145.301,85.626 c -2.378,-0.974 -4.183,-1.378 -4.183,-1.378 0,0 4.088,4.371 6.715,3.557 2.628,-0.817 2.951,-4.627 2.951,-4.627 0,0 -3.105,3.42 -5.483,2.448 z" style="fill:#37302b;fill-rule:nonzero" id="path88-8"/>
        <path d="m 149.901,82.395 c 0,0 2.327,1.259 0.883,2.836 -1.447,1.577 -5.085,2.125 -6.488,1.382 -1.402,-0.74 -3.178,-2.756 -3.178,-2.756 0,0 -2.357,0.305 -2.993,0.81 -0.636,0.508 4.91,0.348 3.859,3.24 -1.048,2.891 0.97,2.985 3.317,1.985 2.348,-1 3.347,-0.91 6.431,-1.273 3.084,-0.36 5.771,-5.375 -1.831,-6.224 z" style="fill:#963c22;fill-rule:nonzero" id="path90-1"/>
        <path d="m 148.884,8.371 c -3.48,-0.74 -4.041,-2.315 -7.233,-5.883 -3.191,-3.57 -9.434,-2.775 -8.03,-0.87 1.402,1.903 4.891,4.433 1.457,6.79 -2.581,1.773 -1.718,6.581 -2.61,7.434 -0.893,0.851 0.306,4.807 2.954,6.995 2.647,2.191 2.072,2.458 0.24,3.547 -1.834,1.092 2.82,2.894 4.431,5.717 1.612,2.822 -1.773,8.4 0.986,7.144 2.76,-1.254 6.393,-6.437 5.926,-9.247 -0.472,-2.809 0.083,-2.351 1.938,-2.117 1.857,0.229 2.681,-0.763 1.647,-1.992 -1.034,-1.226 1.389,-1.456 4.655,-6.529 3.266,-5.073 -2.882,-10.245 -6.361,-10.989 z" style="fill:#557837;fill-rule:nonzero" id="path92-3"/>
        <path d="m 145.095,33.705 c 0.978,-8.595 -2.533,-11.854 -3.61,-1.22 -1.076,10.631 -2.809,14.534 -0.68,23.286 2.13,8.753 0.68,8.707 0.68,8.707 0,0 -5.349,-8.024 -7.595,-11.005 -2.246,-2.979 -9.757,-3.388 -8.017,3.64 1.741,7.024 10.705,7.414 14.392,11.527 3.686,4.114 2.725,16.397 2.725,16.397 10.479,7.537 6.104,-17.552 2.275,-26.046 -3.829,-8.493 -1.145,-16.69 -0.17,-25.286 z" style="fill:#46612e;fill-rule:nonzero" id="path94-8"/>
        <path d="m 156.339,36.493 c -1.96,-3.668 -2.541,-0.797 -6.748,3.165 -4.211,3.965 -6.356,4.982 -5.303,6.413 1.051,1.428 -1.686,1.586 -0.449,3.912 1.239,2.328 1.19,2.843 -1.489,3.605 -2.677,0.763 0.978,3.676 -0.655,7.092 -1.786,3.735 2.974,4.506 3.759,3.108 0.785,-1.399 2.064,-2.944 7.011,-1.274 4.948,1.672 6.064,-4.852 7.862,-9.507 1.803,-4.652 0.795,-8.836 -0.998,-11.62 -1.793,-2.785 -1.031,-1.228 -2.99,-4.894 z" style="fill:#557837;fill-rule:nonzero" id="path96-5"/>
        <path d="m 113.156,47.704 c -6.265,4.872 -4.617,8.279 -8.766,8.57 -4.148,0.292 -7.599,5.813 -7.599,5.813 0,0 4.923,0.349 10.168,3.012 5.241,2.665 17.239,3.465 23.901,-2.566 6.663,-6.032 0.283,-13.17 0.283,-13.17 -0.658,-3.708 -11.726,-6.529 -17.987,-1.659 z" style="fill:#46612e;fill-rule:nonzero" id="path98-1"/>
        <path d="m 145.137,165.554 c -2.382,-0.974 -4.183,-1.376 -4.183,-1.376 0,0 4.086,4.372 6.715,3.554 2.627,-0.817 2.949,-4.626 2.949,-4.626 0,0 -3.103,3.422 -5.481,2.448 z" style="fill:#37302b;fill-rule:nonzero" id="path100-9"/>
        <path d="m 149.735,162.324 c 0,0 2.327,1.26 0.883,2.838 -1.445,1.576 -5.085,2.122 -6.486,1.381 -1.402,-0.743 -3.178,-2.756 -3.178,-2.756 0,0 -2.359,0.305 -2.995,0.81 -0.636,0.505 4.912,0.347 3.862,3.238 -1.05,2.892 0.968,2.986 3.316,1.986 2.348,-1 3.346,-0.909 6.431,-1.271 3.083,-0.362 5.771,-5.375 -1.833,-6.226 z" style="fill:#963c22;fill-rule:nonzero" id="path102-1"/>
        <path d="m 148.72,88.3 c -3.481,-0.741 -4.041,-2.314 -7.235,-5.883 -3.19,-3.57 -9.432,-2.776 -8.029,-0.871 1.403,1.903 4.891,4.435 1.457,6.791 -2.583,1.773 -1.717,6.58 -2.609,7.433 -0.895,0.853 0.305,4.806 2.953,6.996 2.647,2.193 2.071,2.457 0.237,3.547 -1.831,1.091 2.821,2.892 4.435,5.717 1.611,2.822 -1.773,8.399 0.985,7.145 2.761,-1.255 6.394,-6.437 5.928,-9.247 -0.473,-2.809 0.081,-2.353 1.936,-2.119 1.858,0.231 2.68,-0.763 1.646,-1.992 -1.033,-1.225 1.39,-1.456 4.658,-6.527 3.265,-5.075 -2.883,-10.245 -6.362,-10.99 z" style="fill:#557837;fill-rule:nonzero" id="path104-2"/>
        <path d="m 144.932,113.634 c 0.976,-8.596 -2.534,-11.852 -3.611,-1.222 -1.076,10.633 -2.809,14.536 -0.679,23.287 2.13,8.755 0.679,8.708 0.679,8.708 0,0 -5.349,-8.025 -7.595,-11.005 -2.248,-2.98 -9.757,-3.387 -8.017,3.638 1.741,7.026 10.704,7.417 14.391,11.531 3.685,4.112 2.725,16.396 2.725,16.396 10.48,7.535 6.102,-17.555 2.274,-26.047 -3.828,-8.494 -1.144,-16.69 -0.167,-25.286 z" style="fill:#46612e;fill-rule:nonzero" id="path106-4"/>
        <path d="m 156.174,116.421 c -1.96,-3.668 -2.54,-0.798 -6.748,3.166 -4.211,3.964 -6.357,4.981 -5.302,6.411 1.051,1.43 -1.687,1.587 -0.448,3.914 1.237,2.327 1.19,2.844 -1.492,3.604 -2.678,0.763 0.98,3.675 -0.653,7.092 -1.787,3.736 2.973,4.506 3.76,3.109 0.783,-1.398 2.061,-2.945 7.009,-1.276 4.947,1.673 6.063,-4.849 7.862,-9.504 1.802,-4.652 0.794,-8.838 -0.999,-11.621 -1.792,-2.786 -1.029,-1.228 -2.989,-4.895 z" style="fill:#557837;fill-rule:nonzero" id="path108-9"/>
        <path d="m 112.99,127.631 c -6.264,4.872 -4.615,8.281 -8.765,8.573 -4.149,0.29 -7.6,5.813 -7.6,5.813 0,0 4.922,0.349 10.168,3.01 5.243,2.665 17.239,3.464 23.902,-2.565 6.664,-6.032 0.283,-13.17 0.283,-13.17 -0.658,-3.708 -11.726,-6.53 -17.988,-1.661 z" style="fill:#46612e;fill-rule:nonzero" id="path110-1"/>
        <path d="m 225.639,132.658 c -2.378,-0.975 -4.183,-1.376 -4.183,-1.376 0,0 4.088,4.371 6.715,3.556 2.628,-0.817 2.951,-4.628 2.951,-4.628 0,0 -3.104,3.421 -5.483,2.448 z" style="fill:#37302b;fill-rule:nonzero" id="path112-9"/>
        <path d="m 230.239,129.428 c 0,0 2.327,1.258 0.883,2.837 -1.447,1.577 -5.086,2.124 -6.488,1.382 -1.4,-0.743 -3.178,-2.756 -3.178,-2.756 0,0 -2.357,0.305 -2.994,0.81 -0.635,0.506 4.911,0.346 3.861,3.238 -1.049,2.893 0.968,2.986 3.316,1.986 2.349,-1 3.347,-0.911 6.431,-1.272 3.084,-0.361 5.771,-5.374 -1.831,-6.225 z" style="fill:#963c22;fill-rule:nonzero" id="path114-3"/>
        <path d="m 229.223,55.407 c -3.481,-0.744 -4.042,-2.315 -7.234,-5.886 -3.191,-3.57 -9.434,-2.775 -8.03,-0.869 1.402,1.902 4.891,4.434 1.456,6.789 -2.581,1.772 -1.717,6.581 -2.609,7.433 -0.892,0.853 0.306,4.807 2.952,6.997 2.649,2.191 2.073,2.458 0.242,3.547 -1.835,1.091 2.819,2.893 4.431,5.716 1.612,2.821 -1.773,8.398 0.986,7.143 2.76,-1.253 6.395,-6.435 5.926,-9.245 -0.471,-2.81 0.082,-2.349 1.938,-2.119 1.858,0.229 2.681,-0.761 1.648,-1.99 -1.035,-1.226 1.389,-1.455 4.654,-6.529 3.266,-5.076 -2.881,-10.245 -6.36,-10.987 z" style="fill:#557837;fill-rule:nonzero" id="path116-1"/>
        <path d="m 225.434,80.738 c 0.975,-8.594 -2.534,-11.854 -3.609,-1.222 -1.078,10.634 -2.811,14.537 -0.682,23.29 2.13,8.752 0.682,8.705 0.682,8.705 0,0 -5.351,-8.025 -7.597,-11.004 -2.246,-2.98 -9.757,-3.388 -8.017,3.638 1.741,7.025 10.705,7.416 14.392,11.53 3.685,4.113 2.725,16.396 2.725,16.396 10.48,7.537 6.105,-17.554 2.275,-26.046 -3.829,-8.493 -1.147,-16.691 -0.169,-25.287 z" style="fill:#46612e;fill-rule:nonzero" id="path118-9"/>
        <path d="m 236.676,83.524 c -1.959,-3.664 -2.54,-0.794 -6.747,3.168 -4.211,3.965 -6.355,4.983 -5.303,6.41 1.053,1.428 -1.686,1.587 -0.449,3.914 1.24,2.328 1.19,2.845 -1.49,3.605 -2.676,0.765 0.979,3.676 -0.652,7.09 -1.789,3.737 2.973,4.508 3.757,3.11 0.784,-1.396 2.064,-2.945 7.011,-1.275 4.948,1.672 6.062,-4.85 7.862,-9.506 1.803,-4.651 0.795,-8.836 -0.998,-11.62 -1.793,-2.787 -1.031,-1.228 -2.991,-4.896 z" style="fill:#557837;fill-rule:nonzero" id="path120-4"/>
        <path d="m 193.493,94.735 c -6.264,4.873 -4.616,8.281 -8.765,8.573 -4.148,0.29 -7.6,5.813 -7.6,5.813 0,0 4.924,0.348 10.167,3.012 5.244,2.663 17.241,3.464 23.903,-2.566 6.662,-6.034 0.283,-13.172 0.283,-13.172 -0.659,-3.704 -11.726,-6.53 -17.988,-1.66 z" style="fill:#46612e;fill-rule:nonzero" id="path122-4"/>
        <path d="m 141.718,30.62 c -1.44,-1.405 -3.929,-3.911 -3.644,-4.179 0.398,-0.375 0.023,-3.58 -2.227,-6.728 -2.25,-3.147 -0.875,-8.147 1.125,-9.022 2,-0.875 1.703,-2.375 1.102,-5.5 -0.429,-2.23 -1.795,-3.849 -1.065,-3.849 0.292,0 0.923,0.261 2.088,0.849 0,0 9.082,9.5 6.854,14.25 -1.123,2.393 -1.94,6.214 -2.474,9.417 -0.637,0.325 -1.307,1.808 -1.759,4.762 z" style="fill:#59883d;fill-rule:nonzero" id="path124-6"/>
        <path d="m 142.7,31.566 c 0,0 -0.408,-0.386 -0.982,-0.946 0.452,-2.954 1.122,-4.437 1.759,-4.762 -0.526,3.153 -0.777,5.708 -0.777,5.708 z" style="fill:#527a38;fill-rule:nonzero" id="path126-2"/>
        <path d="m 144.521,61.792 c -0.313,0 -0.605,-0.034 -0.868,-0.101 -2.909,-0.75 0.944,-4.375 3.694,-6.986 2.75,-2.61 -0.125,-5.264 -0.646,-9.595 -0.522,-4.33 5.749,-0.375 8.129,-5.169 0.478,-0.961 0.942,-1.386 1.352,-1.386 1.615,0 2.389,6.579 -0.174,12.761 -2.922,7.047 -8.341,10.476 -11.487,10.476 z" style="fill:#59883d;fill-rule:nonzero" id="path128-8"/>
        <path d="m 135.357,62.892 c -0.165,0 -0.388,-0.104 -0.671,-0.326 -0.734,-0.578 -1.604,-1.042 -2.571,-1.364 0.974,-1.23 1.482,-2.48 1.68,-3.686 1.795,2.977 2.356,5.376 1.562,5.376 z" style="fill:#527a38;fill-rule:nonzero" id="path130-5"/>
        <path d="m 116.86,63.646 c -2.139,0 -4.724,-0.517 -8.263,-1.854 -8,-3.023 -10.714,-1.199 -0.625,-4.303 8.034,-2.47 7.87,-6.902 9.048,-6.902 0.301,0 0.691,0.291 1.327,0.979 0,0 1.86,-2.538 4.976,-2.538 1.524,0 3.347,0.608 5.399,2.413 2.197,1.932 3.899,4.128 5.073,6.075 -0.198,1.206 -0.706,2.456 -1.68,3.686 -1.001,-0.333 -2.105,-0.515 -3.267,-0.515 -1.597,0 -3.303,0.343 -5.001,1.105 -2.3,1.033 -4.289,1.854 -6.987,1.854 z" style="fill:#527a38;fill-rule:nonzero" id="path132-9"/>
        <path d="m 217.555,72.095 c -0.052,-0.201 -0.113,-0.41 -0.183,-0.627 0.154,0.242 0.21,0.444 0.183,0.627 z" style="fill:#80a440;fill-rule:nonzero" id="path134-7"/>
        <path d="m 221.867,79.118 c -1.209,-1.162 -4.522,-4.406 -4.196,-4.713 0.199,-0.187 0.205,-1.076 -0.116,-2.31 0.027,-0.183 -0.029,-0.385 -0.183,-0.627 -0.365,-1.13 -0.98,-2.465 -1.927,-3.79 -2.25,-3.148 -0.875,-8.149 1.125,-9.023 2,-0.875 1.703,-2.375 1.101,-5.5 -0.429,-2.23 -1.794,-3.849 -1.065,-3.849 0.293,0 0.924,0.261 2.089,0.849 0,0 9.082,9.5 6.853,14.25 -1.12,2.388 -1.936,6.197 -2.47,9.396 -0.48,0.971 -0.922,2.697 -1.211,5.317 z" style="fill:#59883d;fill-rule:nonzero" id="path136-0"/>
        <path d="m 222.297,79.53 c 0,0 -0.164,-0.154 -0.43,-0.412 0.289,-2.62 0.731,-4.346 1.211,-5.317 -0.528,3.163 -0.781,5.729 -0.781,5.729 z" style="fill:#527a38;fill-rule:nonzero" id="path138-6"/>
        <path d="m 224.119,109.757 c -0.314,0 -0.605,-0.035 -0.869,-0.103 -2.909,-0.749 0.945,-4.374 3.695,-6.984 2.75,-2.61 -0.125,-5.265 -0.647,-9.596 -0.521,-4.33 5.749,-0.375 8.13,-5.17 0.478,-0.961 0.942,-1.385 1.351,-1.385 1.616,0 2.39,6.58 -0.173,12.761 -2.923,7.047 -8.341,10.477 -11.487,10.477 z" style="fill:#59883d;fill-rule:nonzero" id="path140-7"/>
        <path d="m 214.954,110.856 c -0.164,0 -0.388,-0.103 -0.67,-0.326 -0.752,-0.593 -1.646,-1.063 -2.641,-1.386 1.017,-1.021 1.68,-2.065 2.08,-3.098 1.531,2.71 1.975,4.81 1.231,4.81 z" style="fill:#527a38;fill-rule:nonzero" id="path142-8"/>
        <path d="m 196.458,111.61 c -2.14,0 -4.725,-0.516 -8.263,-1.853 -8,-3.022 -10.714,-1.199 -0.625,-4.303 8.033,-2.471 7.87,-6.901 9.047,-6.901 0.302,0 0.691,0.289 1.328,0.976 0,0 1.86,-2.536 4.976,-2.536 1.523,0 3.347,0.606 5.399,2.412 2.412,2.122 4.228,4.562 5.403,6.641 -0.4,1.033 -1.063,2.077 -2.08,3.098 -0.983,-0.319 -2.062,-0.492 -3.197,-0.492 -1.597,0 -3.304,0.343 -5.001,1.105 -2.301,1.033 -4.29,1.853 -6.987,1.853 z" style="fill:#527a38;fill-rule:nonzero" id="path144-9"/>
        <path d="m 141.65,109.962 c -1.45,-1.417 -3.856,-3.849 -3.575,-4.113 0.398,-0.375 0.023,-3.579 -2.227,-6.726 -2.25,-3.149 -0.875,-8.149 1.125,-9.024 2,-0.874 1.703,-2.375 1.102,-5.499 -0.429,-2.23 -1.795,-3.849 -1.065,-3.849 0.292,0 0.923,0.261 2.088,0.848 0,0 9.082,9.5 6.854,14.251 -1.18,2.514 -2.022,6.605 -2.553,9.899 -0.619,0.216 -1.28,1.523 -1.749,4.213 z" style="fill:#59883d;fill-rule:nonzero" id="path146-3"/>
        <path d="m 142.701,110.975 c 0,0 -0.441,-0.417 -1.051,-1.013 0.469,-2.69 1.13,-3.997 1.749,-4.213 -0.472,2.929 -0.698,5.226 -0.698,5.226 z" style="fill:#527a38;fill-rule:nonzero" id="path148-1"/>
        <path d="m 144.522,141.201 c -0.313,0 -0.605,-0.034 -0.868,-0.102 -2.909,-0.75 0.944,-4.375 3.694,-6.984 2.75,-2.609 -0.125,-5.265 -0.646,-9.596 -0.522,-4.33 5.749,-0.375 8.129,-5.17 0.478,-0.96 0.942,-1.385 1.352,-1.385 1.615,0 2.389,6.581 -0.174,12.76 -2.922,7.048 -8.341,10.478 -11.487,10.477 z" style="fill:#59883d;fill-rule:nonzero" id="path150-9"/>
        <path d="m 135.358,142.301 c -0.165,0 -0.388,-0.104 -0.671,-0.327 -0.689,-0.543 -1.498,-0.984 -2.395,-1.303 0.912,-1.308 1.323,-2.631 1.418,-3.888 1.863,3.043 2.455,5.518 1.648,5.518 z" style="fill:#527a38;fill-rule:nonzero" id="path152-9"/>
        <path d="m 116.861,143.055 c -2.139,0 -4.724,-0.515 -8.263,-1.853 -8,-3.024 -10.714,-1.2 -0.625,-4.303 8.034,-2.471 7.87,-6.903 9.048,-6.903 0.301,0 0.69,0.291 1.327,0.978 0,0 1.86,-2.537 4.976,-2.537 1.524,0 3.347,0.608 5.399,2.412 2.143,1.886 3.816,4.022 4.987,5.934 -0.095,1.257 -0.506,2.58 -1.418,3.888 -1.047,-0.371 -2.212,-0.574 -3.443,-0.574 -1.597,0 -3.303,0.342 -5.001,1.105 -2.3,1.033 -4.289,1.853 -6.987,1.853 z" style="fill:#527a38;fill-rule:nonzero" id="path154-5"/>
        <path d="m 61.051,64.749 c -1.425,-1.415 -3.221,-3.293 -2.976,-3.523 0.398,-0.375 0.023,-3.579 -2.227,-6.727 -2.25,-3.148 -0.875,-8.148 1.125,-9.023 2,-0.875 1.703,-2.375 1.102,-5.5 -0.429,-2.228 -1.795,-3.848 -1.065,-3.848 0.292,0 0.923,0.261 2.088,0.848 0,0 9.082,9.5 6.854,14.25 -0.933,1.988 -1.654,4.958 -2.177,7.743 -0.166,-0.187 -0.344,-0.286 -0.529,-0.286 -0.793,0 -1.698,1.806 -2.195,6.066 z" style="fill:#59883d;fill-rule:nonzero" id="path156-4"/>
        <path d="m 62.701,66.351 c 0,0 -0.751,-0.71 -1.65,-1.602 0.497,-4.26 1.402,-6.066 2.195,-6.066 0.185,0 0.363,0.099 0.529,0.286 -0.728,3.873 -1.074,7.382 -1.074,7.382 z" style="fill:#527a38;fill-rule:nonzero" id="path158-8"/>
        <path d="m 66.35,96.265 c -0.096,-0.318 -0.194,-0.629 -0.292,-0.934 0.52,-0.385 1.232,-0.648 2.269,-0.648 0.304,0 0.637,0.023 1.001,0.073 -1.033,0.712 -2.048,1.214 -2.978,1.509 z" style="fill:#686628;fill-rule:nonzero" id="path160-5"/>
        <path d="m 65.028,96.551 c 0.254,-0.436 0.566,-0.876 1.03,-1.22 0.098,0.305 0.196,0.616 0.292,0.934 -0.465,0.147 -0.909,0.242 -1.322,0.286 z" style="fill:#527a38;fill-rule:nonzero" id="path162-6"/>
        <path d="m 64.522,96.579 c -0.313,0 -0.605,-0.034 -0.868,-0.103 -2.909,-0.75 0.944,-4.375 3.694,-6.983 2.75,-2.611 -0.125,-5.267 -0.646,-9.597 -0.522,-4.33 5.749,-0.375 8.129,-5.17 0.478,-0.961 0.942,-1.384 1.352,-1.384 1.615,0 2.389,6.578 -0.174,12.759 -1.696,4.092 -4.235,6.965 -6.681,8.655 -0.364,-0.05 -0.697,-0.073 -1.001,-0.073 -1.037,0 -1.749,0.263 -2.269,0.648 -0.464,0.344 -0.776,0.784 -1.03,1.22 -0.174,0.018 -0.343,0.028 -0.506,0.028 z" style="fill:#59883d;fill-rule:nonzero" id="path164-7"/>
        <path d="m 55.358,97.678 c -0.165,0 -0.389,-0.104 -0.671,-0.327 -1.189,-0.936 -2.739,-1.573 -4.475,-1.792 0.049,-0.043 0.097,-0.086 0.145,-0.13 1.519,-1.375 2.36,-2.806 2.754,-4.199 2.329,3.451 3.135,6.448 2.247,6.448 z" style="fill:#527a38;fill-rule:nonzero" id="path166-6"/>
        <path d="m 36.861,98.433 c -2.139,0 -4.724,-0.517 -8.263,-1.854 -8,-3.024 -10.714,-1.2 -0.625,-4.302 8.034,-2.472 7.87,-6.904 9.048,-6.904 0.301,0 0.691,0.292 1.327,0.978 0,0 1.86,-2.537 4.976,-2.537 1.523,0 3.347,0.607 5.399,2.412 1.801,1.585 3.27,3.347 4.388,5.004 -0.394,1.393 -1.235,2.824 -2.754,4.199 -0.048,0.044 -0.096,0.087 -0.145,0.13 -0.443,-0.056 -0.898,-0.085 -1.363,-0.085 -1.597,0 -3.303,0.342 -5.001,1.105 -2.3,1.032 -4.289,1.854 -6.987,1.854 z" style="fill:#527a38;fill-rule:nonzero" id="path168-6"/>
    </g>
</svg>
